<?xml version="1.0" encoding="utf-8"?>
<!-- Generator: Adobe Illustrator 25.1.0, SVG Export Plug-In . SVG Version: 6.00 Build 0)  -->
<svg version="1.1" id="Layer_1" xmlns="http://www.w3.org/2000/svg" xmlns:xlink="http://www.w3.org/1999/xlink" x="0px" y="0px"
	 viewBox="0 0 3300 2200" style="enable-background:new 0 0 3300 2200;" xml:space="preserve">
<style type="text/css">
	.st0{fill:#FFFFFF;}
	.st1{fill:none;stroke:#000000;stroke-width:0.5;}
	.st2{font-family:'Arial-BoldMT';}
	.st3{font-size:12px;}
	.st4{font-family:'ArialMT';}
	.st5{fill:none;stroke:#00AEEF;stroke-width:0.5;}
	.st6{fill:#27AAE1;}
	.st7{fill:none;stroke:#27AAE1;stroke-width:0.5;}
	.st8{fill:none;stroke:#000000;stroke-width:10;stroke-linecap:round;stroke-miterlimit:10;}
	.st9{fill:none;stroke:#000000;stroke-width:9;stroke-linecap:round;stroke-miterlimit:10;}
</style>
<g id="Notes">
	<rect id="artboard" class="st0" width="3300" height="2200"/>
	<line class="st1" x1="263" y1="292" x2="3036" y2="292"/>
	<text transform="matrix(1 0 0 1 263 322)" class="st2 st3">Weight/Scale Variations</text>
	<text transform="matrix(1 0 0 1 536.0362 322)" class="st4 st3">Ultralight</text>
	<text transform="matrix(1 0 0 1 844.7501 322)" class="st4 st3">Thin</text>
	<text transform="matrix(1 0 0 1 1140.1193 322)" class="st4 st3">Light</text>
	<text transform="matrix(1 0 0 1 1428.8282 322)" class="st4 st3">Regular</text>
	<text transform="matrix(1 0 0 1 1725.2202 322)" class="st4 st3">Medium</text>
	<text transform="matrix(1 0 0 1 2018.2563 322)" class="st4 st3">Semibold</text>
	<text transform="matrix(1 0 0 1 2327.9712 322)" class="st4 st3">Bold</text>
	<text transform="matrix(1 0 0 1 2619.6831 322)" class="st4 st3">Heavy</text>
	<text transform="matrix(1 0 0 1 2918.728 322)" class="st4 st3">Black</text>
	<line class="st1" x1="263" y1="1903" x2="3036" y2="1903"/>
	<g transform="matrix(1 0 0 1 263 1933)">
		<path d="M9.2,0.8c4.3,0,7.9-3.6,7.9-7.9S13.5-15,9.2-15s-7.9,3.6-7.9,7.9C1.4-2.7,5,0.8,9.2,0.8z M9.2-0.7c-3.5,0-6.4-2.8-6.4-6.4
			s2.8-6.4,6.4-6.4s6.4,2.8,6.4,6.4C15.7-3.5,12.8-0.7,9.2-0.7z M6.4-6.3h2.1v2.1c0,0.4,0.3,0.7,0.7,0.7s0.7-0.3,0.7-0.7v-2.1H12
			c0.4,0,0.7-0.3,0.7-0.7c0-0.4-0.3-0.7-0.7-0.7h-2v-2.1c0-0.4-0.3-0.8-0.7-0.8s-0.7,0.3-0.7,0.8v2.1H6.4C5.9-7.8,5.6-7.5,5.6-7
			C5.6-6.6,5.9-6.3,6.4-6.3z"/>
	</g>
	<g transform="matrix(1 0 0 1 281.506 1933)">
		<path d="M11.7,2.9c5.4,0,10-4.5,10-10c0-5.4-4.5-10-10-10c-5.4,0-10,4.5-10,10C1.7-1.6,6.3,2.9,11.7,2.9z M11.7,1.2
			c-4.6,0-8.3-3.7-8.3-8.3s3.7-8.3,8.3-8.3S20-11.7,20-7.1C20-2.4,16.3,1.2,11.7,1.2z M8-6.2h2.9v2.9c0,0.5,0.3,0.8,0.8,0.8
			s0.8-0.3,0.8-0.8v-2.9h2.9c0.5,0,0.8-0.3,0.8-0.8s-0.3-0.8-0.8-0.8h-2.9v-2.9c0-0.5-0.3-0.8-0.8-0.8s-0.8,0.3-0.8,0.8v2.9H8
			C7.5-7.9,7.1-7.5,7.1-7C7.1-6.6,7.5-6.2,8-6.2z"/>
	</g>
	<g transform="matrix(1 0 0 1 304.924 1933)">
		<path d="M15,5.7c7,0,12.7-5.8,12.7-12.7c0-7-5.8-12.7-12.7-12.7C8-19.8,2.3-14,2.3-7.1C2.3-0.1,8,5.7,15,5.7z M15,3.8
			C8.9,3.8,4.1-1,4.1-7.1C4.1-13.1,8.9-18,15-18c6,0,10.9,4.9,10.9,10.9C25.9-1,21,3.8,15,3.8z M10.1-6.1h4v4c0,0.5,0.4,0.9,0.9,0.9
			s0.9-0.4,0.9-0.9v-4h4c0.5,0,0.9-0.4,0.9-0.9s-0.4-0.9-0.9-0.9h-4v-4c0-0.6-0.4-0.9-0.9-0.9s-0.9,0.4-0.9,0.9v4h-4
			c-0.6,0-1,0.3-1,0.9C9.1-6.5,9.5-6.1,10.1-6.1z"/>
	</g>
	<text transform="matrix(1 0 0 1 263 1953)" class="st2 st3">Design Variations</text>
	<text transform="matrix(1 0 0 1 263 1971)" class="st4 st3">Symbols are supported in up to nine weights and three scales.</text>
	<text transform="matrix(1 0 0 1 263 1989)" class="st4 st3">For optimal layout with text and other symbols, vertically align</text>
	<text transform="matrix(1 0 0 1 263 2007)" class="st4 st3">symbols with the adjacent text.</text>
	<line class="st5" x1="776" y1="1919" x2="776" y2="1933"/>
	<g transform="matrix(1 0 0 1 776 1933)">
		<path d="M3.3,0.1c0.5,0,0.8-0.2,1-0.7l1.3-3.5h5.8l1.3,3.5c0.2,0.5,0.4,0.7,0.9,0.7s0.8-0.3,0.8-0.8c0-0.2,0-0.3-0.1-0.5L9.7-13.4
			C9.4-14,9-14.3,8.4-14.3s-1,0.3-1.2,0.9L2.6-1.2C2.5-1,2.5-0.8,2.5-0.7C2.5-0.2,2.8,0.1,3.3,0.1z M6-5.5l2.4-6.6l0,0l2.4,6.6
			C10.8-5.5,6-5.5,6-5.5z"/>
	</g>
	<line class="st5" x1="792.8" y1="1919" x2="792.8" y2="1933"/>
	<text transform="matrix(1 0 0 1 776 1953)" class="st2 st3">Margins</text>
	<text transform="matrix(1 0 0 1 776 1971)" class="st4 st3">Leading and trailing margins on the left and right side of each symbol</text>
	<text transform="matrix(1 0 0 1 776 1989)" class="st4 st3">can be adjusted by modifying the x-location of the margin guidelines.</text>
	<text transform="matrix(1 0 0 1 776 2007)" class="st4 st3">Modifications are automatically applied proportionally to all</text>
	<text transform="matrix(1 0 0 1 776 2025)" class="st4 st3">scales and weights.</text>
	<g transform="matrix(1 0 0 1 1289 1933)">
		<path d="M2.8,1.9l1.7,1.7c0.9,0.9,1.8,0.8,2.8-0.2L17.5-7.9c0.3,0.1,0.5,0.1,0.8,0L19.4-8l0.7,0.7v0.6c0,0.5,0.1,0.9,0.6,1.4
			l0.8,0.7c0.5,0.5,1.1,0.5,1.6,0L26-7.5C26.5-8,26.4-8.6,26-9l-1-0.9c-0.5-0.5-0.8-0.6-1.3-0.6h-0.6l-0.6-0.6l0.2-1.1
			c0.1-0.6,0-1-0.6-1.6L19.9-16c-3.3-3.3-7.8-3.2-10.7-0.4C8.8-16,8.8-15.4,9-15s0.7,0.6,1.3,0.4c1.5-0.3,3-0.4,4.4,0.5l-0.6,1.5
			c-0.2,0.5-0.2,0.9-0.1,1.2L3-0.9C2.1,0,2,1,2.8,1.9z M10.8-16c2.4-1.8,5.7-1.5,7.9,0.8l2.4,2.4c0.2,0.2,0.3,0.4,0.2,0.8L21-10.5
			L22.5-9l1-0.1c0.3,0,0.3,0,0.5,0.2l0.6,0.6l-2.4,2.4l-0.6-0.6c-0.2-0.2-0.2-0.3-0.2-0.5l0.1-1L20-9.5l-1.5,0.3
			c-0.3,0.1-0.5,0-0.7-0.2l-2-2c-0.3-0.2-0.3-0.4-0.1-0.8l0.9-2.1C15-15.8,13-16.4,11-15.8C10.7-15.7,10.6-15.8,10.8-16z M5.3,2.3
			L4.1,1.1C3.6,0.7,3.7,0.3,4.1,0L15-10.2l1.5,1.5l-10,11C6.1,2.7,5.7,2.8,5.3,2.3z"/>
	</g>
	<text transform="matrix(1 0 0 1 1289 1953)" class="st2 st3">Exporting</text>
	<text transform="matrix(1 0 0 1 1289 1971)" class="st4 st3">Symbols should be outlined when exporting to ensure the</text>
	<text transform="matrix(1 0 0 1 1289 1989)" class="st4 st3">design is preserved when submitting to Xcode.</text>
	<text id="template-version" transform="matrix(1 0 0 1 2958.8496 1933)" class="st4 st3">Template v.2.0</text>
	<text transform="matrix(1 0 0 1 2878.5762 1951)" class="st4 st3">Requires Xcode 12 or greater</text>
	<text transform="matrix(1 0 0 1 2887.9336 1969)" class="st4 st3">Generated from folder.circle</text>
	<text transform="matrix(1 0 0 1 2921.9238 1987)" class="st4 st3">Typeset at 100 points</text>
	<text transform="matrix(1 0 0 1 263 726)" class="st4 st3">Small</text>
	<text transform="matrix(1 0 0 1 263 1156)" class="st4 st3">Medium</text>
	<text transform="matrix(1 0 0 1 263 1586)" class="st4 st3">Large</text>
</g>
<g id="Guides">
	<g id="H-reference" transform="matrix(1 0 0 1 339 696)">
		<path class="st6" d="M1,0h2.7L13-24.5h32.8L55.1,0h2.6L30.6-70.5h-2.5L1,0z M29.3-67.1L29.3-67.1l15.5,40.4h-31L29.3-67.1z"/>
	</g>
	<line id="Baseline-S" class="st7" x1="263" y1="696" x2="3036" y2="696"/>
	<line id="Capline-S" class="st7" x1="263" y1="625.5" x2="3036" y2="625.5"/>
	<g id="H-reference_1_" transform="matrix(1 0 0 1 339 1126)">
		<path class="st6" d="M1,0h2.7L13-24.5h32.8L55.1,0h2.6L30.6-70.5h-2.5L1,0z M29.3-67.1L29.3-67.1l15.5,40.4h-31L29.3-67.1z"/>
	</g>
	<line id="Baseline-M" class="st7" x1="263" y1="1126" x2="3036" y2="1126"/>
	<line id="Capline-M" class="st7" x1="263" y1="1055.5" x2="3036" y2="1055.5"/>
	<g id="H-reference_2_" transform="matrix(1 0 0 1 339 1556)">
		<path class="st6" d="M1,0h2.7L13-24.5h32.8L55.1,0h2.6L30.6-70.5h-2.5L1,0z M29.3-67.1L29.3-67.1l15.5,40.4h-31L29.3-67.1z"/>
	</g>
	<line id="Baseline-L" class="st7" x1="263" y1="1556" x2="3036" y2="1556"/>
	<line id="Capline-L" class="st7" x1="263" y1="1485.5" x2="3036" y2="1485.5"/>
	<line id="left-margin" class="st5" x1="1391.3" y1="1030.8" x2="1391.3" y2="1150.1"/>
	<line id="right-margin" class="st5" x1="1508.4" y1="1030.8" x2="1508.4" y2="1150.1"/>
</g>
<g id="Symbols">
	<g id="Semibold-M" transform="matrix(1 0 0 1 1983.5 1126)">
		<g>
			<line class="st8" x1="14.8" y1="-9.8" x2="104.8" y2="-9.8"/>
			<line class="st8" x1="14.8" y1="-60.7" x2="104.8" y2="-60.7"/>
		</g>
		<g>
			<path d="M15.3-21.3c-1.7-0.7-3-1.6-3.9-2.9c-1-1.2-1.5-2.7-1.6-4.4l0-0.3h4.9l0,0.2c0.1,0.8,0.5,1.5,1.1,2.1s1.3,1.1,2.3,1.4
				c0.9,0.3,2,0.5,3.2,0.5c1.2,0,2.3-0.2,3.1-0.5c0.9-0.3,1.6-0.8,2-1.4s0.7-1.3,0.7-2.2v0c0-1.1-0.4-1.9-1.2-2.6
				c-0.8-0.6-2.1-1.1-4-1.5l-3.1-0.6c-2.8-0.6-4.9-1.5-6.4-2.9s-2.1-3.1-2.1-5.2v0c0-1.7,0.5-3.2,1.4-4.5c0.9-1.3,2.2-2.3,3.8-3
				c1.6-0.7,3.5-1.1,5.5-1.1c2.1,0,3.9,0.3,5.5,1c1.6,0.7,2.8,1.7,3.7,2.9c0.9,1.2,1.4,2.7,1.5,4.3l0,0.3h-4.9l0-0.3
				c-0.1-0.8-0.4-1.6-0.9-2.1c-0.5-0.6-1.2-1-2-1.4c-0.8-0.3-1.8-0.5-2.9-0.5c-1.1,0-2.1,0.2-2.9,0.5c-0.8,0.3-1.5,0.8-1.9,1.4
				c-0.4,0.6-0.7,1.3-0.7,2v0c0,1,0.4,1.8,1.2,2.5c0.8,0.6,2.1,1.1,3.8,1.5l3.1,0.6c3,0.6,5.2,1.6,6.6,2.9c1.4,1.3,2.1,3.1,2.1,5.3
				v0c0,1.8-0.4,3.3-1.3,4.7s-2.2,2.3-3.9,3.1c-1.7,0.7-3.7,1.1-6,1.1C18.9-20.3,17-20.7,15.3-21.3z"/>
			<path d="M40.6-21.3c-1.7-0.7-3-1.6-3.9-2.9s-1.5-2.7-1.6-4.4l0-0.3H40l0,0.2c0.1,0.8,0.5,1.5,1.1,2.1s1.3,1.1,2.3,1.4
				c0.9,0.3,2,0.5,3.2,0.5c1.2,0,2.3-0.2,3.1-0.5c0.9-0.3,1.6-0.8,2-1.4s0.7-1.3,0.7-2.2v0c0-1.1-0.4-1.9-1.2-2.6
				c-0.8-0.6-2.1-1.1-4-1.5l-3.1-0.6c-2.8-0.6-4.9-1.5-6.4-2.9c-1.4-1.3-2.1-3.1-2.1-5.2v0c0-1.7,0.5-3.2,1.4-4.5
				c0.9-1.3,2.2-2.3,3.8-3c1.6-0.7,3.5-1.1,5.5-1.1c2.1,0,3.9,0.3,5.5,1c1.6,0.7,2.8,1.7,3.7,2.9c0.9,1.2,1.4,2.7,1.5,4.3l0,0.3
				h-4.9l0-0.3c-0.1-0.8-0.4-1.6-0.9-2.1c-0.5-0.6-1.2-1-2-1.4c-0.8-0.3-1.8-0.5-2.9-0.5c-1.1,0-2.1,0.2-2.9,0.5
				C42.6-45,42-44.6,41.6-44c-0.4,0.6-0.7,1.3-0.7,2v0c0,1,0.4,1.8,1.2,2.5c0.8,0.6,2.1,1.1,3.8,1.5l3.1,0.6c3,0.6,5.2,1.6,6.6,2.9
				c1.4,1.3,2.1,3.1,2.1,5.3v0c0,1.8-0.4,3.3-1.3,4.7c-0.9,1.3-2.2,2.3-3.9,3.1c-1.7,0.7-3.7,1.1-6,1.1
				C44.2-20.3,42.3-20.7,40.6-21.3z"/>
			<path d="M61.5-49.7h5.2v28.9h-5.2V-49.7z M66.4-36.1h0.4L78-49.7h5.9L73-36.6h-0.8l-5.8,6.8V-36.1z M68.8-34.5l3.7-3.4l12.3,17.1
				h-6.3L68.8-34.5z"/>
			<path d="M87.5-49.7H99c2.1,0,3.8,0.4,5.3,1.1c1.5,0.7,2.6,1.8,3.4,3.1c0.8,1.3,1.2,2.9,1.2,4.8v0c0,1.9-0.5,3.7-1.5,5.1
				c-1,1.5-2.3,2.5-4,3.1l6.3,11.6h-5.9l-5.7-10.8c0,0-0.1,0-0.1,0c0,0-0.1,0-0.1,0h-5.3v10.8h-5.2V-49.7z M98.5-35.7
				c1.6,0,2.9-0.4,3.8-1.3c0.9-0.9,1.4-2.1,1.4-3.6v0c0-1.5-0.5-2.7-1.4-3.6c-0.9-0.9-2.2-1.3-3.9-1.3h-5.7v9.8H98.5z"/>
		</g>
	</g>
	<g id="Regular-M">
		<g>
			<line class="st9" x1="1403.8" y1="1064.5" x2="1495.8" y2="1064.5"/>
			<line class="st9" x1="1403.8" y1="1116.9" x2="1495.8" y2="1116.9"/>
		</g>
		<g>
			<path d="M1405.4,1105.3c-1.7-0.7-3-1.6-3.9-2.9c-1-1.3-1.5-2.7-1.6-4.5l0-0.3h3.8l0,0.3c0.2,1,0.6,1.9,1.2,2.6
				c0.7,0.7,1.6,1.3,2.7,1.7c1.1,0.4,2.4,0.6,3.8,0.6c1.5,0,2.7-0.2,3.8-0.6c1.1-0.4,1.9-1,2.5-1.8c0.6-0.8,0.9-1.7,0.9-2.7v0
				c0-1.3-0.5-2.4-1.4-3.2c-0.9-0.8-2.4-1.4-4.5-1.9l-3.4-0.7c-2.9-0.7-5.1-1.7-6.5-3c-1.4-1.4-2.1-3.1-2.1-5.4v0
				c0-1.7,0.5-3.1,1.4-4.4c0.9-1.3,2.2-2.3,3.8-3c1.6-0.7,3.4-1.1,5.5-1.1c2,0,3.7,0.4,5.3,1.1c1.5,0.7,2.8,1.7,3.7,2.9
				c0.9,1.3,1.4,2.7,1.6,4.4l0,0.3h-3.8l0-0.3c-0.2-1-0.5-1.9-1.1-2.6c-0.6-0.7-1.4-1.3-2.4-1.7c-1-0.4-2.1-0.6-3.4-0.6
				c-1.3,0-2.5,0.2-3.5,0.6c-1,0.4-1.8,1-2.3,1.7c-0.6,0.7-0.8,1.6-0.8,2.6v0c0,1.2,0.5,2.2,1.4,3c0.9,0.8,2.4,1.4,4.4,1.8l3.4,0.7
				c3.1,0.7,5.3,1.7,6.7,3c1.4,1.3,2.1,3.2,2.1,5.5v0c0,1.8-0.5,3.3-1.4,4.6c-0.9,1.3-2.2,2.3-3.9,3c-1.7,0.7-3.7,1.1-6,1.1
				C1409,1106.3,1407.1,1106,1405.4,1105.3z"/>
			<path d="M1430.8,1105.3c-1.7-0.7-3-1.6-3.9-2.9c-1-1.3-1.5-2.7-1.6-4.5l0-0.3h3.8l0,0.3c0.2,1,0.6,1.9,1.2,2.6
				c0.7,0.7,1.6,1.3,2.7,1.7c1.1,0.4,2.4,0.6,3.8,0.6c1.5,0,2.7-0.2,3.8-0.6c1.1-0.4,1.9-1,2.5-1.8c0.6-0.8,0.9-1.7,0.9-2.7v0
				c0-1.3-0.5-2.4-1.4-3.2c-0.9-0.8-2.4-1.4-4.5-1.9l-3.4-0.7c-2.9-0.7-5.1-1.7-6.5-3c-1.4-1.4-2.1-3.1-2.1-5.4v0
				c0-1.7,0.5-3.1,1.4-4.4c0.9-1.3,2.2-2.3,3.8-3c1.6-0.7,3.4-1.1,5.5-1.1c2,0,3.7,0.4,5.3,1.1c1.5,0.7,2.8,1.7,3.7,2.9
				c0.9,1.3,1.4,2.7,1.6,4.4l0,0.3h-3.8l0-0.3c-0.2-1-0.5-1.9-1.1-2.6c-0.6-0.7-1.4-1.3-2.4-1.7c-1-0.4-2.1-0.6-3.4-0.6
				c-1.3,0-2.5,0.2-3.5,0.6c-1,0.4-1.8,1-2.3,1.7c-0.6,0.7-0.8,1.6-0.8,2.6v0c0,1.2,0.5,2.2,1.4,3c0.9,0.8,2.4,1.4,4.4,1.8l3.4,0.7
				c3.1,0.7,5.3,1.7,6.7,3c1.4,1.3,2.1,3.2,2.1,5.5v0c0,1.8-0.5,3.3-1.4,4.6c-0.9,1.3-2.2,2.3-3.9,3c-1.7,0.7-3.7,1.1-6,1.1
				C1434.4,1106.3,1432.5,1106,1430.8,1105.3z"/>
			<path d="M1452.2,1075.6h3.8v30.2h-3.8V1075.6z M1455.6,1090.4h0.4l12.8-14.8h4.7l-12,13.6h-0.2l-5.8,6.4V1090.4z M1458.9,1091.4
				l2.7-2.7l13.1,17.1h-4.8L1458.9,1091.4z"/>
			<path d="M1477.9,1075.6h11.3c1.9,0,3.6,0.4,5.1,1.1c1.4,0.7,2.6,1.8,3.4,3.1c0.8,1.3,1.2,2.9,1.2,4.7v0c0,2.1-0.5,3.9-1.6,5.4
				s-2.6,2.6-4.5,3.2l7,12.5h-4.4l-6.5-12c0,0-0.1,0-0.1,0c0,0-0.1,0-0.1,0h-7v12h-3.8V1075.6z M1488.9,1090.5
				c1.9,0,3.4-0.5,4.5-1.5c1.1-1,1.6-2.4,1.6-4.3v0c0-1.8-0.6-3.2-1.7-4.2c-1.1-1-2.6-1.5-4.6-1.5h-7.1v11.6H1488.9z"/>
		</g>
	</g>
</g>
</svg>
