<?xml version="1.0" encoding="utf-8"?>
<!-- Generator: Adobe Illustrator 25.1.0, SVG Export Plug-In . SVG Version: 6.00 Build 0)  -->
<svg version="1.1" id="Layer_1" xmlns="http://www.w3.org/2000/svg" xmlns:xlink="http://www.w3.org/1999/xlink" x="0px" y="0px"
	 viewBox="0 0 3300 2200" style="enable-background:new 0 0 3300 2200;" xml:space="preserve">
<style type="text/css">
	.st0{fill:#FFFFFF;}
	.st1{fill:none;stroke:#000000;stroke-width:0.5;}
	.st2{font-family:'Arial-BoldMT';}
	.st3{font-size:12px;}
	.st4{font-family:'ArialMT';}
	.st5{fill:none;stroke:#00AEEF;stroke-width:0.5;}
	.st6{fill:#27AAE1;}
	.st7{fill:none;stroke:#27AAE1;stroke-width:0.5;}
	.st8{fill:none;stroke:#000000;stroke-width:1.5181;stroke-miterlimit:10;}
	.st9{fill:none;stroke:#000000;stroke-width:1.5059;stroke-miterlimit:10;}
	.st10{fill:none;stroke:#000000;stroke-width:1.5;stroke-miterlimit:10;}
	.st11{fill:none;stroke:#000000;stroke-width:1.4944;stroke-miterlimit:10;}
	.st12{fill:none;stroke:#000000;stroke-width:1.4718;stroke-miterlimit:10;}
	.st13{fill:none;stroke:#000000;stroke-width:1.5042;stroke-miterlimit:10;}
	.st14{fill:none;stroke:#000000;stroke-width:1.4688;stroke-miterlimit:10;}
	.st15{fill:none;stroke:#000000;stroke-width:1.4536;stroke-miterlimit:10;}
	.st16{fill:none;stroke:#000000;stroke-miterlimit:10;}
	.st17{fill:none;stroke:#000000;stroke-width:0.9157;stroke-miterlimit:10;}
	.st18{fill:none;stroke:#000000;stroke-width:0.9176;stroke-miterlimit:10;}
	.st19{fill:none;stroke:#000000;stroke-width:0.9091;stroke-miterlimit:10;}
	.st20{fill:none;stroke:#000000;stroke-width:0.9101;stroke-miterlimit:10;}
	.st21{fill:none;stroke:#000000;stroke-width:0.9111;stroke-miterlimit:10;}
	.st22{fill:none;stroke:#000000;stroke-width:0.8888;stroke-miterlimit:10;}
	.st23{fill:none;stroke:#000000;stroke-width:0.9105;stroke-miterlimit:10;}
	.st24{fill:none;stroke:#000000;stroke-width:0.8854;stroke-miterlimit:10;}
	.st25{fill:none;stroke:#000000;stroke-width:0.8831;stroke-miterlimit:10;}
</style>
<g id="Notes">
	<rect id="artboard" class="st0" width="3300" height="2200"/>
	<line class="st1" x1="263" y1="292" x2="3036" y2="292"/>
	<text transform="matrix(1 0 0 1 263 322)" class="st2 st3">Weight/Scale Variations</text>
	<text transform="matrix(1 0 0 1 536.0362 322)" class="st4 st3">Ultralight</text>
	<text transform="matrix(1 0 0 1 844.7501 322)" class="st4 st3">Thin</text>
	<text transform="matrix(1 0 0 1 1140.1193 322)" class="st4 st3">Light</text>
	<text transform="matrix(1 0 0 1 1428.8282 322)" class="st4 st3">Regular</text>
	<text transform="matrix(1 0 0 1 1725.2202 322)" class="st4 st3">Medium</text>
	<text transform="matrix(1 0 0 1 2018.2563 322)" class="st4 st3">Semibold</text>
	<text transform="matrix(1 0 0 1 2327.9712 322)" class="st4 st3">Bold</text>
	<text transform="matrix(1 0 0 1 2619.6831 322)" class="st4 st3">Heavy</text>
	<text transform="matrix(1 0 0 1 2918.728 322)" class="st4 st3">Black</text>
	<line class="st1" x1="263" y1="1903" x2="3036" y2="1903"/>
	<g transform="matrix(1 0 0 1 263 1933)">
		<path d="M9.2,0.8c4.3,0,7.9-3.6,7.9-7.9S13.5-15,9.2-15s-7.9,3.6-7.9,7.9C1.4-2.7,5,0.8,9.2,0.8z M9.2-0.7c-3.5,0-6.4-2.8-6.4-6.4
			s2.8-6.4,6.4-6.4s6.4,2.8,6.4,6.4C15.7-3.5,12.8-0.7,9.2-0.7z M6.4-6.3h2.1v2.1c0,0.4,0.3,0.7,0.7,0.7s0.7-0.3,0.7-0.7v-2.1H12
			c0.4,0,0.7-0.3,0.7-0.7c0-0.4-0.3-0.7-0.7-0.7h-2v-2.1c0-0.4-0.3-0.8-0.7-0.8s-0.7,0.3-0.7,0.8v2.1H6.4C5.9-7.8,5.6-7.5,5.6-7
			C5.6-6.6,5.9-6.3,6.4-6.3z"/>
	</g>
	<g transform="matrix(1 0 0 1 281.506 1933)">
		<path d="M11.7,2.9c5.4,0,10-4.5,10-10c0-5.4-4.5-10-10-10c-5.4,0-10,4.5-10,10C1.7-1.6,6.3,2.9,11.7,2.9z M11.7,1.2
			c-4.6,0-8.3-3.7-8.3-8.3s3.7-8.3,8.3-8.3S20-11.7,20-7.1C20-2.4,16.3,1.2,11.7,1.2z M8-6.2h2.9v2.9c0,0.5,0.3,0.8,0.8,0.8
			s0.8-0.3,0.8-0.8v-2.9h2.9c0.5,0,0.8-0.3,0.8-0.8s-0.3-0.8-0.8-0.8h-2.9v-2.9c0-0.5-0.3-0.8-0.8-0.8s-0.8,0.3-0.8,0.8v2.9H8
			C7.5-7.9,7.1-7.5,7.1-7C7.1-6.6,7.5-6.2,8-6.2z"/>
	</g>
	<g transform="matrix(1 0 0 1 304.924 1933)">
		<path d="M15,5.7c7,0,12.7-5.8,12.7-12.7c0-7-5.8-12.7-12.7-12.7C8-19.8,2.3-14,2.3-7.1C2.3-0.1,8,5.7,15,5.7z M15,3.8
			C8.9,3.8,4.1-1,4.1-7.1C4.1-13.1,8.9-18,15-18c6,0,10.9,4.9,10.9,10.9C25.9-1,21,3.8,15,3.8z M10.1-6.1h4v4c0,0.5,0.4,0.9,0.9,0.9
			s0.9-0.4,0.9-0.9v-4h4c0.5,0,0.9-0.4,0.9-0.9s-0.4-0.9-0.9-0.9h-4v-4c0-0.6-0.4-0.9-0.9-0.9s-0.9,0.4-0.9,0.9v4h-4
			c-0.6,0-1,0.3-1,0.9C9.1-6.5,9.5-6.1,10.1-6.1z"/>
	</g>
	<text transform="matrix(1 0 0 1 263 1953)" class="st2 st3">Design Variations</text>
	<text transform="matrix(1 0 0 1 263 1971)" class="st4 st3">Symbols are supported in up to nine weights and three scales.</text>
	<text transform="matrix(1 0 0 1 263 1989)" class="st4 st3">For optimal layout with text and other symbols, vertically align</text>
	<text transform="matrix(1 0 0 1 263 2007)" class="st4 st3">symbols with the adjacent text.</text>
	<line class="st5" x1="776" y1="1919" x2="776" y2="1933"/>
	<g transform="matrix(1 0 0 1 776 1933)">
		<path d="M3.3,0.1c0.5,0,0.8-0.2,1-0.7l1.3-3.5h5.8l1.3,3.5c0.2,0.5,0.4,0.7,0.9,0.7s0.8-0.3,0.8-0.8c0-0.2,0-0.3-0.1-0.5L9.7-13.4
			C9.4-14,9-14.3,8.4-14.3s-1,0.3-1.2,0.9L2.6-1.2C2.5-1,2.5-0.8,2.5-0.7C2.5-0.2,2.8,0.1,3.3,0.1z M6-5.5l2.4-6.6l0,0l2.4,6.6
			C10.8-5.5,6-5.5,6-5.5z"/>
	</g>
	<line class="st5" x1="792.8" y1="1919" x2="792.8" y2="1933"/>
	<text transform="matrix(1 0 0 1 776 1953)" class="st2 st3">Margins</text>
	<text transform="matrix(1 0 0 1 776 1971)" class="st4 st3">Leading and trailing margins on the left and right side of each symbol</text>
	<text transform="matrix(1 0 0 1 776 1989)" class="st4 st3">can be adjusted by modifying the x-location of the margin guidelines.</text>
	<text transform="matrix(1 0 0 1 776 2007)" class="st4 st3">Modifications are automatically applied proportionally to all</text>
	<text transform="matrix(1 0 0 1 776 2025)" class="st4 st3">scales and weights.</text>
	<g transform="matrix(1 0 0 1 1289 1933)">
		<path d="M2.8,1.9l1.7,1.7c0.9,0.9,1.8,0.8,2.8-0.2L17.5-7.9c0.3,0.1,0.5,0.1,0.8,0L19.4-8l0.7,0.7v0.6c0,0.5,0.1,0.9,0.6,1.4
			l0.8,0.7c0.5,0.5,1.1,0.5,1.6,0L26-7.5C26.5-8,26.4-8.6,26-9l-1-0.9c-0.5-0.5-0.8-0.6-1.3-0.6h-0.6l-0.6-0.6l0.2-1.1
			c0.1-0.6,0-1-0.6-1.6L19.9-16c-3.3-3.3-7.8-3.2-10.7-0.4C8.8-16,8.8-15.4,9-15s0.7,0.6,1.3,0.4c1.5-0.3,3-0.4,4.4,0.5l-0.6,1.5
			c-0.2,0.5-0.2,0.9-0.1,1.2L3-0.9C2.1,0,2,1,2.8,1.9z M10.8-16c2.4-1.8,5.7-1.5,7.9,0.8l2.4,2.4c0.2,0.2,0.3,0.4,0.2,0.8L21-10.5
			L22.5-9l1-0.1c0.3,0,0.3,0,0.5,0.2l0.6,0.6l-2.4,2.4l-0.6-0.6c-0.2-0.2-0.2-0.3-0.2-0.5l0.1-1L20-9.5l-1.5,0.3
			c-0.3,0.1-0.5,0-0.7-0.2l-2-2c-0.3-0.2-0.3-0.4-0.1-0.8l0.9-2.1C15-15.8,13-16.4,11-15.8C10.7-15.7,10.6-15.8,10.8-16z M5.3,2.3
			L4.1,1.1C3.6,0.7,3.7,0.3,4.1,0L15-10.2l1.5,1.5l-10,11C6.1,2.7,5.7,2.8,5.3,2.3z"/>
	</g>
	<text transform="matrix(1 0 0 1 1289 1953)" class="st2 st3">Exporting</text>
	<text transform="matrix(1 0 0 1 1289 1971)" class="st4 st3">Symbols should be outlined when exporting to ensure the</text>
	<text transform="matrix(1 0 0 1 1289 1989)" class="st4 st3">design is preserved when submitting to Xcode.</text>
	<text id="template-version" transform="matrix(1 0 0 1 2958.8496 1933)" class="st4 st3">Template v.2.0</text>
	<text transform="matrix(1 0 0 1 2878.5762 1951)" class="st4 st3">Requires Xcode 12 or greater</text>
	<text transform="matrix(1 0 0 1 2856.7969 1969)" class="st4 st3">Generated from tray.and.arrow.up</text>
	<text transform="matrix(1 0 0 1 2921.9238 1987)" class="st4 st3">Typeset at 100 points</text>
	<text transform="matrix(1 0 0 1 263 726)" class="st4 st3">Small</text>
	<text transform="matrix(1 0 0 1 263 1156)" class="st4 st3">Medium</text>
	<text transform="matrix(1 0 0 1 263 1586)" class="st4 st3">Large</text>
</g>
<g id="Guides">
	<g id="H-reference" transform="matrix(1 0 0 1 339 696)">
		<path class="st6" d="M1,0h2.7L13-24.5h32.8L55.1,0h2.6L30.6-70.5h-2.5L1,0z M29.3-67.1L29.3-67.1l15.5,40.4h-31L29.3-67.1z"/>
	</g>
	<line id="Baseline-S" class="st7" x1="263" y1="696" x2="3036" y2="696"/>
	<line id="Capline-S" class="st7" x1="263" y1="625.5" x2="3036" y2="625.5"/>
	<g id="H-reference_1_" transform="matrix(1 0 0 1 339 1126)">
		<path class="st6" d="M1,0h2.7L13-24.5h32.8L55.1,0h2.6L30.6-70.5h-2.5L1,0z M29.3-67.1L29.3-67.1l15.5,40.4h-31L29.3-67.1z"/>
	</g>
	<line id="Baseline-M" class="st7" x1="263" y1="1126" x2="3036" y2="1126"/>
	<line id="Capline-M" class="st7" x1="263" y1="1055.5" x2="3036" y2="1055.5"/>
	<g id="H-reference_2_" transform="matrix(1 0 0 1 339 1556)">
		<path class="st6" d="M1,0h2.7L13-24.5h32.8L55.1,0h2.6L30.6-70.5h-2.5L1,0z M29.3-67.1L29.3-67.1l15.5,40.4h-31L29.3-67.1z"/>
	</g>
	<line id="Baseline-L" class="st7" x1="263" y1="1556" x2="3036" y2="1556"/>
	<line id="Capline-L" class="st7" x1="263" y1="1485.5" x2="3036" y2="1485.5"/>
	<line id="left-margin" class="st5" x1="1375.8" y1="1030.8" x2="1375.8" y2="1150.1"/>
	<line id="right-margin" class="st5" x1="1523.9" y1="1030.8" x2="1523.9" y2="1150.1"/>
</g>
<g id="Symbols">
	<g id="Black-L">
		<g id="Black-L_1_">
			<g>
				<path class="st8" d="M2933.6,1523.8"/>
			</g>
			<g>
				<path d="M2888.7,1531.4c8.8,12.6,22.8,21.3,38.8,23.2c7.9-6.2,11.1-16.8,8.1-26.3c-0.5,0-1.1,0-1.6,0c-11.5,0-21.4-6.8-26-16.6
					c-2.6,0.5-5.2,1.4-7.5,2.8C2893.9,1518.3,2889.9,1524.6,2888.7,1531.4z"/>
				<path d="M2934,1444.2c-25.4,0-46.9,17.2-53.3,40.6c0.6-0.4,1.3-0.8,1.9-1.2c10.8-6.2,23-8.9,35.2-7.8c4.6-3.2,10.2-5.1,16.2-5.1
					c15.9,0,28.7,12.9,28.7,28.8c0,1-0.1,2.1-0.2,3.1c0.6,1,1.2,1.9,1.8,2.9c6.2,10.7,8.6,22.5,7.9,34c10.5-10.1,17.1-24.3,17.1-40
					C2989.3,1469.1,2964.5,1444.2,2934,1444.2z"/>
			</g>
			<g>
				<path class="st8" d="M2933.6,1523.8"/>
			</g>
		</g>
		<g id="Black-L_2_">
			<g>
				<path class="st8" d="M2933.6,1523.8"/>
			</g>
			<g>
				<path d="M2962.6,1558.9c6.5-14,7.1-30.4,0.7-45.2c-9.3-3.7-20.1-1.2-26.8,6.1c0.3,0.4,0.6,0.9,0.8,1.4c5.8,10,4.8,22-1.4,30.9
					c1.7,2,3.8,3.7,6.2,5.1C2948.7,1560.9,2956.1,1561.3,2962.6,1558.9z"/>
				<path d="M2864.5,1563.3c12.7,22,38.4,32,61.9,25.9c-0.7-0.3-1.3-0.7-2-1.1c-10.8-6.2-19.2-15.5-24.4-26.6
					c-5.1-2.4-9.5-6.3-12.5-11.5c-7.9-13.7-3.2-31.4,10.6-39.3c0.9-0.5,1.8-1,2.7-1.4c0.5-1,1.1-2,1.6-3
					c6.2-10.7,15.1-18.7,25.5-23.8c-14-4.1-29.6-2.7-43.2,5.2C2858.3,1502.9,2849.2,1536.9,2864.5,1563.3z"/>
			</g>
			<g>
				<path class="st8" d="M2933.6,1523.8"/>
			</g>
		</g>
		<g id="Black-L_3_">
			<g>
				<path class="st8" d="M2933.6,1523.8"/>
			</g>
			<g>
				<path d="M2949.5,1481.1c-15.3,1.4-29.9,9.1-39.5,22c1.5,10,9,18,18.7,20.1c0.2-0.5,0.5-0.9,0.8-1.4c5.8-10,16.6-15.2,27.4-14.2
					c0.9-2.5,1.3-5.2,1.3-7.9C2958.2,1492.2,2954.8,1485.6,2949.5,1481.1z"/>
				<path d="M3002.3,1563.9c12.7-22,8.5-49.2-8.5-66.5c0,0.7,0.1,1.5,0.1,2.2c0,12.5-3.8,24.4-10.8,34.4c0.4,5.6-0.7,11.4-3.7,16.6
					c-7.9,13.7-25.6,18.4-39.3,10.5c-0.9-0.5-1.8-1.1-2.6-1.7c-1.1,0.1-2.3,0.1-3.5,0.1c-12.3,0-23.8-3.8-33.3-10.2
					c3.5,14.2,12.5,26.9,26.1,34.8C2953.1,1599.5,2987.1,1590.4,3002.3,1563.9z"/>
			</g>
			<g>
				<path class="st8" d="M2933.6,1523.8"/>
			</g>
		</g>
	</g>
	<g id="Heavy-L">
		<g id="Heavy-L_1_">
			<g>
				<path class="st9" d="M2636.9,1524.7"/>
			</g>
			<g>
				<path d="M2590.4,1527.3c9.1,15.7,25.9,26.4,45.2,27c5.5-6.3,7.8-15,6-23.2c-1.4,0.2-2.9,0.3-4.3,0.3c-13.4,0-24.9-8.5-29.3-20.4
					c-2,0.6-4,1.4-5.9,2.5C2596.5,1516.8,2592.5,1521.7,2590.4,1527.3z"/>
				<path d="M2637.2,1445.9c-25.2,0-46.5,17.3-52.5,40.7c0.4-0.3,0.9-0.5,1.3-0.8c9-5.2,19-7.9,29.2-7.9c5.7-5.6,13.4-9.1,22-9.1
					c17.2,0,31.3,14,31.3,31.3c0,3.1-0.5,6.1-1.3,8.9c5.2,9.8,7.4,20.5,6.8,30.9c10.7-9.9,17.4-24.1,17.4-39.8
					C2691.4,1470.3,2667.1,1445.9,2637.2,1445.9z"/>
			</g>
			<g>
				<path class="st9" d="M2636.9,1524.7"/>
			</g>
		</g>
		<g id="Heavy-L_2_">
			<g>
				<path class="st9" d="M2636.9,1524.7"/>
			</g>
			<g>
				<path d="M2662.4,1563.7c9-15.7,9.9-35.6,0.8-52.6c-8.2-1.6-16.8,0.8-23.1,6.4c0.9,1.1,1.7,2.3,2.4,3.6c6.7,11.6,5.1,25.8-3,35.6
					c1.5,1.5,3.2,2.8,5.1,3.8C2650.2,1563.7,2656.4,1564.7,2662.4,1563.7z"/>
				<path d="M2568.4,1563.8c12.6,21.8,38.2,31.6,61.5,25.1c-0.4-0.2-0.9-0.5-1.3-0.7c-9-5.2-16.3-12.5-21.4-21.3
					c-7.7-2.1-14.6-7.1-18.9-14.5c-8.6-14.9-3.5-34.1,11.5-42.7c2.7-1.5,5.5-2.6,8.4-3.3c5.9-9.4,14-16.6,23.3-21.3
					c-13.9-4.3-29.6-3.1-43.2,4.8C2562.4,1504.7,2553.5,1538,2568.4,1563.8z"/>
			</g>
			<g>
				<path class="st9" d="M2636.9,1524.7"/>
			</g>
		</g>
		<g id="Heavy-L_3_">
			<g>
				<path class="st9" d="M2636.9,1524.7"/>
			</g>
			<g>
				<path d="M2657.9,1483.2c-18.2,0.1-35.8,9.2-46,25.6c2.7,7.9,9.1,14.2,17.1,16.8c0.5-1.3,1.2-2.6,1.9-3.9
					c6.7-11.6,19.8-17.3,32.4-15.2c0.5-2.1,0.8-4.2,0.8-6.3C2664,1493.7,2661.7,1487.8,2657.9,1483.2z"/>
				<path d="M2704.9,1564.5c12.6-21.8,8.2-48.9-9-65.8c0,0.5,0,1,0,1.5c0,10.4-2.7,20.4-7.8,29.2c2,7.7,1.2,16.2-3.1,23.6
					c-8.6,14.9-27.8,20-42.7,11.4c-2.7-1.5-5-3.4-7.1-5.6c-11.1-0.4-21.4-3.8-30.1-9.5c3.2,14.2,12.1,27.1,25.8,35
					C2656.8,1599.2,2690,1590.3,2704.9,1564.5z"/>
			</g>
			<g>
				<path class="st9" d="M2636.9,1524.7"/>
			</g>
		</g>
	</g>
	<g id="Bold-L">
		<g id="Bold-L_1_">
			<g>
				<path class="st10" d="M2340.2,1525.9"/>
			</g>
			<g>
				<path d="M2291.8,1520.8c8,19.1,26.8,32.6,48.8,32.6c1.8,0,3.5-0.1,5.2-0.3c3-5.6,4.3-12.1,3.6-18.4c-2.8,0.7-5.8,1.1-8.8,1.1
					c-16.5,0-30.5-11.5-34.2-26.9c-1.4,0.6-2.7,1.2-4,2C2297.9,1513.4,2294.4,1516.8,2291.8,1520.8z"/>
				<path d="M2340.5,1447.6c-25.4,0-46.8,18.1-51.7,42.1c0.3-0.2,0.6-0.4,0.9-0.6c6.5-3.8,13.5-6.1,20.8-7.1
					c6.2-10.1,17.4-16.9,30-16.9c19.4,0,35.3,15.8,35.3,35.3c0,6.5-1.8,12.5-4.8,17.8c2.8,7.4,3.9,15.1,3.5,22.7
					c11.5-9.7,18.9-24.2,18.9-40.5C2393.4,1471.3,2369.7,1447.6,2340.5,1447.6z"/>
			</g>
			<g>
				<path class="st10" d="M2340.2,1525.9"/>
			</g>
		</g>
		<g id="Bold-L_2_">
			<g>
				<path class="st10" d="M2340.2,1525.9"/>
			</g>
			<g>
				<path d="M2360,1570.3c12.6-16.5,14.8-39.5,3.8-58.5c-0.9-1.5-1.8-3-2.8-4.4c-6.4,0.2-12.6,2.3-17.7,6.1c2,2.1,3.8,4.4,5.4,7.1
					c8.3,14.3,5.3,32.1-6.2,43.1c1.2,0.9,2.4,1.8,3.7,2.5C2350.5,1568.7,2355.3,1570,2360,1570.3z"/>
				<path d="M2272.2,1564.7c12.7,22,39.1,31.4,62.3,23.8c-0.3-0.2-0.6-0.3-1-0.5c-6.5-3.8-12.1-8.7-16.5-14.4
					c-11.9-0.3-23.3-6.6-29.6-17.6c-9.7-16.8-3.9-38.5,12.9-48.2c5.6-3.2,11.7-4.7,17.8-4.7c5-6.1,11.1-10.9,17.9-14.4
					c-14.2-5.1-30.4-4.2-44.5,3.9C2266.3,1507,2257.6,1539.4,2272.2,1564.7z"/>
			</g>
			<g>
				<path class="st10" d="M2340.2,1525.9"/>
			</g>
		</g>
		<g id="Bold-L_3_">
			<g>
				<path class="st10" d="M2340.2,1525.9"/>
			</g>
			<g>
				<path d="M2368.7,1486.5c-20.5-2.7-41.6,6.9-52.6,26c-0.9,1.5-1.7,3.1-2.4,4.7c3.4,5.4,8.3,9.7,14.2,12.3
					c0.8-2.8,1.9-5.5,3.4-8.2c8.3-14.3,25.2-20.6,40.4-16.2c0.2-1.5,0.3-3,0.3-4.5C2372.1,1495.5,2370.9,1490.7,2368.7,1486.5z"/>
				<path d="M2407.7,1565.3c12.7-22,7.7-49.5-10.6-65.9c0,0.4,0,0.7,0,1.1c0,7.5-1.5,14.8-4.2,21.5c5.6,10.4,5.9,23.5-0.4,34.4
					c-9.7,16.8-31.3,22.6-48.2,12.9c-5.6-3.2-10-7.8-13-13c-7.8-1.3-15-4.2-21.4-8.3c2.6,14.8,11.6,28.5,25.6,36.6
					C2360.8,1599.2,2393.2,1590.5,2407.7,1565.3z"/>
			</g>
			<g>
				<path class="st10" d="M2340.2,1525.9"/>
			</g>
		</g>
	</g>
	<g id="Semibold-L">
		<g id="Semibold-L_1_">
			<g>
				<path class="st11" d="M2043.5,1526.5"/>
			</g>
			<g>
				<path d="M1995.2,1520.8c7.8,19.2,26.7,32.8,48.7,32.8c1.9,0,3.8-0.1,5.6-0.3c2.6-5.3,3.8-11.2,3.3-17.2
					c-2.9,0.7-5.8,1.1-8.9,1.1c-16.9,0-31.2-11.7-35.1-27.5c-1.2,0.5-2.3,1.1-3.4,1.7C2001.1,1513.8,1997.7,1517.1,1995.2,1520.8z"
					/>
				<path d="M2043.8,1448.4c-25.1,0-46.1,17.7-51.3,41.2c0,0,0.1,0,0.1-0.1c6.3-3.6,13.1-6,20.1-7c6.3-10.6,17.9-17.8,31.1-17.8
					c20,0,36.2,16.3,36.2,36.3c0,6.8-1.9,13.2-5.2,18.7c2.5,6.9,3.5,14,3.3,21.1c11.2-9.7,18.3-23.9,18.3-39.8
					C2096.4,1472,2072.8,1448.4,2043.8,1448.4z"/>
			</g>
			<g>
				<path class="st11" d="M2043.5,1526.5"/>
			</g>
		</g>
		<g id="Semibold-L_2_">
			<g>
				<path class="st11" d="M2043.5,1526.5"/>
			</g>
			<g>
				<path d="M2062.6,1571.2c12.7-16.4,15.1-39.5,4.1-58.6c-1-1.6-2-3.2-3.1-4.7c-5.9,0.3-11.6,2.3-16.5,5.7c2.1,2.1,3.9,4.5,5.4,7.2
					c8.5,14.7,5.5,32.9-6.2,44.2c1,0.8,2.1,1.5,3.2,2.1C2053.6,1569.5,2058.1,1570.8,2062.6,1571.2z"/>
				<path d="M1975.6,1565.3c12.5,21.7,38.3,31.1,61.3,23.8c0,0-0.1,0-0.1-0.1c-6.3-3.6-11.7-8.3-16.1-13.9
					c-12.4-0.2-24.3-6.6-31-18.1c-10-17.3-4-39.5,13.3-49.5c5.9-3.4,12.4-5,18.8-4.8c4.7-5.6,10.4-10.1,16.6-13.4
					c-13.9-4.8-29.8-3.9-43.6,4.1C1969.7,1507.9,1961.1,1540.2,1975.6,1565.3z"/>
			</g>
			<g>
				<path class="st11" d="M2043.5,1526.5"/>
			</g>
		</g>
		<g id="Semibold-L_3_">
			<g>
				<path class="st11" d="M2043.5,1526.5"/>
			</g>
			<g>
				<path d="M2072.6,1487.6c-20.6-2.8-41.8,6.7-52.8,25.8c-1,1.6-1.8,3.3-2.6,5c3.2,4.9,7.8,8.9,13.2,11.4c0.8-2.8,2-5.6,3.5-8.3
					c8.5-14.7,25.8-21.2,41.4-16.7c0.1-1.3,0.2-2.5,0.2-3.8C2075.6,1496.2,2074.5,1491.6,2072.6,1487.6z"/>
				<path d="M2110.9,1565.9c12.5-21.7,7.7-48.8-10-65v0.1c0,7.3-1.4,14.3-3.9,20.9c6,10.8,6.4,24.4-0.2,35.9
					c-10,17.3-32.2,23.2-49.5,13.2c-5.9-3.4-10.5-8.3-13.6-13.9c-7.2-1.3-13.9-3.9-19.9-7.7c2.8,14.5,11.6,27.8,25.3,35.7
					C2064.2,1599.6,2096.5,1591,2110.9,1565.9z"/>
			</g>
			<g>
				<path class="st11" d="M2043.5,1526.5"/>
			</g>
		</g>
	</g>
	<g id="Medium-L">
		<g id="Medium-L_1_">
			<g>
				<path class="st10" d="M1746.8,1527.1"/>
			</g>
			<g>
				<path d="M1698,1519c7.3,20.1,26.6,34.5,49.1,34.5c2.6,0,5.1-0.2,7.6-0.6c2.1-4.8,3-10,2.7-15.3c-3.3,0.9-6.7,1.4-10.2,1.4
					c-18,0-33.2-12.7-36.9-29.7c-0.9,0.4-1.9,0.9-2.8,1.4l0,0C1703.7,1513,1700.5,1515.8,1698,1519z"/>
				<path d="M1747.1,1448.9c-25.1,0-46.2,17.8-51.1,41.5c5.5-3.2,11.4-5.3,17.5-6.5c6.3-12.2,19-20.6,33.7-20.6
					c20.9,0,37.8,17,37.8,37.9c0,8-2.5,15.4-6.7,21.5c1.9,6,2.7,12.3,2.6,18.4c11.3-9.6,18.6-23.9,18.6-39.9
					C1799.4,1472.3,1776,1448.9,1747.1,1448.9z"/>
			</g>
			<g>
				<path class="st10" d="M1746.8,1527.1"/>
			</g>
		</g>
		<g id="Medium-L_2_">
			<g>
				<path class="st10" d="M1746.8,1527.1"/>
			</g>
			<g>
				<path d="M1764.1,1573.4c13.8-16.4,16.6-40.3,5.3-59.8c-1.3-2.2-2.7-4.3-4.3-6.3c-5.2,0.6-10.2,2.4-14.6,5.3
					c2.4,2.4,4.6,5.1,6.4,8.2c9,15.6,5.6,35.1-7.2,46.8c0.8,0.6,1.7,1.2,2.6,1.7l0,0C1756.1,1571.4,1760.1,1572.8,1764.1,1573.4z"/>
				<path d="M1678.8,1565.9c12.6,21.8,38.5,31.1,61.5,23.5c-5.5-3.2-10.3-7.2-14.4-11.9c-13.7,0.7-27.4-6.2-34.7-18.8
					c-10.4-18.1-4.2-41.3,13.9-51.7c6.9-4,14.6-5.5,22-4.9c4.3-4.7,9.2-8.5,14.7-11.5c-14-5-30-4.1-43.9,3.9
					C1673,1508.9,1664.4,1540.9,1678.8,1565.9z"/>
			</g>
			<g>
				<path class="st10" d="M1746.8,1527.1"/>
			</g>
		</g>
		<g id="Medium-L_3_">
			<g>
				<path class="st10" d="M1746.8,1527.1"/>
			</g>
			<g>
				<path d="M1778.1,1488.9c-21.1-3.7-43.2,5.8-54.4,25.3c-1.3,2.2-2.4,4.5-3.3,6.9c3.1,4.2,7.2,7.6,11.9,9.9
					c0.8-3.3,2.1-6.5,3.9-9.6c9-15.6,27.6-22.4,44.2-17.2c0.1-1,0.1-2.1,0.1-3.1l0,0C1780.5,1496.9,1779.7,1492.7,1778.1,1488.9z"/>
				<path d="M1814.3,1566.6c12.6-21.8,7.6-48.9-10.4-65.1c0,6.4-1.1,12.5-3.1,18.4c7.4,11.6,8.4,26.8,1,39.5
					c-10.4,18.1-33.6,24.3-51.7,13.8c-6.9-4-12.1-9.9-15.3-16.6c-6.2-1.4-12-3.8-17.2-7c2.6,14.6,11.5,28,25.3,36
					C1767.9,1600.1,1799.9,1591.5,1814.3,1566.6z"/>
			</g>
			<g>
				<path class="st10" d="M1746.8,1527.1"/>
			</g>
		</g>
	</g>
	<g id="Regular-L">
		<g id="Regular-L_1_">
			<g>
				<path class="st12" d="M1450,1527.7"/>
			</g>
			<g>
				<path d="M1401.4,1516.7c6.4,20.9,26,36.2,49,36.2c3.4,0,6.7-0.3,9.9-1c0.3-0.8,0.5-1.6,0.8-2.5c0.9-3.4,1.3-6.8,1.2-10.2
					c-3.8,1.2-7.7,1.8-11.9,1.8c-19.2,0-35.3-13.8-38.8-32c-0.7,0.3-1.3,0.7-1.9,1C1406.6,1511.9,1403.8,1514.1,1401.4,1516.7z"/>
				<path d="M1450.4,1450.5c-24.9,0-45.7,17.8-50.3,41.4c4.5-2.5,9.1-4.3,13.9-5.5c6-14.2,20.1-24.1,36.4-24.1
					c21.8,0,39.5,17.7,39.5,39.4c0,9.4-3.3,18-8.8,24.7c1.3,4.8,1.9,9.8,1.8,14.8c11.4-9.4,18.8-23.6,18.8-39.5
					C1501.7,1473.4,1478.7,1450.5,1450.4,1450.5z"/>
			</g>
			<g>
				<path class="st12" d="M1450,1527.7"/>
			</g>
		</g>
		<g id="Regular-L_2_">
			<g>
				<path class="st12" d="M1450,1527.7"/>
			</g>
			<g>
				<path d="M1464.8,1575.3c14.9-16,18.3-40.6,6.8-60.5c-1.7-2.9-3.7-5.7-5.8-8.1c-0.8,0.2-1.7,0.3-2.5,0.6
					c-3.4,0.9-6.5,2.3-9.4,4.1c2.9,2.7,5.5,5.8,7.5,9.4c9.6,16.7,5.7,37.5-8.3,49.6c0.6,0.4,1.2,0.8,1.9,1.2
					C1458.1,1573.3,1461.4,1574.5,1464.8,1575.3z"/>
				<path d="M1383,1566c12.5,21.6,38.3,30.7,61,22.9c-4.4-2.6-8.3-5.8-11.7-9.3c-15.3,1.9-30.9-5.3-39.1-19.5
					c-10.9-18.9-4.4-43,14.4-53.9c8.1-4.7,17.2-6.1,25.8-4.8c3.6-3.5,7.5-6.5,11.9-9c-13.9-5.2-29.8-4.4-43.6,3.5
					C1377.2,1510.1,1368.8,1541.5,1383,1566z"/>
			</g>
			<g>
				<path class="st12" d="M1450,1527.7"/>
			</g>
		</g>
		<g id="Regular-L_3_">
			<g>
				<path class="st12" d="M1450,1527.7"/>
			</g>
			<g>
				<path d="M1483.9,1491.1c-21.3-4.9-44.3,4.4-55.8,24.4c-1.7,2.9-3.1,6-4.1,9.1c0.6,0.6,1.1,1.3,1.7,1.9c2.5,2.5,5.2,4.5,8.2,6.1
					c0.9-3.8,2.3-7.6,4.4-11.2c9.6-16.7,29.6-23.7,47.1-17.6c0-0.7,0.1-1.5,0.1-2.2C1485.5,1498,1484.9,1494.4,1483.9,1491.1z"/>
				<path d="M1516.7,1566.6c12.5-21.6,7.4-48.5-10.7-64.3c-0.1,5.1-0.9,10.1-2.2,14.8c9.3,12.3,10.9,29.4,2.7,43.6
					c-10.9,18.9-35.1,25.4-53.9,14.5c-8.1-4.7-13.9-11.8-17-20c-4.8-1.3-9.4-3.3-13.7-5.8c2.4,14.6,11.1,28.1,24.9,36
					C1471.2,1599.6,1502.6,1591.1,1516.7,1566.6z"/>
			</g>
			<g>
				<path class="st12" d="M1450,1527.7"/>
			</g>
		</g>
	</g>
	<g id="Light-L">
		<g id="Light-L_1_">
			<g>
				<path class="st13" d="M1153.3,1528.1"/>
			</g>
			<g>
				<path d="M1153.7,1451.2c-23.9,0-43.9,16.7-49.1,39c3.1-1.5,6.2-2.8,9.4-3.7c6.1-16,21.6-27.3,39.7-27.3
					c23.4,0,42.4,19,42.4,42.3c0,10.6-3.9,20.3-10.4,27.7c0.7,3.3,1.1,6.6,1.2,10c10.5-9.2,17.2-22.7,17.2-37.8
					C1204.1,1473.8,1181.5,1451.2,1153.7,1451.2z"/>
				<path d="M1153.7,1551.7c3.7,0,7.4-0.4,10.9-1.2c0-0.1,0.1-0.2,0.1-0.3c0.7-2.7,1.1-5.5,1.2-8.3c-3.9,1.2-7.9,1.8-12.2,1.8
					c-20.4,0-37.6-14.5-41.5-33.7c0,0-0.1,0-0.1,0.1c-2.5,1.4-4.8,3.1-6.8,5.1C1111.3,1536.3,1130.7,1551.7,1153.7,1551.7z"/>
			</g>
			<g>
				<path class="st13" d="M1153.3,1528.1"/>
			</g>
		</g>
		<g id="Light-L_2_">
			<g>
				<path class="st13" d="M1153.3,1528.1"/>
			</g>
			<g>
				<path d="M1086.6,1566.2c11.9,20.7,36.4,29.7,58.3,23c-2.9-1.9-5.5-4-7.9-6.3c-16.9,2.7-34.5-5-43.5-20.7
					c-11.7-20.3-4.8-46.2,15.4-57.9c9.2-5.3,19.5-6.7,29.2-4.8c2.5-2.3,5.2-4.3,8.1-6.1c-13.2-4.5-28.3-3.5-41.3,4
					C1080.9,1511.3,1072.7,1542.1,1086.6,1566.2z"/>
				<path d="M1173.6,1515.9c-1.9-3.2-4-6.2-6.5-8.8c-0.1,0-0.2,0-0.3,0.1c-2.7,0.7-5.3,1.8-7.8,3.1c2.9,2.8,5.5,6,7.6,9.6
					c10.2,17.7,6.2,39.8-8.5,52.8c0,0,0.1,0,0.1,0.1c2.5,1.4,5.1,2.6,7.8,3.4C1181.4,1560.4,1185.1,1535.8,1173.6,1515.9z"/>
			</g>
			<g>
				<path class="st13" d="M1153.3,1528.1"/>
			</g>
		</g>
		<g id="Light-L_3_">
			<g>
				<path class="st13" d="M1153.3,1528.1"/>
			</g>
			<g>
				<path d="M1219.7,1566.9c11.9-20.7,7.5-46.4-9.2-62c-0.2,3.4-0.7,6.8-1.5,10c10.8,13.2,12.9,32.3,3.9,48
					c-11.7,20.3-37.6,27.2-57.8,15.6c-9.2-5.3-15.6-13.6-18.8-22.9c-3.2-1-6.3-2.3-9.3-3.9c2.7,13.7,11.1,26.2,24.1,33.7
					C1175,1599.2,1205.8,1590.9,1219.7,1566.9z"/>
				<path d="M1132.7,1516.6c-1.9,3.2-3.3,6.6-4.4,10c0.1,0.1,0.1,0.1,0.2,0.2c2,2,4.2,3.7,6.6,5.2c0.9-3.9,2.4-7.8,4.5-11.4
					c10.2-17.7,31.3-25.3,50-19.1v-0.1c0-2.9-0.3-5.7-1-8.4C1167.3,1487.6,1144.2,1496.7,1132.7,1516.6z"/>
			</g>
			<g>
				<path class="st13" d="M1153.3,1528.1"/>
			</g>
		</g>
	</g>
	<g id="Thin-L">
		<g id="Thin-L_1_">
			<g>
				<path class="st14" d="M856.6,1528.5"/>
			</g>
			<g>
				<path d="M857,1550.9c4.1,0,8.1-0.5,11.9-1.5c0.4-1.7,0.6-3.5,0.8-5.2c-4,1.2-8.3,1.8-12.6,1.8c-21.5,0-39.4-15.2-43.7-35.4
					c-1.5,0.9-2.9,2-4.3,3.1C814.6,1535.1,834,1550.9,857,1550.9z"/>
				<path d="M857,1452.2c-23.2,0-42.7,16-48,37.5c1.9-0.9,3.8-1.6,5.7-2.3c5.9-17.7,22.7-30.4,42.3-30.4c24.6,0,44.6,20,44.6,44.5
					c0,11.8-4.6,22.5-12.1,30.5c0.3,2,0.6,4.1,0.7,6.1c10-9,16.3-22.1,16.3-36.6C906.5,1474.3,884.3,1452.2,857,1452.2z"/>
			</g>
			<g>
				<path class="st14" d="M856.6,1528.5"/>
			</g>
		</g>
		<g id="Thin-L_2_">
			<g>
				<path class="st14" d="M856.6,1528.5"/>
			</g>
			<g>
				<path d="M875.8,1517c-2.1-3.6-4.5-6.7-7.2-9.6c-1.7,0.5-3.3,1.2-4.9,2c3,2.9,5.7,6.2,7.9,10c10.7,18.6,6.6,41.8-8.8,55.5
					c1.6,0.8,3.2,1.5,4.8,2.1C883.3,1561.7,887.3,1537,875.8,1517z"/>
				<path d="M790.3,1566.4c11.6,20.1,35.2,29,56.5,22.8c-1.7-1.2-3.3-2.5-4.8-3.8c-18.3,3.7-37.7-4.4-47.5-21.4
					c-12.3-21.3-5-48.6,16.2-60.9c10.2-5.9,21.8-7.3,32.5-4.7c1.6-1.3,3.2-2.5,4.9-3.7c-12.8-4.1-27.3-3.1-39.8,4.2
					C784.7,1512.5,776.6,1542.7,790.3,1566.4z"/>
			</g>
			<g>
				<path class="st14" d="M856.6,1528.5"/>
			</g>
		</g>
		<g id="Thin-L_3_">
			<g>
				<path class="st14" d="M856.6,1528.5"/>
			</g>
			<g>
				<path d="M837,1517.7c-2.1,3.6-3.6,7.3-4.7,11c1.3,1.2,2.7,2.3,4.2,3.3c1-4.1,2.5-8.1,4.7-11.9c10.7-18.6,32.9-26.6,52.5-20.1
					c-0.1-1.8-0.3-3.5-0.6-5.2C872,1488.8,848.6,1497.8,837,1517.7z"/>
				<path d="M922.6,1567.1c11.6-20.1,7.5-45-8.5-60.4c-0.2,2.1-0.5,4.1-0.9,6.1c12.3,14,15,34.8,5.2,51.9
					c-12.3,21.3-39.6,28.7-60.9,16.4c-10.2-5.9-17.2-15.3-20.3-25.8c-1.9-0.7-3.8-1.5-5.6-2.4c2.8,13.2,11,25.1,23.5,32.4
					C878.6,1598.9,908.9,1590.7,922.6,1567.1z"/>
			</g>
			<g>
				<path class="st14" d="M856.6,1528.5"/>
			</g>
		</g>
	</g>
	<g id="Ultralight-L">
		<g id="Ultralight-L_1_">
			<g>
				<path class="st15" d="M559.9,1528.7"/>
			</g>
			<g>
				<path d="M560.3,1550.5c4.2,0,8.3-0.5,12.1-1.5c0.3-1.3,0.4-2.6,0.6-3.9c-4,1.2-8.3,1.8-12.7,1.8c-21.7,0-39.9-15.4-44.3-35.8
					c-1.1,0.7-2.2,1.5-3.2,2.3C518.2,1534.7,537.4,1550.5,560.3,1550.5z"/>
				<path d="M560.3,1453c-22.8,0-42,15.6-47.4,36.7c1.4-0.6,2.8-1.2,4.3-1.7c5.8-18.2,22.9-31.4,43.1-31.4
					c24.9,0,45.2,20.2,45.2,45.1c0,12.2-4.9,23.2-12.7,31.3c0.2,1.5,0.4,3,0.5,4.6c9.7-8.9,15.8-21.7,15.8-35.9
					C609.2,1474.9,587.3,1453,560.3,1453z"/>
			</g>
			<g>
				<path class="st15" d="M559.9,1528.7"/>
			</g>
		</g>
		<g id="Ultralight-L_2_">
			<g>
				<path class="st15" d="M559.9,1528.7"/>
			</g>
			<g>
				<path d="M578.6,1517.5c-2.1-3.6-4.6-6.9-7.4-9.7c-1.3,0.4-2.5,0.9-3.7,1.5c3,2.9,5.7,6.3,7.9,10.1c10.9,18.8,6.7,42.2-8.8,56.2
					c1.2,0.6,2.4,1.1,3.6,1.6C586,1561.9,590,1537.3,578.6,1517.5z"/>
				<path d="M494.1,1566.3c11.4,19.7,34.5,28.5,55.5,22.7c-1.2-0.9-2.4-1.9-3.6-2.9c-18.7,4-38.7-4.2-48.8-21.6
					c-12.5-21.6-5.1-49.3,16.5-61.7c10.5-6.1,22.5-7.4,33.5-4.6c1.2-1,2.4-1.9,3.7-2.7c-12.6-4-26.7-2.9-39,4.2
					C488.6,1513,480.6,1542.9,494.1,1566.3z"/>
			</g>
			<g>
				<path class="st15" d="M559.9,1528.7"/>
			</g>
		</g>
		<g id="Ultralight-L_3_">
			<g>
				<path class="st15" d="M559.9,1528.7"/>
			</g>
			<g>
				<path d="M540.9,1518.2c-2.1,3.6-3.7,7.4-4.7,11.3c1,0.9,2,1.7,3.1,2.5c1-4.1,2.6-8.1,4.8-11.9c10.9-18.8,33.3-26.9,53.1-20.4
					c-0.1-1.3-0.2-2.6-0.4-3.9C575.6,1489.6,552.3,1498.4,540.9,1518.2z"/>
				<path d="M625.3,1567c11.4-19.7,7.4-44.2-8.1-59.4c-0.2,1.5-0.4,3-0.7,4.5c12.8,14.2,15.7,35.6,5.7,53
					c-12.5,21.6-40.2,29.1-61.7,16.6c-10.5-6.1-17.7-15.8-20.8-26.7c-1.4-0.6-2.8-1.2-4.2-1.8c2.9,12.9,10.9,24.6,23.2,31.6
					C581.9,1598.4,611.8,1590.3,625.3,1567z"/>
			</g>
			<g>
				<path class="st15" d="M559.9,1528.7"/>
			</g>
		</g>
	</g>
	<g id="Black-M">
		<g id="Black-M_1_">
			<g>
				<path class="st16" d="M2933.5,1089.9"/>
			</g>
			<g>
				<path d="M2897.5,1092c7.1,12,20,20.3,34.8,20.8c4.2-4.8,5.9-11.4,4.7-17.7c-1,0.1-2.1,0.2-3.1,0.2c-10.5,0-19.4-6.6-23-15.8
					c-1.5,0.5-3,1.1-4.4,1.9l0,0C2902.2,1083.8,2899.1,1087.6,2897.5,1092z"/>
				<path d="M2933.8,1028.5c-19.4,0-35.8,13.2-40.6,31.1c0.2-0.1,0.3-0.2,0.5-0.3l0,0c7.1-4.1,15-6.2,22.9-6.2
					c4.4-4.3,10.5-7,17.2-7c13.6,0,24.6,11.1,24.6,24.6c0,2.4-0.3,4.7-1,6.8c4,7.5,5.7,15.7,5.4,23.7c8.1-7.7,13.1-18.5,13.1-30.5
					C2976,1047.4,2957.1,1028.5,2933.8,1028.5z"/>
			</g>
			<g>
				<path class="st16" d="M2933.5,1089.9"/>
			</g>
		</g>
		<g id="Black-M_2_">
			<g>
				<path class="st16" d="M2933.5,1089.9"/>
			</g>
			<g>
				<path d="M2953.4,1120c6.9-12.2,7.6-27.4,0.6-40.5c-6.3-1.2-12.9,0.6-17.7,4.8c0.6,0.8,1.2,1.7,1.7,2.6c5.2,9.1,4,20.1-2.2,27.8
					c1.1,1.1,2.4,2,3.8,2.9l0,0C2944,1120.1,2948.8,1120.8,2953.4,1120z"/>
				<path d="M2880.2,1120.3c9.7,16.8,29.3,24.4,47.2,19.7c-0.2-0.1-0.4-0.2-0.5-0.3l0,0c-7.1-4.1-12.8-9.9-16.8-16.8
					c-6-1.7-11.3-5.6-14.7-11.4c-6.8-11.8-2.7-26.8,9-33.6c2.1-1.2,4.2-2,6.4-2.6c4.5-7.2,10.7-12.8,17.8-16.5
					c-10.7-3.1-22.6-2.1-33,3.9C2875.6,1074.4,2868.6,1100.2,2880.2,1120.3z"/>
			</g>
			<g>
				<path class="st16" d="M2933.5,1089.9"/>
			</g>
		</g>
		<g id="Black-M_3_">
			<g>
				<path class="st16" d="M2933.5,1089.9"/>
			</g>
			<g>
				<path d="M2949.7,1057.6c-14,0.1-27.5,7.2-35.4,19.7c2.1,6.1,6.9,10.9,13,12.9c0.4-1,0.9-1.9,1.4-2.8c5.2-9.1,15.4-13.5,25.2-12
					c0.4-1.5,0.6-3.1,0.6-4.7l0,0C2954.5,1065.7,2952.7,1061.2,2949.7,1057.6z"/>
				<path d="M2986.6,1120.8c9.7-16.8,6.5-37.6-6.6-50.7c0,0.2,0,0.4,0,0.6l0,0c0,8.2-2.1,16.1-6.1,23c1.5,6,0.8,12.6-2.5,18.4
					c-6.8,11.8-21.9,15.8-33.6,9c-2.1-1.2-3.9-2.6-5.4-4.3c-8.5-0.3-16.5-2.9-23.2-7.2c2.6,10.8,9.5,20.6,19.9,26.6
					C2949.1,1147.8,2974.9,1140.9,2986.6,1120.8z"/>
			</g>
			<g>
				<path class="st16" d="M2933.5,1089.9"/>
			</g>
		</g>
	</g>
	<g id="Heavy-M">
		<g id="Heavy-M_1_">
			<g>
				<path class="st16" d="M2636.8,1090.8"/>
			</g>
			<g>
				<path d="M2599.9,1089.9c6.9,13.6,21,23,37.2,23c0.4,0,0.8,0,1.2,0c3.1-4.6,4.4-10.2,3.6-15.6c-1.6,0.3-3.2,0.4-4.8,0.4
					c-11.8,0-21.7-7.7-25.2-18.4c-1.2,0.4-2.3,1-3.4,1.6C2604.7,1083.1,2601.8,1086.2,2599.9,1089.9z"/>
				<path d="M2637.1,1029.5c-19.4,0-35.7,13.3-40.4,31.3l0.1-0.1c6.1-3.5,12.7-5.5,19.6-6c4.8-6.1,12.3-10,20.7-10
					c14.6,0,26.4,11.9,26.4,26.5c0,3.7-0.8,7.2-2.2,10.5c2.9,6.5,4.2,13.4,3.9,20.2c8.3-7.6,13.4-18.5,13.4-30.6
					C2678.8,1048.2,2660.1,1029.5,2637.1,1029.5z"/>
			</g>
			<g>
				<path class="st16" d="M2636.8,1090.8"/>
			</g>
		</g>
		<g id="Heavy-M_2_">
			<g>
				<path class="st16" d="M2636.8,1090.8"/>
			</g>
			<g>
				<path d="M2654.5,1123.2c8.4-12.8,9.5-29.7,1.3-43.7c-0.2-0.4-0.4-0.7-0.6-1c-5.5-0.4-11,1.3-15.3,4.7c1,1.2,2,2.5,2.8,3.9
					c5.9,10.2,4.2,22.7-3.3,31c1,0.8,2,1.5,3.1,2.2C2646.2,1122.5,2650.4,1123.4,2654.5,1123.2z"/>
				<path d="M2583.6,1121.2c9.7,16.8,29.4,24.3,47.3,19.3c0,0-0.1,0-0.1-0.1c-6.1-3.5-11.2-8.3-15-13.9c-7.7-1.2-14.8-5.7-19-12.9
					c-7.3-12.6-2.9-28.8,9.7-36.1c3.2-1.9,6.7-3,10.1-3.4c4.2-5.8,9.5-10.3,15.5-13.5c-10.7-3.3-22.8-2.4-33.3,3.7
					C2579,1075.8,2572.1,1101.3,2583.6,1121.2z"/>
			</g>
			<g>
				<path class="st16" d="M2636.8,1090.8"/>
			</g>
		</g>
		<g id="Heavy-M_3_">
			<g>
				<path class="st16" d="M2636.8,1090.8"/>
			</g>
			<g>
				<path d="M2656.1,1059.3c-15.2-0.9-30.4,6.6-38.5,20.7c-0.2,0.4-0.4,0.7-0.6,1.1c2.4,4.9,6.6,8.9,11.8,10.9c0.5-1.5,1.2-3,2-4.4
					c5.9-10.2,17.6-15,28.5-12.6c0.2-1.2,0.3-2.5,0.3-3.8C2659.6,1066.8,2658.3,1062.7,2656.1,1059.3z"/>
				<path d="M2689.8,1121.7c9.7-16.8,6.3-37.6-7-50.6c0,0.1,0,0.1,0,0.2c0,7-1.6,13.8-4.6,19.9c2.9,7.2,2.5,15.7-1.7,22.9
					c-7.3,12.6-23.5,17-36.1,9.7c-3.2-1.9-5.9-4.3-8-7.1c-7.1-0.7-13.7-3.1-19.5-6.7c2.5,11,9.3,20.9,19.8,27
					C2652.7,1148.4,2678.3,1141.6,2689.8,1121.7z"/>
			</g>
			<g>
				<path class="st16" d="M2636.8,1090.8"/>
			</g>
		</g>
	</g>
	<g id="Bold-M">
		<g id="Bold-M_1_">
			<g>
				<path class="st16" d="M2340.1,1091.9"/>
			</g>
			<g>
				<path d="M2302.4,1086.6c6,15.2,20.8,26,38.1,26c1.7,0,3.3-0.1,4.9-0.3c1.8-3.8,2.6-8.1,2.3-12.3c-2.3,0.6-4.7,0.9-7.2,0.9
					c-13.7,0-25.2-9.5-28.3-22.2c-0.7,0.3-1.5,0.7-2.2,1.1C2306.9,1081.6,2304.3,1083.9,2302.4,1086.6z"/>
				<path d="M2340.4,1030.8c-19.4,0-35.7,13.6-39.8,31.7c4.6-2.6,9.4-4.3,14.4-5.1c5-8.9,14.5-14.9,25.4-14.9
					c16.1,0,29.2,13.1,29.2,29.2c0,5.7-1.7,11.1-4.5,15.6c1.7,4.9,2.4,10.1,2.3,15.1c8.5-7.5,13.9-18.5,13.9-30.7
					C2381.3,1049.1,2363,1030.8,2340.4,1030.8z"/>
			</g>
			<g>
				<path class="st16" d="M2340.1,1091.9"/>
			</g>
		</g>
		<g id="Bold-M_2_">
			<g>
				<path class="st16" d="M2340.1,1091.9"/>
			</g>
			<g>
				<path d="M2354.5,1127.2c10.2-12.8,12.2-31,3.5-46c-0.8-1.4-1.7-2.8-2.7-4.1c-4.2,0.4-8.3,1.8-11.8,4.2c1.7,1.7,3.1,3.6,4.4,5.8
					c6.8,11.8,4.4,26.5-5.1,35.6c0.7,0.5,1.3,0.9,2.1,1.3C2347.9,1125.8,2351.2,1126.8,2354.5,1127.2z"/>
				<path d="M2287.1,1122.2c9.7,16.8,29.6,24.1,47.4,18.6c-4.5-2.7-8.4-6-11.7-9.9c-10.2,0.1-20.2-5.1-25.6-14.6
					c-8-13.9-3.2-31.8,10.7-39.9c5-2.9,10.4-4.1,15.8-3.9c3.4-3.9,7.5-7.1,11.9-9.6c-10.8-3.6-23-2.8-33.6,3.3
					C2282.5,1077.5,2275.8,1102.6,2287.1,1122.2z"/>
			</g>
			<g>
				<path class="st16" d="M2340.1,1091.9"/>
			</g>
		</g>
		<g id="Bold-M_3_">
			<g>
				<path class="st16" d="M2340.1,1091.9"/>
			</g>
			<g>
				<path d="M2363.6,1061.8c-16.2-2.4-32.9,5-41.6,20c-0.8,1.4-1.6,2.9-2.2,4.4c2.4,3.5,5.7,6.3,9.5,8.2c0.6-2.3,1.6-4.5,2.8-6.7
					c6.8-11.8,20.8-17.1,33.4-13.4c0.1-0.8,0.1-1.6,0.1-2.4C2365.6,1068.2,2364.9,1064.8,2363.6,1061.8z"/>
				<path d="M2392.9,1122.7c9.7-16.8,6.1-37.7-7.6-50.4c-0.1,5.2-1,10.3-2.8,15.1c5.2,8.8,5.6,20,0.2,29.5
					c-8,13.9-25.9,18.7-39.9,10.7c-5-2.9-8.8-7-11.3-11.7c-5.1-1-9.9-2.9-14.3-5.5c2.2,11.1,9.1,21.3,19.7,27.4
					C2356.5,1148.9,2381.6,1142.2,2392.9,1122.7z"/>
			</g>
			<g>
				<path class="st16" d="M2340.1,1091.9"/>
			</g>
		</g>
	</g>
	<g id="Semibold-M">
		<g id="Semibold-M_1_">
			<g>
				<path class="st16" d="M2043.4,1092.5"/>
			</g>
			<g>
				<path d="M2005.8,1086.5c5.7,15.4,20.6,26.4,38,26.4c1.9,0,3.7-0.1,5.6-0.4c1.6-3.6,2.3-7.6,2.1-11.6c-2.4,0.7-5,1-7.6,1
					c-14,0-25.7-9.7-28.8-22.8c-0.6,0.3-1.3,0.6-1.9,1C2010.1,1081.8,2007.7,1084,2005.8,1086.5z"/>
				<path d="M2043.7,1031.8c-19.3,0-35.4,13.5-39.5,31.6c4.2-2.4,8.7-4,13.4-4.9c5-9.4,14.8-15.8,26.2-15.8
					c16.3,0,29.6,13.3,29.6,29.6c0,6.1-1.9,11.8-5.1,16.5c1.5,4.6,2.1,9.3,2.1,14c8.5-7.4,13.9-18.4,13.9-30.6
					C2084.2,1050,2066.1,1031.8,2043.7,1031.8z"/>
			</g>
			<g>
				<path class="st16" d="M2043.4,1092.5"/>
			</g>
		</g>
		<g id="Semibold-M_2_">
			<g>
				<path class="st16" d="M2043.4,1092.5"/>
			</g>
			<g>
				<path d="M2057,1128.1c10.5-12.7,12.6-31,3.9-46.1c-0.9-1.6-2-3.2-3.1-4.6c-3.9,0.5-7.7,1.8-11,4c1.8,1.8,3.4,3.8,4.7,6.1
					c7,12.1,4.4,27.1-5.4,36.3c0.6,0.4,1.2,0.8,1.8,1.2C2050.8,1126.7,2053.9,1127.7,2057,1128.1z"/>
				<path d="M1990.7,1122.6c9.6,16.7,29.4,23.9,47.1,18.4c-4.2-2.5-7.8-5.6-10.9-9.1c-10.6,0.4-21.1-4.9-26.8-14.7
					c-8.2-14.1-3.3-32.3,10.9-40.4c5.3-3.1,11.2-4.3,16.8-3.9c3.3-3.6,7-6.5,11.1-8.8c-10.7-3.7-22.9-2.9-33.4,3.2
					C1986.2,1078.4,1979.5,1103.2,1990.7,1122.6z"/>
			</g>
			<g>
				<path class="st16" d="M2043.4,1092.5"/>
			</g>
		</g>
		<g id="Semibold-M_3_">
			<g>
				<path class="st16" d="M2043.4,1092.5"/>
			</g>
			<g>
				<path d="M2067.5,1062.9c-16.2-2.7-33.2,4.6-41.9,19.7c-0.9,1.6-1.7,3.3-2.4,5c2.4,3.2,5.4,5.8,9,7.6c0.7-2.4,1.6-4.8,2.9-7.1
					c7-12.1,21.3-17.4,34.1-13.5c0.1-0.7,0.1-1.4,0.1-2.2C2069.3,1069,2068.7,1065.8,2067.5,1062.9z"/>
				<path d="M2095.9,1123.1c9.6-16.7,6-37.4-7.6-50c-0.1,4.8-0.9,9.5-2.5,14c5.6,9,6.3,20.7,0.6,30.6c-8.2,14.1-26.3,19-40.4,10.8
					c-5.3-3.1-9.3-7.5-11.8-12.6c-4.7-1-9.1-2.8-13.2-5.2c2.2,11.1,8.9,21.2,19.5,27.3C2059.8,1149.1,2084.7,1142.5,2095.9,1123.1z"
					/>
			</g>
			<g>
				<path class="st16" d="M2043.4,1092.5"/>
			</g>
		</g>
	</g>
	<g id="Medium-M">
		<g id="Medium-M_1_">
			<g>
				<path class="st16" d="M1746.7,1093"/>
			</g>
			<g>
				<path d="M1708.9,1085.5c5.4,15.9,20.4,27.4,38.1,27.4c2.3,0,4.6-0.2,6.8-0.6c1.2-3.3,1.8-6.7,1.7-10.2c-2.7,0.8-5.5,1.2-8.5,1.2
					c-14.6,0-26.9-10.4-29.9-24.2c-0.5,0.2-1,0.5-1.5,0.8C1713,1081.4,1710.8,1083.3,1708.9,1085.5z"/>
				<path d="M1747,1032.5c-19.2,0-35.4,13.6-39.3,31.7c3.7-2,7.6-3.5,11.6-4.4c4.9-10.4,15.5-17.7,27.7-17.7
					c16.9,0,30.6,13.7,30.6,30.6c0,6.9-2.3,13.2-6.1,18.3c1.1,4,1.7,8.1,1.6,12.2c8.6-7.4,14.1-18.3,14.1-30.6
					C1787.2,1050.5,1769.2,1032.5,1747,1032.5z"/>
			</g>
			<g>
				<path class="st16" d="M1746.7,1093"/>
			</g>
		</g>
		<g id="Medium-M_2_">
			<g>
				<path class="st16" d="M1746.7,1093"/>
			</g>
			<g>
				<path d="M1759,1129.5c11.1-12.6,13.6-31.4,4.7-46.7c-1.2-2-2.5-3.9-3.9-5.6c-3.4,0.6-6.7,1.8-9.7,3.7c2,1.9,3.8,4.2,5.3,6.7
					c7.3,12.7,4.5,28.5-6,38c0.5,0.3,0.9,0.6,1.4,0.9C1753.5,1128,1756.2,1129,1759,1129.5z"/>
				<path d="M1694.1,1123.1c9.6,16.7,29.5,23.8,47.1,18.2c-3.6-2.2-6.8-4.8-9.6-7.8c-11.5,1-23.1-4.5-29.2-15.1
					c-8.4-14.6-3.4-33.3,11.2-41.8c5.9-3.4,12.6-4.6,18.9-3.9c2.9-3,6.2-5.5,9.8-7.5c-10.7-3.8-22.9-3-33.5,3.1
					C1689.6,1079.2,1683,1103.9,1694.1,1123.1z"/>
			</g>
			<g>
				<path class="st16" d="M1746.7,1093"/>
			</g>
		</g>
		<g id="Medium-M_3_">
			<g>
				<path class="st16" d="M1746.7,1093"/>
			</g>
			<g>
				<path d="M1772.2,1064.1c-16.5-3.3-34,4-42.8,19.3c-1.2,2-2.1,4.1-2.9,6.2c2.2,2.7,4.9,4.9,8,6.6c0.7-2.7,1.7-5.4,3.2-7.9
					c7.3-12.7,22.4-18.1,35.9-13.8c0-0.6,0.1-1.1,0.1-1.7C1773.6,1069.7,1773.1,1066.8,1772.2,1064.1z"/>
				<path d="M1799,1123.6c9.6-16.7,5.9-37.4-7.8-49.9c-0.1,4.2-0.8,8.3-2,12.2c6.6,9.4,7.6,22.2,1.5,32.9
					c-8.4,14.6-27.2,19.6-41.8,11.2c-5.9-3.4-10.3-8.6-12.8-14.4c-4.1-1-7.9-2.6-11.4-4.7c2.1,11.2,8.8,21.4,19.4,27.5
					C1763.3,1149.4,1787.9,1142.8,1799,1123.6z"/>
			</g>
			<g>
				<path class="st16" d="M1746.7,1093"/>
			</g>
		</g>
	</g>
	<g id="Regular-M">
		<g id="Regular-M_1_">
			<g>
				<path class="st16" d="M1450,1093.6"/>
			</g>
			<g>
				<path d="M1412.2,1084.3c4.8,16.4,20.1,28.5,38.1,28.5c2.8,0,5.5-0.3,8.2-0.8c0.1-0.4,0.2-0.8,0.3-1.2c0.7-2.4,1-4.9,0.9-7.4
					c-3,0.9-6.2,1.4-9.5,1.4c-15.4,0-28.3-11-31.1-25.6c-0.3,0.2-0.7,0.3-1,0.5l0,0C1416,1081,1414,1082.5,1412.2,1084.3z"/>
				<path d="M1450.3,1033.5c-19.2,0-35.2,13.6-38.9,31.7c3.1-1.6,6.2-2.9,9.5-3.7c4.7-11.7,16.1-19.9,29.5-19.9
					c17.5,0,31.7,14.2,31.7,31.6c0,7.7-2.8,14.8-7.4,20.3c0.8,3.3,1.2,6.7,1.2,10.1c8.7-7.3,14.2-18.2,14.2-30.4
					C1490,1051.3,1472.2,1033.5,1450.3,1033.5z"/>
			</g>
			<g>
				<path class="st16" d="M1450,1093.6"/>
			</g>
		</g>
		<g id="Regular-M_2_">
			<g>
				<path class="st16" d="M1450,1093.6"/>
			</g>
			<g>
				<path d="M1460.8,1131c11.8-12.4,14.6-31.6,5.6-47.2c-1.4-2.4-3-4.6-4.8-6.7c-0.4,0.1-0.8,0.2-1.2,0.3c-2.4,0.7-4.8,1.6-6.9,2.9
					c2.3,2.1,4.3,4.6,6,7.5c7.7,13.4,4.6,30-6.6,39.8c0.3,0.2,0.6,0.4,1,0.6l0,0C1456,1129.4,1458.4,1130.4,1460.8,1131z"/>
				<path d="M1397.8,1123.4c9.6,16.6,29.4,23.7,46.9,17.9c-2.9-1.8-5.6-4-8-6.3c-12.4,1.8-25.3-4-32-15.5
					c-8.7-15.1-3.6-34.6,11.5-43.3c6.7-3.9,14.2-5,21.3-3.7c2.5-2.3,5.2-4.4,8.1-6.1c-10.6-3.9-22.9-3.2-33.4,2.9
					C1393.3,1080.1,1386.8,1104.5,1397.8,1123.4z"/>
			</g>
			<g>
				<path class="st16" d="M1450,1093.6"/>
			</g>
		</g>
		<g id="Regular-M_3_">
			<g>
				<path class="st16" d="M1450,1093.6"/>
			</g>
			<g>
				<path d="M1477,1065.6c-16.6-4-34.7,3.2-43.7,18.8c-1.4,2.4-2.5,4.9-3.4,7.5c0.3,0.3,0.6,0.6,0.9,0.9c1.8,1.8,3.8,3.3,5.9,4.5
					c0.7-3.1,1.8-6.1,3.5-8.9c7.7-13.4,23.7-19,37.8-14.1c0-0.4,0-0.7,0-1.1l0,0C1478,1070.5,1477.6,1068,1477,1065.6z"/>
				<path d="M1501.9,1124c9.6-16.6,5.8-37.3-8-49.5c-0.1,3.5-0.6,6.8-1.5,10.1c7.8,9.9,9.2,23.9,2.5,35.5
					c-8.7,15.1-28.1,20.4-43.2,11.6c-6.7-3.9-11.4-9.8-13.9-16.6c-3.2-1-6.4-2.3-9.3-4c2,11.2,8.6,21.4,19.2,27.5
					C1466.6,1149.5,1491,1142.9,1501.9,1124z"/>
			</g>
			<g>
				<path class="st16" d="M1450,1093.6"/>
			</g>
		</g>
	</g>
	<g id="Light-M">
		<g id="Light-M_1_">
			<g>
				<path class="st16" d="M1153.3,1093.9"/>
			</g>
			<g>
				<path d="M1153.6,1111.9c3,0,5.9-0.4,8.8-1c0.5-1.9,0.8-3.8,0.8-5.7c-3,0.9-6.3,1.4-9.6,1.4c-16.1,0-29.6-11.4-32.7-26.6
					c-1.7,1-3.2,2.1-4.6,3.4C1120.7,1099.8,1135.8,1111.9,1153.6,1111.9z"/>
				<path d="M1153.6,1034.6c-18.3,0-33.7,12.8-37.7,29.8c2-1,4.1-1.8,6.2-2.5c4.6-12.9,17-22.1,31.4-22.1
					c18.4,0,33.4,14.9,33.4,33.3c0,8.6-3.3,16.4-8.6,22.3c0.4,2.2,0.7,4.4,0.8,6.6c8-7.1,13.1-17.4,13.1-28.9
					C1192.3,1052,1174.9,1034.6,1153.6,1034.6z"/>
			</g>
			<g>
				<path class="st16" d="M1153.3,1093.9"/>
			</g>
		</g>
		<g id="Light-M_2_">
			<g>
				<path class="st16" d="M1153.3,1093.9"/>
			</g>
			<g>
				<path d="M1168.7,1084.7c-1.5-2.6-3.3-5-5.3-7.1c-1.9,0.5-3.7,1.2-5.4,2.1c2.3,2.2,4.4,4.7,6,7.6c8.1,14,4.9,31.4-6.7,41.6
					c1.7,1,3.5,1.7,5.3,2.3C1174.6,1119.2,1177.6,1100.1,1168.7,1084.7z"/>
				<path d="M1101.8,1123.3c9.2,15.9,27.9,22.8,44.7,17.7c-1.9-1.3-3.6-2.7-5.3-4.2c-13.4,2.4-27.6-3.7-34.8-16.2
					c-9.2-15.9-3.8-36.4,12.2-45.6c7.4-4.3,15.8-5.4,23.6-3.7c1.7-1.5,3.5-2.8,5.4-4c-10.1-3.4-21.6-2.6-31.6,3.1
					C1097.4,1081.1,1091.1,1104.8,1101.8,1123.3z"/>
			</g>
			<g>
				<path class="st16" d="M1153.3,1093.9"/>
			</g>
		</g>
		<g id="Light-M_3_">
			<g>
				<path class="st16" d="M1153.3,1093.9"/>
			</g>
			<g>
				<path d="M1137.6,1085.2c-1.5,2.6-2.7,5.3-3.5,8.1c1.4,1.4,2.9,2.6,4.5,3.6c0.7-3.1,1.9-6.1,3.6-9c8.1-14,24.7-19.9,39.4-15
					c0-1.9-0.2-3.9-0.6-5.7C1164.5,1062.8,1146.5,1069.8,1137.6,1085.2z"/>
				<path d="M1204.5,1123.8c9.2-15.9,5.8-35.5-7-47.5c-0.2,2.3-0.5,4.5-1,6.6c8.8,10.4,10.6,25.7,3.4,38.3
					c-9.2,15.9-29.6,21.4-45.5,12.3c-7.4-4.3-12.5-11-15-18.6c-2.1-0.7-4.2-1.6-6.2-2.6c2.1,10.5,8.5,20,18.5,25.8
					C1170.1,1148.7,1193.8,1142.3,1204.5,1123.8z"/>
			</g>
			<g>
				<path class="st16" d="M1153.3,1093.9"/>
			</g>
		</g>
	</g>
	<g id="Thin-M">
		<g id="Thin-M_1_">
			<g>
				<path class="st16" d="M856.6,1094.3"/>
			</g>
			<g>
				<path d="M856.9,1035c-17.9,0-33,12.3-37.2,28.9c1.3-0.6,2.6-1.1,3.9-1.5c4.6-14,17.8-24.1,33.3-24.1c19.3,0,35.1,15.7,35.1,35
					c0,9.3-3.7,17.8-9.7,24.1c0.2,1.4,0.4,2.8,0.5,4.1c7.7-7,12.5-17.1,12.5-28.2C895.3,1052.2,878.1,1035,856.9,1035z"/>
				<path d="M856.9,1111.5c3.2,0,6.4-0.4,9.4-1.2c0.2-1.2,0.4-2.4,0.5-3.6c-3.1,0.9-6.4,1.4-9.9,1.4c-16.8,0-30.9-11.9-34.3-27.7
					c-1,0.7-2,1.4-2.9,2.1C823.9,1099.2,839,1111.5,856.9,1111.5z"/>
			</g>
			<g>
				<path class="st16" d="M856.6,1094.3"/>
			</g>
		</g>
		<g id="Thin-M_2_">
			<g>
				<path class="st16" d="M856.6,1094.3"/>
			</g>
			<g>
				<path d="M805,1123.7c9,15.5,27.2,22.4,43.7,17.7c-1.1-0.8-2.2-1.7-3.3-2.6c-14.4,3-29.8-3.4-37.5-16.8
					c-9.7-16.7-3.9-38.2,12.8-47.9c8.1-4.7,17.3-5.7,25.7-3.7c1.1-0.9,2.2-1.7,3.4-2.5c-9.9-3.1-21-2.3-30.7,3.3
					C800.7,1081.9,794.5,1105.4,805,1123.7z"/>
				<path d="M871.3,1085.4c-1.6-2.8-3.5-5.3-5.7-7.5c-1.1,0.4-2.3,0.8-3.3,1.3c2.4,2.3,4.4,4.9,6.2,7.8c8.4,14.6,5.2,32.8-6.9,43.6
					c1.1,0.6,2.2,1,3.3,1.4C877.2,1120.2,880.3,1101,871.3,1085.4z"/>
			</g>
			<g>
				<path class="st16" d="M856.6,1094.3"/>
			</g>
		</g>
		<g id="Thin-M_3_">
			<g>
				<path class="st16" d="M856.6,1094.3"/>
			</g>
			<g>
				<path d="M907.8,1124.3c9-15.5,5.8-34.8-6.5-46.7c-0.1,1.4-0.3,2.8-0.6,4.1c9.8,11,12,27.5,4.2,40.9
					c-9.7,16.7-31.1,22.5-47.8,12.9c-8.1-4.7-13.6-12.1-16-20.4c-1.3-0.5-2.6-1-3.8-1.7c2.2,10.2,8.5,19.4,18.2,25
					C873.8,1148.9,897.2,1142.6,907.8,1124.3z"/>
				<path d="M841.5,1086c-1.6,2.8-2.8,5.7-3.7,8.7c0.9,0.8,1.8,1.5,2.8,2.2c0.8-3.2,2-6.3,3.7-9.3c8.4-14.6,25.8-20.8,41.2-15.8
					c-0.1-1.2-0.2-2.4-0.4-3.6C868.7,1063.6,850.5,1070.5,841.5,1086z"/>
			</g>
			<g>
				<path class="st16" d="M856.6,1094.3"/>
			</g>
		</g>
	</g>
	<g id="Ultralight-M">
		<g id="Ultralight-M_1_">
			<g>
				<path class="st16" d="M559.9,1094.4"/>
			</g>
			<g>
				<path d="M560.2,1111c3.1,0,6.2-0.4,9.1-1.1c0.2-0.9,0.3-1.8,0.4-2.7c-3,0.9-6.2,1.3-9.5,1.3c-16.6,0-30.5-11.7-34-27.3
					c-0.8,0.5-1.5,1-2.2,1.6C528.1,1099,542.8,1111,560.2,1111z"/>
				<path d="M560.2,1036.5c-17.3,0-31.8,11.8-36.1,27.7c1-0.4,2-0.8,3-1.2c4.5-13.9,17.7-24.1,33.1-24.1c19.2,0,34.8,15.6,34.8,34.7
					c0,9.3-3.7,17.8-9.7,24c0.2,1,0.3,2.1,0.4,3.1c7.3-6.8,11.8-16.4,11.8-27.1C597.5,1053.2,580.7,1036.5,560.2,1036.5z"/>
			</g>
			<g>
				<path class="st16" d="M559.9,1094.4"/>
			</g>
		</g>
		<g id="Ultralight-M_2_">
			<g>
				<path class="st16" d="M559.9,1094.4"/>
			</g>
			<g>
				<path d="M574,1085.9c-1.6-2.7-3.4-5.2-5.5-7.3c-0.9,0.3-1.7,0.6-2.5,1c2.3,2.2,4.3,4.7,5.9,7.6c8.3,14.4,5.1,32.3-6.6,43
					c0.8,0.4,1.6,0.8,2.5,1.1C579.7,1119.7,582.8,1101,574,1085.9z"/>
				<path d="M509.5,1123.1c8.6,15,26.1,21.7,42,17.4c-0.9-0.6-1.7-1.3-2.5-2c-14.3,3-29.7-3.3-37.4-16.6
					c-9.6-16.6-3.9-37.9,12.7-47.5c8.1-4.7,17.2-5.7,25.6-3.6c0.8-0.7,1.7-1.3,2.5-1.9c-9.5-2.9-20.1-2-29.4,3.4
					C505.4,1082.5,499.2,1105.3,509.5,1123.1z"/>
			</g>
			<g>
				<path class="st16" d="M559.9,1094.4"/>
			</g>
		</g>
		<g id="Ultralight-M_3_">
			<g>
				<path class="st16" d="M559.9,1094.4"/>
			</g>
			<g>
				<path d="M545.4,1086.4c-1.6,2.7-2.8,5.6-3.6,8.4c0.7,0.6,1.4,1.2,2.1,1.7c0.8-3,2-6,3.6-8.9c8.3-14.4,25.4-20.6,40.6-15.8
					c-0.1-0.9-0.2-1.8-0.3-2.7C571.8,1064.6,554.1,1071.3,545.4,1086.4z"/>
				<path d="M609.9,1123.7c8.6-15,5.7-33.4-6-45.1c-0.1,1.1-0.3,2.1-0.5,3.1c9.8,10.9,12,27.3,4.3,40.7
					c-9.6,16.6-30.9,22.3-47.5,12.8c-8.1-4.7-13.5-12.1-16-20.4c-1-0.4-2-0.8-2.9-1.2c2.3,9.7,8.3,18.4,17.6,23.8
					C576.8,1147.6,599.6,1141.5,609.9,1123.7z"/>
			</g>
			<g>
				<path class="st16" d="M559.9,1094.4"/>
			</g>
		</g>
	</g>
	<g id="Black-S">
		<g id="Black-S_1_">
			<g>
				<path class="st17" d="M2933.5,661.7"/>
			</g>
			<g>
				<path d="M2926.6,631.2c2.2-1,4.6-1.5,7.1-1.5c9.1,0,16.6,7.1,17.3,16.1c1,1.3,1.8,2.6,2.6,4c3.5,6.1,5.1,12.8,5.1,19.4
					c5.2-5.9,8.4-13.6,8.4-22.1c0-18.4-15-33.4-33.4-33.4c-14.4,0-26.6,9.1-31.3,21.9C2909.9,631.4,2918.3,629.9,2926.6,631.2z"/>
				<path d="M2914.4,657.7c-4,2.3-6.2,6.4-6.4,10.7c4.8,5.8,11.5,9.9,19.1,11.5c5.4-3.2,7.7-9.7,5.6-15.5
					c-5.8-0.3-10.9-3.6-13.8-8.3C2917.4,656.4,2915.8,656.9,2914.4,657.7L2914.4,657.7z"/>
			</g>
			<g>
				<path class="st17" d="M2933.5,661.7"/>
			</g>
		</g>
		<g id="Black-S_2_">
			<g>
				<path class="st17" d="M2933.5,661.7"/>
			</g>
			<g>
				<path d="M2910.6,682.8c-1.9-1.4-3.6-3.2-4.9-5.4c-4.6-7.9-2.2-18,5.3-23c0.6-1.5,1.3-2.9,2.1-4.3c3.5-6.1,8.5-10.9,14.3-14.1
					c-7.7-1.6-16-0.5-23.4,3.8c-16,9.2-21.4,29.7-12.2,45.6c7.2,12.4,21.2,18.5,34.6,16.2C2919.1,697.3,2913.6,690.7,2910.6,682.8z"
					/>
				<path d="M2939.6,680.2c4,2.3,8.7,2.2,12.4,0.2c2.6-7,2.8-14.9,0.3-22.3c-5.4-3.1-12.3-1.8-16.2,2.9c2.6,5.2,2.4,11.2-0.3,16.1
					C2937,678.3,2938.2,679.4,2939.6,680.2L2939.6,680.2z"/>
			</g>
			<g>
				<path class="st17" d="M2933.5,661.7"/>
			</g>
		</g>
		<g id="Black-S_3_">
			<g>
				<path class="st17" d="M2933.5,661.7"/>
			</g>
			<g>
				<path d="M2963.3,670.9c-0.2,2.4-1,4.7-2.2,6.9c-4.6,7.9-14.5,10.8-22.6,6.9c-1.6,0.2-3.2,0.3-4.8,0.3c-7.1,0-13.7-1.9-19.3-5.3
					c2.5,7.5,7.6,14.1,15,18.3c16,9.2,36.4,3.7,45.6-12.2c7.2-12.4,5.4-27.6-3.3-38.1C2971.6,656.3,2968.6,664.4,2963.3,670.9z"/>
				<path d="M2946.5,647.1c0-4.6-2.4-8.6-6.1-10.8c-7.4,1.3-14.3,5-19.5,10.8c0,6.3,4.6,11.5,10.6,12.5c3.2-4.9,8.5-7.7,14-7.8
					C2946.2,650.4,2946.5,648.8,2946.5,647.1L2946.5,647.1z"/>
			</g>
			<g>
				<path class="st17" d="M2933.5,661.7"/>
			</g>
		</g>
	</g>
	<g id="Heavy-S">
		<g id="Heavy-S_1_">
			<g>
				<path class="st18" d="M2636.8,662.4"/>
			</g>
			<g>
				<path d="M2609.8,666c5.3,7.8,13.9,13.2,23.8,14.3c3.8-3.5,5.4-8.8,4.2-13.8c-0.3,0-0.5,0-0.8,0c-7.5,0-14-4.4-17.1-10.7
					c-1.2,0.3-2.3,0.8-3.4,1.4C2613,659.1,2610.7,662.4,2609.8,666z"/>
				<path d="M2625.7,632.1c3.2-2.4,7.1-3.8,11.3-3.8c10.5,0,19,8.6,19,19.1c0,0.9-0.1,1.8-0.2,2.7c0.1,0.2,0.3,0.5,0.4,0.7
					c3.4,6,5,12.5,5,18.9c5.4-5.9,8.7-13.7,8.7-22.4c0-18.2-14.8-33-33-33c-14.4,0-26.7,9.3-31.2,22.2
					C2612,633.2,2618.8,631.7,2625.7,632.1z"/>
			</g>
			<g>
				<path class="st18" d="M2636.8,662.4"/>
			</g>
		</g>
		<g id="Heavy-S_2_">
			<g>
				<path class="st18" d="M2636.8,662.4"/>
			</g>
			<g>
				<path d="M2653.5,684c4.1-8.5,4.5-18.7,0.4-27.8c-4.9-1.5-10.3-0.2-14.1,3.2c0.1,0.2,0.3,0.4,0.4,0.7c3.8,6.5,3.2,14.3-0.8,20.2
					c0.9,0.9,1.8,1.6,2.9,2.3C2645.9,684.6,2649.9,685,2653.5,684z"/>
				<path d="M2616.1,687.1c-3.6-1.6-6.8-4.2-8.9-7.9c-5.3-9.1-2.1-20.8,7-26c0.8-0.5,1.6-0.8,2.5-1.2c0.1-0.3,0.3-0.5,0.4-0.8
					c3.4-6,8.3-10.6,13.9-13.8c-7.8-1.7-16.3-0.7-23.7,3.6c-15.8,9.1-21.2,29.4-12.1,45.1c7.2,12.5,21.4,18.5,34.9,15.9
					C2624,698.4,2619.2,693.3,2616.1,687.1z"/>
			</g>
			<g>
				<path class="st18" d="M2636.8,662.4"/>
			</g>
		</g>
		<g id="Heavy-S_3_">
			<g>
				<path class="st18" d="M2636.8,662.4"/>
			</g>
			<g>
				<path d="M2647.2,637.1c-9.4,0.7-18.4,5.5-24.3,13.5c1.2,5,5,9.1,9.9,10.6c0.1-0.2,0.2-0.5,0.4-0.7c3.8-6.5,10.8-9.9,17.9-9.4
					c0.3-1.2,0.5-2.4,0.5-3.7C2651.5,643.4,2649.8,639.8,2647.2,637.1z"/>
				<path d="M2668.6,667.9c0.5,3.9-0.3,8-2.4,11.7c-5.3,9.1-16.9,12.2-26,7c-0.8-0.5-1.5-1-2.3-1.6c-0.3,0-0.6,0-0.9,0
					c-6.9,0-13.3-1.9-18.9-5.1c2.4,7.6,7.5,14.4,15,18.7c15.8,9.1,36,3.7,45.1-12.1c7.2-12.5,5.3-27.8-3.7-38.1
					C2674.4,655.5,2672.3,662.2,2668.6,667.9z"/>
			</g>
			<g>
				<path class="st18" d="M2636.8,662.4"/>
			</g>
		</g>
	</g>
	<g id="Bold-S">
		<g id="Bold-S_1_">
			<g>
				<path class="st19" d="M2340.1,663.1"/>
			</g>
			<g>
				<path d="M2323.9,634.1c3.9-4.7,9.8-7.7,16.4-7.7c11.8,0,21.4,9.6,21.4,21.4c0,2.8-0.6,5.5-1.6,8c2.1,4.6,3.1,9.5,3.1,14.3
					c5.6-5.8,9.1-13.7,9.1-22.4c0-17.7-14.4-32.1-32-32.1c-14.3,0-26.5,9.5-30.6,22.5C2314.2,635.8,2319,634.5,2323.9,634.1z"/>
				<path d="M2343.4,668.9c-1,0.1-2,0.2-3.1,0.2c-9.2,0-17.1-5.9-20.1-14.1c-0.7,0.3-1.3,0.6-2,1c-2.8,1.6-4.9,3.9-6.3,6.5
					c5.4,10.2,16.1,17.3,28.4,17.3c0.1,0,0.3,0,0.4,0C2342.8,676.6,2343.8,672.7,2343.4,668.9z"/>
			</g>
			<g>
				<path class="st19" d="M2340.1,663.1"/>
			</g>
		</g>
		<g id="Bold-S_2_">
			<g>
				<path class="st19" d="M2340.1,663.1"/>
			</g>
			<g>
				<path d="M2323.1,691.7c-6.1-1-11.6-4.6-14.9-10.4c-5.9-10.2-2.4-23.3,7.8-29.2c2.5-1.4,5.1-2.3,7.7-2.7c3-4.1,6.7-7.4,10.9-9.9
					c-7.8-2-16.4-1.1-23.9,3.3c-15.3,8.8-20.6,28.5-11.7,43.8c7.2,12.4,21.4,18.2,34.7,15.2C2329.4,699.2,2325.8,695.7,2323.1,691.7
					z"/>
				<path d="M2343.4,657.4c0.6,0.8,1.2,1.6,1.8,2.5c4.6,8,3.4,17.8-2.2,24.4c0.6,0.4,1.2,0.9,1.8,1.2c2.8,1.6,5.8,2.3,8.8,2.2
					c6.2-9.8,6.9-22.5,0.7-33.2c-0.1-0.1-0.2-0.3-0.2-0.4C2350.4,654,2346.6,655.1,2343.4,657.4z"/>
			</g>
			<g>
				<path class="st19" d="M2340.1,663.1"/>
			</g>
		</g>
		<g id="Bold-S_3_">
			<g>
				<path class="st19" d="M2340.1,663.1"/>
			</g>
			<g>
				<path d="M2373.3,663.6c2.1,5.8,1.8,12.4-1.5,18.1c-5.9,10.2-19,13.7-29.2,7.8c-2.5-1.4-4.5-3.3-6.2-5.4c-5-0.5-9.8-2.1-14-4.5
					c2.2,7.8,7.3,14.7,14.8,19.1c15.3,8.8,34.9,3.6,43.8-11.7c7.2-12.4,5-27.7-4.2-37.7C2376.7,654.4,2375.5,659.2,2373.3,663.6z"/>
				<path d="M2333.4,663.1c0.4-0.9,0.8-1.9,1.3-2.8c4.6-8,13.7-11.9,22.3-10.3c0.1-0.7,0.1-1.5,0.1-2.2c0-3.2-0.9-6.2-2.5-8.8
					c-11.5-0.5-23,5.3-29.1,16c-0.1,0.1-0.1,0.3-0.2,0.4C2327.1,658.8,2329.9,661.5,2333.4,663.1z"/>
			</g>
			<g>
				<path class="st19" d="M2340.1,663.1"/>
			</g>
		</g>
	</g>
	<g id="Semibold-S">
		<g id="Semibold-S_1_">
			<g>
				<path class="st20" d="M2043.4,663.7"/>
			</g>
			<g>
				<path d="M2026,634.8c4-5.4,10.4-8.8,17.6-8.8c12.2,0,22.1,9.9,22.1,22.1c0,3.3-0.7,6.4-2,9.3c1.8,4.3,2.7,8.8,2.7,13.3
					c5.7-5.8,9.3-13.8,9.3-22.5c0-17.7-14.4-32-32-32c-14.4,0-26.6,9.6-30.6,22.7C2017.1,636.6,2021.5,635.3,2026,634.8z"/>
				<path d="M2047.2,669.9c-1.2,0.2-2.4,0.3-3.6,0.3c-9.7,0-17.9-6.3-20.9-15c-0.6,0.3-1.1,0.5-1.7,0.8c-2.6,1.5-4.7,3.6-6.2,6.1
					c5.2,10.6,16.1,18,28.8,18c0.4,0,0.8,0,1.3,0C2046.7,677,2047.5,673.5,2047.2,669.9z"/>
			</g>
			<g>
				<path class="st20" d="M2043.4,663.7"/>
			</g>
		</g>
		<g id="Semibold-S_2_">
			<g>
				<path class="st20" d="M2043.4,663.7"/>
			</g>
			<g>
				<path d="M2027.1,693.1c-6.6-0.8-12.9-4.6-16.4-10.9c-6.1-10.5-2.4-24.1,8.1-30.1c2.9-1.7,6-2.6,9-2.9c2.8-3.7,6.3-6.7,10.1-9
					c-7.9-2.1-16.6-1.2-24.2,3.2c-15.3,8.8-20.6,28.5-11.7,43.7c7.2,12.5,21.6,18.3,35,15.2C2033.1,699.9,2029.8,696.8,2027.1,693.1
					z"/>
				<path d="M2046.8,657.2c0.8,0.9,1.5,1.9,2.1,3c4.8,8.4,3.5,18.7-2.5,25.6c0.5,0.4,1,0.7,1.6,1c2.6,1.5,5.5,2.3,8.4,2.3
					c6.6-9.8,7.5-23,1.2-33.9c-0.2-0.4-0.4-0.7-0.7-1.1C2053.3,654.1,2049.8,655.2,2046.8,657.2z"/>
			</g>
			<g>
				<path class="st20" d="M2043.4,663.7"/>
			</g>
		</g>
		<g id="Semibold-S_3_">
			<g>
				<path class="st20" d="M2043.4,663.7"/>
			</g>
			<g>
				<path d="M2077,663c2.6,6.2,2.4,13.4-1.2,19.7c-6.1,10.5-19.6,14.1-30.2,8.1c-2.9-1.7-5.2-3.9-7-6.4c-4.6-0.6-8.9-2.1-12.8-4.3
					c2.1,7.9,7.3,14.9,14.9,19.3c15.3,8.8,34.9,3.6,43.8-11.7c7.2-12.5,5-27.8-4.3-37.9C2080,654.4,2078.9,658.9,2077,663z"/>
				<path d="M2036.1,663.9c0.4-1.1,0.9-2.2,1.5-3.3c4.8-8.4,14.4-12.4,23.4-10.6c0.1-0.6,0.1-1.2,0.1-1.9c0-3-0.8-5.9-2.2-8.4
					c-11.8-0.8-23.7,5-30,15.9c-0.2,0.4-0.4,0.7-0.6,1.1C2030.2,659.8,2032.8,662.3,2036.1,663.9z"/>
			</g>
			<g>
				<path class="st20" d="M2043.4,663.7"/>
			</g>
		</g>
	</g>
	<g id="Medium-S">
		<g id="Medium-S_1_">
			<g>
				<path class="st21" d="M1746.7,664.1"/>
			</g>
			<g>
				<path d="M1717.9,661.1c4.9,11.2,16.1,19,29,19c0.8,0,1.7,0,2.5-0.1c1.4-2.8,2.1-5.9,1.9-9.1c-1.4,0.3-2.9,0.4-4.4,0.4
					c-10.3,0-19.1-6.8-22-16.2c-0.4,0.2-0.8,0.4-1.2,0.6l0,0C1721.3,657.1,1719.4,659,1717.9,661.1z"/>
				<path d="M1746.9,616.5c-14.4,0-26.6,9.6-30.5,22.8c3.6-1.8,7.3-3,11.2-3.6c4.1-6.3,11.2-10.5,19.3-10.5c12.7,0,23,10.3,23,23
					c0,4-1,7.8-2.8,11.1c1.4,3.8,2.1,7.7,2.2,11.5c5.8-5.8,9.4-13.8,9.4-22.6C1778.7,630.8,1764.4,616.5,1746.9,616.5z"/>
			</g>
			<g>
				<path class="st21" d="M1746.7,664.1"/>
			</g>
		</g>
		<g id="Medium-S_2_">
			<g>
				<path class="st21" d="M1746.7,664.1"/>
			</g>
			<g>
				<path d="M1758.5,690.5c7.2-9.8,8.4-23.4,1.9-34.6c-0.4-0.7-0.9-1.4-1.3-2.1c-3.1,0.2-6.2,1.2-8.8,2.9c1,1.1,1.8,2.3,2.6,3.6
					c5.2,8.9,3.6,19.9-3.1,27.1c0.4,0.3,0.8,0.5,1.2,0.8l0,0C1753.4,689.5,1755.9,690.2,1758.5,690.5z"/>
				<path d="M1705.4,687.6c7.2,12.5,21.6,18.2,35,15c-3.4-2.2-6.3-4.8-8.7-7.9c-7.5-0.4-14.7-4.5-18.7-11.4
					c-6.3-11-2.6-25.1,8.4-31.4c3.5-2,7.2-3,11-3.1c2.6-3.1,5.6-5.6,8.9-7.6c-7.9-2.2-16.6-1.3-24.3,3.1
					C1701.9,653,1696.6,672.5,1705.4,687.6z"/>
			</g>
			<g>
				<path class="st21" d="M1746.7,664.1"/>
			</g>
		</g>
		<g id="Medium-S_3_">
			<g>
				<path class="st21" d="M1746.7,664.1"/>
			</g>
			<g>
				<path d="M1763.6,640.6c-12.1-1.3-24.5,4.5-30.9,15.7c-0.4,0.7-0.8,1.5-1.2,2.2c1.7,2.6,4.1,4.8,6.9,6.2c0.5-1.4,1.1-2.7,1.8-4
					c5.2-8.9,15.4-13.1,25-10.9c0-0.5,0.1-0.9,0.1-1.4l0,0C1765.4,645.6,1764.7,642.9,1763.6,640.6z"/>
				<path d="M1787.7,688c7.2-12.5,4.9-27.8-4.5-37.8c-0.2,4-1.1,7.9-2.5,11.5c3.4,6.7,3.5,14.9-0.6,21.9c-6.3,11-20.4,14.7-31.4,8.4
					c-3.5-2-6.2-4.8-8.2-8c-3.9-0.7-7.7-2-11.1-3.9c2.1,7.9,7.2,15.1,14.8,19.5C1759.5,708.4,1779,703.2,1787.7,688z"/>
			</g>
			<g>
				<path class="st21" d="M1746.7,664.1"/>
			</g>
		</g>
	</g>
	<g id="Regular-S">
		<g id="Regular-S_1_">
			<g>
				<path class="st22" d="M1450,664.5"/>
			</g>
			<g>
				<path d="M1421.3,659.8c4.5,11.6,15.7,19.9,28.9,19.9c1.3,0,2.7-0.1,3.9-0.3c1-2.4,1.4-4.9,1.4-7.5c-1.7,0.4-3.5,0.6-5.4,0.6
					c-11,0-20.2-7.5-23-17.6c-0.2,0.1-0.5,0.2-0.7,0.4C1424.5,656.6,1422.8,658.1,1421.3,659.8z"/>
				<path d="M1450.2,617.8c-14.2,0-26.2,9.6-29.8,22.7c2.8-1.4,5.8-2.4,8.8-3.1c4-7.5,11.9-12.6,21-12.6c13.1,0,23.8,10.7,23.8,23.8
					c0,4.9-1.5,9.4-4,13.1c0.9,3,1.4,6.1,1.5,9.2c5.9-5.6,9.6-13.6,9.6-22.3C1481.1,631.7,1467.3,617.8,1450.2,617.8z"/>
			</g>
			<g>
				<path class="st22" d="M1450,664.5"/>
			</g>
		</g>
		<g id="Regular-S_2_">
			<g>
				<path class="st22" d="M1450,664.5"/>
			</g>
			<g>
				<path d="M1460.2,691.7c7.8-9.7,9.4-23.6,2.8-35c-0.7-1.2-1.4-2.2-2.2-3.3c-2.5,0.4-5,1.2-7.2,2.5c1.2,1.3,2.3,2.7,3.2,4.3
					c5.5,9.5,3.6,21.2-3.7,28.7c0.2,0.1,0.4,0.3,0.7,0.4C1455.8,690.6,1458,691.3,1460.2,691.7z"/>
				<path d="M1409.4,687.7c7.1,12.3,21.4,17.9,34.6,14.5c-2.6-1.7-5-3.8-7.1-6.1c-8.5,0.2-16.8-4-21.4-11.9
					c-6.6-11.4-2.6-26,8.7-32.5c4.2-2.4,8.8-3.4,13.4-3.1c2.2-2.3,4.6-4.3,7.2-5.9c-7.8-2.3-16.5-1.5-24.1,2.9
					C1406,653.9,1400.9,672.9,1409.4,687.7z"/>
			</g>
			<g>
				<path class="st22" d="M1450,664.5"/>
			</g>
		</g>
		<g id="Regular-S_3_">
			<g>
				<path class="st22" d="M1450,664.5"/>
			</g>
			<g>
				<path d="M1468.3,642.1c-12.3-1.9-25.1,3.7-31.7,15.1c-0.7,1.2-1.2,2.3-1.7,3.5c1.6,2,3.5,3.7,5.8,5c0.5-1.7,1.2-3.4,2.1-5
					c5.5-9.5,16.6-13.8,26.7-11.1c0-0.3,0-0.5,0-0.8C1469.6,646.4,1469.1,644.2,1468.3,642.1z"/>
				<path d="M1490.3,688.1c7.1-12.3,4.8-27.5-4.8-37.2c-0.2,3.2-0.8,6.2-1.8,9.2c4.5,7.2,4.9,16.6,0.4,24.4
					c-6.6,11.4-21.2,15.3-32.6,8.7c-4.2-2.4-7.4-6-9.4-10c-3.1-0.7-6-1.8-8.7-3.3c1.9,7.9,7,15.1,14.6,19.5
					C1462.8,707.9,1481.8,702.8,1490.3,688.1z"/>
			</g>
			<g>
				<path class="st22" d="M1450,664.5"/>
			</g>
		</g>
	</g>
	<g id="Light-S">
		<g id="Light-S_1_">
			<g>
				<path class="st23" d="M1153.3,664.8"/>
			</g>
			<g>
				<path d="M1130.5,637.5c4.2-8.5,12.9-14.4,23-14.4c14.1,0,25.6,11.5,25.6,25.6c0,5.6-1.8,10.8-4.9,15c0.5,2.1,0.9,4.2,1,6.2
					c5.3-5.5,8.7-13,8.7-21.2c0-16.8-13.7-30.5-30.4-30.5c-13.6,0-25.2,9-29,21.3C1126.4,638.7,1128.4,638,1130.5,637.5z"/>
				<path d="M1153.5,674.3c-11.7,0-21.6-7.9-24.6-18.6c-1.5,0.9-2.9,2-4,3.2c4.2,11.8,15.5,20.2,28.7,20.2c1.5,0,3-0.1,4.5-0.3
					c0.5-1.6,0.9-3.4,1-5.1C1157.2,674.1,1155.4,674.3,1153.5,674.3z"/>
			</g>
			<g>
				<path class="st23" d="M1153.3,664.8"/>
			</g>
		</g>
		<g id="Light-S_2_">
			<g>
				<path class="st23" d="M1153.3,664.8"/>
			</g>
			<g>
				<path d="M1141,698.2c-9.5,0.7-19-4-24-12.7c-7.1-12.2-2.8-27.9,9.4-35c4.8-2.8,10.2-3.8,15.4-3.3c1.5-1.5,3.2-2.8,4.9-4
					c-7.4-1.9-15.6-1-22.7,3.1c-14.6,8.4-19.6,27.1-11.2,41.6c6.8,11.8,20.4,17.3,33,14.5C1144,701.1,1142.4,699.7,1141,698.2z"/>
				<path d="M1161.4,659.8c5.8,10.1,4,22.6-3.8,30.6c1.6,0.8,3.2,1.5,4.8,1.9c8.1-9.5,9.8-23.5,3.2-34.9c-0.8-1.3-1.6-2.6-2.5-3.7
					c-1.7,0.4-3.3,0.9-4.9,1.7C1159.3,656.7,1160.4,658.2,1161.4,659.8z"/>
			</g>
			<g>
				<path class="st23" d="M1153.3,664.8"/>
			</g>
		</g>
		<g id="Light-S_3_">
			<g>
				<path class="st23" d="M1153.3,664.8"/>
			</g>
			<g>
				<path d="M1188.3,658.7c5.3,7.9,6,18.4,1,27.2c-7.1,12.2-22.8,16.4-35,9.4c-4.8-2.8-8.4-7-10.6-11.7c-2.1-0.6-4-1.3-5.9-2.2
					c2.1,7.4,6.9,14,14.1,18.1c14.6,8.4,33.2,3.4,41.6-11.1c6.8-11.8,4.8-26.3-4-35.8C1189.3,654.6,1188.9,656.7,1188.3,658.7z"/>
				<path d="M1144.9,660.3c5.8-10.1,17.6-14.7,28.4-12c0-1.8-0.3-3.5-0.8-5.1c-12.3-2.2-25.2,3.3-31.8,14.7c-0.8,1.3-1.4,2.7-2,4.1
					c1.2,1.3,2.5,2.4,3.9,3.4C1143.2,663.6,1144,661.9,1144.9,660.3z"/>
			</g>
			<g>
				<path class="st23" d="M1153.3,664.8"/>
			</g>
		</g>
	</g>
	<g id="Thin-S">
		<g id="Thin-S_1_">
			<g>
				<path class="st24" d="M856.5,665.1"/>
			</g>
			<g>
				<path d="M832.1,638.2c4.1-9.5,13.7-16.2,24.7-16.2c14.8,0,26.9,12,26.9,26.8c0,6.3-2.2,12.1-5.8,16.7c0.3,1.2,0.5,2.5,0.6,3.8
					c5.1-5.3,8.2-12.5,8.2-20.4c0-16.4-13.4-29.8-29.8-29.8c-13.2,0-24.4,8.6-28.3,20.4C829.7,639,830.9,638.6,832.1,638.2z"/>
				<path d="M856.8,675.7c-12.3,0-22.7-8.3-25.9-19.5c-0.9,0.6-1.7,1.2-2.5,1.9c3.9,11.9,15.1,20.5,28.3,20.5c1.8,0,3.5-0.2,5.2-0.5
					c0.3-1,0.4-2.1,0.5-3.1C860.7,675.4,858.8,675.7,856.8,675.7z"/>
			</g>
			<g>
				<path class="st24" d="M856.5,665.1"/>
			</g>
		</g>
		<g id="Thin-S_2_">
			<g>
				<path class="st24" d="M856.5,665.1"/>
			</g>
			<g>
				<path d="M845.5,699.7c-10.3,1.2-20.9-3.7-26.4-13.3c-7.4-12.8-3-29.3,9.8-36.7c5.5-3.1,11.6-4.1,17.4-3.3c0.9-0.9,1.9-1.6,3-2.4
					c-7.2-1.7-14.9-0.8-21.8,3.1c-14.2,8.2-19.1,26.5-10.9,40.7c6.6,11.4,19.6,16.8,31.8,14.3C847.4,701.4,846.4,700.6,845.5,699.7z
					"/>
				<path d="M865.6,659.6c6.1,10.6,4.2,23.8-3.9,32.2c0.9,0.5,1.9,0.9,2.9,1.2c8.3-9.3,10.2-23.4,3.6-34.8c-0.9-1.6-1.9-3-3-4.3
					c-1,0.3-2,0.6-2.9,1.1C863.4,656.3,864.6,657.9,865.6,659.6z"/>
			</g>
			<g>
				<path class="st24" d="M856.5,665.1"/>
			</g>
		</g>
		<g id="Thin-S_3_">
			<g>
				<path class="st24" d="M856.5,665.1"/>
			</g>
			<g>
				<path d="M892.1,657.3c6.2,8.3,7.2,19.9,1.7,29.5c-7.4,12.8-23.9,17.3-36.7,9.9c-5.5-3.1-9.4-7.9-11.5-13.4
					c-1.2-0.4-2.4-0.8-3.6-1.4c2.1,7.1,6.8,13.3,13.6,17.3c14.2,8.2,32.5,3.3,40.7-11c6.6-11.4,4.8-25.4-3.5-34.7
					C892.6,654.9,892.4,656.1,892.1,657.3z"/>
				<path d="M847.3,660c6.1-10.6,18.5-15.5,29.8-12.7c-0.1-1.1-0.2-2.1-0.4-3.1c-12.2-2.5-25.3,2.9-31.9,14.3
					c-0.9,1.6-1.6,3.2-2.2,4.8c0.8,0.7,1.6,1.4,2.4,2C845.5,663.5,846.3,661.7,847.3,660z"/>
			</g>
			<g>
				<path class="st24" d="M856.5,665.1"/>
			</g>
		</g>
	</g>
	<g id="Ultralight-S">
		<g id="Ultralight-S_1_">
			<g>
				<path class="st25" d="M559.8,665.3"/>
			</g>
			<g>
				<path d="M534.9,638.5c4.1-9.9,13.8-16.8,25.2-16.8c15,0,27.3,12.2,27.3,27.3c0,6.5-2.3,12.5-6.1,17.2c0.2,0.9,0.3,1.9,0.4,2.8
					c4.9-5.3,7.9-12.3,7.9-20.1c0-16.3-13.2-29.5-29.5-29.5c-12.9,0-23.9,8.4-27.9,20C533.1,639.1,534,638.8,534.9,638.5z"/>
				<path d="M560.1,676.3c-12.4,0-22.9-8.4-26.2-19.8c-0.7,0.5-1.3,0.9-1.9,1.5c3.8,11.9,14.9,20.5,28.1,20.5c1.8,0,3.6-0.2,5.3-0.5
					c0.2-0.8,0.3-1.5,0.4-2.3C564,676,562.1,676.3,560.1,676.3z"/>
			</g>
			<g>
				<path class="st25" d="M559.8,665.3"/>
			</g>
		</g>
		<g id="Ultralight-S_2_">
			<g>
				<path class="st25" d="M559.8,665.3"/>
			</g>
			<g>
				<path d="M549.1,700.3c-10.6,1.4-21.5-3.6-27.2-13.4c-7.5-13-3-29.7,10-37.3c5.7-3.3,12-4.3,18-3.3c0.7-0.6,1.5-1.2,2.2-1.8
					c-7-1.6-14.6-0.7-21.3,3.2c-14.1,8.1-18.9,26.2-10.8,40.3c6.5,11.2,19.2,16.5,31.3,14.2C550.5,701.6,549.8,700.9,549.1,700.3z"
					/>
				<path d="M569.2,659.6c6.2,10.8,4.2,24-4,32.6c0.7,0.3,1.5,0.6,2.2,0.9c8.4-9.2,10.3-23.2,3.7-34.6c-0.9-1.6-2-3-3.1-4.4
					c-0.8,0.2-1.5,0.5-2.2,0.8C567.1,656.3,568.2,657.9,569.2,659.6z"/>
			</g>
			<g>
				<path class="st25" d="M559.8,665.3"/>
			</g>
		</g>
		<g id="Ultralight-S_3_">
			<g>
				<path class="st25" d="M559.8,665.3"/>
			</g>
			<g>
				<path d="M595.5,657.1c6.5,8.5,7.7,20.4,2,30.2c-7.5,13-24.2,17.5-37.3,10c-5.7-3.3-9.7-8.3-11.9-13.9c-0.9-0.3-1.8-0.7-2.7-1
					c2.1,6.9,6.7,13,13.4,16.9c14.1,8.1,32.2,3.3,40.3-10.8c6.5-11.2,4.7-24.9-3.4-34.2C595.9,655.2,595.7,656.2,595.5,657.1z"/>
				<path d="M550.2,660c6.2-10.8,18.7-15.7,30.2-12.8c-0.1-0.8-0.2-1.6-0.3-2.3c-12.2-2.6-25.2,2.7-31.8,14.1
					c-0.9,1.6-1.7,3.2-2.2,4.9c0.6,0.5,1.2,1,1.8,1.5C548.5,663.5,549.2,661.7,550.2,660z"/>
			</g>
			<g>
				<path class="st25" d="M559.8,665.3"/>
			</g>
		</g>
	</g>
</g>
</svg>
