<?xml version="1.0" encoding="utf-8"?>
<!-- Generator: Adobe Illustrator 25.4.1, SVG Export Plug-In . SVG Version: 6.00 Build 0)  -->
<svg version="1.1" id="Layer_1" xmlns="http://www.w3.org/2000/svg" xmlns:xlink="http://www.w3.org/1999/xlink" x="0px" y="0px"
	 viewBox="0 0 3300 2200" style="enable-background:new 0 0 3300 2200;" xml:space="preserve">
<style type="text/css">
	.st0{fill:#FFFFFF;}
	.st1{fill:none;stroke:#000000;stroke-width:0.5;}
	.st2{font-family:'Arial-BoldMT';}
	.st3{font-size:12px;}
	.st4{font-family:'ArialMT';}
	.st5{fill:none;stroke:#00AEEF;stroke-width:0.5;}
	.st6{fill:#27AAE1;}
	.st7{fill:none;stroke:#27AAE1;stroke-width:0.5;}
</style>
<g id="Notes">
	<rect id="artboard" class="st0" width="3300" height="2200"/>
	<line class="st1" x1="263" y1="292" x2="3036" y2="292"/>
	<text transform="matrix(1 0 0 1 263 322)" class="st2 st3">Weight/Scale Variations</text>
	<text transform="matrix(1 0 0 1 536.0362 322)" class="st4 st3">Ultralight</text>
	<text transform="matrix(1 0 0 1 844.7501 322)" class="st4 st3">Thin</text>
	<text transform="matrix(1 0 0 1 1140.1193 322)" class="st4 st3">Light</text>
	<text transform="matrix(1 0 0 1 1428.8282 322)" class="st4 st3">Regular</text>
	<text transform="matrix(1 0 0 1 1725.2202 322)" class="st4 st3">Medium</text>
	<text transform="matrix(1 0 0 1 2018.2563 322)" class="st4 st3">Semibold</text>
	<text transform="matrix(1 0 0 1 2327.9712 322)" class="st4 st3">Bold</text>
	<text transform="matrix(1 0 0 1 2619.6831 322)" class="st4 st3">Heavy</text>
	<text transform="matrix(1 0 0 1 2918.728 322)" class="st4 st3">Black</text>
	<line class="st1" x1="263" y1="1903" x2="3036" y2="1903"/>
	<g transform="matrix(1 0 0 1 263 1933)">
		<path d="M9.2,0.8c4.3,0,7.9-3.6,7.9-7.9S13.5-15,9.2-15s-7.9,3.6-7.9,7.9C1.4-2.7,5,0.8,9.2,0.8z M9.2-0.7c-3.5,0-6.4-2.8-6.4-6.4
			s2.8-6.4,6.4-6.4s6.4,2.8,6.4,6.4C15.7-3.5,12.8-0.7,9.2-0.7z M6.4-6.3h2.1v2.1c0,0.4,0.3,0.7,0.7,0.7s0.7-0.3,0.7-0.7v-2.1H12
			c0.4,0,0.7-0.3,0.7-0.7c0-0.4-0.3-0.7-0.7-0.7h-2v-2.1c0-0.4-0.3-0.8-0.7-0.8s-0.7,0.3-0.7,0.8v2.1H6.4C5.9-7.8,5.6-7.5,5.6-7
			C5.6-6.6,5.9-6.3,6.4-6.3z"/>
	</g>
	<g transform="matrix(1 0 0 1 281.506 1933)">
		<path d="M11.7,2.9c5.4,0,10-4.5,10-10c0-5.4-4.5-10-10-10c-5.4,0-10,4.5-10,10C1.7-1.6,6.3,2.9,11.7,2.9z M11.7,1.2
			c-4.6,0-8.3-3.7-8.3-8.3s3.7-8.3,8.3-8.3S20-11.7,20-7.1C20-2.4,16.3,1.2,11.7,1.2z M8-6.2h2.9v2.9c0,0.5,0.3,0.8,0.8,0.8
			s0.8-0.3,0.8-0.8v-2.9h2.9c0.5,0,0.8-0.3,0.8-0.8s-0.3-0.8-0.8-0.8h-2.9v-2.9c0-0.5-0.3-0.8-0.8-0.8s-0.8,0.3-0.8,0.8v2.9H8
			C7.5-7.9,7.1-7.5,7.1-7C7.1-6.6,7.5-6.2,8-6.2z"/>
	</g>
	<g transform="matrix(1 0 0 1 304.924 1933)">
		<path d="M15,5.7c7,0,12.7-5.8,12.7-12.7c0-7-5.8-12.7-12.7-12.7C8-19.8,2.3-14,2.3-7.1C2.3-0.1,8,5.7,15,5.7z M15,3.8
			C8.9,3.8,4.1-1,4.1-7.1C4.1-13.1,8.9-18,15-18c6,0,10.9,4.9,10.9,10.9C25.9-1,21,3.8,15,3.8z M10.1-6.1h4v4c0,0.5,0.4,0.9,0.9,0.9
			s0.9-0.4,0.9-0.9v-4h4c0.5,0,0.9-0.4,0.9-0.9s-0.4-0.9-0.9-0.9h-4v-4c0-0.6-0.4-0.9-0.9-0.9s-0.9,0.4-0.9,0.9v4h-4
			c-0.6,0-1,0.3-1,0.9C9.1-6.5,9.5-6.1,10.1-6.1z"/>
	</g>
	<text transform="matrix(1 0 0 1 263 1953)" class="st2 st3">Design Variations</text>
	<text transform="matrix(1 0 0 1 263 1971)" class="st4 st3">Symbols are supported in up to nine weights and three scales.</text>
	<text transform="matrix(1 0 0 1 263 1989)" class="st4 st3">For optimal layout with text and other symbols, vertically align</text>
	<text transform="matrix(1 0 0 1 263 2007)" class="st4 st3">symbols with the adjacent text.</text>
	<line class="st5" x1="776" y1="1919" x2="776" y2="1933"/>
	<g transform="matrix(1 0 0 1 776 1933)">
		<path d="M3.3,0.1c0.5,0,0.8-0.2,1-0.7l1.3-3.5h5.8l1.3,3.5c0.2,0.5,0.4,0.7,0.9,0.7s0.8-0.3,0.8-0.8c0-0.2,0-0.3-0.1-0.5L9.7-13.4
			C9.4-14,9-14.3,8.4-14.3s-1,0.3-1.2,0.9L2.6-1.2C2.5-1,2.5-0.8,2.5-0.7C2.5-0.2,2.8,0.1,3.3,0.1z M6-5.5l2.4-6.6l0,0l2.4,6.6
			C10.8-5.5,6-5.5,6-5.5z"/>
	</g>
	<line class="st5" x1="792.8" y1="1919" x2="792.8" y2="1933"/>
	<text transform="matrix(1 0 0 1 776 1953)" class="st2 st3">Margins</text>
	<text transform="matrix(1 0 0 1 776 1971)" class="st4 st3">Leading and trailing margins on the left and right side of each symbol</text>
	<text transform="matrix(1 0 0 1 776 1989)" class="st4 st3">can be adjusted by modifying the x-location of the margin guidelines.</text>
	<text transform="matrix(1 0 0 1 776 2007)" class="st4 st3">Modifications are automatically applied proportionally to all</text>
	<text transform="matrix(1 0 0 1 776 2025)" class="st4 st3">scales and weights.</text>
	<g transform="matrix(1 0 0 1 1289 1933)">
		<path d="M2.8,1.9l1.7,1.7c0.9,0.9,1.8,0.8,2.8-0.2L17.5-7.9c0.3,0.1,0.5,0.1,0.8,0L19.4-8l0.7,0.7v0.6c0,0.5,0.1,0.9,0.6,1.4
			l0.8,0.7c0.5,0.5,1.1,0.5,1.6,0L26-7.5C26.5-8,26.4-8.6,26-9l-1-0.9c-0.5-0.5-0.8-0.6-1.3-0.6h-0.6l-0.6-0.6l0.2-1.1
			c0.1-0.6,0-1-0.6-1.6L19.9-16c-3.3-3.3-7.8-3.2-10.7-0.4C8.8-16,8.8-15.4,9-15s0.7,0.6,1.3,0.4c1.5-0.3,3-0.4,4.4,0.5l-0.6,1.5
			c-0.2,0.5-0.2,0.9-0.1,1.2L3-0.9C2.1,0,2,1,2.8,1.9z M10.8-16c2.4-1.8,5.7-1.5,7.9,0.8l2.4,2.4c0.2,0.2,0.3,0.4,0.2,0.8L21-10.5
			L22.5-9l1-0.1c0.3,0,0.3,0,0.5,0.2l0.6,0.6l-2.4,2.4l-0.6-0.6c-0.2-0.2-0.2-0.3-0.2-0.5l0.1-1L20-9.5l-1.5,0.3
			c-0.3,0.1-0.5,0-0.7-0.2l-2-2c-0.3-0.2-0.3-0.4-0.1-0.8l0.9-2.1C15-15.8,13-16.4,11-15.8C10.7-15.7,10.6-15.8,10.8-16z M5.3,2.3
			L4.1,1.1C3.6,0.7,3.7,0.3,4.1,0L15-10.2l1.5,1.5l-10,11C6.1,2.7,5.7,2.8,5.3,2.3z"/>
	</g>
	<text transform="matrix(1 0 0 1 1289 1953)" class="st2 st3">Exporting</text>
	<text transform="matrix(1 0 0 1 1289 1971)" class="st4 st3">Symbols should be outlined when exporting to ensure the</text>
	<text transform="matrix(1 0 0 1 1289 1989)" class="st4 st3">design is preserved when submitting to Xcode.</text>
	<text id="template-version" transform="matrix(1 0 0 1 2958.8496 1933)" class="st4 st3">Template v.2.0</text>
	<text transform="matrix(1 0 0 1 2878.5762 1951)" class="st4 st3">Requires Xcode 12 or greater</text>
	<text transform="matrix(1 0 0 1 2887.9336 1969)" class="st4 st3">Generated from folder.circle</text>
	<text transform="matrix(1 0 0 1 2921.9238 1987)" class="st4 st3">Typeset at 100 points</text>
	<text transform="matrix(1 0 0 1 263 726)" class="st4 st3">Small</text>
	<text transform="matrix(1 0 0 1 263 1156)" class="st4 st3">Medium</text>
	<text transform="matrix(1 0 0 1 263 1586)" class="st4 st3">Large</text>
</g>
<g id="Guides">
	<g id="H-reference" transform="matrix(1 0 0 1 339 696)">
		<path class="st6" d="M1,0h2.7L13-24.5h32.8L55.1,0h2.6L30.6-70.5h-2.5L1,0z M29.3-67.1L29.3-67.1l15.5,40.4h-31L29.3-67.1z"/>
	</g>
	<line id="Baseline-S" class="st7" x1="263" y1="696" x2="3036" y2="696"/>
	<line id="Capline-S" class="st7" x1="263" y1="625.5" x2="3036" y2="625.5"/>
	<g id="H-reference_1_" transform="matrix(1 0 0 1 339 1126)">
		<path class="st6" d="M1,0h2.7L13-24.5h32.8L55.1,0h2.6L30.6-70.5h-2.5L1,0z M29.3-67.1L29.3-67.1l15.5,40.4h-31L29.3-67.1z"/>
	</g>
	<line id="Baseline-M" class="st7" x1="263" y1="1126" x2="3036" y2="1126"/>
	<line id="Capline-M" class="st7" x1="263" y1="1055.5" x2="3036" y2="1055.5"/>
	<g id="H-reference_2_" transform="matrix(1 0 0 1 339 1556)">
		<path class="st6" d="M1,0h2.7L13-24.5h32.8L55.1,0h2.6L30.6-70.5h-2.5L1,0z M29.3-67.1L29.3-67.1l15.5,40.4h-31L29.3-67.1z"/>
	</g>
	<line id="Baseline-L" class="st7" x1="263" y1="1556" x2="3036" y2="1556"/>
	<line id="Capline-L" class="st7" x1="263" y1="1485.5" x2="3036" y2="1485.5"/>
	<line id="left-margin" class="st5" x1="1389.3" y1="1030.8" x2="1389.3" y2="1150.1"/>
	<line id="right-margin" class="st5" x1="1510.4" y1="1030.8" x2="1510.4" y2="1150.1"/>
</g>
<g id="Symbols">
	<g id="Heavy-M" transform="matrix(1 0 0 1 2575.19 1126)">
		<path d="M61.5,22.8c31.9,0,58-26.1,58-58c0-32-26.1-58.1-58.1-58.1c-31.9,0-58,26.1-58,58.1C3.4-3.3,29.6,22.8,61.5,22.8z
			 M61.5,5.3c-22.4,0-40.6-18.1-40.6-40.5c0-22.4,18.1-40.6,40.5-40.6c22.4,0,40.6,18.1,40.6,40.6S83.9,5.3,61.5,5.3z"/>
		<path d="M45.9-15.4c7.4,0,13.8-4.1,17.8-11.6l5.1,5.1c1.4,1.4,3.7,1.4,5.3,0l5.7-5.6l3.7,3.6c1.4,1.4,3.7,1.5,5.3,0l8.7-8.7
			c1.3-1.3,1.2-3.3,0.2-4.4L93-42.3c-0.9-1-2.2-1.3-3.4-1.3H63.7c-3.3-6.9-10.2-11.2-17.9-11.2c-10.9,0-19.7,8.8-19.7,19.8
			C26.1-24.3,34.9-15.4,45.9-15.4z M38-30.5c-2.6,0-4.7-2.1-4.7-4.7c0-2.6,2.1-4.7,4.7-4.7s4.7,2.1,4.7,4.7
			C42.7-32.7,40.6-30.5,38-30.5z"/>
	</g>
	<g id="Black-M" transform="matrix(1 0 0 1 2870.97 1126)">
		<path d="M62.4,23.9c32.6,0,59.1-26.5,59.1-59.1S95-94.3,62.4-94.3S3.3-67.8,3.3-35.2S29.8,23.9,62.4,23.9z M62.4,3.7
			C41,3.7,23.5-13.6,23.5-35.2c0-21.5,17.5-38.9,38.9-38.9c21.6,0,38.9,17.5,38.9,38.9C101.3-13.6,84,3.7,62.4,3.7z"/>
		<g id="Black-M_1_" transform="matrix(1 0 0 1 2885.4 1126)">
			<path d="M-2838.1-1142.4c6.9,0,13-3.6,16.8-10.3l4.1,4c1.6,1.7,4.3,1.7,5.9,0l4.8-4.8l3,3c1.6,1.7,4.3,1.7,5.9,0l8.1-8.1
				c1.4-1.4,1.3-3.6,0.2-4.9l-4.5-5.4c-0.9-1.1-2.4-1.4-3.6-1.4h-23.4c-3.3-6.5-9.9-10.6-17.3-10.6c-10.7,0-19.2,8.6-19.2,19.2
				C-2857.3-1151-2848.7-1142.4-2838.1-1142.4z M-2846.2-1157.2c-2.4,0-4.4-2-4.4-4.4c0-2.4,2-4.4,4.4-4.4s4.4,2,4.4,4.4
				C-2841.7-1159.2-2843.8-1157.2-2846.2-1157.2z"/>
		</g>
	</g>
	<g id="Bold-M" transform="matrix(1 0 0 1 2279.5 1126)">
		<path d="M60.5,21.7c31.2,0,56.9-25.6,56.9-56.9s-25.6-57-57-57S3.5-66.4,3.5-35.2S29.3,21.7,60.5,21.7z M60.5,7
			C37.1,7,18.3-11.8,18.3-35.2s18.8-42.3,42.2-42.3s42.4,18.8,42.4,42.3C102.9-11.8,83.9,7,60.5,7z M43.7-15.7
			c7.7,0,14.3-4.5,18.3-12.5l6,6c1.2,1.2,3.1,1.2,4.2,0.1l6.6-6.5l4.4,4.4c1.2,1.2,3.1,1.2,4.3,0l9-9c1.1-1.1,1-2.8,0.1-3.7l-5-5.3
			c-0.8-0.9-1.9-1.2-3-1.2h-27c-3.2-7.2-10.1-11.7-18-11.7C32.8-55.1,24-46.3,24-35.4S32.8-15.7,43.7-15.7z M36.4-30.5
			c-2.8,0-4.9-2.2-4.9-5s2.2-5,4.9-5s5,2.2,5,5S39.1-30.5,36.4-30.5z"/>
	</g>
	<g id="Semibold-M" transform="matrix(1 0 0 1 1983.5 1126)">
		<path d="M59.8,20.9c30.8,0,56.1-25.4,56.1-56.2S90.5-91.4,59.8-91.4C29-91.4,3.7-66.1,3.7-35.3S29,20.9,59.8,20.9z M59.8,8.3
			c-24.1,0-43.5-19.5-43.5-43.6s19.2-43.6,43.5-43.6c24.1,0,43.6,19.4,43.6,43.6C103.4-11.1,83.9,8.3,59.8,8.3z M42.5-15.5
			c8.1,0,15.1-4.8,18.9-13.6l7,6.9c1,1.1,2.6,1,3.6,0.1l7.3-7.3l5.1,5.1c1,1,2.5,1.1,3.6,0l9.5-9.5c1-1,0.8-2.4,0.1-3.2l-5.1-5.4
			c-0.8-0.8-1.7-1.1-2.6-1.1H61c-3.2-7.5-10.5-12.2-18.6-12.2c-11.1,0-20,8.9-20,20.1C22.4-24.5,31.4-15.5,42.5-15.5z M35.4-30.4
			c-2.9,0-5.3-2.3-5.3-5.3s2.3-5.3,5.3-5.3s5.3,2.3,5.3,5.3S38.2-30.4,35.4-30.4z"/>
	</g>
	<g id="Medium-M" transform="matrix(1 0 0 1 1687.3 1126)">
		<path d="M59.2,20.2c30.5,0,55.5-25.2,55.5-55.5S89.7-90.7,59.2-90.7c-30.4,0-55.4,25.2-55.4,55.5S28.8,20.2,59.2,20.2z M59.2,9.2
			c-24.6,0-44.3-19.8-44.3-44.4s19.7-44.4,44.3-44.4s44.4,19.8,44.5,44.4C103.7-10.6,83.8,9.2,59.2,9.2z"/>
		<path d="M41.5-16.1c8.1,0,15.1-5,18.8-14l7.5,7.5c0.9,0.9,2.1,0.9,3,0.1l7.6-7.6l5.4,5.5c0.9,0.9,2.1,0.9,3,0l9.5-9.5
			c0.9-0.9,0.7-2.1,0-2.8L91.1-42c-0.7-0.7-1.4-0.9-2.3-0.9h-29c-3-7.5-10.1-12.3-18.3-12.3c-10.9,0-19.7,8.7-19.7,19.7
			C21.8-24.7,30.6-16.1,41.5-16.1z M34.8-30.4c-3,0-5.3-2.4-5.3-5.3c0-3,2.3-5.3,5.3-5.3s5.3,2.4,5.3,5.3
			C40.2-32.8,37.7-30.4,34.8-30.4z"/>
	</g>
	<g id="Regular-M" transform="matrix(1 0 0 1 1391.3 1126)">
		<path d="M58.5-81.5c25.5,0,46.2,20.7,46.2,46.2S84,10.9,58.5,10.9S12.3-9.8,12.3-35.3S33.1-81.5,58.5-81.5 M58.5-90.3
			c-30.4,0-55,24.6-55,55s24.6,55,55,55s55-24.6,55-55S89-90.3,58.5-90.3L58.5-90.3z M39.8-15.2c8.6,0,15.8-5.4,19.7-15.2L68-22
			c0.7,0.7,1.7,0.7,2.2,0.1l8.5-8.5l6.2,6.2c0.7,0.7,1.5,0.7,2.3,0l10-10c0.7-0.7,0.5-1.8,0-2.3l-5.5-5.1c-0.6-0.5-1.2-0.8-2-0.8
			h-31c-3-7.9-10.4-12.9-18.8-12.9c-11.1,0-20,8.9-20,20.1C19.7-24.1,28.7-15.2,39.8-15.2z M33.3-29.6c-3.1,0-5.6-2.5-5.6-5.6
			c0-3.2,2.5-5.6,5.6-5.6s5.6,2.5,5.6,5.6C38.9-32.1,36.5-29.6,33.3-29.6z"/>
	</g>
	<g id="Light-M" transform="matrix(1 0 0 1 1095.42 1126)">
		<path d="M57.7,18.6c29.5,0,53.9-24.4,53.9-53.9c0-29.6-24.4-53.9-53.9-53.9S3.9-64.9,3.9-35.3C3.8-5.7,28.2,18.6,57.7,18.6z
			 M57.7,11.7c-26,0-46.9-20.9-46.9-46.9s20.9-47,46.9-47s47,20.9,47,47C104.7-9.3,83.7,11.7,57.7,11.7z M38.4-14.6
			c8.7,0,16-5.5,19.8-15.5l8.8,8.8c0.7,0.7,1.4,0.7,2,0.1l8.7-8.7l6.4,6.4c0.5,0.6,1.3,0.6,2,0l10-10c0.7-0.7,0.4-1.5,0-2l-5.3-5.3
			c-0.6-0.5-1.2-0.8-1.9-0.8H57.3c-2.9-8.1-10.3-13.2-18.8-13.2c-11.2,0-20.1,8.9-20.1,20S27.3-14.6,38.4-14.6z M32.2-29.1
			c-3.1,0-5.6-2.5-5.6-5.6s2.5-5.6,5.6-5.6s5.6,2.5,5.6,5.6S35.3-29.1,32.2-29.1z"/>
	</g>
	<g id="Thin-M" transform="matrix(1 0 0 1 799.806 1126)">
		<path d="M56.6,17.4c28.9,0,52.7-23.8,52.7-52.7S85.5-88,56.6-88S3.9-64.2,3.9-35.3S27.7,17.4,56.6,17.4z M56.6,13.3
			C29.8,13.3,8-8.5,8-35.2s21.8-48.6,48.5-48.6c26.8,0,48.6,21.8,48.6,48.6S83.4,13.3,56.6,13.3z M37.8-15.7
			c8.7,0,15.7-5.5,19.5-15.5l9,8.9c0.4,0.4,1.1,0.4,1.5,0.1l8.8-8.8l6.5,6.5c0.4,0.4,1.1,0.4,1.5,0l9.9-9.9c0.5-0.5,0.4-1.2,0-1.8
			l-5.2-5.2c-0.6-0.5-1.1-0.7-1.7-0.7H56.3c-2.9-7.8-10.1-12.9-18.5-12.9c-10.8,0-19.5,8.7-19.5,19.6S27-15.7,37.8-15.7z M32-29.8
			c-3,0-5.4-2.4-5.4-5.5s2.4-5.4,5.4-5.4c3.1,0,5.5,2.4,5.5,5.4S35-29.8,32-29.8z"/>
	</g>
	<g id="Ultralight-M" transform="matrix(1 0 0 1 503.656 1126)">
		<path d="M56.1,16.8c28.6,0,52-23.4,52-52s-23.4-52.1-52-52.1S4-63.9,4-35.3S27.4,16.8,56.1,16.8z M56.1,14.2
			C28.8,14.2,6.7-8,6.7-35.2c0-27.3,22.2-49.4,49.4-49.4c27.3,0,49.4,22.1,49.4,49.4C105.5-8,83.4,14.2,56.1,14.2z"/>
		<path d="M37.2-15.7c8.7,0,15.8-5.6,19.5-15.7l9.2,9.1c0.4,0.4,1,0.4,1.3,0.1l8.9-9l6.6,6.6c0.4,0.4,0.9,0.4,1.3,0l9.9-9.9
			c0.6-0.4,0.4-1.1,0-1.5l-5.2-5.2c-0.4-0.4-1.1-0.7-1.5-0.7H55.7c-2.9-7.7-10.1-12.9-18.5-12.9c-10.8,0-19.5,8.7-19.5,19.5
			C17.8-24.4,26.4-15.7,37.2-15.7z M31.5-29.8c-3,0-5.4-2.4-5.4-5.4c0-3.1,2.4-5.4,5.4-5.4c3,0,5.4,2.4,5.4,5.4
			C37-32.2,34.4-29.8,31.5-29.8z"/>
	</g>
</g>
</svg>
