<?xml version="1.0" encoding="utf-8"?>
<!-- Generator: Adobe Illustrator 25.1.0, SVG Export Plug-In . SVG Version: 6.00 Build 0)  -->
<svg version="1.1" id="Layer_1" xmlns="http://www.w3.org/2000/svg" xmlns:xlink="http://www.w3.org/1999/xlink" x="0px" y="0px"
	 viewBox="0 0 3300 2200" style="enable-background:new 0 0 3300 2200;" xml:space="preserve">
<style type="text/css">
	.st0{fill:#FFFFFF;}
	.st1{fill:none;stroke:#000000;stroke-width:0.5;}
	.st2{font-family:'Arial-BoldMT';}
	.st3{font-size:12px;}
	.st4{font-family:'ArialMT';}
	.st5{fill:none;stroke:#00AEEF;stroke-width:0.5;}
	.st6{fill:#27AAE1;}
	.st7{fill:none;stroke:#27AAE1;stroke-width:0.5;}
</style>
<g id="Notes">
	<rect id="artboard" class="st0" width="3300" height="2200"/>
	<line class="st1" x1="263" y1="292" x2="3036" y2="292"/>
	<text transform="matrix(1 0 0 1 263 322)" class="st2 st3">Weight/Scale Variations</text>
	<text transform="matrix(1 0 0 1 536.0362 322)" class="st4 st3">Ultralight</text>
	<text transform="matrix(1 0 0 1 844.7501 322)" class="st4 st3">Thin</text>
	<text transform="matrix(1 0 0 1 1140.1193 322)" class="st4 st3">Light</text>
	<text transform="matrix(1 0 0 1 1428.8282 322)" class="st4 st3">Regular</text>
	<text transform="matrix(1 0 0 1 1725.2202 322)" class="st4 st3">Medium</text>
	<text transform="matrix(1 0 0 1 2018.2563 322)" class="st4 st3">Semibold</text>
	<text transform="matrix(1 0 0 1 2327.9712 322)" class="st4 st3">Bold</text>
	<text transform="matrix(1 0 0 1 2619.6831 322)" class="st4 st3">Heavy</text>
	<text transform="matrix(1 0 0 1 2918.728 322)" class="st4 st3">Black</text>
	<line class="st1" x1="263" y1="1903" x2="3036" y2="1903"/>
	<g transform="matrix(1 0 0 1 263 1933)">
		<path d="M9.2,0.8c4.3,0,7.9-3.6,7.9-7.9S13.5-15,9.2-15s-7.9,3.6-7.9,7.9C1.4-2.7,5,0.8,9.2,0.8z M9.2-0.7c-3.5,0-6.4-2.8-6.4-6.4
			s2.8-6.4,6.4-6.4s6.4,2.8,6.4,6.4C15.7-3.5,12.8-0.7,9.2-0.7z M6.4-6.3h2.1v2.1c0,0.4,0.3,0.7,0.7,0.7s0.7-0.3,0.7-0.7v-2.1H12
			c0.4,0,0.7-0.3,0.7-0.7c0-0.4-0.3-0.7-0.7-0.7h-2v-2.1c0-0.4-0.3-0.8-0.7-0.8s-0.7,0.3-0.7,0.8v2.1H6.4C5.9-7.8,5.6-7.5,5.6-7
			C5.6-6.6,5.9-6.3,6.4-6.3z"/>
	</g>
	<g transform="matrix(1 0 0 1 281.506 1933)">
		<path d="M11.7,2.9c5.4,0,10-4.5,10-10c0-5.4-4.5-10-10-10c-5.4,0-10,4.5-10,10C1.7-1.6,6.3,2.9,11.7,2.9z M11.7,1.2
			c-4.6,0-8.3-3.7-8.3-8.3s3.7-8.3,8.3-8.3S20-11.7,20-7.1C20-2.4,16.3,1.2,11.7,1.2z M8-6.2h2.9v2.9c0,0.5,0.3,0.8,0.8,0.8
			s0.8-0.3,0.8-0.8v-2.9h2.9c0.5,0,0.8-0.3,0.8-0.8s-0.3-0.8-0.8-0.8h-2.9v-2.9c0-0.5-0.3-0.8-0.8-0.8s-0.8,0.3-0.8,0.8v2.9H8
			C7.5-7.9,7.1-7.5,7.1-7C7.1-6.6,7.5-6.2,8-6.2z"/>
	</g>
	<g transform="matrix(1 0 0 1 304.924 1933)">
		<path d="M15,5.7c7,0,12.7-5.8,12.7-12.7c0-7-5.8-12.7-12.7-12.7C8-19.8,2.3-14,2.3-7.1C2.3-0.1,8,5.7,15,5.7z M15,3.8
			C8.9,3.8,4.1-1,4.1-7.1C4.1-13.1,8.9-18,15-18c6,0,10.9,4.9,10.9,10.9C25.9-1,21,3.8,15,3.8z M10.1-6.1h4v4c0,0.5,0.4,0.9,0.9,0.9
			s0.9-0.4,0.9-0.9v-4h4c0.5,0,0.9-0.4,0.9-0.9s-0.4-0.9-0.9-0.9h-4v-4c0-0.6-0.4-0.9-0.9-0.9s-0.9,0.4-0.9,0.9v4h-4
			c-0.6,0-1,0.3-1,0.9C9.1-6.5,9.5-6.1,10.1-6.1z"/>
	</g>
	<text transform="matrix(1 0 0 1 263 1953)" class="st2 st3">Design Variations</text>
	<text transform="matrix(1 0 0 1 263 1971)" class="st4 st3">Symbols are supported in up to nine weights and three scales.</text>
	<text transform="matrix(1 0 0 1 263 1989)" class="st4 st3">For optimal layout with text and other symbols, vertically align</text>
	<text transform="matrix(1 0 0 1 263 2007)" class="st4 st3">symbols with the adjacent text.</text>
	<line class="st5" x1="776" y1="1919" x2="776" y2="1933"/>
	<g transform="matrix(1 0 0 1 776 1933)">
		<path d="M3.3,0.1c0.5,0,0.8-0.2,1-0.7l1.3-3.5h5.8l1.3,3.5c0.2,0.5,0.4,0.7,0.9,0.7s0.8-0.3,0.8-0.8c0-0.2,0-0.3-0.1-0.5L9.7-13.4
			C9.4-14,9-14.3,8.4-14.3s-1,0.3-1.2,0.9L2.6-1.2C2.5-1,2.5-0.8,2.5-0.7C2.5-0.2,2.8,0.1,3.3,0.1z M6-5.5l2.4-6.6l0,0l2.4,6.6
			C10.8-5.5,6-5.5,6-5.5z"/>
	</g>
	<line class="st5" x1="792.8" y1="1919" x2="792.8" y2="1933"/>
	<text transform="matrix(1 0 0 1 776 1953)" class="st2 st3">Margins</text>
	<text transform="matrix(1 0 0 1 776 1971)" class="st4 st3">Leading and trailing margins on the left and right side of each symbol</text>
	<text transform="matrix(1 0 0 1 776 1989)" class="st4 st3">can be adjusted by modifying the x-location of the margin guidelines.</text>
	<text transform="matrix(1 0 0 1 776 2007)" class="st4 st3">Modifications are automatically applied proportionally to all</text>
	<text transform="matrix(1 0 0 1 776 2025)" class="st4 st3">scales and weights.</text>
	<g transform="matrix(1 0 0 1 1289 1933)">
		<path d="M2.8,1.9l1.7,1.7c0.9,0.9,1.8,0.8,2.8-0.2L17.5-7.9c0.3,0.1,0.5,0.1,0.8,0L19.4-8l0.7,0.7v0.6c0,0.5,0.1,0.9,0.6,1.4
			l0.8,0.7c0.5,0.5,1.1,0.5,1.6,0L26-7.5C26.5-8,26.4-8.6,26-9l-1-0.9c-0.5-0.5-0.8-0.6-1.3-0.6h-0.6l-0.6-0.6l0.2-1.1
			c0.1-0.6,0-1-0.6-1.6L19.9-16c-3.3-3.3-7.8-3.2-10.7-0.4C8.8-16,8.8-15.4,9-15s0.7,0.6,1.3,0.4c1.5-0.3,3-0.4,4.4,0.5l-0.6,1.5
			c-0.2,0.5-0.2,0.9-0.1,1.2L3-0.9C2.1,0,2,1,2.8,1.9z M10.8-16c2.4-1.8,5.7-1.5,7.9,0.8l2.4,2.4c0.2,0.2,0.3,0.4,0.2,0.8L21-10.5
			L22.5-9l1-0.1c0.3,0,0.3,0,0.5,0.2l0.6,0.6l-2.4,2.4l-0.6-0.6c-0.2-0.2-0.2-0.3-0.2-0.5l0.1-1L20-9.5l-1.5,0.3
			c-0.3,0.1-0.5,0-0.7-0.2l-2-2c-0.3-0.2-0.3-0.4-0.1-0.8l0.9-2.1C15-15.8,13-16.4,11-15.8C10.7-15.7,10.6-15.8,10.8-16z M5.3,2.3
			L4.1,1.1C3.6,0.7,3.7,0.3,4.1,0L15-10.2l1.5,1.5l-10,11C6.1,2.7,5.7,2.8,5.3,2.3z"/>
	</g>
	<text transform="matrix(1 0 0 1 1289 1953)" class="st2 st3">Exporting</text>
	<text transform="matrix(1 0 0 1 1289 1971)" class="st4 st3">Symbols should be outlined when exporting to ensure the</text>
	<text transform="matrix(1 0 0 1 1289 1989)" class="st4 st3">design is preserved when submitting to Xcode.</text>
	<text id="template-version" transform="matrix(1 0 0 1 2958.8496 1933)" class="st4 st3">Template v.2.0</text>
	<text transform="matrix(1 0 0 1 2878.5762 1951)" class="st4 st3">Requires Xcode 12 or greater</text>
	<text transform="matrix(1 0 0 1 2887.9336 1969)" class="st4 st3">Generated from folder.circle</text>
	<text transform="matrix(1 0 0 1 2921.9238 1987)" class="st4 st3">Typeset at 100 points</text>
	<text transform="matrix(1 0 0 1 263 726)" class="st4 st3">Small</text>
	<text transform="matrix(1 0 0 1 263 1156)" class="st4 st3">Medium</text>
	<text transform="matrix(1 0 0 1 263 1586)" class="st4 st3">Large</text>
</g>
<g id="Guides">
	<g id="H-reference" transform="matrix(1 0 0 1 339 696)">
		<path class="st6" d="M1,0h2.7L13-24.5h32.8L55.1,0h2.6L30.6-70.5h-2.5L1,0z M29.3-67.1L29.3-67.1l15.5,40.4h-31L29.3-67.1z"/>
	</g>
	<line id="Baseline-S" class="st7" x1="263" y1="696" x2="3036" y2="696"/>
	<line id="Capline-S" class="st7" x1="263" y1="625.5" x2="3036" y2="625.5"/>
	<g id="H-reference_1_" transform="matrix(1 0 0 1 339 1126)">
		<path class="st6" d="M1,0h2.7L13-24.5h32.8L55.1,0h2.6L30.6-70.5h-2.5L1,0z M29.3-67.1L29.3-67.1l15.5,40.4h-31L29.3-67.1z"/>
	</g>
	<line id="Baseline-M" class="st7" x1="263" y1="1126" x2="3036" y2="1126"/>
	<line id="Capline-M" class="st7" x1="263" y1="1055.5" x2="3036" y2="1055.5"/>
	<g id="H-reference_2_" transform="matrix(1 0 0 1 339 1556)">
		<path class="st6" d="M1,0h2.7L13-24.5h32.8L55.1,0h2.6L30.6-70.5h-2.5L1,0z M29.3-67.1L29.3-67.1l15.5,40.4h-31L29.3-67.1z"/>
	</g>
	<line id="Baseline-L" class="st7" x1="263" y1="1556" x2="3036" y2="1556"/>
	<line id="Capline-L" class="st7" x1="263" y1="1485.5" x2="3036" y2="1485.5"/>
	<line id="left-margin" class="st5" x1="1391.3" y1="1030.8" x2="1391.3" y2="1150.1"/>
	<line id="right-margin" class="st5" x1="1508.4" y1="1030.8" x2="1508.4" y2="1150.1"/>
</g>
<g id="Symbols">
	<g id="Heavy-M" transform="matrix(1 0 0 1 2575.19 1126)">
		<path d="M61.5,17.5c29,0,52.7-23.7,52.7-52.7c0-29.1-23.7-52.8-52.8-52.8c-29,0-52.7,23.7-52.7,52.8C8.7-6.2,32.5,17.5,61.5,17.5z
			 M61.5,1.6c-20.4,0-36.9-16.5-36.9-36.8c0-20.4,16.5-36.9,36.8-36.9c20.4,0,36.9,16.5,36.9,36.9S81.9,1.6,61.5,1.6z"/>
		<path d="M47.3-17.2c6.7,0,12.5-3.7,16.2-10.5l4.6,4.6c1.3,1.3,3.4,1.3,4.8,0l5.2-5.1l3.4,3.3c1.3,1.3,3.4,1.4,4.8,0l7.9-7.9
			c1.2-1.2,1.1-3,0.2-4l-4.3-4.9c-0.8-0.9-2-1.2-3.1-1.2H63.5c-3-6.3-9.3-10.2-16.3-10.2c-9.9,0-17.9,8-17.9,18
			C29.3-25.3,37.3-17.2,47.3-17.2z M40.1-30.9c-2.4,0-4.3-1.9-4.3-4.3s1.9-4.3,4.3-4.3c2.4,0,4.3,1.9,4.3,4.3
			C44.4-32.9,42.5-30.9,40.1-30.9z"/>
	</g>
	<g id="Black-M" transform="matrix(1 0 0 1 2870.97 1126)">
		<path d="M62.4,18.5c29.6,0,53.7-24.1,53.7-53.7S92-88.9,62.4-88.9S8.7-64.8,8.7-35.2C8.7-5.6,32.8,18.5,62.4,18.5z M62.4,0.2
			C42.9,0.2,27-15.6,27-35.2c0-19.5,15.9-35.4,35.4-35.4c19.6,0,35.4,15.9,35.4,35.4C97.8-15.6,82,0.2,62.4,0.2z"/>
		<g id="Black-M_1_" transform="matrix(1 0 0 1 2885.4 1126)">
			<path d="M-2836.7-1144.1c6.3,0,11.8-3.3,15.3-9.4l3.7,3.6c1.5,1.5,3.9,1.5,5.4,0l4.4-4.4l2.7,2.7c1.5,1.5,3.9,1.5,5.4,0l7.4-7.4
				c1.3-1.3,1.2-3.3,0.2-4.5l-4.1-4.9c-0.8-1-2.2-1.3-3.3-1.3h-21.3c-3-5.9-9-9.6-15.7-9.6c-9.7,0-17.5,7.8-17.5,17.5
				C-2854.2-1151.9-2846.4-1144.1-2836.7-1144.1z M-2844.1-1157.6c-2.2,0-4-1.8-4-4s1.8-4,4-4s4,1.8,4,4
				C-2840-1159.4-2841.9-1157.6-2844.1-1157.6z"/>
		</g>
	</g>
	<g id="Bold-M" transform="matrix(1 0 0 1 2279.5 1126)">
		<path d="M60.5,16.5c28.4,0,51.7-23.3,51.7-51.7S88.9-87,60.4-87S8.7-63.6,8.7-35.2S32.1,16.5,60.5,16.5z M60.5,3.2
			c-21.3,0-38.4-17.1-38.4-38.4s17.1-38.5,38.4-38.5S99-56.6,99-35.2C99-13.9,81.8,3.2,60.5,3.2z M45.2-17.5c7,0,13-4.1,16.6-11.4
			l5.5,5.5c1.1,1.1,2.8,1.1,3.8,0.1l6-5.9l4,4c1.1,1.1,2.8,1.1,3.9,0l8.2-8.2c1-1,0.9-2.5,0.1-3.4l-4.5-4.8
			c-0.7-0.8-1.7-1.1-2.7-1.1H61.6c-2.9-6.5-9.2-10.6-16.4-10.6c-9.9,0-17.9,8-17.9,17.9S35.3-17.5,45.2-17.5z M38.6-30.9
			c-2.5,0-4.5-2-4.5-4.5s2-4.5,4.5-4.5s4.5,2,4.5,4.5S41-30.9,38.6-30.9z"/>
	</g>
	<g id="Semibold-M" transform="matrix(1 0 0 1 1983.5 1126)">
		<path d="M59.8,15.8c28,0,51-23.1,51-51.1s-23.1-51-51-51c-28,0-51,23-51,51S31.8,15.8,59.8,15.8z M59.8,4.3
			c-21.9,0-39.5-17.7-39.5-39.6s17.5-39.6,39.5-39.6c21.9,0,39.6,17.6,39.6,39.6C99.4-13.3,81.7,4.3,59.8,4.3z M44.1-17.3
			c7.4,0,13.7-4.4,17.2-12.4l6.4,6.3c0.9,1,2.4,0.9,3.3,0.1l6.6-6.6l4.6,4.6c0.9,0.9,2.3,1,3.3,0l8.6-8.6c0.9-0.9,0.7-2.2,0.1-2.9
			l-4.6-4.9c-0.7-0.7-1.5-1-2.4-1H60.9C58-49.5,51.4-53.8,44-53.8c-10.1,0-18.2,8.1-18.2,18.3C25.8-25.5,34-17.3,44.1-17.3z
			 M37.6-30.8c-2.6,0-4.8-2.1-4.8-4.8s2.1-4.8,4.8-4.8s4.8,2.1,4.8,4.8S40.2-30.8,37.6-30.8z"/>
	</g>
	<g id="Medium-M" transform="matrix(1 0 0 1 1687.3 1126)">
		<path d="M59.2,15.2c27.7,0,50.5-22.9,50.5-50.5S86.9-85.7,59.2-85.7c-27.6,0-50.4,22.9-50.4,50.5S31.6,15.2,59.2,15.2z M59.2,5.2
			c-22.4,0-40.3-18-40.3-40.4s17.9-40.4,40.3-40.4s40.4,18,40.5,40.4C99.7-12.8,81.6,5.2,59.2,5.2z"/>
		<path d="M43.1-17.8c7.4,0,13.7-4.5,17.1-12.7l6.8,6.8c0.8,0.8,1.9,0.8,2.7,0.1l6.9-6.9l4.9,5c0.8,0.8,1.9,0.8,2.7,0l8.6-8.6
			c0.8-0.8,0.6-1.9,0-2.5l-4.6-4.8c-0.6-0.6-1.3-0.8-2.1-0.8H59.7C57-49,50.5-53.4,43.1-53.4c-9.9,0-17.9,7.9-17.9,17.9
			C25.2-25.7,33.2-17.8,43.1-17.8z M37-30.8c-2.7,0-4.8-2.2-4.8-4.8c0-2.7,2.1-4.8,4.8-4.8s4.8,2.2,4.8,4.8
			C41.9-33,39.7-30.8,37-30.8z"/>
	</g>
	<g id="Regular-M" transform="matrix(1 0 0 1 1391.3 1126)">
		<path d="M58.5-77.3c23.2,0,42,18.8,42,42s-18.8,42-42,42s-42-18.8-42-42S35.4-77.3,58.5-77.3 M58.5-85.3c-27.6,0-50,22.4-50,50
			s22.4,50,50,50s50-22.4,50-50S86.2-85.3,58.5-85.3L58.5-85.3z M41.5-17c7.8,0,14.4-4.9,17.9-13.8l7.7,7.6c0.6,0.6,1.5,0.6,2,0.1
			l7.7-7.7l5.6,5.6c0.6,0.6,1.4,0.6,2.1,0l9.1-9.1c0.6-0.6,0.5-1.6,0-2.1l-5-4.6c-0.5-0.5-1.1-0.7-1.8-0.7H58.6
			c-2.7-7.2-9.5-11.7-17.1-11.7c-10.1,0-18.2,8.1-18.2,18.3C23.2-25.1,31.4-17,41.5-17z M35.6-30.1c-2.8,0-5.1-2.3-5.1-5.1
			c0-2.9,2.3-5.1,5.1-5.1s5.1,2.3,5.1,5.1C40.7-32.4,38.5-30.1,35.6-30.1z"/>
	</g>
	<g id="Light-M" transform="matrix(1 0 0 1 1095.42 1126)">
		<path d="M57.7,13.7c26.8,0,49-22.2,49-49c0-26.9-22.2-49-49-49S8.8-62.2,8.8-35.3C8.7-8.4,30.9,13.7,57.7,13.7z M57.7,7.4
			c-23.6,0-42.6-19-42.6-42.6s19-42.7,42.6-42.7s42.7,19,42.7,42.7C100.4-11.7,81.3,7.4,57.7,7.4z M40.2-16.5c7.9,0,14.5-5,18-14.1
			l8,8c0.6,0.6,1.3,0.6,1.8,0.1l7.9-7.9l5.8,5.8c0.5,0.5,1.2,0.5,1.8,0l9.1-9.1c0.6-0.6,0.4-1.4,0-1.8l-4.8-4.8
			c-0.5-0.5-1.1-0.7-1.7-0.7H57.3c-2.6-7.4-9.4-12-17.1-12C30-53,21.9-44.9,21.9-34.8S30.1-16.5,40.2-16.5z M34.5-29.7
			c-2.8,0-5.1-2.3-5.1-5.1s2.3-5.1,5.1-5.1s5.1,2.3,5.1,5.1S37.3-29.7,34.5-29.7z"/>
	</g>
	<g id="Thin-M" transform="matrix(1 0 0 1 799.806 1126)">
		<path d="M56.6,12.6c26.3,0,47.9-21.6,47.9-47.9S82.9-83.2,56.6-83.2S8.7-61.6,8.7-35.3C8.7-9,30.3,12.6,56.6,12.6z M56.6,8.9
			c-24.4,0-44.2-19.8-44.2-44.1s19.8-44.2,44.1-44.2c24.4,0,44.2,19.8,44.2,44.2S81,8.9,56.6,8.9z M39.5-17.5
			c7.9,0,14.3-5,17.7-14.1l8.2,8.1c0.4,0.4,1,0.4,1.4,0.1l8-8l5.9,5.9c0.4,0.4,1,0.4,1.4,0l9-9c0.5-0.5,0.4-1.1,0-1.6l-4.7-4.7
			c-0.5-0.5-1-0.6-1.5-0.6H56.3c-2.6-7.1-9.2-11.7-16.8-11.7c-9.8,0-17.7,7.9-17.7,17.8S29.7-17.5,39.5-17.5z M34.2-30.3
			c-2.7,0-4.9-2.2-4.9-5s2.2-4.9,4.9-4.9c2.8,0,5,2.2,5,4.9S37-30.3,34.2-30.3z"/>
	</g>
	<g id="Ultralight-M" transform="matrix(1 0 0 1 503.656 1126)">
		<path d="M56.1,12.1c26,0,47.3-21.3,47.3-47.3S82.1-82.6,56.1-82.6S8.7-61.3,8.7-35.3S30,12.1,56.1,12.1z M56.1,9.7
			c-24.8,0-44.9-20.2-44.9-44.9c0-24.8,20.2-44.9,44.9-44.9C80.9-80.1,101-60,101-35.2C101-10.5,80.9,9.7,56.1,9.7z"/>
		<path d="M38.9-17.5c7.9,0,14.4-5.1,17.7-14.3l8.4,8.3c0.4,0.4,0.9,0.4,1.2,0.1l8.1-8.2l6,6c0.4,0.4,0.8,0.4,1.2,0l9-9
			c0.5-0.4,0.4-1,0-1.4l-4.7-4.7c-0.4-0.4-1-0.6-1.4-0.6H55.7c-2.6-7-9.2-11.7-16.8-11.7c-9.8,0-17.7,7.9-17.7,17.7
			C21.3-25.4,29.1-17.5,38.9-17.5z M33.7-30.3c-2.7,0-4.9-2.2-4.9-4.9c0-2.8,2.2-4.9,4.9-4.9s4.9,2.2,4.9,4.9
			C38.7-32.5,36.4-30.3,33.7-30.3z"/>
	</g>
</g>
</svg>
