<?xml version="1.0" encoding="utf-8"?>
<!-- Generator: Adobe Illustrator 26.0.3, SVG Export Plug-In . SVG Version: 6.00 Build 0)  -->
<svg version="1.1" id="Layer_1" xmlns="http://www.w3.org/2000/svg" xmlns:xlink="http://www.w3.org/1999/xlink" x="0px" y="0px"
	 width="3300px" height="2200px" viewBox="0 0 3300 2200" enable-background="new 0 0 3300 2200" xml:space="preserve">
<g id="Notes">
	<rect id="artboard" fill="#FFFFFF" width="3300" height="2200"/>
	<line fill="none" stroke="#000000" stroke-width="0.5" x1="263" y1="292" x2="3036" y2="292"/>
	<text transform="matrix(1 0 0 1 263 322)" enable-background="new    "><tspan x="0" y="0" font-family="'Helvetica-Bold'" font-size="13px">W</tspan><tspan x="12.0415039" y="0" font-family="'Helvetica-Bold'" font-size="13px">eight/Scale </tspan><tspan x="84.2905273" y="0" font-family="'Helvetica-Bold'" font-size="13px">V</tspan><tspan x="92.2504883" y="0" font-family="'Helvetica-Bold'" font-size="13px">ariations</tspan></text>
	<text transform="matrix(1 0 0 1 534.0632935 322)" font-family="'Helvetica'" font-size="13px">Ultralight</text>
	<text transform="matrix(1 0 0 1 843.7774658 322)" font-family="'Helvetica'" font-size="13px">Thin</text>
	<text transform="matrix(1 0 0 1 1139.0350342 322)" font-family="'Helvetica'" font-size="13px">Light</text>
	<text transform="matrix(1 0 0 1 1427.0772705 322)" font-family="'Helvetica'" font-size="13px">Regular</text>
	<text transform="matrix(1 0 0 1 1723.4418945 322)" font-family="'Helvetica'" font-size="13px">Medium</text>
	<text transform="matrix(1 0 0 1 2016.171875 322)" font-family="'Helvetica'" font-size="13px">Semibold</text>
	<text transform="matrix(1 0 0 1 2326.970459 322)" font-family="'Helvetica'" font-size="13px">Bold</text>
	<text transform="matrix(1 0 0 1 2618.2658691 322)" font-family="'Helvetica'" font-size="13px">Heavy</text>
	<text transform="matrix(1 0 0 1 2917.5053711 322)" font-family="'Helvetica'" font-size="13px">Black</text>
	<line fill="none" stroke="#000000" stroke-width="0.5" x1="263" y1="1903" x2="3036" y2="1903"/>
	<g transform="matrix(1 0 0 1 263 1933)">
		<path d="M9.2480497,0.830078C10.3287497,0.8300779,11.344367,0.625,12.2948999,0.214844
			c0.9505339-0.4101567,1.7887669-0.979818,2.5146999-1.708984c0.7258663-0.7291666,1.2955332-1.5690097,1.7090006-2.5195298
			c0.4134007-0.95052,0.6201-1.9628901,0.6201-3.0371099s-0.2066994-2.0865941-0.6201-3.0371203
			c-0.4134674-0.9505329-0.984767-1.7903662-1.7139006-2.5194998c-0.7291994-0.7292004-1.5690327-1.2988663-2.5194998-1.7089996
			c-0.9505339-0.4101334-1.9661732-0.6152-3.0469198-0.6152c-1.0742207,0-2.0865903,0.2050667-3.0371103,0.6152
			s-1.7871065,0.9797993-2.5097599,1.7089996C2.96875-11.8782663,2.4007132-11.0384331,1.9873-10.0879002
			C1.5738934-9.1373739,1.36719-8.125,1.36719-7.0507798S1.5738934-4.96419,1.9873-4.01367
			C2.4007132-3.0631497,2.9703767-2.2233067,3.69629-1.49414s1.5641298,1.2988274,2.5146499,1.708984
			C7.1614604,0.625,8.17383,0.8300779,9.2480497,0.830078z M9.2480497-0.654297c-0.8854198,0-1.71387-0.1643876-2.4853497-0.493163
			c-0.7714868-0.3287734-1.4485698-0.78613-2.03125-1.3720701C4.1487632-3.1054699,3.6930332-3.7858098,3.36426-4.5605502
			c-0.3287802-0.7747402-0.49317-1.6048164-0.49317-2.4902296c0-0.8854198,0.1627634-1.7155004,0.4882901-2.4902406
			c0.32552-0.7747192,0.7796199-1.4550467,1.3623002-2.0409794c0.5826797-0.5859337,1.2597632-1.0433006,2.03125-1.3720999
			C7.5244164-13.2829008,8.3528671-13.4473,9.2382803-13.4473c0.8919458,0,1.7236528,0.1643991,2.49512,0.4932003
			c0.7714672,0.3287992,1.4501667,0.7861662,2.0360994,1.3720999c0.5859337,0.5859327,1.0449333,1.2662601,1.3769999,2.0409794
			c0.3320007,0.7747402,0.4980001,1.6048207,0.4980001,2.4902406c0,0.8854132-0.1643667,1.7154894-0.4931002,2.4902296
			c-0.3287992,0.7747405-0.7845325,1.4550803-1.3671999,2.0410202c-0.5826664,0.5859401-1.2613993,1.0432967-2.0361996,1.3720701
			C10.9732666-0.8186846,10.1399498-0.654297,9.2480497-0.654297z M5.6543002-7.0507798
			c0,0.2148399,0.0683599,0.3889933,0.2050796,0.52246C5.9960933-6.3948536,6.1783829-6.3281198,6.40625-6.3281202h2.1093702
			v2.1191401c0,0.2148402,0.0651064,0.3922467,0.1953201,0.5322201C8.8411474-3.5367868,9.0169268-3.4668,9.2382803-3.4668
			c0.2148457,0,0.3922558-0.0699868,0.5322294-0.20996c0.1399736-0.1399734,0.20996-0.31738,0.20996-0.5322201v-2.1191401h2.1093302
			c0.2214003,0.0000005,0.400466-0.0667334,0.5372-0.2001996c0.1366673-0.1334667,0.2049999-0.30762,0.2049999-0.52246
			c0-0.2213535-0.0683327-0.4003901-0.2049999-0.5371103c-0.136734-0.1367197-0.3157997-0.20508-0.5372-0.20508H9.9804697
			v-2.1093698c0-0.2213736-0.0699863-0.4020262-0.20996-0.5419598c-0.1399736-0.1400003-0.3173838-0.21-0.5322294-0.21
			c-0.2213535,0-0.3971329,0.0699997-0.5273399,0.21c-0.1302137,0.1399336-0.1953201,0.3205862-0.1953201,0.5419598v2.1093698
			H6.40625c-0.2278671,0-0.4101567,0.0683603-0.5468702,0.20508C5.7226601-7.45117,5.6543002-7.2721334,5.6543002-7.0507798z"/>
	</g>
	<g transform="matrix(1 0 0 1 281.867 1933)">
		<path d="M11.7089996,2.9101601c1.3606672,0,2.6416006-0.2604167,3.8428001-0.78125
			c1.2011337-0.5208334,2.2607002-1.2402358,3.1786995-2.1582069c0.9179344-0.9179688,1.6373348-1.9775398,2.1582012-3.1787131
			c0.5207996-1.2011731,0.7812004-2.4820969,0.7812004-3.8427699c0-1.3606801-0.2604008-2.6416202-0.7812004-3.8428206
			c-0.5208664-1.2011337-1.2402668-2.2606993-2.1582012-3.1786995c-0.9179993-0.9179335-1.9792004-1.6373329-3.1835995-2.1581993
			c-1.2044668-0.5207996-2.4870329-0.7812004-3.8477001-0.7812004s-2.6415825,0.2604008-3.8427491,0.7812004
			c-1.2011733,0.5208664-2.2591166,1.2402658-3.17383,2.1581993c-0.9147131,0.9180002-1.6324866,1.9775658-2.1533201,3.1786995
			C2.0084672-9.6924,1.7480505-8.4114599,1.7480503-7.0507798C1.7480505-5.6901069,2.0084672-4.409183,2.5293005-3.20801
			s1.2402332,2.2607443,2.1582,3.1787131c0.9179664,0.9179712,1.9775367,1.6373736,3.17871,2.1582069
			S10.3483133,2.9101601,11.7089996,2.9101601z M11.7089996,1.25c-1.1523533,0-2.2298326-0.2148436-3.23244-0.644531
			C7.4739599,0.1757813,6.5934277-0.418295,5.8349605-1.17676c-0.75846-0.7584602-1.3509068-1.6389933-1.7773399-2.6416001
			S3.4179704-5.8984399,3.4179704-7.0507798c0-1.1523461,0.2132168-2.2298207,0.6396501-3.2324204
			s1.0172534-1.8847656,1.77246-2.6464996c0.7552066-0.7617331,1.6341133-1.3557997,2.6367192-1.7821999
			c1.0025997-0.4264669,2.0800667-0.6396999,3.2323999-0.6396999s2.2298002,0.213233,3.2323999,0.6396999
			c1.0025997,0.4264002,1.8847666,1.0204668,2.6465006,1.7821999c0.761734,0.761734,1.3574333,1.6438999,1.7870998,2.6464996
			C19.7949333-9.2806005,20.0098-8.203126,20.0098-7.0507798c0,1.1523399-0.213232,2.2298131-0.6396999,3.2324197
			c-0.4263992,1.0026069-1.0188332,1.88314-1.7772999,2.6416001c-0.7584667,0.7584649-1.6406336,1.3525413-2.6465006,1.7822289
			S12.8613329,1.25,11.7089996,1.25z M7.1777306-7.0507798c0,0.2343731,0.0781269,0.4264297,0.2343798,0.57617
			C7.5683575-6.3248696,7.7701802-6.25,8.01758-6.25h2.8711195v2.8808601c0,0.2473931,0.0748672,0.4475899,0.2246008,0.60059
			c0.1497335,0.1529932,0.3417997,0.2294898,0.5761995,0.2294898c0.2473335,0,0.4475002-0.0764966,0.6005001-0.2294898
			c0.1529999-0.1530001,0.2294998-0.3531969,0.2294998-0.60059V-6.25h2.8809004
			c0.2473993,0,0.4475994-0.0748696,0.6005993-0.2246099s0.2294998-0.3417969,0.2294998-0.57617
			c0-0.2473998-0.0764999-0.4475965-0.2294998-0.6005902c-0.1529999-0.1529932-0.3532-0.2294898-0.6005993-0.2294898h-2.8809004
			v-2.87114c0-0.2538671-0.0764999-0.4573002-0.2294998-0.6103001s-0.3531666-0.2294998-0.6005001-0.2294998
			c-0.2343998,0-0.426466,0.0781326-0.5761995,0.2343998c-0.1497335,0.1562662-0.2246008,0.3580666-0.2246008,0.6054001v2.87114
			H8.01758c-0.2539062,0-0.4573565,0.0764966-0.6103497,0.2294898C7.2542305-7.4983764,7.1777306-7.2981796,7.1777306-7.0507798z"/>
	</g>
	<g transform="matrix(1 0 0 1 305.646 1933)">
		<path d="M14.9707003,5.6640601c1.393199,0,2.7229662-0.2164702,3.9892988-0.6494102
			c1.2662678-0.4329467,2.4300003-1.0400431,3.4912014-1.8212898c1.0611992-0.7812533,1.9840317-1.7024773,2.7684994-2.7636721
			c0.7845325-1.0611987,1.3932667-2.2265646,1.8262005-3.496098c0.4329338-1.2695265,0.6493988-2.5976501,0.6493988-3.9843698
			c0-1.3932271-0.216465-2.7229667-0.6493988-3.9892201c-0.4329338-1.2663326-1.0416679-2.4300671-1.8262005-3.4912004
			c-0.7844677-1.0611992-1.7073002-1.984066-2.7684994-2.7686005c-1.0612011-0.7845325-2.2265682-1.3932667-3.4961014-1.8261986
			c-1.2695312-0.4329338-2.6009331-0.6494007-3.9941988-0.6494007c-1.3931999,0-2.7229328,0.2164669-3.9892006,0.6494007
			c-1.2662859,0.4329319-2.4284029,1.041666-3.4863496,1.8261986c-1.05794,0.7845345-1.9791632,1.7074013-2.76367,2.7686005
			C3.9371731-13.470067,3.3300765-12.3063326,2.9003899-11.04c-0.4296865,1.2662535-0.6445298,2.595993-0.6445298,3.9892201
			c0,1.3867197,0.21647,2.7148433,0.64941,3.9843698c0.4329467,1.2695335,1.0400431,2.4348993,1.82129,3.496098
			c0.7812529,1.0611948,1.7024765,1.9824188,2.76367,2.7636721c1.0612006,0.7812467,2.2249236,1.3883431,3.4911695,1.8212898
			C12.2477341,5.4475899,13.5775003,5.6640601,14.9707003,5.6640601z M14.9707003,3.8476601
			c-1.2044001,0-2.3518677-0.1839199-3.4424-0.55176c-1.0904799-0.3678403-2.0881939-0.88379-2.9931402-1.5478501
			c-0.904953-0.6640646-1.6910863-1.4501987-2.3583999-2.358402C5.5094399-1.5185572,4.9934897-2.5179067,4.6289101-3.6084001
			C4.2643232-4.6988935,4.0820298-5.8463535,4.0820298-7.0507798c0-1.2109399,0.1822934-2.3616471,0.5468802-3.4521203
			c0.3645797-1.0905333,0.8789029-2.0899,1.5429697-2.9981003c0.6640601-0.9081993,1.4485636-1.6943321,2.3535099-2.3583994
			c0.9049463-0.6640663,1.9026833-1.1783657,2.9932108-1.5429001c1.0904665-0.3645992,2.2378998-0.5468998,3.4422998-0.5468998
			c1.2109327,0,2.3616648,0.1823006,3.452199,0.5468998c1.0904655,0.3645344,2.0897999,0.8788338,2.9980011,1.5429001
			c0.9081993,0.6640673,1.6943321,1.4502001,2.3584003,2.3583994c0.6640682,0.9082003,1.1800327,1.907567,1.5478992,2.9981003
			c0.3678017,1.0904732,0.5517006,2.2411804,0.5517006,3.4521203c0.0065327,1.2044263-0.1725006,2.3518863-0.5370998,3.4423797
			c-0.3645325,1.0904934-0.8804684,2.0898428-1.5478001,2.9980481c-0.6673336,0.9082034-1.455101,1.6943374-2.3633003,2.358402
			c-0.9081993,0.6640601-1.9075336,1.1800098-2.9980011,1.5478501C17.3323669,3.6637402,16.181633,3.8476601,14.9707003,3.8476601z
			 M9.1992197-7.0507798c0,0.2539067,0.0862637,0.4638662,0.25879,0.62988
			c0.1725264,0.1660132,0.3922567,0.2490196,0.6591902,0.2490201H14.0625V-2.2168
			c0,0.2669266,0.0830002,0.4866532,0.2489996,0.6591799c0.1660004,0.1725267,0.3792343,0.25879,0.6396999,0.25879
			c0.2669334,0,0.4866667-0.0846334,0.6592007-0.2538999c0.1724663-0.1692734,0.2586994-0.39063,0.2586994-0.66407v-3.9550798
			h3.9551001c0.2669334-0.0000005,0.485033-0.0830069,0.6543007-0.2490201
			c0.1692677-0.1660137,0.2539005-0.3759732,0.2539005-0.62988c0-0.2734404-0.0846329-0.4947929-0.2539005-0.6640601
			C20.3092327-7.8841133,20.0911331-7.96875,19.8241997-7.96875h-3.9551001v-3.9453497
			c0-0.2734003-0.0862331-0.4963665-0.2586994-0.6689005c-0.172534-0.172534-0.3922672-0.2587996-0.6592007-0.2587996
			c-0.2604656,0-0.4736996,0.0862656-0.6396999,0.2587996C14.1455002-12.4104662,14.0625-12.1875,14.0625-11.9140997V-7.96875
			h-3.9453001c-0.2734461,0-0.4948063,0.0846367-0.6640797,0.2539101C9.2838526-7.5455728,9.1992197-7.3242202,9.1992197-7.0507798z
			"/>
	</g>
	<text transform="matrix(1 0 0 1 263 1953)" enable-background="new    "><tspan x="0" y="0" font-family="'Helvetica-Bold'" font-size="13px">Design </tspan><tspan x="46.9536133" y="0" font-family="'Helvetica-Bold'" font-size="13px">V</tspan><tspan x="54.9135742" y="0" font-family="'Helvetica-Bold'" font-size="13px">ariations</tspan></text>
	<text transform="matrix(1 0 0 1 263 1971)" font-family="'Helvetica'" font-size="13px">Symbols are supported in up to nine weights and three scales.</text>
	<text transform="matrix(1 0 0 1 263 1989)" font-family="'Helvetica'" font-size="13px">For optimal layout with text and other symbols, vertically align</text>
	<text transform="matrix(1 0 0 1 263 2007)" font-family="'Helvetica'" font-size="13px">symbols with the adjacent text.</text>
	<line fill="none" stroke="#00AEEF" stroke-width="0.5" x1="776" y1="1919" x2="776" y2="1933"/>
	<g transform="matrix(1 0 0 1 776 1933)">
		<path d="M3.31055,0.15625c0.2604132,0,0.4622364-0.0553385,0.6054699-0.1660156
			C4.0592465-0.1204425,4.1764331-0.3125,4.26758-0.585938l1.2597599-3.4472618h5.7617598l1.2597008,3.4472618
			c0.0911331,0.273438,0.208333,0.4654954,0.3515997,0.5761724c0.143199,0.1106771,0.3417673,0.1660156,0.5957003,0.1660156
			c0.2603998,0,0.4670992-0.0716146,0.6201-0.2148438c0.1529999-0.1432295,0.2294998-0.3385418,0.2294998-0.5859372
			c0-0.14974-0.035799-0.325523-0.1073999-0.527349L9.6582003-13.3690996
			c-0.1171875-0.2995338-0.2766895-0.524168-0.4785099-0.6739006c-0.201827-0.1497335-0.4589901-0.2245998-0.7714901-0.2245998
			c-0.6054673,0-1.0156236,0.2962332-1.2304702,0.8887005L2.5976601-1.16211c-0.07162,0.2018234-0.10743,0.3776046-0.10743,0.527344
			c0,0.247396,0.0732434,0.441081,0.2197299,0.5810551S3.0566432,0.15625,3.31055,0.15625z M6.0058599-5.51758l2.3730502-6.5722198
			h0.0488195L10.8008003-5.51758H6.0058599z"/>
	</g>
	<line fill="none" stroke="#00AEEF" stroke-width="0.5" x1="793.1970215" y1="1919" x2="793.1970215" y2="1933"/>
	<text transform="matrix(1 0 0 1 776 1953)" font-family="'Helvetica-Bold'" font-size="13px">Margins</text>
	<text transform="matrix(1 0 0 1 776 1971)" font-family="'Helvetica'" font-size="13px">Leading and trailing margins on the left and right side of each symbol</text>
	<text transform="matrix(1 0 0 1 776 1989)" font-family="'Helvetica'" font-size="13px">can be adjusted by modifying the x-location of the margin guidelines.</text>
	<text transform="matrix(1 0 0 1 776 2007)" font-family="'Helvetica'" font-size="13px">Modifications are automatically applied proportionally to all</text>
	<text transform="matrix(1 0 0 1 776 2025)" font-family="'Helvetica'" font-size="13px">scales and weights.</text>
	<g transform="matrix(1 0 0 1 1289 1933)">
		<path d="M2.8418,1.86523l1.6992199,1.70899c0.429687,0.4361999,0.8837867,0.6380236,1.3622999,0.6054699
			c0.4785137-0.0325532,0.9488897-0.30599,1.41113-0.8203099L18.0077991-8.4277296l-0.9667988-0.9765701L6.4257798,2.2753899
			C6.25,2.47721,6.0725899,2.5911434,5.8935499,2.6171899c-0.1790328,0.0260401-0.3857369-0.0781267-0.62011-0.3125
			L4.1015601,1.14258c-0.2343733-0.234376-0.33691-0.4410824-0.30761-0.620119
			c0.0292933-0.1790367,0.14485-0.3597007,0.3466702-0.5419922L15.6152-10.8203001l-0.9765005-0.9667997L3.04688-0.898438
			C2.5520866-0.4427086,2.2867866,0.0227863,2.2509799,0.498047C2.2151732,0.973309,2.4121132,1.4290366,2.8418,1.86523z
			 M9.2578096-16.3281002C9.0494766-16.1262989,8.9322901-15.8951998,8.90625-15.6348
			c-0.0260401,0.2604666,0.0195341,0.4883337,0.1367197,0.6836004c0.1171865,0.182333,0.288084,0.319066,0.5126905,0.4101992
			c0.2246132,0.0911331,0.4996939,0.0976334,0.8252401,0.0195007c0.7291336-0.1692667,1.4680653-0.239234,2.2167997-0.2098999
			c0.7486668,0.0292664,1.4810667,0.2782669,2.1971998,0.7469997l-0.5859003,1.4551001
			c-0.1692657,0.416667-0.216466,0.7796326-0.1415997,1.0888996c0.0748663,0.3092003,0.2457666,0.6005335,0.5127001,0.8740005
			L16.875-8.2519503c0.2408657,0.2473936,0.4752331,0.3906202,0.7031002,0.4296803
			c0.2278671,0.0390668,0.4817677,0.0325565,0.7616997-0.0195303l1.0645008-0.1953101l0.6640987,0.6738305l-0.0390987,0.5566397
			c-0.0195332,0.2473936,0.0114002,0.4752569,0.0928001,0.6835899c0.0813332,0.2083335,0.242466,0.4329433,0.4833984,0.67383
			l0.7617016,0.7421904c0.2408676,0.2408867,0.5028992,0.3662133,0.7860985,0.3759799
			c0.2832012,0.0097599,0.5419998-0.1025472,0.7764015-0.3369203l2.910099-2.91992
			c0.2344017-0.2343731,0.3483334-0.4899068,0.3418007-0.7666001c-0.0064678-0.2766933-0.1301689-0.5354834-0.3711014-0.77637
			L25.0391006-9.89258c-0.2343998-0.24088-0.454134-0.4052534-0.6592007-0.4931202
			c-0.2050667-0.0879335-0.4280663-0.1221333-0.6690006-0.1026001L23.1348-10.4394999L22.4902-11.0741997L22.7343998-12.1973
			c0.0650673-0.2799339,0.0520325-0.5419664-0.0391006-0.7861004s-0.2831993-0.5127001-0.5761986-0.8056993l-2.1972008-2.1875
			c-0.8333321-0.8268003-1.7203999-1.4469004-2.6611996-1.860301c-0.940733-0.4133987-1.8880005-0.628233-2.8418007-0.6444988
			c-0.9537325-0.0163326-1.8716993,0.1578007-2.7538996,0.5223999C10.7828665-17.5944004,9.9804697-17.050766,9.2578096-16.3281002z
			 M10.7519999-15.9569998c0.6054668-0.4427328,1.2548666-0.7585001,1.9482002-0.9473009
			c0.6933327-0.1887989,1.3948326-0.249033,2.1044998-0.1806984c0.7096004,0.0683994,1.3980665,0.2588329,2.0654001,0.5712986
			c0.6673317,0.3125343,1.2776985,0.7487326,1.8311005,1.3086004l2.4315987,2.4120998
			c0.1172009,0.1171999,0.1904335,0.2311335,0.2197018,0.3418007c0.0293331,0.1106663,0.0244656,0.2506657-0.0146008,0.4199991
			l-0.3223,1.4843006L22.5195007-9.0625l0.9863987-0.0585899c0.1236687-0.0065136,0.2180691,0.0016232,0.2832012,0.0244102
			c0.0650654,0.0227861,0.146431,0.0830069,0.2440987,0.1806593l0.5762005,0.5761805l-2.4414005,2.4414001l-0.5761986-0.57617
			C21.494133-6.5722632,21.4322662-6.6536431,21.4062004-6.71875c-0.0259991-0.0651069-0.0357323-0.1627636-0.0291996-0.2929702
			l0.0682983-0.9765596l-1.4940987-1.4843802L18.4277-9.21875c-0.1627331,0.0325537-0.2912998,0.0374365-0.3857002,0.0146503
			c-0.0944004-0.0227871-0.2034664-0.0927744-0.3271999-0.20996l-2.0018997-2.0019407
			c-0.1302004-0.1171999-0.203433-0.2294998-0.2196999-0.3368998c-0.0162668-0.1074667,0.0146322-0.2523336,0.0927-0.4345999
			l0.8788996-2.0897999c-0.7811995-0.7292004-1.6601-1.2337675-2.6366997-1.5137005
			c-0.9765329-0.279932-1.9726343-0.2701664-2.9883003,0.0293007c-0.0780659,0.0195322-0.1285,0.0048666-0.1512995-0.0440006
			C10.6657-15.8544998,10.6868668-15.904933,10.7519999-15.9569998z"/>
	</g>
	<text transform="matrix(1 0 0 1 1289 1953)" font-family="'Helvetica-Bold'" font-size="13px">Exporting</text>
	<text transform="matrix(1 0 0 1 1289 1971)" font-family="'Helvetica'" font-size="13px">Symbols should be outlined when exporting to ensure the</text>
	<text transform="matrix(1 0 0 1 1289 1989)" font-family="'Helvetica'" font-size="13px">design is preserved when submitting to Xcode.</text>
	<text id="template-version" transform="matrix(1 0 0 1 2952.4140625 1933)" enable-background="new    "><tspan x="0" y="0" font-family="'Helvetica'" font-size="13px" letter-spacing="-1">T</tspan><tspan x="6.5" y="0" font-family="'Helvetica'" font-size="13px">emplate </tspan><tspan x="56.3608398" y="0" font-family="'Helvetica'" font-size="13px">v</tspan><tspan x="61.9023438" y="0" font-family="'Helvetica'" font-size="13px">.3.0</tspan></text>
	<text transform="matrix(1 0 0 1 2865.4575195 1951)" font-family="'Helvetica'" font-size="13px">Requires Xcode 13 or greater</text>
	<text id="descriptive-name" transform="matrix(1 0 0 1 2872.2368164 1969)" enable-background="new    "><tspan x="0" y="0" font-family="'Helvetica'" font-size="13px">Generated from ke</tspan><tspan x="108.3862305" y="0" font-family="'Helvetica'" font-size="13px">y</tspan><tspan x="113.9277344" y="0" font-family="'Helvetica'" font-size="13px">.fill.circle</tspan></text>
	<text transform="matrix(1 0 0 1 2912.4111328 1987)" enable-background="new    "><tspan x="0" y="0" font-family="'Helvetica'" font-size="13px">T</tspan><tspan x="7.2299805" y="0" font-family="'Helvetica'" font-size="13px">ypeset at 100 points</tspan></text>
	<text transform="matrix(1 0 0 1 263 726)" font-family="'Helvetica'" font-size="13px">Small</text>
	<text transform="matrix(1 0 0 1 263 1156)" font-family="'Helvetica'" font-size="13px">Medium</text>
	<text transform="matrix(1 0 0 1 263 1586)" font-family="'Helvetica'" font-size="13px">Large</text>
</g>
<g id="Guides">
	<g id="H-reference" transform="matrix(1 0 0 1 339 696)">
		<path fill="#27AAE1" d="M0.993347,0h2.6443532l25.6904984-67.1325989h0.7019005v-3.3264008h-1.9074001L0.993347,0z
			 M11.6882-24.4797001h35.293602l-0.7507019-2.2490997H12.4382L11.6882-24.4797001z M55.1193008,0h2.6443977L30.6380997-70.4589996
			h-1.2054005v3.3264008L55.1193008,0z"/>
	</g>
	<line id="Baseline-S" fill="none" stroke="#27AAE1" stroke-width="0.5" x1="263" y1="696" x2="3036" y2="696"/>
	<line id="Capline-S" fill="none" stroke="#27AAE1" stroke-width="0.5" x1="263" y1="625.5410156" x2="3036" y2="625.5410156"/>
	<g id="H-reference_00000175295706826704689090000001428353265728124335_" transform="matrix(1 0 0 1 339 1126)">
		<path fill="#27AAE1" d="M0.993347,0h2.6443532l25.6904984-67.1325989h0.7019005v-3.3264008h-1.9074001L0.993347,0z
			 M11.6882-24.4797001h35.293602l-0.7507019-2.2490997H12.4382L11.6882-24.4797001z M55.1193008,0h2.6443977L30.6380997-70.4589996
			h-1.2054005v3.3264008L55.1193008,0z"/>
	</g>
	<line id="Baseline-M" fill="none" stroke="#27AAE1" stroke-width="0.5" x1="263" y1="1126" x2="3036" y2="1126"/>
	<line id="Capline-M" fill="none" stroke="#27AAE1" stroke-width="0.5" x1="263" y1="1055.5400391" x2="3036" y2="1055.5400391"/>
	<g id="H-reference_00000088815502346439314510000000472995813580021385_" transform="matrix(1 0 0 1 339 1556)">
		<path fill="#27AAE1" d="M0.993347,0h2.6443532l25.6904984-67.1325989h0.7019005v-3.3264008h-1.9074001L0.993347,0z
			 M11.6882-24.4797001h35.293602l-0.7507019-2.2490997H12.4382L11.6882-24.4797001z M55.1193008,0h2.6443977L30.6380997-70.4589996
			h-1.2054005v3.3264008L55.1193008,0z"/>
	</g>
	<line id="Baseline-L" fill="none" stroke="#27AAE1" stroke-width="0.5" x1="263" y1="1556" x2="3036" y2="1556"/>
	<line id="Capline-L" fill="none" stroke="#27AAE1" stroke-width="0.5" x1="263" y1="1485.5400391" x2="3036" y2="1485.5400391"/>

		<line id="left-margin-Ultralight-S" fill="none" stroke="#00AEEF" stroke-width="0.5" x1="516.1119995" y1="600.7839966" x2="516.1119995" y2="720.1209717"/>

		<line id="right-margin-Ultralight-S" fill="none" stroke="#00AEEF" stroke-width="0.5" x1="603.3109741" y1="600.7839966" x2="603.3109741" y2="720.1209717"/>

		<line id="left-margin-Regular-S" fill="none" stroke="#00AEEF" stroke-width="0.5" x1="1403.8399658" y1="600.7839966" x2="1403.8399658" y2="720.1209717"/>

		<line id="right-margin-Regular-S" fill="none" stroke="#00AEEF" stroke-width="0.5" x1="1495.8499756" y1="600.7839966" x2="1495.8499756" y2="720.1209717"/>

		<line id="left-margin-Black-S" fill="none" stroke="#00AEEF" stroke-width="0.5" x1="2884.6499023" y1="600.7839966" x2="2884.6499023" y2="720.1209717"/>

		<line id="right-margin-Black-S" fill="none" stroke="#00AEEF" stroke-width="0.5" x1="2982.1499023" y1="600.7839966" x2="2982.1499023" y2="720.1209717"/>
</g>
<g id="Symbols">
	<g id="Black-S" transform="matrix(1 0 0 1 2884.65 696)">
		<path d="M36.5664749-28.4852505c0.9897461,0,1.8457031,0.1967773,2.5683594,0.5908203s1.2807617,0.9506836,1.6748047,1.6699219
			s0.5908203,1.5708008,0.5908203,2.5537109s-0.2036133,1.8325195-0.6103516,2.5488281s-0.9829102,1.2695312-1.7285156,1.6601562
			s-1.6225586,0.5859375-2.6318359,0.5859375h-2.2460938v4.4824219h-2.7734356v-14.0917969H36.5664749z M34.1836624-21.1415005
			h1.6796875c0.9116211,0,1.5932617-0.2099609,2.0458984-0.6298828s0.6787109-1.0561523,0.6787109-1.9091797
			c0-0.8398438-0.2260742-1.4697266-0.6787109-1.8896484s-1.1342773-0.6298828-2.0458984-0.6298828h-1.6796875V-21.1415005z
			 M50.3262405-17.3719692c0.4233398-0.5078125,0.6347656-1.2338867,0.6347656-2.1777344v-8.9355469h2.7832031v9.1113281
			c0,1.6538086-0.4604492,2.9443359-1.3818359,3.8720703s-2.2084961,1.3916016-3.8623047,1.3916016
			s-2.940918-0.4638672-3.8623047-1.3916016s-1.3818359-2.2182617-1.3818359-3.8720703v-9.1113281h2.7832031v8.9355469
			c0,0.9438477,0.2114258,1.6699219,0.6347656,2.1777344s1.0317383,0.7617188,1.8261719,0.7617188
			S49.9029007-16.8641567,50.3262405-17.3719692z M56.0879593-14.3934536v-14.0917969h5.1855469
			c1.3608398,0,2.4233398,0.309082,3.1884766,0.9277344s1.1474609,1.4780273,1.1474609,2.578125
			c0,0.5078125-0.1088867,0.9780273-0.3271484,1.4111328s-0.519043,0.7910156-0.9033203,1.0742188
			s-0.8203125,0.4672852-1.3085938,0.5517578v0.15625c0.625,0.0522461,1.1782227,0.2280273,1.6601562,0.5273438
			s0.8608398,0.6967773,1.1376953,1.1914062s0.4150391,1.0483398,0.4150391,1.6601562
			c0,1.2368164-0.4360352,2.215332-1.3085938,2.9345703s-2.0639648,1.0791016-3.5742188,1.0791016H56.0879593z
			 M58.802803-22.6844692h1.6015625c0.7680664,0,1.3623047-0.1577148,1.7822266-0.4736328s0.6298828-0.7568359,0.6298828-1.3232422
			c0-0.6054688-0.1967773-1.0678711-0.5908203-1.3867188s-0.9619141-0.4785156-1.7041016-0.4785156h-1.71875V-22.6844692z
			 M60.5410843-16.571188c0.9702148,0,1.6879883-0.1694336,2.1533203-0.5078125s0.6982422-0.862793,0.6982422-1.5722656
			c0-1.3413086-0.9570312-2.0117188-2.8710938-2.0117188h-1.71875v4.0917969H60.5410843z"/>
		<path d="M27.0128937-37.1089745c0.656599,1.5368881,1.5667381,2.8873062,2.7305965,4.0511665
			c1.1639519,1.1638584,2.5142803,2.0740871,4.05126,2.7305984c1.5368881,0.6565075,3.1857071,0.9847603,4.9464684,0.9847603
			c2.2978706,0,4.4129601-0.5893459,6.3453522-1.7681313c1.9323044-1.1787834,3.5400391-2.8798447,4.8232994-5.1031799
			l2.7082977,2.7082977c0.5372009,0.5371132,1.1787834,0.8019829,1.9248428,0.7945213
			c0.7461433-0.0074654,1.3877296-0.2723351,1.9249306-0.7945213l3.2454109-3.2230225l1.9920044,1.9696159
			c0.552124,0.5371094,1.1973953,0.8094406,1.9360809,0.816906c0.7385902,0.0074615,1.3764915-0.2573204,1.9136925-0.7945175
			l5.41642-5.4165115c0.4625778-0.4625778,0.6939087-1.0034637,0.6939087-1.6227531
			c0-0.619194-0.186554-1.1452484-0.5595856-1.5779762l-3.0216293-3.5139656
			c-0.2984085-0.3431778-0.6677475-0.5931244-1.1078491-0.7497406c-0.4401932-0.1567116-0.8692322-0.2350197-1.2870331-0.2350197
			H50.1337357c-1.0892334-2.1487122-2.6560593-3.8460884-4.7002983-5.0919456
			c-2.0442429-1.2460327-4.2749481-1.8690071-6.6922188-1.8690071c-1.7607613,0-3.4095802,0.3283424-4.9464684,0.9848557
			c-1.5369797,0.6565056-2.8873081,1.5667343-4.05126,2.7305946c-1.1638584,1.1639519-2.0739975,2.5142784-2.7305965,4.0512581
			c-0.6565094,1.5368881-0.9848537,3.1931763-0.9848537,4.9687691
			C26.0280399-40.3022423,26.3563843-38.6459541,27.0128937-37.1089745z M35.506958-40.0075226
			c-0.5745125,0.5744247-1.2645569,0.8616791-2.0704041,0.8616791c-0.8057556,0-1.4958897-0.2872543-2.0703125-0.8616791
			c-0.5744228-0.5745125-0.8616791-1.2646446-0.8616791-2.0704002c0-0.8057594,0.2834797-1.4958,0.850441-2.0703125
			c0.5670509-0.5745125,1.2608719-0.8617706,2.0815506-0.8617706c0.8058472,0,1.4958916,0.2872581,2.0704041,0.8617706
			c0.5744209,0.5745125,0.8616753,1.2645531,0.8616753,2.0703125C36.3686333-41.2721672,36.0813789-40.5820351,35.506958-40.0075226
			z"/>
		<path d="M48.8279991,6.7871099c5.7943001,0,11.2223015-1.0904999,16.2841988-3.2714899
			c5.0619049-2.18099,9.5214996-5.2001901,13.3788986-9.0576096c3.8574066-3.8574095,6.8766022-8.3170109,9.0576019-13.3789091
			s3.2714996-10.4899006,3.2714996-16.2842026s-1.0904999-11.2222977-3.2714996-16.2841988
			c-2.1809998-5.0618019-5.2001953-9.5214005-9.0576019-13.3789024c-3.857399-3.857399-8.3169937-6.8765945-13.3788986-9.0575943
			c-5.0618973-2.1809998-10.4898987-3.2715073-16.2841988-3.2715073s-11.2222977,1.0905075-16.2841988,3.2715073
			c-5.0618,2.1809998-9.5214005,5.2001953-13.3789005,9.0575943c-3.8573999,3.857502-6.8766003,8.3171005-9.0576,13.3789024
			C7.926331-46.4273987,6.8358412-40.9994011,6.8358412-35.205101s1.0904899,11.2223015,3.2714586,16.2842007
			c2.1809998,5.0619001,5.2002001,9.5215006,9.0576,13.3789101C23.0223999-1.68457,27.4820004,1.33463,32.5438004,3.51562
			C37.6057014,5.69661,43.033699,6.7871099,48.8279991,6.7871099z M48.8279991-7.3730502
			c-3.8410988,0-7.4463005-0.7242799-10.8153992-2.1728501c-3.3690987-1.4485998-6.3232002-3.4424-8.8623009-5.9813995
			c-2.5390987-2.5391006-4.5328999-5.4932003-5.9814987-8.8623009c-1.4484997-3.3691998-2.1728001-6.9743996-2.1728001-10.8155003
			s0.7243004-7.4463005,2.1728001-10.8153992c1.4485989-3.3690987,3.4424-6.3232002,5.9814987-8.8623009
			s5.4932022-4.5328979,8.8623009-5.9814987c3.3690987-1.4485016,6.9743004-2.172802,10.8153992-2.172802
			s7.4463005,0.7243004,10.8155022,2.172802c3.3690987,1.4486008,6.3231964,3.4423981,8.8622971,5.9814987
			s4.5328979,5.4932022,5.9813995,8.8623009c1.4486008,3.3690987,2.172905,6.9743004,2.172905,10.8153992
			s-0.7243042,7.4463005-2.172905,10.8155003c-1.4485016,3.3691006-3.4422989,6.3232002-5.9813995,8.8623009
			c-2.5391006,2.5389996-5.4931984,4.5327997-8.8622971,5.9813995C56.2742996-8.0973301,52.6691017-7.3730502,48.8279991-7.3730502z
			"/>
	</g>
	<g id="Regular-S" transform="matrix(1 0 0 1 1403.84 696)">
		<path d="M35.0726318-25.0202847c0.9116211,0,1.7055664,0.1870117,2.3828125,0.5615234s1.2026367,0.8999023,1.5771484,1.5771484
			s0.5615234,1.4711914,0.5615234,2.3828125c0,0.9047852-0.1889648,1.6958008-0.5664062,2.3730469
			s-0.9082031,1.2026367-1.5917969,1.5771484s-1.484375,0.5615234-2.4023438,0.5615234h-2.9199219v5.0585938h-1.7285156v-14.0917969
			H35.0726318z M32.1136475-17.5202847h2.5292969c1.0288086,0,1.8198242-0.2573242,2.3730469-0.7714844
			s0.8300781-1.25,0.8300781-2.2070312s-0.2768555-1.6943359-0.8300781-2.2119141s-1.3442383-0.7763672-2.3730469-0.7763672
			h-2.5292969V-17.5202847z M49.3890381-13.2282925c0.5664062-0.6411133,0.8496094-1.5444336,0.8496094-2.7099609v-9.0820312
			h1.71875v9.1992188c0,1.6274414-0.4379883,2.8989258-1.3134766,3.8134766S48.5526123-10.635519,46.99646-10.635519
			s-2.7719727-0.4575195-3.6474609-1.3720703s-1.3134766-2.1860352-1.3134766-3.8134766v-9.1992188h1.71875v9.0820312
			c0,1.1655273,0.2832031,2.0688477,0.8496094,2.7099609s1.3637695,0.9619141,2.3925781,0.9619141
			S48.8226318-12.5871792,49.3890381-13.2282925z M55.0140381-10.9284878v-14.0917969h4.5605469
			c1.3022461,0,2.3208008,0.3076172,3.0566406,0.9228516s1.1035156,1.4697266,1.1035156,2.5634766
			c0,0.5209961-0.1025391,0.9995117-0.3076172,1.4355469s-0.4897461,0.7973633-0.8544922,1.0839844
			s-0.784668,0.4750977-1.2597656,0.5664062v0.1367188c0.6313477,0.0649414,1.1816406,0.2504883,1.6503906,0.5566406
			s0.8334961,0.706543,1.09375,1.2011719s0.390625,1.0581055,0.390625,1.6894531
			c0,1.2304688-0.4262695,2.1938477-1.2792969,2.890625s-2.034668,1.0449219-3.5449219,1.0449219H55.0140381z
			 M56.7230225-18.9363003h2.1972656c1.0024414,0,1.7661133-0.1967773,2.2900391-0.5908203s0.7861328-0.9619141,0.7861328-1.7041016
			c0-0.7358398-0.2441406-1.3037109-0.7324219-1.7041016s-1.1816406-0.6005859-2.0800781-0.6005859h-2.4609375V-18.9363003z
			 M59.2523193-12.4226284c1.1196289,0,1.9677734-0.2163086,2.5439453-0.6494141s0.8642578-1.0693359,0.8642578-1.9091797
			c0-1.6860352-1.1557617-2.5292969-3.4667969-2.5292969h-2.4707031v5.0878906H59.2523193z"/>
		<path d="M20.6009998-36.3712997c0.7126999,1.6811981,1.7040997,3.1568985,2.9741001,4.427
			c1.2700996,1.2700005,2.7411995,2.2658997,4.4132004,2.9878006c1.6721001,0.7217999,3.4675999,1.0826988,5.3863983,1.0826988
			c2.9603996,0,5.6239014-0.8953991,7.9905014-2.6863003c2.3665009-1.7908974,4.2167015-4.3400993,5.5508003-7.6478004
			l5.7289009,5.646801c0.2558975,0.2558022,0.5390968,0.3883018,0.8498001,0.3973999
			c0.3106995,0.009201,0.5755997-0.1049995,0.794899-0.3426018l5.7564011-5.7563972l4.1390953,4.1939964
			c0.2376022,0.2375031,0.5117035,0.3563004,0.822403,0.3563004c0.3106003,0,0.5939026-0.1187973,0.8497009-0.3563004
			l6.8803024-6.8802986c0.2375946-0.2375984,0.3380966-0.5253983,0.3014984-0.8634987
			c-0.036499-0.3381004-0.137001-0.5984993-0.3014984-0.7812004l-3.6731033-3.6183014
			c-0.2192993-0.2009964-0.4385986-0.351799-0.6578979-0.4522972c-0.2192993-0.100502-0.4751053-0.1508026-0.7675018-0.1508026
			H46.3676987c-1.0415993-2.7045975-2.7411003-4.8563995-5.0984993-6.4552994
			c-2.357399-1.598999-4.9888992-2.3984985-7.8945007-2.3984985c-1.9187984,0-3.7142982,0.3563004-5.3863983,1.0690002
			c-1.6720009,0.7126999-3.1431007,1.7040977-4.4132004,2.9741974c-1.2700005,1.2700005-2.2614002,2.7456017-2.9741001,4.4269028
			c-0.7126999,1.6811981-1.0690002,3.4903984-1.0690002,5.4274979
			C19.5319996-39.8526001,19.8882999-38.0526009,20.6009998-36.3712997z M31.6203995-39.0438995
			c-0.7493,0.7584-1.6630001,1.1374969-2.7411003,1.1374969c-1.0599995,0-1.969099-0.379097-2.727499-1.1374969
			s-1.1375999-1.6674995-1.1375999-2.7274017c0-1.0781975,0.3745995-1.9920006,1.1238995-2.7411995
			c0.7492008-0.7491989,1.6630001-1.1238976,2.7411995-1.1238976c1.0781002,0,1.9918003,0.3792,2.7411003,1.1375999
			c0.7491989,0.7584,1.1238022,1.6675987,1.1238022,2.7274971C32.7442017-40.7113991,32.3695984-39.8022995,31.6203995-39.0438995z"
			/>
		<path d="M46.2402992,4.1503901c5.4036026,0,10.4818001-1.0253901,15.2344017-3.0761702s8.9437027-4.8990898,12.5732956-8.54492
			c3.6295013-3.6458998,6.4778061-7.8450994,8.5447998-12.5977011c2.0671005-4.7525997,3.1007004-9.8143997,3.1007004-15.1854973
			s-1.0335999-10.4328995-3.1007004-15.1856003c-2.0669937-4.7526016-4.9235001-8.9518013-8.5692978-12.5976028
			c-3.6457977-3.6458969-7.8450012-6.4942017-12.597599-8.544899c-4.7525978-2.0507965-9.8307991-3.0762024-15.2343979-3.0762024
			c-5.3711014,0-10.4329033,1.0254059-15.1855011,3.0762024c-4.7525997,2.0506973-8.9356003,4.8990021-12.5489006,8.544899
			c-3.6133003,3.6458015-6.4534998,7.8450012-8.5205297,12.5976028C7.8695202-45.6867981,6.83599-40.625,6.83599-35.2538986
			s1.0335302,10.4328995,3.1005802,15.1854992c2.06703,4.7525997,4.9153299,8.9517994,8.5449305,12.5977001
			C22.1110992-3.8248701,26.3022003-0.97656,31.0548,1.0742199S40.8692017,4.1503901,46.2402992,4.1503901z M46.2402992-3.2714801
			c-4.4270973,0-8.5692978-0.8219399-12.4267006-2.4658198c-3.8574982-1.6438799-7.2428989-3.9306803-10.1562977-6.8604002
			C20.7439003-15.5274,18.4652004-18.9290009,16.8213997-22.8027c-1.6438999-3.8736992-2.4657993-8.0240993-2.4657993-12.4511986
			s0.8137999-8.5775032,2.4414005-12.4512024s3.8980999-7.2753983,6.8114986-10.2050972
			c2.9134007-2.9297028,6.2988014-5.2164001,10.1562023-6.860302c3.857399-1.643898,7.9996986-2.4657974,12.4267998-2.4657974
			c4.4595985,0,8.6181984,0.8218994,12.4755974,2.4657974c3.8574028,1.6439018,7.2509003,3.9305992,10.1807022,6.860302
			c2.9295959,2.9296989,5.2245026,6.331398,6.884697,10.2050972c1.660202,3.8736992,2.490303,8.0241013,2.490303,12.4512024
			S77.4008026-26.6763992,75.756897-22.8027c-1.643898,3.8736992-3.9225006,7.2753-6.8358994,10.2049999
			c-2.9133987,2.9297199-6.3069992,5.2165203-10.1806984,6.8604002S50.6999016-3.2714801,46.2402992-3.2714801z"/>
	</g>
	<g id="Ultralight-S" transform="matrix(1 0 0 1 516.112 696)">
		<path d="M32.1336975-22.498785c0.8852539,0,1.6586914,0.1821289,2.3193359,0.546875s1.175293,0.8754883,1.5429688,1.5332031
			s0.5517578,1.4257812,0.5517578,2.3046875c0,0.8725586-0.184082,1.6391602-0.5517578,2.2998047
			s-0.8823242,1.1733398-1.5429688,1.5380859s-1.434082,0.546875-2.3193359,0.546875h-3.17383v5.3222656h-1.3378906V-22.498785
			H32.1336975z M28.9598675-14.92066H31.81143c1.067873,0,1.8979511-0.2797852,2.4902363-0.8398438
			s0.8886719-1.3442383,0.8886719-2.3535156s-0.2963867-1.793457-0.8886719-2.3535156s-1.4223633-0.8398438-2.4902363-0.8398438
			h-2.8515625V-14.92066z M46.6600647-10.3991756c0.621582-0.703125,0.9326172-1.6831055,0.9326172-2.9394531v-9.1601562h1.328125
			v9.2480469c0,1.6015625-0.4311523,2.8579102-1.2939453,3.7695312s-2.0522461,1.3671875-3.5693359,1.3671875
			s-2.706543-0.4555664-3.5693359-1.3671875s-1.2939453-2.1679688-1.2939453-3.7695312v-9.2480469h1.328125v9.1601562
			c0,1.2563477,0.3110352,2.2363281,0.9326172,2.9394531s1.4892578,1.0546875,2.6025391,1.0546875
			S46.0384827-9.6960506,46.6600647-10.3991756z M52.2313538-8.4069881V-22.498785h4.3359375
			c1.2827148,0,2.2851562,0.3076172,3.0078125,0.9228516s1.0839844,1.4663086,1.0839844,2.5537109
			c0,0.5273438-0.1010742,1.0092773-0.3027344,1.4453125s-0.4819336,0.7993164-0.8398438,1.0888672
			s-0.7714844,0.4799805-1.2402344,0.5712891v0.1269531c0.6381836,0.0717773,1.1879883,0.262207,1.6503906,0.5712891
			s0.8203125,0.7128906,1.0742188,1.2109375s0.3808594,1.065918,0.3808594,1.7041016
			c0,1.2304688-0.4213867,2.1875-1.2646484,2.8710938s-2.0229492,1.0253906-3.5400391,1.0253906H52.2313538z M53.5692444-16.2878475
			h2.421875c1.0874023,0,1.9125977-0.2148438,2.4755859-0.6445312s0.8447266-1.0546875,0.8447266-1.875
			c0-0.7944336-0.262207-1.4111328-0.7861328-1.8505859s-1.2612305-0.6591797-2.2119141-0.6591797h-2.7441406V-16.2878475z
			 M56.39151-9.5886288c1.1782227,0,2.0766602-0.237793,2.6953125-0.7128906s0.9277344-1.1655273,0.9277344-2.0703125
			c0-1.8359375-1.2304688-2.7539062-3.6914062-2.7539062h-2.7539062v5.5371094H56.39151z"/>
		<path d="M14.744998-34.9925995c0.809,1.9097977,1.9379015,3.5891991,3.3868017,5.0380993
			c1.448801,1.448801,3.1226006,2.578001,5.0212002,3.387701s3.9377003,1.2144985,6.1173992,1.2144985
			c3.4946003,0,6.6210003-1.0893993,9.3789997-3.2684002c2.7581024-2.1788998,4.8903008-5.3110008,6.3966026-9.3962975
			l7.377697,7.3709984c0.1676025,0.1672001,0.3581009,0.2511997,0.5715027,0.2521
			c0.2134972,0.0009003,0.3919983-0.0608006,0.5354004-0.1851006l7.1934967-7.2558002l5.3409042,5.3766022
			c0.1654968,0.1451988,0.3498993,0.2176971,0.5531998,0.2176971s0.3885956-0.0724983,0.5558014-0.2176971l8.0060959-8.0062027
			c0.2073975-0.2072983,0.3042984-0.4292984,0.2909012-0.6660004c-0.0133972-0.2366982-0.120697-0.456398-0.3218002-0.6591988
			l-4.1481018-4.1114998c-0.2055969-0.2042007-0.4216003-0.3470001-0.648201-0.428299
			c-0.2264938-0.0813026-0.4458008-0.1220016-0.6576996-0.1220016H44.1579018
			c-1.1282005-3.1818008-3.0503006-5.718998-5.7661018-7.611599c-2.7158012-1.8925018-5.7562981-2.8387985-9.1214008-2.8387985
			c-2.1796989,0-4.223999,0.4044991-6.1330986,1.2134972c-1.9090996,0.8090019-3.582901,1.9379005-5.0212002,3.3868027
			c-1.4384003,1.4487991-2.5621023,3.1229973-3.3711023,5.0224991c-0.809,1.899498-1.2135,3.9502983-1.2135,6.152298
			C13.531498-38.9471016,13.935998-36.9023972,14.744998-34.9925995z M27.7336006-38.0261993
			c-0.8640003,0.8544006-1.9032001,1.281601-3.1176014,1.281601c-1.1917992,0-2.2200985-0.4272003-3.0848999-1.281601
			c-0.8648987-0.8543015-1.2972984-1.8878021-1.2972984-3.100502c0-1.2145004,0.426899-2.248497,1.2804985-3.1021996
			c0.8537006-0.8536987,1.8875999-1.2804985,3.1016998-1.2804985c1.2144012,0,2.2536011,0.4272995,3.1176014,1.2817993
			c0.8640003,0.854599,1.2959995,1.8881989,1.2959995,3.1008987S28.5976009-38.8805008,27.7336006-38.0261993z"/>
		<path d="M44.0605011,1.97067c5.1310005,0,9.9365997-0.96486,14.4169006-2.8945899s8.4366989-4.6115904,11.8694-8.0455799
			c3.4327011-3.434,6.1146011-7.3910007,8.0456009-11.8710003c1.9309998-4.4799004,2.8964996-9.2844009,2.8964996-14.4133987
			s-0.9654999-9.9335022-2.8964996-14.4135017c-1.9309998-4.4799004-4.6134033-8.4369011-8.0471039-11.8708992
			s-7.3906975-6.1158981-11.8709984-8.0456009c-4.4802017-1.9297028-9.2858009-2.8945999-14.4168015-2.8945999
			c-5.1289978,0-9.9410973,0.9648972-14.4363995,2.8945999c-4.4951992,1.9297028-8.4511986,4.6116028-11.8678989,8.0456009
			s-6.0904026,7.3909988-8.021142,11.8708992c-1.9307494,4.4799995-2.8961196,9.2845001-2.8961196,14.4135017
			s0.9653702,9.9334984,2.8961196,14.4133987c1.9307394,4.4799995,4.6049395,8.4370003,8.0226412,11.8710003
			c3.4176998,3.4339895,7.3742008,6.1158495,11.8695011,8.0455799C34.1194,1.00581,38.9314995,1.97067,44.0605011,1.97067z
			 M44.0605011-0.274658c-4.8207016,0-9.3490028-0.905102-13.5849018-2.715302
			c-4.2357998-1.8102-7.9541988-4.3164501-11.1553001-7.5187407c-3.2010994-3.2023001-5.7143011-6.9218988-7.5398006-11.1587992
			c-1.8254309-4.2369003-2.7381401-8.7657013-2.7381401-13.5863991s0.91222-9.3495026,2.73664-13.5864029
			c1.8245001-4.2369003,4.3372011-7.9564972,7.5382013-11.1587982c3.2010994-3.202301,6.9195004-5.7086029,11.1554012-7.5187988
			c4.2357998-1.8102036,8.7640972-2.7153015,13.584898-2.7153015c4.8227997,0,9.3521004,0.905098,13.5879021,2.7153015
			c4.2359009,1.8101959,7.9547958,4.3164978,11.1568985,7.5187988c3.2020035,3.202301,5.7088013,6.9218979,7.5203018,11.1587982
			s2.7172012,8.7657013,2.7172012,13.5864029s-0.9051056,9.3494987-2.7153015,13.5863991
			c-1.8102036,4.2369003-4.3158035,7.9564991-7.5168991,11.1587992C65.6064987-7.3064098,61.8875008-4.8001599,57.6503983-2.98996
			S48.8833008-0.274658,44.0605011-0.274658z"/>
	</g>
</g>
</svg>
