<?xml version="1.0" encoding="utf-8"?>
<!-- Generator: Adobe Illustrator 26.0.3, SVG Export Plug-In . SVG Version: 6.00 Build 0)  -->
<svg version="1.1" id="Layer_1" xmlns="http://www.w3.org/2000/svg" xmlns:xlink="http://www.w3.org/1999/xlink" x="0px" y="0px"
	 width="3300px" height="2200px" viewBox="0 0 3300 2200" enable-background="new 0 0 3300 2200" xml:space="preserve">
<g id="Notes">
	<rect id="artboard" fill="#FFFFFF" width="3300" height="2200"/>
	<line fill="none" stroke="#000000" stroke-width="0.5" x1="263" y1="292" x2="3036" y2="292"/>
	<text transform="matrix(1 0 0 1 263 322)" enable-background="new    "><tspan x="0" y="0" font-family="'Helvetica-Bold'" font-size="13px">W</tspan><tspan x="12.0415039" y="0" font-family="'Helvetica-Bold'" font-size="13px">eight/Scale </tspan><tspan x="84.2905273" y="0" font-family="'Helvetica-Bold'" font-size="13px">V</tspan><tspan x="92.2504883" y="0" font-family="'Helvetica-Bold'" font-size="13px">ariations</tspan></text>
	<text transform="matrix(1 0 0 1 534.0632935 322)" font-family="'Helvetica'" font-size="13px">Ultralight</text>
	<text transform="matrix(1 0 0 1 843.7774658 322)" font-family="'Helvetica'" font-size="13px">Thin</text>
	<text transform="matrix(1 0 0 1 1139.0350342 322)" font-family="'Helvetica'" font-size="13px">Light</text>
	<text transform="matrix(1 0 0 1 1427.0772705 322)" font-family="'Helvetica'" font-size="13px">Regular</text>
	<text transform="matrix(1 0 0 1 1723.4418945 322)" font-family="'Helvetica'" font-size="13px">Medium</text>
	<text transform="matrix(1 0 0 1 2016.171875 322)" font-family="'Helvetica'" font-size="13px">Semibold</text>
	<text transform="matrix(1 0 0 1 2326.970459 322)" font-family="'Helvetica'" font-size="13px">Bold</text>
	<text transform="matrix(1 0 0 1 2618.2658691 322)" font-family="'Helvetica'" font-size="13px">Heavy</text>
	<text transform="matrix(1 0 0 1 2917.5053711 322)" font-family="'Helvetica'" font-size="13px">Black</text>
	<line fill="none" stroke="#000000" stroke-width="0.5" x1="263" y1="1903" x2="3036" y2="1903"/>
	<g transform="matrix(1 0 0 1 263 1933)">
		<path d="M9.2480497,0.830078C10.3287497,0.8300779,11.344367,0.625,12.2948999,0.214844
			c0.9505339-0.4101567,1.7887669-0.979818,2.5146999-1.708984c0.7258663-0.7291666,1.2955332-1.5690097,1.7090006-2.5195298
			c0.4134007-0.95052,0.6201-1.9628901,0.6201-3.0371099s-0.2066994-2.0865941-0.6201-3.0371203
			c-0.4134674-0.9505329-0.984767-1.7903662-1.7139006-2.5194998c-0.7291994-0.7292004-1.5690327-1.2988663-2.5194998-1.7089996
			c-0.9505339-0.4101334-1.9661732-0.6152-3.0469198-0.6152c-1.0742207,0-2.0865903,0.2050667-3.0371103,0.6152
			s-1.7871065,0.9797993-2.5097599,1.7089996C2.96875-11.8782663,2.4007132-11.0384331,1.9873-10.0879002
			C1.5738934-9.1373739,1.36719-8.125,1.36719-7.0507798S1.5738934-4.96419,1.9873-4.01367
			C2.4007132-3.0631497,2.9703767-2.2233067,3.69629-1.49414s1.5641298,1.2988274,2.5146499,1.708984
			C7.1614604,0.625,8.17383,0.8300779,9.2480497,0.830078z M9.2480497-0.654297c-0.8854198,0-1.71387-0.1643876-2.4853497-0.493163
			c-0.7714868-0.3287734-1.4485698-0.78613-2.03125-1.3720701C4.1487632-3.1054699,3.6930332-3.7858098,3.36426-4.5605502
			c-0.3287802-0.7747402-0.49317-1.6048164-0.49317-2.4902296c0-0.8854198,0.1627634-1.7155004,0.4882901-2.4902406
			c0.32552-0.7747192,0.7796199-1.4550467,1.3623002-2.0409794c0.5826797-0.5859337,1.2597632-1.0433006,2.03125-1.3720999
			C7.5244164-13.2829008,8.3528671-13.4473,9.2382803-13.4473c0.8919458,0,1.7236528,0.1643991,2.49512,0.4932003
			c0.7714672,0.3287992,1.4501667,0.7861662,2.0360994,1.3720999c0.5859337,0.5859327,1.0449333,1.2662601,1.3769999,2.0409794
			c0.3320007,0.7747402,0.4980001,1.6048207,0.4980001,2.4902406c0,0.8854132-0.1643667,1.7154894-0.4931002,2.4902296
			c-0.3287992,0.7747405-0.7845325,1.4550803-1.3671999,2.0410202c-0.5826664,0.5859401-1.2613993,1.0432967-2.0361996,1.3720701
			C10.9732666-0.8186846,10.1399498-0.654297,9.2480497-0.654297z M5.6543002-7.0507798
			c0,0.2148399,0.0683599,0.3889933,0.2050796,0.52246C5.9960933-6.3948536,6.1783829-6.3281198,6.40625-6.3281202h2.1093702
			v2.1191401c0,0.2148402,0.0651064,0.3922467,0.1953201,0.5322201C8.8411474-3.5367868,9.0169268-3.4668,9.2382803-3.4668
			c0.2148457,0,0.3922558-0.0699868,0.5322294-0.20996c0.1399736-0.1399734,0.20996-0.31738,0.20996-0.5322201v-2.1191401h2.1093302
			c0.2214003,0.0000005,0.400466-0.0667334,0.5372-0.2001996c0.1366673-0.1334667,0.2049999-0.30762,0.2049999-0.52246
			c0-0.2213535-0.0683327-0.4003901-0.2049999-0.5371103c-0.136734-0.1367197-0.3157997-0.20508-0.5372-0.20508H9.9804697
			v-2.1093698c0-0.2213736-0.0699863-0.4020262-0.20996-0.5419598c-0.1399736-0.1400003-0.3173838-0.21-0.5322294-0.21
			c-0.2213535,0-0.3971329,0.0699997-0.5273399,0.21c-0.1302137,0.1399336-0.1953201,0.3205862-0.1953201,0.5419598v2.1093698
			H6.40625c-0.2278671,0-0.4101567,0.0683603-0.5468702,0.20508C5.7226601-7.45117,5.6543002-7.2721334,5.6543002-7.0507798z"/>
	</g>
	<g transform="matrix(1 0 0 1 281.867 1933)">
		<path d="M11.7089996,2.9101601c1.3606672,0,2.6416006-0.2604167,3.8428001-0.78125
			c1.2011337-0.5208334,2.2607002-1.2402358,3.1786995-2.1582069c0.9179344-0.9179688,1.6373348-1.9775398,2.1582012-3.1787131
			c0.5207996-1.2011731,0.7812004-2.4820969,0.7812004-3.8427699c0-1.3606801-0.2604008-2.6416202-0.7812004-3.8428206
			c-0.5208664-1.2011337-1.2402668-2.2606993-2.1582012-3.1786995c-0.9179993-0.9179335-1.9792004-1.6373329-3.1835995-2.1581993
			c-1.2044668-0.5207996-2.4870329-0.7812004-3.8477001-0.7812004s-2.6415825,0.2604008-3.8427491,0.7812004
			c-1.2011733,0.5208664-2.2591166,1.2402658-3.17383,2.1581993c-0.9147131,0.9180002-1.6324866,1.9775658-2.1533201,3.1786995
			C2.0084672-9.6924,1.7480505-8.4114599,1.7480503-7.0507798C1.7480505-5.6901069,2.0084672-4.409183,2.5293005-3.20801
			s1.2402332,2.2607443,2.1582,3.1787131c0.9179664,0.9179712,1.9775367,1.6373736,3.17871,2.1582069
			S10.3483133,2.9101601,11.7089996,2.9101601z M11.7089996,1.25c-1.1523533,0-2.2298326-0.2148436-3.23244-0.644531
			C7.4739599,0.1757813,6.5934277-0.418295,5.8349605-1.17676c-0.75846-0.7584602-1.3509068-1.6389933-1.7773399-2.6416001
			S3.4179704-5.8984399,3.4179704-7.0507798c0-1.1523461,0.2132168-2.2298207,0.6396501-3.2324204
			s1.0172534-1.8847656,1.77246-2.6464996c0.7552066-0.7617331,1.6341133-1.3557997,2.6367192-1.7821999
			c1.0025997-0.4264669,2.0800667-0.6396999,3.2323999-0.6396999s2.2298002,0.213233,3.2323999,0.6396999
			c1.0025997,0.4264002,1.8847666,1.0204668,2.6465006,1.7821999c0.761734,0.761734,1.3574333,1.6438999,1.7870998,2.6464996
			C19.7949333-9.2806005,20.0098-8.203126,20.0098-7.0507798c0,1.1523399-0.213232,2.2298131-0.6396999,3.2324197
			c-0.4263992,1.0026069-1.0188332,1.88314-1.7772999,2.6416001c-0.7584667,0.7584649-1.6406336,1.3525413-2.6465006,1.7822289
			S12.8613329,1.25,11.7089996,1.25z M7.1777306-7.0507798c0,0.2343731,0.0781269,0.4264297,0.2343798,0.57617
			C7.5683575-6.3248696,7.7701802-6.25,8.01758-6.25h2.8711195v2.8808601c0,0.2473931,0.0748672,0.4475899,0.2246008,0.60059
			c0.1497335,0.1529932,0.3417997,0.2294898,0.5761995,0.2294898c0.2473335,0,0.4475002-0.0764966,0.6005001-0.2294898
			c0.1529999-0.1530001,0.2294998-0.3531969,0.2294998-0.60059V-6.25h2.8809004
			c0.2473993,0,0.4475994-0.0748696,0.6005993-0.2246099s0.2294998-0.3417969,0.2294998-0.57617
			c0-0.2473998-0.0764999-0.4475965-0.2294998-0.6005902c-0.1529999-0.1529932-0.3532-0.2294898-0.6005993-0.2294898h-2.8809004
			v-2.87114c0-0.2538671-0.0764999-0.4573002-0.2294998-0.6103001s-0.3531666-0.2294998-0.6005001-0.2294998
			c-0.2343998,0-0.426466,0.0781326-0.5761995,0.2343998c-0.1497335,0.1562662-0.2246008,0.3580666-0.2246008,0.6054001v2.87114
			H8.01758c-0.2539062,0-0.4573565,0.0764966-0.6103497,0.2294898C7.2542305-7.4983764,7.1777306-7.2981796,7.1777306-7.0507798z"/>
	</g>
	<g transform="matrix(1 0 0 1 305.646 1933)">
		<path d="M14.9707003,5.6640601c1.393199,0,2.7229662-0.2164702,3.9892988-0.6494102
			c1.2662678-0.4329467,2.4300003-1.0400431,3.4912014-1.8212898c1.0611992-0.7812533,1.9840317-1.7024773,2.7684994-2.7636721
			c0.7845325-1.0611987,1.3932667-2.2265646,1.8262005-3.496098c0.4329338-1.2695265,0.6493988-2.5976501,0.6493988-3.9843698
			c0-1.3932271-0.216465-2.7229667-0.6493988-3.9892201c-0.4329338-1.2663326-1.0416679-2.4300671-1.8262005-3.4912004
			c-0.7844677-1.0611992-1.7073002-1.984066-2.7684994-2.7686005c-1.0612011-0.7845325-2.2265682-1.3932667-3.4961014-1.8261986
			c-1.2695312-0.4329338-2.6009331-0.6494007-3.9941988-0.6494007c-1.3931999,0-2.7229328,0.2164669-3.9892006,0.6494007
			c-1.2662859,0.4329319-2.4284029,1.041666-3.4863496,1.8261986c-1.05794,0.7845345-1.9791632,1.7074013-2.76367,2.7686005
			C3.9371731-13.470067,3.3300765-12.3063326,2.9003899-11.04c-0.4296865,1.2662535-0.6445298,2.595993-0.6445298,3.9892201
			c0,1.3867197,0.21647,2.7148433,0.64941,3.9843698c0.4329467,1.2695335,1.0400431,2.4348993,1.82129,3.496098
			c0.7812529,1.0611948,1.7024765,1.9824188,2.76367,2.7636721c1.0612006,0.7812467,2.2249236,1.3883431,3.4911695,1.8212898
			C12.2477341,5.4475899,13.5775003,5.6640601,14.9707003,5.6640601z M14.9707003,3.8476601
			c-1.2044001,0-2.3518677-0.1839199-3.4424-0.55176c-1.0904799-0.3678403-2.0881939-0.88379-2.9931402-1.5478501
			c-0.904953-0.6640646-1.6910863-1.4501987-2.3583999-2.358402C5.5094399-1.5185572,4.9934897-2.5179067,4.6289101-3.6084001
			C4.2643232-4.6988935,4.0820298-5.8463535,4.0820298-7.0507798c0-1.2109399,0.1822934-2.3616471,0.5468802-3.4521203
			c0.3645797-1.0905333,0.8789029-2.0899,1.5429697-2.9981003c0.6640601-0.9081993,1.4485636-1.6943321,2.3535099-2.3583994
			c0.9049463-0.6640663,1.9026833-1.1783657,2.9932108-1.5429001c1.0904665-0.3645992,2.2378998-0.5468998,3.4422998-0.5468998
			c1.2109327,0,2.3616648,0.1823006,3.452199,0.5468998c1.0904655,0.3645344,2.0897999,0.8788338,2.9980011,1.5429001
			c0.9081993,0.6640673,1.6943321,1.4502001,2.3584003,2.3583994c0.6640682,0.9082003,1.1800327,1.907567,1.5478992,2.9981003
			c0.3678017,1.0904732,0.5517006,2.2411804,0.5517006,3.4521203c0.0065327,1.2044263-0.1725006,2.3518863-0.5370998,3.4423797
			c-0.3645325,1.0904934-0.8804684,2.0898428-1.5478001,2.9980481c-0.6673336,0.9082034-1.455101,1.6943374-2.3633003,2.358402
			c-0.9081993,0.6640601-1.9075336,1.1800098-2.9980011,1.5478501C17.3323669,3.6637402,16.181633,3.8476601,14.9707003,3.8476601z
			 M9.1992197-7.0507798c0,0.2539067,0.0862637,0.4638662,0.25879,0.62988
			c0.1725264,0.1660132,0.3922567,0.2490196,0.6591902,0.2490201H14.0625V-2.2168
			c0,0.2669266,0.0830002,0.4866532,0.2489996,0.6591799c0.1660004,0.1725267,0.3792343,0.25879,0.6396999,0.25879
			c0.2669334,0,0.4866667-0.0846334,0.6592007-0.2538999c0.1724663-0.1692734,0.2586994-0.39063,0.2586994-0.66407v-3.9550798
			h3.9551001c0.2669334-0.0000005,0.485033-0.0830069,0.6543007-0.2490201
			c0.1692677-0.1660137,0.2539005-0.3759732,0.2539005-0.62988c0-0.2734404-0.0846329-0.4947929-0.2539005-0.6640601
			C20.3092327-7.8841133,20.0911331-7.96875,19.8241997-7.96875h-3.9551001v-3.9453497
			c0-0.2734003-0.0862331-0.4963665-0.2586994-0.6689005c-0.172534-0.172534-0.3922672-0.2587996-0.6592007-0.2587996
			c-0.2604656,0-0.4736996,0.0862656-0.6396999,0.2587996C14.1455002-12.4104662,14.0625-12.1875,14.0625-11.9140997V-7.96875
			h-3.9453001c-0.2734461,0-0.4948063,0.0846367-0.6640797,0.2539101C9.2838526-7.5455728,9.1992197-7.3242202,9.1992197-7.0507798z
			"/>
	</g>
	<text transform="matrix(1 0 0 1 263 1953)" enable-background="new    "><tspan x="0" y="0" font-family="'Helvetica-Bold'" font-size="13px">Design </tspan><tspan x="46.9536133" y="0" font-family="'Helvetica-Bold'" font-size="13px">V</tspan><tspan x="54.9135742" y="0" font-family="'Helvetica-Bold'" font-size="13px">ariations</tspan></text>
	<text transform="matrix(1 0 0 1 263 1971)" font-family="'Helvetica'" font-size="13px">Symbols are supported in up to nine weights and three scales.</text>
	<text transform="matrix(1 0 0 1 263 1989)" font-family="'Helvetica'" font-size="13px">For optimal layout with text and other symbols, vertically align</text>
	<text transform="matrix(1 0 0 1 263 2007)" font-family="'Helvetica'" font-size="13px">symbols with the adjacent text.</text>
	<line fill="none" stroke="#00AEEF" stroke-width="0.5" x1="776" y1="1919" x2="776" y2="1933"/>
	<g transform="matrix(1 0 0 1 776 1933)">
		<path d="M3.31055,0.15625c0.2604132,0,0.4622364-0.0553385,0.6054699-0.1660156
			C4.0592465-0.1204425,4.1764331-0.3125,4.26758-0.585938l1.2597599-3.4472618h5.7617598l1.2597008,3.4472618
			c0.0911331,0.273438,0.208333,0.4654954,0.3515997,0.5761724c0.143199,0.1106771,0.3417673,0.1660156,0.5957003,0.1660156
			c0.2603998,0,0.4670992-0.0716146,0.6201-0.2148438c0.1529999-0.1432295,0.2294998-0.3385418,0.2294998-0.5859372
			c0-0.14974-0.035799-0.325523-0.1073999-0.527349L9.6582003-13.3690996
			c-0.1171875-0.2995338-0.2766895-0.524168-0.4785099-0.6739006c-0.201827-0.1497335-0.4589901-0.2245998-0.7714901-0.2245998
			c-0.6054673,0-1.0156236,0.2962332-1.2304702,0.8887005L2.5976601-1.16211c-0.07162,0.2018234-0.10743,0.3776046-0.10743,0.527344
			c0,0.247396,0.0732434,0.441081,0.2197299,0.5810551S3.0566432,0.15625,3.31055,0.15625z M6.0058599-5.51758l2.3730502-6.5722198
			h0.0488195L10.8008003-5.51758H6.0058599z"/>
	</g>
	<line fill="none" stroke="#00AEEF" stroke-width="0.5" x1="793.1970215" y1="1919" x2="793.1970215" y2="1933"/>
	<text transform="matrix(1 0 0 1 776 1953)" font-family="'Helvetica-Bold'" font-size="13px">Margins</text>
	<text transform="matrix(1 0 0 1 776 1971)" font-family="'Helvetica'" font-size="13px">Leading and trailing margins on the left and right side of each symbol</text>
	<text transform="matrix(1 0 0 1 776 1989)" font-family="'Helvetica'" font-size="13px">can be adjusted by modifying the x-location of the margin guidelines.</text>
	<text transform="matrix(1 0 0 1 776 2007)" font-family="'Helvetica'" font-size="13px">Modifications are automatically applied proportionally to all</text>
	<text transform="matrix(1 0 0 1 776 2025)" font-family="'Helvetica'" font-size="13px">scales and weights.</text>
	<g transform="matrix(1 0 0 1 1289 1933)">
		<path d="M2.8418,1.86523l1.6992199,1.70899c0.429687,0.4361999,0.8837867,0.6380236,1.3622999,0.6054699
			c0.4785137-0.0325532,0.9488897-0.30599,1.41113-0.8203099L18.0077991-8.4277296l-0.9667988-0.9765701L6.4257798,2.2753899
			C6.25,2.47721,6.0725899,2.5911434,5.8935499,2.6171899c-0.1790328,0.0260401-0.3857369-0.0781267-0.62011-0.3125
			L4.1015601,1.14258c-0.2343733-0.234376-0.33691-0.4410824-0.30761-0.620119
			c0.0292933-0.1790367,0.14485-0.3597007,0.3466702-0.5419922L15.6152-10.8203001l-0.9765005-0.9667997L3.04688-0.898438
			C2.5520866-0.4427086,2.2867866,0.0227863,2.2509799,0.498047C2.2151732,0.973309,2.4121132,1.4290366,2.8418,1.86523z
			 M9.2578096-16.3281002C9.0494766-16.1262989,8.9322901-15.8951998,8.90625-15.6348
			c-0.0260401,0.2604666,0.0195341,0.4883337,0.1367197,0.6836004c0.1171865,0.182333,0.288084,0.319066,0.5126905,0.4101992
			c0.2246132,0.0911331,0.4996939,0.0976334,0.8252401,0.0195007c0.7291336-0.1692667,1.4680653-0.239234,2.2167997-0.2098999
			c0.7486668,0.0292664,1.4810667,0.2782669,2.1971998,0.7469997l-0.5859003,1.4551001
			c-0.1692657,0.416667-0.216466,0.7796326-0.1415997,1.0888996c0.0748663,0.3092003,0.2457666,0.6005335,0.5127001,0.8740005
			L16.875-8.2519503c0.2408657,0.2473936,0.4752331,0.3906202,0.7031002,0.4296803
			c0.2278671,0.0390668,0.4817677,0.0325565,0.7616997-0.0195303l1.0645008-0.1953101l0.6640987,0.6738305l-0.0390987,0.5566397
			c-0.0195332,0.2473936,0.0114002,0.4752569,0.0928001,0.6835899c0.0813332,0.2083335,0.242466,0.4329433,0.4833984,0.67383
			l0.7617016,0.7421904c0.2408676,0.2408867,0.5028992,0.3662133,0.7860985,0.3759799
			c0.2832012,0.0097599,0.5419998-0.1025472,0.7764015-0.3369203l2.910099-2.91992
			c0.2344017-0.2343731,0.3483334-0.4899068,0.3418007-0.7666001c-0.0064678-0.2766933-0.1301689-0.5354834-0.3711014-0.77637
			L25.0391006-9.89258c-0.2343998-0.24088-0.454134-0.4052534-0.6592007-0.4931202
			c-0.2050667-0.0879335-0.4280663-0.1221333-0.6690006-0.1026001L23.1348-10.4394999L22.4902-11.0741997L22.7343998-12.1973
			c0.0650673-0.2799339,0.0520325-0.5419664-0.0391006-0.7861004s-0.2831993-0.5127001-0.5761986-0.8056993l-2.1972008-2.1875
			c-0.8333321-0.8268003-1.7203999-1.4469004-2.6611996-1.860301c-0.940733-0.4133987-1.8880005-0.628233-2.8418007-0.6444988
			c-0.9537325-0.0163326-1.8716993,0.1578007-2.7538996,0.5223999C10.7828665-17.5944004,9.9804697-17.050766,9.2578096-16.3281002z
			 M10.7519999-15.9569998c0.6054668-0.4427328,1.2548666-0.7585001,1.9482002-0.9473009
			c0.6933327-0.1887989,1.3948326-0.249033,2.1044998-0.1806984c0.7096004,0.0683994,1.3980665,0.2588329,2.0654001,0.5712986
			c0.6673317,0.3125343,1.2776985,0.7487326,1.8311005,1.3086004l2.4315987,2.4120998
			c0.1172009,0.1171999,0.1904335,0.2311335,0.2197018,0.3418007c0.0293331,0.1106663,0.0244656,0.2506657-0.0146008,0.4199991
			l-0.3223,1.4843006L22.5195007-9.0625l0.9863987-0.0585899c0.1236687-0.0065136,0.2180691,0.0016232,0.2832012,0.0244102
			c0.0650654,0.0227861,0.146431,0.0830069,0.2440987,0.1806593l0.5762005,0.5761805l-2.4414005,2.4414001l-0.5761986-0.57617
			C21.494133-6.5722632,21.4322662-6.6536431,21.4062004-6.71875c-0.0259991-0.0651069-0.0357323-0.1627636-0.0291996-0.2929702
			l0.0682983-0.9765596l-1.4940987-1.4843802L18.4277-9.21875c-0.1627331,0.0325537-0.2912998,0.0374365-0.3857002,0.0146503
			c-0.0944004-0.0227871-0.2034664-0.0927744-0.3271999-0.20996l-2.0018997-2.0019407
			c-0.1302004-0.1171999-0.203433-0.2294998-0.2196999-0.3368998c-0.0162668-0.1074667,0.0146322-0.2523336,0.0927-0.4345999
			l0.8788996-2.0897999c-0.7811995-0.7292004-1.6601-1.2337675-2.6366997-1.5137005
			c-0.9765329-0.279932-1.9726343-0.2701664-2.9883003,0.0293007c-0.0780659,0.0195322-0.1285,0.0048666-0.1512995-0.0440006
			C10.6657-15.8544998,10.6868668-15.904933,10.7519999-15.9569998z"/>
	</g>
	<text transform="matrix(1 0 0 1 1289 1953)" font-family="'Helvetica-Bold'" font-size="13px">Exporting</text>
	<text transform="matrix(1 0 0 1 1289 1971)" font-family="'Helvetica'" font-size="13px">Symbols should be outlined when exporting to ensure the</text>
	<text transform="matrix(1 0 0 1 1289 1989)" font-family="'Helvetica'" font-size="13px">design is preserved when submitting to Xcode.</text>
	<text id="template-version" transform="matrix(1 0 0 1 2952.4140625 1933)" enable-background="new    "><tspan x="0" y="0" font-family="'Helvetica'" font-size="13px" letter-spacing="-1">T</tspan><tspan x="6.5" y="0" font-family="'Helvetica'" font-size="13px">emplate </tspan><tspan x="56.3608398" y="0" font-family="'Helvetica'" font-size="13px">v</tspan><tspan x="61.9023438" y="0" font-family="'Helvetica'" font-size="13px">.3.0</tspan></text>
	<text transform="matrix(1 0 0 1 2865.4575195 1951)" font-family="'Helvetica'" font-size="13px">Requires Xcode 13 or greater</text>
	<text id="descriptive-name" transform="matrix(1 0 0 1 2895.824707 1969)" font-family="'Helvetica'" font-size="13px">Generated from network</text>
	<text transform="matrix(1 0 0 1 2912.4111328 1987)" enable-background="new    "><tspan x="0" y="0" font-family="'Helvetica'" font-size="13px">T</tspan><tspan x="7.2299805" y="0" font-family="'Helvetica'" font-size="13px">ypeset at 100 points</tspan></text>
	<text transform="matrix(1 0 0 1 263 726)" font-family="'Helvetica'" font-size="13px">Small</text>
	<text transform="matrix(1 0 0 1 263 1156)" font-family="'Helvetica'" font-size="13px">Medium</text>
	<text transform="matrix(1 0 0 1 263 1586)" font-family="'Helvetica'" font-size="13px">Large</text>
</g>
<g id="Guides">
	<g id="H-reference" transform="matrix(1 0 0 1 339 696)">
		<path fill="#27AAE1" d="M0.993347,0h2.6443532l25.6904984-67.1325989h0.7019005v-3.3264008h-1.9074001L0.993347,0z
			 M11.6882-24.4797001h35.293602l-0.7507019-2.2490997H12.4382L11.6882-24.4797001z M55.1193008,0h2.6443977L30.6380997-70.4589996
			h-1.2054005v3.3264008L55.1193008,0z"/>
	</g>
	<line id="Baseline-S" fill="none" stroke="#27AAE1" stroke-width="0.5" x1="263" y1="696" x2="3036" y2="696"/>
	<line id="Capline-S" fill="none" stroke="#27AAE1" stroke-width="0.5" x1="263" y1="625.5410156" x2="3036" y2="625.5410156"/>
	<g id="H-reference_00000101067995069639650610000012249293725385815702_" transform="matrix(1 0 0 1 339 1126)">
		<path fill="#27AAE1" d="M0.993347,0h2.6443532l25.6904984-67.1325989h0.7019005v-3.3264008h-1.9074001L0.993347,0z
			 M11.6882-24.4797001h35.293602l-0.7507019-2.2490997H12.4382L11.6882-24.4797001z M55.1193008,0h2.6443977L30.6380997-70.4589996
			h-1.2054005v3.3264008L55.1193008,0z"/>
	</g>
	<line id="Baseline-M" fill="none" stroke="#27AAE1" stroke-width="0.5" x1="263" y1="1126" x2="3036" y2="1126"/>
	<line id="Capline-M" fill="none" stroke="#27AAE1" stroke-width="0.5" x1="263" y1="1055.5400391" x2="3036" y2="1055.5400391"/>
	<g id="H-reference_00000147910759623070285720000009384488714559256219_" transform="matrix(1 0 0 1 339 1556)">
		<path fill="#27AAE1" d="M0.993347,0h2.6443532l25.6904984-67.1325989h0.7019005v-3.3264008h-1.9074001L0.993347,0z
			 M11.6882-24.4797001h35.293602l-0.7507019-2.2490997H12.4382L11.6882-24.4797001z M55.1193008,0h2.6443977L30.6380997-70.4589996
			h-1.2054005v3.3264008L55.1193008,0z"/>
	</g>
	<line id="Baseline-L" fill="none" stroke="#27AAE1" stroke-width="0.5" x1="263" y1="1556" x2="3036" y2="1556"/>
	<line id="Capline-L" fill="none" stroke="#27AAE1" stroke-width="0.5" x1="263" y1="1485.5400391" x2="3036" y2="1485.5400391"/>
	
		<line id="left-margin-Ultralight-S" fill="none" stroke="#00AEEF" stroke-width="0.5" x1="515.6489868" y1="600.7849731" x2="515.6489868" y2="720.1209717"/>
	
		<line id="right-margin-Ultralight-S" fill="none" stroke="#00AEEF" stroke-width="0.5" x1="603.7730103" y1="600.7849731" x2="603.7730103" y2="720.1209717"/>
	
		<line id="left-margin-Regular-S" fill="none" stroke="#00AEEF" stroke-width="0.5" x1="1403.5799561" y1="600.7849731" x2="1403.5799561" y2="720.1209717"/>
	
		<line id="right-margin-Regular-S" fill="none" stroke="#00AEEF" stroke-width="0.5" x1="1496.1099854" y1="600.7849731" x2="1496.1099854" y2="720.1209717"/>
	
		<line id="left-margin-Black-S" fill="none" stroke="#00AEEF" stroke-width="0.5" x1="2884.5700684" y1="600.7849731" x2="2884.5700684" y2="720.1209717"/>
	
		<line id="right-margin-Black-S" fill="none" stroke="#00AEEF" stroke-width="0.5" x1="2982.2299805" y1="600.7849731" x2="2982.2299805" y2="720.1209717"/>
</g>
<g id="Symbols">
	<g id="Black-S" transform="matrix(1 0 0 1 2884.57 696)">
		<path d="M12.7531738,7.7138672H8.8361816v-23.6508789h4.8515625l3.8847656,13.5380859h0.2783203l3.8515625-13.5380859h4.8681641
			V7.7138672h-3.9169922v-7.8017578l0.5898438-9.440918h-0.3447266L19.2766113,2.1577148H16.130127L12.5080566-9.5288086h-0.3447266
			l0.5898438,9.440918V7.7138672z M33.2580566,7.7138672h-4.6552734l7.0966797-23.6508789h5.5078125l7.0966797,23.6508789
			h-5.0322266L38.404541-11.2988281h-0.2138672L33.2580566,7.7138672z M42.8625488,1.9116211h-9.1132812l0.7216797-3.605957
			h7.5058594L42.8625488,1.9116211z M51.9748535,7.7138672V3.7148438h4.9013672v-15.652832h-4.9013672v-3.9990234h14.4570312
			v3.9990234h-4.9013672v15.652832h4.9013672v3.9990234H51.9748535z M71.6604004,7.7138672v-23.6508789h4.1464844L83.935791-0.21875
			h0.2792969v-15.7182617h4.03125V7.7138672h-4.1298828L75.9709473-8.1191406h-0.2792969V7.7138672H71.6604004z"/>
		<path d="M26.084074-60.1476746c3.0957928,3.8189011,6.8864651,6.7960815,11.372015,8.9315338
			s9.1914139,3.2031822,14.1175919,3.2031822c4.0675125,0,8.0107231-0.7287827,11.829628-2.1863365
			c3.8189507-1.4575157,7.2537346-3.5534019,10.3043556-6.2876625l-2.6438828-5.2199326
			c-2.6212845,2.6438789-5.6041107,4.6663246-8.9484673,6.0673256c-3.3444061,1.4010544-6.858284,2.1015816-10.5416336,2.1015816
			c-4.6324425,0-8.9541664-1.0790215-12.9651718-3.2370605c-4.0109634-2.1580391-7.3270874-5.2143097-9.9483814-9.1688118
			L26.084074-60.1476746z M22.9656506-45.4707794c3.5025406,3.1183777,7.3440495,5.5871086,11.5245304,7.4062004
			s8.5134964,2.9772034,12.9990463,3.4743309c4.4855576,0.4971313,8.959816,0.3163414,13.4227791-0.542366
			c4.462925-0.8586617,8.7281456-2.406559,12.7956581-4.6436882l-0.2372742-6.3724174
			c-3.8189468,2.5308609-7.8977509,4.2990913-12.2364159,5.3046913c-4.338665,1.0055962-8.6999092,1.2654533-13.0837402,0.7795677
			c-4.3838806-0.485836-8.598259-1.6947823-12.6431389-3.6268425c-4.0449314-1.9320564-7.6943836-4.5589752-10.9483566-7.8807449
			L22.9656506-45.4707794z M36.5239372-27.0992851l6.5758133,1.3897324
			c-1.2428703-2.5986805-2.1863136-5.3103485-2.8303337-8.1349983c-0.6440201-2.8246422-0.9660301-5.6944771-0.9660301-8.6095047
			c0-4.1578979,0.6327286-8.1632576,1.8981857-12.0160828c1.2654533-3.8528252,3.0958328-7.4231834,5.4911461-10.7110825
			c2.3952675-3.2878952,5.2877083-6.1633987,8.6773262-8.6265106l-5.8301201-2.4404755
			c-3.3217697,2.8020554-6.157711,5.9995728-8.5078049,9.5925369c-2.3501434,3.5929642-4.1466255,7.4401474-5.3894539,11.5415344
			c-1.2428703,4.1013947-1.8643036,8.3214188-1.8643036,12.66008c0,2.5986633,0.2316246,5.1803856,0.6948814,7.7451706
			C34.9364967-32.1440964,35.62006-29.6075649,36.5239372-27.0992851z M54.9293747-24.2859325l5.1521797-2.3388081
			c-2.6438751-3.4347858-4.6606941-7.1859131-6.0504532-11.2533798c-1.3897133-4.0675125-2.0845718-8.2705994-2.0845718-12.6092644
			c0-4.0448837,0.6101189-7.976799,1.8303604-11.7957458c1.2202835-3.8189049,2.9941635-7.3553658,5.3216286-10.6093864
			L53.709137-74.756752c-2.3727264,3.5929184-4.1861496,7.4570389-5.4402695,11.5923538
			c-1.2541618,4.1352615-1.8812408,8.3609352-1.8812408,12.6770134c0,4.7228279,0.7231102,9.310051,2.1693306,13.7616844
			C50.0031776-32.274044,52.1273193-28.1274548,54.9293747-24.2859325z M69.6062775-33.7767296l3.830162-4.2030907
			c-3.050621-1.6044006-5.677536-3.6550941-7.8807449-6.1520805c-2.2032051-2.4969902-3.9036369-5.2990494-5.1012917-8.4061775
			S58.657917-58.90485,58.657917-62.317009c0-3.6833496,0.7344055-7.2988968,2.2032089-10.8466568l-5.2877541-1.4914551
			c-0.8134918,1.9433975-1.4236107,3.9488983-1.8303604,6.01651c-0.4067459,2.0676575-0.6101189,4.1748581-0.6101189,6.3216019
			c0,3.9319191,0.6609573,7.7000046,1.982872,11.3042641c1.3219643,3.6042137,3.2144966,6.8807945,5.6776085,9.8297424
			C63.2564392-38.2340546,66.1940689-35.7652931,69.6062775-33.7767296z M38.1848488-48.2163544
			c1.4914322,0,2.768177-0.5310326,3.8302383-1.5930862c1.0620613-1.0621033,1.5930901-2.3388519,1.5930901-3.8302422
			c0-1.491436-0.5310287-2.7681847-1.5930901-3.8302422s-2.3388062-1.5930862-3.8302383-1.5930862
			c-1.4914398,0-2.7738304,0.5310287-3.8471832,1.5930862c-1.073349,1.0620575-1.6100235,2.3388062-1.6100235,3.8302422
			c0,1.4913902,0.5366745,2.7681389,1.6100235,3.8302422C35.4110184-48.7473869,36.693409-48.2163544,38.1848488-48.2163544z
			 M58.8273697-46.0809021c1.536602,0,2.8416023-0.5366974,3.9150009-1.6100922
			c1.073349-1.0733528,1.6100235-2.3783264,1.6100235-3.9149323s-0.5366745-2.8416023-1.6100235-3.9150009
			c-1.0733986-1.073349-2.3783989-1.6100235-3.9150009-1.6100235s-2.8415794,0.5366745-3.9149323,1.6100235
			c-1.0733948,1.0733986-1.610096,2.3783951-1.610096,3.9150009s0.5367012,2.8415794,1.610096,3.9149323
			C55.9857903-46.6175995,57.2907677-46.0809021,58.8273697-46.0809021z M50.7941093-32.0819435
			c1.5366058,0,2.8359337-0.542347,3.8979912-1.6270332c1.0620613-1.0846443,1.5930901-2.383976,1.5930901-3.897995
			c0-1.536602-0.5366745-2.8472481-1.6100273-3.9319382c-1.0733948-1.0846405-2.3670807-1.6269646-3.8810539-1.6269646
			c-1.5592346,0-2.8811722,0.5423241-3.9658127,1.6269646c-1.0846901,1.0846901-1.6270332,2.3953362-1.6270332,3.9319382
			c0,1.514019,0.5423431,2.8133507,1.6270332,3.897995C47.9129372-32.6242905,49.2348747-32.0819435,50.7941093-32.0819435z
			 M48.8281059-18.8964996c4.0222969,0,7.7903862-0.7570076,11.3042603-2.2710228
			c3.5138779-1.5140095,6.6096916-3.6098976,9.2874489-6.2876663c2.6777573-2.6777573,4.7736359-5.7735748,6.2876587-9.2874527
			c1.5140152-3.5138779,2.271019-7.2819633,2.2710266-11.3042641c-0.0000076-4.0222969-0.7570114-7.7903862-2.2710266-11.3042603
			c-1.5140228-3.5138321-3.6099014-6.609642-6.2876587-9.2874451c-2.6777573-2.6777496-5.773571-4.7736359-9.2874489-6.2876587
			c-3.5138741-1.5140228-7.2819633-2.2710342-11.3042603-2.2710342s-7.7903862,0.7570114-11.3042641,2.2710342
			c-3.5138283,1.5140228-6.6096458,3.6099091-9.2874432,6.2876587c-2.6777554,2.677803-4.7736416,5.773613-6.2876606,9.2874451
			c-1.5140018,3.5138741-2.2710018,7.2819633-2.2710018,11.3042603s0.757,7.7903862,2.2710018,11.3042641
			c1.514019,3.5138779,3.6099052,6.6096954,6.2876606,9.2874527c2.6777973,2.6777687,5.7736149,4.7736568,9.2874432,6.2876663
			C41.0377197-19.6535072,44.8058052-18.8964996,48.8281059-18.8964996z M48.8281059-26.3535767
			c-2.9828224,0-5.7848587-0.56493-8.406105-1.6947861c-2.6212921-1.1298618-4.9262238-2.6890774-6.9147873-4.6776466
			c-1.9885674-1.9885216-3.5477772-4.2934265-4.6776333-6.9147186c-1.129858-2.6212921-1.6947861-5.4233513-1.6947861-8.4061775
			c0-2.9828224,0.5649281-5.7848816,1.6947861-8.4061737c1.1298561-2.6212463,2.6890659-4.9261513,4.6776333-6.9147148
			c1.9885635-1.9885674,4.2934952-3.5477791,6.9147873-4.677639c2.6212463-1.1298599,5.4232826-1.6947861,8.406105-1.6947861
			s5.7848854,0.5649261,8.4061775,1.6947861s4.9261971,2.6890717,6.9147186,4.677639
			c1.9885635,1.9885635,3.5477753,4.2934685,4.6776352,6.9147148c1.1298599,2.6212921,1.6947861,5.4233513,1.6947861,8.4061737
			c0,2.9828262-0.5649261,5.7848854-1.6947861,8.4061775s-2.6890717,4.9261971-4.6776352,6.9147186
			c-1.9885216,1.9885693-4.2934265,3.5477848-6.9147186,4.6776466
			C54.6129913-26.9185066,51.8109283-26.3535767,48.8281059-26.3535767z"/>
	</g>
	<g id="Regular-S" transform="matrix(1 0 0 1 1403.58 696)">
		<path d="M10.9766846,7.7138672H8.5274658v-22.5112305h3.0732422l4.9453125,13.9780273h0.203125l4.9140625-13.9780273h3.0888672
			V7.7138672h-2.4492188v-8.6269531l0.1401367-9.1108398h-0.2026367L17.7164307,2.425293h-2.1533203l-4.5239258-12.4492188
			h-0.2026367l0.1401367,9.1108398V7.7138672z M30.4615479,7.7138672h-2.7924805l7.2543945-22.5112305h2.9326172
			l7.2543945,22.5112305h-2.9018555l-5.8188477-19.2197266h-0.078125L30.4615479,7.7138672z M40.8980713,1.2553711h-8.9389648
			l0.4995117-2.3554688h7.9716797L40.8980713,1.2553711z M50.2115479,7.7138672V5.2490234h4.5551758v-17.581543h-4.5551758
			v-2.4648438h11.8564453v2.4648438h-4.5551758v17.581543h4.5551758v2.4648438H50.2115479z M68.4014893,7.7138672v-22.5112305
			h2.6367188l9.640625,17.534668h0.21875v-17.534668h2.4804688V7.7138672H80.772583l-9.671875-17.565918h-0.21875v17.565918
			H68.4014893z"/>
		<path d="M22.2578926-59.830204c3.3417149,3.8429832,7.3219604,6.820694,11.9407425,8.9331551
			c4.6187325,2.1124573,9.4940834,3.1567574,14.6260567,3.1329041c4.1532974,0,8.1633644-0.710125,12.030201-2.1303749
			c3.8668861-1.4202499,7.3757057-3.4670563,10.5264778-6.1404152l-1.7902069-3.5088539
			c-2.864357,2.5779381-6.0748177,4.5531502-9.6313782,5.9256401s-7.268261,2.0587349-11.1350937,2.0587349
			c-4.8694153,0-9.4762421-1.0681572-13.8204842-3.2044716c-4.344244-2.1363106-7.9962788-5.1379089-10.9561062-9.0047951
			L22.2578926-59.830204z M18.9996967-43.467617c3.6520195,3.1507721,7.644186,5.6511078,11.9765034,7.5010033
			c4.3323174,1.8498497,8.8138275,3.0313683,13.4445343,3.5445633c4.6307106,0.5132389,9.2554283,0.3461761,13.874157-0.501194
			c4.6187363-0.8473663,9.0405579-2.4048615,13.2654724-4.6724777l-0.1789932-4.2965317
			c-4.0816803,2.4347076-8.3841743,4.1234779-12.907486,5.0663185c-4.523262,0.9428406-9.0644379,1.1576653-13.6235275,0.644474
			c-4.5590439-0.5131912-8.9629478-1.730545-13.2117214-3.6520576c-4.2487698-1.9214668-8.1275806-4.5291977-11.6364326-7.823204
			L18.9996967-43.467617z M33.1423569-24.1333256l4.5113792,0.9667168c-1.0980034-2.554039-1.9215164-5.1796951-2.4705391-7.8769646
			c-0.5489769-2.6972675-0.835392-5.430315-0.8592453-8.199152c-0.0477638-4.4636154,0.5549393-8.7840042,1.8081017-12.9611626
			c1.2531586-4.1771545,3.1030312-8.0798187,5.5496178-11.7079964c2.4466324-3.6281853,5.412426-6.8386421,8.8973694-9.631382
			l-3.9026184-1.6469193c-3.4849472,3.0313873-6.4388046,6.4566498-8.8615875,10.2757721
			c-2.4227257,3.8191223-4.2547073,7.9007988-5.4959412,12.2450447c-1.2412338,4.3442955-1.8379688,8.8198433-1.7902088,13.4266434
			c0,2.5540352,0.2207851,5.0961418,0.6623631,7.6263199C31.6326256-29.0862484,32.2830582-26.5918884,33.1423569-24.1333256z
			 M51.6174278-21.4838123l3.5087776-1.6111927c-2.6733627-3.6997757-4.7141991-7.7098598-6.1225243-12.0302505
			s-2.112484-8.7601013-2.112484-13.3191452c0-4.2965355,0.6086922-8.4617844,1.8260689-12.4957542
			c1.2173309-4.0339279,3.0075417-7.8052902,5.3706284-11.3140869l-3.723629-1.2890244
			c-2.3869438,3.7714081-4.1950722,7.787468-5.4243736,12.0481682c-1.2292595,4.2607002-1.8438873,8.6109314-1.8438873,13.0506973
			c0,4.8693619,0.7220535,9.5895538,2.1661568,14.1605721C46.7062683-29.7128239,48.8246918-25.4461517,51.6174278-21.4838123z
			 M68.0515823-31.831255l2.5778961-2.8643055c-3.174675-1.8379707-5.907753-4.1234779-8.1992264-6.8565292
			s-4.0578041-5.7764206-5.2989883-9.1301117c-1.2412338-3.3536873-1.8737755-6.8565559-1.8976326-10.5085869
			c0.0000038-3.9145966,0.6802788-7.6382217,2.0408401-11.1708755l-3.6520576-1.002533
			c-0.7399216,1.9334412-1.2889252,3.9146194-1.6470032,5.9435272c-0.3580322,2.0288696-0.5370483,4.1054993-0.5370483,6.2298813
			c0,4.0101128,0.668354,7.8590813,2.0050583,11.5468979c1.3367081,3.68787,3.2462654,7.0594521,5.7286835,10.1147499
			C61.6545258-36.4738426,64.6143494-33.9078789,68.0515823-31.831255z M34.1807442-48.1579857
			c1.2650375,0,2.3451233-0.447567,3.2402534-1.3426971c0.8951263-0.8950768,1.3426895-1.9751625,1.3426895-3.2402534
			c0-1.2650871-0.4475632-2.3451996-1.3426895-3.2403259c-0.8951302-0.8950768-1.9752159-1.3426208-3.2402534-1.3426208
			c-1.2650909,0-2.3451977,0.4475441-3.2403297,1.3426208c-0.8950806,0.8951263-1.3426189,1.9752388-1.3426189,3.2403259
			c0,1.2650909,0.4475384,2.3451767,1.3426189,3.2402534C31.8355465-48.6055527,32.9156532-48.1579857,34.1807442-48.1579857z
			 M55.6991119-45.902298c1.2411842,0,2.3093376-0.4475632,3.2044678-1.3426895
			c0.8950844-0.8951302,1.3426208-1.9752159,1.3426208-3.2402573c0-1.24123-0.4475365-2.3094139-1.3426208-3.2045441
			c-0.8951302-0.8950768-1.9632835-1.3426208-3.2044678-1.3426208c-1.2650871,0-2.3451996,0.4475441-3.2403297,1.3426208
			c-0.8950806,0.8951302-1.342617,1.9633141-1.342617,3.2045441c0,1.2650414,0.4475365,2.3451271,1.342617,3.2402573
			C53.3539124-46.3498611,54.4340248-45.902298,55.6991119-45.902298z M47.1776886-29.6472054
			c1.2411842,0,2.3093414-0.4475403,3.2044716-1.3426208c0.8950768-0.8951283,1.342617-1.9752388,1.342617-3.2403259
			c0-1.2411842-0.4475403-2.3093414-1.342617-3.2044716c-0.8951302-0.8950768-1.9632874-1.3426208-3.2044716-1.3426208
			c-1.2889938,0-2.381031,0.4475441-3.2761116,1.3426208c-0.8951302,0.8951302-1.3426933,1.9632874-1.3426933,3.2044716
			c0,1.2650871,0.4475632,2.3451977,1.3426933,3.2403259C44.7966576-30.0947456,45.8886948-29.6472054,47.1776886-29.6472054z
			 M46.246727-18.8701c3.9623528,0,7.6860046-0.7518902,11.1709518-2.2556686
			c3.484951-1.5037785,6.5581589-3.5923615,9.2196426-6.2657471c2.661438-2.6734104,4.7500153-5.7525883,6.2657318-9.2375355
			s2.2735825-7.1966438,2.2735825-11.1350937s-0.7578659-7.6501732-2.2735825-11.13517
			c-1.5157166-3.4849434-3.6102829-6.5641022-6.283699-9.2374649c-2.6733551-2.6734009-5.7525139-4.7619858-9.2374573-6.2657318
			c-3.4849472-1.5037994-7.2085991-2.2556915-11.1709557-2.2556915c-3.9384499,0-7.6501465,0.7518921-11.1350937,2.2556915
			c-3.4849453,1.503746-6.5521984,3.5923309-9.2017517,6.2657318c-2.6495056,2.6733627-4.7321148,5.7525215-6.2478275,9.2374649
			c-1.5157108,3.4849968-2.2735672,7.1967163-2.2735672,11.13517s0.7578564,7.6501465,2.2735672,11.1350937
			c1.5157127,3.4849472,3.6042843,6.5641251,6.2657185,9.2375355c2.6614819,2.6733856,5.7346973,4.7619686,9.2196426,6.2657471
			S42.3082771-18.8701,46.246727-18.8701z M46.246727-23.1666088c-3.341713,0-6.492485-0.6444778-9.4523087-1.9334335
			c-2.9598274-1.2889538-5.5735512-3.0672359-7.8411694-5.3348446c-2.2675705-2.2676163-4.045826-4.8873024-5.3347702-7.8590584
			c-1.2889938-2.9717522-1.9334908-6.1284866-1.9334908-9.4701996c0-3.3417168,0.6385078-6.4984512,1.9155254-9.4702034
			c1.2770653-2.971756,3.0493832-5.5914421,5.3169537-7.8590584c2.2676163-2.2676163,4.8813381-4.0458984,7.8411655-5.3348465
			c2.9598236-1.2889404,6.1105957-1.9334106,9.4523087-1.9334106c3.3656197,0,6.5283432,0.6444702,9.4881706,1.9334106
			c2.9597778,1.2889481,5.5794373,3.0672302,7.8589859,5.3348465s4.0637894,4.8873024,5.3527298,7.8590584
			c1.2890015,2.9717522,1.9334946,6.1284866,1.9334946,9.4702034c0,3.341713-0.6444931,6.4984474-1.9334946,9.4701996
			c-1.2889404,2.971756-3.0672226,5.5914421-5.3348389,7.8590584c-2.2675705,2.2676086-4.8812675,4.0458908-7.841095,5.3348446
			C52.7750702-23.8110867,49.6123466-23.1666088,46.246727-23.1666088z"/>
	</g>
	<g id="Ultralight-S" transform="matrix(1 0 0 1 515.649 696)">
		<path d="M10.6864624,7.7138672H8.8158569v-21.0864258h2.3530273l5.0703125,13.5605469h0.1611328l5.0410156-13.5605469h2.3676758
			V7.7138672h-1.8706055v-8.6069336v-8.5922852h-0.1459961L17.1747437,2.7602539h-1.7246094L10.8324585-9.4853516h-0.1459961
			v8.5922852V7.7138672z M28.9232788,7.7138672h-2.0458984l6.9560547-21.0864258h1.9580078l6.9560547,21.0864258h-2.0458984
			l-5.8745117-18.4707031h-0.0292969L28.9232788,7.7138672z M39.1522827,1.2548828h-8.4750977l0.3945312-1.7241211h7.7739258
			L39.1522827,1.2548828z M48.0809937,7.7138672V5.9897461h4.237793v-17.6381836h-4.237793v-1.7241211h10.4628906v1.7241211
			h-4.237793V5.9897461h4.237793v1.7241211H48.0809937z M64.9296265,7.7138672v-21.0864258h2.03125l9.6738281,17.5063477h0.1899414
			v-17.5063477h1.8706055V7.7138672h-1.9873047L66.9901733-9.8071289h-0.1899414V7.7138672H64.9296265z"/>
		<path d="M17.4932728-62.3730545c4.4141788,3.3219528,9.3337669,5.8987846,14.7587681,7.7304916
			c5.4250488,1.8317108,11.1100197,2.7105904,17.0549126,2.6366539c4.1151428-0.0480919,8.0811157-0.5709763,11.8979149-1.5686607
			c3.8167458-0.9976807,7.4198647-2.3915634,10.8093452-4.1816406l-0.5322113-1.637146
			c-3.3199387,1.7589378-6.8464661,3.1293793-10.5795822,4.1113319c-3.7331161,0.9819031-7.610218,1.5090256-11.6312981,1.5813751
			c-5.8288994,0.120018-11.3913918-0.7367287-16.6874771-2.5702362c-5.2961369-1.8335648-10.1005802-4.4002037-14.4133339-7.6999092
			L17.4932728-62.3730545z M15.5142403-46.7375259c3.9087124,3.2694702,8.1498699,5.870266,12.7234707,7.8023949
			c4.5736027,1.9321251,9.2848034,3.1941795,14.133604,3.7861595c4.8488045,0.5919762,9.6910362,0.5071297,14.5267067-0.2545471
			c4.8356667-0.7617264,9.5062752-2.1905899,14.0118141-4.2865868l0.2751999-2.0577354
			c-4.4946365,2.2531433-9.1863441,3.7882538-14.0751343,4.6053276c-4.8888435,0.8170242-9.7788773,0.923481-14.6701012,0.3193741
			c-4.8912315-0.6040535-9.6264763-1.9169006-14.2057438-3.9385376c-4.5792675-2.0216331-8.8177929-4.744751-12.7155733-8.1693535
			L15.5142403-46.7375259z M29.430275-26.0425606l2.0735416,0.9031258
			c-0.3717556-1.0114212-0.6926918-2.0403194-0.9628067-3.0866909c-0.2701683-1.0463734-0.5143318-2.1074009-0.7324924-3.1830845
			c-1.2304592-6.0147514-1.3832092-11.928318-0.4582443-17.7406921c0.9249115-5.8123245,2.7728767-11.2611847,5.5439034-16.3465729
			c2.7710228-5.0853958,6.2848396-9.5498886,10.5414543-13.3934937l-2.0996819-0.3776779
			c-4.1846886,4.0060883-7.6135254,8.5831604-10.2865105,13.7312088c-2.672987,5.147995-4.453373,10.6465569-5.341156,16.4956932
			c-0.8877831,5.8490791-0.7285709,11.8224411,0.4776287,17.9200821c0.1442223,0.842907,0.3232155,1.6970329,0.5369759,2.5623798
			C28.9366512-27.6929398,29.1724453-26.8543663,29.430275-26.0425606z M49.5912094-22.4500599l1.7092819-0.5194492
			c-2.583744-3.9604206-4.590416-8.2630024-6.0200195-12.9077454c-1.4296608-4.6447334-2.1444855-9.4970551-2.1444855-14.5569725
			c0-5.0397377,0.7075424-9.8711662,2.1226349-14.4942932c1.4150925-4.6231155,3.4146957-8.9197464,5.9988098-12.8898773
			l-1.5086784-0.7109604c-2.6342201,4.062233-4.6774635,8.4736099-6.1297379,13.2341156
			c-1.4522705,4.7605133-2.1784096,9.7141838-2.1784096,14.8610153c0,5.1314163,0.7101936,10.0651741,2.1305847,14.8012695
			C44.9915276-30.8969116,46.9981995-26.5026112,49.5912094-22.4500599z M67.9379959-34.1664658l0.8449097-1.407383
			c-3.2233353-1.8232346-6.0763512-4.1252098-8.5590401-6.9059258c-2.4826813-2.7807159-4.4565468-5.9216385-5.9215851-9.4227753
			c-1.4649811-3.5011826-2.3065796-7.2422981-2.5247955-11.2233391c-0.2646599-4.745945,0.4602585-9.309269,2.1747551-13.6899757
			l-1.6116409-0.5454788c-0.8498077,2.2151718-1.4686661,4.5300674-1.8565712,6.9446945
			c-0.3879089,2.4145737-0.5216713,4.8810043-0.4012833,7.3992844c0.216198,4.1523247,1.0965919,8.0639305,2.6411819,11.7348099
			c1.5446434,3.6709366,3.6196098,6.9690857,6.2249146,9.8944473
			C61.5541916-38.4627457,64.5505753-36.0555305,67.9379959-34.1664658z M30.3025131-52.0720062
			c1.0340176,0,1.9277306-0.3766022,2.6811447-1.1298027c0.7534103-0.7532005,1.1301193-1.6589661,1.1301193-2.7172928
			c0-1.0578499-0.376709-1.9574165-1.1301193-2.6987c-0.7534142-0.7413406-1.6471272-1.112011-2.6811447-1.1120071
			c-1.082159-0.0000038-1.9998417,0.3706665-2.7530422,1.1120071c-0.7532024,0.7412834-1.1298027,1.6408501-1.1298027,2.6987
			c0,1.0583267,0.3766003,1.9640923,1.1298027,2.7172928C28.3026714-52.4486084,29.2203541-52.0720062,30.3025131-52.0720062z
			 M53.4364777-49.1225739c0.9596519,0,1.7861023-0.3406372,2.479351-1.0219116
			c0.6931915-0.6813316,1.0397911-1.5149574,1.0397911-2.5008812c0-0.9358749-0.3465996-1.750412-1.0397911-2.4436035
			c-0.6932487-0.6931915-1.5196991-1.0397873-2.479351-1.0397873c-0.9621429,0-1.7898102,0.3465958-2.4830055,1.0397873
			c-0.6931915,0.6931915-1.0397873,1.5077286-1.0397873,2.4436035c0,0.9859238,0.3465958,1.8195496,1.0397873,2.5008812
			C51.6466675-49.4632111,52.4743347-49.1225739,53.4364777-49.1225739z M45.2501221-31.7637787
			c1.0558891,0,1.9485168-0.3646812,2.677887-1.0940514c0.7293663-0.7293663,1.0940475-1.6230011,1.0940514-2.6809044
			c-0.0000038-1.056263-0.3646851-1.9489708-1.0940514-2.6781273c-0.7293701-0.7292061-1.6219978-1.093811-2.677887-1.093811
			c-1.0599174,0-1.9545555,0.3646049-2.6839256,1.093811c-0.7293663,0.7291565-1.0940514,1.6218643-1.0940514,2.6781273
			c0,1.0579033,0.3646851,1.9515381,1.0940514,2.6809044C43.2955666-32.1284599,44.1902046-31.7637787,45.2501221-31.7637787z
			 M44.060894-20.7007847c4.0763741,0,7.8942566-0.7665462,11.4536552-2.2996368
			c3.559391-1.5330906,6.7026443-3.663723,9.4297638-6.3918934c2.7271729-2.7281761,4.857811-5.8718529,6.3919144-9.4310379
			c1.5340958-3.5591278,2.3011475-7.3760834,2.3011475-11.4508705s-0.7670517-7.8917694-2.3011475-11.4509506
			c-1.5341034-3.5591278-3.6651459-6.7027817-6.3931046-9.430954c-2.7279663-2.7281799-5.8716431-4.8588181-9.4310379-6.3919144
			c-3.5593414-1.5330963-7.3771973-2.2996445-11.4535751-2.2996445c-4.0747871,0-7.897831,0.7665482-11.4691429,2.2996445
			c-3.5712566,1.5330963-6.7141151,3.6637344-9.4285736,6.3919144c-2.714407,2.7281723-4.8385658,5.8718262-6.3724766,9.430954
			c-1.5339012,3.5591812-2.3008518,7.3761635-2.3008518,11.4509506s0.7669506,7.8917427,2.3008518,11.4508705
			c1.5339108,3.559185,3.6584682,6.7028618,6.3736668,9.4310379c2.7152538,2.7281704,5.8585377,4.8588028,9.4298477,6.3918934
			C36.1630859-21.4673309,39.9861069-20.7007847,44.060894-20.7007847z M44.060894-22.3973274
			c-3.8371887,0-7.4372597-0.7222977-10.800209-2.166893c-3.3630009-1.4445992-6.3270531-3.4494724-8.8921547-6.0146198
			c-2.5651531-2.5650997-4.5700245-5.5296535-6.0146198-8.8936634c-1.444582-3.3639565-2.1668739-6.9645309-2.1668739-10.8017197
			s0.7217884-7.4377899,2.1653652-10.8017998c1.4435883-3.3639488,3.447958-6.3285103,6.0131111-8.8936577
			c2.5650978-2.5651016,5.5292301-4.5699539,8.8923912-6.0145493c3.3632164-1.4445953,6.9634171-2.1668854,10.8006058-2.1668854
			c3.8387794,0,7.4396744,0.72229,10.8026733,2.1668854c3.3629494,1.4445953,6.327507,3.4494476,8.8936653,6.0145493
			c2.5661049,2.5651474,4.5714531,5.5297089,6.0160484,8.8936577c1.4445877,3.3640099,2.1668854,6.9646111,2.1668854,10.8017998
			s-0.7222977,7.4377632-2.1668854,10.8017197c-1.4445953,3.3640099-3.44944,6.3285637-6.0145378,8.8936634
			c-2.5651512,2.5651474-5.5293121,4.5700207-8.8924751,6.0146198
			C51.5006714-23.1196251,47.8996773-22.3973274,44.060894-22.3973274z"/>
	</g>
</g>
</svg>
