<?xml version="1.0" encoding="UTF-8"?>
<!--Generator: Apple Native CoreSVG 175-->
<!DOCTYPE svg
PUBLIC "-//W3C//DTD SVG 1.1//EN"
       "http://www.w3.org/Graphics/SVG/1.1/DTD/svg11.dtd">
<svg version="1.1" xmlns="http://www.w3.org/2000/svg" xmlns:xlink="http://www.w3.org/1999/xlink" width="3300" height="2200">
 <!--glyph: "uni100906.medium", point size: 100.0, font version: "17.1d1e1", template writer version: "65.1"-->
 <g id="Notes">
  <rect height="2200" id="artboard" style="fill:white;opacity:1" width="3300" x="0" y="0"/>
  <line style="fill:none;stroke:black;opacity:1;stroke-width:0.5;" x1="263" x2="3036" y1="292" y2="292"/>
  <text style="stroke:none;fill:black;font-family:sans-serif;font-size:13;font-weight:bold;" transform="matrix(1 0 0 1 263 322)">Weight/Scale Variations</text>
  <text style="stroke:none;fill:black;font-family:sans-serif;font-size:13;text-anchor:middle;" transform="matrix(1 0 0 1 559.711 322)">Ultralight</text>
  <text style="stroke:none;fill:black;font-family:sans-serif;font-size:13;text-anchor:middle;" transform="matrix(1 0 0 1 856.422 322)">Thin</text>
  <text style="stroke:none;fill:black;font-family:sans-serif;font-size:13;text-anchor:middle;" transform="matrix(1 0 0 1 1153.13 322)">Light</text>
  <text style="stroke:none;fill:black;font-family:sans-serif;font-size:13;text-anchor:middle;" transform="matrix(1 0 0 1 1449.84 322)">Regular</text>
  <text style="stroke:none;fill:black;font-family:sans-serif;font-size:13;text-anchor:middle;" transform="matrix(1 0 0 1 1746.56 322)">Medium</text>
  <text style="stroke:none;fill:black;font-family:sans-serif;font-size:13;text-anchor:middle;" transform="matrix(1 0 0 1 2043.27 322)">Semibold</text>
  <text style="stroke:none;fill:black;font-family:sans-serif;font-size:13;text-anchor:middle;" transform="matrix(1 0 0 1 2339.98 322)">Bold</text>
  <text style="stroke:none;fill:black;font-family:sans-serif;font-size:13;text-anchor:middle;" transform="matrix(1 0 0 1 2636.69 322)">Heavy</text>
  <text style="stroke:none;fill:black;font-family:sans-serif;font-size:13;text-anchor:middle;" transform="matrix(1 0 0 1 2933.4 322)">Black</text>
  <line style="fill:none;stroke:black;opacity:1;stroke-width:0.5;" x1="263" x2="3036" y1="1903" y2="1903"/>
  <g transform="matrix(1 0 0 1 263 1933)">
   <path d="M9.24805 0.830078Q10.8691 0.830078 12.2949 0.214844Q13.7207-0.400391 14.8096-1.49414Q15.8984-2.58789 16.5186-4.01367Q17.1387-5.43945 17.1387-7.05078Q17.1387-8.66211 16.5186-10.0879Q15.8984-11.5137 14.8047-12.6074Q13.7109-13.7012 12.2852-14.3164Q10.8594-14.9316 9.23828-14.9316Q7.62695-14.9316 6.20117-14.3164Q4.77539-13.7012 3.69141-12.6074Q2.60742-11.5137 1.9873-10.0879Q1.36719-8.66211 1.36719-7.05078Q1.36719-5.43945 1.9873-4.01367Q2.60742-2.58789 3.69629-1.49414Q4.78516-0.400391 6.21094 0.214844Q7.63672 0.830078 9.24805 0.830078ZM9.24805-0.654297Q7.91992-0.654297 6.7627-1.14746Q5.60547-1.64062 4.73145-2.51953Q3.85742-3.39844 3.36426-4.56055Q2.87109-5.72266 2.87109-7.05078Q2.87109-8.37891 3.35938-9.54102Q3.84766-10.7031 4.72168-11.582Q5.5957-12.4609 6.75293-12.9541Q7.91016-13.4473 9.23828-13.4473Q10.5762-13.4473 11.7334-12.9541Q12.8906-12.4609 13.7695-11.582Q14.6484-10.7031 15.1465-9.54102Q15.6445-8.37891 15.6445-7.05078Q15.6445-5.72266 15.1514-4.56055Q14.6582-3.39844 13.7842-2.51953Q12.9102-1.64062 11.748-1.14746Q10.5859-0.654297 9.24805-0.654297ZM5.6543-7.05078Q5.6543-6.72852 5.85938-6.52832Q6.06445-6.32812 6.40625-6.32812L8.51562-6.32812L8.51562-4.20898Q8.51562-3.88672 8.71094-3.67676Q8.90625-3.4668 9.23828-3.4668Q9.56055-3.4668 9.77051-3.67676Q9.98047-3.88672 9.98047-4.20898L9.98047-6.32812L12.0898-6.32812Q12.4219-6.32812 12.627-6.52832Q12.832-6.72852 12.832-7.05078Q12.832-7.38281 12.627-7.58789Q12.4219-7.79297 12.0898-7.79297L9.98047-7.79297L9.98047-9.90234Q9.98047-10.2344 9.77051-10.4443Q9.56055-10.6543 9.23828-10.6543Q8.90625-10.6543 8.71094-10.4443Q8.51562-10.2344 8.51562-9.90234L8.51562-7.79297L6.40625-7.79297Q6.06445-7.79297 5.85938-7.58789Q5.6543-7.38281 5.6543-7.05078Z"/>
  </g>
  <g transform="matrix(1 0 0 1 281.867 1933)">
   <path d="M11.709 2.91016Q13.75 2.91016 15.5518 2.12891Q17.3535 1.34766 18.7305-0.0292969Q20.1074-1.40625 20.8887-3.20801Q21.6699-5.00977 21.6699-7.05078Q21.6699-9.0918 20.8887-10.8936Q20.1074-12.6953 18.7305-14.0723Q17.3535-15.4492 15.5469-16.2305Q13.7402-17.0117 11.6992-17.0117Q9.6582-17.0117 7.85645-16.2305Q6.05469-15.4492 4.68262-14.0723Q3.31055-12.6953 2.5293-10.8936Q1.74805-9.0918 1.74805-7.05078Q1.74805-5.00977 2.5293-3.20801Q3.31055-1.40625 4.6875-0.0292969Q6.06445 1.34766 7.86621 2.12891Q9.66797 2.91016 11.709 2.91016ZM11.709 1.25Q9.98047 1.25 8.47656 0.605469Q6.97266-0.0390625 5.83496-1.17676Q4.69727-2.31445 4.05762-3.81836Q3.41797-5.32227 3.41797-7.05078Q3.41797-8.7793 4.05762-10.2832Q4.69727-11.7871 5.83008-12.9297Q6.96289-14.0723 8.4668-14.7119Q9.9707-15.3516 11.6992-15.3516Q13.4277-15.3516 14.9316-14.7119Q16.4355-14.0723 17.5781-12.9297Q18.7207-11.7871 19.3652-10.2832Q20.0098-8.7793 20.0098-7.05078Q20.0098-5.32227 19.3701-3.81836Q18.7305-2.31445 17.5928-1.17676Q16.4551-0.0390625 14.9463 0.605469Q13.4375 1.25 11.709 1.25ZM7.17773-7.05078Q7.17773-6.69922 7.41211-6.47461Q7.64648-6.25 8.01758-6.25L10.8887-6.25L10.8887-3.36914Q10.8887-2.99805 11.1133-2.76855Q11.3379-2.53906 11.6895-2.53906Q12.0605-2.53906 12.29-2.76855Q12.5195-2.99805 12.5195-3.36914L12.5195-6.25L15.4004-6.25Q15.7715-6.25 16.001-6.47461Q16.2305-6.69922 16.2305-7.05078Q16.2305-7.42188 16.001-7.65137Q15.7715-7.88086 15.4004-7.88086L12.5195-7.88086L12.5195-10.752Q12.5195-11.1328 12.29-11.3623Q12.0605-11.5918 11.6895-11.5918Q11.3379-11.5918 11.1133-11.3574Q10.8887-11.123 10.8887-10.752L10.8887-7.88086L8.01758-7.88086Q7.63672-7.88086 7.40723-7.65137Q7.17773-7.42188 7.17773-7.05078Z"/>
  </g>
  <g transform="matrix(1 0 0 1 305.646 1933)">
   <path d="M14.9707 5.66406Q17.0605 5.66406 18.96 5.01465Q20.8594 4.36523 22.4512 3.19336Q24.043 2.02148 25.2197 0.429688Q26.3965-1.16211 27.0459-3.06641Q27.6953-4.9707 27.6953-7.05078Q27.6953-9.14062 27.0459-11.04Q26.3965-12.9395 25.2197-14.5312Q24.043-16.123 22.4512-17.2998Q20.8594-18.4766 18.9551-19.126Q17.0508-19.7754 14.9609-19.7754Q12.8711-19.7754 10.9717-19.126Q9.07227-18.4766 7.48535-17.2998Q5.89844-16.123 4.72168-14.5312Q3.54492-12.9395 2.90039-11.04Q2.25586-9.14062 2.25586-7.05078Q2.25586-4.9707 2.90527-3.06641Q3.55469-1.16211 4.72656 0.429688Q5.89844 2.02148 7.49023 3.19336Q9.08203 4.36523 10.9814 5.01465Q12.8809 5.66406 14.9707 5.66406ZM14.9707 3.84766Q13.1641 3.84766 11.5283 3.2959Q9.89258 2.74414 8.53516 1.74805Q7.17773 0.751953 6.17676-0.610352Q5.17578-1.97266 4.62891-3.6084Q4.08203-5.24414 4.08203-7.05078Q4.08203-8.86719 4.62891-10.5029Q5.17578-12.1387 6.17188-13.501Q7.16797-14.8633 8.52539-15.8594Q9.88281-16.8555 11.5186-17.4023Q13.1543-17.9492 14.9609-17.9492Q16.7773-17.9492 18.4131-17.4023Q20.0488-16.8555 21.4111-15.8594Q22.7734-14.8633 23.7695-13.501Q24.7656-12.1387 25.3174-10.5029Q25.8691-8.86719 25.8691-7.05078Q25.8789-5.24414 25.332-3.6084Q24.7852-1.97266 23.7842-0.610352Q22.7832 0.751953 21.4209 1.74805Q20.0586 2.74414 18.4229 3.2959Q16.7871 3.84766 14.9707 3.84766ZM9.19922-7.05078Q9.19922-6.66992 9.45801-6.4209Q9.7168-6.17188 10.1172-6.17188L14.0625-6.17188L14.0625-2.2168Q14.0625-1.81641 14.3115-1.55762Q14.5605-1.29883 14.9512-1.29883Q15.3516-1.29883 15.6104-1.55273Q15.8691-1.80664 15.8691-2.2168L15.8691-6.17188L19.8242-6.17188Q20.2246-6.17188 20.4785-6.4209Q20.7324-6.66992 20.7324-7.05078Q20.7324-7.46094 20.4785-7.71484Q20.2246-7.96875 19.8242-7.96875L15.8691-7.96875L15.8691-11.9141Q15.8691-12.3242 15.6104-12.583Q15.3516-12.8418 14.9512-12.8418Q14.5605-12.8418 14.3115-12.583Q14.0625-12.3242 14.0625-11.9141L14.0625-7.96875L10.1172-7.96875Q9.70703-7.96875 9.45312-7.71484Q9.19922-7.46094 9.19922-7.05078Z"/>
  </g>
  <text style="stroke:none;fill:black;font-family:sans-serif;font-size:13;font-weight:bold;" transform="matrix(1 0 0 1 263 1953)">Design Variations</text>
  <text style="stroke:none;fill:black;font-family:sans-serif;font-size:13;" transform="matrix(1 0 0 1 263 1971)">Symbols are supported in up to nine weights and three scales.</text>
  <text style="stroke:none;fill:black;font-family:sans-serif;font-size:13;" transform="matrix(1 0 0 1 263 1989)">For optimal layout with text and other symbols, vertically align</text>
  <text style="stroke:none;fill:black;font-family:sans-serif;font-size:13;" transform="matrix(1 0 0 1 263 2007)">symbols with the adjacent text.</text>
  <line style="fill:none;stroke:#00AEEF;stroke-width:0.5;opacity:1.0;" x1="776" x2="776" y1="1919" y2="1933"/>
  <g transform="matrix(1 0 0 1 776 1933)">
   <path d="M3.31055 0.15625Q3.70117 0.15625 3.91602-0.00976562Q4.13086-0.175781 4.26758-0.585938L5.52734-4.0332L11.2891-4.0332L12.5488-0.585938Q12.6855-0.175781 12.9004-0.00976562Q13.1152 0.15625 13.4961 0.15625Q13.8867 0.15625 14.1162-0.0585938Q14.3457-0.273438 14.3457-0.644531Q14.3457-0.869141 14.2383-1.17188L9.6582-13.3691Q9.48242-13.8184 9.17969-14.043Q8.87695-14.2676 8.4082-14.2676Q7.5-14.2676 7.17773-13.3789L2.59766-1.16211Q2.49023-0.859375 2.49023-0.634766Q2.49023-0.263672 2.70996-0.0537109Q2.92969 0.15625 3.31055 0.15625ZM6.00586-5.51758L8.37891-12.0898L8.42773-12.0898L10.8008-5.51758Z"/>
  </g>
  <line style="fill:none;stroke:#00AEEF;stroke-width:0.5;opacity:1.0;" x1="793.197" x2="793.197" y1="1919" y2="1933"/>
  <text style="stroke:none;fill:black;font-family:sans-serif;font-size:13;font-weight:bold;" transform="matrix(1 0 0 1 776 1953)">Margins</text>
  <text style="stroke:none;fill:black;font-family:sans-serif;font-size:13;" transform="matrix(1 0 0 1 776 1971)">Leading and trailing margins on the left and right side of each symbol</text>
  <text style="stroke:none;fill:black;font-family:sans-serif;font-size:13;" transform="matrix(1 0 0 1 776 1989)">can be adjusted by modifying the x-location of the margin guidelines.</text>
  <text style="stroke:none;fill:black;font-family:sans-serif;font-size:13;" transform="matrix(1 0 0 1 776 2007)">Modifications are automatically applied proportionally to all</text>
  <text style="stroke:none;fill:black;font-family:sans-serif;font-size:13;" transform="matrix(1 0 0 1 776 2025)">scales and weights.</text>
  <g transform="matrix(1 0 0 1 1289 1933)">
   <path d="M2.8418 1.86523L4.54102 3.57422Q5.18555 4.22852 5.90332 4.17969Q6.62109 4.13086 7.31445 3.35938L18.0078-8.42773L17.041-9.4043L6.42578 2.27539Q6.16211 2.57812 5.89355 2.61719Q5.625 2.65625 5.27344 2.30469L4.10156 1.14258Q3.75 0.791016 3.79395 0.522461Q3.83789 0.253906 4.14062-0.0195312L15.6152-10.8203L14.6387-11.7871L3.04688-0.898438Q2.30469-0.214844 2.25098 0.498047Q2.19727 1.21094 2.8418 1.86523ZM9.25781-16.3281Q8.94531-16.0254 8.90625-15.6348Q8.86719-15.2441 9.04297-14.9512Q9.21875-14.6777 9.55566-14.541Q9.89258-14.4043 10.3809-14.5215Q11.4746-14.7754 12.5977-14.7314Q13.7207-14.6875 14.7949-13.9844L14.209-12.5293Q13.9551-11.9043 14.0674-11.4404Q14.1797-10.9766 14.5801-10.5664L16.875-8.25195Q17.2363-7.88086 17.5781-7.82227Q17.9199-7.76367 18.3398-7.8418L19.4043-8.03711L20.0684-7.36328L20.0293-6.80664Q20-6.43555 20.1221-6.12305Q20.2441-5.81055 20.6055-5.44922L21.3672-4.70703Q21.7285-4.3457 22.1533-4.33105Q22.5781-4.31641 22.9297-4.66797L25.8398-7.58789Q26.1914-7.93945 26.1816-8.35449Q26.1719-8.76953 25.8105-9.13086L25.0391-9.89258Q24.6875-10.2539 24.3799-10.3857Q24.0723-10.5176 23.7109-10.4883L23.1348-10.4395L22.4902-11.0742L22.7344-12.1973Q22.832-12.6172 22.6953-12.9834Q22.5586-13.3496 22.1191-13.7891L19.9219-15.9766Q18.6719-17.2168 17.2607-17.8369Q15.8496-18.457 14.4189-18.4814Q12.9883-18.5059 11.665-17.959Q10.3418-17.4121 9.25781-16.3281ZM10.752-15.957Q11.6602-16.6211 12.7002-16.9043Q13.7402-17.1875 14.8047-17.085Q15.8691-16.9824 16.8701-16.5137Q17.8711-16.0449 18.7012-15.2051L21.1328-12.793Q21.3086-12.6172 21.3525-12.4512Q21.3965-12.2852 21.3379-12.0312L21.0156-10.5469L22.5195-9.0625L23.5059-9.12109Q23.6914-9.13086 23.7891-9.09668Q23.8867-9.0625 24.0332-8.91602L24.6094-8.33984L22.168-5.89844L21.5918-6.47461Q21.4453-6.62109 21.4062-6.71875Q21.3672-6.81641 21.377-7.01172L21.4453-7.98828L19.9512-9.47266L18.4277-9.21875Q18.1836-9.16992 18.042-9.2041Q17.9004-9.23828 17.7148-9.41406L15.7129-11.416Q15.5176-11.5918 15.4932-11.7529Q15.4688-11.9141 15.5859-12.1875L16.4648-14.2773Q15.293-15.3711 13.8281-15.791Q12.3633-16.2109 10.8398-15.7617Q10.7227-15.7324 10.6885-15.8057Q10.6543-15.8789 10.752-15.957Z"/>
  </g>
  <text style="stroke:none;fill:black;font-family:sans-serif;font-size:13;font-weight:bold;" transform="matrix(1 0 0 1 1289 1953)">Exporting</text>
  <text style="stroke:none;fill:black;font-family:sans-serif;font-size:13;" transform="matrix(1 0 0 1 1289 1971)">Symbols should be outlined when exporting to ensure the</text>
  <text style="stroke:none;fill:black;font-family:sans-serif;font-size:13;" transform="matrix(1 0 0 1 1289 1989)">design is preserved when submitting to Xcode.</text>
  <text id="template-version" style="stroke:none;fill:black;font-family:sans-serif;font-size:13;text-anchor:end;" transform="matrix(1 0 0 1 3036 1933)">Template v.3.0</text>
  <text style="stroke:none;fill:black;font-family:sans-serif;font-size:13;text-anchor:end;" transform="matrix(1 0 0 1 3036 1951)">Requires Xcode 13 or greater</text>
  <text id="descriptive-name" style="stroke:none;fill:black;font-family:sans-serif;font-size:13;text-anchor:end;" transform="matrix(1 0 0 1 3036 1969)">Generated from network</text>
  <text style="stroke:none;fill:black;font-family:sans-serif;font-size:13;text-anchor:end;" transform="matrix(1 0 0 1 3036 1987)">Typeset at 100 points</text>
  <text style="stroke:none;fill:black;font-family:sans-serif;font-size:13;" transform="matrix(1 0 0 1 263 726)">Small</text>
  <text style="stroke:none;fill:black;font-family:sans-serif;font-size:13;" transform="matrix(1 0 0 1 263 1156)">Medium</text>
  <text style="stroke:none;fill:black;font-family:sans-serif;font-size:13;" transform="matrix(1 0 0 1 263 1586)">Large</text>
 </g>
 <g id="Guides">
  <g id="H-reference" style="fill:#27AAE1;stroke:none;" transform="matrix(1 0 0 1 339 696)">
   <path d="M0.993347 0L3.6377 0L29.3282-67.1326L30.0301-67.1326L30.0301-70.459L28.1227-70.459ZM11.6882-24.4797L46.9818-24.4797L46.2311-26.7288L12.4382-26.7288ZM55.1193 0L57.7637 0L30.6381-70.459L29.4327-70.459L29.4327-67.1326Z"/>
  </g>
  <line id="Baseline-S" style="fill:none;stroke:#27AAE1;opacity:1;stroke-width:0.5;" x1="263" x2="3036" y1="696" y2="696"/>
  <line id="Capline-S" style="fill:none;stroke:#27AAE1;opacity:1;stroke-width:0.5;" x1="263" x2="3036" y1="625.541" y2="625.541"/>
  <g id="H-reference" style="fill:#27AAE1;stroke:none;" transform="matrix(1 0 0 1 339 1126)">
   <path d="M0.993347 0L3.6377 0L29.3282-67.1326L30.0301-67.1326L30.0301-70.459L28.1227-70.459ZM11.6882-24.4797L46.9818-24.4797L46.2311-26.7288L12.4382-26.7288ZM55.1193 0L57.7637 0L30.6381-70.459L29.4327-70.459L29.4327-67.1326Z"/>
  </g>
  <line id="Baseline-M" style="fill:none;stroke:#27AAE1;opacity:1;stroke-width:0.5;" x1="263" x2="3036" y1="1126" y2="1126"/>
  <line id="Capline-M" style="fill:none;stroke:#27AAE1;opacity:1;stroke-width:0.5;" x1="263" x2="3036" y1="1055.54" y2="1055.54"/>
  <g id="H-reference" style="fill:#27AAE1;stroke:none;" transform="matrix(1 0 0 1 339 1556)">
   <path d="M0.993347 0L3.6377 0L29.3282-67.1326L30.0301-67.1326L30.0301-70.459L28.1227-70.459ZM11.6882-24.4797L46.9818-24.4797L46.2311-26.7288L12.4382-26.7288ZM55.1193 0L57.7637 0L30.6381-70.459L29.4327-70.459L29.4327-67.1326Z"/>
  </g>
  <line id="Baseline-L" style="fill:none;stroke:#27AAE1;opacity:1;stroke-width:0.5;" x1="263" x2="3036" y1="1556" y2="1556"/>
  <line id="Capline-L" style="fill:none;stroke:#27AAE1;opacity:1;stroke-width:0.5;" x1="263" x2="3036" y1="1485.54" y2="1485.54"/>
  <line id="left-margin-Ultralight-S" style="fill:none;stroke:#00AEEF;stroke-width:0.5;opacity:1.0;" x1="515.649" x2="515.649" y1="600.785" y2="720.121"/>
  <line id="right-margin-Ultralight-S" style="fill:none;stroke:#00AEEF;stroke-width:0.5;opacity:1.0;" x1="603.773" x2="603.773" y1="600.785" y2="720.121"/>
  <line id="left-margin-Regular-S" style="fill:none;stroke:#00AEEF;stroke-width:0.5;opacity:1.0;" x1="1403.58" x2="1403.58" y1="600.785" y2="720.121"/>
  <line id="right-margin-Regular-S" style="fill:none;stroke:#00AEEF;stroke-width:0.5;opacity:1.0;" x1="1496.11" x2="1496.11" y1="600.785" y2="720.121"/>
  <line id="left-margin-Black-S" style="fill:none;stroke:#00AEEF;stroke-width:0.5;opacity:1.0;" x1="2884.57" x2="2884.57" y1="600.785" y2="720.121"/>
  <line id="right-margin-Black-S" style="fill:none;stroke:#00AEEF;stroke-width:0.5;opacity:1.0;" x1="2982.23" x2="2982.23" y1="600.785" y2="720.121"/>
 </g>
 <g id="Symbols">
  <g id="Black-S" transform="matrix(1 0 0 1 2884.57 696)">
   <path d="M16.0645-52.6367Q22.7539-44.3848 32.4463-39.7705Q42.1387-35.1562 52.7832-35.1562Q61.5723-35.1562 69.8242-38.3057Q78.0762-41.4551 84.668-47.3633L80.8594-54.8828Q75.1953-49.1699 67.9688-46.1426Q60.7422-43.1152 52.7832-43.1152Q42.7734-43.1152 34.1064-47.7783Q25.4395-52.4414 19.7754-60.9863ZM11.5723-31.4941Q19.1406-24.7559 28.1738-20.8252Q37.207-16.8945 46.8994-15.8203Q56.5918-14.7461 66.2354-16.6016Q75.8789-18.457 84.668-23.291L84.3262-32.4707Q76.0742-27.002 66.6992-24.8291Q57.3242-22.6562 47.8516-23.7061Q38.3789-24.7559 29.6387-28.9307Q20.8984-33.1055 13.8672-40.2832ZM31.1035-5.0293L40.5762-3.02734Q37.8906-8.64258 36.499-14.7461Q35.1074-20.8496 35.1074-27.1484Q35.1074-36.1328 37.8418-44.458Q40.5762-52.7832 45.752-59.8877Q50.9277-66.9922 58.252-72.3145L49.8535-75.8301Q42.6758-69.7754 37.5977-62.0117Q32.5195-54.248 29.834-45.3857Q27.1484-36.5234 27.1484-27.1484Q27.1484-21.5332 28.1494-15.9912Q29.1504-10.4492 31.1035-5.0293ZM57.6172-0.976562L65.0391-4.3457Q59.3262-11.7676 56.3232-20.5566Q53.3203-29.3457 53.3203-38.7207Q53.3203-47.4609 55.957-55.7129Q58.5938-63.9648 63.623-70.9961L55.8594-73.6816Q50.7324-65.918 48.0225-56.9824Q45.3125-48.0469 45.3125-38.7207Q45.3125-28.5156 48.4375-18.8965Q51.5625-9.27734 57.6172-0.976562ZM78.7598-14.6484L84.2773-20.7031Q77.6855-24.1699 72.9248-29.5654Q68.1641-34.9609 65.5762-41.6748Q62.9883-48.3887 62.9883-55.7617Q62.9883-63.7207 66.1621-71.3867L58.5449-73.5352Q56.7871-69.3359 55.9082-64.8682Q55.0293-60.4004 55.0293-55.7617Q55.0293-47.2656 57.8857-39.4775Q60.7422-31.6895 66.0645-25.3174Q71.3867-18.9453 78.7598-14.6484ZM33.4961-35.4492Q36.7188-35.4492 39.0137-37.7441Q41.3086-40.0391 41.3086-43.2617Q41.3086-46.4844 39.0137-48.7793Q36.7188-51.0742 33.4961-51.0742Q30.2734-51.0742 27.9541-48.7793Q25.6348-46.4844 25.6348-43.2617Q25.6348-40.0391 27.9541-37.7441Q30.2734-35.4492 33.4961-35.4492ZM63.2324-32.373Q66.5527-32.373 68.8721-34.6924Q71.1914-37.0117 71.1914-40.332Q71.1914-43.6523 68.8721-45.9717Q66.5527-48.291 63.2324-48.291Q59.9121-48.291 57.5928-45.9717Q55.2734-43.6523 55.2734-40.332Q55.2734-37.0117 57.5928-34.6924Q59.9121-32.373 63.2324-32.373ZM51.6602-12.207Q54.9805-12.207 57.2754-14.5508Q59.5703-16.8945 59.5703-20.166Q59.5703-23.4863 57.251-25.8301Q54.9316-28.1738 51.6602-28.1738Q48.291-28.1738 45.9473-25.8301Q43.6035-23.4863 43.6035-20.166Q43.6035-16.8945 45.9473-14.5508Q48.291-12.207 51.6602-12.207ZM48.8281 6.78711Q57.5195 6.78711 65.1123 3.51562Q72.7051 0.244141 78.4912-5.54199Q84.2773-11.3281 87.5488-18.9209Q90.8203-26.5137 90.8203-35.2051Q90.8203-43.8965 87.5488-51.4893Q84.2773-59.082 78.4912-64.8682Q72.7051-70.6543 65.1123-73.9258Q57.5195-77.1973 48.8281-77.1973Q40.1367-77.1973 32.5439-73.9258Q24.9512-70.6543 19.165-64.8682Q13.3789-59.082 10.1074-51.4893Q6.83594-43.8965 6.83594-35.2051Q6.83594-26.5137 10.1074-18.9209Q13.3789-11.3281 19.165-5.54199Q24.9512 0.244141 32.5439 3.51562Q40.1367 6.78711 48.8281 6.78711ZM48.8281-3.95508Q42.3828-3.95508 36.7188-6.39648Q31.0547-8.83789 26.7578-13.1348Q22.4609-17.4316 20.0195-23.0957Q17.5781-28.7598 17.5781-35.2051Q17.5781-41.6504 20.0195-47.3145Q22.4609-52.9785 26.7578-57.2754Q31.0547-61.5723 36.7188-64.0137Q42.3828-66.4551 48.8281-66.4551Q55.2734-66.4551 60.9375-64.0137Q66.6016-61.5723 70.8984-57.2754Q75.1953-52.9785 77.6367-47.3145Q80.0781-41.6504 80.0781-35.2051Q80.0781-28.7598 77.6367-23.0957Q75.1953-17.4316 70.8984-13.1348Q66.6016-8.83789 60.9375-6.39648Q55.2734-3.95508 48.8281-3.95508Z"/>
  </g>
  <g id="Regular-S" transform="matrix(1 0 0 1 1403.58 696)">
   <path d="M13.5254-51.709Q20.3613-43.8477 29.8096-39.5264Q39.2578-35.2051 49.7559-35.2539Q58.252-35.2539 66.1621-38.1592Q74.0723-41.0645 80.5176-46.5332L78.0762-51.3184Q72.2168-46.0449 64.9414-43.2373Q57.666-40.4297 49.7559-40.4297Q39.7949-40.4297 30.9082-44.7998Q22.0215-49.1699 15.9668-57.0801ZM9.08203-29.3945Q16.5527-22.9492 25.415-19.165Q34.2773-15.3809 43.75-14.3311Q53.2227-13.2812 62.6709-15.0146Q72.1191-16.748 80.7617-21.3867L80.5176-27.2461Q72.168-22.2656 62.915-20.3369Q53.6621-18.4082 44.3359-19.458Q35.0098-20.5078 26.3184-24.4385Q17.627-28.3691 10.4492-35.1074ZM28.3691-3.02734L34.5215-1.70898Q32.2754-6.93359 31.1523-12.4512Q30.0293-17.9688 29.9805-23.6328Q29.8828-32.7637 32.4463-41.3086Q35.0098-49.8535 40.0146-57.2754Q45.0195-64.6973 52.1484-70.4102L46.8262-72.6562Q39.6973-66.4551 34.7412-58.6426Q29.7852-50.8301 27.2461-41.9434Q24.707-33.0566 24.8047-23.6328Q24.8047-18.4082 25.708-13.2324Q26.6113-8.05664 28.3691-3.02734ZM53.5645 0.585938L58.3496-1.61133Q52.8809-9.17969 50-18.0176Q47.1191-26.8555 47.1191-36.1816Q47.1191-44.9707 49.6094-53.2227Q52.0996-61.4746 56.9336-68.6523L51.8555-70.4102Q46.9727-62.6953 44.458-53.9795Q41.9434-45.2637 41.9434-36.1816Q41.9434-26.2207 44.8975-16.8701Q47.8516-7.51953 53.5645 0.585938ZM75.9766-13.5254L79.4922-17.4316Q72.998-21.1914 68.3105-26.7822Q63.623-32.373 61.084-39.2334Q58.5449-46.0938 58.4961-53.5645Q58.4961-61.5723 61.2793-68.7988L56.2988-70.166Q54.7852-66.2109 54.0527-62.0605Q53.3203-57.9102 53.3203-53.5645Q53.3203-45.3613 56.0547-37.8174Q58.7891-30.2734 63.8672-24.0234Q68.9453-17.7734 75.9766-13.5254ZM29.7852-35.791Q32.373-35.791 34.2041-37.6221Q36.0352-39.4531 36.0352-42.041Q36.0352-44.6289 34.2041-46.46Q32.373-48.291 29.7852-48.291Q27.1973-48.291 25.3662-46.46Q23.5352-44.6289 23.5352-42.041Q23.5352-39.4531 25.3662-37.6221Q27.1973-35.791 29.7852-35.791ZM59.1309-32.7148Q61.6699-32.7148 63.501-34.5459Q65.332-36.377 65.332-38.9648Q65.332-41.5039 63.501-43.335Q61.6699-45.166 59.1309-45.166Q56.543-45.166 54.7119-43.335Q52.8809-41.5039 52.8809-38.9648Q52.8809-36.377 54.7119-34.5459Q56.543-32.7148 59.1309-32.7148ZM47.5098-10.5469Q50.0488-10.5469 51.8799-12.3779Q53.7109-14.209 53.7109-16.7969Q53.7109-19.3359 51.8799-21.167Q50.0488-22.998 47.5098-22.998Q44.873-22.998 43.042-21.167Q41.2109-19.3359 41.2109-16.7969Q41.2109-14.209 43.042-12.3779Q44.873-10.5469 47.5098-10.5469ZM46.2402 4.15039Q54.3457 4.15039 61.4746 1.07422Q68.6035-2.00195 74.0479-7.4707Q79.4922-12.9395 82.5928-20.0684Q85.6934-27.1973 85.6934-35.2539Q85.6934-43.3105 82.5928-50.4395Q79.4922-57.5684 74.0234-63.0371Q68.5547-68.5059 61.4258-71.582Q54.2969-74.6582 46.1914-74.6582Q38.1348-74.6582 31.0059-71.582Q23.877-68.5059 18.457-63.0371Q13.0371-57.5684 9.93652-50.4395Q6.83594-43.3105 6.83594-35.2539Q6.83594-27.1973 9.93652-20.0684Q13.0371-12.9395 18.4814-7.4707Q23.9258-2.00195 31.0547 1.07422Q38.1836 4.15039 46.2402 4.15039ZM46.2402-1.70898Q39.4043-1.70898 33.3496-4.3457Q27.2949-6.98242 22.6562-11.6211Q18.0176-16.2598 15.3809-22.3389Q12.7441-28.418 12.7441-35.2539Q12.7441-42.0898 15.3564-48.1689Q17.9688-54.248 22.6074-58.8867Q27.2461-63.5254 33.3008-66.1621Q39.3555-68.7988 46.1914-68.7988Q53.0762-68.7988 59.1309-66.1621Q65.1855-63.5254 69.8486-58.8867Q74.5117-54.248 77.1484-48.1689Q79.7852-42.0898 79.7852-35.2539Q79.7852-28.418 77.1484-22.3389Q74.5117-16.2598 69.873-11.6211Q65.2344-6.98242 59.1797-4.3457Q53.125-1.70898 46.2402-1.70898Z"/>
  </g>
  <g id="Ultralight-S" transform="matrix(1 0 0 1 515.649 696)">
   <path d="M10.6194-50.4829Q18.9537-44.2108 29.1965-40.7524Q39.4394-37.294 50.6638-37.4336Q58.4335-37.5244 65.6399-39.4081Q72.8462-41.2918 79.2458-44.6716L78.5759-46.7323Q72.3076-43.4113 65.2592-41.5573Q58.2108-39.7034 50.6187-39.5668Q39.6133-39.3402 29.6139-42.802Q19.6144-46.2639 11.4716-52.494ZM8.12836-30.8022Q15.5083-24.6292 24.1436-20.9812Q32.7789-17.3332 41.9338-16.2155Q51.0887-15.0978 60.2188-16.5359Q69.3489-17.9741 77.8557-21.9315L78.2021-24.5216Q69.7159-20.2675 60.4855-18.7248Q51.255-17.1822 42.02-18.3228Q32.785-19.4633 24.139-23.2803Q15.493-27.0973 8.1337-33.5632ZM25.6447-4.75311L28.2547-3.61633Q27.5528-5.52597 27.0428-7.5016Q26.5327-9.47723 26.1208-11.5082Q23.7976-22.8645 25.544-33.8387Q27.2903-44.8128 32.5222-54.4144Q37.7541-64.016 45.7909-71.273L43.148-71.7484Q35.247-64.1846 30.2002-54.4647Q25.1534-44.7449 23.4772-33.7013Q21.801-22.6578 24.0784-11.145Q24.3507-9.55353 24.7543-7.91969Q25.1579-6.28586 25.6447-4.75311ZM51.0216-0.231171L53.1731-0.88501Q48.2948-8.36258 45.5956-17.1322Q42.8963-25.9018 42.8963-35.4553Q42.8963-44.9707 45.5681-53.6995Q48.2399-62.4283 53.1189-69.9242L51.2199-70.8191Q46.2463-63.1493 43.5043-54.1611Q40.7623-45.1729 40.7623-35.4553Q40.7623-25.7668 43.4441-16.8247Q46.1258-7.88269 51.0216-0.231171ZM74.115-14.9788L75.1785-16.7503Q69.0926-20.1927 64.4051-25.4429Q59.7176-30.6931 56.9515-37.3035Q54.1855-43.914 53.7735-51.4305Q53.2738-60.3912 56.5109-68.6623L54.4823-69.3489Q52.8778-65.1665 52.1454-60.6075Q51.413-56.0486 51.6403-51.2939Q52.0485-43.454 54.9648-36.5231Q57.8812-29.5921 62.8002-24.0688Q67.7193-18.5455 74.115-14.9788ZM26.7426-37.5168Q28.6949-37.5168 30.1174-38.9389Q31.5399-40.361 31.5399-42.3592Q31.5399-44.3565 30.1174-45.7561Q28.6949-47.1558 26.7426-47.1558Q24.6994-47.1558 23.2773-45.7561Q21.8552-44.3565 21.8552-42.3592Q21.8552-40.361 23.2773-38.9389Q24.6994-37.5168 26.7426-37.5168ZM55.8617-33.8043Q57.6736-33.8043 58.9825-35.0906Q60.2913-36.377 60.2913-38.2385Q60.2913-40.0055 58.9825-41.3143Q57.6736-42.6231 55.8617-42.6231Q54.0451-42.6231 52.7363-41.3143Q51.4275-40.0055 51.4275-38.2385Q51.4275-36.377 52.7363-35.0906Q54.0451-33.8043 55.8617-33.8043ZM45.5574-11.9545Q47.551-11.9545 48.9281-13.3316Q50.3052-14.7087 50.3052-16.7061Q50.3052-18.7004 48.9281-20.0771Q47.551-21.4539 45.5574-21.4539Q43.5562-21.4539 42.1791-20.0771Q40.802-18.7004 40.802-16.7061Q40.802-14.7087 42.1791-13.3316Q43.5562-11.9545 45.5574-11.9545ZM44.0605 1.97067Q51.757 1.97067 58.4774-0.92392Q65.1978-3.81851 70.3468-8.9695Q75.4959-14.1205 78.3924-20.8405Q81.2889-27.5604 81.2889-35.2539Q81.2889-42.9474 78.3924-49.6674Q75.4959-56.3873 70.3453-61.5383Q65.1947-66.6893 58.4743-69.5839Q51.754-72.4785 44.0575-72.4785Q36.364-72.4785 29.6211-69.5839Q22.8783-66.6893 17.7532-61.5383Q12.6282-56.3873 9.73206-49.6674Q6.83594-42.9474 6.83594-35.2539Q6.83594-27.5604 9.73206-20.8405Q12.6282-14.1205 17.7547-8.9695Q22.8813-3.81851 29.6242-0.92392Q36.367 1.97067 44.0605 1.97067ZM44.0605-0.164795Q36.8156-0.164795 30.4661-2.8923Q24.1165-5.61981 19.2734-10.463Q14.4302-15.3061 11.7027-21.6576Q8.97522-28.009 8.97522-35.2539Q8.97522-42.4988 11.7008-48.8503Q14.4264-55.2017 19.2696-60.0449Q24.1127-64.888 30.4626-67.6155Q36.8126-70.343 44.0575-70.343Q51.3054-70.343 57.655-67.6155Q64.0045-64.888 68.8496-60.0449Q73.6946-55.2017 76.4221-48.8503Q79.1496-42.4988 79.1496-35.2539Q79.1496-28.009 76.4221-21.6576Q73.6946-15.3061 68.8515-10.463Q64.0083-5.61981 57.6584-2.8923Q51.3084-0.164795 44.0605-0.164795Z"/>
  </g>
 </g>
</svg>
