<?xml version="1.0" encoding="utf-8"?>
<!-- Generator: Adobe Illustrator 26.0.3, SVG Export Plug-In . SVG Version: 6.00 Build 0)  -->
<svg version="1.1" id="Layer_1" xmlns="http://www.w3.org/2000/svg" xmlns:xlink="http://www.w3.org/1999/xlink" x="0px" y="0px"
	 width="3300px" height="2200px" viewBox="0 0 3300 2200" enable-background="new 0 0 3300 2200" xml:space="preserve">
<g id="Notes">
	<rect id="artboard" fill="#FFFFFF" width="3300" height="2200"/>
	<line fill="none" stroke="#000000" stroke-width="0.5" x1="263" y1="292" x2="3036" y2="292"/>
	<text transform="matrix(1 0 0 1 263 322)" enable-background="new    "><tspan x="0" y="0" font-family="'Helvetica-Bold'" font-size="13px">W</tspan><tspan x="12.0415039" y="0" font-family="'Helvetica-Bold'" font-size="13px">eight/Scale </tspan><tspan x="84.2905273" y="0" font-family="'Helvetica-Bold'" font-size="13px">V</tspan><tspan x="92.2504883" y="0" font-family="'Helvetica-Bold'" font-size="13px">ariations</tspan></text>
	<text transform="matrix(1 0 0 1 534.0632935 322)" font-family="'Helvetica'" font-size="13px">Ultralight</text>
	<text transform="matrix(1 0 0 1 843.7774658 322)" font-family="'Helvetica'" font-size="13px">Thin</text>
	<text transform="matrix(1 0 0 1 1139.0350342 322)" font-family="'Helvetica'" font-size="13px">Light</text>
	<text transform="matrix(1 0 0 1 1427.0772705 322)" font-family="'Helvetica'" font-size="13px">Regular</text>
	<text transform="matrix(1 0 0 1 1723.4418945 322)" font-family="'Helvetica'" font-size="13px">Medium</text>
	<text transform="matrix(1 0 0 1 2016.171875 322)" font-family="'Helvetica'" font-size="13px">Semibold</text>
	<text transform="matrix(1 0 0 1 2326.970459 322)" font-family="'Helvetica'" font-size="13px">Bold</text>
	<text transform="matrix(1 0 0 1 2618.2658691 322)" font-family="'Helvetica'" font-size="13px">Heavy</text>
	<text transform="matrix(1 0 0 1 2917.5053711 322)" font-family="'Helvetica'" font-size="13px">Black</text>
	<line fill="none" stroke="#000000" stroke-width="0.5" x1="263" y1="1903" x2="3036" y2="1903"/>
	<g transform="matrix(1 0 0 1 263 1933)">
		<path d="M9.2480497,0.830078C10.3287497,0.8300779,11.344367,0.625,12.2948999,0.214844
			c0.9505339-0.4101567,1.7887669-0.979818,2.5146999-1.708984c0.7258663-0.7291666,1.2955332-1.5690097,1.7090006-2.5195298
			c0.4134007-0.95052,0.6201-1.9628901,0.6201-3.0371099s-0.2066994-2.0865941-0.6201-3.0371203
			c-0.4134674-0.9505329-0.984767-1.7903662-1.7139006-2.5194998c-0.7291994-0.7292004-1.5690327-1.2988663-2.5194998-1.7089996
			c-0.9505339-0.4101334-1.9661732-0.6152-3.0469198-0.6152c-1.0742207,0-2.0865903,0.2050667-3.0371103,0.6152
			s-1.7871065,0.9797993-2.5097599,1.7089996C2.96875-11.8782663,2.4007132-11.0384331,1.9873-10.0879002
			C1.5738934-9.1373739,1.36719-8.125,1.36719-7.0507798S1.5738934-4.96419,1.9873-4.01367
			C2.4007132-3.0631497,2.9703767-2.2233067,3.69629-1.49414s1.5641298,1.2988274,2.5146499,1.708984
			C7.1614604,0.625,8.17383,0.8300779,9.2480497,0.830078z M9.2480497-0.654297c-0.8854198,0-1.71387-0.1643876-2.4853497-0.493163
			c-0.7714868-0.3287734-1.4485698-0.78613-2.03125-1.3720701C4.1487632-3.1054699,3.6930332-3.7858098,3.36426-4.5605502
			c-0.3287802-0.7747402-0.49317-1.6048164-0.49317-2.4902296c0-0.8854198,0.1627634-1.7155004,0.4882901-2.4902406
			c0.32552-0.7747192,0.7796199-1.4550467,1.3623002-2.0409794c0.5826797-0.5859337,1.2597632-1.0433006,2.03125-1.3720999
			C7.5244164-13.2829008,8.3528671-13.4473,9.2382803-13.4473c0.8919458,0,1.7236528,0.1643991,2.49512,0.4932003
			c0.7714672,0.3287992,1.4501667,0.7861662,2.0360994,1.3720999c0.5859337,0.5859327,1.0449333,1.2662601,1.3769999,2.0409794
			c0.3320007,0.7747402,0.4980001,1.6048207,0.4980001,2.4902406c0,0.8854132-0.1643667,1.7154894-0.4931002,2.4902296
			c-0.3287992,0.7747405-0.7845325,1.4550803-1.3671999,2.0410202c-0.5826664,0.5859401-1.2613993,1.0432967-2.0361996,1.3720701
			C10.9732666-0.8186846,10.1399498-0.654297,9.2480497-0.654297z M5.6543002-7.0507798
			c0,0.2148399,0.0683599,0.3889933,0.2050796,0.52246C5.9960933-6.3948536,6.1783829-6.3281198,6.40625-6.3281202h2.1093702
			v2.1191401c0,0.2148402,0.0651064,0.3922467,0.1953201,0.5322201C8.8411474-3.5367868,9.0169268-3.4668,9.2382803-3.4668
			c0.2148457,0,0.3922558-0.0699868,0.5322294-0.20996c0.1399736-0.1399734,0.20996-0.31738,0.20996-0.5322201v-2.1191401h2.1093302
			c0.2214003,0.0000005,0.400466-0.0667334,0.5372-0.2001996c0.1366673-0.1334667,0.2049999-0.30762,0.2049999-0.52246
			c0-0.2213535-0.0683327-0.4003901-0.2049999-0.5371103c-0.136734-0.1367197-0.3157997-0.20508-0.5372-0.20508H9.9804697
			v-2.1093698c0-0.2213736-0.0699863-0.4020262-0.20996-0.5419598c-0.1399736-0.1400003-0.3173838-0.21-0.5322294-0.21
			c-0.2213535,0-0.3971329,0.0699997-0.5273399,0.21c-0.1302137,0.1399336-0.1953201,0.3205862-0.1953201,0.5419598v2.1093698
			H6.40625c-0.2278671,0-0.4101567,0.0683603-0.5468702,0.20508C5.7226601-7.45117,5.6543002-7.2721334,5.6543002-7.0507798z"/>
	</g>
	<g transform="matrix(1 0 0 1 281.867 1933)">
		<path d="M11.7089996,2.9101601c1.3606672,0,2.6416006-0.2604167,3.8428001-0.78125
			c1.2011337-0.5208334,2.2607002-1.2402358,3.1786995-2.1582069c0.9179344-0.9179688,1.6373348-1.9775398,2.1582012-3.1787131
			c0.5207996-1.2011731,0.7812004-2.4820969,0.7812004-3.8427699c0-1.3606801-0.2604008-2.6416202-0.7812004-3.8428206
			c-0.5208664-1.2011337-1.2402668-2.2606993-2.1582012-3.1786995c-0.9179993-0.9179335-1.9792004-1.6373329-3.1835995-2.1581993
			c-1.2044668-0.5207996-2.4870329-0.7812004-3.8477001-0.7812004s-2.6415825,0.2604008-3.8427491,0.7812004
			c-1.2011733,0.5208664-2.2591166,1.2402658-3.17383,2.1581993c-0.9147131,0.9180002-1.6324866,1.9775658-2.1533201,3.1786995
			C2.0084672-9.6924,1.7480505-8.4114599,1.7480503-7.0507798C1.7480505-5.6901069,2.0084672-4.409183,2.5293005-3.20801
			s1.2402332,2.2607443,2.1582,3.1787131c0.9179664,0.9179712,1.9775367,1.6373736,3.17871,2.1582069
			S10.3483133,2.9101601,11.7089996,2.9101601z M11.7089996,1.25c-1.1523533,0-2.2298326-0.2148436-3.23244-0.644531
			C7.4739599,0.1757813,6.5934277-0.418295,5.8349605-1.17676c-0.75846-0.7584602-1.3509068-1.6389933-1.7773399-2.6416001
			S3.4179704-5.8984399,3.4179704-7.0507798c0-1.1523461,0.2132168-2.2298207,0.6396501-3.2324204
			s1.0172534-1.8847656,1.77246-2.6464996c0.7552066-0.7617331,1.6341133-1.3557997,2.6367192-1.7821999
			c1.0025997-0.4264669,2.0800667-0.6396999,3.2323999-0.6396999s2.2298002,0.213233,3.2323999,0.6396999
			c1.0025997,0.4264002,1.8847666,1.0204668,2.6465006,1.7821999c0.761734,0.761734,1.3574333,1.6438999,1.7870998,2.6464996
			C19.7949333-9.2806005,20.0098-8.203126,20.0098-7.0507798c0,1.1523399-0.213232,2.2298131-0.6396999,3.2324197
			c-0.4263992,1.0026069-1.0188332,1.88314-1.7772999,2.6416001c-0.7584667,0.7584649-1.6406336,1.3525413-2.6465006,1.7822289
			S12.8613329,1.25,11.7089996,1.25z M7.1777306-7.0507798c0,0.2343731,0.0781269,0.4264297,0.2343798,0.57617
			C7.5683575-6.3248696,7.7701802-6.25,8.01758-6.25h2.8711195v2.8808601c0,0.2473931,0.0748672,0.4475899,0.2246008,0.60059
			c0.1497335,0.1529932,0.3417997,0.2294898,0.5761995,0.2294898c0.2473335,0,0.4475002-0.0764966,0.6005001-0.2294898
			c0.1529999-0.1530001,0.2294998-0.3531969,0.2294998-0.60059V-6.25h2.8809004
			c0.2473993,0,0.4475994-0.0748696,0.6005993-0.2246099s0.2294998-0.3417969,0.2294998-0.57617
			c0-0.2473998-0.0764999-0.4475965-0.2294998-0.6005902c-0.1529999-0.1529932-0.3532-0.2294898-0.6005993-0.2294898h-2.8809004
			v-2.87114c0-0.2538671-0.0764999-0.4573002-0.2294998-0.6103001s-0.3531666-0.2294998-0.6005001-0.2294998
			c-0.2343998,0-0.426466,0.0781326-0.5761995,0.2343998c-0.1497335,0.1562662-0.2246008,0.3580666-0.2246008,0.6054001v2.87114
			H8.01758c-0.2539062,0-0.4573565,0.0764966-0.6103497,0.2294898C7.2542305-7.4983764,7.1777306-7.2981796,7.1777306-7.0507798z"/>
	</g>
	<g transform="matrix(1 0 0 1 305.646 1933)">
		<path d="M14.9707003,5.6640601c1.393199,0,2.7229662-0.2164702,3.9892988-0.6494102
			c1.2662678-0.4329467,2.4300003-1.0400431,3.4912014-1.8212898c1.0611992-0.7812533,1.9840317-1.7024773,2.7684994-2.7636721
			c0.7845325-1.0611987,1.3932667-2.2265646,1.8262005-3.496098c0.4329338-1.2695265,0.6493988-2.5976501,0.6493988-3.9843698
			c0-1.3932271-0.216465-2.7229667-0.6493988-3.9892201c-0.4329338-1.2663326-1.0416679-2.4300671-1.8262005-3.4912004
			c-0.7844677-1.0611992-1.7073002-1.984066-2.7684994-2.7686005c-1.0612011-0.7845325-2.2265682-1.3932667-3.4961014-1.8261986
			c-1.2695312-0.4329338-2.6009331-0.6494007-3.9941988-0.6494007c-1.3931999,0-2.7229328,0.2164669-3.9892006,0.6494007
			c-1.2662859,0.4329319-2.4284029,1.041666-3.4863496,1.8261986c-1.05794,0.7845345-1.9791632,1.7074013-2.76367,2.7686005
			C3.9371731-13.470067,3.3300765-12.3063326,2.9003899-11.04c-0.4296865,1.2662535-0.6445298,2.595993-0.6445298,3.9892201
			c0,1.3867197,0.21647,2.7148433,0.64941,3.9843698c0.4329467,1.2695335,1.0400431,2.4348993,1.82129,3.496098
			c0.7812529,1.0611948,1.7024765,1.9824188,2.76367,2.7636721c1.0612006,0.7812467,2.2249236,1.3883431,3.4911695,1.8212898
			C12.2477341,5.4475899,13.5775003,5.6640601,14.9707003,5.6640601z M14.9707003,3.8476601
			c-1.2044001,0-2.3518677-0.1839199-3.4424-0.55176c-1.0904799-0.3678403-2.0881939-0.88379-2.9931402-1.5478501
			c-0.904953-0.6640646-1.6910863-1.4501987-2.3583999-2.358402C5.5094399-1.5185572,4.9934897-2.5179067,4.6289101-3.6084001
			C4.2643232-4.6988935,4.0820298-5.8463535,4.0820298-7.0507798c0-1.2109399,0.1822934-2.3616471,0.5468802-3.4521203
			c0.3645797-1.0905333,0.8789029-2.0899,1.5429697-2.9981003c0.6640601-0.9081993,1.4485636-1.6943321,2.3535099-2.3583994
			c0.9049463-0.6640663,1.9026833-1.1783657,2.9932108-1.5429001c1.0904665-0.3645992,2.2378998-0.5468998,3.4422998-0.5468998
			c1.2109327,0,2.3616648,0.1823006,3.452199,0.5468998c1.0904655,0.3645344,2.0897999,0.8788338,2.9980011,1.5429001
			c0.9081993,0.6640673,1.6943321,1.4502001,2.3584003,2.3583994c0.6640682,0.9082003,1.1800327,1.907567,1.5478992,2.9981003
			c0.3678017,1.0904732,0.5517006,2.2411804,0.5517006,3.4521203c0.0065327,1.2044263-0.1725006,2.3518863-0.5370998,3.4423797
			c-0.3645325,1.0904934-0.8804684,2.0898428-1.5478001,2.9980481c-0.6673336,0.9082034-1.455101,1.6943374-2.3633003,2.358402
			c-0.9081993,0.6640601-1.9075336,1.1800098-2.9980011,1.5478501C17.3323669,3.6637402,16.181633,3.8476601,14.9707003,3.8476601z
			 M9.1992197-7.0507798c0,0.2539067,0.0862637,0.4638662,0.25879,0.62988
			c0.1725264,0.1660132,0.3922567,0.2490196,0.6591902,0.2490201H14.0625V-2.2168
			c0,0.2669266,0.0830002,0.4866532,0.2489996,0.6591799c0.1660004,0.1725267,0.3792343,0.25879,0.6396999,0.25879
			c0.2669334,0,0.4866667-0.0846334,0.6592007-0.2538999c0.1724663-0.1692734,0.2586994-0.39063,0.2586994-0.66407v-3.9550798
			h3.9551001c0.2669334-0.0000005,0.485033-0.0830069,0.6543007-0.2490201
			c0.1692677-0.1660137,0.2539005-0.3759732,0.2539005-0.62988c0-0.2734404-0.0846329-0.4947929-0.2539005-0.6640601
			C20.3092327-7.8841133,20.0911331-7.96875,19.8241997-7.96875h-3.9551001v-3.9453497
			c0-0.2734003-0.0862331-0.4963665-0.2586994-0.6689005c-0.172534-0.172534-0.3922672-0.2587996-0.6592007-0.2587996
			c-0.2604656,0-0.4736996,0.0862656-0.6396999,0.2587996C14.1455002-12.4104662,14.0625-12.1875,14.0625-11.9140997V-7.96875
			h-3.9453001c-0.2734461,0-0.4948063,0.0846367-0.6640797,0.2539101C9.2838526-7.5455728,9.1992197-7.3242202,9.1992197-7.0507798z
			"/>
	</g>
	<text transform="matrix(1 0 0 1 263 1953)" enable-background="new    "><tspan x="0" y="0" font-family="'Helvetica-Bold'" font-size="13px">Design </tspan><tspan x="46.9536133" y="0" font-family="'Helvetica-Bold'" font-size="13px">V</tspan><tspan x="54.9135742" y="0" font-family="'Helvetica-Bold'" font-size="13px">ariations</tspan></text>
	<text transform="matrix(1 0 0 1 263 1971)" font-family="'Helvetica'" font-size="13px">Symbols are supported in up to nine weights and three scales.</text>
	<text transform="matrix(1 0 0 1 263 1989)" font-family="'Helvetica'" font-size="13px">For optimal layout with text and other symbols, vertically align</text>
	<text transform="matrix(1 0 0 1 263 2007)" font-family="'Helvetica'" font-size="13px">symbols with the adjacent text.</text>
	<line fill="none" stroke="#00AEEF" stroke-width="0.5" x1="776" y1="1919" x2="776" y2="1933"/>
	<g transform="matrix(1 0 0 1 776 1933)">
		<path d="M3.31055,0.15625c0.2604132,0,0.4622364-0.0553385,0.6054699-0.1660156
			C4.0592465-0.1204425,4.1764331-0.3125,4.26758-0.585938l1.2597599-3.4472618h5.7617598l1.2597008,3.4472618
			c0.0911331,0.273438,0.208333,0.4654954,0.3515997,0.5761724c0.143199,0.1106771,0.3417673,0.1660156,0.5957003,0.1660156
			c0.2603998,0,0.4670992-0.0716146,0.6201-0.2148438c0.1529999-0.1432295,0.2294998-0.3385418,0.2294998-0.5859372
			c0-0.14974-0.035799-0.325523-0.1073999-0.527349L9.6582003-13.3690996
			c-0.1171875-0.2995338-0.2766895-0.524168-0.4785099-0.6739006c-0.201827-0.1497335-0.4589901-0.2245998-0.7714901-0.2245998
			c-0.6054673,0-1.0156236,0.2962332-1.2304702,0.8887005L2.5976601-1.16211c-0.07162,0.2018234-0.10743,0.3776046-0.10743,0.527344
			c0,0.247396,0.0732434,0.441081,0.2197299,0.5810551S3.0566432,0.15625,3.31055,0.15625z M6.0058599-5.51758l2.3730502-6.5722198
			h0.0488195L10.8008003-5.51758H6.0058599z"/>
	</g>
	<line fill="none" stroke="#00AEEF" stroke-width="0.5" x1="793.1970215" y1="1919" x2="793.1970215" y2="1933"/>
	<text transform="matrix(1 0 0 1 776 1953)" font-family="'Helvetica-Bold'" font-size="13px">Margins</text>
	<text transform="matrix(1 0 0 1 776 1971)" font-family="'Helvetica'" font-size="13px">Leading and trailing margins on the left and right side of each symbol</text>
	<text transform="matrix(1 0 0 1 776 1989)" font-family="'Helvetica'" font-size="13px">can be adjusted by modifying the x-location of the margin guidelines.</text>
	<text transform="matrix(1 0 0 1 776 2007)" font-family="'Helvetica'" font-size="13px">Modifications are automatically applied proportionally to all</text>
	<text transform="matrix(1 0 0 1 776 2025)" font-family="'Helvetica'" font-size="13px">scales and weights.</text>
	<g transform="matrix(1 0 0 1 1289 1933)">
		<path d="M2.8418,1.86523l1.6992199,1.70899c0.429687,0.4361999,0.8837867,0.6380236,1.3622999,0.6054699
			c0.4785137-0.0325532,0.9488897-0.30599,1.41113-0.8203099L18.0077991-8.4277296l-0.9667988-0.9765701L6.4257798,2.2753899
			C6.25,2.47721,6.0725899,2.5911434,5.8935499,2.6171899c-0.1790328,0.0260401-0.3857369-0.0781267-0.62011-0.3125
			L4.1015601,1.14258c-0.2343733-0.234376-0.33691-0.4410824-0.30761-0.620119
			c0.0292933-0.1790367,0.14485-0.3597007,0.3466702-0.5419922L15.6152-10.8203001l-0.9765005-0.9667997L3.04688-0.898438
			C2.5520866-0.4427086,2.2867866,0.0227863,2.2509799,0.498047C2.2151732,0.973309,2.4121132,1.4290366,2.8418,1.86523z
			 M9.2578096-16.3281002C9.0494766-16.1262989,8.9322901-15.8951998,8.90625-15.6348
			c-0.0260401,0.2604666,0.0195341,0.4883337,0.1367197,0.6836004c0.1171865,0.182333,0.288084,0.319066,0.5126905,0.4101992
			c0.2246132,0.0911331,0.4996939,0.0976334,0.8252401,0.0195007c0.7291336-0.1692667,1.4680653-0.239234,2.2167997-0.2098999
			c0.7486668,0.0292664,1.4810667,0.2782669,2.1971998,0.7469997l-0.5859003,1.4551001
			c-0.1692657,0.416667-0.216466,0.7796326-0.1415997,1.0888996c0.0748663,0.3092003,0.2457666,0.6005335,0.5127001,0.8740005
			L16.875-8.2519503c0.2408657,0.2473936,0.4752331,0.3906202,0.7031002,0.4296803
			c0.2278671,0.0390668,0.4817677,0.0325565,0.7616997-0.0195303l1.0645008-0.1953101l0.6640987,0.6738305l-0.0390987,0.5566397
			c-0.0195332,0.2473936,0.0114002,0.4752569,0.0928001,0.6835899c0.0813332,0.2083335,0.242466,0.4329433,0.4833984,0.67383
			l0.7617016,0.7421904c0.2408676,0.2408867,0.5028992,0.3662133,0.7860985,0.3759799
			c0.2832012,0.0097599,0.5419998-0.1025472,0.7764015-0.3369203l2.910099-2.91992
			c0.2344017-0.2343731,0.3483334-0.4899068,0.3418007-0.7666001c-0.0064678-0.2766933-0.1301689-0.5354834-0.3711014-0.77637
			L25.0391006-9.89258c-0.2343998-0.24088-0.454134-0.4052534-0.6592007-0.4931202
			c-0.2050667-0.0879335-0.4280663-0.1221333-0.6690006-0.1026001L23.1348-10.4394999L22.4902-11.0741997L22.7343998-12.1973
			c0.0650673-0.2799339,0.0520325-0.5419664-0.0391006-0.7861004s-0.2831993-0.5127001-0.5761986-0.8056993l-2.1972008-2.1875
			c-0.8333321-0.8268003-1.7203999-1.4469004-2.6611996-1.860301c-0.940733-0.4133987-1.8880005-0.628233-2.8418007-0.6444988
			c-0.9537325-0.0163326-1.8716993,0.1578007-2.7538996,0.5223999C10.7828665-17.5944004,9.9804697-17.050766,9.2578096-16.3281002z
			 M10.7519999-15.9569998c0.6054668-0.4427328,1.2548666-0.7585001,1.9482002-0.9473009
			c0.6933327-0.1887989,1.3948326-0.249033,2.1044998-0.1806984c0.7096004,0.0683994,1.3980665,0.2588329,2.0654001,0.5712986
			c0.6673317,0.3125343,1.2776985,0.7487326,1.8311005,1.3086004l2.4315987,2.4120998
			c0.1172009,0.1171999,0.1904335,0.2311335,0.2197018,0.3418007c0.0293331,0.1106663,0.0244656,0.2506657-0.0146008,0.4199991
			l-0.3223,1.4843006L22.5195007-9.0625l0.9863987-0.0585899c0.1236687-0.0065136,0.2180691,0.0016232,0.2832012,0.0244102
			c0.0650654,0.0227861,0.146431,0.0830069,0.2440987,0.1806593l0.5762005,0.5761805l-2.4414005,2.4414001l-0.5761986-0.57617
			C21.494133-6.5722632,21.4322662-6.6536431,21.4062004-6.71875c-0.0259991-0.0651069-0.0357323-0.1627636-0.0291996-0.2929702
			l0.0682983-0.9765596l-1.4940987-1.4843802L18.4277-9.21875c-0.1627331,0.0325537-0.2912998,0.0374365-0.3857002,0.0146503
			c-0.0944004-0.0227871-0.2034664-0.0927744-0.3271999-0.20996l-2.0018997-2.0019407
			c-0.1302004-0.1171999-0.203433-0.2294998-0.2196999-0.3368998c-0.0162668-0.1074667,0.0146322-0.2523336,0.0927-0.4345999
			l0.8788996-2.0897999c-0.7811995-0.7292004-1.6601-1.2337675-2.6366997-1.5137005
			c-0.9765329-0.279932-1.9726343-0.2701664-2.9883003,0.0293007c-0.0780659,0.0195322-0.1285,0.0048666-0.1512995-0.0440006
			C10.6657-15.8544998,10.6868668-15.904933,10.7519999-15.9569998z"/>
	</g>
	<text transform="matrix(1 0 0 1 1289 1953)" font-family="'Helvetica-Bold'" font-size="13px">Exporting</text>
	<text transform="matrix(1 0 0 1 1289 1971)" font-family="'Helvetica'" font-size="13px">Symbols should be outlined when exporting to ensure the</text>
	<text transform="matrix(1 0 0 1 1289 1989)" font-family="'Helvetica'" font-size="13px">design is preserved when submitting to Xcode.</text>
	<text id="template-version" transform="matrix(1 0 0 1 2952.4140625 1933)" enable-background="new    "><tspan x="0" y="0" font-family="'Helvetica'" font-size="13px" letter-spacing="-1">T</tspan><tspan x="6.5" y="0" font-family="'Helvetica'" font-size="13px">emplate </tspan><tspan x="56.3608398" y="0" font-family="'Helvetica'" font-size="13px">v</tspan><tspan x="61.9023438" y="0" font-family="'Helvetica'" font-size="13px">.3.0</tspan></text>
	<text transform="matrix(1 0 0 1 2865.4575195 1951)" font-family="'Helvetica'" font-size="13px">Requires Xcode 13 or greater</text>
	<text id="descriptive-name" transform="matrix(1 0 0 1 2924.0019531 1969)" font-family="'Helvetica'" font-size="13px">Generated from nfc</text>
	<text transform="matrix(1 0 0 1 2912.4111328 1987)" enable-background="new    "><tspan x="0" y="0" font-family="'Helvetica'" font-size="13px">T</tspan><tspan x="7.2299805" y="0" font-family="'Helvetica'" font-size="13px">ypeset at 100 points</tspan></text>
	<text transform="matrix(1 0 0 1 263 726)" font-family="'Helvetica'" font-size="13px">Small</text>
	<text transform="matrix(1 0 0 1 263 1156)" font-family="'Helvetica'" font-size="13px">Medium</text>
	<text transform="matrix(1 0 0 1 263 1586)" font-family="'Helvetica'" font-size="13px">Large</text>
</g>
<g id="Guides">
	<g id="H-reference" transform="matrix(1 0 0 1 339 696)">
		<path fill="#27AAE1" d="M0.993347,0h2.6443532l25.6904984-67.1325989h0.7019005v-3.3264008h-1.9074001L0.993347,0z
			 M11.6882-24.4797001h35.293602l-0.7507019-2.2490997H12.4382L11.6882-24.4797001z M55.1193008,0h2.6443977L30.6380997-70.4589996
			h-1.2054005v3.3264008L55.1193008,0z"/>
	</g>
	<line id="Baseline-S" fill="none" stroke="#27AAE1" stroke-width="0.5" x1="263" y1="696" x2="3036" y2="696"/>
	<line id="Capline-S" fill="none" stroke="#27AAE1" stroke-width="0.5" x1="263" y1="625.5410156" x2="3036" y2="625.5410156"/>
	<g id="H-reference_00000032609759972352047150000008584415316443017642_" transform="matrix(1 0 0 1 339 1126)">
		<path fill="#27AAE1" d="M0.993347,0h2.6443532l25.6904984-67.1325989h0.7019005v-3.3264008h-1.9074001L0.993347,0z
			 M11.6882-24.4797001h35.293602l-0.7507019-2.2490997H12.4382L11.6882-24.4797001z M55.1193008,0h2.6443977L30.6380997-70.4589996
			h-1.2054005v3.3264008L55.1193008,0z"/>
	</g>
	<line id="Baseline-M" fill="none" stroke="#27AAE1" stroke-width="0.5" x1="263" y1="1126" x2="3036" y2="1126"/>
	<line id="Capline-M" fill="none" stroke="#27AAE1" stroke-width="0.5" x1="263" y1="1055.5400391" x2="3036" y2="1055.5400391"/>
	<g id="H-reference_00000176735921650619782920000016425372158311794818_" transform="matrix(1 0 0 1 339 1556)">
		<path fill="#27AAE1" d="M0.993347,0h2.6443532l25.6904984-67.1325989h0.7019005v-3.3264008h-1.9074001L0.993347,0z
			 M11.6882-24.4797001h35.293602l-0.7507019-2.2490997H12.4382L11.6882-24.4797001z M55.1193008,0h2.6443977L30.6380997-70.4589996
			h-1.2054005v3.3264008L55.1193008,0z"/>
	</g>
	<line id="Baseline-L" fill="none" stroke="#27AAE1" stroke-width="0.5" x1="263" y1="1556" x2="3036" y2="1556"/>
	<line id="Capline-L" fill="none" stroke="#27AAE1" stroke-width="0.5" x1="263" y1="1485.5400391" x2="3036" y2="1485.5400391"/>
	
		<line id="left-margin-Regular-M" fill="none" stroke="#00AEEF" stroke-width="0.5" x1="1392.4399414" y1="1030.7299805" x2="1392.4399414" y2="1150.1400146"/>
	
		<line id="right-margin-Regular-M" fill="none" stroke="#00AEEF" stroke-width="0.5" x1="1507.2399902" y1="1030.7299805" x2="1507.2399902" y2="1150.1400146"/>
</g>
<g id="Symbols">
	<g id="Semibold-L" transform="matrix(1 0 0 1 1984.32 1126)">
		<path d="M80.0100021,438.9862061c-1.0400009,0-2.0800018-0.2600098-3.1200027-0.6500244
			c-3.5099945-1.6900024-5.0699997-5.9799805-3.3799973-9.4899902c5.0699997-10.6600647,7.6699982-22.1000671,7.6699982-33.9300537
			c0-11.960022-2.5999985-23.5299988-7.6699982-34.1900024c-1.6900024-3.5100098-0.2600098-7.8000183,3.3799973-9.4899902
			c3.5099945-1.6900024,7.8000031-0.2600098,9.4900055,3.3799744c5.9799957,12.6100159,9.0999985,26.1300049,9.0999985,40.3000183
			c0,14.039978-2.9900055,27.5599976-9.0999985,40.1700439C85.2099991,437.5561829,82.7399979,438.9862061,80.0100021,438.9862061z
			 M100.1600037,455.2361145c-1.0400085,0-1.9500046-0.2599792-2.9900055-0.6499939
			c-3.6399918-1.6899414-5.1999969-5.8499146-3.5099945-9.4899292c7.2799988-16.1199951,11.0499954-33.02005,11.0499954-50.3100586
			c0-17.4200134-3.7699966-34.3200073-11.1799927-50.3099976c-1.6900101-3.6400146-0.1300125-7.8000183,3.5099945-9.4899902
			c3.6399994-1.6900024,7.7999954-0.1300049,9.4900055,3.5099792c8.3199921,17.8099976,12.4799957,36.7900085,12.4799957,56.2900085
			c0,19.3699951-4.1600037,38.3500671-12.2200012,56.2900696
			C105.4899979,453.6762085,102.8899994,455.2361145,100.1600037,455.2361145z M11.500001,421.8261414
			c-2.4700022,0-4.8100009-1.3000183-6.2400012-3.5100098c-4.1599998-7.1499939-6.3699999-15.3399963-6.3699999-23.6600037
			c0-8.4500122,2.2099996-16.6399841,6.3699999-23.7900085c1.0400014-1.8199768,2.8600011-3.1199951,4.940001-3.5099792
			c2.079998-0.3900146,4.1599989,0.2599792,5.8500004,1.5599976L57,402.9761353
			c0.7799988-2.730011,1.0400009-5.5899963,1.0400009-8.3200073c0-5.7200012-1.5600014-11.4400024-4.420002-16.3800049
			c-1.9500008-3.3800049-0.7799988-7.7999878,2.5999985-9.75c3.3800049-1.9499817,7.7999992-0.7799988,9.7500038,2.6000061
			c4.1600037,7.1499939,6.3699951,15.3399963,6.3699951,23.6600037s-2.2099915,16.5100098-6.3699951,23.6600037
			c-1.0400009,1.8200073-2.8600006,3.1199951-4.9400024,3.3800049c-2.079998,0.3899841-4.1599998-0.2600098-5.8499985-1.5599976
			l-40.8199997-34.1900024c-0.7800007,2.7299805-1.039999,5.5899963-1.039999,8.5799866
			c0,5.7200012,1.5599985,11.4400024,4.4199991,16.3800049c1.9500008,3.3800049,0.7800007,7.7999878-2.5999994,9.75
			C13.9700003,421.4361267,12.670001,421.8261414,11.500001,421.8261414z"/>
	</g>
	<g id="Regular-L" transform="matrix(1 0 0 1 1392.44 1126)">
		<path d="M78.5250015,437.270813c-0.7799988,0-1.5600052-0.1300049-2.2100067-0.519989
			c-2.5999985-1.3000183-3.6399918-4.2900085-2.4699936-6.8900146c5.2000046-10.9200134,7.8000031-22.6199951,7.8000031-34.8399963
			c0-12.3500061-2.5999985-24.0500183-7.8000031-34.9700012c-1.2999954-2.6000061-0.1300049-5.7200012,2.4699936-6.8900146
			c2.5999985-1.2999878,5.7200012-0.1300049,6.890007,2.4700012c5.8499985,12.3500061,8.840004,25.6100159,8.840004,39.519989
			c0,13.7800293-2.9900055,27.0400085-8.840004,39.2600403C82.2950058,436.2308044,80.4749985,437.270813,78.5250015,437.270813z
			 M98.6750031,453.520813c-0.7799988,0-1.4300003-0.1300049-2.2100067-0.519989
			c-2.5999985-1.1700134-3.769989-4.2900085-2.5999985-6.8900146c7.4100037-16.3800049,11.1800079-33.5400085,11.1800079-51.0899963
			c0-17.6800232-3.7700043-34.9700012-11.3100052-51.0899963c-1.1700058-2.6000061-0.1299973-5.7200012,2.4700012-6.8900146
			s5.7200012-0.1300049,6.8899994,2.4700012c8.1899948,17.5499878,12.3500061,36.269989,12.3500061,55.5100098
			c0,19.1099854-4.030014,37.8300171-12.090004,55.5100098C102.5750046,452.3508301,100.625,453.520813,98.6750031,453.520813z
			 M10.0150013,420.1108093c-1.8200026,0-3.5100012-0.9100037-4.5500002-2.6000061
			C1.4350004,410.6208191-0.645,402.8208008-0.645,394.8908081c0-8.0599976,2.0800004-15.9900208,6.1100011-22.75
			c0.7799978-1.3000183,2.079998-2.2099915,3.6399984-2.4700012s2.9899998,0.1300049,4.289999,1.1699829l43.1600037,35.8800049
			c1.2999992-3.769989,2.079998-7.6699829,2.079998-11.6999817c0-6.1100159-1.6899986-12.0899963-4.6799965-17.4200134
			c-1.4300003-2.4700012-0.6500015-5.7200012,1.8199997-7.1499939c2.4699974-1.4299927,5.7199974-0.6499939,7.1500015,1.8200073
			c4.0299988,6.8899841,6.109993,14.6900024,6.109993,22.6199951s-2.0799942,15.730011-6.109993,22.6199951
			c-0.7800026,1.2999878-2.0800056,2.2099915-3.6400032,2.4700012s-2.9900017-0.1300049-4.2900009-1.1700134L11.835,382.9308167
			c-1.2999992,3.769989-2.0799999,7.7999878-2.0799999,11.8299866c0,6.1100159,1.6899986,12.0899963,4.6800003,17.4200134
			c1.4300003,2.4700012,0.6499996,5.7200012-1.8199997,7.1499939C11.835,419.8507996,10.9249992,420.1108093,10.0150013,420.1108093
			z"/>
	</g>
	<g id="Semibold-M" transform="matrix(1 0 0 1 1984.32 1126)">
		<path d="M75.1500015-1.97595c-0.8000031,0-1.5999985-0.2-2.4000015-0.5c-2.6999969-1.3-3.9000015-4.6000004-2.5999985-7.3000002
			c3.9000015-8.2000494,5.9000015-17.0000496,5.9000015-26.1000481c0-9.2000008-2-18.1000023-5.9000015-26.2999992
			c-1.3000031-2.7000008-0.2000046-6.0000038,2.5999985-7.2999992c2.6999969-1.3000031,6-0.2000046,7.3000031,2.5999985
			c4.5999985,9.7000008,7,20.0999985,7,31c0,10.7999992-2.3000031,21.2000008-7,30.9000492
			C79.1500015-3.0759499,77.25-1.97595,75.1500015-1.97595z M90.6500015,10.5240002c-0.8000031,0-1.5-0.1999998-2.3000031-0.5
			c-2.7999954-1.2999506-4-4.4999499-2.6999969-7.2999501c5.5999985-12.3999996,8.5-25.4000511,8.5-38.7000504
			c0-13.3999977-2.9000015-26.3999977-8.5999985-38.7000008c-1.3000031-2.7999954-0.1000061-6,2.6999969-7.2999954
			c2.8000031-1.3000031,6-0.0999985,7.3000031,2.6999969c6.3999939,13.7000046,9.5999985,28.2999992,9.5999985,43.2999992
			c0,14.9000015-3.2000046,29.5000515-9.4000015,43.3000526C94.75,9.3240499,92.75,10.5240002,90.6500015,10.5240002z
			 M22.4500008-15.1759996c-1.9000015,0-3.7000008-1.000001-4.8000011-2.6999998
			C14.4499998-23.3759995,12.75-29.6760006,12.75-36.0760002c0-6.5,1.6999998-12.7999992,4.8999996-18.2999992
			c0.8000011-1.4000015,2.2000008-2.4000015,3.8000011-2.7000008c1.5999985-0.2999992,3.1999989,0.2000008,4.5,1.2000008
			l31.5,26.1999989C58.0499992-31.7759991,58.25-33.9760017,58.25-36.0760002c0-4.4000015-1.2000008-8.7999992-3.4000015-12.5999985
			c-1.5-2.6000023-0.5999985-6,2-7.5c2.6000023-1.5,6-0.6000023,7.5,2c3.2000046,5.5,4.9000015,11.7999992,4.9000015,18.1999969
			s-1.6999969,12.7000027-4.9000015,18.2000027c-0.7999992,1.3999996-2.1999969,2.3999987-3.7999992,2.5999994
			c-1.5999985,0.2999992-3.2000008-0.2000008-4.5-1.1999998L24.6499996-42.6759987
			c-0.6000004,2.0999985-0.7999992,4.2999992-0.7999992,6.5999985c0,4.3999996,1.1999989,8.8000011,3.3999996,12.6000004
			c1.5,2.6000004,0.6000004,6-2,7.5C24.3500004-15.4759998,23.3500004-15.1759996,22.4500008-15.1759996z"/>
	</g>
	<g id="Regular-M" transform="matrix(1 0 0 1 1392.44 1126)">
		<path d="M73.6500015-3.23279c-0.5999985,0-1.2000046-0.0999999-1.7000046-0.4000001c-2-1-2.7999954-3.2999997-1.8999939-5.2999997
			c4-8.4000101,6-17.4000092,6-26.8000107c0-9.5-2-18.5-6-26.9000015c-1-1.9999962-0.1000061-4.3999977,1.8999939-5.2999992
			c2-1,4.4000015-0.0999985,5.3000031,1.9000015c4.5,9.5,6.8000031,19.6999969,6.8000031,30.3999977
			c0,10.6000004-2.3000031,20.8000011-6.8000031,30.2000122C76.5500031-4.0327902,75.1500015-3.23279,73.6500015-3.23279z
			 M89.1500015,9.26721c-0.5999985,0-1.0999985-0.1000004-1.7000046-0.3999996c-2-0.9000006-2.8999939-3.3000002-2-5.3000002
			c5.7000046-12.6000004,8.6000061-25.8000088,8.6000061-39.3000107c0-13.6000023-2.9000015-26.9000015-8.7000046-39.2999992
			c-0.9000015-2-0.0999985-4.4000015,1.9000015-5.3000031s4.4000015-0.0999985,5.3000031,1.9000015
			c6.2999954,13.5,9.5,27.9000015,9.5,42.7000008c0,14.6999989-3.1000061,29.1000099-9.3000031,42.7000084
			C92.1500015,8.3672104,90.6500015,9.26721,89.1500015,9.26721z M20.9500008-16.4328003c-1.4000015,0-2.7000008-0.6999989-3.5-2
			C14.3500004-23.7327995,12.75-29.7327995,12.75-35.8328018c0-6.1999969,1.6000004-12.2999992,4.7000008-17.5
			c0.5999985-1,1.5999985-1.6999969,2.7999992-1.8999977s2.2999992,0.0999985,3.2999992,0.8999977L56.75-26.7327995
			c1-2.8999996,1.5999985-5.9000015,1.5999985-9c0-4.7000008-1.2999992-9.2999992-3.5999985-13.4000015
			c-1.0999985-1.8999977-0.5-4.3999977,1.4000015-5.5c1.8999977-1.0999985,4.3999977-0.5,5.5,1.4000015
			C64.75-47.9328003,66.3499985-41.9328003,66.3499985-35.8328018S64.75-23.7327995,61.6500015-18.4328003
			c-0.6000023,1-1.6000023,1.7000008-2.8000031,1.8999996c-1.1999969,0.2000008-2.2999992-0.0999985-3.2999992-0.8999996
			L22.3500004-45.0327988c-1,2.8999977-1.6000004,6-1.6000004,9.0999985c0,4.7000008,1.2999992,9.3000011,3.6000004,13.3999996
			c1.1000004,1.9000015,0.5,4.4000015-1.3999996,5.5C22.3500004-16.6327991,21.6499996-16.4328003,20.9500008-16.4328003z"/>
	</g>
	<g id="Semibold-S" transform="matrix(1 0 0 1 1984.32 1126)">
		<path d="M71.9100037-438.0198364c-0.640007,0-1.2799988-0.1600037-1.9200058-0.3999939
			c-2.159996-1.0400085-3.1199951-3.6800232-2.0799942-5.8400269c3.1200027-6.5600281,4.7200012-13.6000366,4.7200012-20.8800354
			c0-7.3599854-1.5999985-14.4799805-4.7200012-21.039978c-1.0400009-2.1600037-0.1600037-4.8000183,2.0799942-5.8399963
			c2.1600037-1.0400085,4.8000031-0.1600037,5.840004,2.0799866c3.6800003,7.7600098,5.5999985,16.0799866,5.5999985,24.7999878
			c0,8.6400146-1.8399963,16.960022-5.5999985,24.7200623C75.1100006-438.8998413,73.590004-438.0198364,71.9100037-438.0198364z
			 M84.3100052-428.0198669c-0.640007,0-1.2000046-0.1600037-1.840004-0.4000244
			c-2.2399979-1.0399475-3.2000046-3.5999451-2.159996-5.8399658c4.4799957-9.9199829,6.7999954-20.3200378,6.7999954-30.960022
			c0-10.7200012-2.3199997-21.1199951-6.8799973-30.9599915c-1.0400009-2.2400208-0.0800018-4.8000183,2.159996-5.8399963
			c2.2400055-1.0400085,4.8000031-0.0800171,5.840004,2.1599731c5.1199951,10.960022,7.6800003,22.6400146,7.6800003,34.6400146
			c0,11.9199829-2.5600052,23.6000366-7.5200043,34.6400452C87.590004-428.9798279,85.9899979-428.0198669,84.3100052-428.0198669z
			 M29.7500019-448.579895c-1.5200024,0-2.960001-0.7999878-3.8400021-2.1599731
			c-2.5599995-4.4000244-3.9200001-9.4400024-3.9200001-14.5600281c0-5.1999817,1.3600006-10.2399902,3.9200001-14.6399841
			c0.6400013-1.1199951,1.7600002-1.9200134,3.0400009-2.1600037c1.2799988-0.2399902,2.5599995,0.1600037,3.5999985,0.9599915
			L57.75-460.1798706c0.4799995-1.6800232,0.6399994-3.4400024,0.6399994-5.1200256
			c0-3.519989-0.9599991-7.039978-2.7200012-10.0799866c-1.2000008-2.0799866-0.4799995-4.7999878,1.6000023-6
			s4.7999992-0.480011,6,1.6000061c2.5600014,4.3999939,3.920002,9.4400024,3.920002,14.5599976
			s-1.3600006,10.1600037-3.920002,14.5599976c-0.6399994,1.1199951-1.7599983,1.9200134-3.0400009,2.0799866
			c-1.2799988,0.2400208-2.5600014-0.1599731-3.5999985-0.9599915L31.5100002-470.579895
			c-0.4799995,1.6800232-0.6399994,3.4400024-0.6399994,5.2799988c0,3.5200195,0.9599991,7.0400085,2.7199993,10.0800171
			c1.2000008,2.0799866,0.4799995,4.7999878-1.6000004,6C31.2700005-448.8198853,30.4700012-448.579895,29.7500019-448.579895z"/>
	</g>
	<g id="Regular-S" transform="matrix(1 0 0 1 1392.44 1126)">
		<path d="M70.4000015-438.9709778c-0.4799957,0-0.9600067-0.0800171-1.3600006-0.3200073
			c-1.6000061-0.8000183-2.2399979-2.6400146-1.5199966-4.2399902c3.1999969-6.7200317,4.7999954-13.9200134,4.7999954-21.440033
			c0-7.5999756-1.5999985-14.7999878-4.7999954-21.519989c-0.8000031-1.6000061-0.0800095-3.519989,1.5199966-4.2399902
			c1.5999985-0.8000183,3.5199966-0.0800171,4.2399979,1.519989c3.5999985,7.6000061,5.4400024,15.7600098,5.4400024,24.3200073
			c0,8.4799805-1.840004,16.6399841-5.4400024,24.1600037C72.7200012-439.6109924,71.5999985-438.9709778,70.4000015-438.9709778z
			 M82.8000031-428.9709778c-0.4800034,0-0.8799973-0.0800171-1.3600082-0.3200073
			c-1.5999985-0.7200012-2.3199921-2.6400146-1.5999985-4.2399902c4.5600052-10.0800171,6.8800049-20.6400146,6.8800049-31.440033
			c0-10.8800049-2.3199997-21.519989-6.9599991-31.4400024c-0.7200012-1.5999756-0.0800018-3.519989,1.5199966-4.2399902
			s3.5200043-0.0799866,4.2400055,1.519989c5.0399933,10.8000183,7.5999985,22.3200073,7.5999985,34.1600037
			c0,11.7600098-2.4800034,23.2800293-7.4400024,34.1600037C85.2000046-429.690979,84-428.9709778,82.8000031-428.9709778z
			 M28.2400017-449.5310059c-1.1200008,0-2.1600018-0.5599976-2.8000011-1.6000061
			c-2.4799995-4.2399902-3.7600002-9.039978-3.7600002-13.9199829c0-4.9599915,1.2800007-9.8399963,3.7600002-14
			c0.4799995-0.8000183,1.2799988-1.3600159,2.2399998-1.519989c0.960001-0.1600037,1.8400002,0.0799866,2.6399994,0.7199707
			l26.5600014,22.0800171c0.7999992-2.3200073,1.2799988-4.7200012,1.2799988-7.2000122
			c0-3.7599792-1.0400009-7.4400024-2.8799973-10.7200012c-0.8800011-1.519989-0.4000015-3.519989,1.1199989-4.3999939
			s3.5200005-0.3999939,4.4000015,1.1199951c2.4799995,4.2400208,3.7599945,9.0400085,3.7599945,13.9200134
			s-1.279995,9.6799927-3.7599945,13.9199829c-0.4800034,0.8000183-1.2800026,1.3600159-2.2400017,1.5200195
			s-1.8400002-0.0800171-2.6399994-0.7200012l-26.5600014-22.0800171c-0.7999992,2.3200073-1.2800007,4.8000183-1.2800007,7.2799988
			c0,3.7600098,1.0400009,7.4400024,2.8800011,10.7200012c0.8800011,1.5200195,0.3999996,3.5200195-1.1199989,4.4000244
			C29.3600006-449.6910095,28.8000011-449.5310059,28.2400017-449.5310059z"/>
	</g>
</g>
</svg>
