<?xml version="1.0" encoding="utf-8"?>
<!-- Generator: Adobe Illustrator 26.0.3, SVG Export Plug-In . SVG Version: 6.00 Build 0)  -->
<svg version="1.1" id="Layer_1" xmlns="http://www.w3.org/2000/svg" xmlns:xlink="http://www.w3.org/1999/xlink" x="0px" y="0px"
	 width="3300px" height="2200px" viewBox="0 0 3300 2200" enable-background="new 0 0 3300 2200" xml:space="preserve">
<g id="Notes">
	<rect id="artboard" fill="#FFFFFF" width="3300" height="2200"/>
	<line fill="none" stroke="#000000" stroke-width="0.5" x1="263" y1="292" x2="3036" y2="292"/>
	<text transform="matrix(1 0 0 1 263 322)" enable-background="new    "><tspan x="0" y="0" font-family="'Helvetica-Bold'" font-size="13px">W</tspan><tspan x="12.0415039" y="0" font-family="'Helvetica-Bold'" font-size="13px">eight/Scale </tspan><tspan x="84.2905273" y="0" font-family="'Helvetica-Bold'" font-size="13px">V</tspan><tspan x="92.2504883" y="0" font-family="'Helvetica-Bold'" font-size="13px">ariations</tspan></text>
	<text transform="matrix(1 0 0 1 534.0632935 322)" font-family="'Helvetica'" font-size="13px">Ultralight</text>
	<text transform="matrix(1 0 0 1 843.7774658 322)" font-family="'Helvetica'" font-size="13px">Thin</text>
	<text transform="matrix(1 0 0 1 1139.0350342 322)" font-family="'Helvetica'" font-size="13px">Light</text>
	<text transform="matrix(1 0 0 1 1427.0772705 322)" font-family="'Helvetica'" font-size="13px">Regular</text>
	<text transform="matrix(1 0 0 1 1723.4418945 322)" font-family="'Helvetica'" font-size="13px">Medium</text>
	<text transform="matrix(1 0 0 1 2016.171875 322)" font-family="'Helvetica'" font-size="13px">Semibold</text>
	<text transform="matrix(1 0 0 1 2326.970459 322)" font-family="'Helvetica'" font-size="13px">Bold</text>
	<text transform="matrix(1 0 0 1 2618.2658691 322)" font-family="'Helvetica'" font-size="13px">Heavy</text>
	<text transform="matrix(1 0 0 1 2917.5053711 322)" font-family="'Helvetica'" font-size="13px">Black</text>
	<line fill="none" stroke="#000000" stroke-width="0.5" x1="263" y1="1903" x2="3036" y2="1903"/>
	<g transform="matrix(1 0 0 1 263 1933)">
		<path d="M9.2480497,0.830078C10.3287497,0.8300779,11.344367,0.625,12.2948999,0.214844
			c0.9505339-0.4101567,1.7887669-0.979818,2.5146999-1.708984c0.7258663-0.7291666,1.2955332-1.5690097,1.7090006-2.5195298
			c0.4134007-0.95052,0.6201-1.9628901,0.6201-3.0371099s-0.2066994-2.0865941-0.6201-3.0371203
			c-0.4134674-0.9505329-0.984767-1.7903662-1.7139006-2.5194998c-0.7291994-0.7292004-1.5690327-1.2988663-2.5194998-1.7089996
			c-0.9505339-0.4101334-1.9661732-0.6152-3.0469198-0.6152c-1.0742207,0-2.0865903,0.2050667-3.0371103,0.6152
			s-1.7871065,0.9797993-2.5097599,1.7089996C2.96875-11.8782663,2.4007132-11.0384331,1.9873-10.0879002
			C1.5738934-9.1373739,1.36719-8.125,1.36719-7.0507798S1.5738934-4.96419,1.9873-4.01367
			C2.4007132-3.0631497,2.9703767-2.2233067,3.69629-1.49414s1.5641298,1.2988274,2.5146499,1.708984
			C7.1614604,0.625,8.17383,0.8300779,9.2480497,0.830078z M9.2480497-0.654297c-0.8854198,0-1.71387-0.1643876-2.4853497-0.493163
			c-0.7714868-0.3287734-1.4485698-0.78613-2.03125-1.3720701C4.1487632-3.1054699,3.6930332-3.7858098,3.36426-4.5605502
			c-0.3287802-0.7747402-0.49317-1.6048164-0.49317-2.4902296c0-0.8854198,0.1627634-1.7155004,0.4882901-2.4902406
			c0.32552-0.7747192,0.7796199-1.4550467,1.3623002-2.0409794c0.5826797-0.5859337,1.2597632-1.0433006,2.03125-1.3720999
			C7.5244164-13.2829008,8.3528671-13.4473,9.2382803-13.4473c0.8919458,0,1.7236528,0.1643991,2.49512,0.4932003
			c0.7714672,0.3287992,1.4501667,0.7861662,2.0360994,1.3720999c0.5859337,0.5859327,1.0449333,1.2662601,1.3769999,2.0409794
			c0.3320007,0.7747402,0.4980001,1.6048207,0.4980001,2.4902406c0,0.8854132-0.1643667,1.7154894-0.4931002,2.4902296
			c-0.3287992,0.7747405-0.7845325,1.4550803-1.3671999,2.0410202c-0.5826664,0.5859401-1.2613993,1.0432967-2.0361996,1.3720701
			C10.9732666-0.8186846,10.1399498-0.654297,9.2480497-0.654297z M5.6543002-7.0507798
			c0,0.2148399,0.0683599,0.3889933,0.2050796,0.52246C5.9960933-6.3948536,6.1783829-6.3281198,6.40625-6.3281202h2.1093702
			v2.1191401c0,0.2148402,0.0651064,0.3922467,0.1953201,0.5322201C8.8411474-3.5367868,9.0169268-3.4668,9.2382803-3.4668
			c0.2148457,0,0.3922558-0.0699868,0.5322294-0.20996c0.1399736-0.1399734,0.20996-0.31738,0.20996-0.5322201v-2.1191401h2.1093302
			c0.2214003,0.0000005,0.400466-0.0667334,0.5372-0.2001996c0.1366673-0.1334667,0.2049999-0.30762,0.2049999-0.52246
			c0-0.2213535-0.0683327-0.4003901-0.2049999-0.5371103c-0.136734-0.1367197-0.3157997-0.20508-0.5372-0.20508H9.9804697
			v-2.1093698c0-0.2213736-0.0699863-0.4020262-0.20996-0.5419598c-0.1399736-0.1400003-0.3173838-0.21-0.5322294-0.21
			c-0.2213535,0-0.3971329,0.0699997-0.5273399,0.21c-0.1302137,0.1399336-0.1953201,0.3205862-0.1953201,0.5419598v2.1093698
			H6.40625c-0.2278671,0-0.4101567,0.0683603-0.5468702,0.20508C5.7226601-7.45117,5.6543002-7.2721334,5.6543002-7.0507798z"/>
	</g>
	<g transform="matrix(1 0 0 1 281.867 1933)">
		<path d="M11.7089996,2.9101601c1.3606672,0,2.6416006-0.2604167,3.8428001-0.78125
			c1.2011337-0.5208334,2.2607002-1.2402358,3.1786995-2.1582069c0.9179344-0.9179688,1.6373348-1.9775398,2.1582012-3.1787131
			c0.5207996-1.2011731,0.7812004-2.4820969,0.7812004-3.8427699c0-1.3606801-0.2604008-2.6416202-0.7812004-3.8428206
			c-0.5208664-1.2011337-1.2402668-2.2606993-2.1582012-3.1786995c-0.9179993-0.9179335-1.9792004-1.6373329-3.1835995-2.1581993
			c-1.2044668-0.5207996-2.4870329-0.7812004-3.8477001-0.7812004s-2.6415825,0.2604008-3.8427491,0.7812004
			c-1.2011733,0.5208664-2.2591166,1.2402658-3.17383,2.1581993c-0.9147131,0.9180002-1.6324866,1.9775658-2.1533201,3.1786995
			C2.0084672-9.6924,1.7480505-8.4114599,1.7480503-7.0507798C1.7480505-5.6901069,2.0084672-4.409183,2.5293005-3.20801
			s1.2402332,2.2607443,2.1582,3.1787131c0.9179664,0.9179712,1.9775367,1.6373736,3.17871,2.1582069
			S10.3483133,2.9101601,11.7089996,2.9101601z M11.7089996,1.25c-1.1523533,0-2.2298326-0.2148436-3.23244-0.644531
			C7.4739599,0.1757813,6.5934277-0.418295,5.8349605-1.17676c-0.75846-0.7584602-1.3509068-1.6389933-1.7773399-2.6416001
			S3.4179704-5.8984399,3.4179704-7.0507798c0-1.1523461,0.2132168-2.2298207,0.6396501-3.2324204
			s1.0172534-1.8847656,1.77246-2.6464996c0.7552066-0.7617331,1.6341133-1.3557997,2.6367192-1.7821999
			c1.0025997-0.4264669,2.0800667-0.6396999,3.2323999-0.6396999s2.2298002,0.213233,3.2323999,0.6396999
			c1.0025997,0.4264002,1.8847666,1.0204668,2.6465006,1.7821999c0.761734,0.761734,1.3574333,1.6438999,1.7870998,2.6464996
			C19.7949333-9.2806005,20.0098-8.203126,20.0098-7.0507798c0,1.1523399-0.213232,2.2298131-0.6396999,3.2324197
			c-0.4263992,1.0026069-1.0188332,1.88314-1.7772999,2.6416001c-0.7584667,0.7584649-1.6406336,1.3525413-2.6465006,1.7822289
			S12.8613329,1.25,11.7089996,1.25z M7.1777306-7.0507798c0,0.2343731,0.0781269,0.4264297,0.2343798,0.57617
			C7.5683575-6.3248696,7.7701802-6.25,8.01758-6.25h2.8711195v2.8808601c0,0.2473931,0.0748672,0.4475899,0.2246008,0.60059
			c0.1497335,0.1529932,0.3417997,0.2294898,0.5761995,0.2294898c0.2473335,0,0.4475002-0.0764966,0.6005001-0.2294898
			c0.1529999-0.1530001,0.2294998-0.3531969,0.2294998-0.60059V-6.25h2.8809004
			c0.2473993,0,0.4475994-0.0748696,0.6005993-0.2246099s0.2294998-0.3417969,0.2294998-0.57617
			c0-0.2473998-0.0764999-0.4475965-0.2294998-0.6005902c-0.1529999-0.1529932-0.3532-0.2294898-0.6005993-0.2294898h-2.8809004
			v-2.87114c0-0.2538671-0.0764999-0.4573002-0.2294998-0.6103001s-0.3531666-0.2294998-0.6005001-0.2294998
			c-0.2343998,0-0.426466,0.0781326-0.5761995,0.2343998c-0.1497335,0.1562662-0.2246008,0.3580666-0.2246008,0.6054001v2.87114
			H8.01758c-0.2539062,0-0.4573565,0.0764966-0.6103497,0.2294898C7.2542305-7.4983764,7.1777306-7.2981796,7.1777306-7.0507798z"/>
	</g>
	<g transform="matrix(1 0 0 1 305.646 1933)">
		<path d="M14.9707003,5.6640601c1.393199,0,2.7229662-0.2164702,3.9892988-0.6494102
			c1.2662678-0.4329467,2.4300003-1.0400431,3.4912014-1.8212898c1.0611992-0.7812533,1.9840317-1.7024773,2.7684994-2.7636721
			c0.7845325-1.0611987,1.3932667-2.2265646,1.8262005-3.496098c0.4329338-1.2695265,0.6493988-2.5976501,0.6493988-3.9843698
			c0-1.3932271-0.216465-2.7229667-0.6493988-3.9892201c-0.4329338-1.2663326-1.0416679-2.4300671-1.8262005-3.4912004
			c-0.7844677-1.0611992-1.7073002-1.984066-2.7684994-2.7686005c-1.0612011-0.7845325-2.2265682-1.3932667-3.4961014-1.8261986
			c-1.2695312-0.4329338-2.6009331-0.6494007-3.9941988-0.6494007c-1.3931999,0-2.7229328,0.2164669-3.9892006,0.6494007
			c-1.2662859,0.4329319-2.4284029,1.041666-3.4863496,1.8261986c-1.05794,0.7845345-1.9791632,1.7074013-2.76367,2.7686005
			C3.9371731-13.470067,3.3300765-12.3063326,2.9003899-11.04c-0.4296865,1.2662535-0.6445298,2.595993-0.6445298,3.9892201
			c0,1.3867197,0.21647,2.7148433,0.64941,3.9843698c0.4329467,1.2695335,1.0400431,2.4348993,1.82129,3.496098
			c0.7812529,1.0611948,1.7024765,1.9824188,2.76367,2.7636721c1.0612006,0.7812467,2.2249236,1.3883431,3.4911695,1.8212898
			C12.2477341,5.4475899,13.5775003,5.6640601,14.9707003,5.6640601z M14.9707003,3.8476601
			c-1.2044001,0-2.3518677-0.1839199-3.4424-0.55176c-1.0904799-0.3678403-2.0881939-0.88379-2.9931402-1.5478501
			c-0.904953-0.6640646-1.6910863-1.4501987-2.3583999-2.358402C5.5094399-1.5185572,4.9934897-2.5179067,4.6289101-3.6084001
			C4.2643232-4.6988935,4.0820298-5.8463535,4.0820298-7.0507798c0-1.2109399,0.1822934-2.3616471,0.5468802-3.4521203
			c0.3645797-1.0905333,0.8789029-2.0899,1.5429697-2.9981003c0.6640601-0.9081993,1.4485636-1.6943321,2.3535099-2.3583994
			c0.9049463-0.6640663,1.9026833-1.1783657,2.9932108-1.5429001c1.0904665-0.3645992,2.2378998-0.5468998,3.4422998-0.5468998
			c1.2109327,0,2.3616648,0.1823006,3.452199,0.5468998c1.0904655,0.3645344,2.0897999,0.8788338,2.9980011,1.5429001
			c0.9081993,0.6640673,1.6943321,1.4502001,2.3584003,2.3583994c0.6640682,0.9082003,1.1800327,1.907567,1.5478992,2.9981003
			c0.3678017,1.0904732,0.5517006,2.2411804,0.5517006,3.4521203c0.0065327,1.2044263-0.1725006,2.3518863-0.5370998,3.4423797
			c-0.3645325,1.0904934-0.8804684,2.0898428-1.5478001,2.9980481c-0.6673336,0.9082034-1.455101,1.6943374-2.3633003,2.358402
			c-0.9081993,0.6640601-1.9075336,1.1800098-2.9980011,1.5478501C17.3323669,3.6637402,16.181633,3.8476601,14.9707003,3.8476601z
			 M9.1992197-7.0507798c0,0.2539067,0.0862637,0.4638662,0.25879,0.62988
			c0.1725264,0.1660132,0.3922567,0.2490196,0.6591902,0.2490201H14.0625V-2.2168
			c0,0.2669266,0.0830002,0.4866532,0.2489996,0.6591799c0.1660004,0.1725267,0.3792343,0.25879,0.6396999,0.25879
			c0.2669334,0,0.4866667-0.0846334,0.6592007-0.2538999c0.1724663-0.1692734,0.2586994-0.39063,0.2586994-0.66407v-3.9550798
			h3.9551001c0.2669334-0.0000005,0.485033-0.0830069,0.6543007-0.2490201
			c0.1692677-0.1660137,0.2539005-0.3759732,0.2539005-0.62988c0-0.2734404-0.0846329-0.4947929-0.2539005-0.6640601
			C20.3092327-7.8841133,20.0911331-7.96875,19.8241997-7.96875h-3.9551001v-3.9453497
			c0-0.2734003-0.0862331-0.4963665-0.2586994-0.6689005c-0.172534-0.172534-0.3922672-0.2587996-0.6592007-0.2587996
			c-0.2604656,0-0.4736996,0.0862656-0.6396999,0.2587996C14.1455002-12.4104662,14.0625-12.1875,14.0625-11.9140997V-7.96875
			h-3.9453001c-0.2734461,0-0.4948063,0.0846367-0.6640797,0.2539101C9.2838526-7.5455728,9.1992197-7.3242202,9.1992197-7.0507798z
			"/>
	</g>
	<text transform="matrix(1 0 0 1 263 1953)" enable-background="new    "><tspan x="0" y="0" font-family="'Helvetica-Bold'" font-size="13px">Design </tspan><tspan x="46.9536133" y="0" font-family="'Helvetica-Bold'" font-size="13px">V</tspan><tspan x="54.9135742" y="0" font-family="'Helvetica-Bold'" font-size="13px">ariations</tspan></text>
	<text transform="matrix(1 0 0 1 263 1971)" font-family="'Helvetica'" font-size="13px">Symbols are supported in up to nine weights and three scales.</text>
	<text transform="matrix(1 0 0 1 263 1989)" font-family="'Helvetica'" font-size="13px">For optimal layout with text and other symbols, vertically align</text>
	<text transform="matrix(1 0 0 1 263 2007)" font-family="'Helvetica'" font-size="13px">symbols with the adjacent text.</text>
	<line fill="none" stroke="#00AEEF" stroke-width="0.5" x1="776" y1="1919" x2="776" y2="1933"/>
	<g transform="matrix(1 0 0 1 776 1933)">
		<path d="M3.31055,0.15625c0.2604132,0,0.4622364-0.0553385,0.6054699-0.1660156
			C4.0592465-0.1204425,4.1764331-0.3125,4.26758-0.585938l1.2597599-3.4472618h5.7617598l1.2597008,3.4472618
			c0.0911331,0.273438,0.208333,0.4654954,0.3515997,0.5761724c0.143199,0.1106771,0.3417673,0.1660156,0.5957003,0.1660156
			c0.2603998,0,0.4670992-0.0716146,0.6201-0.2148438c0.1529999-0.1432295,0.2294998-0.3385418,0.2294998-0.5859372
			c0-0.14974-0.035799-0.325523-0.1073999-0.527349L9.6582003-13.3690996
			c-0.1171875-0.2995338-0.2766895-0.524168-0.4785099-0.6739006c-0.201827-0.1497335-0.4589901-0.2245998-0.7714901-0.2245998
			c-0.6054673,0-1.0156236,0.2962332-1.2304702,0.8887005L2.5976601-1.16211c-0.07162,0.2018234-0.10743,0.3776046-0.10743,0.527344
			c0,0.247396,0.0732434,0.441081,0.2197299,0.5810551S3.0566432,0.15625,3.31055,0.15625z M6.0058599-5.51758l2.3730502-6.5722198
			h0.0488195L10.8008003-5.51758H6.0058599z"/>
	</g>
	<line fill="none" stroke="#00AEEF" stroke-width="0.5" x1="793.1970215" y1="1919" x2="793.1970215" y2="1933"/>
	<text transform="matrix(1 0 0 1 776 1953)" font-family="'Helvetica-Bold'" font-size="13px">Margins</text>
	<text transform="matrix(1 0 0 1 776 1971)" font-family="'Helvetica'" font-size="13px">Leading and trailing margins on the left and right side of each symbol</text>
	<text transform="matrix(1 0 0 1 776 1989)" font-family="'Helvetica'" font-size="13px">can be adjusted by modifying the x-location of the margin guidelines.</text>
	<text transform="matrix(1 0 0 1 776 2007)" font-family="'Helvetica'" font-size="13px">Modifications are automatically applied proportionally to all</text>
	<text transform="matrix(1 0 0 1 776 2025)" font-family="'Helvetica'" font-size="13px">scales and weights.</text>
	<g transform="matrix(1 0 0 1 1289 1933)">
		<path d="M2.8418,1.86523l1.6992199,1.70899c0.429687,0.4361999,0.8837867,0.6380236,1.3622999,0.6054699
			c0.4785137-0.0325532,0.9488897-0.30599,1.41113-0.8203099L18.0077991-8.4277296l-0.9667988-0.9765701L6.4257798,2.2753899
			C6.25,2.47721,6.0725899,2.5911434,5.8935499,2.6171899c-0.1790328,0.0260401-0.3857369-0.0781267-0.62011-0.3125
			L4.1015601,1.14258c-0.2343733-0.234376-0.33691-0.4410824-0.30761-0.620119
			c0.0292933-0.1790367,0.14485-0.3597007,0.3466702-0.5419922L15.6152-10.8203001l-0.9765005-0.9667997L3.04688-0.898438
			C2.5520866-0.4427086,2.2867866,0.0227863,2.2509799,0.498047C2.2151732,0.973309,2.4121132,1.4290366,2.8418,1.86523z
			 M9.2578096-16.3281002C9.0494766-16.1262989,8.9322901-15.8951998,8.90625-15.6348
			c-0.0260401,0.2604666,0.0195341,0.4883337,0.1367197,0.6836004c0.1171865,0.182333,0.288084,0.319066,0.5126905,0.4101992
			c0.2246132,0.0911331,0.4996939,0.0976334,0.8252401,0.0195007c0.7291336-0.1692667,1.4680653-0.239234,2.2167997-0.2098999
			c0.7486668,0.0292664,1.4810667,0.2782669,2.1971998,0.7469997l-0.5859003,1.4551001
			c-0.1692657,0.416667-0.216466,0.7796326-0.1415997,1.0888996c0.0748663,0.3092003,0.2457666,0.6005335,0.5127001,0.8740005
			L16.875-8.2519503c0.2408657,0.2473936,0.4752331,0.3906202,0.7031002,0.4296803
			c0.2278671,0.0390668,0.4817677,0.0325565,0.7616997-0.0195303l1.0645008-0.1953101l0.6640987,0.6738305l-0.0390987,0.5566397
			c-0.0195332,0.2473936,0.0114002,0.4752569,0.0928001,0.6835899c0.0813332,0.2083335,0.242466,0.4329433,0.4833984,0.67383
			l0.7617016,0.7421904c0.2408676,0.2408867,0.5028992,0.3662133,0.7860985,0.3759799
			c0.2832012,0.0097599,0.5419998-0.1025472,0.7764015-0.3369203l2.910099-2.91992
			c0.2344017-0.2343731,0.3483334-0.4899068,0.3418007-0.7666001c-0.0064678-0.2766933-0.1301689-0.5354834-0.3711014-0.77637
			L25.0391006-9.89258c-0.2343998-0.24088-0.454134-0.4052534-0.6592007-0.4931202
			c-0.2050667-0.0879335-0.4280663-0.1221333-0.6690006-0.1026001L23.1348-10.4394999L22.4902-11.0741997L22.7343998-12.1973
			c0.0650673-0.2799339,0.0520325-0.5419664-0.0391006-0.7861004s-0.2831993-0.5127001-0.5761986-0.8056993l-2.1972008-2.1875
			c-0.8333321-0.8268003-1.7203999-1.4469004-2.6611996-1.860301c-0.940733-0.4133987-1.8880005-0.628233-2.8418007-0.6444988
			c-0.9537325-0.0163326-1.8716993,0.1578007-2.7538996,0.5223999C10.7828665-17.5944004,9.9804697-17.050766,9.2578096-16.3281002z
			 M10.7519999-15.9569998c0.6054668-0.4427328,1.2548666-0.7585001,1.9482002-0.9473009
			c0.6933327-0.1887989,1.3948326-0.249033,2.1044998-0.1806984c0.7096004,0.0683994,1.3980665,0.2588329,2.0654001,0.5712986
			c0.6673317,0.3125343,1.2776985,0.7487326,1.8311005,1.3086004l2.4315987,2.4120998
			c0.1172009,0.1171999,0.1904335,0.2311335,0.2197018,0.3418007c0.0293331,0.1106663,0.0244656,0.2506657-0.0146008,0.4199991
			l-0.3223,1.4843006L22.5195007-9.0625l0.9863987-0.0585899c0.1236687-0.0065136,0.2180691,0.0016232,0.2832012,0.0244102
			c0.0650654,0.0227861,0.146431,0.0830069,0.2440987,0.1806593l0.5762005,0.5761805l-2.4414005,2.4414001l-0.5761986-0.57617
			C21.494133-6.5722632,21.4322662-6.6536431,21.4062004-6.71875c-0.0259991-0.0651069-0.0357323-0.1627636-0.0291996-0.2929702
			l0.0682983-0.9765596l-1.4940987-1.4843802L18.4277-9.21875c-0.1627331,0.0325537-0.2912998,0.0374365-0.3857002,0.0146503
			c-0.0944004-0.0227871-0.2034664-0.0927744-0.3271999-0.20996l-2.0018997-2.0019407
			c-0.1302004-0.1171999-0.203433-0.2294998-0.2196999-0.3368998c-0.0162668-0.1074667,0.0146322-0.2523336,0.0927-0.4345999
			l0.8788996-2.0897999c-0.7811995-0.7292004-1.6601-1.2337675-2.6366997-1.5137005
			c-0.9765329-0.279932-1.9726343-0.2701664-2.9883003,0.0293007c-0.0780659,0.0195322-0.1285,0.0048666-0.1512995-0.0440006
			C10.6657-15.8544998,10.6868668-15.904933,10.7519999-15.9569998z"/>
	</g>
	<text transform="matrix(1 0 0 1 1289 1953)" font-family="'Helvetica-Bold'" font-size="13px">Exporting</text>
	<text transform="matrix(1 0 0 1 1289 1971)" font-family="'Helvetica'" font-size="13px">Symbols should be outlined when exporting to ensure the</text>
	<text transform="matrix(1 0 0 1 1289 1989)" font-family="'Helvetica'" font-size="13px">design is preserved when submitting to Xcode.</text>
	<text id="template-version" transform="matrix(1 0 0 1 2952.4140625 1933)" enable-background="new    "><tspan x="0" y="0" font-family="'Helvetica'" font-size="13px" letter-spacing="-1">T</tspan><tspan x="6.5" y="0" font-family="'Helvetica'" font-size="13px">emplate </tspan><tspan x="56.3608398" y="0" font-family="'Helvetica'" font-size="13px">v</tspan><tspan x="61.9023438" y="0" font-family="'Helvetica'" font-size="13px">.3.0</tspan></text>
	<text transform="matrix(1 0 0 1 2865.4575195 1951)" font-family="'Helvetica'" font-size="13px">Requires Xcode 13 or greater</text>
	<text id="descriptive-name" transform="matrix(1 0 0 1 2904.4956055 1969)" font-family="'Helvetica'" font-size="13px">Generated from segwit</text>
	<text transform="matrix(1 0 0 1 2912.4111328 1987)" enable-background="new    "><tspan x="0" y="0" font-family="'Helvetica'" font-size="13px">T</tspan><tspan x="7.2299805" y="0" font-family="'Helvetica'" font-size="13px">ypeset at 100 points</tspan></text>
	<text transform="matrix(1 0 0 1 263 726)" font-family="'Helvetica'" font-size="13px">Small</text>
	<text transform="matrix(1 0 0 1 263 1156)" font-family="'Helvetica'" font-size="13px">Medium</text>
	<text transform="matrix(1 0 0 1 263 1586)" font-family="'Helvetica'" font-size="13px">Large</text>
</g>
<g id="Guides">
	<g id="H-reference" transform="matrix(1 0 0 1 339 696)">
		<path fill="#27AAE1" d="M0.993347,0h2.6443532l25.6904984-67.1325989h0.7019005v-3.3264008h-1.9074001L0.993347,0z
			 M11.6882-24.4797001h35.293602l-0.7507019-2.2490997H12.4382L11.6882-24.4797001z M55.1193008,0h2.6443977L30.6380997-70.4589996
			h-1.2054005v3.3264008L55.1193008,0z"/>
	</g>
	<line id="Baseline-S" fill="none" stroke="#27AAE1" stroke-width="0.5" x1="263" y1="696" x2="3036" y2="696"/>
	<line id="Capline-S" fill="none" stroke="#27AAE1" stroke-width="0.5" x1="263" y1="625.5410156" x2="3036" y2="625.5410156"/>
	<g id="H-reference_00000080890756128340291200000003878638904343524784_" transform="matrix(1 0 0 1 339 1126)">
		<path fill="#27AAE1" d="M0.993347,0h2.6443532l25.6904984-67.1325989h0.7019005v-3.3264008h-1.9074001L0.993347,0z
			 M11.6882-24.4797001h35.293602l-0.7507019-2.2490997H12.4382L11.6882-24.4797001z M55.1193008,0h2.6443977L30.6380997-70.4589996
			h-1.2054005v3.3264008L55.1193008,0z"/>
	</g>
	<line id="Baseline-M" fill="none" stroke="#27AAE1" stroke-width="0.5" x1="263" y1="1126" x2="3036" y2="1126"/>
	<line id="Capline-M" fill="none" stroke="#27AAE1" stroke-width="0.5" x1="263" y1="1055.5400391" x2="3036" y2="1055.5400391"/>
	<g id="H-reference_00000037660334858769442010000007862955818041540770_" transform="matrix(1 0 0 1 339 1556)">
		<path fill="#27AAE1" d="M0.993347,0h2.6443532l25.6904984-67.1325989h0.7019005v-3.3264008h-1.9074001L0.993347,0z
			 M11.6882-24.4797001h35.293602l-0.7507019-2.2490997H12.4382L11.6882-24.4797001z M55.1193008,0h2.6443977L30.6380997-70.4589996
			h-1.2054005v3.3264008L55.1193008,0z"/>
	</g>
	<line id="Baseline-L" fill="none" stroke="#27AAE1" stroke-width="0.5" x1="263" y1="1556" x2="3036" y2="1556"/>
	<line id="Capline-L" fill="none" stroke="#27AAE1" stroke-width="0.5" x1="263" y1="1485.5400391" x2="3036" y2="1485.5400391"/>
	
		<line id="left-margin-Regular-M" fill="none" stroke="#00AEEF" stroke-width="0.5" x1="1373.8399658" y1="1030.7299805" x2="1373.8399658" y2="1150.1400146"/>
	
		<line id="right-margin-Regular-M" fill="none" stroke="#00AEEF" stroke-width="0.5" x1="1525.8399658" y1="1030.7299805" x2="1525.8399658" y2="1150.1400146"/>
</g>
<g id="Symbols">
	<g id="Semibold-L" transform="matrix(1 0 0 1 1965.22 1126)">
		<path d="M105.6750031,328.6654968l-27.5600052,27.5599976l-27.5599976-27.5599976l-66.1699982,66.1700134l66.0400009,66.039978
			l27.5600014-27.5599976l27.5599976,27.5599976l66.1700134-66.1699829L105.6750031,328.6654968z M70.8349991,383.135498l-9.75-9.75
			l-21.4500008,21.4500122l28.6000023,28.5999756l-17.8100014,17.8100281L4.0149994,394.8355103l46.5400009-46.5400085
			l46.409996,46.4100037l-4.4199982,4.4199829c-6.3699951,6.3700256-6.3699951,6.3700256-6.3699951,7.2799988
			c0,0.9100037,0,1.0400085,4.0299988,4.9400024l4.8099976,4.8099976l21.5799942-21.5799866l-28.5999985-28.6000061
			l17.8100052-17.8099976l46.4100113,46.4100037l-46.5400085,46.5400085l-46.4100075-46.4100037L70.8349991,383.135498z"/>
	</g>
	<g id="Regular-L" transform="matrix(1 0 0 1 1373.84 1126)">
		<path d="M16.7199993,363.115509L-15,394.8355103l31.5899982,31.5899963l31.7200031,31.7200012L62.090004,444.365509
			L76,430.4555054l13.7799988,13.9100037l13.7799988,13.7799988l31.7200012-31.7200012L167,394.7055054l-31.5900116-31.5899963
			l-31.719986-31.7200012L89.909996,345.1755066L76,359.0855103l-13.7799988-13.9100037l-13.7800026-13.7799988
			L16.7199993,363.115509z M91.859993,400.5555115c-3.1199875,3.1199951-5.719986,5.8499756-5.719986,5.9799805
			s1.5599899,1.6900024,3.3799973,3.6400146l3.5099945,3.5100098l9.3600082-9.3600159l9.359993-9.3600159l-14.3000031-14.2999878
			L83.1500015,366.365509l10.2699966-10.2700195l10.2700043-10.269989l24.5699921,24.5700073l24.5700073,24.5699768
			l-24.6999969,24.7000122l-24.7000046,24.7000122l-24.4399948-24.960022L54.420002,394.8355103l5.8499985-5.8500061
			l5.8500023-5.8500061l-3.510006-3.5100098l-3.5099983-3.5099792l-9.3600006,9.3599854L40.25,394.8355103l14.2999992,14.2999878
			l14.2999992,14.3000183l-10.2700005,10.269989l-10.2699966,10.269989l-24.5700016-24.5700073l-24.5699997-24.5699768
			l24.7000027-24.7000122l24.7000008-24.6999817l24.5700035,24.5699768l24.5699921,24.5700073L91.859993,400.5555115z"/>
	</g>
	<g id="Semibold-M" transform="matrix(1 0 0 1 1965.22 1126)">
		<path d="M99.3000031-86.4000015L78.0999985-65.1999969L56.9000015-86.4000015L5.9999995-35.5l50.7999992,50.7999992L78-5.9000001
			l21.1999969,21.2000008l50.9000092-50.8999977L99.3000031-86.4000015z M72.5-44.5L65-52L48.5-35.5l22,22L56.7999992,0.2
			L21.1000004-35.5l35.8000031-35.8000031l35.6999969,35.7000046l-3.4000015,3.3999977
			c-4.8999939,4.9000015-4.8999939,4.9000015-4.8999939,5.6000004c0,0.7000008,0,0.8000011,3.0999985,3.8000011l3.6999969,3.6999989
			l16.5999985-16.6000004l-22-22l13.7000046-13.7000008l35.7000046,35.7000008L99.3000031,0.1L63.5999985-35.5999985L72.5-44.5z"/>
	</g>
	<g id="Regular-M" transform="matrix(1 0 0 1 1373.84 1126)">
		<path d="M30.3999996-59.9000015L6-35.5l24.2999992,24.2999992l24.4000015,24.3999996L65.3000031,2.5999999L76-8.1000004
			L86.5999985,2.5999999l10.5999985,10.6000004l24.4000015-24.3999996L146-35.5999985l-24.3000031-24.3000031L97.3000031-84.3000031
			L86.6999969-73.6999969L76-63L65.4000015-73.6999969L54.7999992-84.3000031L30.3999996-59.9000015z M88.1999969-31.1000004
			c-2.3999939,2.3999996-4.3999939,4.5-4.3999939,4.6000004S85-25.2000008,86.4000015-23.7000008L89.0999985-21l7.2000046-7.2000008
			L103.5-35.4000015l-11-11l-11-11l7.9000015-7.9000015l7.9000015-7.8999939l18.8999939,18.8999977l18.9000092,18.8999977
			l-19.0000076,19.0000019l-19,19L78.3000031-16.6000004L59.4000015-35.5l4.5-4.5l4.5-4.5l-2.7000046-2.7000008L63-49.9000015
			l-7.2000008,7.2000008L48.5-35.5l11,11l11,11l-7.9000015,7.9000001L54.7000008,2.3L35.7999992-16.6000004L16.8999996-35.5
			l19.0000019-19l19-19l18.9000015,18.9000015l18.8999939,18.8999977L88.1999969-31.1000004z"/>
	</g>
	<g id="Semibold-S" transform="matrix(1 0 0 1 1965.22 1126)">
		<path d="M95.0500031-505.9095154l-16.9600067,16.960022l-16.9599953-16.960022l-40.7200012,40.7200012l40.6399994,40.6400146
			l16.9600029-16.9599915l16.9599991,16.9599915l40.7200012-40.7200012L95.0500031-505.9095154z M73.6100006-472.3894958l-6-6
			l-13.2000008,13.1999817l17.6000023,17.6000061l-10.9600029,10.960022l-28.5599976-28.5600281l28.6399994-28.6399841
			l28.5600014,28.5599976l-2.7200012,2.7200012c-3.9199982,3.9200134-3.9199982,3.9200134-3.9199982,4.480011
			s0,0.6399841,2.4799957,3.039978l2.9599991,2.960022l13.2799988-13.2799988l-17.5999985-17.6000061l10.9600067-10.960022
			l28.5599976,28.5600281l-28.6399994,28.6399841l-28.5600052-28.5599976L73.6100006-472.3894958z"/>
	</g>
	<g id="Regular-S" transform="matrix(1 0 0 1 1373.84 1126)">
		<path d="M39.5200005-484.7095032L20-465.1895142l19.4399986,19.4400024l19.5200005,19.5200195l8.4800034-8.480011L76-443.2695007
			l8.4799957,8.5599976l8.4800034,8.480011l19.5199966-19.5200195L132-465.2695007l-19.4400024-19.4400024l-19.5199966-19.519989
			l-8.4800034,8.4799805L76-487.1895142l-8.4799957-8.5599976l-8.4800034-8.4799805L39.5200005-484.7095032z
			 M85.7599945-461.6694946c-1.9199905,1.9199829-3.519989,3.6000061-3.519989,3.6799927
			c0,0.0800171,0.9599915,1.0400085,2.0799942,2.2399902l2.159996,2.1600037l5.7600098-5.7599792L98-465.1094971
			l-8.8000031-8.8000183l-8.7999954-8.7999878l6.3199997-6.3200073l6.3199997-6.3199768l15.1199951,15.1199951
			l15.1200104,15.1199951l-15.2000046,15.2000122l-15.2000046,15.1999817L77.840004-450.0694885l-15.1200027-15.1200256
			l3.5999985-3.5999756l3.5999985-3.6000061l-2.1600037-2.1600037l-2.159996-2.1600037l-5.7599983,5.7600098L54-465.1895142
			l8.7999992,8.8000183l8.7999992,8.7999878l-6.3199997,6.3200073l-6.3199997,6.3200073l-15.1199989-15.1199951
			l-15.1200008-15.1200256l15.2000027-15.1999817l15.2000008-15.2000122l15.1200027,15.1199951l15.1199951,15.1200256
			L85.7599945-461.6694946z"/>
	</g>
</g>
</svg>
