<?xml version="1.0" encoding="utf-8"?>
<!-- Generator: Adobe Illustrator 26.0.3, SVG Export Plug-In . SVG Version: 6.00 Build 0)  -->
<svg version="1.1" id="Layer_1" xmlns="http://www.w3.org/2000/svg" xmlns:xlink="http://www.w3.org/1999/xlink" x="0px" y="0px"
	 width="3300px" height="2200px" viewBox="0 0 3300 2200" enable-background="new 0 0 3300 2200" xml:space="preserve">
<g id="Notes">
	<rect id="artboard" fill="#FFFFFF" width="3300" height="2200"/>
	<line fill="none" stroke="#000000" stroke-width="0.5" x1="263" y1="292" x2="3036" y2="292"/>
	<text transform="matrix(1 0 0 1 263 322)" enable-background="new    "><tspan x="0" y="0" font-family="'Arial-BoldMT'" font-size="12px">W</tspan><tspan x="11.109375" y="0" font-family="'Arial-BoldMT'" font-size="12px">eight/Scale </tspan><tspan x="77.8007812" y="0" font-family="'Arial-BoldMT'" font-size="12px">V</tspan><tspan x="85.1425781" y="0" font-family="'Arial-BoldMT'" font-size="12px">ariations</tspan></text>
	<text transform="matrix(1 0 0 1 536.0361938 322)" font-family="'ArialMT'" font-size="12px">Ultralight</text>
	<text transform="matrix(1 0 0 1 844.7501221 322)" font-family="'ArialMT'" font-size="12px">Thin</text>
	<text transform="matrix(1 0 0 1 1140.1192627 322)" font-family="'ArialMT'" font-size="12px">Light</text>
	<text transform="matrix(1 0 0 1 1428.8282471 322)" font-family="'ArialMT'" font-size="12px">Regular</text>
	<text transform="matrix(1 0 0 1 1725.2202148 322)" font-family="'ArialMT'" font-size="12px">Medium</text>
	<text transform="matrix(1 0 0 1 2018.2563477 322)" font-family="'ArialMT'" font-size="12px">Semibold</text>
	<text transform="matrix(1 0 0 1 2327.9711914 322)" font-family="'ArialMT'" font-size="12px">Bold</text>
	<text transform="matrix(1 0 0 1 2619.6831055 322)" font-family="'ArialMT'" font-size="12px">Heavy</text>
	<text transform="matrix(1 0 0 1 2918.7280273 322)" font-family="'ArialMT'" font-size="12px">Black</text>
	<line fill="none" stroke="#000000" stroke-width="0.5" x1="263" y1="1903" x2="3036" y2="1903"/>
	<g transform="matrix(1 0 0 1 263 1933)">
		<path d="M9.1999998,0.8C13.5,0.8,17.1000004-2.8,17.1000004-7.0999999S13.5-15,9.1999998-15
			s-7.9000001,3.6000004-7.9000001,7.9000001C1.4-2.7,5,0.8,9.1999998,0.8z M9.1999998-0.7
			c-3.5,0-6.4000001-2.8-6.4000001-6.4000001S5.5999994-13.5,9.1999998-13.5s6.4000006,2.8000002,6.4000006,6.4000001
			C15.6999998-3.5,12.8000002-0.7,9.1999998-0.7z M6.4000001-6.3000002H8.5v2.0999999c0,0.4000001,0.3000002,0.7,0.6999998,0.7
			s0.6999998-0.3,0.6999998-0.7v-2.0999999H12c0.3999996,0,0.6999998-0.3000002,0.6999998-0.6999998
			c0-0.4000001-0.3000002-0.6999998-0.6999998-0.6999998h-2v-2.0999994c0-0.3999996-0.3000002-0.8000002-0.6999998-0.8000002
			s-0.6999998,0.3000002-0.6999998,0.8000002v2.0999999H6.4000001C5.9000001-7.8000002,5.5999999-7.5,5.5999999-7
			C5.5999999-6.5999999,5.9000001-6.3000002,6.4000001-6.3000002z"/>
	</g>
	<g transform="matrix(1 0 0 1 281.506 1933)">
		<path d="M11.6999998,2.9000001c5.4000006,0,10.000001-4.5,10.000001-10c0-5.4000001-4.5-10-10-10c-5.4000001,0-10,4.5-10,10
			C1.7-1.6,6.3000002,2.9000001,11.6999998,2.9000001z M11.6999998,1.2c-4.5999999,0-8.3000002-3.7-8.3000002-8.3000002
			s3.6999998-8.3000002,8.3000002-8.3000002S20-11.6999998,20-7.0999999C20-2.4000001,16.2999992,1.2,11.6999998,1.2z M8-6.1999998
			h2.8999996v2.9000001c0,0.5,0.3000002,0.8,0.8000002,0.8s0.8000002-0.3,0.8000002-0.8v-2.9000001h2.8999996
			c0.5,0,0.7999992-0.3000002,0.7999992-0.8000002s-0.3000002-0.8000002-0.8000002-0.8000002h-2.9000006v-2.9000006
			c0-0.5-0.3000002-0.8000002-0.8000002-0.8000002s-0.8000002,0.3000002-0.8000002,0.8000002v2.9000001H8
			C7.5-7.9000001,7.0999999-7.5,7.0999999-7C7.0999999-6.5999999,7.5-6.1999998,8-6.1999998z"/>
	</g>
	<g transform="matrix(1 0 0 1 304.924 1933)">
		<path d="M15,5.6999998c7,0,12.7000008-5.8000002,12.7000008-12.6999998c0-7-5.7999992-12.7000008-12.6999998-12.7000008
			C8-19.7999992,2.3000002-14,2.3000002-7.0999999C2.3000002-0.1,8,5.6999998,15,5.6999998z M15,3.8
			C8.8999996,3.8,4.0999999-1,4.0999999-7.0999999C4.0999999-13.1000004,8.8999996-18,15-18
			c6,0,10.8999996,4.8999996,10.8999996,10.8999996C25.8999996-1,21,3.8,15,3.8z M10.1000004-6.0999999h4v4
			c0,0.5,0.3999996,0.9,0.8999996,0.9s0.8999996-0.4,0.8999996-0.9v-4h4c0.5,0,0.8999996-0.4000001,0.8999996-0.9000001
			s-0.3999996-0.9000001-0.8999996-0.9000001h-4v-3.9999995C15.8999996-12.5,15.5-12.7999992,15-12.7999992
			s-0.8999996,0.3999996-0.8999996,0.8999996v4h-4c-0.6000004,0-1,0.3000002-1,0.9000001
			C9.1000004-6.5,9.5-6.0999999,10.1000004-6.0999999z"/>
	</g>
	<text transform="matrix(1 0 0 1 263 1953)" enable-background="new    "><tspan x="0" y="0" font-family="'Arial-BoldMT'" font-size="12px">Design </tspan><tspan x="43.3417969" y="0" font-family="'Arial-BoldMT'" font-size="12px">V</tspan><tspan x="50.6835938" y="0" font-family="'Arial-BoldMT'" font-size="12px">ariations</tspan></text>
	<text transform="matrix(1 0 0 1 263 1971)" font-family="'ArialMT'" font-size="12px">Symbols are supported in up to nine weights and three scales.</text>
	<text transform="matrix(1 0 0 1 263 1989)" font-family="'ArialMT'" font-size="12px">For optimal layout with text and other symbols, vertically align</text>
	<text transform="matrix(1 0 0 1 263 2007)" font-family="'ArialMT'" font-size="12px">symbols with the adjacent text.</text>
	<line fill="none" stroke="#00AEEF" stroke-width="0.5" x1="776" y1="1919" x2="776" y2="1933"/>
	<g transform="matrix(1 0 0 1 776 1933)">
		<path d="M3.3,0.1c0.5,0,0.8-0.2,1.0000002-0.7l1.3000002-3.5h5.8000002l1.3000002,3.5c0.1999998,0.5,0.3999996,0.7,0.8999996,0.7
			s0.8000002-0.3,0.8000002-0.8c0-0.2,0-0.3-0.1000004-0.5L9.6999998-13.3999996C9.3999996-14,9-14.3000002,8.3999996-14.3000002
			s-1,0.3000002-1.1999998,0.8999996L2.5999999-1.2C2.5-1,2.5-0.8,2.5-0.7C2.5-0.2,2.8,0.1,3.3,0.1z M6-5.5l2.3999996-6.6000004l0,0
			l2.3999996,6.5999999C10.8000002-5.5,6-5.5,6-5.5z"/>
	</g>
	<line fill="none" stroke="#00AEEF" stroke-width="0.5" x1="792.7999878" y1="1919" x2="792.7999878" y2="1933"/>
	<text transform="matrix(1 0 0 1 776 1953)" font-family="'Arial-BoldMT'" font-size="12px">Margins</text>
	<text transform="matrix(1 0 0 1 776 1971)" font-family="'ArialMT'" font-size="12px">Leading and trailing margins on the left and right side of each symbol</text>
	<text transform="matrix(1 0 0 1 776 1989)" font-family="'ArialMT'" font-size="12px">can be adjusted by modifying the x-location of the margin guidelines.</text>
	<text transform="matrix(1 0 0 1 776 2007)" font-family="'ArialMT'" font-size="12px">Modifications are automatically applied proportionally to all</text>
	<text transform="matrix(1 0 0 1 776 2025)" font-family="'ArialMT'" font-size="12px">scales and weights.</text>
	<g transform="matrix(1 0 0 1 1289 1933)">
		<path d="M2.8,1.9l1.7,1.6999999c0.9000001,0.9000001,1.8000002,0.8000002,2.8000002-0.2L17.5-7.9000001
			c0.2999992,0.0999999,0.5,0.0999999,0.7999992,0L19.3999996-8l0.7000008,0.6999998v0.5999999
			c0,0.5,0.1000004,0.9000001,0.6000004,1.4000001L21.5-4.6000004c0.5,0.5,1.1000004,0.5,1.6000004,0L26-7.5
			C26.5-8,26.3999996-8.6000004,26-9l-1-0.8999996C24.5-10.3999996,24.2000008-10.5,23.7000008-10.5h-0.6000004L22.5-11.1000004
			l0.2000008-1.1000004c0.1000004-0.6000004,0-1-0.6000004-1.6000004L19.8999996-16
			c-3.2999992-3.2999992-7.8000002-3.2000008-10.6999998-0.3999996C8.8000002-16,8.8000002-15.3999996,9-15
			s0.6999998,0.6000004,1.3000002,0.3999996c1.5-0.3000002,3-0.3999996,4.4000006,0.5l-0.6000004,1.5
			c-0.1999998,0.5-0.1999998,0.8999996-0.1000004,1.1999998L3-0.9C2.0999999,0,2,1,2.8,1.9z M10.8000002-16
			c2.4000006-1.7999992,5.6999998-1.5,7.9000006,0.8000002l2.3999996,2.4000006
			c0.2000008,0.1999998,0.2999992,0.3999996,0.2000008,0.8000002L21-10.5L22.5-9l1-0.1000004c0.2999992,0,0.2999992,0,0.5,0.1999998
			l0.6000004,0.6000004l-2.3999996,2.4000001L21.6000004-6.5c-0.2000008-0.1999998-0.2000008-0.3000002-0.2000008-0.5L21.5-8L20-9.5
			l-1.5,0.3000002c-0.2999992,0.1000004-0.5,0-0.7000008-0.1999998l-2-2
			c-0.3000002-0.1999998-0.3000002-0.3999996-0.1000004-0.8000002l0.8999996-2.0999994C15-15.8000002,13-16.3999996,11-15.8000002
			C10.6999998-15.6999998,10.6000004-15.8000002,10.8000002-16z M5.3000002,2.3L4.0999999,1.1c-0.5-0.4-0.3999999-0.8,0-1.1
			L15-10.1999998l1.5,1.5l-10,11C6.0999999,2.7,5.6999998,2.8,5.3000002,2.3z"/>
	</g>
	<text transform="matrix(1 0 0 1 1289 1953)" font-family="'Arial-BoldMT'" font-size="12px">Exporting</text>
	<text transform="matrix(1 0 0 1 1289 1971)" font-family="'ArialMT'" font-size="12px">Symbols should be outlined when exporting to ensure the</text>
	<text transform="matrix(1 0 0 1 1289 1989)" font-family="'ArialMT'" font-size="12px">design is preserved when submitting to Xcode.</text>
	<text id="template-version" transform="matrix(1 0 0 1 2958.8496094 1933)" enable-background="new    "><tspan x="0" y="0" font-family="'ArialMT'" font-size="12px" letter-spacing="-1">T</tspan><tspan x="6" y="0" font-family="'ArialMT'" font-size="12px">emplate </tspan><tspan x="52.0253906" y="0" font-family="'ArialMT'" font-size="12px">v</tspan><tspan x="57.1347656" y="0" font-family="'ArialMT'" font-size="12px">.2.0</tspan></text>
	<text transform="matrix(1 0 0 1 2878.5761719 1951)" font-family="'ArialMT'" font-size="12px">Requires Xcode 12 or greater</text>
	<text transform="matrix(1 0 0 1 2887.9335938 1969)" enable-background="new    "><tspan x="0" y="0" font-family="'ArialMT'" font-size="12px">Generated from folde</tspan><tspan x="113.3964844" y="0" font-family="'ArialMT'" font-size="12px">r</tspan><tspan x="116.7304688" y="0" font-family="'ArialMT'" font-size="12px">.circle</tspan></text>
	<text transform="matrix(1 0 0 1 2921.9238281 1987)" enable-background="new    "><tspan x="0" y="0" font-family="'ArialMT'" font-size="12px">T</tspan><tspan x="6.6679688" y="0" font-family="'ArialMT'" font-size="12px">ypeset at 100 points</tspan></text>
	<text transform="matrix(1 0 0 1 263 726)" font-family="'ArialMT'" font-size="12px">Small</text>
	<text transform="matrix(1 0 0 1 263 1156)" font-family="'ArialMT'" font-size="12px">Medium</text>
	<text transform="matrix(1 0 0 1 263 1586)" font-family="'ArialMT'" font-size="12px">Large</text>
</g>
<g id="Guides">
	<g id="H-reference" transform="matrix(1 0 0 1 339 696)">
		<path fill="#27AAE1" d="M1,0h2.7L13-24.5h32.7999992L55.0999985,0h2.5999985L30.6000004-70.5h-2.5L1,0z M29.2999992-67.0999985
			L29.2999992-67.0999985l15.5,40.4000015h-31L29.2999992-67.0999985z"/>
	</g>
	<line id="Baseline-S" fill="none" stroke="#27AAE1" stroke-width="0.5" x1="263" y1="696" x2="3036" y2="696"/>
	<line id="Capline-S" fill="none" stroke="#27AAE1" stroke-width="0.5" x1="263" y1="625.5" x2="3036" y2="625.5"/>
	<g id="H-reference_1_" transform="matrix(1 0 0 1 339 1126)">
		<path fill="#27AAE1" d="M1,0h2.7L13-24.5h32.7999992L55.0999985,0h2.5999985L30.6000004-70.5h-2.5L1,0z M29.2999992-67.0999985
			L29.2999992-67.0999985l15.5,40.4000015h-31L29.2999992-67.0999985z"/>
	</g>
	<line id="Baseline-M" fill="none" stroke="#27AAE1" stroke-width="0.5" x1="263" y1="1126" x2="3036" y2="1126"/>
	<line id="Capline-M" fill="none" stroke="#27AAE1" stroke-width="0.5" x1="263" y1="1055.5" x2="3036" y2="1055.5"/>
	<g id="H-reference_2_" transform="matrix(1 0 0 1 339 1556)">
		<path fill="#27AAE1" d="M1,0h2.7L13-24.5h32.7999992L55.0999985,0h2.5999985L30.6000004-70.5h-2.5L1,0z M29.2999992-67.0999985
			L29.2999992-67.0999985l15.5,40.4000015h-31L29.2999992-67.0999985z"/>
	</g>
	<line id="Baseline-L" fill="none" stroke="#27AAE1" stroke-width="0.5" x1="263" y1="1556" x2="3036" y2="1556"/>
	<line id="Capline-L" fill="none" stroke="#27AAE1" stroke-width="0.5" x1="263" y1="1485.5" x2="3036" y2="1485.5"/>
	
		<line id="left-margin" fill="none" stroke="#00AEEF" stroke-width="0.5" x1="1391.3000488" y1="1030.8000488" x2="1391.3000488" y2="1150.0999756"/>
	
		<line id="right-margin" fill="none" stroke="#00AEEF" stroke-width="0.5" x1="1508.4000244" y1="1030.8000488" x2="1508.4000244" y2="1150.0999756"/>
</g>
<g id="Symbols">
	<g id="Semibold-L" transform="matrix(1 0 0 1 1983.5 1126)">
		<path d="M118.2998047,434.6350708h-117c-3.5902343,0-6.5-2.90979-6.5-6.5c0-3.5902405,2.9097657-6.5,6.5-6.5h117
			c3.5902328,0,6.5,2.9097595,6.5,6.5C124.7998047,431.7252808,121.8900375,434.6350708,118.2998047,434.6350708z"/>
		<path d="M118.2998047,368.4645386h-117c-3.5902343,0-6.5-2.9104004-6.5-6.5s2.9097657-6.5,6.5-6.5h117
			c3.5902328,0,6.5,2.9104004,6.5,6.5S121.8900375,368.4645386,118.2998047,368.4645386z"/>
		<path d="M1.9500588,413.1848145c-2.2099998-0.9100037-3.9000001-2.0800171-5.0700006-3.7700195
			c-1.3-1.5599976-1.95-3.5099792-2.0800006-5.7200012v-0.3899841h6.3699999v0.2600098
			c0.1300006,1.039978,0.6500001,1.9499817,1.4300005,2.7299805s1.6899991,1.4300232,2.9899988,1.8200073
			c1.1699996,0.3900146,2.6000004,0.6499939,4.1600008,0.6499939s2.9899998-0.2599792,4.0300007-0.6499939
			c1.1700001-0.3899841,2.0800009-1.0400085,2.6000004-1.8200073c0.5199986-0.7799988,0.9099998-1.6900024,0.9099998-2.8599854l0,0
			c0-1.4299927-0.5199986-2.4700012-1.5600004-3.3800049c-1.039999-0.7799988-2.7300005-1.4299927-5.1999998-1.9500122
			l-4.0300002-0.7799988c-3.6400003-0.7799988-6.3699994-1.9499817-8.3199997-3.769989s-2.7300005-4.0299988-2.7300005-6.7600098
			l0,0c0-2.2099915,0.6500001-4.1600037,1.8199997-5.8500061c1.1699994-1.6899719,2.8599997-2.9899902,4.9400001-3.8999939
			s4.5500011-1.4299927,7.1500015-1.4299927c2.7300005,0,5.0699997,0.3900146,7.1500006,1.2999878
			c2.0799999,0.9100037,3.6399975,2.210022,4.8099995,3.7700195c1.1700001,1.5599976,1.8199997,3.5100098,1.9500008,5.5899963
			v0.3899841h-6.3699989v-0.3899841c-0.1300011-1.0400085-0.5200005-2.0799866-1.1700001-2.730011
			c-0.6499996-0.7799988-1.5600014-1.2999878-2.6000004-1.8199768c-1.039999-0.3900146-2.3399982-0.6500244-3.7699995-0.6500244
			s-2.73,0.2600098-3.769999,0.6500244c-1.039999,0.3899841-1.95,1.039978-2.4699996,1.8199768
			s-0.9099998,1.6900024-0.9099998,2.6000061l0,0c0,1.3000183,0.5199995,2.3399963,1.5599997,3.25
			c1.039999,0.7799988,2.7300005,1.4299927,4.9399991,1.9500122l4.0300007,0.7799988
			c3.9000006,0.7799988,6.7600012,2.0799866,8.5800009,3.769989s2.7299995,4.0299988,2.7299995,6.8900146l0,0
			c0,2.3399963-0.5199986,4.289978-1.6899986,6.1099854s-2.8600006,2.9899902-5.0699997,4.0299988
			c-2.210001,0.9100037-4.8100004,1.4299927-7.8000002,1.4299927
			C6.6300583,414.4848022,4.1600585,413.9648132,1.9500588,413.1848145z"/>
		<path d="M34.8400574,413.1848145c-2.2100029-0.9100037-3.9000015-2.0800171-5.0700035-3.7700195
			s-1.9499989-3.5099792-2.079998-5.7200012v-0.3899841h6.3700027v0.2600098
			c0.1299973,1.039978,0.6500015,1.9499817,1.4299965,2.7299805c0.7799988,0.7799988,1.6899986,1.4300232,2.9900017,1.8200073
			c1.170002,0.3900146,2.5999985,0.6499939,4.1599998,0.6499939s2.9899979-0.2599792,4.0299988-0.6499939
			c1.170002-0.3899841,2.079998-1.0400085,2.5999985-1.8200073c0.5200043-0.7799988,0.9099998-1.6900024,0.9099998-2.8599854l0,0
			c0-1.4299927-0.5200005-2.4700012-1.5599976-3.3800049c-1.0400009-0.7799988-2.7299995-1.4299927-5.2000008-1.9500122
			l-4.0299988-0.7799988c-3.6399994-0.7799988-6.3700027-1.9499817-8.3200016-3.769989
			c-1.8200016-1.6900024-2.7299976-4.0299988-2.7299976-6.7600098l0,0c0-2.2099915,0.6499996-4.1600037,1.8200016-5.8500061
			c1.170002-1.6899719,2.8599987-2.9899902,4.9400005-3.8999939c2.0799942-0.9100037,4.5499992-1.4299927,7.1499977-1.4299927
			c2.7299995,0,5.0700035,0.3900146,7.1500015,1.2999878c2.079998,0.9100037,3.6399994,2.210022,4.8100014,3.7700195
			s1.8199997,3.5100098,1.9499969,5.5899963v0.3899841h-6.3699989v-0.3899841
			c-0.1300011-1.0400085-0.5200043-2.0799866-1.170002-2.730011c-0.6500015-0.7799988-1.5600014-1.2999878-2.6000023-1.8199768
			c-1.0399971-0.3900146-2.3400002-0.6500244-3.7700005-0.6500244s-2.7299995,0.2600098-3.7700043,0.6500244
			c-1.0399933,0.6499939-1.8199921,1.1699829-2.3399925,1.9499817s-0.9099998,1.6900024-0.9099998,2.6000061l0,0
			c0,1.2999878,0.5200005,2.3399963,1.5600014,3.25c1.0399971,0.7799988,2.7299957,1.4299927,4.9399986,1.9499817
			l4.0299988,0.7799988c3.8999977,0.7799988,6.7599983,2.0800171,8.5799942,3.7700195
			c1.8200035,1.6900024,2.7299995,4.0299988,2.7299995,6.8899841l0,0c0,2.3399963-0.5200005,4.2900085-1.6899986,6.1100159
			c-1.170002,1.6900024-2.8600006,2.9899902-5.0700035,4.0299988c-2.2099991,0.9100037-4.8100014,1.4299927-7.7999992,1.4299927
			C39.5200577,414.4848022,37.0500565,413.9648132,34.8400574,413.1848145z"/>
		<path d="M62.0100594,376.264801h6.7599983v37.5700073h-6.7600021
			C62.0100555,413.8348083,62.0100555,376.264801,62.0100594,376.264801z M68.3800583,393.9447937h0.5200043l14.5599976-17.6799927
			h7.6699982l-14.1699982,17.0299988h-1.0400085l-7.5400009,8.8399963
			C68.3800507,402.1347961,68.3800507,393.9447937,68.3800583,393.9447937z M71.500061,396.0248108l4.8099976-4.4200134
			l15.9900055,22.230011h-8.1900024L71.500061,396.0248108z"/>
		<path d="M95.8100586,376.264801h14.9499969c2.7300034,0,4.9400101,0.5200195,6.890007,1.4299927
			c1.9499969,0.9100037,3.3799973,2.3399963,4.4200058,4.0299988c1.0400009,1.6900024,1.5599899,3.7700195,1.5599899,6.2400208l0,0
			c0,2.4700012-0.6500015,4.8099976-1.9499969,6.6299744c-1.3000031,1.9500122-2.9900055,3.25-5.2000046,4.0299988
			l8.1900101,15.0800171h-7.6700058l-7.409996-14.0400085h-0.1299973h-0.1299973h-6.890007v14.0400085H95.680069V376.264801
			H95.8100586z M110.1100616,394.4648132c2.0799942,0,3.7699966-0.5200195,4.9400024-1.6900024
			c1.1699982-1.1700134,1.8199997-2.730011,1.8199997-4.6799927l0,0c0-1.9500122-0.6500015-3.5100098-1.8199997-4.6800232
			c-1.1700058-1.1699829-2.8600006-1.6899719-5.0700073-1.6899719h-7.4099884v12.7399902
			C102.5700684,394.4648132,110.1100616,394.4648132,110.1100616,394.4648132z"/>
	</g>
	<g id="Regular-L">
		<path d="M1509.5998535,1492.7897949h-119.6000977c-3.230957,0-5.8499756-2.6191406-5.8499756-5.8500977
			s2.6190186-5.8499756,5.8499756-5.8499756h119.6000977c3.230957,0,5.8499756,2.6190186,5.8499756,5.8499756
			S1512.8308105,1492.7897949,1509.5998535,1492.7897949z"/>
		<path d="M1509.5998535,1560.9102783h-119.6000977c-3.230957,0-5.8499756-2.6190186-5.8499756-5.8499756
			s2.6190186-5.8500977,5.8499756-5.8500977h119.6000977c3.230957,0,5.8499756,2.6191406,5.8499756,5.8500977
			S1512.8308105,1560.9102783,1509.5998535,1560.9102783z"/>
		<path d="M1392.0800781,1539.9798584c-2.2099609-0.9100342-3.9000244-2.0799561-5.0700684-3.7701416
			c-1.2999268-1.6899414-1.9499512-3.5098877-2.0799561-5.8499756v-0.3900146h4.9400635v0.3900146
			c0.2600098,1.3000488,0.7800293,2.4700928,1.5599365,3.3800049c0.9100342,0.9099121,2.0799561,1.6900635,3.5100098,2.2099609
			c1.4299316,0.5200195,3.1199951,0.7799072,4.9400635,0.7799072c1.9499512,0,3.5098877-0.2598877,4.9400635-0.7799072
			c1.4299316-0.5200195,2.4699707-1.3000488,3.25-2.3400879c0.7799072-1.0400391,1.1700439-2.2099609,1.1700439-3.5098877l0,0
			c0-1.6900635-0.6500244-3.1201172-1.8200684-4.1600342c-1.1700439-1.0400391-3.1199951-1.8199463-5.8499756-2.4699707
			l-4.4200439-0.9099121c-3.7700195-0.9099121-6.6300049-2.2099609-8.4500732-3.9000244
			c-1.8199463-1.8200684-2.7298584-4.0300293-2.7298584-7.0200195l0,0c0-2.2099609,0.6499023-4.0300293,1.8199463-5.7200928
			s2.8599854-2.9899902,4.9400635-3.8999023c2.0799561-0.9100342,4.4200439-1.4300537,7.1500244-1.4300537
			c2.5999756,0,4.8099365,0.5200195,6.8900146,1.4300537c1.9500732,0.9099121,3.6401367,2.2098389,4.8099365,3.7700195
			c1.1700439,1.6900635,1.8200684,3.5098877,2.0799561,5.7199707v0.3901367h-4.9399414v-0.3901367
			c-0.2600098-1.3000488-0.6500244-2.4699707-1.4300537-3.3800049c-0.7799072-0.9099121-1.8199463-1.6900635-3.1199951-2.2098389
			c-1.3000488-0.5200195-2.7299805-0.7800293-4.4200439-0.7800293s-3.25,0.2600098-4.5500488,0.7800293
			c-1.2999268,0.5200195-2.3399658,1.2999268-2.9899902,2.2098389c-0.7800293,0.9100342-1.0400391,2.0799561-1.0400391,3.3800049
			l0,0c0,1.5599365,0.6499023,2.8599854,1.8199463,3.9000244s3.1201172,1.8200684,5.7200928,2.3400879l4.4200439,0.9099121
			c4.0299072,0.9099121,6.8900146,2.2099609,8.7099609,3.9000244s2.7298584,4.1599121,2.7298584,7.1499023l0,0
			c0,2.3400879-0.6499023,4.2901611-1.8199463,5.9799805c-1.1700439,1.6900635-2.8599854,2.9901123-5.0700684,3.9000244
			c-2.2099609,0.9099121-4.8099365,1.4300537-7.8000488,1.4300537
			C1396.7600098,1541.2797852,1394.2900391,1540.8897705,1392.0800781,1539.9798584z"/>
		<path d="M1425.1000977,1539.9798584c-2.2099609-0.9100342-3.9000244-2.0799561-5.0700684-3.7701416
			c-1.2999268-1.6899414-1.9499512-3.5098877-2.0799561-5.8499756v-0.3900146h4.9400635v0.3900146
			c0.2600098,1.3000488,0.7800293,2.4700928,1.5599365,3.3800049c0.9100342,0.9099121,2.0799561,1.6900635,3.5100098,2.2099609
			c1.4299316,0.5200195,3.1199951,0.7799072,4.9400635,0.7799072c1.9499512,0,3.5098877-0.2598877,4.9400635-0.7799072
			c1.4299316-0.5200195,2.4699707-1.3000488,3.25-2.3400879c0.7799072-1.0400391,1.1700439-2.2099609,1.1700439-3.5098877l0,0
			c0-1.6900635-0.6500244-3.1201172-1.8200684-4.1600342c-1.1700439-1.0400391-3.1199951-1.8199463-5.8499756-2.4699707
			l-4.4200439-0.9099121c-3.7700195-0.9099121-6.6300049-2.2099609-8.4499512-3.9000244
			c-1.8200684-1.8200684-2.7299805-4.0300293-2.7299805-7.0200195l0,0c0-2.2099609,0.6499023-4.0300293,1.8199463-5.7200928
			s2.8599854-2.9899902,4.9400635-3.8999023c2.0799561-0.9100342,4.4200439-1.4300537,7.1500244-1.4300537
			c2.5999756,0,4.8099365,0.5200195,6.8900146,1.4300537c1.9500732,0.9099121,3.6401367,2.2098389,4.8100586,3.7700195
			c1.1699219,1.6900635,1.8199463,3.5098877,2.0799561,5.7199707v0.3901367h-4.9400635v-0.3901367
			c-0.2600098-1.3000488-0.6500244-2.4699707-1.4300537-3.3800049c-0.7799072-0.9099121-1.8199463-1.6900635-3.1199951-2.2098389
			c-1.3000488-0.5200195-2.7299805-0.7800293-4.4200439-0.7800293s-3.25,0.2600098-4.5499268,0.7800293
			c-1.3000488,0.5200195-2.3400879,1.2999268-2.9901123,2.2098389c-0.7800293,0.9100342-1.0400391,2.0799561-1.0400391,3.3800049
			l0,0c0,1.5599365,0.6500244,2.8599854,1.8199463,3.9000244c1.1700439,1.0400391,3.1201172,1.8200684,5.7200928,2.3400879
			l4.4200439,0.9099121c4.0299072,0.9099121,6.8900146,2.2099609,8.7099609,3.9000244s2.7299805,4.1599121,2.7299805,7.1499023l0,0
			c0,2.3400879-0.6500244,4.2901611-1.8200684,5.9799805c-1.1700439,1.6900635-2.8599854,2.9901123-5.0700684,3.9000244
			c-2.2099609,0.9099121-4.8099365,1.4300537-7.8000488,1.4300537
			C1429.7800293,1541.2797852,1427.3100586,1540.8897705,1425.1000977,1539.9798584z"/>
		<path d="M1452.9200439,1501.369751h4.9400635v39.2598877h-4.9400635V1501.369751z M1457.3400879,1520.6097412h0.5200195
			l16.6400146-19.2399902h6.1099854l-15.6000977,17.6799316h-0.2598877l-7.5400391,8.3200684v-6.7600098H1457.3400879z
			 M1461.630127,1521.90979l3.5098877-3.5098877l17.0300293,22.2298584h-6.2401123L1461.630127,1521.90979z"/>
		<path d="M1486.3300781,1501.369751h14.6900635c2.4700928,0,4.6799316,0.5200195,6.6300049,1.4299316
			c1.8200684,0.9099121,3.3798828,2.3400879,4.4200439,4.0299072c1.0400391,1.6901855,1.5599365,3.7701416,1.5599365,6.1099854l0,0
			c0,2.7299805-0.6500244,5.0700684-2.0799561,7.0200195c-1.4300537,1.9500732-3.3800049,3.3800049-5.8500977,4.1599121
			l9.1000977,16.25h-5.7200928l-8.4499512-15.5999756h-0.1300049h-0.1300049h-9.0999756v15.5999756h-4.9400635V1501.369751z
			 M1500.630127,1520.7397461c2.4699707,0,4.4200439-0.6500244,5.8499756-1.9499512
			c1.4299316-1.3000488,2.0799561-3.1201172,2.0799561-5.5900879l0,0c0-2.3400879-0.7800293-4.1599121-2.2099609-5.4599609
			s-3.3798828-1.9499512-5.9799805-1.9499512h-9.2299805v15.0799561h9.4899902V1520.7397461z"/>
	</g>
	<g id="Semibold-M" transform="matrix(1 0 0 1 1983.5 1126)">
		<path d="M104.7998047-4.7998047h-90c-2.7617188,0-5-2.2382812-5-5s2.2382812-5,5-5h90c2.7617188,0,5,2.2382812,5,5
			S107.5615234-4.7998047,104.7998047-4.7998047z"/>
		<path d="M104.7998047-55.7001953h-90c-2.7617188,0-5-2.2387695-5-5s2.2382812-5,5-5h90c2.7617188,0,5,2.2387695,5,5
			S107.5615234-55.7001953,104.7998047-55.7001953z"/>
		<path d="M15.3000002-21.2999992c-1.6999998-0.7000008-3-1.6000004-3.9000006-2.8999996
			c-1-1.2000008-1.5-2.7000008-1.6000004-4.3999996v-0.2999992h4.8999996v0.2000008
			c0.1000004,0.7999992,0.5,1.5,1.1000004,2.1000004s1.2999992,1.1000004,2.2999992,1.3999996
			c0.8999996,0.2999992,2,0.5,3.2000008,0.5s2.2999992-0.2000008,3.1000004-0.5
			c0.8999996-0.2999992,1.6000004-0.7999992,2-1.3999996s0.7000008-1.2999992,0.7000008-2.2000008l0,0
			c0-1.1000004-0.3999996-1.8999996-1.2000008-2.6000004c-0.7999992-0.6000004-2.1000004-1.0999985-4-1.5l-3.1000004-0.5999985
			c-2.8000002-0.5999985-4.8999996-1.5-6.3999996-2.9000015s-2.1000004-3.0999985-2.1000004-5.2000008l0,0
			c0-1.7000008,0.5-3.2000008,1.3999996-4.5s2.1999998-2.2999992,3.8000002-3S19-50.1999969,21-50.1999969
			c2.1000004,0,3.8999996,0.2999992,5.5,1s2.7999992,1.7000008,3.7000008,2.9000015
			c0.8999996,1.2000008,1.3999996,2.7000008,1.5,4.2999992v0.2999992h-4.8999996v-0.2999992
			c-0.1000004-0.7999992-0.3999996-1.5999985-0.8999996-2.0999985c-0.5-0.5999985-1.2000008-1-2-1.4000015
			c-0.7999992-0.2999992-1.7999992-0.5-2.8999996-0.5s-2.1000004,0.2000008-2.8999996,0.5s-1.5,0.7999992-1.8999996,1.4000015
			c-0.3999996,0.5999985-0.6999998,1.2999992-0.6999998,2l0,0c0,1,0.3999996,1.7999992,1.1999998,2.5
			c0.7999992,0.5999985,2.1000004,1.0999985,3.7999992,1.5l3.1000004,0.5999985
			c3,0.5999985,5.2000008,1.5999985,6.6000004,2.9000015c1.3999996,1.2999992,2.1000004,3.1000004,2.1000004,5.2999992l0,0
			c0,1.7999992-0.3999996,3.2999992-1.2999992,4.7000008s-2.2000008,2.2999992-3.8999996,3.1000004
			c-1.7000008,0.7000008-3.7000008,1.1000004-6,1.1000004C18.8999996-20.2999992,17-20.7000008,15.3000002-21.2999992z"/>
		<path d="M40.5999985-21.2999992c-1.7000008-0.7000008-3-1.6000004-3.9000015-2.8999996s-1.5-2.7000008-1.5999985-4.3999996
			v-0.2999992H40v0.2000008c0.0999985,0.7999992,0.5,1.5,1.0999985,2.1000004s1.2999992,1.1000004,2.2999992,1.3999996
			c0.9000015,0.2999992,2,0.5,3.2000008,0.5s2.2999992-0.2000008,3.0999985-0.5
			c0.9000015-0.2999992,1.5999985-0.7999992,2-1.3999996s0.7000008-1.2999992,0.7000008-2.2000008l0,0
			c0-1.1000004-0.4000015-1.8999996-1.2000008-2.6000004c-0.7999992-0.6000004-2.0999985-1.0999985-4-1.5l-3.0999985-0.5999985
			c-2.7999992-0.5999985-4.9000015-1.5-6.4000015-2.9000015c-1.4000015-1.2999992-2.0999985-3.0999985-2.0999985-5.2000008l0,0
			c0-1.7000008,0.5-3.2000008,1.4000015-4.5s2.2000008-2.2999992,3.7999992-3s3.5-1.0999985,5.5-1.0999985
			c2.0999985,0,3.9000015,0.2999992,5.5,1S54.5999985-47.4999962,55.5-46.2999954s1.4000015,2.7000008,1.5,4.2999992v0.2999992
			h-4.9000015v-0.2999992C52-42.7999954,51.6999969-43.5999947,51.1999969-44.0999947c-0.5-0.5999985-1.2000008-1-2-1.4000015
			c-0.7999992-0.2999992-1.7999992-0.5-2.9000015-0.5c-1.0999985,0-2.0999985,0.2000008-2.9000015,0.5
			C42.5999985-45,42-44.5999985,41.5999985-44s-0.7000008,1.2999992-0.7000008,2l0,0c0,1,0.4000015,1.7999992,1.2000008,2.5
			c0.7999992,0.5999985,2.0999985,1.0999985,3.7999992,1.5l3.0999985,0.5999985
			c3,0.5999985,5.2000008,1.5999985,6.5999985,2.9000015c1.4000015,1.2999992,2.0999985,3.1000004,2.0999985,5.2999992l0,0
			c0,1.7999992-0.4000015,3.2999992-1.2999992,4.7000008c-0.9000015,1.2999992-2.2000008,2.2999992-3.9000015,3.1000004
			c-1.7000008,0.7000008-3.7000008,1.1000004-6,1.1000004C44.2000008-20.2999992,42.2999992-20.7000008,40.5999985-21.2999992z"/>
		<path d="M61.5-49.7000008h5.1999969v28.8999996h-5.2000008C61.4999962-20.8000011,61.4999962-49.7000008,61.5-49.7000008z
			 M66.4000015-36.0999985h0.4000015L78-49.7000008h5.9000015L73-36.5999985h-0.8000031l-5.8000031,6.7999992
			C66.3999939-29.7999992,66.3999939-36.0999985,66.4000015-36.0999985z M68.8000031-34.5L72.5-37.9000015l12.3000031,17.1000004
			H78.5L68.8000031-34.5z"/>
		<path d="M87.5-49.7000008H99c2.0999985,0,3.8000031,0.4000015,5.3000031,1.0999985
			c1.5,0.7000008,2.5999985,1.7999992,3.4000015,3.0999985s1.1999969,2.9000015,1.1999969,4.7999992l0,0
			c0,1.9000015-0.5,3.7000008-1.5,5.0999985c-1,1.5-2.3000031,2.5-4,3.0999985l6.3000031,11.6000004h-5.9000015
			l-5.6999969-10.8000011h-0.0999985h-0.0999985h-5.3000031v10.7999992h-5.1999969v-28.7999916H87.5z M98.5-35.7000008
			c1.5999985,0,2.9000015-0.4000015,3.8000031-1.2999992c0.9000015-0.9000015,1.4000015-2.0999985,1.4000015-3.5999985l0,0
			c0-1.5-0.5-2.7000008-1.4000015-3.5999985c-0.9000015-0.9000015-2.1999969-1.2999992-3.9000015-1.2999992h-5.6999969v9.7999992
			C92.7000046-35.6999969,98.5-35.6999969,98.5-35.7000008z"/>
	</g>
	<g id="Regular-M">
		<path d="M1495.7998047,1069h-92c-2.4853516,0-4.5-2.0146484-4.5-4.5s2.0146484-4.5,4.5-4.5h92c2.4853516,0,4.5,2.0146484,4.5,4.5
			S1498.2851562,1069,1495.7998047,1069z"/>
		<path d="M1495.7998047,1121.4003906h-92c-2.4853516,0-4.5-2.0146484-4.5-4.5s2.0146484-4.5,4.5-4.5h92
			c2.4853516,0,4.5,2.0146484,4.5,4.5S1498.2851562,1121.4003906,1495.7998047,1121.4003906z"/>
		<path d="M1405.4000244,1105.3000488c-1.6999512-0.6999512-3-1.5999756-3.9000244-2.9000244
			c-1-1.3000488-1.5-2.6999512-1.5999756-4.5v-0.3000488h3.8000488v0.3000488c0.1999512,1,0.5999756,1.9000244,1.1999512,2.5999756
			c0.6999512,0.6999512,1.5999756,1.3000488,2.6999512,1.6999512c1.0999756,0.4000244,2.4000244,0.5999756,3.8000488,0.5999756
			c1.5,0,2.6999512-0.1999512,3.8000488-0.5999756c1.0999756-0.4000244,1.9000244-1,2.5-1.8000488
			s0.9000244-1.6999512,0.9000244-2.6999512l0,0c0-1.3000488-0.5-2.4000244-1.4000244-3.1999512
			c-0.9000244-0.8000488-2.4000244-1.4000244-4.5-1.9000244l-3.4000244-0.6999512c-2.9000244-0.6999512-5.0999756-1.6999512-6.5-3
			c-1.4000244-1.4000244-2.0999756-3.0999756-2.0999756-5.4000244l0,0c0-1.6999512,0.5-3.0999756,1.4000244-4.4000244
			s2.1999512-2.3000488,3.8000488-3c1.5999756-0.6999512,3.4000244-1.0999756,5.5-1.0999756
			c2,0,3.6999512,0.4000244,5.3000488,1.0999756c1.5,0.6999512,2.8000488,1.6999512,3.6999512,2.9000244
			c0.9000244,1.3000488,1.4000244,2.6999512,1.5999756,4.4000244v0.3000488h-3.8000488v-0.3000488
			c-0.1999512-1-0.5-1.9000244-1.0999756-2.5999756s-1.4000244-1.3000488-2.4000244-1.6999512
			c-1-0.4000244-2.0999756-0.5999756-3.4000244-0.5999756s-2.5,0.1999512-3.5,0.5999756s-1.8000488,1-2.3000488,1.6999512
			c-0.5999756,0.6999512-0.8000488,1.5999756-0.8000488,2.5999756l0,0c0,1.1999512,0.5,2.1999512,1.4000244,3
			s2.4000244,1.4000244,4.4000244,1.8000488l3.4000244,0.6999512c3.0999756,0.6999512,5.3000488,1.6999512,6.6999512,3
			c1.4000244,1.3000488,2.0999756,3.1999512,2.0999756,5.5l0,0c0,1.8000488-0.5,3.3000488-1.4000244,4.5999756
			c-0.9000244,1.3000488-2.1999512,2.3000488-3.9000244,3c-1.6999512,0.6999512-3.6999512,1.0999756-6,1.0999756
			C1409,1106.3000488,1407.0999756,1106,1405.4000244,1105.3000488z"/>
		<path d="M1430.8000488,1105.3000488c-1.6999512-0.6999512-3-1.5999756-3.9000244-2.9000244
			c-1-1.3000488-1.5-2.6999512-1.5999756-4.5v-0.3000488h3.8000488v0.3000488c0.1999512,1,0.5999756,1.9000244,1.1999512,2.5999756
			c0.6999512,0.6999512,1.5999756,1.3000488,2.6999512,1.6999512c1.0999756,0.4000244,2.4000244,0.5999756,3.8000488,0.5999756
			c1.5,0,2.6999512-0.1999512,3.8000488-0.5999756c1.0999756-0.4000244,1.9000244-1,2.5-1.8000488
			s0.9000244-1.6999512,0.9000244-2.6999512l0,0c0-1.3000488-0.5-2.4000244-1.4000244-3.1999512
			c-0.9000244-0.8000488-2.4000244-1.4000244-4.5-1.9000244l-3.4000244-0.6999512c-2.9000244-0.6999512-5.0999756-1.6999512-6.5-3
			c-1.4000244-1.4000244-2.0999756-3.0999756-2.0999756-5.4000244l0,0c0-1.6999512,0.5-3.0999756,1.4000244-4.4000244
			s2.1999512-2.3000488,3.8000488-3c1.5999756-0.6999512,3.4000244-1.0999756,5.5-1.0999756
			c2,0,3.6999512,0.4000244,5.3000488,1.0999756c1.5,0.6999512,2.8000488,1.6999512,3.6999512,2.9000244
			c0.9000244,1.3000488,1.4000244,2.6999512,1.5999756,4.4000244v0.3000488h-3.8000488v-0.3000488
			c-0.1999512-1-0.5-1.9000244-1.0999756-2.5999756s-1.4000244-1.3000488-2.4000244-1.6999512
			c-1-0.4000244-2.0999756-0.5999756-3.4000244-0.5999756s-2.5,0.1999512-3.5,0.5999756s-1.8000488,1-2.3000488,1.6999512
			c-0.5999756,0.6999512-0.8000488,1.5999756-0.8000488,2.5999756l0,0c0,1.1999512,0.5,2.1999512,1.4000244,3
			s2.4000244,1.4000244,4.4000244,1.8000488l3.4000244,0.6999512c3.0999756,0.6999512,5.3000488,1.6999512,6.6999512,3
			c1.4000244,1.3000488,2.0999756,3.1999512,2.0999756,5.5l0,0c0,1.8000488-0.5,3.3000488-1.4000244,4.5999756
			c-0.9000244,1.3000488-2.1999512,2.3000488-3.9000244,3c-1.6999512,0.6999512-3.6999512,1.0999756-6,1.0999756
			C1434.4000244,1106.3000488,1432.5,1106,1430.8000488,1105.3000488z"/>
		<path d="M1452.1999512,1075.5999756H1456v30.1999512h-3.8000488V1075.5999756z M1455.5999756,1090.4000244H1456
			l12.8000488-14.8000488H1473.5l-12,13.5999756h-0.1999512L1455.5,1095.5999756v-5.1999512H1455.5999756z
			 M1458.9000244,1091.4000244l2.6999512-2.6999512l13.0999756,17.0999756h-4.8000488L1458.9000244,1091.4000244z"/>
		<path d="M1477.9000244,1075.5999756h11.3000488c1.9000244,0,3.5999756,0.4000244,5.0999756,1.0999756
			c1.4000244,0.6999512,2.5999756,1.8000488,3.4000244,3.0999756c0.8000488,1.3000488,1.1999512,2.9000244,1.1999512,4.6999512l0,0
			c0,2.0999756-0.5,3.9000244-1.5999756,5.4000244s-2.5999756,2.5999756-4.5,3.1999512l7,12.5h-4.4000244l-6.5-12h-0.0999756
			h-0.0999756h-7v12h-3.8000488V1075.5999756z M1488.9000244,1090.5c1.9000244,0,3.4000244-0.5,4.5-1.5
			S1495,1086.5999756,1495,1084.6999512l0,0c0-1.8000488-0.5999756-3.1999512-1.6999512-4.1999512s-2.5999756-1.5-4.5999756-1.5
			h-7.0999756v11.5999756h7.2999268V1090.5z"/>
	</g>
	<g id="Semibold-S" transform="matrix(1 0 0 1 1983.5 1126)">
		<path d="M95.7998047-441.1896362h-72c-2.2093754,0-4-1.7906494-4-4c0-2.2093811,1.7906246-4,4-4h72c2.2093735,0,4,1.7906189,4,4
			C99.7998047-442.9802856,98.0091782-441.1896362,95.7998047-441.1896362z"/>
		<path d="M95.7998047-481.9099731h-72c-2.2093754,0-4-1.7910156-4-4s1.7906246-4,4-4h72c2.2093735,0,4,1.7910156,4,4
			S98.0091782-481.9099731,95.7998047-481.9099731z"/>
		<path d="M24.1999607-454.389801c-1.3599987-0.5599976-2.3999996-1.2799988-3.1200008-2.3200073
			c-0.7999992-0.9599915-1.1999989-2.1600037-1.2799988-3.519989v-0.2399902h3.9199982v0.1599731
			c0.0800018,0.6400146,0.4000015,1.2000122,0.8800011,1.6800232c0.4799995,0.4799805,1.039999,0.8799744,1.8400002,1.1199951
			c0.7199993,0.2399902,1.5999985,0.3999939,2.5599995,0.3999939s1.8400002-0.1600037,2.4800014-0.3999939
			c0.7199974-0.2400208,1.2799988-0.6400146,1.5999985-1.1199951c0.3199997-0.480011,0.5600014-1.0400085,0.5600014-1.7600098l0,0
			c0-0.8800049-0.3199997-1.519989-0.9599991-2.0799866c-0.6399994-0.480011-1.6800022-0.8800049-3.2000008-1.2000122
			l-2.4800014-0.480011c-2.2399998-0.4799805-3.9200001-1.1999817-5.1199989-2.3199768
			c-1.2000008-1.1200256-1.6800003-2.480011-1.6800003-4.1600037l0,0c0-1.3600159,0.3999996-2.5600281,1.1199989-3.6000061
			c0.7199993-1.0400085,1.7600002-1.8399963,3.0400009-2.3999939c1.2799988-0.5600281,2.8000011-0.8800049,4.3999996-0.8800049
			c1.6800003,0,3.1200008,0.2399902,4.4000015,0.7999878c1.2799988,0.5599976,2.2399979,1.3600159,2.9599991,2.3200073
			s1.1199989,2.1600037,1.2000008,3.4400024v0.2399902h-3.9199982v-0.2399902
			c-0.0800018-0.6400146-0.3199997-1.2799988-0.7200012-1.6799927c-0.4000015-0.480011-0.960001-0.8000183-1.6000004-1.1200256
			c-0.6399994-0.2399902-1.4399986-0.3999939-2.3199997-0.3999939c-0.8799992,0-1.6800003,0.1600037-2.3199997,0.3999939
			c-0.6399994,0.2400208-1.1999989,0.6400146-1.5199986,1.1200256c-0.3199997,0.4799805-0.5600014,1.039978-0.5600014,1.6000061l0,0
			c0,0.7999878,0.3199997,1.4399719,0.960001,2c0.6399994,0.4799805,1.6800003,0.8799744,3.039999,1.1999817l2.4799995,0.480011
			c2.4000015,0.4799805,4.1599998,1.2799988,5.2800026,2.3200073c1.1199989,1.039978,1.6800003,2.4799805,1.6800003,4.2399902l0,0
			c0,1.4400024-0.3199997,2.6399841-1.0400009,3.7600098c-0.7200012,1.1199951-1.7600021,1.8399963-3.1199989,2.4799805
			c-1.3600006,0.5599976-2.960001,0.8800049-4.8000011,0.8800049
			C27.0799599-453.5898132,25.5599613-453.90979,24.1999607-454.389801z"/>
		<path d="M44.4399605-454.389801c-1.3600006-0.5599976-2.4000015-1.2799988-3.1200027-2.3200073
			s-1.2000008-2.1600037-1.2799988-3.519989v-0.2399902h3.920002v0.1599731
			c0.079998,0.6400146,0.4000015,1.2000122,0.8799973,1.6800232c0.4799995,0.4799805,1.0400009,0.8799744,1.8400002,1.1199951
			c0.7200012,0.2399902,1.6000023,0.3999939,2.5600014,0.3999939s1.8400002-0.1600037,2.4799995-0.3999939
			c0.7200012-0.2400208,1.2799988-0.6400146,1.5999985-1.1199951c0.3200035-0.480011,0.5600014-1.0400085,0.5600014-1.7600098l0,0
			c0-0.8800049-0.3199997-1.519989-0.9599991-2.0799866c-0.6399994-0.480011-1.6800003-0.8800049-3.2000008-1.2000122
			l-2.4799995-0.480011c-2.2399979-0.4799805-3.920002-1.1999817-5.1200027-2.3199768
			c-1.1199989-1.0400085-1.6799965-2.480011-1.6799965-4.1600037l0,0c0-1.3600159,0.3999977-2.5600281,1.1199989-3.6000061
			c0.7200012-1.0400085,1.7600021-1.8399963,3.0400009-2.3999939c1.2799988-0.5600281,2.7999992-0.8800049,4.4000015-0.8800049
			c1.6799965,0,3.1199989,0.2399902,4.3999977,0.7999878s2.2400017,1.3600159,2.9600029,2.3200073
			s1.1199989,2.1600037,1.1999969,3.4400024v0.2399902h-3.9199982v-0.2399902
			c-0.0800018-0.6400146-0.3200035-1.2799988-0.7200012-1.6799927c-0.4000015-0.480011-0.9600029-0.8000183-1.6000023-1.1200256
			c-0.6399994-0.2399902-1.4399986-0.3999939-2.3199997-0.3999939s-1.6800003,0.1600037-2.3200035,0.3999939
			c-0.6399956,0.4000244-1.1199951,0.7200012-1.4399948,1.2000122s-0.5600014,1.0400085-0.5600014,1.6000061l0,0
			c0,0.7999878,0.3200035,1.4400024,0.9600029,2c0.6399994,0.4799805,1.6799965,0.8800049,3.0399971,1.1999817l2.4799995,0.480011
			c2.4000015,0.480011,4.1599998,1.2799988,5.2799988,2.3200073c1.1200027,1.0400085,1.6800003,2.4799805,1.6800003,4.2399902l0,0
			c0,1.4400024-0.3200035,2.6400146-1.0400009,3.7600098c-0.7200012,1.0400085-1.7600021,1.8399963-3.1200027,2.4799805
			c-1.3600006,0.5600281-2.9599991,0.8800049-4.7999992,0.8800049
			C47.3199615-453.5898132,45.7999611-453.90979,44.4399605-454.389801z"/>
		<path d="M61.1599617-477.1098022h4.1599998v23.1199951h-4.1600037
			C61.1599579-453.9898071,61.1599579-477.1098022,61.1599617-477.1098022z M65.0799637-466.2297974h0.3199997l8.9599991-10.8800049
			h4.7200012l-8.7200012,10.480011h-0.640007l-4.6399994,5.4399719
			C65.0799561-461.1898193,65.0799561-466.2297974,65.0799637-466.2297974z M66.9999619-464.9497986l2.9599991-2.7200012
			l9.840004,13.6799927H74.759964L66.9999619-464.9497986z"/>
		<path d="M81.9599609-477.1098022h9.1999969c1.6800003,0,3.0400085,0.3200073,4.2400055,0.8800049
			s2.0800018,1.4400024,2.7200012,2.4799805c0.6399994,1.0400085,0.9599991,2.3200073,0.9599991,3.8399963l0,0
			c0,1.5200195-0.4000015,2.960022-1.2000046,4.0800171c-0.7999954,1.1999817-1.8399963,2-3.1999969,2.4799805l5.0400009,9.2799988
			h-4.7200012l-4.5599976-8.6399841h-0.0799942h-0.0800018h-4.2400055v8.6399841h-4.159996v-23.039978H81.9599609z
			 M90.759964-465.90979c1.2799988,0,2.3199997-0.3200073,3.0400009-1.0400085s1.1200027-1.6799927,1.1200027-2.8800049l0,0
			c0-1.2000122-0.4000015-2.1600037-1.1200027-2.8800049s-1.7600021-1.0400085-3.1200027-1.0400085h-4.5599976v7.8400269
			C86.1199646-465.90979,90.759964-465.90979,90.759964-465.90979z"/>
	</g>
	<g id="Regular-S">
		<path d="M1486.5998535,643.0402222h-73.6000977c-1.9882812,0-3.5999756-1.6116943-3.5999756-3.5999756
			s1.6116943-3.6000366,3.5999756-3.6000366h73.6000977c1.9882812,0,3.5999756,1.6117554,3.5999756,3.6000366
			S1488.5881348,643.0402222,1486.5998535,643.0402222z"/>
		<path d="M1486.5998535,684.9605713h-73.6000977c-1.9882812,0-3.5999756-1.6117554-3.5999756-3.6000366
			s1.6116943-3.5999756,3.5999756-3.5999756h73.6000977c1.9882812,0,3.5999756,1.6116943,3.5999756,3.5999756
			S1488.5881348,684.9605713,1486.5998535,684.9605713z"/>
		<path d="M1414.2800293,672.0802612c-1.3599854-0.5599365-2.4000244-1.2799683-3.1201172-2.3200073
			c-0.7999268-1.0400391-1.1999512-2.1599731-1.2799072-3.5999756v-0.2400513h3.0400391v0.2400513
			c0.1599121,0.7999878,0.4799805,1.5200195,0.9599609,2.0799561c0.5599365,0.5599365,1.2799072,1.0400391,2.1599121,1.3599854
			c0.8800049,0.3200073,1.9200439,0.4799805,3.0400391,0.4799805c1.2000732,0,2.1600342-0.1599731,3.0400391-0.4799805
			c0.8800049-0.3200684,1.5200195-0.8000488,2-1.4400635s0.7200928-1.3599854,0.7200928-2.1599731l0,0
			c0-1.0400391-0.4000244-1.9199829-1.1201172-2.5599365c-0.7199707-0.6400757-1.9199219-1.1200562-3.5999756-1.5200195
			l-2.7199707-0.5599976c-2.3200684-0.5599365-4.0799561-1.3599243-5.2000732-2.3999634
			c-1.1199951-1.1200562-1.6799316-2.4799805-1.6799316-4.3200073l0,0c0-1.3599854,0.4000244-2.4799805,1.1199951-3.5200195
			c0.7200928-1.0400391,1.7600098-1.8400879,3.0400391-2.4000244s2.7200928-0.8800049,4.4000244-0.8800049
			c1.5999756,0,2.9599609,0.3200684,4.2399902,0.8800049c1.2000732,0.5599365,2.2401123,1.3599854,2.9599609,2.3200073
			c0.7200928,1.0400391,1.1201172,2.1599731,1.2800293,3.5200195v0.2400513h-3.0400391v-0.2400513
			c-0.1599121-0.7999878-0.4000244-1.5200195-0.8800049-2.0799561c-0.4799805-0.5599976-1.1199951-1.0400391-1.9200439-1.3599854
			c-0.7999268-0.3200073-1.6799316-0.4799805-2.7199707-0.4799805s-2,0.1599731-2.8000488,0.4799805
			c-0.7999268,0.3200073-1.4399414,0.7999878-1.8399658,1.3599854c-0.4799805,0.5599365-0.6400146,1.2799683-0.6400146,2.0799561
			l0,0c0,0.9599609,0.3999023,1.7599487,1.1199951,2.4000244c0.7199707,0.6400146,1.9200439,1.1199951,3.5200195,1.4400024
			l2.7199707,0.5599976c2.4799805,0.5599365,4.2401123,1.3599243,5.3599854,2.3999634
			c1.1199951,1.0400391,1.6799316,2.5599976,1.6799316,4.4000244l0,0c0,1.4400635-0.3999023,2.6400146-1.1199951,3.6799927
			c-0.7199707,1.0400391-1.7598877,1.8400269-3.1199951,2.3999634c-1.3599854,0.5599976-2.9599609,0.8800049-4.8000488,0.8800049
			C1417.1599121,672.880249,1415.6398926,672.6402588,1414.2800293,672.0802612z"/>
		<path d="M1434.5999756,672.0802612c-1.3599854-0.5599365-2.4000244-1.2799683-3.1199951-2.3200073
			c-0.8000488-1.0400391-1.1999512-2.1599731-1.2800293-3.5999756v-0.2400513h3.0400391v0.2400513
			c0.1600342,0.7999878,0.4799805,1.5200195,0.9599609,2.0799561c0.5600586,0.5599365,1.2800293,1.0400391,2.1600342,1.3599854
			c0.8800049,0.3200073,1.9200439,0.4799805,3.0400391,0.4799805c1.1999512,0,2.1599121-0.1599731,3.0400391-0.4799805
			c0.8800049-0.3200684,1.5200195-0.8000488,2-1.4400635s0.7199707-1.3599854,0.7199707-2.1599731l0,0
			c0-1.0400391-0.4000244-1.9199829-1.1199951-2.5599365c-0.7199707-0.6400757-1.9200439-1.1200562-3.5999756-1.5200195
			l-2.7200928-0.5599976c-2.3199463-0.5599365-4.0799561-1.3599243-5.1999512-2.3999634
			c-1.1199951-1.1200562-1.6799316-2.4799805-1.6799316-4.3200073l0,0c0-1.3599854,0.3999023-2.4799805,1.1199951-3.5200195
			c0.7199707-1.0400391,1.7598877-1.8400879,3.0400391-2.4000244c1.2799072-0.5599365,2.7199707-0.8800049,4.4000244-0.8800049
			c1.5999756,0,2.9599609,0.3200684,4.2399902,0.8800049c1.1999512,0.5599365,2.2399902,1.3599854,2.9599609,2.3200073
			c0.7199707,1.0400391,1.1199951,2.1599731,1.2800293,3.5200195v0.2400513h-3.0400391v-0.2400513
			c-0.1600342-0.7999878-0.4000244-1.5200195-0.8800049-2.0799561c-0.4799805-0.5599976-1.1199951-1.0400391-1.9200439-1.3599854
			c-0.8000488-0.3200073-1.6799316-0.4799805-2.7199707-0.4799805s-2,0.1599731-2.8000488,0.4799805
			s-1.4400635,0.7999878-1.8400879,1.3599854c-0.4799805,0.5599365-0.6400146,1.2799683-0.6400146,2.0799561l0,0
			c0,0.9599609,0.4000244,1.7599487,1.1199951,2.4000244c0.7200928,0.6400146,1.9200439,1.1199951,3.5200195,1.4400024
			l2.7200928,0.5599976c2.4799805,0.5599365,4.2399902,1.3599243,5.3599854,2.3999634s1.6799316,2.5599976,1.6799316,4.4000244l0,0
			c0,1.4400635-0.4000244,2.6400146-1.1199951,3.6799927c-0.7200928,1.0400391-1.7600098,1.8400269-3.1199951,2.3999634
			c-1.3599854,0.5599976-2.9599609,0.8800049-4.8000488,0.8800049
			C1437.4799805,672.880249,1435.9599609,672.6402588,1434.5999756,672.0802612z"/>
		<path d="M1451.7199707,648.3201904h3.0400391v24.1599731h-3.0400391V648.3201904z M1454.4399414,660.1602783h0.3200684
			L1465,648.3201904h3.7600098l-9.6000977,10.8800049H1459l-4.6400146,5.1199951v-4.1599121H1454.4399414z
			 M1457.0799561,660.9602661l2.1600342-2.1599731l10.4799805,13.6799927h-3.8400879L1457.0799561,660.9602661z"/>
		<path d="M1472.2800293,648.3201904h9.0400391c1.5200195,0,2.8798828,0.3200684,4.0799561,0.8800049
			c1.1199951,0.5599365,2.0799561,1.4400635,2.7199707,2.4799805c0.6400146,1.0400391,0.9599609,2.3200073,0.9599609,3.7599487l0,0
			c0,1.6799927-0.4000244,3.1200562-1.2799072,4.3200073c-0.8800049,1.2000122-2.0800781,2.0800171-3.6000977,2.5599976
			l5.6000977,10h-3.5200195l-5.2000732-9.6000366H1481h-0.0799561h-5.5999756v9.6000366h-3.0400391V648.3201904z
			 M1481.0799561,660.2402344c1.5200195,0,2.7200928-0.4000244,3.5999756-1.2000122
			c0.8800049-0.7999878,1.2800293-1.9199829,1.2800293-3.4400024l0,0c0-1.4400635-0.4799805-2.5599976-1.3599854-3.3599854
			s-2.0799561-1.2000122-3.6799316-1.2000122h-5.6800537v9.2799683h5.8399658V660.2402344z"/>
	</g>
</g>
</svg>
