<?xml version="1.0" encoding="utf-8"?>
<!-- Generator: Adobe Illustrator 26.0.3, SVG Export Plug-In . SVG Version: 6.00 Build 0)  -->
<svg version="1.1" id="Layer_1" xmlns="http://www.w3.org/2000/svg" xmlns:xlink="http://www.w3.org/1999/xlink" x="0px" y="0px"
	 width="3300px" height="2200px" viewBox="0 0 3300 2200" enable-background="new 0 0 3300 2200" xml:space="preserve">
<g id="Notes">
	<rect id="artboard" fill="#FFFFFF" width="3300" height="2200"/>
	<line fill="none" stroke="#000000" stroke-width="0.5" x1="263" y1="292" x2="3036" y2="292"/>
	<text transform="matrix(1 0 0 1 263 322)" enable-background="new    "><tspan x="0" y="0" font-family="'Arial-BoldMT'" font-size="12px">W</tspan><tspan x="11.109375" y="0" font-family="'Arial-BoldMT'" font-size="12px">eight/Scale </tspan><tspan x="77.8007812" y="0" font-family="'Arial-BoldMT'" font-size="12px">V</tspan><tspan x="85.1425781" y="0" font-family="'Arial-BoldMT'" font-size="12px">ariations</tspan></text>
	<text transform="matrix(1 0 0 1 536.0361938 322)" font-family="'ArialMT'" font-size="12px">Ultralight</text>
	<text transform="matrix(1 0 0 1 844.7501221 322)" font-family="'ArialMT'" font-size="12px">Thin</text>
	<text transform="matrix(1 0 0 1 1140.1192627 322)" font-family="'ArialMT'" font-size="12px">Light</text>
	<text transform="matrix(1 0 0 1 1428.8282471 322)" font-family="'ArialMT'" font-size="12px">Regular</text>
	<text transform="matrix(1 0 0 1 1725.2202148 322)" font-family="'ArialMT'" font-size="12px">Medium</text>
	<text transform="matrix(1 0 0 1 2018.2563477 322)" font-family="'ArialMT'" font-size="12px">Semibold</text>
	<text transform="matrix(1 0 0 1 2327.9711914 322)" font-family="'ArialMT'" font-size="12px">Bold</text>
	<text transform="matrix(1 0 0 1 2619.6831055 322)" font-family="'ArialMT'" font-size="12px">Heavy</text>
	<text transform="matrix(1 0 0 1 2918.7280273 322)" font-family="'ArialMT'" font-size="12px">Black</text>
	<line fill="none" stroke="#000000" stroke-width="0.5" x1="263" y1="1903" x2="3036" y2="1903"/>
	<g transform="matrix(1 0 0 1 263 1933)">
		<path d="M9.1999998,0.8C13.5,0.8,17.1000004-2.8,17.1000004-7.0999999S13.5-15,9.1999998-15
			s-7.9000001,3.6000004-7.9000001,7.9000001C1.4-2.7,5,0.8,9.1999998,0.8z M9.1999998-0.7
			c-3.5,0-6.4000001-2.8-6.4000001-6.4000001S5.5999994-13.5,9.1999998-13.5s6.4000006,2.8000002,6.4000006,6.4000001
			C15.6999998-3.5,12.8000002-0.7,9.1999998-0.7z M6.4000001-6.3000002H8.5v2.0999999c0,0.4000001,0.3000002,0.7,0.6999998,0.7
			s0.6999998-0.3,0.6999998-0.7v-2.0999999H12c0.3999996,0,0.6999998-0.3000002,0.6999998-0.6999998
			c0-0.4000001-0.3000002-0.6999998-0.6999998-0.6999998h-2v-2.0999994c0-0.3999996-0.3000002-0.8000002-0.6999998-0.8000002
			s-0.6999998,0.3000002-0.6999998,0.8000002v2.0999999H6.4000001C5.9000001-7.8000002,5.5999999-7.5,5.5999999-7
			C5.5999999-6.5999999,5.9000001-6.3000002,6.4000001-6.3000002z"/>
	</g>
	<g transform="matrix(1 0 0 1 281.506 1933)">
		<path d="M11.6999998,2.9000001c5.4000006,0,10.000001-4.5,10.000001-10c0-5.4000001-4.5-10-10-10c-5.4000001,0-10,4.5-10,10
			C1.7-1.6,6.3000002,2.9000001,11.6999998,2.9000001z M11.6999998,1.2c-4.5999999,0-8.3000002-3.7-8.3000002-8.3000002
			s3.6999998-8.3000002,8.3000002-8.3000002S20-11.6999998,20-7.0999999C20-2.4000001,16.2999992,1.2,11.6999998,1.2z M8-6.1999998
			h2.8999996v2.9000001c0,0.5,0.3000002,0.8,0.8000002,0.8s0.8000002-0.3,0.8000002-0.8v-2.9000001h2.8999996
			c0.5,0,0.7999992-0.3000002,0.7999992-0.8000002s-0.3000002-0.8000002-0.8000002-0.8000002h-2.9000006v-2.9000006
			c0-0.5-0.3000002-0.8000002-0.8000002-0.8000002s-0.8000002,0.3000002-0.8000002,0.8000002v2.9000001H8
			C7.5-7.9000001,7.0999999-7.5,7.0999999-7C7.0999999-6.5999999,7.5-6.1999998,8-6.1999998z"/>
	</g>
	<g transform="matrix(1 0 0 1 304.924 1933)">
		<path d="M15,5.6999998c7,0,12.7000008-5.8000002,12.7000008-12.6999998c0-7-5.7999992-12.7000008-12.6999998-12.7000008
			C8-19.7999992,2.3000002-14,2.3000002-7.0999999C2.3000002-0.1,8,5.6999998,15,5.6999998z M15,3.8
			C8.8999996,3.8,4.0999999-1,4.0999999-7.0999999C4.0999999-13.1000004,8.8999996-18,15-18
			c6,0,10.8999996,4.8999996,10.8999996,10.8999996C25.8999996-1,21,3.8,15,3.8z M10.1000004-6.0999999h4v4
			c0,0.5,0.3999996,0.9,0.8999996,0.9s0.8999996-0.4,0.8999996-0.9v-4h4c0.5,0,0.8999996-0.4000001,0.8999996-0.9000001
			s-0.3999996-0.9000001-0.8999996-0.9000001h-4v-3.9999995C15.8999996-12.5,15.5-12.7999992,15-12.7999992
			s-0.8999996,0.3999996-0.8999996,0.8999996v4h-4c-0.6000004,0-1,0.3000002-1,0.9000001
			C9.1000004-6.5,9.5-6.0999999,10.1000004-6.0999999z"/>
	</g>
	<text transform="matrix(1 0 0 1 263 1953)" enable-background="new    "><tspan x="0" y="0" font-family="'Arial-BoldMT'" font-size="12px">Design </tspan><tspan x="43.3417969" y="0" font-family="'Arial-BoldMT'" font-size="12px">V</tspan><tspan x="50.6835938" y="0" font-family="'Arial-BoldMT'" font-size="12px">ariations</tspan></text>
	<text transform="matrix(1 0 0 1 263 1971)" font-family="'ArialMT'" font-size="12px">Symbols are supported in up to nine weights and three scales.</text>
	<text transform="matrix(1 0 0 1 263 1989)" font-family="'ArialMT'" font-size="12px">For optimal layout with text and other symbols, vertically align</text>
	<text transform="matrix(1 0 0 1 263 2007)" font-family="'ArialMT'" font-size="12px">symbols with the adjacent text.</text>
	<line fill="none" stroke="#00AEEF" stroke-width="0.5" x1="776" y1="1919" x2="776" y2="1933"/>
	<g transform="matrix(1 0 0 1 776 1933)">
		<path d="M3.3,0.1c0.5,0,0.8-0.2,1.0000002-0.7l1.3000002-3.5h5.8000002l1.3000002,3.5c0.1999998,0.5,0.3999996,0.7,0.8999996,0.7
			s0.8000002-0.3,0.8000002-0.8c0-0.2,0-0.3-0.1000004-0.5L9.6999998-13.3999996C9.3999996-14,9-14.3000002,8.3999996-14.3000002
			s-1,0.3000002-1.1999998,0.8999996L2.5999999-1.2C2.5-1,2.5-0.8,2.5-0.7C2.5-0.2,2.8,0.1,3.3,0.1z M6-5.5l2.3999996-6.6000004l0,0
			l2.3999996,6.5999999C10.8000002-5.5,6-5.5,6-5.5z"/>
	</g>
	<line fill="none" stroke="#00AEEF" stroke-width="0.5" x1="792.7999878" y1="1919" x2="792.7999878" y2="1933"/>
	<text transform="matrix(1 0 0 1 776 1953)" font-family="'Arial-BoldMT'" font-size="12px">Margins</text>
	<text transform="matrix(1 0 0 1 776 1971)" font-family="'ArialMT'" font-size="12px">Leading and trailing margins on the left and right side of each symbol</text>
	<text transform="matrix(1 0 0 1 776 1989)" font-family="'ArialMT'" font-size="12px">can be adjusted by modifying the x-location of the margin guidelines.</text>
	<text transform="matrix(1 0 0 1 776 2007)" font-family="'ArialMT'" font-size="12px">Modifications are automatically applied proportionally to all</text>
	<text transform="matrix(1 0 0 1 776 2025)" font-family="'ArialMT'" font-size="12px">scales and weights.</text>
	<g transform="matrix(1 0 0 1 1289 1933)">
		<path d="M2.8,1.9l1.7,1.6999999c0.9000001,0.9000001,1.8000002,0.8000002,2.8000002-0.2L17.5-7.9000001
			c0.2999992,0.0999999,0.5,0.0999999,0.7999992,0L19.3999996-8l0.7000008,0.6999998v0.5999999
			c0,0.5,0.1000004,0.9000001,0.6000004,1.4000001L21.5-4.6000004c0.5,0.5,1.1000004,0.5,1.6000004,0L26-7.5
			C26.5-8,26.3999996-8.6000004,26-9l-1-0.8999996C24.5-10.3999996,24.2000008-10.5,23.7000008-10.5h-0.6000004L22.5-11.1000004
			l0.2000008-1.1000004c0.1000004-0.6000004,0-1-0.6000004-1.6000004L19.8999996-16
			c-3.2999992-3.2999992-7.8000002-3.2000008-10.6999998-0.3999996C8.8000002-16,8.8000002-15.3999996,9-15
			s0.6999998,0.6000004,1.3000002,0.3999996c1.5-0.3000002,3-0.3999996,4.4000006,0.5l-0.6000004,1.5
			c-0.1999998,0.5-0.1999998,0.8999996-0.1000004,1.1999998L3-0.9C2.0999999,0,2,1,2.8,1.9z M10.8000002-16
			c2.4000006-1.7999992,5.6999998-1.5,7.9000006,0.8000002l2.3999996,2.4000006
			c0.2000008,0.1999998,0.2999992,0.3999996,0.2000008,0.8000002L21-10.5L22.5-9l1-0.1000004c0.2999992,0,0.2999992,0,0.5,0.1999998
			l0.6000004,0.6000004l-2.3999996,2.4000001L21.6000004-6.5c-0.2000008-0.1999998-0.2000008-0.3000002-0.2000008-0.5L21.5-8L20-9.5
			l-1.5,0.3000002c-0.2999992,0.1000004-0.5,0-0.7000008-0.1999998l-2-2
			c-0.3000002-0.1999998-0.3000002-0.3999996-0.1000004-0.8000002l0.8999996-2.0999994C15-15.8000002,13-16.3999996,11-15.8000002
			C10.6999998-15.6999998,10.6000004-15.8000002,10.8000002-16z M5.3000002,2.3L4.0999999,1.1c-0.5-0.4-0.3999999-0.8,0-1.1
			L15-10.1999998l1.5,1.5l-10,11C6.0999999,2.7,5.6999998,2.8,5.3000002,2.3z"/>
	</g>
	<text transform="matrix(1 0 0 1 1289 1953)" font-family="'Arial-BoldMT'" font-size="12px">Exporting</text>
	<text transform="matrix(1 0 0 1 1289 1971)" font-family="'ArialMT'" font-size="12px">Symbols should be outlined when exporting to ensure the</text>
	<text transform="matrix(1 0 0 1 1289 1989)" font-family="'ArialMT'" font-size="12px">design is preserved when submitting to Xcode.</text>
	<text id="template-version" transform="matrix(1 0 0 1 2958.8496094 1933)" enable-background="new    "><tspan x="0" y="0" font-family="'ArialMT'" font-size="12px" letter-spacing="-1">T</tspan><tspan x="6" y="0" font-family="'ArialMT'" font-size="12px">emplate </tspan><tspan x="52.0253906" y="0" font-family="'ArialMT'" font-size="12px">v</tspan><tspan x="57.1347656" y="0" font-family="'ArialMT'" font-size="12px">.2.0</tspan></text>
	<text transform="matrix(1 0 0 1 2878.5761719 1951)" font-family="'ArialMT'" font-size="12px">Requires Xcode 12 or greater</text>
	<text transform="matrix(1 0 0 1 2887.9335938 1969)" enable-background="new    "><tspan x="0" y="0" font-family="'ArialMT'" font-size="12px">Generated from folde</tspan><tspan x="113.3964844" y="0" font-family="'ArialMT'" font-size="12px">r</tspan><tspan x="116.7304688" y="0" font-family="'ArialMT'" font-size="12px">.circle</tspan></text>
	<text transform="matrix(1 0 0 1 2921.9238281 1987)" enable-background="new    "><tspan x="0" y="0" font-family="'ArialMT'" font-size="12px">T</tspan><tspan x="6.6679688" y="0" font-family="'ArialMT'" font-size="12px">ypeset at 100 points</tspan></text>
	<text transform="matrix(1 0 0 1 263 726)" font-family="'ArialMT'" font-size="12px">Small</text>
	<text transform="matrix(1 0 0 1 263 1156)" font-family="'ArialMT'" font-size="12px">Medium</text>
	<text transform="matrix(1 0 0 1 263 1586)" font-family="'ArialMT'" font-size="12px">Large</text>
</g>
<g id="Guides">
	<g id="H-reference" transform="matrix(1 0 0 1 339 696)">
		<path fill="#27AAE1" d="M1,0h2.7L13-24.5h32.7999992L55.0999985,0h2.5999985L30.6000004-70.5h-2.5L1,0z M29.2999992-67.0999985
			L29.2999992-67.0999985l15.5,40.4000015h-31L29.2999992-67.0999985z"/>
	</g>
	<line id="Baseline-S" fill="none" stroke="#27AAE1" stroke-width="0.5" x1="263" y1="696" x2="3036" y2="696"/>
	<line id="Capline-S" fill="none" stroke="#27AAE1" stroke-width="0.5" x1="263" y1="625.5" x2="3036" y2="625.5"/>
	<g id="H-reference_1_" transform="matrix(1 0 0 1 339 1126)">
		<path fill="#27AAE1" d="M1,0h2.7L13-24.5h32.7999992L55.0999985,0h2.5999985L30.6000004-70.5h-2.5L1,0z M29.2999992-67.0999985
			L29.2999992-67.0999985l15.5,40.4000015h-31L29.2999992-67.0999985z"/>
	</g>
	<line id="Baseline-M" fill="none" stroke="#27AAE1" stroke-width="0.5" x1="263" y1="1126" x2="3036" y2="1126"/>
	<line id="Capline-M" fill="none" stroke="#27AAE1" stroke-width="0.5" x1="263" y1="1055.5" x2="3036" y2="1055.5"/>
	<g id="H-reference_2_" transform="matrix(1 0 0 1 339 1556)">
		<path fill="#27AAE1" d="M1,0h2.7L13-24.5h32.7999992L55.0999985,0h2.5999985L30.6000004-70.5h-2.5L1,0z M29.2999992-67.0999985
			L29.2999992-67.0999985l15.5,40.4000015h-31L29.2999992-67.0999985z"/>
	</g>
	<line id="Baseline-L" fill="none" stroke="#27AAE1" stroke-width="0.5" x1="263" y1="1556" x2="3036" y2="1556"/>
	<line id="Capline-L" fill="none" stroke="#27AAE1" stroke-width="0.5" x1="263" y1="1485.5" x2="3036" y2="1485.5"/>
	
		<line id="left-margin" fill="none" stroke="#00AEEF" stroke-width="0.5" x1="1391.3000488" y1="1030.8000488" x2="1391.3000488" y2="1150.0999756"/>
	
		<line id="right-margin" fill="none" stroke="#00AEEF" stroke-width="0.5" x1="1508.4000244" y1="1030.8000488" x2="1508.4000244" y2="1150.0999756"/>
</g>
<g id="Symbols">
	<g id="Semibold-L" transform="matrix(1 0 0 1 1983.5 1126)">
		<path d="M6.8900294,423.9848022c-3.9000001-1.9500122-6.8900003-4.6799927-8.9699993-8.1900024
			s-3.1199996-7.5400085-3.1199996-12.2200012v-40.8200073H6.1100287v39.9100037
			c0,4.4200134,1.3000002,7.9300232,3.9000001,10.5299988c2.6000004,2.6000061,6.2399998,4.0299988,10.789999,4.0299988
			c4.6799984,0,8.3200016-1.2999878,10.789999-4.0299988c2.4699974-2.7299805,3.7700005-6.1099854,3.7700005-10.5299988v-39.9100037
			h11.1800003v40.8200073c0,4.6799927-1.0400009,8.7099915-3.1200027,12.2200012s-5.0700035,6.2399902-8.9700012,8.1900024
			s-8.4500008,2.9899902-13.7800007,2.9899902S10.7900295,425.9348145,6.8900294,423.9848022z"/>
		<path d="M57.7200317,362.7547913h25.2199936c4.5500031,0,8.3199997,0.7799988,11.5699997,2.3399963
			c3.25,1.5600281,5.7200089,3.9000244,7.4100037,6.7600098c1.6899872,2.8600159,2.5999985,6.5,2.5999985,10.5299988v0.1300049
			c0,4.2900085-1.0400085,7.9299927-3.25,11.1799927c-2.2099991,3.25-5.0700073,5.4599915-8.7099991,6.7600098
			l13.7799988,25.3500061H93.4700241l-12.3499985-23.6600037c-0.1299973,0-0.1299973,0-0.2599945,0s-0.2599945,0-0.2599945,0
			H69.0300293v23.6600037H57.7200317V362.7547913z M81.7700272,393.3048096c3.6399994,0,6.3700027-0.9100037,8.3199997-2.8600159
			c1.9499969-1.8200073,2.9900055-4.5499878,2.9900055-7.9299927v-0.1300049c0-3.25-1.0400085-5.8499756-3.1200027-7.7999878
			c-2.0800018-1.9500122-4.9400024-2.8600159-8.4500046-2.8600159H69.0300293v21.4500122h12.7399979V393.3048096z"/>
		<path d="M114.010025,392.5248108c-1.1699982-1.1700134-1.8199997-2.730011-1.8199997-4.4200134
			s0.6500015-3.25,1.8199997-4.4199829c1.1700058-1.1700134,2.7300034-1.8200073,4.5500031-1.8200073
			c1.6900024,0,3.25,0.6499939,4.4200058,1.8200073c1.1699982,1.1699829,1.8199997,2.7299805,1.8199997,4.4199829
			s-0.6500015,3.25-1.8199997,4.4200134c-1.1700058,1.1699829-2.7300034,1.8200073-4.4200058,1.8200073
			C116.7400284,394.3448181,115.1800308,393.6947937,114.010025,392.5248108z M114.010025,424.6347961
			c-1.1699982-1.1699829-1.8199997-2.7299805-1.8199997-4.4199829c0-1.8200073,0.6500015-3.25,1.8199997-4.5500183
			c1.1700058-1.1699829,2.7300034-1.8199768,4.5500031-1.8199768c1.6900024,0,3.25,0.6499939,4.4200058,1.8199768
			c1.1699982,1.1700134,1.8199997,2.730011,1.8199997,4.5500183c0,1.6900024-0.6500015,3.25-1.8199997,4.4199829
			c-1.1700058,1.1700134-2.7300034,1.8200073-4.4200058,1.8200073
			C116.7400284,426.4548035,115.1800308,425.8048096,114.010025,424.6347961z"/>
		<path d="M118.2997742,447.3850708h-117c-3.5902343,0-6.5-2.90979-6.5-6.5c0-3.5902405,2.9097655-6.5,6.5-6.5h117
			c3.5902328,0,6.5,2.9097595,6.5,6.5C124.7997742,444.4752808,121.890007,447.3850708,118.2997742,447.3850708z"/>
		<path d="M118.2997742,355.2145386h-117c-3.5902343,0-6.5-2.9104004-6.5-6.5s2.9097655-6.5,6.5-6.5h117
			c3.5902328,0,6.5,2.9104004,6.5,6.5S121.890007,355.2145386,118.2997742,355.2145386z"/>
	</g>
	<g id="Regular-L" transform="matrix(1 0 0 1 1391.3 1126)">
		<path d="M5.7200727,425.1697388c-3.9000001-2.0799866-6.8900003-4.9400024-8.9699993-8.5799866
			c-2.079999-3.6400146-3.1199994-7.8000183-3.1199994-12.6100159v-42.769989h8.1900005v42.25
			c0,5.0700073,1.5599997,9.230011,4.6799994,12.3500061s7.5399995,4.8099976,13.2600021,4.8099976
			s10.1399994-1.5599976,13.2600021-4.8099976c3.1199989-3.25,4.6799965-7.2799988,4.6799965-12.3500061v-42.25h8.1899986v42.769989
			c0,4.8099976-1.0399971,8.9700012-3.1200027,12.6100159c-2.0800018,3.6399841-5.0699997,6.5-8.9700012,8.5799866
			c-3.8999996,2.0800171-8.579998,3.1199951-14.039999,3.1199951S9.6200724,427.2497559,5.7200727,425.1697388z"/>
		<path d="M58.6300697,361.2097473h24.7000008c4.2900009,0,7.9300003,0.7799988,11.0500031,2.4700012
			s5.590004,3.8999939,7.2799988,6.8900146c1.6900024,2.9899902,2.5999985,6.3699951,2.5999985,10.3999939v0.1300049
			c0,4.5499878-1.1700058,8.5799866-3.5099945,11.8299866c-2.340004,3.3800049-5.590004,5.5899963-9.75,7.019989
			l15.2099915,27.3000183H96.590065L82.5500717,401.119751c-0.1299973,0-0.1299973,0-0.2599945,0s-0.1299973,0-0.2599945,0
			H66.820076v26.1300049h-8.1899986C58.6300774,427.2497559,58.6300774,361.2097473,58.6300697,361.2097473z
			 M82.5500717,393.8397522c4.2900085,0,7.5400085-1.0400085,9.75-3.25c2.2099991-2.210022,3.5099945-5.3300171,3.5099945-9.3600159
			v-0.1299744c0-3.9000244-1.1699982-7.0200195-3.6399994-9.230011s-5.7200012-3.25-10.0099945-3.25H66.820076v25.2200012
			H82.5500717z"/>
		<path d="M114.6600723,390.9797363c-1.0400085-1.039978-1.5599976-2.2099915-1.5599976-3.6399841
			s0.5199966-2.730011,1.5599976-3.6400146c1.0399933-0.9100037,2.2099915-1.5599976,3.6399994-1.5599976
			c1.4300003,0,2.7299957,0.5200195,3.640007,1.5599976c0.9100037,1.0400085,1.5599976,2.210022,1.5599976,3.6400146
			s-0.5200043,2.7299805-1.5599976,3.6399841s-2.2099991,1.5599976-3.640007,1.5599976
			C116.8700714,392.4097595,115.570076,391.88974,114.6600723,390.9797363z M114.6600723,426.3397522
			c-1.0400085-1.0400085-1.5599976-2.2099915-1.5599976-3.6400146c0-1.4299927,0.5199966-2.7299805,1.5599976-3.6399841
			c1.0399933-0.9100037,2.2099915-1.5599976,3.6399994-1.5599976c1.4300003,0,2.7299957,0.519989,3.640007,1.5599976
			c0.9100037,1.0400085,1.5599976,2.2099915,1.5599976,3.6399841c0,1.4300232-0.5200043,2.730011-1.5599976,3.6400146
			s-2.2099991,1.5599976-3.640007,1.5599976C116.8700714,427.7697449,115.570076,427.2497559,114.6600723,426.3397522z"/>
		<path d="M118.2997589,353.5397339H-1.3002443c-3.230957,0-5.8499999-2.6190186-5.8499999-5.8499756
			s2.6190429-5.8500061,5.8499999-5.8500061h119.6000061c3.230957,0,5.8499985,2.6190491,5.8499985,5.8500061
			S121.5307159,353.5397339,118.2997589,353.5397339z"/>
		<path d="M118.2997589,447.6602478H-1.3002443c-3.230957,0-5.8499999-2.6190491-5.8499999-5.8500061
			s2.6190429-5.8499756,5.8499999-5.8499756h119.6000061c3.230957,0,5.8499985,2.6190186,5.8499985,5.8499756
			S121.5307159,447.6602478,118.2997589,447.6602478z"/>
	</g>
	<g id="Semibold-M" transform="matrix(1 0 0 1 1983.5 1126)">
		<path d="M19.1000004-12.8000002c-3-1.5-5.3000002-3.5999994-6.8999996-6.3000002S9.8000011-24.9000015,9.8000011-28.5v-31.4000015
			H18.5v30.7000008c0,3.3999996,1,6.1000004,3,8.1000004S26.2999992-18,29.7999992-18c3.5999985,0,6.4000015-1,8.2999992-3.1000004
			S41-25.7999992,41-29.2000008v-30.7000008h8.5999985v31.3999996c0,3.6000004-0.7999992,6.6999989-2.4000015,9.3999996
			s-3.9000015,4.8000002-6.9000015,6.3000002s-6.5,2.3000002-10.6000004,2.3000002S22.1000004-11.3000002,19.1000004-12.8000002z"/>
		<path d="M58.2000008-59.9000015h19.3999977c3.5,0,6.4000015,0.5999985,8.9000015,1.7999992s4.4000015,3,5.6999969,5.2000008
			s2,5,2,8.0999985v0.0999985c0,3.2999992-0.8000031,6.0999985-2.5,8.5999985S87.7999954-31.9000053,85-30.9000053l10.5999985,19.5
			h-9.9000015l-9.5-18.2000008c-0.0999985,0-0.0999985,0-0.1999969,0s-0.1999969,0-0.1999969,0h-8.9000015v18.2000008h-8.7000008
			V-59.9000015z M76.6999969-36.4000015c2.8000031,0,4.9000015-0.7000008,6.4000015-2.2000008
			c1.5-1.4000015,2.3000031-3.5,2.3000031-6.0999985v-0.0999985c0-2.5-0.8000031-4.5-2.4000015-6S79.1999969-53,76.5-53h-9.5999985
			v16.5h9.7999954V-36.4000015z"/>
		<path d="M101.5-37c-0.9000015-0.9000015-1.4000015-2.0999985-1.4000015-3.4000015s0.5-2.5,1.4000015-3.4000015
			s2.0999985-1.4000015,3.5-1.4000015c1.3000031,0,2.5,0.5,3.4000015,1.4000015s1.4000015,2.0999985,1.4000015,3.4000015
			s-0.5,2.5-1.4000015,3.4000015S106.3000031-35.5999985,105-35.5999985C103.5999985-35.5999985,102.4000015-36.0999985,101.5-37z
			 M101.5-12.3000002c-0.9000015-0.8999996-1.4000015-2.0999994-1.4000015-3.4000006c0-1.3999996,0.5-2.5,1.4000015-3.5
			c0.9000015-0.8999996,2.0999985-1.3999996,3.5-1.3999996c1.3000031,0,2.5,0.5,3.4000015,1.3999996
			s1.4000015,2.1000004,1.4000015,3.5c0,1.3000002-0.5,2.5-1.4000015,3.3999996S106.3000031-10.9000015,105-10.9000015
			C103.5999985-10.8999996,102.4000015-11.3999996,101.5-12.3000002z"/>
		<path d="M104.7998047,5.2001953h-90c-2.7617188,0-5-2.2382812-5-5s2.2382812-5,5-5h90c2.7617188,0,5,2.2382812,5,5
			S107.5615234,5.2001953,104.7998047,5.2001953z"/>
		<path d="M104.7998047-65.7001953h-90c-2.7617188,0-5-2.2387695-5-5s2.2382812-5,5-5h90c2.7617188,0,5,2.2387695,5,5
			S107.5615234-65.7001953,104.7998047-65.7001953z"/>
	</g>
	<g id="Regular-M" transform="matrix(1 0 0 1 1391.3 1126)">
		<path d="M17.8999996-11.8999996C14.8999996-13.5,12.5999994-15.6999998,11-18.5s-2.3999996-6-2.3999996-9.7000008v-32.9000015
			h6.3000002v32.5c0,3.8999996,1.1999998,7.1000004,3.5999994,9.5s5.7999992,3.6999998,10.2000008,3.6999998
			S36.5-16.6000023,38.9000015-19.1000023S42.5-24.7000027,42.5-28.6000023v-32.5h6.2999992v32.9000015
			C48.7999992-24.5,48-21.3000011,46.3999977-18.5s-3.9000015,5-6.9000015,6.6000004S32.8999977-9.5,28.6999969-9.5
			S20.8999996-10.3000002,17.8999996-11.8999996z"/>
		<path d="M58.5999985-61.0999985h19c3.3000031,0,6.0999985,0.5999985,8.5,1.9000015
			c2.4000015,1.2999992,4.3000031,3,5.5999985,5.2999992c1.3000031,2.2999992,2,4.9000015,2,8v0.0999985
			c0,3.5-0.9000015,6.5999985-2.6999969,9.1000023c-1.8000031,2.5999985-4.3000031,4.2999992-7.5,5.3999996l11.6999969,21
			h-7.4000015L77-30.3999996c-0.0999985,0-0.0999985,0-0.1999969,0s-0.0999985,0-0.1999969,0H64.9000015v20.1000004h-6.2999992
			C58.6000023-10.2999992,58.6000023-61.0999985,58.5999985-61.0999985z M77-36c3.3000031,0,5.8000031-0.7999992,7.5-2.5
			s2.6999969-4.0999985,2.6999969-7.2000008v-0.0999985c0-3-0.9000015-5.4000015-2.8000031-7.0999985
			c-1.9000015-1.7000008-4.4000015-2.5-7.6999969-2.5H64.9000015V-36H77z"/>
		<path d="M101.6999969-38.2000008C100.8999939-39,100.5-39.9000015,100.5-41s0.4000015-2.0999985,1.1999969-2.7999992
			S103.3999939-45,104.5-45c1.0999985,0,2.0999985,0.4000015,2.8000031,1.2000008S108.5-42.0999985,108.5-41
			s-0.4000015,2.0999985-1.1999969,2.7999992S105.6000061-37,104.5-37
			C103.4000015-37.0999985,102.4000015-37.5,101.6999969-38.2000008z M101.6999969-11
			C100.8999939-11.8000002,100.5-12.6999998,100.5-13.8000002s0.4000015-2.0999994,1.1999969-2.8000002
			s1.6999969-1.2000008,2.8000031-1.2000008c1.0999985,0,2.0999985,0.3999996,2.8000031,1.2000008
			S108.5-14.9000006,108.5-13.8000002S108.0999985-11.7000008,107.3000031-11S105.6000061-9.8000002,104.5-9.8000002
			C103.4000015-9.8999996,102.4000015-10.3000002,101.6999969-11z"/>
		<path d="M104.4997559-67h-92c-2.4853516,0-4.5-2.0146484-4.5-4.5s2.0146484-4.5,4.5-4.5h92c2.4853516,0,4.5,2.0146484,4.5,4.5
			S106.9851074-67,104.4997559-67z"/>
		<path d="M104.4997559,5.4003906h-92c-2.4853516,0-4.5-2.0146484-4.5-4.5s2.0146484-4.5,4.5-4.5h92
			c2.4853516,0,4.5,2.0146484,4.5,4.5S106.9851074,5.4003906,104.4997559,5.4003906z"/>
	</g>
	<g id="Semibold-S" transform="matrix(1 0 0 1 1983.5 1126)">
		<path d="M27.2399807-447.2402039c-2.3999996-1.1999817-4.2399998-2.8800049-5.5199986-5.039978
			c-1.2800007-2.1600037-1.9200001-4.6400146-1.9200001-7.5200195v-25.1199951h6.9599991v24.5599976
			c0,2.7200012,0.7999992,4.8800049,2.3999996,6.480011s3.8400002,2.4799805,6.6399994,2.4799805
			c2.8799973,0,5.1200027-0.7999878,6.6399994-2.4799805s2.3199997-3.7600098,2.3199997-6.480011v-24.5599976h6.8800011v25.1199951
			c0,2.8800049-0.6399994,5.3600159-1.920002,7.519989c-1.2800026,2.1600037-3.1200027,3.8400269-5.5200005,5.0400085
			c-2.4000015,1.2000122-5.2000008,1.8399963-8.4799995,1.8399963
			C32.4399757-445.4002075,29.6399803-446.0401917,27.2399807-447.2402039z"/>
		<path d="M58.5199814-484.9201965H74.039978c2.8000031,0,5.1200027,0.480011,7.1200027,1.4400024
			s3.5200043,2.3999939,4.5599976,4.1600037s1.5999985,4,1.5999985,6.4799805v0.0800171
			c0,2.6399841-0.6399994,4.8800049-2,6.8800049c-1.359993,2-3.1200027,3.3599854-5.359993,4.1599731l8.4799957,15.6000061
			h-7.9199982l-7.6000061-14.5599976c-0.0799942,0-0.0799942,0-0.159996,0c-0.0799942,0-0.159996,0-0.159996,0h-7.1200027
			v14.5599976h-6.9599991V-484.9201965z M73.3199768-466.1202087c2.2400055,0,3.9200058-0.5599976,5.1200027-1.7599792
			c1.1999969-1.1199951,1.840004-2.8000183,1.840004-4.8800049v-0.0800171c0-2-0.640007-3.5999756-1.9200058-4.7999878
			s-3.0400009-1.7600098-5.1999969-1.7600098h-7.6800003v13.2000122h7.8399963V-466.1202087z"/>
		<path d="M93.1599808-466.6001892c-0.7200012-0.7200012-1.1200027-1.6799927-1.1200027-2.7200012s0.4000015-2,1.1200027-2.7200012
			s1.6800003-1.1199951,2.8000031-1.1199951c1.0400009,0,2,0.3999939,2.7200012,1.1199951s1.1199951,1.6799927,1.1199951,2.7200012
			s-0.3999939,2-1.1199951,2.7200012s-1.6800003,1.1199951-2.7200012,1.1199951
			C94.8399811-465.4801941,93.879982-465.880188,93.1599808-466.6001892z M93.1599808-446.84021
			c-0.7200012-0.7199707-1.1200027-1.6799927-1.1200027-2.7199707c0-1.1200256,0.4000015-2,1.1200027-2.8000183
			c0.7200012-0.7200012,1.6800003-1.1199951,2.8000031-1.1199951c1.0400009,0,2,0.3999939,2.7200012,1.1199951
			s1.1199951,1.6799927,1.1199951,2.8000183c0,1.039978-0.3999939,2-1.1199951,2.7199707
			c-0.7200012,0.7200012-1.6800003,1.1200256-2.7200012,1.1200256
			C94.8399811-445.7201843,93.879982-446.1202087,93.1599808-446.84021z"/>
		<path d="M95.7998276-432.8400269h-72c-2.2093735,0-4-1.7906494-4-4c0-2.2093811,1.7906265-4,4-4h72c2.2093735,0,4,1.7906189,4,4
			C99.7998276-434.6306763,98.009201-432.8400269,95.7998276-432.8400269z"/>
		<path d="M95.7998276-489.5603638h-72c-2.2093735,0-4-1.7910156-4-4s1.7906265-4,4-4h72c2.2093735,0,4,1.7910156,4,4
			S98.009201-489.5603638,95.7998276-489.5603638z"/>
	</g>
	<g id="Regular-S" transform="matrix(1 0 0 1 1391.3 1126)">
		<path d="M26.0199509-446.5301514c-2.3999996-1.2799988-4.2399998-3.0400085-5.5200005-5.2799988
			c-1.2799988-2.2400208-1.9199982-4.8000183-1.9199982-7.7600098v-26.3200073h5.039999v26
			c0,3.1199951,0.960001,5.6800232,2.8799992,7.6000061c1.9200001,1.9200134,4.6399994,2.9599915,8.1599998,2.9599915
			c3.5200043,0,6.2400017-0.9599915,8.1600037-2.9599915c1.9199982-2,2.8799973-4.480011,2.8799973-7.6000061v-26h5.0400009
			v26.3200073c0,2.9599915-0.6399994,5.519989-1.920002,7.7600098c-1.2800026,2.2399902-3.1200027,4-5.5200005,5.2799988
			c-2.4000015,1.2799988-5.2799988,1.9199829-8.6399994,1.9199829S28.4199505-445.2501526,26.0199509-446.5301514z"/>
		<path d="M58.5799484-485.8901672H73.779953c2.6399994,0,4.8799973,0.480011,6.7999954,1.5200195
			c1.9200058,1.0400085,3.4400024,2.3999939,4.4800034,4.2399902s1.5999985,3.9200134,1.5999985,6.3999939v0.0800171
			c0,2.7999878-0.7200012,5.2799988-2.159996,7.2799988c-1.4400024,2.0799866-3.4400024,3.4400024-6,4.3200073l9.359993,16.7999878
			H81.939949l-8.6399994-16.0800171c-0.0799942,0-0.0799942,0-0.159996,0s-0.0800018,0-0.159996,0h-9.3600044v16.0800171h-5.0400009
			C58.5799522-445.2501526,58.5799522-485.8901672,58.5799484-485.8901672z M73.2999496-465.8101501
			c2.640007,0,4.640007-0.6400146,6-2c1.3600006-1.3600159,2.159996-3.2799988,2.159996-5.7600098v-0.0799866
			c0-2.4000244-0.7200012-4.3200073-2.2399979-5.6799927c-1.5200043-1.3600159-3.5200043-2-6.159996-2h-9.4399986v15.519989
			H73.2999496z"/>
		<path d="M93.0599518-467.5701599c-0.640007-0.6399841-0.9599991-1.3599854-0.9599991-2.2399902
			s0.3199997-1.6799927,0.9599991-2.2400208c0.6399918-0.5599976,1.359993-0.9599915,2.2399979-0.9599915
			c0.8799973,0,1.6800003,0.3200073,2.2400055,0.9599915c0.5600052,0.6400146,0.9599991,1.3600159,0.9599991,2.2400208
			s-0.3200073,1.6799927-0.9599991,2.2399902c-0.6399994,0.5599976-1.3600006,0.9599915-2.2400055,0.9599915
			C94.4199524-466.690155,93.6199493-467.0101624,93.0599518-467.5701599z M93.0599518-445.8101501
			c-0.640007-0.6400146-0.9599991-1.3600159-0.9599991-2.2400208c0-0.8799744,0.3199997-1.6799927,0.9599991-2.2399902
			c0.6399918-0.5599976,1.359993-0.9599915,2.2399979-0.9599915c0.8799973,0,1.6800003,0.3200073,2.2400055,0.9599915
			c0.5600052,0.6400146,0.9599991,1.3600159,0.9599991,2.2399902c0,0.8800049-0.3200073,1.6800232-0.9599991,2.2400208
			c-0.6399994,0.5599976-1.3600006,0.9599915-2.2400055,0.9599915
			C94.4199524-444.9301453,93.6199493-445.2501526,93.0599518-445.8101501z"/>
		<path d="M95.2997589-490.6101685H21.6997566c-1.9882812,0-3.6000004-1.6116943-3.6000004-3.5999756
			s1.6117191-3.6000061,3.6000004-3.6000061h73.6000061c1.9882812,0,3.5999985,1.6117249,3.5999985,3.6000061
			S97.2880402-490.6101685,95.2997589-490.6101685z"/>
		<path d="M95.2997589-432.6898499H21.6997566c-1.9882812,0-3.6000004-1.6117249-3.6000004-3.6000061
			s1.6117191-3.5999756,3.6000004-3.5999756h73.6000061c1.9882812,0,3.5999985,1.6116943,3.5999985,3.5999756
			S97.2880402-432.6898499,95.2997589-432.6898499z"/>
	</g>
</g>
</svg>
