<?xml version="1.0" encoding="UTF-8"?>
<!--Generator: Apple Native CoreSVG 175-->
<!DOCTYPE svg
PUBLIC "-//W3C//DTD SVG 1.1//EN"
       "http://www.w3.org/Graphics/SVG/1.1/DTD/svg11.dtd">
<svg version="1.1" xmlns="http://www.w3.org/2000/svg" xmlns:xlink="http://www.w3.org/1999/xlink" width="3300" height="2200">
 <!--glyph: "", point size: 100.0, font version: "17.1d1e1", template writer version: "65.1"-->
 <style>.hierarchical-0:secondary {fill:#4D4D4D}
.hierarchical-1:primary {fill:#212121}

.SFSymbolsPreview212121 {fill:#212121;opacity:1.0}
.SFSymbolsPreview4D4D4D {fill:#4D4D4D;opacity:1.0}
</style>
 <g id="Notes">
  <rect height="2200" id="artboard" style="fill:white;opacity:1" width="3300" x="0" y="0"/>
  <line style="fill:none;stroke:black;opacity:1;stroke-width:0.5;" x1="263" x2="3036" y1="292" y2="292"/>
  <text style="stroke:none;fill:black;font-family:sans-serif;font-size:13;font-weight:bold;" transform="matrix(1 0 0 1 263 322)">Weight/Scale Variations</text>
  <text style="stroke:none;fill:black;font-family:sans-serif;font-size:13;text-anchor:middle;" transform="matrix(1 0 0 1 559.711 322)">Ultralight</text>
  <text style="stroke:none;fill:black;font-family:sans-serif;font-size:13;text-anchor:middle;" transform="matrix(1 0 0 1 856.422 322)">Thin</text>
  <text style="stroke:none;fill:black;font-family:sans-serif;font-size:13;text-anchor:middle;" transform="matrix(1 0 0 1 1153.13 322)">Light</text>
  <text style="stroke:none;fill:black;font-family:sans-serif;font-size:13;text-anchor:middle;" transform="matrix(1 0 0 1 1449.84 322)">Regular</text>
  <text style="stroke:none;fill:black;font-family:sans-serif;font-size:13;text-anchor:middle;" transform="matrix(1 0 0 1 1746.56 322)">Medium</text>
  <text style="stroke:none;fill:black;font-family:sans-serif;font-size:13;text-anchor:middle;" transform="matrix(1 0 0 1 2043.27 322)">Semibold</text>
  <text style="stroke:none;fill:black;font-family:sans-serif;font-size:13;text-anchor:middle;" transform="matrix(1 0 0 1 2339.98 322)">Bold</text>
  <text style="stroke:none;fill:black;font-family:sans-serif;font-size:13;text-anchor:middle;" transform="matrix(1 0 0 1 2636.69 322)">Heavy</text>
  <text style="stroke:none;fill:black;font-family:sans-serif;font-size:13;text-anchor:middle;" transform="matrix(1 0 0 1 2933.4 322)">Black</text>
  <line style="fill:none;stroke:black;opacity:1;stroke-width:0.5;" x1="263" x2="3036" y1="1903" y2="1903"/>
  <g transform="matrix(1 0 0 1 263 1933)">
   <path d="M9.24805 0.830078Q10.8691 0.830078 12.2949 0.214844Q13.7207-0.400391 14.8096-1.49414Q15.8984-2.58789 16.5186-4.01367Q17.1387-5.43945 17.1387-7.05078Q17.1387-8.66211 16.5186-10.0879Q15.8984-11.5137 14.8047-12.6074Q13.7109-13.7012 12.2852-14.3164Q10.8594-14.9316 9.23828-14.9316Q7.62695-14.9316 6.20117-14.3164Q4.77539-13.7012 3.69141-12.6074Q2.60742-11.5137 1.9873-10.0879Q1.36719-8.66211 1.36719-7.05078Q1.36719-5.43945 1.9873-4.01367Q2.60742-2.58789 3.69629-1.49414Q4.78516-0.400391 6.21094 0.214844Q7.63672 0.830078 9.24805 0.830078ZM9.24805-0.654297Q7.91992-0.654297 6.7627-1.14746Q5.60547-1.64062 4.73145-2.51953Q3.85742-3.39844 3.36426-4.56055Q2.87109-5.72266 2.87109-7.05078Q2.87109-8.37891 3.35938-9.54102Q3.84766-10.7031 4.72168-11.582Q5.5957-12.4609 6.75293-12.9541Q7.91016-13.4473 9.23828-13.4473Q10.5762-13.4473 11.7334-12.9541Q12.8906-12.4609 13.7695-11.582Q14.6484-10.7031 15.1465-9.54102Q15.6445-8.37891 15.6445-7.05078Q15.6445-5.72266 15.1514-4.56055Q14.6582-3.39844 13.7842-2.51953Q12.9102-1.64062 11.748-1.14746Q10.5859-0.654297 9.24805-0.654297ZM5.6543-7.05078Q5.6543-6.72852 5.85938-6.52832Q6.06445-6.32812 6.40625-6.32812L8.51562-6.32812L8.51562-4.20898Q8.51562-3.88672 8.71094-3.67676Q8.90625-3.4668 9.23828-3.4668Q9.56055-3.4668 9.77051-3.67676Q9.98047-3.88672 9.98047-4.20898L9.98047-6.32812L12.0898-6.32812Q12.4219-6.32812 12.627-6.52832Q12.832-6.72852 12.832-7.05078Q12.832-7.38281 12.627-7.58789Q12.4219-7.79297 12.0898-7.79297L9.98047-7.79297L9.98047-9.90234Q9.98047-10.2344 9.77051-10.4443Q9.56055-10.6543 9.23828-10.6543Q8.90625-10.6543 8.71094-10.4443Q8.51562-10.2344 8.51562-9.90234L8.51562-7.79297L6.40625-7.79297Q6.06445-7.79297 5.85938-7.58789Q5.6543-7.38281 5.6543-7.05078Z"/>
  </g>
  <g transform="matrix(1 0 0 1 281.867 1933)">
   <path d="M11.709 2.91016Q13.75 2.91016 15.5518 2.12891Q17.3535 1.34766 18.7305-0.0292969Q20.1074-1.40625 20.8887-3.20801Q21.6699-5.00977 21.6699-7.05078Q21.6699-9.0918 20.8887-10.8936Q20.1074-12.6953 18.7305-14.0723Q17.3535-15.4492 15.5469-16.2305Q13.7402-17.0117 11.6992-17.0117Q9.6582-17.0117 7.85645-16.2305Q6.05469-15.4492 4.68262-14.0723Q3.31055-12.6953 2.5293-10.8936Q1.74805-9.0918 1.74805-7.05078Q1.74805-5.00977 2.5293-3.20801Q3.31055-1.40625 4.6875-0.0292969Q6.06445 1.34766 7.86621 2.12891Q9.66797 2.91016 11.709 2.91016ZM11.709 1.25Q9.98047 1.25 8.47656 0.605469Q6.97266-0.0390625 5.83496-1.17676Q4.69727-2.31445 4.05762-3.81836Q3.41797-5.32227 3.41797-7.05078Q3.41797-8.7793 4.05762-10.2832Q4.69727-11.7871 5.83008-12.9297Q6.96289-14.0723 8.4668-14.7119Q9.9707-15.3516 11.6992-15.3516Q13.4277-15.3516 14.9316-14.7119Q16.4355-14.0723 17.5781-12.9297Q18.7207-11.7871 19.3652-10.2832Q20.0098-8.7793 20.0098-7.05078Q20.0098-5.32227 19.3701-3.81836Q18.7305-2.31445 17.5928-1.17676Q16.4551-0.0390625 14.9463 0.605469Q13.4375 1.25 11.709 1.25ZM7.17773-7.05078Q7.17773-6.69922 7.41211-6.47461Q7.64648-6.25 8.01758-6.25L10.8887-6.25L10.8887-3.36914Q10.8887-2.99805 11.1133-2.76855Q11.3379-2.53906 11.6895-2.53906Q12.0605-2.53906 12.29-2.76855Q12.5195-2.99805 12.5195-3.36914L12.5195-6.25L15.4004-6.25Q15.7715-6.25 16.001-6.47461Q16.2305-6.69922 16.2305-7.05078Q16.2305-7.42188 16.001-7.65137Q15.7715-7.88086 15.4004-7.88086L12.5195-7.88086L12.5195-10.752Q12.5195-11.1328 12.29-11.3623Q12.0605-11.5918 11.6895-11.5918Q11.3379-11.5918 11.1133-11.3574Q10.8887-11.123 10.8887-10.752L10.8887-7.88086L8.01758-7.88086Q7.63672-7.88086 7.40723-7.65137Q7.17773-7.42188 7.17773-7.05078Z"/>
  </g>
  <g transform="matrix(1 0 0 1 305.646 1933)">
   <path d="M14.9707 5.66406Q17.0605 5.66406 18.96 5.01465Q20.8594 4.36523 22.4512 3.19336Q24.043 2.02148 25.2197 0.429688Q26.3965-1.16211 27.0459-3.06641Q27.6953-4.9707 27.6953-7.05078Q27.6953-9.14062 27.0459-11.04Q26.3965-12.9395 25.2197-14.5312Q24.043-16.123 22.4512-17.2998Q20.8594-18.4766 18.9551-19.126Q17.0508-19.7754 14.9609-19.7754Q12.8711-19.7754 10.9717-19.126Q9.07227-18.4766 7.48535-17.2998Q5.89844-16.123 4.72168-14.5312Q3.54492-12.9395 2.90039-11.04Q2.25586-9.14062 2.25586-7.05078Q2.25586-4.9707 2.90527-3.06641Q3.55469-1.16211 4.72656 0.429688Q5.89844 2.02148 7.49023 3.19336Q9.08203 4.36523 10.9814 5.01465Q12.8809 5.66406 14.9707 5.66406ZM14.9707 3.84766Q13.1641 3.84766 11.5283 3.2959Q9.89258 2.74414 8.53516 1.74805Q7.17773 0.751953 6.17676-0.610352Q5.17578-1.97266 4.62891-3.6084Q4.08203-5.24414 4.08203-7.05078Q4.08203-8.86719 4.62891-10.5029Q5.17578-12.1387 6.17188-13.501Q7.16797-14.8633 8.52539-15.8594Q9.88281-16.8555 11.5186-17.4023Q13.1543-17.9492 14.9609-17.9492Q16.7773-17.9492 18.4131-17.4023Q20.0488-16.8555 21.4111-15.8594Q22.7734-14.8633 23.7695-13.501Q24.7656-12.1387 25.3174-10.5029Q25.8691-8.86719 25.8691-7.05078Q25.8789-5.24414 25.332-3.6084Q24.7852-1.97266 23.7842-0.610352Q22.7832 0.751953 21.4209 1.74805Q20.0586 2.74414 18.4229 3.2959Q16.7871 3.84766 14.9707 3.84766ZM9.19922-7.05078Q9.19922-6.66992 9.45801-6.4209Q9.7168-6.17188 10.1172-6.17188L14.0625-6.17188L14.0625-2.2168Q14.0625-1.81641 14.3115-1.55762Q14.5605-1.29883 14.9512-1.29883Q15.3516-1.29883 15.6104-1.55273Q15.8691-1.80664 15.8691-2.2168L15.8691-6.17188L19.8242-6.17188Q20.2246-6.17188 20.4785-6.4209Q20.7324-6.66992 20.7324-7.05078Q20.7324-7.46094 20.4785-7.71484Q20.2246-7.96875 19.8242-7.96875L15.8691-7.96875L15.8691-11.9141Q15.8691-12.3242 15.6104-12.583Q15.3516-12.8418 14.9512-12.8418Q14.5605-12.8418 14.3115-12.583Q14.0625-12.3242 14.0625-11.9141L14.0625-7.96875L10.1172-7.96875Q9.70703-7.96875 9.45312-7.71484Q9.19922-7.46094 9.19922-7.05078Z"/>
  </g>
  <text style="stroke:none;fill:black;font-family:sans-serif;font-size:13;font-weight:bold;" transform="matrix(1 0 0 1 263 1953)">Design Variations</text>
  <text style="stroke:none;fill:black;font-family:sans-serif;font-size:13;" transform="matrix(1 0 0 1 263 1971)">Symbols are supported in up to nine weights and three scales.</text>
  <text style="stroke:none;fill:black;font-family:sans-serif;font-size:13;" transform="matrix(1 0 0 1 263 1989)">For optimal layout with text and other symbols, vertically align</text>
  <text style="stroke:none;fill:black;font-family:sans-serif;font-size:13;" transform="matrix(1 0 0 1 263 2007)">symbols with the adjacent text.</text>
  <line style="fill:none;stroke:#00AEEF;stroke-width:0.5;opacity:1.0;" x1="776" x2="776" y1="1919" y2="1933"/>
  <g transform="matrix(1 0 0 1 776 1933)">
   <path d="M3.31055 0.15625Q3.70117 0.15625 3.91602-0.00976562Q4.13086-0.175781 4.26758-0.585938L5.52734-4.0332L11.2891-4.0332L12.5488-0.585938Q12.6855-0.175781 12.9004-0.00976562Q13.1152 0.15625 13.4961 0.15625Q13.8867 0.15625 14.1162-0.0585938Q14.3457-0.273438 14.3457-0.644531Q14.3457-0.869141 14.2383-1.17188L9.6582-13.3691Q9.48242-13.8184 9.17969-14.043Q8.87695-14.2676 8.4082-14.2676Q7.5-14.2676 7.17773-13.3789L2.59766-1.16211Q2.49023-0.859375 2.49023-0.634766Q2.49023-0.263672 2.70996-0.0537109Q2.92969 0.15625 3.31055 0.15625ZM6.00586-5.51758L8.37891-12.0898L8.42773-12.0898L10.8008-5.51758Z"/>
  </g>
  <line style="fill:none;stroke:#00AEEF;stroke-width:0.5;opacity:1.0;" x1="793.197" x2="793.197" y1="1919" y2="1933"/>
  <text style="stroke:none;fill:black;font-family:sans-serif;font-size:13;font-weight:bold;" transform="matrix(1 0 0 1 776 1953)">Margins</text>
  <text style="stroke:none;fill:black;font-family:sans-serif;font-size:13;" transform="matrix(1 0 0 1 776 1971)">Leading and trailing margins on the left and right side of each symbol</text>
  <text style="stroke:none;fill:black;font-family:sans-serif;font-size:13;" transform="matrix(1 0 0 1 776 1989)">can be adjusted by modifying the x-location of the margin guidelines.</text>
  <text style="stroke:none;fill:black;font-family:sans-serif;font-size:13;" transform="matrix(1 0 0 1 776 2007)">Modifications are automatically applied proportionally to all</text>
  <text style="stroke:none;fill:black;font-family:sans-serif;font-size:13;" transform="matrix(1 0 0 1 776 2025)">scales and weights.</text>
  <g transform="matrix(1 0 0 1 1289 1933)">
   <path d="M2.8418 1.86523L4.54102 3.57422Q5.18555 4.22852 5.90332 4.17969Q6.62109 4.13086 7.31445 3.35938L18.0078-8.42773L17.041-9.4043L6.42578 2.27539Q6.16211 2.57812 5.89355 2.61719Q5.625 2.65625 5.27344 2.30469L4.10156 1.14258Q3.75 0.791016 3.79395 0.522461Q3.83789 0.253906 4.14062-0.0195312L15.6152-10.8203L14.6387-11.7871L3.04688-0.898438Q2.30469-0.214844 2.25098 0.498047Q2.19727 1.21094 2.8418 1.86523ZM9.25781-16.3281Q8.94531-16.0254 8.90625-15.6348Q8.86719-15.2441 9.04297-14.9512Q9.21875-14.6777 9.55566-14.541Q9.89258-14.4043 10.3809-14.5215Q11.4746-14.7754 12.5977-14.7314Q13.7207-14.6875 14.7949-13.9844L14.209-12.5293Q13.9551-11.9043 14.0674-11.4404Q14.1797-10.9766 14.5801-10.5664L16.875-8.25195Q17.2363-7.88086 17.5781-7.82227Q17.9199-7.76367 18.3398-7.8418L19.4043-8.03711L20.0684-7.36328L20.0293-6.80664Q20-6.43555 20.1221-6.12305Q20.2441-5.81055 20.6055-5.44922L21.3672-4.70703Q21.7285-4.3457 22.1533-4.33105Q22.5781-4.31641 22.9297-4.66797L25.8398-7.58789Q26.1914-7.93945 26.1816-8.35449Q26.1719-8.76953 25.8105-9.13086L25.0391-9.89258Q24.6875-10.2539 24.3799-10.3857Q24.0723-10.5176 23.7109-10.4883L23.1348-10.4395L22.4902-11.0742L22.7344-12.1973Q22.832-12.6172 22.6953-12.9834Q22.5586-13.3496 22.1191-13.7891L19.9219-15.9766Q18.6719-17.2168 17.2607-17.8369Q15.8496-18.457 14.4189-18.4814Q12.9883-18.5059 11.665-17.959Q10.3418-17.4121 9.25781-16.3281ZM10.752-15.957Q11.6602-16.6211 12.7002-16.9043Q13.7402-17.1875 14.8047-17.085Q15.8691-16.9824 16.8701-16.5137Q17.8711-16.0449 18.7012-15.2051L21.1328-12.793Q21.3086-12.6172 21.3525-12.4512Q21.3965-12.2852 21.3379-12.0312L21.0156-10.5469L22.5195-9.0625L23.5059-9.12109Q23.6914-9.13086 23.7891-9.09668Q23.8867-9.0625 24.0332-8.91602L24.6094-8.33984L22.168-5.89844L21.5918-6.47461Q21.4453-6.62109 21.4062-6.71875Q21.3672-6.81641 21.377-7.01172L21.4453-7.98828L19.9512-9.47266L18.4277-9.21875Q18.1836-9.16992 18.042-9.2041Q17.9004-9.23828 17.7148-9.41406L15.7129-11.416Q15.5176-11.5918 15.4932-11.7529Q15.4688-11.9141 15.5859-12.1875L16.4648-14.2773Q15.293-15.3711 13.8281-15.791Q12.3633-16.2109 10.8398-15.7617Q10.7227-15.7324 10.6885-15.8057Q10.6543-15.8789 10.752-15.957Z"/>
  </g>
  <text style="stroke:none;fill:black;font-family:sans-serif;font-size:13;font-weight:bold;" transform="matrix(1 0 0 1 1289 1953)">Exporting</text>
  <text style="stroke:none;fill:black;font-family:sans-serif;font-size:13;" transform="matrix(1 0 0 1 1289 1971)">Symbols should be outlined when exporting to ensure the</text>
  <text style="stroke:none;fill:black;font-family:sans-serif;font-size:13;" transform="matrix(1 0 0 1 1289 1989)">design is preserved when submitting to Xcode.</text>
  <text id="template-version" style="stroke:none;fill:black;font-family:sans-serif;font-size:13;text-anchor:end;" transform="matrix(1 0 0 1 3036 1933)">Template v.3.0</text>
  <text style="stroke:none;fill:black;font-family:sans-serif;font-size:13;text-anchor:end;" transform="matrix(1 0 0 1 3036 1951)">Requires Xcode 13 or greater</text>
  <text id="descriptive-name" style="stroke:none;fill:black;font-family:sans-serif;font-size:13;text-anchor:end;" transform="matrix(1 0 0 1 3036 1969)">Generated from 39.bar</text>
  <text style="stroke:none;fill:black;font-family:sans-serif;font-size:13;text-anchor:end;" transform="matrix(1 0 0 1 3036 1987)">Typeset at 100 points</text>
  <text style="stroke:none;fill:black;font-family:sans-serif;font-size:13;" transform="matrix(1 0 0 1 263 726)">Small</text>
  <text style="stroke:none;fill:black;font-family:sans-serif;font-size:13;" transform="matrix(1 0 0 1 263 1156)">Medium</text>
  <text style="stroke:none;fill:black;font-family:sans-serif;font-size:13;" transform="matrix(1 0 0 1 263 1586)">Large</text>
 </g>
 <g id="Guides">
  <g id="H-reference" style="fill:#27AAE1;stroke:none;" transform="matrix(1 0 0 1 339 696)">
   <path d="M0.993347 0L3.6377 0L29.3282-67.1326L30.0301-67.1326L30.0301-70.459L28.1227-70.459ZM11.6882-24.4797L46.9818-24.4797L46.2311-26.7288L12.4382-26.7288ZM55.1193 0L57.7637 0L30.6381-70.459L29.4327-70.459L29.4327-67.1326Z"/>
  </g>
  <line id="Baseline-S" style="fill:none;stroke:#27AAE1;opacity:1;stroke-width:0.5;" x1="263" x2="3036" y1="696" y2="696"/>
  <line id="Capline-S" style="fill:none;stroke:#27AAE1;opacity:1;stroke-width:0.5;" x1="263" x2="3036" y1="625.541" y2="625.541"/>
  <g id="H-reference" style="fill:#27AAE1;stroke:none;" transform="matrix(1 0 0 1 339 1126)">
   <path d="M0.993347 0L3.6377 0L29.3282-67.1326L30.0301-67.1326L30.0301-70.459L28.1227-70.459ZM11.6882-24.4797L46.9818-24.4797L46.2311-26.7288L12.4382-26.7288ZM55.1193 0L57.7637 0L30.6381-70.459L29.4327-70.459L29.4327-67.1326Z"/>
  </g>
  <line id="Baseline-M" style="fill:none;stroke:#27AAE1;opacity:1;stroke-width:0.5;" x1="263" x2="3036" y1="1126" y2="1126"/>
  <line id="Capline-M" style="fill:none;stroke:#27AAE1;opacity:1;stroke-width:0.5;" x1="263" x2="3036" y1="1055.54" y2="1055.54"/>
  <g id="H-reference" style="fill:#27AAE1;stroke:none;" transform="matrix(1 0 0 1 339 1556)">
   <path d="M0.993347 0L3.6377 0L29.3282-67.1326L30.0301-67.1326L30.0301-70.459L28.1227-70.459ZM11.6882-24.4797L46.9818-24.4797L46.2311-26.7288L12.4382-26.7288ZM55.1193 0L57.7637 0L30.6381-70.459L29.4327-70.459L29.4327-67.1326Z"/>
  </g>
  <line id="Baseline-L" style="fill:none;stroke:#27AAE1;opacity:1;stroke-width:0.5;" x1="263" x2="3036" y1="1556" y2="1556"/>
  <line id="Capline-L" style="fill:none;stroke:#27AAE1;opacity:1;stroke-width:0.5;" x1="263" x2="3036" y1="1485.54" y2="1485.54"/>
  <line id="left-margin-Regular-M" style="fill:none;stroke:#00AEEF;stroke-width:0.5;opacity:1.0;" x1="1391.29" x2="1391.29" y1="1030.73" y2="1150.14"/>
  <line id="right-margin-Regular-M" style="fill:none;stroke:#00AEEF;stroke-width:0.5;opacity:1.0;" x1="1508.39" x2="1508.39" y1="1030.73" y2="1150.14"/>
 </g>
 <g id="Symbols">
  <g id="Semibold-L" transform="matrix(1 0 0 1 1970.22 1556)">
   <path class="hierarchical-0:secondary SFSymbolsPreview4D4D4D" d="M131.49 25.2L14.49 25.2C10.89 25.2 7.99 22.3 7.99 18.7C7.99 15.1 10.89 12.2 14.49 12.2L131.49 12.2C135.09 12.2 137.99 15.1 137.99 18.7C137.99 22.4 135.19 25.2 131.49 25.2ZM131.49-82.5L14.49-82.5C10.89-82.5 7.99-85.4 7.99-89C7.99-92.6 10.89-95.5 14.49-95.5L131.49-95.5C135.09-95.5 137.99-92.6 137.99-89C137.99-85.4 135.19-82.5 131.49-82.5Z"/>
   <path class="hierarchical-1:primary SFSymbolsPreview212121" d="M118.59-73.2C122.39-71.6 125.79-69.3 128.59-66.1C131.39-62.9 133.79-58.8 135.39-53.9C137.09-49 137.89-43 137.89-36.2L137.89-36.1C137.89-27.5 136.59-20.1 134.09-14C131.49-7.9 127.89-3.1 123.19 0.2C118.49 3.5 112.79 5.1 106.19 5.1C101.39 5.1 97.09 4.2 93.19 2.5C89.29 0.8 85.99-1.7 83.59-4.6C80.99-7.6 79.29-11.1 78.49-15L78.39-15.6L92.19-15.6L92.49-15.1C93.29-13.3 94.19-11.7 95.49-10.4C96.79-9.1 98.39-8.1 100.19-7.3C101.99-6.5 104.09-6.1 106.39-6.1C110.59-6.1 114.09-7.3 116.69-9.7C119.29-12.1 121.29-15.4 122.49-19.5C123.79-23.5 124.59-28.1 124.69-32.9C124.69-33.4 124.69-33.8 124.79-34.3C124.79-34.8 124.79-35.2 124.79-35.7L122.29-48.6C122.29-51.5 121.59-54.1 120.19-56.4C118.79-58.7 116.99-60.6 114.59-62C112.19-63.4 109.69-64.1 106.69-64.1C103.79-64.1 101.19-63.5 98.79-62C96.49-60.7 94.49-58.9 93.19-56.5C91.79-54.2 91.09-51.7 91.09-48.8L91.09-48.7C91.09-45.7 91.79-43.1 93.09-40.8C94.39-38.5 96.19-36.8 98.59-35.5C100.89-34.2 103.49-33.5 106.49-33.5C109.49-33.5 112.19-34.1 114.59-35.5C116.89-36.8 118.89-38.5 120.19-40.8C121.59-43 122.29-45.6 122.29-48.6L122.29-48.6L125.49-48.6L125.49-35.3L124.29-35.3C123.29-33 121.69-30.7 119.69-28.9C117.59-27.1 115.29-25.5 112.39-24.3C109.49-23.1 106.39-22.6 102.79-22.6C97.69-22.6 93.29-23.6 89.49-25.8C85.59-28 82.59-31 80.39-34.9C78.19-38.8 77.19-43.1 77.19-48L77.19-48.1C77.19-53.4 78.49-58 80.99-62.1C83.49-66.3 86.99-69.4 91.39-71.7C95.79-74 100.79-75.2 106.29-75.2C110.79-75.5 114.89-74.7 118.59-73.2ZM22.39 2.4C18.09 0.4 14.69-2.2 12.29-5.5C9.79-9 8.39-12.7 7.99-17L7.99-17.7L21.29-17.7L21.39-17C21.79-13.9 23.29-11.3 26.19-9.2C29.09-7.1 32.69-6.1 37.39-6.1C40.39-6.1 43.09-6.6 45.29-7.7C47.49-8.7 49.29-10.2 50.49-12C51.79-13.8 52.29-15.9 52.29-18.2L52.29-18.3C52.29-22.5 50.89-25.6 47.99-27.8C45.09-30 41.19-31 36.19-31L26.99-31L26.99-41.4L35.99-41.4C38.89-41.4 41.49-41.9 43.49-43C45.69-44 47.29-45.3 48.59-47.2C49.79-48.9 50.39-51 50.39-53.2L50.39-53.3C50.39-55.6 49.89-57.7 48.79-59.3C47.79-61 46.19-62.2 44.29-63.1C42.39-64 39.99-64.4 37.19-64.4C34.49-64.4 31.99-64 29.89-63.1C27.79-62.2 26.09-60.9 24.79-59.3C23.49-57.6 22.69-55.7 22.59-53.5L22.59-53L9.69-53L9.69-53.6C10.09-58 11.49-61.8 13.89-65.2C16.19-68.4 19.49-71.1 23.39-72.9C27.39-74.7 31.99-75.6 37.29-75.6C42.59-75.6 47.29-74.7 51.29-73C55.29-71.3 58.29-69 60.49-65.9C62.69-62.9 63.69-59.3 63.69-55.2L63.69-55.1C63.69-51.9 62.89-49 61.49-46.5C60.09-44 58.09-42 55.69-40.4C53.19-38.8 50.49-37.7 47.39-37L47.39-36.7C53.09-36.2 57.79-34.2 61.29-31C64.79-27.8 66.49-23.5 66.49-18L66.49-17.9C66.49-13.4 65.19-9.5 62.69-5.9C60.19-2.3 56.79 0.3 52.39 2.3C47.99 4.3 42.89 5.3 37.19 5.3C31.69 5.2 26.69 4.3 22.39 2.4Z"/>
  </g>
  <g id="Regular-L" transform="matrix(1 0 0 1 1376.14 1556)">
   <path class="hierarchical-0:secondary SFSymbolsPreview4D4D4D" d="M133.49 26.8L13.89 26.8C10.69 26.8 7.99 24.2 7.99 20.9C7.99 17.6 10.59 15 13.89 15L133.49 15C136.69 15 139.29 17.6 139.29 20.9C139.29 24.2 136.69 26.8 133.49 26.8ZM133.49-85.6L13.89-85.6C10.69-85.6 7.99-88.2 7.99-91.5C7.99-94.8 10.59-97.4 13.89-97.4L133.49-97.4C136.69-97.4 139.29-94.8 139.29-91.5C139.29-88.2 136.69-85.6 133.49-85.6Z"/>
   <path class="hierarchical-1:primary SFSymbolsPreview212121" d="M118.89-75.4C122.49-74 125.89-71.6 128.89-68.5C131.89-65.4 134.39-61.1 135.99-55.9C137.79-50.7 138.69-44.3 138.69-36.7L138.69-36.6C138.69-27.4 137.39-19.6 134.89-13.1C132.39-6.6 128.79-1.7 123.99 1.7C119.29 5.1 113.59 6.9 106.79 6.9C102.29 6.9 97.99 6.1 94.29 4.4C90.59 2.7 87.39 0.4 84.89-2.5C82.39-5.5 80.69-8.9 79.79-12.9L79.69-13.7L90.09-13.7L90.39-13C91.19-10.8 92.39-8.8 93.89-7.2C95.49-5.5 97.29-4.3 99.49-3.4C101.69-2.5 104.19-2.1 106.99-2.1C112.09-2.1 116.19-3.5 119.29-6.5C122.39-9.5 124.79-13.4 126.19-18.2C127.59-23 128.49-28.3 128.69-34.1C128.69-34.5 128.69-34.9 128.69-35.3C128.69-35.7 128.69-36.1 128.69-36.5L126.19-49.9C126.19-53.4 125.39-56.5 123.69-59.4C121.99-62.3 119.79-64.5 117.09-66.2C114.19-67.9 111.09-68.7 107.59-68.7C104.09-68.7 100.99-67.9 98.09-66.2C95.19-64.5 92.99-62.3 91.29-59.6C89.59-56.7 88.79-53.6 88.79-50.2L88.79-50.1C88.79-46.6 89.59-43.3 91.09-40.6C92.69-37.9 94.89-35.7 97.69-34.1C100.59-32.5 103.69-31.8 107.29-31.8C110.89-31.8 114.09-32.6 116.89-34.1C119.79-35.7 121.99-37.7 123.69-40.5C125.39-43.2 126.19-46.4 126.19-49.9L126.19-49.9L129.59-49.9L129.59-36L128.39-36C127.39-33.5 125.69-31.3 123.59-29.4C121.49-27.4 118.79-25.9 115.79-24.6C112.79-23.4 109.39-22.8 105.69-22.8C100.49-22.8 95.79-24 91.79-26.3C87.59-28.6 84.49-31.9 81.99-35.9C79.69-39.9 78.49-44.6 78.49-49.8L78.49-49.9C78.49-55.2 79.79-60 82.29-64.2C84.79-68.4 88.29-71.6 92.59-74.1C96.89-76.4 101.99-77.7 107.59-77.7C111.49-77.5 115.29-76.9 118.89-75.4ZM22.99 4.1C18.79 2.1 15.49-0.5 12.99-3.8C10.49-7.1 9.09-10.9 8.79-15.4L8.79-16L18.59-16L18.59-15.5C18.99-11.5 20.89-8.2 24.29-5.7C27.69-3.2 32.19-1.9 37.59-1.9C41.19-1.9 44.39-2.5 47.09-3.7C49.79-5 51.89-6.7 53.49-8.9C55.09-11.1 55.69-13.7 55.69-16.6L55.69-16.6C55.69-21.7 53.99-25.4 50.59-28.2C47.49-30.9 42.89-32.2 37.19-32.2L26.89-32.2L26.89-40.8L36.69-40.8C39.89-40.8 42.79-41.4 45.29-42.6C47.79-43.8 49.69-45.5 51.09-47.7C52.49-49.8 53.19-52.2 53.19-55L53.19-55.1C53.19-58 52.59-60.4 51.39-62.4C50.19-64.4 48.39-65.9 46.09-67C43.79-68 40.89-68.6 37.69-68.6C34.49-68.6 31.59-68.1 29.09-67C26.59-66 24.49-64.4 23.09-62.3C21.49-60.3 20.59-57.9 20.39-55.1L20.39-54.6L10.69-54.6L10.69-55.1C11.09-59.5 12.49-63.4 14.89-66.8C17.29-70.2 20.39-72.8 24.29-74.6C28.19-76.4 32.69-77.3 37.79-77.3C42.99-77.3 47.49-76.4 51.39-74.6C55.29-72.8 58.29-70.3 60.39-67.2C62.49-64.1 63.59-60.4 63.59-56.3L63.59-56.2C63.59-52.8 62.79-49.8 61.39-47.2C59.99-44.6 57.89-42.4 55.29-40.7C52.69-39 49.69-37.7 46.29-37.1L46.29-36.8C52.29-36.3 57.09-34.3 60.69-30.8C64.29-27.3 66.29-22.6 66.29-16.8L66.29-16.7C66.29-12.1 65.09-8.1 62.69-4.5C60.19-0.9 56.89 1.9 52.59 4C48.29 6.1 43.49 7.1 37.89 7.1C32.19 7 27.29 6.1 22.99 4.1Z"/>
  </g>
  <g id="Semibold-M" transform="matrix(1 0 0 1 1985.22 1126)">
   <path class="hierarchical-0:secondary SFSymbolsPreview4D4D4D" d="M102.99 11.2L12.99 11.2C10.19 11.2 7.99 9 7.99 6.2C7.99 3.4 10.19 1.2 12.99 1.2L102.99 1.2C105.79 1.2 107.99 3.4 107.99 6.2C107.99 9 105.79 11.2 102.99 11.2ZM102.99-71.7L12.99-71.7C10.19-71.7 7.99-73.9 7.99-76.7C7.99-79.5 10.19-81.7 12.99-81.7L102.99-81.7C105.79-81.7 107.99-79.5 107.99-76.7C107.99-73.9 105.79-71.7 102.99-71.7Z"/>
   <path class="hierarchical-1:primary SFSymbolsPreview212121" d="M93.09-64.5C95.99-63.3 98.59-61.5 100.79-59C102.99-56.5 104.79-53.4 105.99-49.6C107.29-45.8 107.89-41.2 107.89-36L107.89-35.9C107.89-29.3 106.89-23.6 104.99-18.9C102.99-14.2 100.19-10.5 96.59-8C92.99-5.5 88.59-4.2 83.49-4.2C79.79-4.2 76.49-4.9 73.49-6.2C70.49-7.5 67.99-9.4 66.09-11.7C64.09-14 62.79-16.7 62.19-19.7L62.09-20.2L72.69-20.2L72.89-19.8C73.49-18.4 74.19-17.2 75.19-16.2C76.19-15.2 77.39-14.4 78.79-13.8C80.19-13.2 81.79-12.9 83.59-12.9C86.79-12.9 89.49-13.8 91.49-15.7C93.49-17.6 94.99-20.1 95.99-23.2C96.99-26.3 97.59-29.8 97.69-33.5C97.69-33.9 97.69-34.2 97.79-34.6C97.79-35 97.79-35.3 97.79-35.7L95.89-45.6C95.89-47.8 95.39-49.8 94.29-51.6C93.19-53.4 91.79-54.8 89.99-55.9C88.19-57 86.19-57.5 83.89-57.5C81.69-57.5 79.69-57 77.79-55.9C75.99-54.9 74.49-53.5 73.49-51.7C72.39-49.9 71.89-48 71.89-45.8L71.89-45.7C71.89-43.4 72.39-41.4 73.39-39.6C74.39-37.8 75.79-36.5 77.59-35.5C79.39-34.5 81.39-34 83.69-34C85.99-34 88.09-34.5 89.89-35.5C91.69-36.5 93.19-37.8 94.19-39.6C95.29-41.3 95.79-43.3 95.79-45.6L95.79-45.6L98.29-45.6L98.29-35.4L97.39-35.4C96.59-33.6 95.39-31.9 93.89-30.5C92.29-29.1 90.49-27.9 88.29-27C86.09-26.1 83.69-25.7 80.89-25.7C76.99-25.7 73.59-26.5 70.69-28.2C67.69-29.9 65.39-32.2 63.69-35.2C61.99-38.2 61.19-41.5 61.19-45.3L61.19-45.4C61.19-49.5 62.19-53 64.09-56.2C65.99-59.4 68.69-61.8 72.09-63.6C75.49-65.4 79.29-66.3 83.59-66.3C87.09-66.3 90.19-65.7 93.09-64.5ZM19.09-6.4C15.79-7.9 13.19-9.9 11.29-12.5C9.39-15.1 8.29-18 7.99-21.3L7.99-21.8L18.19-21.8L18.29-21.3C18.59-18.9 19.79-16.9 21.99-15.3C24.19-13.7 26.99-12.9 30.59-12.9C32.89-12.9 34.99-13.3 36.69-14.1C38.39-14.9 39.79-16 40.69-17.4C41.69-18.8 42.09-20.4 42.09-22.2L42.09-22.3C42.09-25.5 40.99-27.9 38.79-29.6C36.59-31.3 33.59-32.1 29.69-32.1L22.59-32.1L22.59-40.1L29.49-40.1C31.69-40.1 33.69-40.5 35.29-41.3C36.99-42.1 38.19-43.1 39.19-44.5C40.09-45.8 40.59-47.4 40.59-49.1L40.59-49.2C40.59-51 40.19-52.6 39.39-53.8C38.59-55.1 37.39-56 35.89-56.7C34.39-57.4 32.59-57.7 30.39-57.7C28.29-57.7 26.39-57.4 24.79-56.7C23.19-56 21.89-55 20.89-53.8C19.89-52.5 19.29-51 19.19-49.3L19.19-48.9L9.29-48.9L9.29-49.4C9.59-52.8 10.69-55.7 12.49-58.3C14.29-60.8 16.79-62.8 19.79-64.2C22.89-65.6 26.39-66.3 30.49-66.3C34.59-66.3 38.19-65.6 41.29-64.3C44.39-63 46.69-61.2 48.39-58.8C50.09-56.5 50.89-53.7 50.89-50.6L50.89-50.5C50.89-48 50.29-45.8 49.19-43.9C48.09-42 46.59-40.4 44.69-39.2C42.79-38 40.69-37.1 38.29-36.6L38.29-36.4C42.69-36 46.29-34.5 48.99-32C51.69-29.5 52.99-26.2 52.99-22L52.99-21.9C52.99-18.4 51.99-15.4 50.09-12.7C48.19-10 45.59-7.9 42.19-6.4C38.79-4.9 34.89-4.1 30.49-4.1C26.19-4.2 22.39-4.9 19.09-6.4Z"/>
  </g>
  <g id="Regular-M" transform="matrix(1 0 0 1 1391.29 1126)">
   <path class="hierarchical-0:secondary SFSymbolsPreview4D4D4D" d="M104.49 12.4L12.49 12.4C9.99 12.4 7.99 10.4 7.99 7.9C7.99 5.4 9.99 3.4 12.49 3.4L104.49 3.4C106.99 3.4 108.99 5.4 108.99 7.9C108.99 10.4 106.99 12.4 104.49 12.4ZM104.49-74L12.49-74C9.99-74 7.99-76 7.99-78.5C7.99-81 9.99-83 12.49-83L104.49-83C106.99-83 108.99-81 108.99-78.5C108.99-76 106.99-74 104.49-74Z"/>
   <path class="hierarchical-1:primary SFSymbolsPreview212121" d="M93.29-66.2C96.09-65.1 98.69-63.3 100.99-60.9C103.29-58.5 105.19-55.2 106.49-51.2C107.89-47.2 108.59-42.3 108.59-36.4L108.59-36.3C108.59-29.2 107.59-23.2 105.69-18.2C103.79-13.2 100.99-9.4 97.29-6.8C93.69-4.2 89.29-2.8 84.09-2.8C80.59-2.8 77.29-3.4 74.49-4.7C71.69-6 69.19-7.8 67.29-10C65.39-12.3 64.09-14.9 63.39-18L63.29-18.6L71.29-18.6L71.49-18.1C72.09-16.4 72.99-14.9 74.19-13.6C75.39-12.3 76.79-11.4 78.49-10.7C80.19-10 82.09-9.7 84.29-9.7C88.19-9.7 91.39-10.8 93.79-13.1C96.19-15.4 97.99-18.4 99.09-22.1C100.19-25.8 100.89-29.9 100.99-34.3C100.99-34.6 100.99-34.9 100.99-35.2C100.99-35.5 100.99-35.8 100.99-36.1L99.09-46.4C99.09-49.1 98.49-51.5 97.19-53.7C95.89-55.9 94.19-57.6 92.09-58.9C89.89-60.2 87.49-60.8 84.79-60.8C82.09-60.8 79.69-60.2 77.49-58.9C75.29-57.6 73.59-55.9 72.29-53.8C70.99-51.6 70.39-49.2 70.39-46.6L70.39-46.5C70.39-43.8 70.99-41.3 72.19-39.2C73.39-37.1 75.09-35.4 77.29-34.2C79.49-33 81.89-32.4 84.69-32.4C87.49-32.4 89.89-33 92.09-34.2C94.29-35.4 95.99-37 97.29-39.1C98.59-41.2 99.19-43.6 99.19-46.3L99.19-46.3L101.79-46.3L101.79-35.6L100.89-35.6C100.09-33.7 98.79-32 97.19-30.5C95.59-29 93.49-27.8 91.19-26.8C88.89-25.9 86.29-25.4 83.39-25.4C79.39-25.4 75.79-26.3 72.69-28.1C69.49-29.9 67.09-32.4 65.19-35.5C63.39-38.6 62.49-42.2 62.49-46.2L62.49-46.3C62.49-50.4 63.49-54.1 65.39-57.3C67.29-60.5 69.99-63 73.29-64.9C76.59-66.7 80.49-67.7 84.79-67.7C87.59-67.8 90.49-67.3 93.29-66.2ZM19.49-5C16.29-6.5 13.69-8.5 11.79-11.1C9.89-13.7 8.79-16.6 8.59-20L8.59-20.5L16.09-20.5L16.09-20.1C16.39-17 17.89-14.5 20.49-12.6C23.09-10.7 26.59-9.7 30.69-9.7C33.49-9.7 35.89-10.2 37.99-11.1C40.09-12.1 41.69-13.4 42.89-15.1C44.09-16.8 44.59-18.8 44.59-21L44.59-21C44.59-24.9 43.29-27.8 40.69-29.9C38.29-32 34.79-33 30.39-33L22.49-33L22.49-39.6L29.99-39.6C32.49-39.6 34.69-40.1 36.59-41C38.49-41.9 39.99-43.2 41.09-44.9C42.19-46.5 42.69-48.4 42.69-50.5L42.69-50.6C42.69-52.8 42.19-54.7 41.29-56.2C40.39-57.7 38.99-58.9 37.19-59.7C35.39-60.5 33.19-60.9 30.69-60.9C28.19-60.9 25.99-60.5 24.09-59.7C22.19-58.9 20.59-57.7 19.49-56.1C18.29-54.6 17.59-52.7 17.39-50.6L17.39-50.2L9.89-50.2L9.89-50.6C10.19-54 11.29-57 13.09-59.6C14.89-62.2 17.29-64.2 20.29-65.6C23.29-67 26.79-67.7 30.69-67.7C34.69-67.7 38.19-67 41.19-65.6C44.19-64.2 46.49-62.3 48.09-59.9C49.69-57.5 50.59-54.7 50.59-51.5L50.59-51.4C50.59-48.8 49.99-46.5 48.89-44.5C47.79-42.5 46.19-40.8 44.19-39.5C42.19-38.2 39.89-37.2 37.29-36.7L37.29-36.5C41.89-36.1 45.59-34.6 48.39-31.9C51.19-29.2 52.69-25.6 52.69-21.1L52.69-21C52.69-17.5 51.79-14.4 49.89-11.6C47.99-8.8 45.39-6.7 42.09-5.1C38.79-3.5 35.09-2.7 30.79-2.7C26.59-2.8 22.79-3.5 19.49-5Z"/>
  </g>
  <g id="Semibold-S" transform="matrix(1 0 0 1 1995.22 696)">
   <path class="hierarchical-0:secondary SFSymbolsPreview4D4D4D" d="M83.99 2L11.99 2C9.79 2 7.99 0.2 7.99-2C7.99-4.2 9.79-6 11.99-6L83.99-6C86.19-6 87.99-4.2 87.99-2C87.99 0.2 86.29 2 83.99 2ZM83.99-64.4L11.99-64.4C9.79-64.4 7.99-66.2 7.99-68.4C7.99-70.6 9.79-72.4 11.99-72.4L83.99-72.4C86.19-72.4 87.99-70.6 87.99-68.4C87.99-66.2 86.29-64.4 83.99-64.4Z"/>
   <path class="hierarchical-1:primary SFSymbolsPreview212121" d="M76.09-58.6C78.39-57.6 80.49-56.2 82.29-54.2C84.09-52.2 85.49-49.7 86.49-46.7C87.49-43.7 87.99-40 87.99-35.8L87.99-35.7C87.99-30.4 87.19-25.9 85.69-22.1C84.09-18.3 81.89-15.4 78.99-13.4C76.09-11.4 72.59-10.4 68.49-10.4C65.49-10.4 62.89-11 60.49-12C58.09-13 56.09-14.6 54.59-16.4C52.99-18.2 51.99-20.4 51.49-22.8L51.39-23.2L59.89-23.2L60.09-22.9C60.59-21.8 61.09-20.8 61.89-20C62.69-19.2 63.69-18.6 64.79-18.1C65.89-17.6 67.19-17.4 68.59-17.4C71.19-17.4 73.29-18.1 74.89-19.6C76.49-21.1 77.69-23.1 78.49-25.6C79.29-28.1 79.79-30.9 79.89-33.8C79.89-34.1 79.89-34.4 79.99-34.7C79.99-35 79.99-35.3 79.99-35.6L78.49-43.5C78.49-45.3 78.09-46.9 77.19-48.3C76.29-49.7 75.19-50.9 73.79-51.7C72.39-52.5 70.79-53 68.89-53C67.09-53 65.49-52.6 63.99-51.7C62.59-50.9 61.39-49.8 60.59-48.3C59.69-46.9 59.29-45.3 59.29-43.6L59.29-43.5C59.29-41.7 59.69-40.1 60.49-38.6C61.29-37.2 62.39-36.1 63.89-35.3C65.29-34.5 66.89-34.1 68.79-34.1C70.69-34.1 72.29-34.5 73.79-35.3C75.19-36.1 76.39-37.1 77.19-38.6C78.09-40 78.49-41.6 78.49-43.4L78.49-43.4L80.49-43.4L80.49-35.2L79.79-35.2C79.19-33.8 78.19-32.4 76.99-31.3C75.69-30.2 74.29-29.2 72.49-28.5C70.69-27.8 68.79-27.5 66.59-27.5C63.49-27.5 60.79-28.1 58.39-29.5C55.99-30.9 54.19-32.7 52.79-35.1C51.39-37.5 50.79-40.1 50.79-43.2L50.79-43.3C50.79-46.6 51.59-49.4 53.09-51.9C54.59-54.5 56.79-56.4 59.49-57.8C62.19-59.2 65.29-60 68.69-60C71.29-60 73.79-59.6 76.09-58.6ZM16.89-12.1C14.29-13.3 12.19-14.9 10.69-17C9.19-19.1 8.29-21.4 8.09-24L8.09-24.4L16.29-24.4L16.39-24C16.59-22.1 17.59-20.5 19.39-19.2C21.19-17.9 23.39-17.3 26.29-17.3C28.09-17.3 29.79-17.6 31.19-18.3C32.59-18.9 33.69-19.8 34.39-20.9C35.19-22 35.49-23.3 35.49-24.7L35.49-24.8C35.49-27.4 34.59-29.3 32.89-30.6C31.09-32 28.69-32.6 25.59-32.6L19.89-32.6L19.89-39L25.39-39C27.19-39 28.79-39.3 29.99-40C31.39-40.6 32.29-41.4 33.09-42.6C33.79-43.6 34.19-44.9 34.19-46.3L34.19-46.4C34.19-47.8 33.89-49.1 33.19-50.1C32.59-51.1 31.59-51.9 30.39-52.4C29.19-53 27.79-53.2 25.99-53.2C24.29-53.2 22.79-53 21.49-52.4C20.19-51.8 19.19-51 18.39-50.1C17.59-49.1 17.09-47.9 16.99-46.5L16.99-46.2L9.09-46.2L9.09-46.6C9.29-49.3 10.19-51.6 11.69-53.7C13.09-55.7 15.09-57.3 17.49-58.4C19.99-59.5 22.79-60.1 26.09-60.1C29.39-60.1 32.29-59.5 34.69-58.5C37.09-57.5 38.99-56 40.39-54.1C41.79-52.3 42.39-50 42.39-47.5L42.39-47.4C42.39-45.4 41.89-43.6 40.99-42.1C40.09-40.6 38.89-39.3 37.39-38.3C35.89-37.3 34.19-36.6 32.29-36.2L32.29-36C35.79-35.7 38.69-34.5 40.89-32.5C43.09-30.5 44.09-27.9 44.09-24.5L44.09-24.4C44.09-21.6 43.29-19.2 41.79-17C40.29-14.8 38.19-13.2 35.49-12C32.79-10.8 29.69-10.2 26.09-10.2C22.59-10.4 19.59-10.9 16.89-12.1Z"/>
  </g>
  <g id="Regular-S" transform="matrix(1 0 0 1 1401.39 696)">
   <path class="hierarchical-0:secondary SFSymbolsPreview4D4D4D" d="M85.19 3L11.59 3C9.59 3 7.99 1.4 7.99-0.6C7.99-2.6 9.59-4.2 11.59-4.2L85.19-4.2C87.19-4.2 88.79-2.6 88.79-0.6C88.79 1.4 87.19 3 85.19 3ZM85.19-66.2L11.59-66.2C9.59-66.2 7.99-67.8 7.99-69.8C7.99-71.8 9.59-73.4 11.59-73.4L85.19-73.4C87.19-73.4 88.79-71.8 88.79-69.8C88.79-67.8 87.19-66.2 85.19-66.2Z"/>
   <path class="hierarchical-1:primary SFSymbolsPreview212121" d="M76.19-59.9C78.39-59 80.49-57.6 82.39-55.7C84.19-53.8 85.79-51.1 86.79-47.9C87.89-44.7 88.49-40.8 88.49-36.1L88.49-36C88.49-30.3 87.69-25.5 86.19-21.5C84.69-17.5 82.39-14.5 79.49-12.4C76.59-10.3 73.09-9.2 68.89-9.2C66.09-9.2 63.49-9.7 61.19-10.7C58.99-11.7 56.99-13.2 55.39-14.9C53.89-16.7 52.79-18.8 52.29-21.3L52.19-21.8L58.59-21.8L58.79-21.4C59.29-20 59.99-18.8 60.99-17.8C61.99-16.8 63.09-16 64.39-15.5C65.79-14.9 67.29-14.7 68.99-14.7C72.09-14.7 74.69-15.6 76.59-17.4C78.49-19.2 79.99-21.6 80.79-24.6C81.59-27.6 82.19-30.8 82.29-34.4C82.29-34.6 82.29-34.9 82.29-35.1C82.29-35.3 82.29-35.6 82.29-35.8L80.79-44C80.79-46.2 80.29-48.1 79.29-49.8C78.29-51.6 76.89-52.9 75.19-54C73.39-55 71.49-55.5 69.39-55.5C67.19-55.5 65.29-55 63.59-54C61.79-53 60.49-51.6 59.39-49.9C58.39-48.1 57.89-46.2 57.89-44.1L57.89-44C57.89-41.8 58.39-39.8 59.29-38.2C60.29-36.5 61.59-35.2 63.39-34.2C65.19-33.2 67.09-32.8 69.29-32.8C71.49-32.8 73.49-33.3 75.19-34.2C76.99-35.2 78.29-36.4 79.39-38.1C80.49-39.8 80.89-41.7 80.89-43.9L80.89-43.9L82.99-43.9L82.99-35.3L82.29-35.3C81.69-33.8 80.59-32.4 79.29-31.2C77.99-30 76.29-29 74.49-28.2C72.69-27.5 70.59-27.1 68.29-27.1C65.09-27.1 62.19-27.8 59.69-29.3C57.09-30.7 55.19-32.7 53.69-35.2C52.29-37.7 51.49-40.6 51.49-43.8L51.49-43.9C51.49-47.2 52.29-50.1 53.79-52.7C55.29-55.3 57.49-57.3 60.09-58.8C62.69-60.2 65.89-61 69.29-61C71.59-61.2 73.99-60.8 76.19-59.9ZM17.19-11C14.59-12.2 12.59-13.8 10.99-15.9C9.49-18 8.59-20.3 8.39-23L8.39-23.4L14.39-23.4L14.39-23.1C14.59-20.6 15.79-18.6 17.89-17.1C19.99-15.6 22.79-14.8 26.09-14.8C28.29-14.8 30.29-15.2 31.89-15.9C33.59-16.7 34.89-17.7 35.79-19.1C36.79-20.5 37.19-22.1 37.19-23.8L37.19-23.8C37.19-26.9 36.19-29.2 34.09-30.9C32.19-32.6 29.39-33.4 25.89-33.4L19.59-33.4L19.59-38.7L25.59-38.7C27.59-38.7 29.39-39.1 30.89-39.8C32.39-40.5 33.59-41.6 34.49-42.9C35.39-44.2 35.79-45.7 35.79-47.4L35.79-47.5C35.79-49.3 35.39-50.8 34.69-52C33.99-53.2 32.89-54.2 31.39-54.8C29.99-55.4 28.19-55.8 26.19-55.8C24.19-55.8 22.39-55.5 20.89-54.8C19.39-54.2 18.09-53.2 17.19-51.9C16.19-50.7 15.69-49.2 15.49-47.5L15.49-47.2L9.49-47.2L9.49-47.5C9.69-50.2 10.59-52.6 12.09-54.7C13.49-56.8 15.49-58.4 17.89-59.5C20.29-60.6 23.09-61.2 26.19-61.2C29.39-61.2 32.19-60.6 34.59-59.5C36.99-58.4 38.79-56.9 40.09-54.9C41.39-53 42.09-50.7 42.09-48.2L42.09-48.1C42.09-46 41.59-44.2 40.69-42.6C39.79-41 38.49-39.6 36.89-38.6C35.29-37.6 33.49-36.8 31.39-36.4L31.39-36.2C35.09-35.9 37.99-34.7 40.29-32.5C42.49-30.3 43.69-27.5 43.69-23.9L43.69-23.8C43.69-21 42.99-18.5 41.49-16.3C39.99-14.1 37.89-12.4 35.29-11.1C32.69-9.8 29.69-9.2 26.29-9.2C22.79-9.2 19.79-9.8 17.19-11Z"/>
  </g>
 </g>
</svg>
