<?xml version="1.0" encoding="UTF-8"?>
<!--Generator: Apple Native CoreSVG 175-->
<!DOCTYPE svg
PUBLIC "-//W3C//DTD SVG 1.1//EN"
       "http://www.w3.org/Graphics/SVG/1.1/DTD/svg11.dtd">
<svg version="1.1" xmlns="http://www.w3.org/2000/svg" xmlns:xlink="http://www.w3.org/1999/xlink" width="3300" height="2200">
 <!--glyph: "", point size: 100.0, font version: "17.1d1e1", template writer version: "65.1"-->
 <style>.hierarchical-0:secondary {fill:#4D4D4D}
.hierarchical-1:primary {fill:#212121}

.SFSymbolsPreview212121 {fill:#212121;opacity:1.0}
.SFSymbolsPreview4D4D4D {fill:#4D4D4D;opacity:1.0}
</style>
 <g id="Notes">
  <rect height="2200" id="artboard" style="fill:white;opacity:1" width="3300" x="0" y="0"/>
  <line style="fill:none;stroke:black;opacity:1;stroke-width:0.5;" x1="263" x2="3036" y1="292" y2="292"/>
  <text style="stroke:none;fill:black;font-family:sans-serif;font-size:13;font-weight:bold;" transform="matrix(1 0 0 1 263 322)">Weight/Scale Variations</text>
  <text style="stroke:none;fill:black;font-family:sans-serif;font-size:13;text-anchor:middle;" transform="matrix(1 0 0 1 559.711 322)">Ultralight</text>
  <text style="stroke:none;fill:black;font-family:sans-serif;font-size:13;text-anchor:middle;" transform="matrix(1 0 0 1 856.422 322)">Thin</text>
  <text style="stroke:none;fill:black;font-family:sans-serif;font-size:13;text-anchor:middle;" transform="matrix(1 0 0 1 1153.13 322)">Light</text>
  <text style="stroke:none;fill:black;font-family:sans-serif;font-size:13;text-anchor:middle;" transform="matrix(1 0 0 1 1449.84 322)">Regular</text>
  <text style="stroke:none;fill:black;font-family:sans-serif;font-size:13;text-anchor:middle;" transform="matrix(1 0 0 1 1746.56 322)">Medium</text>
  <text style="stroke:none;fill:black;font-family:sans-serif;font-size:13;text-anchor:middle;" transform="matrix(1 0 0 1 2043.27 322)">Semibold</text>
  <text style="stroke:none;fill:black;font-family:sans-serif;font-size:13;text-anchor:middle;" transform="matrix(1 0 0 1 2339.98 322)">Bold</text>
  <text style="stroke:none;fill:black;font-family:sans-serif;font-size:13;text-anchor:middle;" transform="matrix(1 0 0 1 2636.69 322)">Heavy</text>
  <text style="stroke:none;fill:black;font-family:sans-serif;font-size:13;text-anchor:middle;" transform="matrix(1 0 0 1 2933.4 322)">Black</text>
  <line style="fill:none;stroke:black;opacity:1;stroke-width:0.5;" x1="263" x2="3036" y1="1903" y2="1903"/>
  <g transform="matrix(1 0 0 1 263 1933)">
   <path d="M9.24805 0.830078Q10.8691 0.830078 12.2949 0.214844Q13.7207-0.400391 14.8096-1.49414Q15.8984-2.58789 16.5186-4.01367Q17.1387-5.43945 17.1387-7.05078Q17.1387-8.66211 16.5186-10.0879Q15.8984-11.5137 14.8047-12.6074Q13.7109-13.7012 12.2852-14.3164Q10.8594-14.9316 9.23828-14.9316Q7.62695-14.9316 6.20117-14.3164Q4.77539-13.7012 3.69141-12.6074Q2.60742-11.5137 1.9873-10.0879Q1.36719-8.66211 1.36719-7.05078Q1.36719-5.43945 1.9873-4.01367Q2.60742-2.58789 3.69629-1.49414Q4.78516-0.400391 6.21094 0.214844Q7.63672 0.830078 9.24805 0.830078ZM9.24805-0.654297Q7.91992-0.654297 6.7627-1.14746Q5.60547-1.64062 4.73145-2.51953Q3.85742-3.39844 3.36426-4.56055Q2.87109-5.72266 2.87109-7.05078Q2.87109-8.37891 3.35938-9.54102Q3.84766-10.7031 4.72168-11.582Q5.5957-12.4609 6.75293-12.9541Q7.91016-13.4473 9.23828-13.4473Q10.5762-13.4473 11.7334-12.9541Q12.8906-12.4609 13.7695-11.582Q14.6484-10.7031 15.1465-9.54102Q15.6445-8.37891 15.6445-7.05078Q15.6445-5.72266 15.1514-4.56055Q14.6582-3.39844 13.7842-2.51953Q12.9102-1.64062 11.748-1.14746Q10.5859-0.654297 9.24805-0.654297ZM5.6543-7.05078Q5.6543-6.72852 5.85938-6.52832Q6.06445-6.32812 6.40625-6.32812L8.51562-6.32812L8.51562-4.20898Q8.51562-3.88672 8.71094-3.67676Q8.90625-3.4668 9.23828-3.4668Q9.56055-3.4668 9.77051-3.67676Q9.98047-3.88672 9.98047-4.20898L9.98047-6.32812L12.0898-6.32812Q12.4219-6.32812 12.627-6.52832Q12.832-6.72852 12.832-7.05078Q12.832-7.38281 12.627-7.58789Q12.4219-7.79297 12.0898-7.79297L9.98047-7.79297L9.98047-9.90234Q9.98047-10.2344 9.77051-10.4443Q9.56055-10.6543 9.23828-10.6543Q8.90625-10.6543 8.71094-10.4443Q8.51562-10.2344 8.51562-9.90234L8.51562-7.79297L6.40625-7.79297Q6.06445-7.79297 5.85938-7.58789Q5.6543-7.38281 5.6543-7.05078Z"/>
  </g>
  <g transform="matrix(1 0 0 1 281.867 1933)">
   <path d="M11.709 2.91016Q13.75 2.91016 15.5518 2.12891Q17.3535 1.34766 18.7305-0.0292969Q20.1074-1.40625 20.8887-3.20801Q21.6699-5.00977 21.6699-7.05078Q21.6699-9.0918 20.8887-10.8936Q20.1074-12.6953 18.7305-14.0723Q17.3535-15.4492 15.5469-16.2305Q13.7402-17.0117 11.6992-17.0117Q9.6582-17.0117 7.85645-16.2305Q6.05469-15.4492 4.68262-14.0723Q3.31055-12.6953 2.5293-10.8936Q1.74805-9.0918 1.74805-7.05078Q1.74805-5.00977 2.5293-3.20801Q3.31055-1.40625 4.6875-0.0292969Q6.06445 1.34766 7.86621 2.12891Q9.66797 2.91016 11.709 2.91016ZM11.709 1.25Q9.98047 1.25 8.47656 0.605469Q6.97266-0.0390625 5.83496-1.17676Q4.69727-2.31445 4.05762-3.81836Q3.41797-5.32227 3.41797-7.05078Q3.41797-8.7793 4.05762-10.2832Q4.69727-11.7871 5.83008-12.9297Q6.96289-14.0723 8.4668-14.7119Q9.9707-15.3516 11.6992-15.3516Q13.4277-15.3516 14.9316-14.7119Q16.4355-14.0723 17.5781-12.9297Q18.7207-11.7871 19.3652-10.2832Q20.0098-8.7793 20.0098-7.05078Q20.0098-5.32227 19.3701-3.81836Q18.7305-2.31445 17.5928-1.17676Q16.4551-0.0390625 14.9463 0.605469Q13.4375 1.25 11.709 1.25ZM7.17773-7.05078Q7.17773-6.69922 7.41211-6.47461Q7.64648-6.25 8.01758-6.25L10.8887-6.25L10.8887-3.36914Q10.8887-2.99805 11.1133-2.76855Q11.3379-2.53906 11.6895-2.53906Q12.0605-2.53906 12.29-2.76855Q12.5195-2.99805 12.5195-3.36914L12.5195-6.25L15.4004-6.25Q15.7715-6.25 16.001-6.47461Q16.2305-6.69922 16.2305-7.05078Q16.2305-7.42188 16.001-7.65137Q15.7715-7.88086 15.4004-7.88086L12.5195-7.88086L12.5195-10.752Q12.5195-11.1328 12.29-11.3623Q12.0605-11.5918 11.6895-11.5918Q11.3379-11.5918 11.1133-11.3574Q10.8887-11.123 10.8887-10.752L10.8887-7.88086L8.01758-7.88086Q7.63672-7.88086 7.40723-7.65137Q7.17773-7.42188 7.17773-7.05078Z"/>
  </g>
  <g transform="matrix(1 0 0 1 305.646 1933)">
   <path d="M14.9707 5.66406Q17.0605 5.66406 18.96 5.01465Q20.8594 4.36523 22.4512 3.19336Q24.043 2.02148 25.2197 0.429688Q26.3965-1.16211 27.0459-3.06641Q27.6953-4.9707 27.6953-7.05078Q27.6953-9.14062 27.0459-11.04Q26.3965-12.9395 25.2197-14.5312Q24.043-16.123 22.4512-17.2998Q20.8594-18.4766 18.9551-19.126Q17.0508-19.7754 14.9609-19.7754Q12.8711-19.7754 10.9717-19.126Q9.07227-18.4766 7.48535-17.2998Q5.89844-16.123 4.72168-14.5312Q3.54492-12.9395 2.90039-11.04Q2.25586-9.14062 2.25586-7.05078Q2.25586-4.9707 2.90527-3.06641Q3.55469-1.16211 4.72656 0.429688Q5.89844 2.02148 7.49023 3.19336Q9.08203 4.36523 10.9814 5.01465Q12.8809 5.66406 14.9707 5.66406ZM14.9707 3.84766Q13.1641 3.84766 11.5283 3.2959Q9.89258 2.74414 8.53516 1.74805Q7.17773 0.751953 6.17676-0.610352Q5.17578-1.97266 4.62891-3.6084Q4.08203-5.24414 4.08203-7.05078Q4.08203-8.86719 4.62891-10.5029Q5.17578-12.1387 6.17188-13.501Q7.16797-14.8633 8.52539-15.8594Q9.88281-16.8555 11.5186-17.4023Q13.1543-17.9492 14.9609-17.9492Q16.7773-17.9492 18.4131-17.4023Q20.0488-16.8555 21.4111-15.8594Q22.7734-14.8633 23.7695-13.501Q24.7656-12.1387 25.3174-10.5029Q25.8691-8.86719 25.8691-7.05078Q25.8789-5.24414 25.332-3.6084Q24.7852-1.97266 23.7842-0.610352Q22.7832 0.751953 21.4209 1.74805Q20.0586 2.74414 18.4229 3.2959Q16.7871 3.84766 14.9707 3.84766ZM9.19922-7.05078Q9.19922-6.66992 9.45801-6.4209Q9.7168-6.17188 10.1172-6.17188L14.0625-6.17188L14.0625-2.2168Q14.0625-1.81641 14.3115-1.55762Q14.5605-1.29883 14.9512-1.29883Q15.3516-1.29883 15.6104-1.55273Q15.8691-1.80664 15.8691-2.2168L15.8691-6.17188L19.8242-6.17188Q20.2246-6.17188 20.4785-6.4209Q20.7324-6.66992 20.7324-7.05078Q20.7324-7.46094 20.4785-7.71484Q20.2246-7.96875 19.8242-7.96875L15.8691-7.96875L15.8691-11.9141Q15.8691-12.3242 15.6104-12.583Q15.3516-12.8418 14.9512-12.8418Q14.5605-12.8418 14.3115-12.583Q14.0625-12.3242 14.0625-11.9141L14.0625-7.96875L10.1172-7.96875Q9.70703-7.96875 9.45312-7.71484Q9.19922-7.46094 9.19922-7.05078Z"/>
  </g>
  <text style="stroke:none;fill:black;font-family:sans-serif;font-size:13;font-weight:bold;" transform="matrix(1 0 0 1 263 1953)">Design Variations</text>
  <text style="stroke:none;fill:black;font-family:sans-serif;font-size:13;" transform="matrix(1 0 0 1 263 1971)">Symbols are supported in up to nine weights and three scales.</text>
  <text style="stroke:none;fill:black;font-family:sans-serif;font-size:13;" transform="matrix(1 0 0 1 263 1989)">For optimal layout with text and other symbols, vertically align</text>
  <text style="stroke:none;fill:black;font-family:sans-serif;font-size:13;" transform="matrix(1 0 0 1 263 2007)">symbols with the adjacent text.</text>
  <line style="fill:none;stroke:#00AEEF;stroke-width:0.5;opacity:1.0;" x1="776" x2="776" y1="1919" y2="1933"/>
  <g transform="matrix(1 0 0 1 776 1933)">
   <path d="M3.31055 0.15625Q3.70117 0.15625 3.91602-0.00976562Q4.13086-0.175781 4.26758-0.585938L5.52734-4.0332L11.2891-4.0332L12.5488-0.585938Q12.6855-0.175781 12.9004-0.00976562Q13.1152 0.15625 13.4961 0.15625Q13.8867 0.15625 14.1162-0.0585938Q14.3457-0.273438 14.3457-0.644531Q14.3457-0.869141 14.2383-1.17188L9.6582-13.3691Q9.48242-13.8184 9.17969-14.043Q8.87695-14.2676 8.4082-14.2676Q7.5-14.2676 7.17773-13.3789L2.59766-1.16211Q2.49023-0.859375 2.49023-0.634766Q2.49023-0.263672 2.70996-0.0537109Q2.92969 0.15625 3.31055 0.15625ZM6.00586-5.51758L8.37891-12.0898L8.42773-12.0898L10.8008-5.51758Z"/>
  </g>
  <line style="fill:none;stroke:#00AEEF;stroke-width:0.5;opacity:1.0;" x1="793.197" x2="793.197" y1="1919" y2="1933"/>
  <text style="stroke:none;fill:black;font-family:sans-serif;font-size:13;font-weight:bold;" transform="matrix(1 0 0 1 776 1953)">Margins</text>
  <text style="stroke:none;fill:black;font-family:sans-serif;font-size:13;" transform="matrix(1 0 0 1 776 1971)">Leading and trailing margins on the left and right side of each symbol</text>
  <text style="stroke:none;fill:black;font-family:sans-serif;font-size:13;" transform="matrix(1 0 0 1 776 1989)">can be adjusted by modifying the x-location of the margin guidelines.</text>
  <text style="stroke:none;fill:black;font-family:sans-serif;font-size:13;" transform="matrix(1 0 0 1 776 2007)">Modifications are automatically applied proportionally to all</text>
  <text style="stroke:none;fill:black;font-family:sans-serif;font-size:13;" transform="matrix(1 0 0 1 776 2025)">scales and weights.</text>
  <g transform="matrix(1 0 0 1 1289 1933)">
   <path d="M2.8418 1.86523L4.54102 3.57422Q5.18555 4.22852 5.90332 4.17969Q6.62109 4.13086 7.31445 3.35938L18.0078-8.42773L17.041-9.4043L6.42578 2.27539Q6.16211 2.57812 5.89355 2.61719Q5.625 2.65625 5.27344 2.30469L4.10156 1.14258Q3.75 0.791016 3.79395 0.522461Q3.83789 0.253906 4.14062-0.0195312L15.6152-10.8203L14.6387-11.7871L3.04688-0.898438Q2.30469-0.214844 2.25098 0.498047Q2.19727 1.21094 2.8418 1.86523ZM9.25781-16.3281Q8.94531-16.0254 8.90625-15.6348Q8.86719-15.2441 9.04297-14.9512Q9.21875-14.6777 9.55566-14.541Q9.89258-14.4043 10.3809-14.5215Q11.4746-14.7754 12.5977-14.7314Q13.7207-14.6875 14.7949-13.9844L14.209-12.5293Q13.9551-11.9043 14.0674-11.4404Q14.1797-10.9766 14.5801-10.5664L16.875-8.25195Q17.2363-7.88086 17.5781-7.82227Q17.9199-7.76367 18.3398-7.8418L19.4043-8.03711L20.0684-7.36328L20.0293-6.80664Q20-6.43555 20.1221-6.12305Q20.2441-5.81055 20.6055-5.44922L21.3672-4.70703Q21.7285-4.3457 22.1533-4.33105Q22.5781-4.31641 22.9297-4.66797L25.8398-7.58789Q26.1914-7.93945 26.1816-8.35449Q26.1719-8.76953 25.8105-9.13086L25.0391-9.89258Q24.6875-10.2539 24.3799-10.3857Q24.0723-10.5176 23.7109-10.4883L23.1348-10.4395L22.4902-11.0742L22.7344-12.1973Q22.832-12.6172 22.6953-12.9834Q22.5586-13.3496 22.1191-13.7891L19.9219-15.9766Q18.6719-17.2168 17.2607-17.8369Q15.8496-18.457 14.4189-18.4814Q12.9883-18.5059 11.665-17.959Q10.3418-17.4121 9.25781-16.3281ZM10.752-15.957Q11.6602-16.6211 12.7002-16.9043Q13.7402-17.1875 14.8047-17.085Q15.8691-16.9824 16.8701-16.5137Q17.8711-16.0449 18.7012-15.2051L21.1328-12.793Q21.3086-12.6172 21.3525-12.4512Q21.3965-12.2852 21.3379-12.0312L21.0156-10.5469L22.5195-9.0625L23.5059-9.12109Q23.6914-9.13086 23.7891-9.09668Q23.8867-9.0625 24.0332-8.91602L24.6094-8.33984L22.168-5.89844L21.5918-6.47461Q21.4453-6.62109 21.4062-6.71875Q21.3672-6.81641 21.377-7.01172L21.4453-7.98828L19.9512-9.47266L18.4277-9.21875Q18.1836-9.16992 18.042-9.2041Q17.9004-9.23828 17.7148-9.41406L15.7129-11.416Q15.5176-11.5918 15.4932-11.7529Q15.4688-11.9141 15.5859-12.1875L16.4648-14.2773Q15.293-15.3711 13.8281-15.791Q12.3633-16.2109 10.8398-15.7617Q10.7227-15.7324 10.6885-15.8057Q10.6543-15.8789 10.752-15.957Z"/>
  </g>
  <text style="stroke:none;fill:black;font-family:sans-serif;font-size:13;font-weight:bold;" transform="matrix(1 0 0 1 1289 1953)">Exporting</text>
  <text style="stroke:none;fill:black;font-family:sans-serif;font-size:13;" transform="matrix(1 0 0 1 1289 1971)">Symbols should be outlined when exporting to ensure the</text>
  <text style="stroke:none;fill:black;font-family:sans-serif;font-size:13;" transform="matrix(1 0 0 1 1289 1989)">design is preserved when submitting to Xcode.</text>
  <text id="template-version" style="stroke:none;fill:black;font-family:sans-serif;font-size:13;text-anchor:end;" transform="matrix(1 0 0 1 3036 1933)">Template v.3.0</text>
  <text style="stroke:none;fill:black;font-family:sans-serif;font-size:13;text-anchor:end;" transform="matrix(1 0 0 1 3036 1951)">Requires Xcode 13 or greater</text>
  <text id="descriptive-name" style="stroke:none;fill:black;font-family:sans-serif;font-size:13;text-anchor:end;" transform="matrix(1 0 0 1 3036 1969)">Generated from 58.bar</text>
  <text style="stroke:none;fill:black;font-family:sans-serif;font-size:13;text-anchor:end;" transform="matrix(1 0 0 1 3036 1987)">Typeset at 100 points</text>
  <text style="stroke:none;fill:black;font-family:sans-serif;font-size:13;" transform="matrix(1 0 0 1 263 726)">Small</text>
  <text style="stroke:none;fill:black;font-family:sans-serif;font-size:13;" transform="matrix(1 0 0 1 263 1156)">Medium</text>
  <text style="stroke:none;fill:black;font-family:sans-serif;font-size:13;" transform="matrix(1 0 0 1 263 1586)">Large</text>
 </g>
 <g id="Guides">
  <g id="H-reference" style="fill:#27AAE1;stroke:none;" transform="matrix(1 0 0 1 339 696)">
   <path d="M0.993347 0L3.6377 0L29.3282-67.1326L30.0301-67.1326L30.0301-70.459L28.1227-70.459ZM11.6882-24.4797L46.9818-24.4797L46.2311-26.7288L12.4382-26.7288ZM55.1193 0L57.7637 0L30.6381-70.459L29.4327-70.459L29.4327-67.1326Z"/>
  </g>
  <line id="Baseline-S" style="fill:none;stroke:#27AAE1;opacity:1;stroke-width:0.5;" x1="263" x2="3036" y1="696" y2="696"/>
  <line id="Capline-S" style="fill:none;stroke:#27AAE1;opacity:1;stroke-width:0.5;" x1="263" x2="3036" y1="625.541" y2="625.541"/>
  <g id="H-reference" style="fill:#27AAE1;stroke:none;" transform="matrix(1 0 0 1 339 1126)">
   <path d="M0.993347 0L3.6377 0L29.3282-67.1326L30.0301-67.1326L30.0301-70.459L28.1227-70.459ZM11.6882-24.4797L46.9818-24.4797L46.2311-26.7288L12.4382-26.7288ZM55.1193 0L57.7637 0L30.6381-70.459L29.4327-70.459L29.4327-67.1326Z"/>
  </g>
  <line id="Baseline-M" style="fill:none;stroke:#27AAE1;opacity:1;stroke-width:0.5;" x1="263" x2="3036" y1="1126" y2="1126"/>
  <line id="Capline-M" style="fill:none;stroke:#27AAE1;opacity:1;stroke-width:0.5;" x1="263" x2="3036" y1="1055.54" y2="1055.54"/>
  <g id="H-reference" style="fill:#27AAE1;stroke:none;" transform="matrix(1 0 0 1 339 1556)">
   <path d="M0.993347 0L3.6377 0L29.3282-67.1326L30.0301-67.1326L30.0301-70.459L28.1227-70.459ZM11.6882-24.4797L46.9818-24.4797L46.2311-26.7288L12.4382-26.7288ZM55.1193 0L57.7637 0L30.6381-70.459L29.4327-70.459L29.4327-67.1326Z"/>
  </g>
  <line id="Baseline-L" style="fill:none;stroke:#27AAE1;opacity:1;stroke-width:0.5;" x1="263" x2="3036" y1="1556" y2="1556"/>
  <line id="Capline-L" style="fill:none;stroke:#27AAE1;opacity:1;stroke-width:0.5;" x1="263" x2="3036" y1="1485.54" y2="1485.54"/>
  <line id="left-margin-Regular-M" style="fill:none;stroke:#00AEEF;stroke-width:0.5;opacity:1.0;" x1="1391.29" x2="1391.29" y1="1030.73" y2="1150.14"/>
  <line id="right-margin-Regular-M" style="fill:none;stroke:#00AEEF;stroke-width:0.5;opacity:1.0;" x1="1508.39" x2="1508.39" y1="1030.73" y2="1150.14"/>
 </g>
 <g id="Symbols">
  <g id="Semibold-L" transform="matrix(1 0 0 1 1970.06 1556)">
   <path class="hierarchical-0:secondary SFSymbolsPreview4D4D4D" d="M131.5 25.2L14.5 25.2C10.9 25.2 8 22.3 8 18.7C8 15.1 10.9 12.2 14.5 12.2L131.5 12.2C135.1 12.2 138 15.1 138 18.7C138 22.3 135.1 25.2 131.5 25.2ZM138-89.1C138-92.7 135.1-95.6 131.5-95.6L14.5-95.6C10.9-95.6 8-92.7 8-89.1C8-85.5 10.9-82.6 14.5-82.6L131.5-82.6C135.1-82.6 138-85.4 138-89.1Z"/>
   <path class="hierarchical-1:primary SFSymbolsPreview212121" d="M136.1-26.3C134.5-29 132.5-31.4 129.7-33.3C127-35.3 123.9-36.5 120.3-37.2L120.3-37.6C124.9-38.8 128.5-41 131.2-44.1C133.9-47.2 135.4-50.9 135.4-55.1L135.4-55.2C135.4-59.2 134.2-62.9 131.8-66.1C129.3-69.2 126.1-71.8 121.8-73.6C117.5-75.4 112.6-76.3 107.1-76.3C101.6-76.3 96.8-75.4 92.5-73.6C88.2-71.8 85-69.3 82.5-66.1C80-62.9 78.9-59.2 78.9-55.2L78.9-55.1C78.9-50.9 80.3-47.2 83.1-44.1C85.8-41 89.5-38.8 94-37.6L94-37.2C90.5-36.6 87.4-35.3 84.6-33.3C81.9-31.5 79.8-29 78.2-26.3C76.6-23.6 75.9-20.4 75.9-17.1L75.9-17C75.9-12.5 77.2-8.4 79.8-4.9C82.4-1.4 86 1.3 90.7 3.3C95.4 5.3 101.2 6.3 107.3 6.3C113.4 6.3 118.9 5.3 123.5 3.3C128.2 1.3 131.8-1.4 134.4-4.9C137-8.4 138.3-12.4 138.3-17L138.3-17.1C138.4-20.4 137.6-23.6 136.1-26.3ZM22.4 3.3C18.1 1.2 14.7-1.5 12.3-5C9.8-8.5 8.4-12.4 8-16.8L8-17.6L21.4-17.6L21.4-17.2C21.8-15 22.7-12.9 24.1-11.1C25.5-9.3 27.3-7.9 29.6-6.8C31.8-5.8 34.3-5.2 37.1-5.2C40.3-5.2 43.1-5.9 45.6-7.3C48.1-8.6 49.9-10.5 51.3-12.9C52.7-15.3 53.4-18.1 53.4-21.2L53.4-21.3C53.4-24.4 52.7-27.1 51.3-29.5C49.9-31.8 48.1-33.7 45.6-35.1C43.1-36.4 40.4-37.2 37.3-37.2C35.1-37.2 32.9-36.8 30.9-36.2C29-35.6 27.3-34.5 25.7-33.2C24.9-32.6 24.3-31.9 23.6-31.1C22.9-30.3 22.3-29.5 21.9-28.6L9.4-28.6L13.2-75.1L62.5-75.1L62.5-63.4L24.6-63.4L22.4-39.3L22.7-39.3C24.4-42 26.9-44.1 30.1-45.7C33.3-47.3 36.9-47.9 40.8-47.9C45.9-47.9 50.4-46.7 54.4-44.5C58.3-42.2 61.4-39.2 63.8-35.1C66.1-31.1 67.2-26.6 67.2-21.6L67.2-21.5C67.2-16 65.9-11.2 63.4-6.9C60.8-2.7 57.3 0.5 52.7 2.9C48.2 5.2 42.9 6.4 37 6.4C31.5 6.3 26.6 5.3 22.4 3.3ZM123.2-17.7C123.2-15.2 122.5-12.9 121.1-10.9C119.8-9 117.9-7.4 115.4-6.2C112.9-5.2 110.1-4.5 106.8-4.5C103.7-4.5 100.8-5 98.3-6.2C95.8-7.4 93.9-8.9 92.5-10.9C91.1-12.9 90.4-15.1 90.4-17.7L90.4-17.8C90.4-20.4 91-22.7 92.5-24.7C93.8-26.7 95.7-28.2 98.2-29.4C100.7-30.6 103.5-31.1 106.8-31.1C110.1-31.1 112.9-30.6 115.4-29.4C117.9-28.2 119.7-26.7 121.1-24.7C122.5-22.8 123.2-20.4 123.2-17.8L123.2-17.7ZM92.9-53.9L92.9-54C92.9-56.3 93.6-58.3 94.7-60.1C95.9-61.9 97.6-63.2 99.6-64.3C101.7-65.3 104.1-65.9 106.9-65.9C109.6-65.9 112.1-65.4 114.2-64.3C116.3-63.3 118-62 119.1-60.1C120.3-58.4 120.9-56.3 120.9-54L120.9-53.9C120.9-51.6 120.2-49.6 119.1-47.8C117.9-46 116.2-44.7 114.2-43.6C112-42.6 109.6-42 106.9-42C104.2-42 101.7-42.5 99.6-43.6C97.5-44.6 95.8-45.9 94.7-47.8C93.5-49.6 92.9-51.5 92.9-53.9Z"/>
  </g>
  <g id="Regular-L" transform="matrix(1 0 0 1 1376.14 1556)">
   <path class="hierarchical-0:secondary SFSymbolsPreview4D4D4D" d="M133.4-85.5L13.8-85.5C10.6-85.5 8-88.1 8-91.4C8-94.7 10.6-97.3 13.8-97.3L133.4-97.3C136.6-97.3 139.2-94.7 139.2-91.4C139.2-88.1 136.7-85.5 133.4-85.5ZM139.3 21C139.3 17.8 136.7 15.1 133.5 15.1L13.8 15.1C10.6 15.1 8 17.7 8 21C8 24.3 10.6 26.9 13.8 26.9L133.4 26.9C136.7 26.9 139.3 24.3 139.3 21Z"/>
   <path class="hierarchical-1:primary SFSymbolsPreview212121" d="M133.1-17.3L133.1-17.2C133.1-12.9 131.9-9 129.5-5.8C127.2-2.4 123.8 0.2 119.6 2C115.4 3.8 110.5 4.9 105 4.9C99.5 4.9 94.9 4 90.6 2C86.4 0.1 83.1-2.5 80.7-5.8C78.2-9.2 77.1-12.9 77.1-17.2L77.1-17.3C77.1-20.4 77.8-23.4 79.2-26.1C80.6-28.8 82.6-31.2 85-33C87.5-35 90.3-36.2 93.7-37L93.7-37.3C89.5-38.6 86.2-40.8 83.7-43.8C81.2-46.8 79.9-50.4 79.9-54.5L79.9-54.6C79.9-58.5 80.9-62 83.1-65C85.3-68 88.3-70.5 92.1-72.3C95.9-74.1 100.3-74.9 105.1-74.9C110-74.9 114.3-74 118.1-72.3C121.9-70.6 124.9-68.1 127.1-65C129.3-62 130.3-58.5 130.3-54.6L130.3-54.5C130.3-50.5 129-46.8 126.5-43.8C124-40.8 120.6-38.6 116.4-37.3L116.4-37C119.8-36.2 122.6-34.9 125.1-33C127.6-31.1 129.5-28.8 130.9-26.1C132.3-23.4 133.1-20.5 133.1-17.3ZM65.3-34.8C67.5-30.9 68.5-26.6 68.5-21.5L68.5-21.4C68.5-16.2 67.3-11.6 65-7.8C62.7-3.9 59.4-0.8 55.2 1.6C51 3.8 46.4 5 40.9 5C35.8 4.9 31.4 4 27.6 2C23.7 0.1 20.7-2.4 18.4-5.8C16.1-9 14.8-12.8 14.4-17L14.4-17.7L23.9-17.7L23.9-17.3C24.2-14.7 25.2-12.5 26.6-10.4C28.2-8.3 30.1-6.8 32.6-5.6C35.1-4.4 37.8-3.8 40.9-3.8C44.4-3.8 47.5-4.6 50.1-6C52.7-7.4 54.9-9.6 56.3-12.2C57.7-14.8 58.5-17.9 58.5-21.4L58.5-21.5C58.5-24.9 57.7-27.9 56.2-30.5C54.6-33.1 52.6-35.2 50-36.7C47.4-38.3 44.3-38.9 40.9-38.9C38.3-38.9 35.8-38.5 33.6-37.7C31.4-36.9 29.4-35.7 27.6-34.2C26.9-33.6 26.3-32.9 25.6-32.1C25-31.3 24.4-30.5 23.9-29.6L15.8-29.6L19.8-73.7L64-73.7L64-65.1L27.8-65.1L25.2-39.1L25.5-39.1C27.3-41.7 29.8-43.6 32.8-45.1C35.9-46.4 39.3-47.2 43.1-47.2C48-47.2 52.5-46 56.4-43.8C60.3-41.6 63.1-38.7 65.3-34.8ZM123.4-18C123.4-20.9 122.6-23.3 121.1-25.5C119.5-27.7 117.3-29.4 114.6-30.7C111.9-32 108.8-32.5 105.1-32.5C101.6-32.5 98.3-31.9 95.6-30.7C92.9-29.4 90.7-27.7 89.1-25.5C87.5-23.3 86.8-20.8 86.8-18L86.8-17.9C86.8-15.2 87.6-12.7 89.1-10.5C90.7-8.3 92.9-6.6 95.6-5.4C98.3-4.2 101.5-3.6 105.1-3.6C108.7-3.5 111.9-4.1 114.6-5.4C117.3-6.6 119.5-8.4 121.1-10.5C122.7-12.7 123.4-15.2 123.4-17.9L123.4-18ZM96.9-42.6C99.2-41.6 102-40.9 105.1-40.9C108.2-40.9 110.9-41.5 113.3-42.6C115.7-43.7 117.5-45.2 118.8-47.1C120.1-49.1 120.7-51.3 120.7-53.7L120.7-53.8C120.7-56.3 120.1-58.5 118.8-60.4C117.5-62.3 115.7-63.8 113.3-64.9C111-65.9 108.2-66.6 105.1-66.6C102-66.6 99.3-66.1 96.9-64.9C94.6-63.7 92.7-62.3 91.4-60.4C90.1-58.4 89.5-56.2 89.5-53.8L89.5-53.7C89.5-51.2 90.2-49 91.4-47.1C92.8-45.2 94.6-43.7 96.9-42.6Z"/>
  </g>
  <g id="Semibold-M" transform="matrix(1 0 0 1 1985.07 1126)">
   <path class="hierarchical-0:secondary SFSymbolsPreview4D4D4D" d="M103 11.2L13 11.2C10.2 11.2 8 9 8 6.2C8 3.4 10.2 1.2 13 1.2L103 1.2C105.8 1.2 108 3.4 108 6.2C108 9 105.8 11.2 103 11.2ZM108-76.7C108-79.5 105.8-81.7 103-81.7L13-81.7C10.2-81.7 8-79.5 8-76.7C8-73.9 10.2-71.7 13-71.7L103-71.7C105.8-71.7 108-73.9 108-76.7Z"/>
   <path class="hierarchical-1:primary SFSymbolsPreview212121" d="M106.5-28.4C105.3-30.5 103.7-32.3 101.6-33.8C99.5-35.3 97.1-36.3 94.4-36.8L94.4-37.1C97.9-38 100.7-39.7 102.8-42.1C104.9-44.5 106-47.3 106-50.6L106-50.7C106-53.8 105.1-56.6 103.2-59.1C101.3-61.5 98.8-63.5 95.5-64.9C92.2-66.3 88.4-67 84.2-67C80-67 76.3-66.3 73-64.9C69.7-63.5 67.2-61.6 65.3-59.1C63.4-56.6 62.5-53.8 62.5-50.7L62.5-50.6C62.5-47.4 63.6-44.5 65.7-42.1C67.8-39.7 70.6-38 74.1-37.1L74.1-36.8C71.4-36.3 69-35.3 66.9-33.8C64.8-32.4 63.2-30.5 62-28.4C60.8-26.3 60.2-23.9 60.2-21.3L60.2-21.2C60.2-17.7 61.2-14.6 63.2-11.9C65.2-9.2 68-7.1 71.6-5.6C75.2-4.1 79.7-3.3 84.4-3.3C89.1-3.3 93.3-4.1 96.9-5.6C100.5-7.1 103.3-9.2 105.3-11.9C107.3-14.6 108.3-17.7 108.3-21.2L108.3-21.3C108.3-23.9 107.7-26.3 106.5-28.4ZM19.1-5.6C15.8-7.2 13.2-9.3 11.3-12C9.4-14.7 8.3-17.7 8-21.1L8-21.7L18.3-21.7L18.3-21.4C18.6-19.7 19.3-18.1 20.4-16.7C21.5-15.3 22.9-14.2 24.6-13.4C26.3-12.6 28.2-12.2 30.4-12.2C32.9-12.2 35-12.7 36.9-13.8C38.8-14.8 40.2-16.3 41.3-18.1C42.4-19.9 42.9-22.1 42.9-24.5L42.9-24.6C42.9-27 42.4-29.1 41.3-30.9C40.2-32.7 38.8-34.1 36.9-35.2C35-36.2 32.9-36.8 30.5-36.8C28.8-36.8 27.1-36.5 25.6-36C24.1-35.5 22.8-34.7 21.6-33.7C21-33.2 20.5-32.7 20-32.1C19.5-31.5 19-30.9 18.7-30.2L9.1-30.2L12-66L49.9-66L49.9-57L20.8-57L19.1-38.4L19.3-38.4C20.6-40.5 22.5-42.1 25-43.3C27.5-44.5 30.2-45 33.2-45C37.1-45 40.6-44.1 43.7-42.4C46.7-40.6 49.1-38.3 50.9-35.2C52.7-32.1 53.5-28.7 53.5-24.8L53.5-24.7C53.5-20.5 52.5-16.8 50.6-13.5C48.6-10.3 45.9-7.8 42.4-6C38.9-4.2 34.9-3.3 30.3-3.3C26.1-3.3 22.3-4.1 19.1-5.6ZM96.6-21.8C96.6-19.9 96.1-18.1 95-16.6C94-15.1 92.5-13.9 90.6-13C88.7-12.2 86.5-11.7 84-11.7C81.6-11.7 79.4-12.1 77.5-13C75.6-13.9 74.1-15.1 73-16.6C71.9-18.1 71.4-19.8 71.4-21.8L71.4-21.9C71.4-23.9 71.9-25.7 73-27.2C74-28.7 75.5-29.9 77.4-30.8C79.3-31.7 81.5-32.1 84-32.1C86.5-32.1 88.7-31.7 90.6-30.8C92.5-29.9 93.9-28.7 95-27.2C96.1-25.7 96.6-23.9 96.6-21.8L96.6-21.8ZM73.3-49.6L73.3-49.6C73.3-51.5 73.8-53 74.7-54.4C75.6-55.8 76.9-56.8 78.5-57.6C80.1-58.4 82-58.8 84.1-58.8C86.2-58.8 88.1-58.4 89.7-57.6C91.3-56.8 92.6-55.8 93.5-54.4C94.4-53.1 94.9-51.5 94.9-49.7L94.9-49.6C94.9-47.8 94.4-46.3 93.5-44.9C92.6-43.5 91.3-42.5 89.7-41.7C88-40.9 86.2-40.5 84.1-40.5C82-40.5 80.1-40.9 78.5-41.7C76.9-42.5 75.6-43.5 74.7-44.9C73.8-46.3 73.3-47.8 73.3-49.6Z"/>
  </g>
  <g id="Regular-M" transform="matrix(1 0 0 1 1391.29 1126)">
   <path class="hierarchical-0:secondary SFSymbolsPreview4D4D4D" d="M104.5-74L12.5-74C10-74 8-76 8-78.5C8-81 10-83 12.5-83L104.5-83C107-83 109-81 109-78.5C109-76 107-74 104.5-74ZM109 7.9C109 5.4 107 3.4 104.5 3.4L12.5 3.4C10 3.4 8 5.4 8 7.9C8 10.4 10 12.4 12.5 12.4L104.5 12.4C107 12.4 109 10.4 109 7.9Z"/>
   <path class="hierarchical-1:primary SFSymbolsPreview212121" d="M104.2-21.6L104.2-21.6C104.2-18.2 103.3-15.2 101.4-12.7C99.6-10.1 97-8.1 93.8-6.7C90.6-5.3 86.8-4.5 82.6-4.5C78.4-4.5 74.8-5.2 71.5-6.7C68.3-8.2 65.7-10.2 63.9-12.7C62-15.3 61.1-18.2 61.1-21.5L61.1-21.6C61.1-24 61.6-26.3 62.7-28.4C63.8-30.5 65.3-32.3 67.2-33.7C69.1-35.2 71.3-36.2 73.9-36.8L73.9-37C70.7-38 68.1-39.7 66.2-42C64.3-44.3 63.3-47.1 63.3-50.2L63.3-50.3C63.3-53.3 64.1-56 65.8-58.3C67.5-60.6 69.8-62.5 72.7-63.9C75.6-65.3 79-65.9 82.7-65.9C86.5-65.9 89.8-65.2 92.7-63.9C95.6-62.6 97.9-60.7 99.6-58.3C101.3-56 102.1-53.3 102.1-50.3L102.1-50.2C102.1-47.1 101.1-44.3 99.2-42C97.3-39.7 94.7-38 91.4-37L91.4-36.8C94-36.2 96.2-35.2 98.1-33.7C100-32.2 101.5-30.5 102.6-28.4C103.7-26.3 104.2-24 104.2-21.6ZM52.1-35C53.8-32 54.6-28.7 54.6-24.8L54.6-24.7C54.6-20.7 53.7-17.2 51.9-14.2C50.1-11.2 47.6-8.8 44.4-7C41.2-5.3 37.6-4.4 33.4-4.4C29.5-4.5 26.1-5.2 23.2-6.7C20.2-8.2 17.9-10.1 16.1-12.7C14.3-15.2 13.3-18.1 13-21.3L13-21.8L20.3-21.8L20.3-21.5C20.5-19.5 21.3-17.8 22.4-16.2C23.6-14.6 25.1-13.4 27-12.5C28.9-11.6 31-11.1 33.4-11.1C36.1-11.1 38.5-11.7 40.5-12.8C42.5-13.9 44.2-15.6 45.3-17.6C46.4-19.6 47-22 47-24.7L47-24.8C47-27.4 46.4-29.7 45.2-31.7C44-33.7 42.4-35.3 40.4-36.5C38.4-37.7 36-38.2 33.4-38.2C31.4-38.2 29.5-37.9 27.8-37.3C26.1-36.7 24.6-35.8 23.2-34.6C22.7-34.1 22.2-33.6 21.7-33C21.2-32.4 20.8-31.8 20.4-31.1L14-31.1L17.1-65L51.1-65L51.1-58.4L23.2-58.4L21.2-38.4L21.4-38.4C22.8-40.4 24.7-41.9 27-43C29.4-44 32-44.6 34.9-44.6C38.7-44.6 42.1-43.7 45.1-42C48.1-40.3 50.4-38 52.1-35ZM96.8-22.1C96.8-24.3 96.2-26.2 95-27.9C93.8-29.6 92.1-30.9 90-31.9C87.9-32.9 85.5-33.3 82.7-33.3C80-33.3 77.5-32.8 75.4-31.9C73.3-30.9 71.6-29.6 70.4-27.9C69.2-26.2 68.6-24.3 68.6-22.1L68.6-22C68.6-19.9 69.2-18 70.4-16.3C71.6-14.6 73.3-13.3 75.4-12.4C77.5-11.5 79.9-11 82.7-11C85.5-10.9 87.9-11.4 90-12.4C92.1-13.3 93.8-14.7 95-16.3C96.2-18 96.8-19.9 96.8-22.1L96.8-22.1ZM76.4-41C78.2-40.2 80.3-39.7 82.7-39.7C85.1-39.7 87.2-40.2 89-41C90.8-41.8 92.2-43 93.2-44.5C94.2-46 94.7-47.7 94.7-49.6L94.7-49.7C94.7-51.6 94.2-53.3 93.2-54.8C92.2-56.3 90.8-57.4 89-58.3C87.2-59.1 85.1-59.6 82.7-59.6C80.3-59.6 78.2-59.2 76.4-58.3C74.6-57.4 73.2-56.3 72.2-54.8C71.2-53.3 70.7-51.6 70.7-49.7L70.7-49.6C70.7-47.7 71.2-46 72.2-44.5C73.2-43 74.6-41.9 76.4-41Z"/>
  </g>
  <g id="Semibold-S" transform="matrix(1 0 0 1 1995.12 696)">
   <path class="hierarchical-0:secondary SFSymbolsPreview4D4D4D" d="M84 2L12 2C9.8 2 8 0.2 8-2C8-4.2 9.8-6 12-6L84-6C86.2-6 88-4.2 88-2C88 0.2 86.2 2 84 2ZM88-68.4C88-70.6 86.2-72.4 84-72.4L12-72.4C9.8-72.4 8-70.6 8-68.4C8-66.2 9.8-64.4 12-64.4L84-64.4C86.2-64.4 88-66.1 88-68.4Z"/>
   <path class="hierarchical-1:primary SFSymbolsPreview212121" d="M86.8-29.7C85.8-31.4 84.6-32.8 82.9-34C81.2-35.2 79.3-36 77.1-36.4L77.1-36.6C79.9-37.3 82.1-38.7 83.8-40.6C85.5-42.5 86.4-44.8 86.4-47.4L86.4-47.5C86.4-50 85.7-52.2 84.2-54.2C82.7-56.1 80.7-57.7 78-58.8C75.3-59.9 72.3-60.5 69-60.5C65.7-60.5 62.7-59.9 60-58.8C57.3-57.7 55.4-56.2 53.8-54.2C52.3-52.2 51.6-50 51.6-47.5L51.6-47.4C51.6-44.8 52.5-42.5 54.2-40.6C55.9-38.7 58.1-37.3 60.9-36.6L60.9-36.4C58.7-36 56.8-35.2 55.1-34C53.4-32.9 52.1-31.4 51.2-29.7C50.2-28 49.8-26.1 49.8-24L49.8-23.9C49.8-21.1 50.6-18.6 52.2-16.5C53.8-14.3 56-12.7 58.9-11.5C61.8-10.3 65.4-9.7 69.1-9.7C72.9-9.7 76.2-10.3 79.1-11.5C82-12.7 84.2-14.4 85.8-16.5C87.4-18.7 88.2-21.1 88.2-23.9L88.2-24C88.2-26.1 87.7-28 86.8-29.7ZM16.9-11.5C14.3-12.8 12.2-14.5 10.7-16.6C9.2-18.8 8.3-21.2 8.1-23.9L8.1-24.4L16.3-24.4L16.3-24.2C16.5-22.8 17.1-21.6 18-20.4C18.9-19.3 20-18.4 21.4-17.8C22.8-17.2 24.3-16.8 26-16.8C28-16.8 29.7-17.2 31.2-18.1C32.7-18.9 33.8-20.1 34.7-21.5C35.6-22.9 36-24.7 36-26.6L36-26.7C36-28.6 35.6-30.3 34.7-31.7C33.8-33.1 32.7-34.3 31.2-35.1C29.7-35.9 28-36.4 26.1-36.4C24.7-36.4 23.4-36.2 22.2-35.8C21-35.4 20-34.8 19-34C18.5-33.6 18.1-33.2 17.7-32.7C17.3-32.2 16.9-31.7 16.7-31.2L9-31.2L11.3-59.8L41.6-59.8L41.6-52.6L18.2-52.6L16.8-37.7L17-37.7C18-39.4 19.6-40.7 21.6-41.6C23.6-42.6 25.8-43 28.2-43C31.3-43 34.1-42.3 36.6-40.9C39-39.5 40.9-37.6 42.4-35.1C43.8-32.6 44.5-29.9 44.5-26.8L44.5-26.7C44.5-23.3 43.7-20.4 42.2-17.7C40.6-15.1 38.4-13.1 35.6-11.7C32.8-10.3 29.6-9.5 25.9-9.5C22.5-9.6 19.4-10.3 16.9-11.5ZM78.9-24.4C78.9-22.9 78.5-21.4 77.6-20.2C76.8-19 75.6-18 74.1-17.3C72.6-16.7 70.8-16.3 68.8-16.3C66.9-16.3 65.1-16.6 63.6-17.3C62.1-18 60.9-19 60-20.2C59.1-21.4 58.7-22.8 58.7-24.4L58.7-24.5C58.7-26.1 59.1-27.5 60-28.7C60.8-29.9 62-30.9 63.5-31.6C65-32.3 66.8-32.6 68.8-32.6C70.8-32.6 72.6-32.3 74.1-31.6C75.6-30.9 76.7-29.9 77.6-28.7C78.5-27.6 78.9-26.1 78.9-24.4L78.9-24.4ZM60.2-46.7L60.2-46.7C60.2-48.2 60.6-49.4 61.3-50.5C62-51.6 63.1-52.4 64.3-53.1C65.6-53.7 67.1-54.1 68.8-54.1C70.5-54.1 72-53.8 73.3-53.1C74.6-52.5 75.6-51.7 76.3-50.5C77-49.5 77.4-48.2 77.4-46.7L77.4-46.6C77.4-45.2 77-44 76.3-42.8C75.6-41.7 74.5-40.9 73.3-40.2C71.9-39.6 70.5-39.2 68.8-39.2C67.1-39.2 65.6-39.5 64.3-40.2C63-40.8 62-41.6 61.3-42.8C60.6-44 60.2-45.2 60.2-46.7Z"/>
  </g>
  <g id="Regular-S" transform="matrix(1 0 0 1 1401.39 696)">
   <path class="hierarchical-0:secondary SFSymbolsPreview4D4D4D" d="M85.2-66.2L11.6-66.2C9.6-66.2 8-67.8 8-69.8C8-71.8 9.6-73.4 11.6-73.4L85.2-73.4C87.2-73.4 88.8-71.8 88.8-69.8C88.8-67.8 87.2-66.2 85.2-66.2ZM88.8-0.6C88.8-2.6 87.2-4.2 85.2-4.2L11.6-4.2C9.6-4.2 8-2.6 8-0.6C8 1.4 9.6 3 11.6 3L85.2 3C87.2 3 88.8 1.4 88.8-0.6Z"/>
   <path class="hierarchical-1:primary SFSymbolsPreview212121" d="M85-24.2L85-24.2C85-21.5 84.3-19.1 82.8-17.1C81.4-15 79.3-13.4 76.7-12.3C74.1-11.2 71.1-10.5 67.7-10.5C64.3-10.5 61.5-11.1 58.8-12.3C56.2-13.5 54.2-15.1 52.7-17.1C51.2-19.2 50.5-21.5 50.5-24.1L50.5-24.2C50.5-26.1 50.9-28 51.8-29.6C52.7-31.3 53.9-32.7 55.4-33.8C56.9-35 58.7-35.8 60.8-36.3L60.8-36.5C58.2-37.3 56.2-38.7 54.6-40.5C53.1-42.3 52.3-44.6 52.3-47.1L52.3-47.2C52.3-49.6 52.9-51.8 54.3-53.6C55.7-55.4 57.5-57 59.8-58.1C62.1-59.2 64.8-59.7 67.8-59.7C70.8-59.7 73.5-59.1 75.8-58.1C78.1-57.1 80-55.5 81.3-53.6C82.7-51.8 83.3-49.6 83.3-47.2L83.3-47.1C83.3-44.6 82.5-42.4 81-40.5C79.5-38.7 77.4-37.3 74.8-36.5L74.8-36.3C76.9-35.8 78.6-35 80.2-33.8C81.7-32.6 82.9-31.2 83.8-29.6C84.6-28 85-26.2 85-24.2ZM43.3-35C44.7-32.6 45.3-30 45.3-26.8L45.3-26.7C45.3-23.5 44.6-20.7 43.1-18.3C41.7-15.9 39.7-14 37.1-12.5C34.5-11.1 31.7-10.4 28.3-10.4C25.2-10.5 22.5-11 20.1-12.2C17.7-13.4 15.9-14.9 14.4-17C13-19 12.2-21.3 11.9-23.9L11.9-24.3L17.7-24.3L17.7-24.1C17.9-22.5 18.5-21.1 19.4-19.9C20.4-18.6 21.6-17.7 23.1-16.9C24.6-16.2 26.3-15.8 28.2-15.8C30.4-15.8 32.3-16.3 33.9-17.2C35.5-18.1 36.9-19.4 37.7-21C38.6-22.6 39.1-24.5 39.1-26.7L39.1-26.8C39.1-28.9 38.6-30.7 37.7-32.3C36.7-33.9 35.5-35.2 33.9-36.1C32.3-37.1 30.4-37.5 28.3-37.5C26.7-37.5 25.2-37.3 23.8-36.8C22.4-36.3 21.2-35.6 20.1-34.6C19.7-34.2 19.3-33.8 18.9-33.3C18.5-32.8 18.2-32.3 17.9-31.8L12.8-31.8L15.3-58.9L42.5-58.9L42.5-53.6L20.2-53.6L18.6-37.6L18.8-37.6C19.9-39.2 21.4-40.4 23.3-41.3C25.2-42.1 27.3-42.6 29.6-42.6C32.6-42.6 35.4-41.9 37.8-40.5C40.1-39.2 41.9-37.4 43.3-35ZM79-24.6C79-26.4 78.5-27.9 77.6-29.2C76.6-30.6 75.3-31.6 73.6-32.4C71.9-33.2 70-33.5 67.8-33.5C65.6-33.5 63.6-33.1 62-32.4C60.3-31.6 59-30.6 58-29.2C57-27.8 56.6-26.3 56.6-24.6L56.6-24.5C56.6-22.8 57.1-21.3 58-19.9C59-18.5 60.3-17.5 62-16.8C63.7-16.1 65.6-15.7 67.8-15.7C70-15.6 72-16 73.6-16.8C75.3-17.5 76.6-18.6 77.6-19.9C78.6-21.4 79-22.9 79-24.6L79-24.6ZM62.7-39.8C64.1-39.2 65.8-38.8 67.7-38.8C69.6-38.8 71.3-39.2 72.7-39.8C74.1-40.4 75.3-41.4 76.1-42.6C76.9-43.8 77.3-45.2 77.3-46.7L77.3-46.8C77.3-48.3 76.9-49.7 76.1-50.9C75.3-52.1 74.2-53 72.7-53.7C71.3-54.3 69.6-54.7 67.7-54.7C65.8-54.7 64.1-54.4 62.7-53.7C61.3-53 60.1-52.1 59.3-50.9C58.5-49.7 58.1-48.3 58.1-46.8L58.1-46.7C58.1-45.2 58.5-43.8 59.3-42.6C60.2-41.4 61.3-40.5 62.7-39.8Z"/>
  </g>
 </g>
</svg>
