<?xml version="1.0" encoding="UTF-8"?>
<!--Generator: Apple Native CoreSVG 175-->
<!DOCTYPE svg
PUBLIC "-//W3C//DTD SVG 1.1//EN"
       "http://www.w3.org/Graphics/SVG/1.1/DTD/svg11.dtd">
<svg version="1.1" xmlns="http://www.w3.org/2000/svg" xmlns:xlink="http://www.w3.org/1999/xlink" width="3300" height="2200">
 <!--glyph: "", point size: 100.0, font version: "17.1d1e1", template writer version: "65.1"-->
 <g id="Notes">
  <rect height="2200" id="artboard" style="fill:white;opacity:1" width="3300" x="0" y="0"/>
  <line style="fill:none;stroke:black;opacity:1;stroke-width:0.5;" x1="263" x2="3036" y1="292" y2="292"/>
  <text style="stroke:none;fill:black;font-family:sans-serif;font-size:13;font-weight:bold;" transform="matrix(1 0 0 1 263 322)">Weight/Scale Variations</text>
  <text style="stroke:none;fill:black;font-family:sans-serif;font-size:13;text-anchor:middle;" transform="matrix(1 0 0 1 559.711 322)">Ultralight</text>
  <text style="stroke:none;fill:black;font-family:sans-serif;font-size:13;text-anchor:middle;" transform="matrix(1 0 0 1 856.422 322)">Thin</text>
  <text style="stroke:none;fill:black;font-family:sans-serif;font-size:13;text-anchor:middle;" transform="matrix(1 0 0 1 1153.13 322)">Light</text>
  <text style="stroke:none;fill:black;font-family:sans-serif;font-size:13;text-anchor:middle;" transform="matrix(1 0 0 1 1449.84 322)">Regular</text>
  <text style="stroke:none;fill:black;font-family:sans-serif;font-size:13;text-anchor:middle;" transform="matrix(1 0 0 1 1746.56 322)">Medium</text>
  <text style="stroke:none;fill:black;font-family:sans-serif;font-size:13;text-anchor:middle;" transform="matrix(1 0 0 1 2043.27 322)">Semibold</text>
  <text style="stroke:none;fill:black;font-family:sans-serif;font-size:13;text-anchor:middle;" transform="matrix(1 0 0 1 2339.98 322)">Bold</text>
  <text style="stroke:none;fill:black;font-family:sans-serif;font-size:13;text-anchor:middle;" transform="matrix(1 0 0 1 2636.69 322)">Heavy</text>
  <text style="stroke:none;fill:black;font-family:sans-serif;font-size:13;text-anchor:middle;" transform="matrix(1 0 0 1 2933.4 322)">Black</text>
  <line style="fill:none;stroke:black;opacity:1;stroke-width:0.5;" x1="263" x2="3036" y1="1903" y2="1903"/>
  <g transform="matrix(1 0 0 1 263 1933)">
   <path d="M9.24805 0.830078Q10.8691 0.830078 12.2949 0.214844Q13.7207-0.400391 14.8096-1.49414Q15.8984-2.58789 16.5186-4.01367Q17.1387-5.43945 17.1387-7.05078Q17.1387-8.66211 16.5186-10.0879Q15.8984-11.5137 14.8047-12.6074Q13.7109-13.7012 12.2852-14.3164Q10.8594-14.9316 9.23828-14.9316Q7.62695-14.9316 6.20117-14.3164Q4.77539-13.7012 3.69141-12.6074Q2.60742-11.5137 1.9873-10.0879Q1.36719-8.66211 1.36719-7.05078Q1.36719-5.43945 1.9873-4.01367Q2.60742-2.58789 3.69629-1.49414Q4.78516-0.400391 6.21094 0.214844Q7.63672 0.830078 9.24805 0.830078ZM9.24805-0.654297Q7.91992-0.654297 6.7627-1.14746Q5.60547-1.64062 4.73145-2.51953Q3.85742-3.39844 3.36426-4.56055Q2.87109-5.72266 2.87109-7.05078Q2.87109-8.37891 3.35938-9.54102Q3.84766-10.7031 4.72168-11.582Q5.5957-12.4609 6.75293-12.9541Q7.91016-13.4473 9.23828-13.4473Q10.5762-13.4473 11.7334-12.9541Q12.8906-12.4609 13.7695-11.582Q14.6484-10.7031 15.1465-9.54102Q15.6445-8.37891 15.6445-7.05078Q15.6445-5.72266 15.1514-4.56055Q14.6582-3.39844 13.7842-2.51953Q12.9102-1.64062 11.748-1.14746Q10.5859-0.654297 9.24805-0.654297ZM5.6543-7.05078Q5.6543-6.72852 5.85938-6.52832Q6.06445-6.32812 6.40625-6.32812L8.51562-6.32812L8.51562-4.20898Q8.51562-3.88672 8.71094-3.67676Q8.90625-3.4668 9.23828-3.4668Q9.56055-3.4668 9.77051-3.67676Q9.98047-3.88672 9.98047-4.20898L9.98047-6.32812L12.0898-6.32812Q12.4219-6.32812 12.627-6.52832Q12.832-6.72852 12.832-7.05078Q12.832-7.38281 12.627-7.58789Q12.4219-7.79297 12.0898-7.79297L9.98047-7.79297L9.98047-9.90234Q9.98047-10.2344 9.77051-10.4443Q9.56055-10.6543 9.23828-10.6543Q8.90625-10.6543 8.71094-10.4443Q8.51562-10.2344 8.51562-9.90234L8.51562-7.79297L6.40625-7.79297Q6.06445-7.79297 5.85938-7.58789Q5.6543-7.38281 5.6543-7.05078Z"/>
  </g>
  <g transform="matrix(1 0 0 1 281.867 1933)">
   <path d="M11.709 2.91016Q13.75 2.91016 15.5518 2.12891Q17.3535 1.34766 18.7305-0.0292969Q20.1074-1.40625 20.8887-3.20801Q21.6699-5.00977 21.6699-7.05078Q21.6699-9.0918 20.8887-10.8936Q20.1074-12.6953 18.7305-14.0723Q17.3535-15.4492 15.5469-16.2305Q13.7402-17.0117 11.6992-17.0117Q9.6582-17.0117 7.85645-16.2305Q6.05469-15.4492 4.68262-14.0723Q3.31055-12.6953 2.5293-10.8936Q1.74805-9.0918 1.74805-7.05078Q1.74805-5.00977 2.5293-3.20801Q3.31055-1.40625 4.6875-0.0292969Q6.06445 1.34766 7.86621 2.12891Q9.66797 2.91016 11.709 2.91016ZM11.709 1.25Q9.98047 1.25 8.47656 0.605469Q6.97266-0.0390625 5.83496-1.17676Q4.69727-2.31445 4.05762-3.81836Q3.41797-5.32227 3.41797-7.05078Q3.41797-8.7793 4.05762-10.2832Q4.69727-11.7871 5.83008-12.9297Q6.96289-14.0723 8.4668-14.7119Q9.9707-15.3516 11.6992-15.3516Q13.4277-15.3516 14.9316-14.7119Q16.4355-14.0723 17.5781-12.9297Q18.7207-11.7871 19.3652-10.2832Q20.0098-8.7793 20.0098-7.05078Q20.0098-5.32227 19.3701-3.81836Q18.7305-2.31445 17.5928-1.17676Q16.4551-0.0390625 14.9463 0.605469Q13.4375 1.25 11.709 1.25ZM7.17773-7.05078Q7.17773-6.69922 7.41211-6.47461Q7.64648-6.25 8.01758-6.25L10.8887-6.25L10.8887-3.36914Q10.8887-2.99805 11.1133-2.76855Q11.3379-2.53906 11.6895-2.53906Q12.0605-2.53906 12.29-2.76855Q12.5195-2.99805 12.5195-3.36914L12.5195-6.25L15.4004-6.25Q15.7715-6.25 16.001-6.47461Q16.2305-6.69922 16.2305-7.05078Q16.2305-7.42188 16.001-7.65137Q15.7715-7.88086 15.4004-7.88086L12.5195-7.88086L12.5195-10.752Q12.5195-11.1328 12.29-11.3623Q12.0605-11.5918 11.6895-11.5918Q11.3379-11.5918 11.1133-11.3574Q10.8887-11.123 10.8887-10.752L10.8887-7.88086L8.01758-7.88086Q7.63672-7.88086 7.40723-7.65137Q7.17773-7.42188 7.17773-7.05078Z"/>
  </g>
  <g transform="matrix(1 0 0 1 305.646 1933)">
   <path d="M14.9707 5.66406Q17.0605 5.66406 18.96 5.01465Q20.8594 4.36523 22.4512 3.19336Q24.043 2.02148 25.2197 0.429688Q26.3965-1.16211 27.0459-3.06641Q27.6953-4.9707 27.6953-7.05078Q27.6953-9.14062 27.0459-11.04Q26.3965-12.9395 25.2197-14.5312Q24.043-16.123 22.4512-17.2998Q20.8594-18.4766 18.9551-19.126Q17.0508-19.7754 14.9609-19.7754Q12.8711-19.7754 10.9717-19.126Q9.07227-18.4766 7.48535-17.2998Q5.89844-16.123 4.72168-14.5312Q3.54492-12.9395 2.90039-11.04Q2.25586-9.14062 2.25586-7.05078Q2.25586-4.9707 2.90527-3.06641Q3.55469-1.16211 4.72656 0.429688Q5.89844 2.02148 7.49023 3.19336Q9.08203 4.36523 10.9814 5.01465Q12.8809 5.66406 14.9707 5.66406ZM14.9707 3.84766Q13.1641 3.84766 11.5283 3.2959Q9.89258 2.74414 8.53516 1.74805Q7.17773 0.751953 6.17676-0.610352Q5.17578-1.97266 4.62891-3.6084Q4.08203-5.24414 4.08203-7.05078Q4.08203-8.86719 4.62891-10.5029Q5.17578-12.1387 6.17188-13.501Q7.16797-14.8633 8.52539-15.8594Q9.88281-16.8555 11.5186-17.4023Q13.1543-17.9492 14.9609-17.9492Q16.7773-17.9492 18.4131-17.4023Q20.0488-16.8555 21.4111-15.8594Q22.7734-14.8633 23.7695-13.501Q24.7656-12.1387 25.3174-10.5029Q25.8691-8.86719 25.8691-7.05078Q25.8789-5.24414 25.332-3.6084Q24.7852-1.97266 23.7842-0.610352Q22.7832 0.751953 21.4209 1.74805Q20.0586 2.74414 18.4229 3.2959Q16.7871 3.84766 14.9707 3.84766ZM9.19922-7.05078Q9.19922-6.66992 9.45801-6.4209Q9.7168-6.17188 10.1172-6.17188L14.0625-6.17188L14.0625-2.2168Q14.0625-1.81641 14.3115-1.55762Q14.5605-1.29883 14.9512-1.29883Q15.3516-1.29883 15.6104-1.55273Q15.8691-1.80664 15.8691-2.2168L15.8691-6.17188L19.8242-6.17188Q20.2246-6.17188 20.4785-6.4209Q20.7324-6.66992 20.7324-7.05078Q20.7324-7.46094 20.4785-7.71484Q20.2246-7.96875 19.8242-7.96875L15.8691-7.96875L15.8691-11.9141Q15.8691-12.3242 15.6104-12.583Q15.3516-12.8418 14.9512-12.8418Q14.5605-12.8418 14.3115-12.583Q14.0625-12.3242 14.0625-11.9141L14.0625-7.96875L10.1172-7.96875Q9.70703-7.96875 9.45312-7.71484Q9.19922-7.46094 9.19922-7.05078Z"/>
  </g>
  <text style="stroke:none;fill:black;font-family:sans-serif;font-size:13;font-weight:bold;" transform="matrix(1 0 0 1 263 1953)">Design Variations</text>
  <text style="stroke:none;fill:black;font-family:sans-serif;font-size:13;" transform="matrix(1 0 0 1 263 1971)">Symbols are supported in up to nine weights and three scales.</text>
  <text style="stroke:none;fill:black;font-family:sans-serif;font-size:13;" transform="matrix(1 0 0 1 263 1989)">For optimal layout with text and other symbols, vertically align</text>
  <text style="stroke:none;fill:black;font-family:sans-serif;font-size:13;" transform="matrix(1 0 0 1 263 2007)">symbols with the adjacent text.</text>
  <line style="fill:none;stroke:#00AEEF;stroke-width:0.5;opacity:1.0;" x1="776" x2="776" y1="1919" y2="1933"/>
  <g transform="matrix(1 0 0 1 776 1933)">
   <path d="M3.31055 0.15625Q3.70117 0.15625 3.91602-0.00976562Q4.13086-0.175781 4.26758-0.585938L5.52734-4.0332L11.2891-4.0332L12.5488-0.585938Q12.6855-0.175781 12.9004-0.00976562Q13.1152 0.15625 13.4961 0.15625Q13.8867 0.15625 14.1162-0.0585938Q14.3457-0.273438 14.3457-0.644531Q14.3457-0.869141 14.2383-1.17188L9.6582-13.3691Q9.48242-13.8184 9.17969-14.043Q8.87695-14.2676 8.4082-14.2676Q7.5-14.2676 7.17773-13.3789L2.59766-1.16211Q2.49023-0.859375 2.49023-0.634766Q2.49023-0.263672 2.70996-0.0537109Q2.92969 0.15625 3.31055 0.15625ZM6.00586-5.51758L8.37891-12.0898L8.42773-12.0898L10.8008-5.51758Z"/>
  </g>
  <line style="fill:none;stroke:#00AEEF;stroke-width:0.5;opacity:1.0;" x1="793.197" x2="793.197" y1="1919" y2="1933"/>
  <text style="stroke:none;fill:black;font-family:sans-serif;font-size:13;font-weight:bold;" transform="matrix(1 0 0 1 776 1953)">Margins</text>
  <text style="stroke:none;fill:black;font-family:sans-serif;font-size:13;" transform="matrix(1 0 0 1 776 1971)">Leading and trailing margins on the left and right side of each symbol</text>
  <text style="stroke:none;fill:black;font-family:sans-serif;font-size:13;" transform="matrix(1 0 0 1 776 1989)">can be adjusted by modifying the x-location of the margin guidelines.</text>
  <text style="stroke:none;fill:black;font-family:sans-serif;font-size:13;" transform="matrix(1 0 0 1 776 2007)">Modifications are automatically applied proportionally to all</text>
  <text style="stroke:none;fill:black;font-family:sans-serif;font-size:13;" transform="matrix(1 0 0 1 776 2025)">scales and weights.</text>
  <g transform="matrix(1 0 0 1 1289 1933)">
   <path d="M2.8418 1.86523L4.54102 3.57422Q5.18555 4.22852 5.90332 4.17969Q6.62109 4.13086 7.31445 3.35938L18.0078-8.42773L17.041-9.4043L6.42578 2.27539Q6.16211 2.57812 5.89355 2.61719Q5.625 2.65625 5.27344 2.30469L4.10156 1.14258Q3.75 0.791016 3.79395 0.522461Q3.83789 0.253906 4.14062-0.0195312L15.6152-10.8203L14.6387-11.7871L3.04688-0.898438Q2.30469-0.214844 2.25098 0.498047Q2.19727 1.21094 2.8418 1.86523ZM9.25781-16.3281Q8.94531-16.0254 8.90625-15.6348Q8.86719-15.2441 9.04297-14.9512Q9.21875-14.6777 9.55566-14.541Q9.89258-14.4043 10.3809-14.5215Q11.4746-14.7754 12.5977-14.7314Q13.7207-14.6875 14.7949-13.9844L14.209-12.5293Q13.9551-11.9043 14.0674-11.4404Q14.1797-10.9766 14.5801-10.5664L16.875-8.25195Q17.2363-7.88086 17.5781-7.82227Q17.9199-7.76367 18.3398-7.8418L19.4043-8.03711L20.0684-7.36328L20.0293-6.80664Q20-6.43555 20.1221-6.12305Q20.2441-5.81055 20.6055-5.44922L21.3672-4.70703Q21.7285-4.3457 22.1533-4.33105Q22.5781-4.31641 22.9297-4.66797L25.8398-7.58789Q26.1914-7.93945 26.1816-8.35449Q26.1719-8.76953 25.8105-9.13086L25.0391-9.89258Q24.6875-10.2539 24.3799-10.3857Q24.0723-10.5176 23.7109-10.4883L23.1348-10.4395L22.4902-11.0742L22.7344-12.1973Q22.832-12.6172 22.6953-12.9834Q22.5586-13.3496 22.1191-13.7891L19.9219-15.9766Q18.6719-17.2168 17.2607-17.8369Q15.8496-18.457 14.4189-18.4814Q12.9883-18.5059 11.665-17.959Q10.3418-17.4121 9.25781-16.3281ZM10.752-15.957Q11.6602-16.6211 12.7002-16.9043Q13.7402-17.1875 14.8047-17.085Q15.8691-16.9824 16.8701-16.5137Q17.8711-16.0449 18.7012-15.2051L21.1328-12.793Q21.3086-12.6172 21.3525-12.4512Q21.3965-12.2852 21.3379-12.0312L21.0156-10.5469L22.5195-9.0625L23.5059-9.12109Q23.6914-9.13086 23.7891-9.09668Q23.8867-9.0625 24.0332-8.91602L24.6094-8.33984L22.168-5.89844L21.5918-6.47461Q21.4453-6.62109 21.4062-6.71875Q21.3672-6.81641 21.377-7.01172L21.4453-7.98828L19.9512-9.47266L18.4277-9.21875Q18.1836-9.16992 18.042-9.2041Q17.9004-9.23828 17.7148-9.41406L15.7129-11.416Q15.5176-11.5918 15.4932-11.7529Q15.4688-11.9141 15.5859-12.1875L16.4648-14.2773Q15.293-15.3711 13.8281-15.791Q12.3633-16.2109 10.8398-15.7617Q10.7227-15.7324 10.6885-15.8057Q10.6543-15.8789 10.752-15.957Z"/>
  </g>
  <text style="stroke:none;fill:black;font-family:sans-serif;font-size:13;font-weight:bold;" transform="matrix(1 0 0 1 1289 1953)">Exporting</text>
  <text style="stroke:none;fill:black;font-family:sans-serif;font-size:13;" transform="matrix(1 0 0 1 1289 1971)">Symbols should be outlined when exporting to ensure the</text>
  <text style="stroke:none;fill:black;font-family:sans-serif;font-size:13;" transform="matrix(1 0 0 1 1289 1989)">design is preserved when submitting to Xcode.</text>
  <text id="template-version" style="stroke:none;fill:black;font-family:sans-serif;font-size:13;text-anchor:end;" transform="matrix(1 0 0 1 3036 1933)">Template v.3.0</text>
  <text style="stroke:none;fill:black;font-family:sans-serif;font-size:13;text-anchor:end;" transform="matrix(1 0 0 1 3036 1951)">Requires Xcode 13 or greater</text>
  <text id="descriptive-name" style="stroke:none;fill:black;font-family:sans-serif;font-size:13;text-anchor:end;" transform="matrix(1 0 0 1 3036 1969)">Generated from asset.btc</text>
  <text style="stroke:none;fill:black;font-family:sans-serif;font-size:13;text-anchor:end;" transform="matrix(1 0 0 1 3036 1987)">Typeset at 100 points</text>
  <text style="stroke:none;fill:black;font-family:sans-serif;font-size:13;" transform="matrix(1 0 0 1 263 726)">Small</text>
  <text style="stroke:none;fill:black;font-family:sans-serif;font-size:13;" transform="matrix(1 0 0 1 263 1156)">Medium</text>
  <text style="stroke:none;fill:black;font-family:sans-serif;font-size:13;" transform="matrix(1 0 0 1 263 1586)">Large</text>
 </g>
 <g id="Guides">
  <g id="H-reference" style="fill:#27AAE1;stroke:none;" transform="matrix(1 0 0 1 339 696)">
   <path d="M0.993347 0L3.6377 0L29.3282-67.1326L30.0301-67.1326L30.0301-70.459L28.1227-70.459ZM11.6882-24.4797L46.9818-24.4797L46.2311-26.7288L12.4382-26.7288ZM55.1193 0L57.7637 0L30.6381-70.459L29.4327-70.459L29.4327-67.1326Z"/>
  </g>
  <line id="Baseline-S" style="fill:none;stroke:#27AAE1;opacity:1;stroke-width:0.5;" x1="263" x2="3036" y1="696" y2="696"/>
  <line id="Capline-S" style="fill:none;stroke:#27AAE1;opacity:1;stroke-width:0.5;" x1="263" x2="3036" y1="625.541" y2="625.541"/>
  <g id="H-reference" style="fill:#27AAE1;stroke:none;" transform="matrix(1 0 0 1 339 1126)">
   <path d="M0.993347 0L3.6377 0L29.3282-67.1326L30.0301-67.1326L30.0301-70.459L28.1227-70.459ZM11.6882-24.4797L46.9818-24.4797L46.2311-26.7288L12.4382-26.7288ZM55.1193 0L57.7637 0L30.6381-70.459L29.4327-70.459L29.4327-67.1326Z"/>
  </g>
  <line id="Baseline-M" style="fill:none;stroke:#27AAE1;opacity:1;stroke-width:0.5;" x1="263" x2="3036" y1="1126" y2="1126"/>
  <line id="Capline-M" style="fill:none;stroke:#27AAE1;opacity:1;stroke-width:0.5;" x1="263" x2="3036" y1="1055.54" y2="1055.54"/>
  <g id="H-reference" style="fill:#27AAE1;stroke:none;" transform="matrix(1 0 0 1 339 1556)">
   <path d="M0.993347 0L3.6377 0L29.3282-67.1326L30.0301-67.1326L30.0301-70.459L28.1227-70.459ZM11.6882-24.4797L46.9818-24.4797L46.2311-26.7288L12.4382-26.7288ZM55.1193 0L57.7637 0L30.6381-70.459L29.4327-70.459L29.4327-67.1326Z"/>
  </g>
  <line id="Baseline-L" style="fill:none;stroke:#27AAE1;opacity:1;stroke-width:0.5;" x1="263" x2="3036" y1="1556" y2="1556"/>
  <line id="Capline-L" style="fill:none;stroke:#27AAE1;opacity:1;stroke-width:0.5;" x1="263" x2="3036" y1="1485.54" y2="1485.54"/>
  <line id="left-margin-Regular-M" style="fill:none;stroke:#00AEEF;stroke-width:0.5;opacity:1.0;" x1="1396.46" x2="1396.46" y1="1030.73" y2="1150.14"/>
  <line id="right-margin-Regular-M" style="fill:none;stroke:#00AEEF;stroke-width:0.5;opacity:1.0;" x1="1503.23" x2="1503.23" y1="1030.73" y2="1150.14"/>
 </g>
 <g id="Symbols">
  <g id="Semibold-L" transform="matrix(1 0 0 1 1974.89 1556)">
   <path d="M80.7563-28.3536C78.5466-19.5136 63.5965-24.3237 58.7863-25.4937L62.6864-41.2237C67.4963-40.0537 82.9663-37.7136 80.7563-28.3536ZM68.0163-62.6735L64.5064-48.3735C68.5363-47.3334 80.8864-43.3035 82.9663-51.3636C85.0464-59.8136 72.0464-61.6336 68.0163-62.6735ZM131.457-26.2735C122.747 8.56658 87.5163 29.7564 52.6765 21.0466C17.8364 12.3366-3.35355-22.8935 5.35641-57.7335C14.0664-92.5736 49.2965-113.763 84.1364-105.054C118.846-96.3436 140.036-61.1136 131.457-26.2735ZM82.7065-67.6136L85.5664-79.3136L78.4165-81.1336L75.5564-69.6936C73.7363-70.2136 71.7863-70.6035 69.8364-70.9936L72.6963-82.4337L65.5464-84.2536L62.6864-72.5537C61.1264-72.9437 59.5664-73.2037 58.1364-73.5937L58.1364-73.5937L48.2564-76.0638L46.3065-68.3938C46.3065-68.3938 51.6364-67.2237 51.5064-67.0937C54.3664-66.3138 54.8864-64.4937 54.8864-62.9338L51.5064-49.5438C51.7663-49.5438 52.0265-49.4138 52.2863-49.2838C52.0265-49.2838 51.7663-49.4138 51.5064-49.4138L46.8265-30.6937C46.4364-29.7838 45.5265-28.4837 43.5765-29.0036C43.7064-28.8737 38.3764-30.3037 38.3764-30.3037L34.8665-22.1136L44.0965-19.7735C45.7866-19.3835 47.4764-18.8636 49.1665-18.4735L46.1765-6.64351L53.3265-4.82356L56.1864-16.5235C58.1364-16.0035 60.0864-15.4835 61.9065-15.0936L59.0465-3.39351L66.1965-1.57356L69.1865-13.4035C81.4067-11.0634 90.5066-11.9735 94.4067-23.0235C97.5266-31.8636 94.2766-36.9334 87.9067-40.3136C92.5866-41.3536 96.0966-44.4735 97.0066-50.8436C98.3064-59.9436 91.6765-64.6235 82.7065-67.6136Z"/>
  </g>
  <g id="Regular-L" transform="matrix(1 0 0 1 1381.46 1556)">
   <path d="M80.7563-28.3536C78.5465-19.5136 63.5964-24.3237 58.7863-25.4937L62.6864-41.2237C67.4963-40.0537 82.9663-37.7136 80.7563-28.3536ZM68.0163-62.6735L64.5063-48.3735C68.5363-47.3334 80.8863-43.3035 82.9663-51.3636C85.0462-59.8136 72.0462-61.6336 68.0163-62.6735ZM131.456-26.2735C122.746 8.56658 87.5163 29.7564 52.6764 21.0466C17.8364 12.3366-3.35355-22.8935 5.35641-57.7335C14.0663-92.5736 49.2965-113.763 84.1363-105.054C118.846-96.3436 140.036-61.1136 131.456-26.2735ZM82.7064-67.6136L85.5663-79.3136L78.4163-81.1336L75.5564-69.6936C73.7363-70.2136 71.7863-70.6035 69.8364-70.9936L72.6963-82.4337L65.5462-84.2536L62.6864-72.5537C61.1264-72.9437 59.5663-73.2037 58.1363-73.5937L58.1363-73.5937L48.2563-76.0638L46.3064-68.3938C46.3064-68.3938 51.6363-67.2237 51.5063-67.0937C54.3663-66.3138 54.8863-64.4937 54.8863-62.9338L51.5063-49.5438C51.7663-49.5438 52.0265-49.4138 52.2863-49.2838C52.0265-49.2838 51.7663-49.4138 51.5063-49.4138L46.8264-30.6937C46.4364-29.7838 45.5265-28.4837 43.5764-29.0036C43.7064-28.8737 38.3764-30.3037 38.3764-30.3037L34.8664-22.1136L44.0964-19.7735C45.7865-19.3835 47.4764-18.8636 49.1665-18.4735L46.1764-6.64351L53.3264-4.82356L56.1864-16.5235C58.1363-16.0035 60.0864-15.4835 61.9063-15.0936L59.0465-3.39351L66.1964-1.57356L69.1865-13.4035C81.4066-11.0634 90.5066-11.9735 94.4066-23.0235C97.5266-31.8636 94.2766-36.9334 87.9066-40.3136C92.5865-41.3536 96.0966-44.4735 97.0066-50.8436C98.3064-59.9436 91.6764-64.6235 82.7064-67.6136Z"/>
  </g>
  <g id="Semibold-M" transform="matrix(1 0 0 1 1989.88 1126)">
   <path d="M62.9049-29.9951C61.205-23.195 49.705-26.8951 46.0049-27.7951L49.0049-39.8951C52.705-38.9951 64.6049-37.195 62.9049-29.9951ZM53.1049-56.395L50.4049-45.395C53.505-44.5949 63.005-41.495 64.6049-47.695C66.205-54.195 56.205-55.5951 53.1049-56.395ZM101.905-28.395C95.205-1.59495 68.1049 14.705 41.305 8.00503C14.5049 1.30508-1.79502-25.795 4.90493-52.5949C11.6049-79.395 38.705-95.6949 65.505-88.995C92.205-82.295 108.505-55.195 101.905-28.395ZM64.4049-60.195L66.6049-69.195L61.1049-70.5951L58.9049-61.795C57.505-62.195 56.005-62.495 54.505-62.795L56.705-71.5951L51.2049-72.9951L49.0049-63.9951C47.805-64.2951 46.6049-64.4951 45.5049-64.7951L45.5049-64.7951L37.9049-66.6952L36.4049-60.7951C36.4049-60.7951 40.5049-59.8951 40.4049-59.7951C42.6049-59.1952 43.0049-57.7951 43.0049-56.5952L40.4049-46.2951C40.6049-46.2951 40.805-46.1952 41.0049-46.0952C40.805-46.0952 40.6049-46.1952 40.4049-46.1952L36.805-31.7951C36.5049-31.0952 35.805-30.0952 34.305-30.4951C34.4049-30.3951 30.305-31.4951 30.305-31.4951L27.605-25.195L34.705-23.395C36.005-23.0949 37.305-22.695 38.605-22.395L36.305-13.295L41.805-11.895L44.0049-20.895C45.5049-20.495 47.0049-20.0949 48.4049-19.795L46.205-10.795L51.705-9.395L54.005-18.495C63.4052-16.6949 70.4052-17.395 73.4052-25.895C75.8051-32.695 73.3051-36.5949 68.4052-39.195C72.005-39.9951 74.7052-42.395 75.4052-47.295C76.4049-54.295 71.3051-57.895 64.4049-60.195Z"/>
  </g>
  <g id="Regular-M" transform="matrix(1 0 0 1 1396.46 1126)">
   <path d="M62.9049-29.9951C61.205-23.195 49.705-26.8951 46.0049-27.7951L49.0049-39.8951C52.7049-38.9951 64.6049-37.195 62.9049-29.9951ZM53.1049-56.395L50.4049-45.395C53.5049-44.5949 63.0049-41.495 64.6049-47.695C66.2049-54.195 56.2049-55.5951 53.1049-56.395ZM101.905-28.395C95.205-1.59495 68.1049 14.705 41.305 8.00503C14.5049 1.30508-1.79502-25.795 4.90493-52.5949C11.6049-79.395 38.705-95.6949 65.5049-88.995C92.2049-82.295 108.505-55.195 101.905-28.395ZM64.4049-60.195L66.6049-69.195L61.1049-70.5951L58.9049-61.795C57.5049-62.195 56.0049-62.495 54.5049-62.795L56.7049-71.5951L51.2049-72.9951L49.0049-63.9951C47.805-64.2951 46.6049-64.4951 45.5049-64.7951L45.5049-64.7951L37.9049-66.6952L36.4049-60.7951C36.4049-60.7951 40.5049-59.8951 40.4049-59.7951C42.6049-59.1952 43.0049-57.7951 43.0049-56.5952L40.4049-46.2951C40.6049-46.2951 40.805-46.1952 41.0049-46.0952C40.805-46.0952 40.6049-46.1952 40.4049-46.1952L36.805-31.7951C36.5049-31.0952 35.805-30.0952 34.305-30.4951C34.4049-30.3951 30.305-31.4951 30.305-31.4951L27.605-25.195L34.705-23.395C36.005-23.0949 37.305-22.695 38.605-22.395L36.305-13.295L41.805-11.895L44.0049-20.895C45.5049-20.495 47.0049-20.0949 48.4049-19.795L46.205-10.795L51.705-9.395L54.005-18.495C63.4051-16.6949 70.4051-17.395 73.4051-25.895C75.8051-32.695 73.3051-36.5949 68.4051-39.195C72.005-39.9951 74.7051-42.395 75.4051-47.295C76.4049-54.295 71.305-57.895 64.4049-60.195Z"/>
  </g>
  <g id="Semibold-S" transform="matrix(1 0 0 1 1999.88 696)">
   <path d="M51.0039-31.0061C49.6441-25.5661 40.444-28.5262 37.4839-29.2462L39.8839-38.9262C42.8438-38.2062 52.3638-36.7661 51.0039-31.0061ZM43.1639-52.1261L41.0039-43.3261C43.4839-42.686 51.084-40.206 52.3638-45.1661C53.6438-50.3661 45.6438-51.4861 43.1639-52.1261ZM82.2039-29.7261C76.844-8.28606 55.1639 4.75392 33.724-0.606064C12.284-5.96599-0.75595-27.6461 4.60391-49.086C9.9639-70.526 31.644-83.566 53.084-78.206C74.4439-72.8461 87.4839-51.1661 82.2039-29.7261ZM52.2039-55.1661L53.9639-62.3661L49.564-63.4861L47.804-56.4461C46.6839-56.7661 45.4839-57.006 44.284-57.2461L46.044-64.2861L41.644-65.4062L39.8839-58.2062C38.924-58.4462 37.9639-58.6061 37.0839-58.8462L37.0839-58.8462L31.0039-60.3662L29.804-55.6462C29.804-55.6462 33.0839-54.9262 33.0039-54.8462C34.7639-54.3662 35.0839-53.2462 35.0839-52.2862L33.0039-44.0462C33.164-44.0462 33.324-43.9662 33.4839-43.8862C33.324-43.8862 33.164-43.9662 33.0039-43.9662L30.1239-32.4462C29.8839-31.8862 29.324-31.0862 28.1239-31.4062C28.204-31.3262 24.924-32.2062 24.924-32.2062L22.7641-27.1661L28.444-25.7261C29.484-25.486 30.524-25.1661 31.564-24.9261L29.724-17.6461L34.1239-16.526L35.8839-23.7261C37.0839-23.4061 38.284-23.086 39.404-22.8461L37.644-15.6461L42.044-14.526L43.8841-21.8061C51.4041-20.366 57.0039-20.9261 59.4041-27.7261C61.324-33.1661 59.324-36.2861 55.4041-38.3661C58.284-39.0061 60.4441-40.9261 61.0039-44.8461C61.804-50.4461 57.7239-53.3261 52.2039-55.1661Z"/>
  </g>
  <g id="Regular-S" transform="matrix(1 0 0 1 1406.46 696)">
   <path d="M51.004-31.0061C49.644-25.5661 40.4439-28.5262 37.484-29.2462L39.8839-38.9262C42.8438-38.2062 52.3638-36.7661 51.004-31.0061ZM43.1639-52.1261L41.004-43.3261C43.484-42.686 51.0839-40.206 52.3638-45.1661C53.6439-50.3661 45.6439-51.4861 43.1639-52.1261ZM82.2039-29.7261C76.844-8.28606 55.1639 4.75392 33.724-0.606064C12.2839-5.96599-0.756024-27.6461 4.60396-49.086C9.96395-70.526 31.644-83.566 53.0839-78.206C74.4439-72.8461 87.484-51.1661 82.2039-29.7261ZM52.2039-55.1661L53.9639-62.3661L49.5639-63.4861L47.8039-56.4461C46.6839-56.7661 45.484-57.006 44.2839-57.2461L46.0439-64.2861L41.6439-65.4062L39.8839-58.2062C38.9239-58.4462 37.9639-58.6061 37.0839-58.8462L37.0839-58.8462L31.004-60.3662L29.8039-55.6462C29.8039-55.6462 33.0839-54.9262 33.004-54.8462C34.7639-54.3662 35.0839-53.2462 35.0839-52.2862L33.004-44.0462C33.1639-44.0462 33.3239-43.9662 33.484-43.8862C33.3239-43.8862 33.1639-43.9662 33.004-43.9662L30.124-32.4462C29.8839-31.8862 29.3239-31.0862 28.124-31.4062C28.2039-31.3262 24.9239-32.2062 24.9239-32.2062L22.764-27.1661L28.4439-25.7261C29.484-25.486 30.524-25.1661 31.564-24.9261L29.724-17.6461L34.124-16.526L35.8839-23.7261C37.0839-23.4061 38.2839-23.086 39.4039-22.8461L37.644-15.6461L42.044-14.526L43.884-21.8061C51.404-20.366 57.004-20.9261 59.404-27.7261C61.3241-33.1661 59.3241-36.2861 55.404-38.3661C58.284-39.0061 60.444-40.9261 61.004-44.8461C61.8039-50.4461 57.724-53.3261 52.2039-55.1661Z"/>
  </g>
 </g>
</svg>
