<?xml version="1.0" encoding="UTF-8"?>
<!--Generator: Apple Native CoreSVG 175-->
<!DOCTYPE svg
PUBLIC "-//W3C//DTD SVG 1.1//EN"
       "http://www.w3.org/Graphics/SVG/1.1/DTD/svg11.dtd">
<svg version="1.1" xmlns="http://www.w3.org/2000/svg" xmlns:xlink="http://www.w3.org/1999/xlink" width="3300" height="2200">
 <!--glyph: "", point size: 100.0, font version: "17.1d1e1", template writer version: "65.1"-->
 <style>.hierarchical-0:secondary {fill:#4D4D4D}
.hierarchical-1:primary {fill:#212121}

.SFSymbolsPreview212121 {fill:#212121;opacity:1.0}
.SFSymbolsPreview4D4D4D {fill:#4D4D4D;opacity:1.0}
</style>
 <g id="Notes">
  <rect height="2200" id="artboard" style="fill:white;opacity:1" width="3300" x="0" y="0"/>
  <line style="fill:none;stroke:black;opacity:1;stroke-width:0.5;" x1="263" x2="3036" y1="292" y2="292"/>
  <text style="stroke:none;fill:black;font-family:sans-serif;font-size:13;font-weight:bold;" transform="matrix(1 0 0 1 263 322)">Weight/Scale Variations</text>
  <text style="stroke:none;fill:black;font-family:sans-serif;font-size:13;text-anchor:middle;" transform="matrix(1 0 0 1 559.711 322)">Ultralight</text>
  <text style="stroke:none;fill:black;font-family:sans-serif;font-size:13;text-anchor:middle;" transform="matrix(1 0 0 1 856.422 322)">Thin</text>
  <text style="stroke:none;fill:black;font-family:sans-serif;font-size:13;text-anchor:middle;" transform="matrix(1 0 0 1 1153.13 322)">Light</text>
  <text style="stroke:none;fill:black;font-family:sans-serif;font-size:13;text-anchor:middle;" transform="matrix(1 0 0 1 1449.84 322)">Regular</text>
  <text style="stroke:none;fill:black;font-family:sans-serif;font-size:13;text-anchor:middle;" transform="matrix(1 0 0 1 1746.56 322)">Medium</text>
  <text style="stroke:none;fill:black;font-family:sans-serif;font-size:13;text-anchor:middle;" transform="matrix(1 0 0 1 2043.27 322)">Semibold</text>
  <text style="stroke:none;fill:black;font-family:sans-serif;font-size:13;text-anchor:middle;" transform="matrix(1 0 0 1 2339.98 322)">Bold</text>
  <text style="stroke:none;fill:black;font-family:sans-serif;font-size:13;text-anchor:middle;" transform="matrix(1 0 0 1 2636.69 322)">Heavy</text>
  <text style="stroke:none;fill:black;font-family:sans-serif;font-size:13;text-anchor:middle;" transform="matrix(1 0 0 1 2933.4 322)">Black</text>
  <line style="fill:none;stroke:black;opacity:1;stroke-width:0.5;" x1="263" x2="3036" y1="1903" y2="1903"/>
  <g transform="matrix(1 0 0 1 263 1933)">
   <path d="M9.24805 0.830078Q10.8691 0.830078 12.2949 0.214844Q13.7207-0.400391 14.8096-1.49414Q15.8984-2.58789 16.5186-4.01367Q17.1387-5.43945 17.1387-7.05078Q17.1387-8.66211 16.5186-10.0879Q15.8984-11.5137 14.8047-12.6074Q13.7109-13.7012 12.2852-14.3164Q10.8594-14.9316 9.23828-14.9316Q7.62695-14.9316 6.20117-14.3164Q4.77539-13.7012 3.69141-12.6074Q2.60742-11.5137 1.9873-10.0879Q1.36719-8.66211 1.36719-7.05078Q1.36719-5.43945 1.9873-4.01367Q2.60742-2.58789 3.69629-1.49414Q4.78516-0.400391 6.21094 0.214844Q7.63672 0.830078 9.24805 0.830078ZM9.24805-0.654297Q7.91992-0.654297 6.7627-1.14746Q5.60547-1.64062 4.73145-2.51953Q3.85742-3.39844 3.36426-4.56055Q2.87109-5.72266 2.87109-7.05078Q2.87109-8.37891 3.35938-9.54102Q3.84766-10.7031 4.72168-11.582Q5.5957-12.4609 6.75293-12.9541Q7.91016-13.4473 9.23828-13.4473Q10.5762-13.4473 11.7334-12.9541Q12.8906-12.4609 13.7695-11.582Q14.6484-10.7031 15.1465-9.54102Q15.6445-8.37891 15.6445-7.05078Q15.6445-5.72266 15.1514-4.56055Q14.6582-3.39844 13.7842-2.51953Q12.9102-1.64062 11.748-1.14746Q10.5859-0.654297 9.24805-0.654297ZM5.6543-7.05078Q5.6543-6.72852 5.85938-6.52832Q6.06445-6.32812 6.40625-6.32812L8.51562-6.32812L8.51562-4.20898Q8.51562-3.88672 8.71094-3.67676Q8.90625-3.4668 9.23828-3.4668Q9.56055-3.4668 9.77051-3.67676Q9.98047-3.88672 9.98047-4.20898L9.98047-6.32812L12.0898-6.32812Q12.4219-6.32812 12.627-6.52832Q12.832-6.72852 12.832-7.05078Q12.832-7.38281 12.627-7.58789Q12.4219-7.79297 12.0898-7.79297L9.98047-7.79297L9.98047-9.90234Q9.98047-10.2344 9.77051-10.4443Q9.56055-10.6543 9.23828-10.6543Q8.90625-10.6543 8.71094-10.4443Q8.51562-10.2344 8.51562-9.90234L8.51562-7.79297L6.40625-7.79297Q6.06445-7.79297 5.85938-7.58789Q5.6543-7.38281 5.6543-7.05078Z"/>
  </g>
  <g transform="matrix(1 0 0 1 281.867 1933)">
   <path d="M11.709 2.91016Q13.75 2.91016 15.5518 2.12891Q17.3535 1.34766 18.7305-0.0292969Q20.1074-1.40625 20.8887-3.20801Q21.6699-5.00977 21.6699-7.05078Q21.6699-9.0918 20.8887-10.8936Q20.1074-12.6953 18.7305-14.0723Q17.3535-15.4492 15.5469-16.2305Q13.7402-17.0117 11.6992-17.0117Q9.6582-17.0117 7.85645-16.2305Q6.05469-15.4492 4.68262-14.0723Q3.31055-12.6953 2.5293-10.8936Q1.74805-9.0918 1.74805-7.05078Q1.74805-5.00977 2.5293-3.20801Q3.31055-1.40625 4.6875-0.0292969Q6.06445 1.34766 7.86621 2.12891Q9.66797 2.91016 11.709 2.91016ZM11.709 1.25Q9.98047 1.25 8.47656 0.605469Q6.97266-0.0390625 5.83496-1.17676Q4.69727-2.31445 4.05762-3.81836Q3.41797-5.32227 3.41797-7.05078Q3.41797-8.7793 4.05762-10.2832Q4.69727-11.7871 5.83008-12.9297Q6.96289-14.0723 8.4668-14.7119Q9.9707-15.3516 11.6992-15.3516Q13.4277-15.3516 14.9316-14.7119Q16.4355-14.0723 17.5781-12.9297Q18.7207-11.7871 19.3652-10.2832Q20.0098-8.7793 20.0098-7.05078Q20.0098-5.32227 19.3701-3.81836Q18.7305-2.31445 17.5928-1.17676Q16.4551-0.0390625 14.9463 0.605469Q13.4375 1.25 11.709 1.25ZM7.17773-7.05078Q7.17773-6.69922 7.41211-6.47461Q7.64648-6.25 8.01758-6.25L10.8887-6.25L10.8887-3.36914Q10.8887-2.99805 11.1133-2.76855Q11.3379-2.53906 11.6895-2.53906Q12.0605-2.53906 12.29-2.76855Q12.5195-2.99805 12.5195-3.36914L12.5195-6.25L15.4004-6.25Q15.7715-6.25 16.001-6.47461Q16.2305-6.69922 16.2305-7.05078Q16.2305-7.42188 16.001-7.65137Q15.7715-7.88086 15.4004-7.88086L12.5195-7.88086L12.5195-10.752Q12.5195-11.1328 12.29-11.3623Q12.0605-11.5918 11.6895-11.5918Q11.3379-11.5918 11.1133-11.3574Q10.8887-11.123 10.8887-10.752L10.8887-7.88086L8.01758-7.88086Q7.63672-7.88086 7.40723-7.65137Q7.17773-7.42188 7.17773-7.05078Z"/>
  </g>
  <g transform="matrix(1 0 0 1 305.646 1933)">
   <path d="M14.9707 5.66406Q17.0605 5.66406 18.96 5.01465Q20.8594 4.36523 22.4512 3.19336Q24.043 2.02148 25.2197 0.429688Q26.3965-1.16211 27.0459-3.06641Q27.6953-4.9707 27.6953-7.05078Q27.6953-9.14062 27.0459-11.04Q26.3965-12.9395 25.2197-14.5312Q24.043-16.123 22.4512-17.2998Q20.8594-18.4766 18.9551-19.126Q17.0508-19.7754 14.9609-19.7754Q12.8711-19.7754 10.9717-19.126Q9.07227-18.4766 7.48535-17.2998Q5.89844-16.123 4.72168-14.5312Q3.54492-12.9395 2.90039-11.04Q2.25586-9.14062 2.25586-7.05078Q2.25586-4.9707 2.90527-3.06641Q3.55469-1.16211 4.72656 0.429688Q5.89844 2.02148 7.49023 3.19336Q9.08203 4.36523 10.9814 5.01465Q12.8809 5.66406 14.9707 5.66406ZM14.9707 3.84766Q13.1641 3.84766 11.5283 3.2959Q9.89258 2.74414 8.53516 1.74805Q7.17773 0.751953 6.17676-0.610352Q5.17578-1.97266 4.62891-3.6084Q4.08203-5.24414 4.08203-7.05078Q4.08203-8.86719 4.62891-10.5029Q5.17578-12.1387 6.17188-13.501Q7.16797-14.8633 8.52539-15.8594Q9.88281-16.8555 11.5186-17.4023Q13.1543-17.9492 14.9609-17.9492Q16.7773-17.9492 18.4131-17.4023Q20.0488-16.8555 21.4111-15.8594Q22.7734-14.8633 23.7695-13.501Q24.7656-12.1387 25.3174-10.5029Q25.8691-8.86719 25.8691-7.05078Q25.8789-5.24414 25.332-3.6084Q24.7852-1.97266 23.7842-0.610352Q22.7832 0.751953 21.4209 1.74805Q20.0586 2.74414 18.4229 3.2959Q16.7871 3.84766 14.9707 3.84766ZM9.19922-7.05078Q9.19922-6.66992 9.45801-6.4209Q9.7168-6.17188 10.1172-6.17188L14.0625-6.17188L14.0625-2.2168Q14.0625-1.81641 14.3115-1.55762Q14.5605-1.29883 14.9512-1.29883Q15.3516-1.29883 15.6104-1.55273Q15.8691-1.80664 15.8691-2.2168L15.8691-6.17188L19.8242-6.17188Q20.2246-6.17188 20.4785-6.4209Q20.7324-6.66992 20.7324-7.05078Q20.7324-7.46094 20.4785-7.71484Q20.2246-7.96875 19.8242-7.96875L15.8691-7.96875L15.8691-11.9141Q15.8691-12.3242 15.6104-12.583Q15.3516-12.8418 14.9512-12.8418Q14.5605-12.8418 14.3115-12.583Q14.0625-12.3242 14.0625-11.9141L14.0625-7.96875L10.1172-7.96875Q9.70703-7.96875 9.45312-7.71484Q9.19922-7.46094 9.19922-7.05078Z"/>
  </g>
  <text style="stroke:none;fill:black;font-family:sans-serif;font-size:13;font-weight:bold;" transform="matrix(1 0 0 1 263 1953)">Design Variations</text>
  <text style="stroke:none;fill:black;font-family:sans-serif;font-size:13;" transform="matrix(1 0 0 1 263 1971)">Symbols are supported in up to nine weights and three scales.</text>
  <text style="stroke:none;fill:black;font-family:sans-serif;font-size:13;" transform="matrix(1 0 0 1 263 1989)">For optimal layout with text and other symbols, vertically align</text>
  <text style="stroke:none;fill:black;font-family:sans-serif;font-size:13;" transform="matrix(1 0 0 1 263 2007)">symbols with the adjacent text.</text>
  <line style="fill:none;stroke:#00AEEF;stroke-width:0.5;opacity:1.0;" x1="776" x2="776" y1="1919" y2="1933"/>
  <g transform="matrix(1 0 0 1 776 1933)">
   <path d="M3.31055 0.15625Q3.70117 0.15625 3.91602-0.00976562Q4.13086-0.175781 4.26758-0.585938L5.52734-4.0332L11.2891-4.0332L12.5488-0.585938Q12.6855-0.175781 12.9004-0.00976562Q13.1152 0.15625 13.4961 0.15625Q13.8867 0.15625 14.1162-0.0585938Q14.3457-0.273438 14.3457-0.644531Q14.3457-0.869141 14.2383-1.17188L9.6582-13.3691Q9.48242-13.8184 9.17969-14.043Q8.87695-14.2676 8.4082-14.2676Q7.5-14.2676 7.17773-13.3789L2.59766-1.16211Q2.49023-0.859375 2.49023-0.634766Q2.49023-0.263672 2.70996-0.0537109Q2.92969 0.15625 3.31055 0.15625ZM6.00586-5.51758L8.37891-12.0898L8.42773-12.0898L10.8008-5.51758Z"/>
  </g>
  <line style="fill:none;stroke:#00AEEF;stroke-width:0.5;opacity:1.0;" x1="793.197" x2="793.197" y1="1919" y2="1933"/>
  <text style="stroke:none;fill:black;font-family:sans-serif;font-size:13;font-weight:bold;" transform="matrix(1 0 0 1 776 1953)">Margins</text>
  <text style="stroke:none;fill:black;font-family:sans-serif;font-size:13;" transform="matrix(1 0 0 1 776 1971)">Leading and trailing margins on the left and right side of each symbol</text>
  <text style="stroke:none;fill:black;font-family:sans-serif;font-size:13;" transform="matrix(1 0 0 1 776 1989)">can be adjusted by modifying the x-location of the margin guidelines.</text>
  <text style="stroke:none;fill:black;font-family:sans-serif;font-size:13;" transform="matrix(1 0 0 1 776 2007)">Modifications are automatically applied proportionally to all</text>
  <text style="stroke:none;fill:black;font-family:sans-serif;font-size:13;" transform="matrix(1 0 0 1 776 2025)">scales and weights.</text>
  <g transform="matrix(1 0 0 1 1289 1933)">
   <path d="M2.8418 1.86523L4.54102 3.57422Q5.18555 4.22852 5.90332 4.17969Q6.62109 4.13086 7.31445 3.35938L18.0078-8.42773L17.041-9.4043L6.42578 2.27539Q6.16211 2.57812 5.89355 2.61719Q5.625 2.65625 5.27344 2.30469L4.10156 1.14258Q3.75 0.791016 3.79395 0.522461Q3.83789 0.253906 4.14062-0.0195312L15.6152-10.8203L14.6387-11.7871L3.04688-0.898438Q2.30469-0.214844 2.25098 0.498047Q2.19727 1.21094 2.8418 1.86523ZM9.25781-16.3281Q8.94531-16.0254 8.90625-15.6348Q8.86719-15.2441 9.04297-14.9512Q9.21875-14.6777 9.55566-14.541Q9.89258-14.4043 10.3809-14.5215Q11.4746-14.7754 12.5977-14.7314Q13.7207-14.6875 14.7949-13.9844L14.209-12.5293Q13.9551-11.9043 14.0674-11.4404Q14.1797-10.9766 14.5801-10.5664L16.875-8.25195Q17.2363-7.88086 17.5781-7.82227Q17.9199-7.76367 18.3398-7.8418L19.4043-8.03711L20.0684-7.36328L20.0293-6.80664Q20-6.43555 20.1221-6.12305Q20.2441-5.81055 20.6055-5.44922L21.3672-4.70703Q21.7285-4.3457 22.1533-4.33105Q22.5781-4.31641 22.9297-4.66797L25.8398-7.58789Q26.1914-7.93945 26.1816-8.35449Q26.1719-8.76953 25.8105-9.13086L25.0391-9.89258Q24.6875-10.2539 24.3799-10.3857Q24.0723-10.5176 23.7109-10.4883L23.1348-10.4395L22.4902-11.0742L22.7344-12.1973Q22.832-12.6172 22.6953-12.9834Q22.5586-13.3496 22.1191-13.7891L19.9219-15.9766Q18.6719-17.2168 17.2607-17.8369Q15.8496-18.457 14.4189-18.4814Q12.9883-18.5059 11.665-17.959Q10.3418-17.4121 9.25781-16.3281ZM10.752-15.957Q11.6602-16.6211 12.7002-16.9043Q13.7402-17.1875 14.8047-17.085Q15.8691-16.9824 16.8701-16.5137Q17.8711-16.0449 18.7012-15.2051L21.1328-12.793Q21.3086-12.6172 21.3525-12.4512Q21.3965-12.2852 21.3379-12.0312L21.0156-10.5469L22.5195-9.0625L23.5059-9.12109Q23.6914-9.13086 23.7891-9.09668Q23.8867-9.0625 24.0332-8.91602L24.6094-8.33984L22.168-5.89844L21.5918-6.47461Q21.4453-6.62109 21.4062-6.71875Q21.3672-6.81641 21.377-7.01172L21.4453-7.98828L19.9512-9.47266L18.4277-9.21875Q18.1836-9.16992 18.042-9.2041Q17.9004-9.23828 17.7148-9.41406L15.7129-11.416Q15.5176-11.5918 15.4932-11.7529Q15.4688-11.9141 15.5859-12.1875L16.4648-14.2773Q15.293-15.3711 13.8281-15.791Q12.3633-16.2109 10.8398-15.7617Q10.7227-15.7324 10.6885-15.8057Q10.6543-15.8789 10.752-15.957Z"/>
  </g>
  <text style="stroke:none;fill:black;font-family:sans-serif;font-size:13;font-weight:bold;" transform="matrix(1 0 0 1 1289 1953)">Exporting</text>
  <text style="stroke:none;fill:black;font-family:sans-serif;font-size:13;" transform="matrix(1 0 0 1 1289 1971)">Symbols should be outlined when exporting to ensure the</text>
  <text style="stroke:none;fill:black;font-family:sans-serif;font-size:13;" transform="matrix(1 0 0 1 1289 1989)">design is preserved when submitting to Xcode.</text>
  <text id="template-version" style="stroke:none;fill:black;font-family:sans-serif;font-size:13;text-anchor:end;" transform="matrix(1 0 0 1 3036 1933)">Template v.3.0</text>
  <text style="stroke:none;fill:black;font-family:sans-serif;font-size:13;text-anchor:end;" transform="matrix(1 0 0 1 3036 1951)">Requires Xcode 13 or greater</text>
  <text id="descriptive-name" style="stroke:none;fill:black;font-family:sans-serif;font-size:13;text-anchor:end;" transform="matrix(1 0 0 1 3036 1969)">Generated from asset.bch</text>
  <text style="stroke:none;fill:black;font-family:sans-serif;font-size:13;text-anchor:end;" transform="matrix(1 0 0 1 3036 1987)">Typeset at 100 points</text>
  <text style="stroke:none;fill:black;font-family:sans-serif;font-size:13;" transform="matrix(1 0 0 1 263 726)">Small</text>
  <text style="stroke:none;fill:black;font-family:sans-serif;font-size:13;" transform="matrix(1 0 0 1 263 1156)">Medium</text>
  <text style="stroke:none;fill:black;font-family:sans-serif;font-size:13;" transform="matrix(1 0 0 1 263 1586)">Large</text>
 </g>
 <g id="Guides">
  <g id="H-reference" style="fill:#27AAE1;stroke:none;" transform="matrix(1 0 0 1 339 696)">
   <path d="M0.993347 0L3.6377 0L29.3282-67.1326L30.0301-67.1326L30.0301-70.459L28.1227-70.459ZM11.6882-24.4797L46.9818-24.4797L46.2311-26.7288L12.4382-26.7288ZM55.1193 0L57.7637 0L30.6381-70.459L29.4327-70.459L29.4327-67.1326Z"/>
  </g>
  <line id="Baseline-S" style="fill:none;stroke:#27AAE1;opacity:1;stroke-width:0.5;" x1="263" x2="3036" y1="696" y2="696"/>
  <line id="Capline-S" style="fill:none;stroke:#27AAE1;opacity:1;stroke-width:0.5;" x1="263" x2="3036" y1="625.541" y2="625.541"/>
  <g id="H-reference" style="fill:#27AAE1;stroke:none;" transform="matrix(1 0 0 1 339 1126)">
   <path d="M0.993347 0L3.6377 0L29.3282-67.1326L30.0301-67.1326L30.0301-70.459L28.1227-70.459ZM11.6882-24.4797L46.9818-24.4797L46.2311-26.7288L12.4382-26.7288ZM55.1193 0L57.7637 0L30.6381-70.459L29.4327-70.459L29.4327-67.1326Z"/>
  </g>
  <line id="Baseline-M" style="fill:none;stroke:#27AAE1;opacity:1;stroke-width:0.5;" x1="263" x2="3036" y1="1126" y2="1126"/>
  <line id="Capline-M" style="fill:none;stroke:#27AAE1;opacity:1;stroke-width:0.5;" x1="263" x2="3036" y1="1055.54" y2="1055.54"/>
  <g id="H-reference" style="fill:#27AAE1;stroke:none;" transform="matrix(1 0 0 1 339 1556)">
   <path d="M0.993347 0L3.6377 0L29.3282-67.1326L30.0301-67.1326L30.0301-70.459L28.1227-70.459ZM11.6882-24.4797L46.9818-24.4797L46.2311-26.7288L12.4382-26.7288ZM55.1193 0L57.7637 0L30.6381-70.459L29.4327-70.459L29.4327-67.1326Z"/>
  </g>
  <line id="Baseline-L" style="fill:none;stroke:#27AAE1;opacity:1;stroke-width:0.5;" x1="263" x2="3036" y1="1556" y2="1556"/>
  <line id="Capline-L" style="fill:none;stroke:#27AAE1;opacity:1;stroke-width:0.5;" x1="263" x2="3036" y1="1485.54" y2="1485.54"/>
  <line id="left-margin-Regular-M" style="fill:none;stroke:#00AEEF;stroke-width:0.5;opacity:1.0;" x1="1360.89" x2="1360.89" y1="1030.73" y2="1150.14"/>
  <line id="right-margin-Regular-M" style="fill:none;stroke:#00AEEF;stroke-width:0.5;opacity:1.0;" x1="1538.79" x2="1538.79" y1="1030.73" y2="1150.14"/>
 </g>
 <g id="Symbols">
  <g id="Semibold-L" transform="matrix(1 0 0 1 1930.13 1556)">
   <path class="hierarchical-0:secondary SFSymbolsPreview4D4D4D" d="M34.4662-35.5969C34.4662-8.82019 47.7784 14.8412 68.1497 29.135L8.6698 29.135L8.6698-100.329L68.1511-100.329C47.7784-86.0366 34.4662-62.3754 34.4662-35.5969ZM158.854 29.157C179.226 14.8643 192.538-8.797 192.538-35.5752C192.538-62.3534 179.226-86.0366 158.854-100.329L218.269-100.329L218.269 29.157L158.854 29.157Z"/>
   <path class="hierarchical-1:primary SFSymbolsPreview212121" d="M113.47-100.317C149.196-100.317 178.158-71.3547 178.158-35.6283C178.158 0.0980225 149.196 29.0599 113.47 29.0599C77.7437 29.0599 48.7817 0.0980224 48.7817-35.6283C48.7817-71.3547 77.7437-100.317 113.47-100.317ZM143.81-32.9404L143.774-33.0072L143.768-33.0183C143.747-33.0858 143.73-33.1561 143.705-33.2289L143.702-33.2345L143.699-33.2402L143.696-33.246L143.693-33.2515L143.69-33.2572L143.687-33.2629L143.681-33.274C142.922-35.8134 141.416-38.0658 139.36-39.7386L139.357-39.7441C139.296-39.7906 139.233-39.8424 139.172-39.8888L139.088-39.9513L139.027-39.9974L139.001-40.0192L138.943-40.0599L138.917-40.0817L138.859-40.1224L138.833-40.1443L138.772-40.1904L138.74-40.2095L138.679-40.2556L138.647-40.2745L138.582-40.3181L138.55-40.337L138.511-40.3954L138.477-40.4199L138.412-40.4635L138.377-40.4878L138.311-40.5315L138.276-40.5559L138.21-40.5994L138.176-40.6238L138.106-40.6727L138.072-40.6969L137.997-40.7429L137.962-40.7675L137.887-40.8132L137.853-40.8378L137.777-40.8838L137.743-40.9082L137.668-40.954L137.628-40.976L137.553-41.0219L137.512-41.0437L137.432-41.0872L137.392-41.1091L137.308-41.1573L137.267-41.1792L137.184-41.2274L137.144-41.2494L137.06-41.2977L137.016-41.3247L136.933-41.3732L136.889-41.4001L136.8-41.4457L136.756-41.4727L136.667-41.5182L136.607-41.5504L136.604-41.5562C136.56-41.5831 136.515-41.6017 136.471-41.6287C134.622-42.5792 132.625-43.2103 130.565-43.495C131.143-44.1158 131.672-44.7803 132.147-45.4824L132.223-45.5951L132.229-45.5981L132.264-45.6531L132.31-45.7279L132.334-45.7626L132.38-45.8376L132.405-45.8722L132.45-45.9471L132.475-45.9818L132.521-46.0568L132.545-46.0913L132.591-46.1663L132.616-46.2011L132.656-46.2731L132.68-46.3076L132.721-46.3799L132.74-46.4116L132.78-46.4838L132.799-46.5155L132.839-46.5878L132.858-46.6195L132.893-46.6885L132.912-46.7205L132.946-46.7894L132.965-46.8212L133-46.8904L133.019-46.9221L133.056-46.9856L133.075-47.0173L133.113-47.0808L133.132-47.1125L133.164-47.1729L133.183-47.2047L133.215-47.265L133.229-47.2937L133.261-47.3542L133.274-47.3829L133.306-47.4432L133.32-47.4719L133.352-47.5325L133.365-47.5612L133.392-47.6187L133.405-47.6475L133.432-47.705L133.445-47.7336L133.472-47.7913L133.485-47.8199L133.514-47.8854L133.554-47.9725C133.583-48.0378 133.607-48.1014 133.636-48.1675L133.642-48.1705C134.528-50.3553 134.736-52.7566 134.238-55.061L134.235-55.0668L134.229-55.0779L134.226-55.0835L134.223-55.0891L134.219-55.0948L134.217-55.1006L134.214-55.1061L134.21-55.1118C134.197-55.1772 134.184-55.2412 134.165-55.3031L134.165-55.3174L134.162-55.3229L134.159-55.3286L134.156-55.3344L134.159-55.3286L134.132-55.3788C134.113-55.4688 134.093-55.5587 134.064-55.6512C134.045-55.7412 134.016-55.8339 133.991-55.921L133.958-55.9823L133.952-55.9934C133.933-56.0549 133.914-56.1168 133.895-56.1786L133.892-56.1843L133.889-56.1898L133.886-56.1956L133.883-56.2013L133.88-56.2068L133.877-56.2125L133.874-56.2183C133.2-58.478 131.861-60.4824 130.031-61.9702L130.028-61.9757C129.976-62.0194 129.918-62.0603 129.865-62.104L129.793-62.1583L129.735-62.1992L129.709-62.2209L129.66-62.259L129.634-62.2808L129.584-62.319L129.558-62.3407L129.503-62.3757L129.477-62.3976L129.419-62.4384L129.393-62.4601L129.335-62.5009L129.309-62.5226L129.251-62.5634L129.219-62.5824L129.161-62.623L129.129-62.6421L129.072-62.6829L129.04-62.7018L128.976-62.7395L128.945-62.7584L128.881-62.7961L128.849-62.8151L128.786-62.8528L128.754-62.8717L128.691-62.9094L128.659-62.9283L128.592-62.972L128.561-62.9908L128.494-63.0345L128.462-63.0533L128.39-63.0938L128.358-63.1128L128.286-63.1531L128.252-63.1774L128.18-63.2177L128.145-63.2421L128.073-63.2823L128.039-63.3069L127.964-63.3527L127.923-63.3746L127.848-63.4204L127.808-63.4424L127.727-63.4858L127.687-63.5077L127.606-63.5513L127.549-63.5779L127.546-63.5834L127.425-63.6488C123.892-65.4849 119.404-66.0376 114.889-64.8792L113.714-64.5776L110.743-76.1469L103.859-74.3821L106.82-62.8586L101.31-61.4386L98.3473-72.9252L91.4624-71.1603L94.4236-59.637L80.2253-55.9834L82.1145-48.6409L87.8353-50.1102C89.7289-50.5984 91.6595-49.4591 92.1476-47.5656C92.1481-47.5634 92.1488-47.561 92.1494-47.5587L92.1494-47.5587L100.09-16.6603C100.414-15.3967 99.6537-14.1095 98.3909-13.7831L93.3779-12.4935L93.6725-3.76111L107.854-7.4054L110.853 4.09705L117.735 2.32629L114.772-9.20276L120.279-10.6147L123.243 0.914184L130.125-0.856568L127.15-12.4305C128.316-12.7355 129.32-12.9944 130.013-13.1738C135.102-14.4827 139.217-17.4659 141.707-21.1863L141.792-21.3104L141.797-21.3135L141.838-21.3715L141.892-21.4586L141.919-21.5021L141.973-21.5894L142-21.6329L142.048-21.7166L142.075-21.7601L142.124-21.8438L142.146-21.884L142.194-21.9678L142.216-22.0081L142.264-22.0918L142.286-22.1321L142.329-22.2128L142.351-22.2531L142.395-22.3336L142.417-22.374L142.462-22.4489L142.484-22.4891L142.53-22.5641L142.552-22.6044L142.592-22.6766L142.614-22.7169L142.654-22.7888L142.676-22.8291L142.716-22.901L142.732-22.9381L142.772-23.01L142.788-23.0472L142.823-23.1163L142.842-23.1482L142.877-23.2173L142.896-23.249L142.93-23.3182L142.949-23.35L142.984-23.4189L143.003-23.4508L143.038-23.5199L143.056-23.5516L143.091-23.6209L143.11-23.6526L143.139-23.7179L143.158-23.7496L143.188-23.8151L143.201-23.8438L143.232-23.9183L143.276-24.0131C143.308-24.0876 143.342-24.1567 143.369-24.2284L143.371-24.2368C144.367-26.6947 144.602-29.3951 144.044-31.9877L144.041-31.9932L144.038-31.9989L144.034-32.0046L144.031-32.0101L144.029-32.0159L144.025-32.0216L144.022-32.0272L144.019-32.0328C144.003-32.1034 143.987-32.1735 143.97-32.2438L143.97-32.2579L143.967-32.2637L143.964-32.2693L143.961-32.275L143.958-32.2806L143.955-32.2863L143.952-32.292L143.949-32.2976L143.946-32.3033L143.943-32.309L143.94-32.3146L143.937-32.3203L143.934-32.3259L143.931-32.3317L143.919-32.3534C143.893-32.4545 143.873-32.5586 143.842-32.6569C143.831-32.7156 143.817-32.8226 143.81-32.9404ZM130.27-29.9225L130.288-29.8892L130.291-29.8834C130.298-29.8439 130.307-29.813 130.314-29.7744L130.314-29.7744L130.317-29.7688L130.317-29.7688L130.32-29.7631L130.323-29.7574L130.326-29.7518L130.326-29.7518C130.598-28.3966 130.403-26.9895 129.772-25.7595L129.772-25.7595L129.711-25.6473L129.681-25.5955L129.659-25.5551L129.649-25.5352L129.63-25.5032L129.619-25.4832L129.6-25.4513L129.589-25.4313L129.565-25.3967L129.554-25.3766L129.53-25.3419L129.519-25.322L129.495-25.2872L129.484-25.2672L129.46-25.2327L129.449-25.2126L129.425-25.1779L129.414-25.1578L129.39-25.1233L129.379-25.1031L129.354-25.0686L129.344-25.0486L129.32-25.0138L129.309-24.9938L129.284-24.9592L129.274-24.9391L129.244-24.9015L129.233-24.8815L129.203-24.8436L129.192-24.8237L129.165-24.78L129.155-24.76L129.127-24.7164L129.117-24.6964L129.09-24.6528L129.073-24.6298L129.046-24.5862L129.03-24.5631L128.997-24.517L128.981-24.4938L128.948-24.4476L128.932-24.4244L128.899-24.3783L128.883-24.3552L128.85-24.3091L128.834-24.2859L128.801-24.2397L128.774-24.2104L128.774-24.2104L128.722-24.1467C127.184-22.1832 124.704-20.5681 121.692-19.7949C119.792-19.3044 114.053-17.8033 112.656-17.4468L108.749-32.6512C110.143-33.0133 115.898-34.4584 117.797-34.9487C120.81-35.7219 123.767-35.5026 126.053-34.5266L126.127-34.4946L126.127-34.4946L126.165-34.4788L126.219-34.457L126.245-34.4495L126.294-34.4254L126.319-34.4178L126.368-34.3939L126.394-34.3861L126.443-34.3622L126.463-34.3516L126.511-34.3275L126.531-34.3169L126.58-34.293L126.6-34.2823L126.649-34.2584L126.669-34.2476L126.709-34.2258L126.729-34.2152L126.77-34.1934L126.79-34.1826L126.83-34.1609L126.85-34.1503L126.891-34.1284L126.911-34.1178L126.951-34.0961L126.971-34.0852L127.011-34.0635L127.031-34.0529L127.072-34.031L127.092-34.0204L127.132-33.9985L127.152-33.9879L127.192-33.9661L127.212-33.9554L127.247-33.931L127.267-33.9204L127.302-33.8959L127.322-33.8853L127.356-33.8608L127.376-33.8502L127.411-33.8258L127.431-33.8152L127.466-33.7906L127.486-33.78L127.518-33.761L127.538-33.7504L127.572-33.726L127.618-33.6932C127.653-33.6688 127.693-33.6475 127.727-33.6229L127.727-33.6229C128.871-32.8474 129.719-31.7086 130.135-30.3909L130.135-30.3909L130.147-30.3691C130.16-30.3328 130.169-30.3019 130.182-30.2655L130.185-30.2598L130.203-30.2264C130.216-30.1759 130.229-30.1254 130.244-30.0692C130.272-30.0566 130.277-29.9946 130.268-29.918L130.27-29.9225ZM103.359-53.6105C104.534-53.912 109.39-55.1317 110.992-55.5481C113.538-56.1997 116.047-55.9468 118.005-55.0033L118.071-54.9741L118.071-54.9741L118.099-54.9608L118.14-54.9391L118.16-54.9283L118.2-54.9066L118.22-54.8959L118.26-54.8741L118.281-54.8635L118.321-54.8416L118.341-54.8309L118.381-54.8092L118.401-54.7986L118.442-54.7767L118.462-54.7661L118.502-54.7443L118.522-54.7335L118.562-54.7118L118.582-54.7012L118.623-54.6794L118.643-54.6686L118.677-54.6442L118.697-54.6335L118.732-54.6091L118.752-54.5985L118.786-54.5741L118.807-54.5634L118.838-54.5446L118.858-54.5337L118.89-54.5149L118.91-54.5043L118.942-54.4852L118.962-54.4745L118.994-54.4557L119.014-54.4448L119.046-54.426L119.06-54.4122L119.092-54.3933L119.104-54.3853L119.136-54.3663L119.147-54.3583L119.179-54.3392L119.191-54.3313L119.222-54.3123L119.234-54.3041L119.26-54.2823L119.272-54.2743L119.303-54.2554L119.347-54.2283C119.379-54.2094 119.408-54.1819 119.44-54.1631L119.44-54.1631C120.442-53.4061 121.179-52.3506 121.544-51.1483L121.544-51.1483L121.553-51.1317C121.562-51.1007 121.575-51.0645 121.584-51.0334L121.587-51.0277L121.605-50.9944C121.618-50.9438 121.633-50.9017 121.646-50.8513C121.66-50.7997 121.669-50.7468 121.674-50.6936L121.692-50.6603L121.695-50.6545C121.7-50.6199 121.708-50.5862 121.721-50.5535L121.729-50.5366L121.729-50.5366C121.987-49.308 121.85-48.0293 121.337-46.8834L121.337-46.8834L121.292-46.78L121.268-46.7312L121.249-46.6995L121.244-46.6821L121.231-46.6534L121.225-46.6364L121.207-46.6044L121.201-46.5873L121.182-46.5554L121.177-46.5382L121.158-46.5063L121.153-46.4891L121.134-46.4574L121.129-46.4402L121.11-46.4084L121.105-46.3911L121.086-46.3594L121.075-46.3392L121.056-46.3075L121.045-46.2875L121.026-46.2556L121.016-46.2356L120.997-46.2037L120.986-46.1837L120.962-46.1492L120.951-46.1292L120.927-46.0944L120.916-46.0743L120.892-46.0398L120.881-46.0197L120.856-45.985L120.846-45.9651L120.821-45.9304L120.811-45.9103L120.786-45.8757L120.776-45.8557L120.751-45.8209L120.74-45.8009L120.716-45.7664L120.705-45.7462L120.675-45.7086L120.665-45.6886L120.635-45.6509L120.624-45.6309L120.594-45.593L120.583-45.5731L120.553-45.5353L120.531-45.5093L120.531-45.5093L120.491-45.4512C119.224-43.6774 117.15-42.2441 114.604-41.5924C112.999-41.1816 108.155-39.9113 106.981-39.6097L103.359-53.6105Z"/>
  </g>
  <g id="Regular-L" transform="matrix(1 0 0 1 1336.71 1556)">
   <path class="hierarchical-0:secondary SFSymbolsPreview4D4D4D" d="M34.4662-35.5969C34.4662-8.82019 47.7786 14.8412 68.1498 29.135L8.6698 29.135L8.6698-100.329L68.1512-100.329C47.7786-86.0366 34.4662-62.3754 34.4662-35.5969ZM158.855 29.157C179.226 14.8643 192.538-8.797 192.538-35.5752C192.538-62.3534 179.226-86.0366 158.855-100.329L218.269-100.329L218.269 29.157L158.855 29.157Z"/>
   <path class="hierarchical-1:primary SFSymbolsPreview212121" d="M113.47-100.317C149.196-100.317 178.158-71.3547 178.158-35.6283C178.158 0.0980225 149.196 29.0599 113.47 29.0599C77.7438 29.0599 48.7817 0.0980224 48.7817-35.6283C48.7817-71.3547 77.7438-100.317 113.47-100.317ZM143.81-32.9404L143.774-33.0072L143.768-33.0183C143.747-33.0858 143.73-33.1561 143.705-33.2289L143.702-33.2345L143.699-33.2402L143.696-33.246L143.693-33.2515L143.69-33.2572L143.687-33.2629L143.681-33.274C142.922-35.8134 141.416-38.0658 139.36-39.7386L139.357-39.7441C139.297-39.7906 139.233-39.8424 139.172-39.8888L139.088-39.9513L139.027-39.9974L139.001-40.0192L138.943-40.0599L138.917-40.0817L138.859-40.1224L138.833-40.1443L138.772-40.1904L138.74-40.2095L138.679-40.2556L138.647-40.2745L138.582-40.3181L138.55-40.337L138.512-40.3954L138.477-40.4199L138.412-40.4635L138.377-40.4878L138.311-40.5315L138.276-40.5559L138.21-40.5994L138.176-40.6238L138.106-40.6727L138.072-40.6969L137.997-40.7429L137.962-40.7675L137.887-40.8132L137.853-40.8378L137.777-40.8838L137.743-40.9082L137.668-40.954L137.628-40.976L137.553-41.0219L137.512-41.0437L137.432-41.0872L137.392-41.1091L137.308-41.1573L137.267-41.1792L137.184-41.2274L137.144-41.2494L137.06-41.2977L137.016-41.3247L136.933-41.3732L136.889-41.4001L136.8-41.4457L136.756-41.4727L136.667-41.5182L136.607-41.5504L136.604-41.5562C136.56-41.5831 136.515-41.6017 136.471-41.6287C134.622-42.5792 132.625-43.2103 130.565-43.495C131.143-44.1158 131.672-44.7803 132.147-45.4824L132.223-45.5951L132.229-45.5981L132.264-45.6531L132.31-45.7279L132.334-45.7626L132.38-45.8376L132.405-45.8722L132.451-45.9471L132.475-45.9818L132.521-46.0568L132.545-46.0913L132.591-46.1663L132.616-46.2011L132.656-46.2731L132.681-46.3076L132.721-46.3799L132.74-46.4116L132.78-46.4838L132.799-46.5155L132.839-46.5878L132.858-46.6195L132.893-46.6885L132.912-46.7205L132.946-46.7894L132.965-46.8212L133-46.8904L133.019-46.9221L133.056-46.9856L133.075-47.0173L133.113-47.0808L133.132-47.1125L133.164-47.1729L133.183-47.2047L133.215-47.265L133.229-47.2937L133.261-47.3542L133.274-47.3829L133.307-47.4432L133.32-47.4719L133.352-47.5325L133.365-47.5612L133.392-47.6187L133.405-47.6475L133.432-47.705L133.445-47.7336L133.472-47.7913L133.485-47.8199L133.514-47.8854L133.554-47.9725C133.583-48.0378 133.607-48.1014 133.636-48.1675L133.642-48.1705C134.528-50.3553 134.736-52.7566 134.238-55.061L134.235-55.0668L134.229-55.0779L134.226-55.0835L134.223-55.0891L134.22-55.0948L134.217-55.1006L134.214-55.1061L134.21-55.1118C134.197-55.1772 134.184-55.2412 134.165-55.3031L134.165-55.3174L134.162-55.3229L134.159-55.3286L134.156-55.3344L134.159-55.3286L134.132-55.3788C134.113-55.4688 134.093-55.5587 134.064-55.6512C134.045-55.7412 134.016-55.8339 133.991-55.921L133.958-55.9823L133.952-55.9934C133.933-56.0549 133.914-56.1168 133.895-56.1786L133.892-56.1843L133.889-56.1898L133.886-56.1956L133.883-56.2013L133.88-56.2068L133.877-56.2125L133.874-56.2183C133.2-58.478 131.861-60.4824 130.031-61.9702L130.028-61.9757C129.976-62.0194 129.918-62.0603 129.865-62.104L129.793-62.1583L129.735-62.1992L129.709-62.2209L129.66-62.259L129.634-62.2808L129.584-62.319L129.558-62.3407L129.503-62.3757L129.477-62.3976L129.419-62.4384L129.393-62.4601L129.335-62.5009L129.309-62.5226L129.251-62.5634L129.219-62.5824L129.161-62.623L129.13-62.6421L129.072-62.6829L129.04-62.7018L128.976-62.7395L128.945-62.7584L128.881-62.7961L128.849-62.8151L128.786-62.8528L128.754-62.8717L128.691-62.9094L128.659-62.9283L128.592-62.972L128.561-62.9908L128.494-63.0345L128.462-63.0533L128.39-63.0938L128.358-63.1128L128.286-63.1531L128.252-63.1774L128.18-63.2177L128.145-63.2421L128.073-63.2823L128.039-63.3069L127.964-63.3527L127.923-63.3746L127.848-63.4204L127.808-63.4424L127.727-63.4858L127.687-63.5077L127.607-63.5513L127.549-63.5779L127.546-63.5834L127.425-63.6488C123.892-65.4849 119.404-66.0376 114.889-64.8792L113.714-64.5776L110.744-76.1469L103.859-74.3821L106.82-62.8586L101.31-61.4386L98.3473-72.9252L91.4625-71.1603L94.4237-59.637L80.2253-55.9834L82.1146-48.6409L87.8354-50.1102C89.7289-50.5984 91.6595-49.4591 92.1477-47.5656C92.1482-47.5634 92.1488-47.561 92.1494-47.5587L92.1494-47.5587L100.09-16.6603C100.414-15.3967 99.6538-14.1095 98.391-13.7831L93.3781-12.4935L93.6726-3.76111L107.854-7.4054L110.853 4.09705L117.735 2.32629L114.772-9.20276L120.279-10.6147L123.243 0.914184L130.125-0.856568L127.15-12.4305C128.317-12.7355 129.32-12.9944 130.014-13.1738C135.102-14.4827 139.217-17.4659 141.707-21.1863L141.792-21.3104L141.797-21.3135L141.838-21.3715L141.892-21.4586L141.919-21.5021L141.973-21.5894L142-21.6329L142.048-21.7166L142.075-21.7601L142.124-21.8438L142.146-21.884L142.194-21.9678L142.216-22.0081L142.264-22.0918L142.286-22.1321L142.329-22.2128L142.351-22.2531L142.395-22.3336L142.417-22.374L142.462-22.4489L142.484-22.4891L142.53-22.5641L142.552-22.6044L142.592-22.6766L142.614-22.7169L142.654-22.7888L142.676-22.8291L142.716-22.901L142.732-22.9381L142.773-23.01L142.788-23.0472L142.823-23.1163L142.842-23.1482L142.877-23.2173L142.896-23.249L142.93-23.3182L142.949-23.35L142.984-23.4189L143.003-23.4508L143.038-23.5199L143.057-23.5516L143.091-23.6209L143.11-23.6526L143.139-23.7179L143.158-23.7496L143.187-23.8151L143.201-23.8438L143.233-23.9183L143.276-24.0131C143.308-24.0876 143.342-24.1567 143.369-24.2284L143.371-24.2368C144.367-26.6947 144.602-29.3951 144.044-31.9877L144.041-31.9932L144.038-31.9989L144.035-32.0046L144.031-32.0101L144.029-32.0159L144.026-32.0216L144.022-32.0272L144.019-32.0328C144.003-32.1034 143.987-32.1735 143.971-32.2438L143.971-32.2579L143.967-32.2637L143.964-32.2693L143.961-32.275L143.958-32.2806L143.955-32.2863L143.952-32.292L143.949-32.2976L143.946-32.3033L143.943-32.309L143.94-32.3146L143.937-32.3203L143.934-32.3259L143.931-32.3317L143.919-32.3534C143.893-32.4545 143.873-32.5586 143.842-32.6569C143.831-32.7156 143.817-32.8226 143.81-32.9404ZM130.27-29.9225L130.288-29.8892L130.291-29.8834C130.298-29.8439 130.307-29.813 130.314-29.7744L130.314-29.7744L130.317-29.7688L130.317-29.7688L130.32-29.7631L130.323-29.7574L130.326-29.7518L130.326-29.7518C130.598-28.3966 130.403-26.9895 129.772-25.7595L129.772-25.7595L129.711-25.6473L129.681-25.5955L129.66-25.5551L129.649-25.5352L129.63-25.5032L129.619-25.4832L129.6-25.4513L129.589-25.4313L129.565-25.3967L129.554-25.3766L129.53-25.3419L129.519-25.322L129.495-25.2872L129.484-25.2672L129.46-25.2327L129.449-25.2126L129.425-25.1779L129.414-25.1578L129.39-25.1233L129.379-25.1031L129.355-25.0686L129.344-25.0486L129.32-25.0138L129.309-24.9938L129.285-24.9592L129.274-24.9391L129.244-24.9015L129.233-24.8815L129.203-24.8436L129.192-24.8237L129.165-24.78L129.155-24.76L129.128-24.7164L129.117-24.6964L129.09-24.6528L129.074-24.6298L129.047-24.5862L129.03-24.5631L128.997-24.517L128.981-24.4938L128.948-24.4476L128.932-24.4244L128.899-24.3783L128.883-24.3552L128.85-24.3091L128.834-24.2859L128.801-24.2397L128.774-24.2104L128.774-24.2104L128.722-24.1467C127.184-22.1832 124.704-20.5681 121.692-19.7949C119.793-19.3044 114.053-17.8033 112.656-17.4468L108.749-32.6512C110.143-33.0133 115.898-34.4584 117.797-34.9487C120.81-35.7219 123.767-35.5026 126.053-34.5266L126.127-34.4946L126.127-34.4946L126.165-34.4788L126.219-34.457L126.245-34.4495L126.294-34.4254L126.319-34.4178L126.368-34.3939L126.394-34.3861L126.443-34.3622L126.463-34.3516L126.512-34.3275L126.531-34.3169L126.58-34.293L126.6-34.2823L126.649-34.2584L126.669-34.2476L126.71-34.2258L126.73-34.2152L126.77-34.1934L126.79-34.1826L126.83-34.1609L126.85-34.1503L126.891-34.1284L126.911-34.1178L126.951-34.0961L126.971-34.0852L127.011-34.0635L127.031-34.0529L127.072-34.031L127.092-34.0204L127.132-33.9985L127.152-33.9879L127.192-33.9661L127.212-33.9554L127.247-33.931L127.267-33.9204L127.302-33.8959L127.322-33.8853L127.356-33.8608L127.376-33.8502L127.411-33.8258L127.431-33.8152L127.466-33.7906L127.486-33.78L127.518-33.761L127.538-33.7504L127.572-33.726L127.618-33.6932C127.653-33.6688 127.693-33.6475 127.727-33.6229L127.727-33.6229C128.871-32.8474 129.719-31.7086 130.136-30.3909L130.136-30.3909L130.147-30.3691C130.16-30.3328 130.169-30.3019 130.182-30.2655L130.185-30.2598L130.203-30.2264C130.216-30.1759 130.229-30.1254 130.244-30.0692C130.273-30.0566 130.277-29.9946 130.268-29.918L130.27-29.9225ZM103.36-53.6105C104.534-53.912 109.391-55.1317 110.992-55.5481C113.538-56.1997 116.047-55.9468 118.005-55.0033L118.071-54.9741L118.071-54.9741L118.099-54.9608L118.14-54.9391L118.16-54.9283L118.2-54.9066L118.22-54.8959L118.26-54.8741L118.281-54.8635L118.321-54.8416L118.341-54.8309L118.381-54.8092L118.401-54.7986L118.442-54.7767L118.462-54.7661L118.502-54.7443L118.522-54.7335L118.562-54.7118L118.582-54.7012L118.623-54.6794L118.643-54.6686L118.677-54.6442L118.697-54.6335L118.732-54.6091L118.752-54.5985L118.787-54.5741L118.807-54.5634L118.839-54.5446L118.859-54.5337L118.89-54.5149L118.91-54.5043L118.942-54.4852L118.962-54.4745L118.994-54.4557L119.014-54.4448L119.046-54.426L119.061-54.4122L119.092-54.3933L119.104-54.3853L119.136-54.3663L119.147-54.3583L119.179-54.3392L119.191-54.3313L119.222-54.3123L119.234-54.3041L119.26-54.2823L119.272-54.2743L119.303-54.2554L119.347-54.2283C119.379-54.2094 119.408-54.1819 119.44-54.1631L119.44-54.1631C120.442-53.4061 121.179-52.3506 121.544-51.1483L121.544-51.1483L121.553-51.1317C121.562-51.1007 121.575-51.0645 121.584-51.0334L121.587-51.0277L121.605-50.9944C121.618-50.9438 121.633-50.9017 121.646-50.8513C121.66-50.7997 121.67-50.7468 121.674-50.6936L121.692-50.6603L121.695-50.6545C121.7-50.6199 121.708-50.5862 121.721-50.5535L121.729-50.5366L121.729-50.5366C121.987-49.308 121.85-48.0293 121.337-46.8834L121.337-46.8834L121.292-46.78L121.268-46.7312L121.249-46.6995L121.244-46.6821L121.231-46.6534L121.225-46.6364L121.207-46.6044L121.201-46.5873L121.182-46.5554L121.177-46.5382L121.158-46.5063L121.153-46.4891L121.134-46.4574L121.129-46.4402L121.11-46.4084L121.105-46.3911L121.086-46.3594L121.075-46.3392L121.056-46.3075L121.045-46.2875L121.026-46.2556L121.016-46.2356L120.997-46.2037L120.986-46.1837L120.962-46.1492L120.951-46.1292L120.927-46.0944L120.916-46.0743L120.892-46.0398L120.881-46.0197L120.857-45.985L120.846-45.9651L120.822-45.9304L120.811-45.9103L120.786-45.8757L120.776-45.8557L120.751-45.8209L120.741-45.8009L120.716-45.7664L120.705-45.7462L120.676-45.7086L120.665-45.6886L120.635-45.6509L120.624-45.6309L120.594-45.593L120.583-45.5731L120.553-45.5353L120.531-45.5093L120.531-45.5093L120.491-45.4512C119.225-43.6774 117.15-42.2441 114.604-41.5924C112.999-41.1816 108.155-39.9113 106.981-39.6097L103.36-53.6105Z"/>
  </g>
  <g id="Semibold-M" transform="matrix(1 0 0 1 1954.32 1126)">
   <path class="hierarchical-0:secondary SFSymbolsPreview4D4D4D" d="M28.5132-35.7059C28.5132-15.1084 38.7534 3.09265 54.4236 14.0879L8.6698 14.0879L8.6698-85.5L54.4247-85.5C38.7534-74.5057 28.5132-56.3047 28.5132-35.7059ZM124.197 14.1047C139.867 3.11035 150.107-15.0906 150.107-35.6892C150.107-56.2878 139.867-74.5057 124.197-85.5L169.9-85.5L169.9 14.1047L124.197 14.1047Z"/>
   <path class="hierarchical-1:primary SFSymbolsPreview212121" d="M89.2854-85.4902C116.767-85.4902 139.046-63.2119 139.046-35.7301C139.046-8.24829 116.767 14.0302 89.2854 14.0302C61.8036 14.0302 39.5251-8.24829 39.5251-35.7301C39.5251-63.2119 61.8036-85.4902 89.2854-85.4902ZM112.624-33.6625L112.597-33.7139L112.592-33.7224C112.575-33.7743 112.563-33.8284 112.543-33.8844L112.541-33.8887L112.539-33.8931L112.536-33.8975L112.534-33.9017L112.532-33.9061L112.529-33.9105L112.525-33.9191C111.941-35.8724 110.783-37.6051 109.201-38.8918L109.199-38.8961C109.152-38.9319 109.103-38.9717 109.056-39.0073L108.991-39.0554L108.944-39.0909L108.924-39.1077L108.88-39.139L108.86-39.1558L108.815-39.1871L108.795-39.2039L108.748-39.2394L108.724-39.254L108.677-39.2896L108.652-39.3041L108.602-39.3376L108.578-39.3522L108.548-39.3971L108.522-39.4159L108.471-39.4495L108.444-39.4681L108.393-39.5017L108.367-39.5205L108.317-39.554L108.29-39.5728L108.236-39.6104L108.21-39.629L108.152-39.6644L108.125-39.6832L108.068-39.7185L108.041-39.7373L107.984-39.7727L107.957-39.7915L107.899-39.8268L107.868-39.8436L107.811-39.8789L107.78-39.8958L107.718-39.9292L107.687-39.946L107.622-39.9832L107.591-40L107.527-40.0371L107.496-40.054L107.432-40.0912L107.398-40.1119L107.334-40.1492L107.3-40.1699L107.232-40.205L107.198-40.2257L107.13-40.2607L107.083-40.2855L107.081-40.2899C107.047-40.3107 107.012-40.325 106.979-40.3457C105.556-41.0769 104.02-41.5624 102.435-41.7814C102.88-42.2589 103.287-42.77 103.652-43.3102L103.711-43.3969L103.715-43.3992L103.742-43.4414L103.777-43.499L103.796-43.5256L103.832-43.5834L103.85-43.61L103.886-43.6676L103.905-43.6943L103.94-43.752L103.959-43.7786L103.994-43.8362L104.013-43.8629L104.044-43.9183L104.063-43.9449L104.094-44.0005L104.108-44.0249L104.139-44.0804L104.154-44.1049L104.185-44.1604L104.199-44.1848L104.226-44.2379L104.241-44.2625L104.267-44.3156L104.282-44.34L104.308-44.3932L104.323-44.4176L104.352-44.4664L104.367-44.4908L104.395-44.5397L104.41-44.5641L104.435-44.6105L104.449-44.635L104.474-44.6814L104.484-44.7035L104.509-44.75L104.519-44.7721L104.544-44.8185L104.555-44.8406L104.579-44.8871L104.589-44.9092L104.61-44.9534L104.62-44.9756L104.641-45.0198L104.651-45.0419L104.671-45.0862L104.682-45.1083L104.704-45.1586L104.735-45.2256C104.757-45.2759 104.775-45.3248 104.798-45.3756L104.802-45.3779C105.484-47.0586 105.644-48.9056 105.261-50.6783L105.258-50.6827L105.254-50.6913L105.251-50.6956L105.249-50.7L105.247-50.7043L105.244-50.7087L105.242-50.713L105.24-50.7174C105.229-50.7677 105.219-50.8169 105.205-50.8645L105.205-50.8755L105.203-50.8798L105.2-50.8842L105.198-50.8885L105.2-50.8842L105.179-50.9227C105.164-50.9919 105.149-51.0612 105.127-51.1323C105.112-51.2015 105.09-51.2728 105.071-51.3398L105.046-51.387L105.041-51.3955C105.026-51.4429 105.012-51.4905 104.997-51.538L104.995-51.5424L104.993-51.5466L104.99-51.551L104.988-51.5554L104.985-51.5597L104.983-51.5641L104.981-51.5685C104.462-53.3068 103.432-54.8486 102.025-55.993L102.022-55.9973C101.982-56.0309 101.938-56.0624 101.897-56.0959L101.842-56.1378L101.797-56.1692L101.777-56.1859L101.739-56.2152L101.719-56.2319L101.681-56.2614L101.661-56.2781L101.619-56.3051L101.599-56.3218L101.554-56.3531L101.534-56.3699L101.489-56.4012L101.469-56.418L101.425-56.4493L101.4-56.464L101.356-56.4952L101.331-56.5099L101.286-56.5413L101.262-56.5558L101.213-56.5848L101.189-56.5994L101.14-56.6284L101.116-56.6429L101.067-56.672L101.042-56.6865L100.994-56.7156L100.969-56.7301L100.918-56.7637L100.893-56.7782L100.842-56.8118L100.818-56.8263L100.763-56.8573L100.738-56.8719L100.683-56.903L100.656-56.9216L100.601-56.9526L100.574-56.9714L100.519-57.0024L100.492-57.0212L100.434-57.0565L100.403-57.0734L100.346-57.1086L100.315-57.1255L100.253-57.1589L100.222-57.1758L100.16-57.2092L100.115-57.2297L100.113-57.234L100.02-57.2843C97.3026-58.6967 93.8502-59.1218 90.3768-58.2307L89.4733-57.9988L87.188-66.8982L81.892-65.5406L84.1698-56.6765L79.9318-55.5841L77.6525-64.4199L72.3564-63.0624L74.6343-54.1982L63.7125-51.3878L65.1658-45.7397L69.5664-46.87C71.0229-47.2455 72.5081-46.3691 72.8835-44.9126C72.8839-44.9109 72.8844-44.9091 72.8849-44.9073L72.8849-44.9073L78.9933-21.1393C79.2423-20.1674 78.6575-19.1771 77.686-18.926L73.83-17.9341L74.0565-11.2168L84.9653-14.0201L87.2725-5.17212L92.5659-6.53418L90.2866-15.4027L94.5231-16.4889L96.8032-7.62048L102.097-8.98254L99.8087-17.8856C100.706-18.1202 101.477-18.3193 102.011-18.4574C105.926-19.4642 109.091-21.759 111.006-24.6208L111.071-24.7163L111.075-24.7186L111.107-24.7633L111.148-24.8303L111.169-24.8638L111.211-24.9309L111.232-24.9644L111.269-25.0287L111.289-25.0623L111.327-25.1266L111.343-25.1576L111.381-25.2219L111.397-25.2529L111.435-25.3174L111.451-25.3484L111.485-25.4104L111.502-25.4414L111.535-25.5034L111.552-25.5344L111.587-25.592L111.604-25.623L111.639-25.6807L111.656-25.7117L111.687-25.7672L111.704-25.7982L111.735-25.8535L111.752-25.8845L111.783-25.9398L111.795-25.9684L111.826-26.0237L111.838-26.0524L111.865-26.1055L111.879-26.13L111.906-26.1831L111.921-26.2075L111.947-26.2607L111.962-26.2852L111.988-26.3383L112.003-26.3628L112.03-26.4159L112.044-26.4403L112.071-26.4935L112.086-26.5179L112.108-26.5682L112.122-26.5927L112.145-26.6429L112.155-26.665L112.18-26.7224L112.213-26.7953C112.238-26.8527 112.264-26.9058 112.284-26.9609L112.286-26.9674C113.053-28.858 113.233-30.9353 112.804-32.9296L112.801-32.9338L112.799-32.9382L112.797-32.9426L112.794-32.9469L112.792-32.9513L112.79-32.9557L112.787-32.96L112.785-32.9644C112.772-33.0186 112.76-33.0725 112.747-33.1266L112.747-33.1375L112.745-33.1418L112.743-33.1462L112.74-33.1506L112.738-33.1549L112.736-33.1593L112.733-33.1637L112.731-33.168L112.729-33.1724L112.726-33.1768L112.724-33.181L112.722-33.1854L112.719-33.1898L112.717-33.1942L112.708-33.2109C112.688-33.2887 112.672-33.3688 112.648-33.4443C112.64-33.4895 112.629-33.5719 112.624-33.6625ZM102.208-31.3409L102.222-31.3153L102.224-31.3109C102.23-31.2805 102.237-31.2567 102.242-31.2271L102.242-31.2271L102.245-31.2228L102.245-31.2228L102.247-31.2184L102.249-31.214L102.252-31.2097L102.252-31.2097C102.461-30.1672 102.31-29.0848 101.826-28.1387L101.826-28.1387L101.778-28.0524L101.755-28.0125L101.739-27.9814L101.731-27.9661L101.716-27.9415L101.708-27.9261L101.693-27.9016L101.685-27.8862L101.666-27.8596L101.658-27.8441L101.639-27.8175L101.631-27.8021L101.612-27.7754L101.604-27.76L101.585-27.7334L101.577-27.718L101.558-27.6913L101.55-27.6759L101.531-27.6493L101.523-27.6338L101.504-27.6072L101.496-27.5918L101.477-27.5651L101.469-27.5497L101.45-27.5231L101.442-27.5076L101.419-27.4786L101.411-27.4633L101.388-27.4342L101.38-27.4188L101.359-27.3853L101.35-27.3699L101.33-27.3363L101.321-27.3209L101.301-27.2874L101.288-27.2697L101.267-27.2361L101.255-27.2184L101.23-27.1829L101.217-27.165L101.192-27.1295L101.179-27.1117L101.154-27.0762L101.142-27.0585L101.116-27.0229L101.104-27.0051L101.078-26.9696L101.057-26.9471L101.057-26.9471L101.018-26.8981C99.8348-25.3877 97.927-24.1453 95.61-23.5505C94.1488-23.1732 89.7336-22.0186 88.6593-21.7443L85.6534-33.4401C86.7261-33.7185 91.153-34.8301 92.614-35.2073C94.9313-35.8021 97.2062-35.6333 98.9645-34.8826L99.0217-34.858L99.0217-34.858L99.0504-34.8458L99.0923-34.8291L99.1121-34.8232L99.1497-34.8048L99.1694-34.7989L99.207-34.7805L99.2267-34.7745L99.2643-34.7561L99.2797-34.7479L99.3173-34.7295L99.3326-34.7213L99.3702-34.7029L99.3856-34.6947L99.4231-34.6763L99.4386-34.668L99.4696-34.6512L99.485-34.6431L99.516-34.6262L99.5314-34.618L99.5624-34.6013L99.5779-34.5931L99.6089-34.5763L99.6243-34.5681L99.6553-34.5514L99.6707-34.5431L99.7017-34.5264L99.717-34.5182L99.748-34.5013L99.7636-34.4932L99.7946-34.4764L99.8099-34.4683L99.8409-34.4514L99.8563-34.4432L99.8831-34.4244L99.8984-34.4163L99.9251-34.3975L99.9404-34.3893L99.9672-34.3705L99.9825-34.3623L100.009-34.3435L100.025-34.3353L100.051-34.3165L100.067-34.3083L100.091-34.2937L100.107-34.2855L100.133-34.2667L100.169-34.2416C100.195-34.2228 100.226-34.2063 100.253-34.1875L100.253-34.1875C101.132-33.5909 101.785-32.715 102.105-31.7013L102.105-31.7013L102.114-31.6846C102.124-31.6566 102.131-31.6328 102.141-31.6049L102.143-31.6005L102.157-31.5748C102.167-31.5359 102.177-31.4971 102.189-31.4539C102.21-31.4442 102.214-31.3965 102.207-31.3375L102.208-31.3409ZM81.5081-49.5625C82.4115-49.7944 86.1472-50.7327 87.3792-51.053C89.3375-51.5542 91.2673-51.3596 92.774-50.6339L92.8243-50.6115L92.8243-50.6115L92.8464-50.6012L92.8774-50.5845L92.8928-50.5763L92.9238-50.5596L92.9393-50.5513L92.9703-50.5345L92.9857-50.5264L93.0167-50.5095L93.0321-50.5013L93.0631-50.4846L93.0786-50.4764L93.1096-50.4596L93.125-50.4514L93.156-50.4347L93.1714-50.4264L93.2024-50.4097L93.2179-50.4015L93.2489-50.3848L93.2643-50.3765L93.2909-50.3577L93.3063-50.3495L93.333-50.3307L93.3484-50.3225L93.375-50.3037L93.3905-50.2955L93.4149-50.281L93.4303-50.2727L93.4548-50.2582L93.4702-50.25L93.4948-50.2354L93.5101-50.2272L93.5345-50.2126L93.55-50.2043L93.5745-50.1898L93.5857-50.1792L93.6102-50.1647L93.619-50.1584L93.6436-50.1439L93.6525-50.1377L93.6769-50.123L93.6858-50.1169L93.7102-50.1023L93.7191-50.0961L93.7393-50.0793L93.7482-50.0731L93.7726-50.0586L93.8062-50.0377C93.8306-50.0232 93.8529-50.0021 93.8773-49.9875L93.8773-49.9875C94.6487-49.4053 95.2153-48.5934 95.496-47.6686L95.496-47.6686L95.5028-47.6558C95.5101-47.632 95.5197-47.604 95.5269-47.5802L95.5292-47.5758L95.5431-47.5502C95.553-47.5112 95.5648-47.4789 95.5747-47.4401C95.5856-47.4004 95.5927-47.3597 95.5958-47.3187L95.6097-47.2931L95.6122-47.2887C95.6158-47.2621 95.6226-47.2361 95.632-47.2109L95.6388-47.198L95.6388-47.198C95.8368-46.2529 95.7313-45.2693 95.3372-44.3878L95.3372-44.3878L95.3024-44.3083L95.2839-44.2708L95.2694-44.2463L95.2654-44.233L95.2551-44.2109L95.2511-44.1978L95.2366-44.1732L95.2325-44.16L95.218-44.1355L95.214-44.1223L95.1993-44.0978L95.1953-44.0846L95.1808-44.0602L95.1768-44.0469L95.1622-44.0225L95.1582-44.0092L95.1436-43.9847L95.1354-43.9692L95.1209-43.9448L95.1125-43.9294L95.098-43.9049L95.0898-43.8895L95.0752-43.865L95.067-43.8496L95.0482-43.823L95.04-43.8076L95.0212-43.7809L95.0131-43.7655L94.9943-43.7389L94.9861-43.7234L94.9673-43.6968L94.9591-43.6814L94.9403-43.6548L94.9321-43.6393L94.9133-43.6127L94.9052-43.5973L94.8864-43.5706L94.8781-43.5552L94.8594-43.5286L94.8511-43.5131L94.828-43.4841L94.8198-43.4687L94.7966-43.4397L94.7885-43.4243L94.7653-43.3953L94.7571-43.3799L94.734-43.3508L94.7172-43.3308L94.7172-43.3308L94.6859-43.2861C93.7119-41.9216 92.116-40.8192 90.1576-40.3179C88.9233-40.0018 85.1968-39.0247 84.2941-38.7927L81.5081-49.5625Z"/>
  </g>
  <g id="Regular-M" transform="matrix(1 0 0 1 1360.89 1126)">
   <path class="hierarchical-0:secondary SFSymbolsPreview4D4D4D" d="M28.5132-35.7059C28.5132-15.1084 38.7534 3.09265 54.4236 14.0879L8.6698 14.0879L8.6698-85.5L54.4247-85.5C38.7534-74.5057 28.5132-56.3047 28.5132-35.7059ZM124.197 14.1047C139.867 3.11035 150.107-15.0906 150.107-35.6892C150.107-56.2878 139.867-74.5057 124.197-85.5L169.9-85.5L169.9 14.1047L124.197 14.1047Z"/>
   <path class="hierarchical-1:primary SFSymbolsPreview212121" d="M89.2854-85.4902C116.767-85.4902 139.046-63.2119 139.046-35.7301C139.046-8.24829 116.767 14.0302 89.2854 14.0302C61.8036 14.0302 39.5251-8.24829 39.5251-35.7301C39.5251-63.2119 61.8036-85.4902 89.2854-85.4902ZM112.624-33.6625L112.596-33.7139L112.592-33.7224C112.575-33.7743 112.562-33.8284 112.543-33.8844L112.541-33.8887L112.539-33.8931L112.536-33.8975L112.534-33.9017L112.532-33.9061L112.529-33.9105L112.525-33.9191C111.941-35.8724 110.782-37.6051 109.201-38.8918L109.199-38.8961C109.152-38.9319 109.103-38.9717 109.056-39.0073L108.991-39.0554L108.944-39.0909L108.924-39.1077L108.88-39.139L108.86-39.1558L108.815-39.1871L108.795-39.2039L108.748-39.2394L108.724-39.254L108.677-39.2896L108.652-39.3041L108.602-39.3376L108.578-39.3522L108.548-39.3971L108.521-39.4159L108.471-39.4495L108.444-39.4681L108.393-39.5017L108.367-39.5205L108.316-39.554L108.29-39.5728L108.236-39.6104L108.21-39.629L108.152-39.6644L108.125-39.6832L108.068-39.7185L108.041-39.7373L107.983-39.7727L107.957-39.7915L107.899-39.8268L107.868-39.8436L107.811-39.8789L107.78-39.8958L107.718-39.9292L107.687-39.946L107.622-39.9832L107.591-40L107.527-40.0371L107.496-40.054L107.431-40.0912L107.398-40.1119L107.333-40.1492L107.3-40.1699L107.231-40.205L107.198-40.2257L107.129-40.2607L107.083-40.2855L107.081-40.2899C107.047-40.3107 107.012-40.325 106.979-40.3457C105.556-41.0769 104.02-41.5624 102.435-41.7814C102.88-42.2589 103.287-42.77 103.652-43.3102L103.711-43.3969L103.715-43.3992L103.742-43.4414L103.777-43.499L103.796-43.5256L103.832-43.5834L103.85-43.61L103.886-43.6676L103.905-43.6943L103.94-43.752L103.959-43.7786L103.994-43.8362L104.013-43.8629L104.044-43.9183L104.063-43.9449L104.094-44.0005L104.108-44.0249L104.139-44.0804L104.154-44.1049L104.185-44.1604L104.199-44.1848L104.226-44.2379L104.241-44.2625L104.267-44.3156L104.282-44.34L104.308-44.3932L104.323-44.4176L104.352-44.4664L104.366-44.4908L104.395-44.5397L104.41-44.5641L104.435-44.6105L104.449-44.635L104.474-44.6814L104.484-44.7035L104.509-44.75L104.519-44.7721L104.544-44.8185L104.554-44.8406L104.579-44.8871L104.589-44.9092L104.61-44.9534L104.62-44.9756L104.641-45.0198L104.651-45.0419L104.671-45.0862L104.681-45.1083L104.704-45.1586L104.735-45.2256C104.757-45.2759 104.775-45.3248 104.798-45.3756L104.802-45.3779C105.484-47.0586 105.644-48.9056 105.261-50.6783L105.258-50.6827L105.254-50.6913L105.251-50.6956L105.249-50.7L105.247-50.7043L105.244-50.7087L105.242-50.713L105.24-50.7174C105.229-50.7677 105.219-50.8169 105.205-50.8645L105.205-50.8755L105.202-50.8798L105.2-50.8842L105.198-50.8885L105.2-50.8842L105.179-50.9227C105.164-50.9919 105.149-51.0612 105.127-51.1323C105.112-51.2015 105.09-51.2728 105.071-51.3398L105.046-51.387L105.041-51.3955C105.026-51.4429 105.012-51.4905 104.997-51.538L104.995-51.5424L104.993-51.5466L104.99-51.551L104.988-51.5554L104.985-51.5597L104.983-51.5641L104.981-51.5685C104.462-53.3068 103.432-54.8486 102.024-55.993L102.022-55.9973C101.982-56.0309 101.938-56.0624 101.897-56.0959L101.842-56.1378L101.797-56.1692L101.777-56.1859L101.739-56.2152L101.719-56.2319L101.681-56.2614L101.661-56.2781L101.619-56.3051L101.599-56.3218L101.554-56.3531L101.534-56.3699L101.489-56.4012L101.469-56.418L101.425-56.4493L101.4-56.464L101.356-56.4952L101.331-56.5099L101.286-56.5413L101.262-56.5558L101.213-56.5848L101.189-56.5994L101.14-56.6284L101.116-56.6429L101.067-56.672L101.042-56.6865L100.994-56.7156L100.969-56.7301L100.918-56.7637L100.893-56.7782L100.842-56.8118L100.818-56.8263L100.762-56.8573L100.738-56.8719L100.683-56.903L100.656-56.9216L100.601-56.9526L100.574-56.9714L100.519-57.0024L100.492-57.0212L100.434-57.0565L100.403-57.0734L100.346-57.1086L100.315-57.1255L100.253-57.1589L100.222-57.1758L100.16-57.2092L100.115-57.2297L100.113-57.234L100.02-57.2843C97.3026-58.6967 93.8502-59.1218 90.3768-58.2307L89.4733-57.9988L87.188-66.8982L81.892-65.5406L84.1698-56.6765L79.9318-55.5841L77.6525-64.4199L72.3564-63.0624L74.6343-54.1982L63.7125-51.3878L65.1658-45.7397L69.5664-46.87C71.0229-47.2455 72.5081-46.3691 72.8835-44.9126C72.8839-44.9109 72.8844-44.9091 72.8849-44.9073L72.8849-44.9073L78.9933-21.1393C79.2423-20.1674 78.6575-19.1771 77.686-18.926L73.83-17.9341L74.0565-11.2168L84.9653-14.0201L87.2725-5.17212L92.5659-6.53418L90.2866-15.4027L94.5231-16.4889L96.8032-7.62048L102.097-8.98254L99.8087-17.8856C100.706-18.1202 101.477-18.3193 102.011-18.4574C105.926-19.4642 109.091-21.759 111.006-24.6208L111.071-24.7163L111.075-24.7186L111.107-24.7633L111.148-24.8303L111.169-24.8638L111.211-24.9309L111.231-24.9644L111.269-25.0287L111.289-25.0623L111.327-25.1266L111.343-25.1576L111.381-25.2219L111.397-25.2529L111.435-25.3174L111.451-25.3484L111.485-25.4104L111.502-25.4414L111.535-25.5034L111.552-25.5344L111.587-25.592L111.604-25.623L111.639-25.6807L111.656-25.7117L111.687-25.7672L111.704-25.7982L111.735-25.8535L111.752-25.8845L111.783-25.9398L111.795-25.9684L111.826-26.0237L111.838-26.0524L111.865-26.1055L111.879-26.13L111.906-26.1831L111.921-26.2075L111.947-26.2607L111.962-26.2852L111.988-26.3383L112.003-26.3628L112.03-26.4159L112.044-26.4403L112.071-26.4935L112.085-26.5179L112.108-26.5682L112.122-26.5927L112.145-26.6429L112.155-26.665L112.18-26.7224L112.213-26.7953C112.238-26.8527 112.263-26.9058 112.284-26.9609L112.286-26.9674C113.052-28.858 113.233-30.9353 112.804-32.9296L112.801-32.9338L112.799-32.9382L112.797-32.9426L112.794-32.9469L112.792-32.9513L112.79-32.9557L112.787-32.96L112.785-32.9644C112.772-33.0186 112.76-33.0725 112.747-33.1266L112.747-33.1375L112.745-33.1418L112.743-33.1462L112.74-33.1506L112.738-33.1549L112.736-33.1593L112.733-33.1637L112.731-33.168L112.729-33.1724L112.726-33.1768L112.724-33.181L112.722-33.1854L112.719-33.1898L112.717-33.1942L112.708-33.2109C112.688-33.2887 112.672-33.3688 112.648-33.4443C112.64-33.4895 112.629-33.5719 112.624-33.6625ZM102.208-31.3409L102.222-31.3153L102.224-31.3109C102.23-31.2805 102.237-31.2567 102.242-31.2271L102.242-31.2271L102.245-31.2228L102.245-31.2228L102.247-31.2184L102.249-31.214L102.252-31.2097L102.252-31.2097C102.46-30.1672 102.31-29.0848 101.826-28.1387L101.826-28.1387L101.778-28.0524L101.755-28.0125L101.739-27.9814L101.731-27.9661L101.716-27.9415L101.708-27.9261L101.693-27.9016L101.685-27.8862L101.666-27.8596L101.658-27.8441L101.639-27.8175L101.631-27.8021L101.612-27.7754L101.604-27.76L101.585-27.7334L101.577-27.718L101.558-27.6913L101.55-27.6759L101.531-27.6493L101.523-27.6338L101.504-27.6072L101.496-27.5918L101.477-27.5651L101.469-27.5497L101.45-27.5231L101.442-27.5076L101.419-27.4786L101.411-27.4633L101.388-27.4342L101.379-27.4188L101.359-27.3853L101.35-27.3699L101.33-27.3363L101.321-27.3209L101.301-27.2874L101.288-27.2697L101.267-27.2361L101.255-27.2184L101.229-27.1829L101.217-27.165L101.192-27.1295L101.179-27.1117L101.154-27.0762L101.142-27.0585L101.116-27.0229L101.104-27.0051L101.078-26.9696L101.057-26.9471L101.057-26.9471L101.018-26.8981C99.8348-25.3877 97.927-24.1453 95.61-23.5505C94.1488-23.1732 89.7336-22.0186 88.6593-21.7443L85.6534-33.4401C86.7261-33.7185 91.153-34.8301 92.614-35.2073C94.9313-35.8021 97.2062-35.6333 98.9645-34.8826L99.0217-34.858L99.0217-34.858L99.0504-34.8458L99.0923-34.8291L99.1121-34.8232L99.1497-34.8048L99.1694-34.7989L99.207-34.7805L99.2267-34.7745L99.2643-34.7561L99.2797-34.7479L99.3173-34.7295L99.3326-34.7213L99.3702-34.7029L99.3856-34.6947L99.4231-34.6763L99.4386-34.668L99.4696-34.6512L99.485-34.6431L99.516-34.6262L99.5314-34.618L99.5624-34.6013L99.5779-34.5931L99.6089-34.5763L99.6243-34.5681L99.6553-34.5514L99.6707-34.5431L99.7017-34.5264L99.717-34.5182L99.748-34.5013L99.7636-34.4932L99.7946-34.4764L99.8099-34.4683L99.8409-34.4514L99.8563-34.4432L99.8831-34.4244L99.8984-34.4163L99.9251-34.3975L99.9404-34.3893L99.9672-34.3705L99.9825-34.3623L100.009-34.3435L100.025-34.3353L100.051-34.3165L100.067-34.3083L100.091-34.2937L100.107-34.2855L100.133-34.2667L100.169-34.2416C100.195-34.2228 100.226-34.2063 100.253-34.1875L100.253-34.1875C101.132-33.5909 101.785-32.715 102.105-31.7013L102.105-31.7013L102.114-31.6846C102.124-31.6566 102.131-31.6328 102.141-31.6049L102.143-31.6005L102.157-31.5748C102.167-31.5359 102.177-31.4971 102.189-31.4539C102.21-31.4442 102.214-31.3965 102.207-31.3375L102.208-31.3409ZM81.5081-49.5625C82.4115-49.7944 86.1472-50.7327 87.3792-51.053C89.3375-51.5542 91.2673-51.3596 92.774-50.6339L92.8243-50.6115L92.8243-50.6115L92.8464-50.6012L92.8774-50.5845L92.8928-50.5763L92.9238-50.5596L92.9393-50.5513L92.9703-50.5345L92.9857-50.5264L93.0167-50.5095L93.0321-50.5013L93.0631-50.4846L93.0786-50.4764L93.1096-50.4596L93.125-50.4514L93.156-50.4347L93.1714-50.4264L93.2024-50.4097L93.2179-50.4015L93.2489-50.3848L93.2643-50.3765L93.2909-50.3577L93.3063-50.3495L93.333-50.3307L93.3484-50.3225L93.375-50.3037L93.3905-50.2955L93.4149-50.281L93.4303-50.2727L93.4548-50.2582L93.4702-50.25L93.4948-50.2354L93.5101-50.2272L93.5345-50.2126L93.55-50.2043L93.5745-50.1898L93.5857-50.1792L93.6102-50.1647L93.619-50.1584L93.6436-50.1439L93.6525-50.1377L93.6769-50.123L93.6858-50.1169L93.7102-50.1023L93.7191-50.0961L93.7393-50.0793L93.7482-50.0731L93.7726-50.0586L93.8062-50.0377C93.8306-50.0232 93.8529-50.0021 93.8773-49.9875L93.8773-49.9875C94.6487-49.4053 95.2153-48.5934 95.496-47.6686L95.496-47.6686L95.5028-47.6558C95.5101-47.632 95.5197-47.604 95.5269-47.5802L95.5292-47.5758L95.5431-47.5502C95.553-47.5112 95.5648-47.4789 95.5747-47.4401C95.5856-47.4004 95.5927-47.3597 95.5958-47.3187L95.6097-47.2931L95.6122-47.2887C95.6158-47.2621 95.6226-47.2361 95.632-47.2109L95.6388-47.198L95.6388-47.198C95.8368-46.2529 95.7313-45.2693 95.3372-44.3878L95.3372-44.3878L95.3024-44.3083L95.2839-44.2708L95.2694-44.2463L95.2654-44.233L95.2551-44.2109L95.2511-44.1978L95.2366-44.1732L95.2325-44.16L95.218-44.1355L95.214-44.1223L95.1993-44.0978L95.1953-44.0846L95.1808-44.0602L95.1768-44.0469L95.1622-44.0225L95.1582-44.0092L95.1436-43.9847L95.1354-43.9692L95.1209-43.9448L95.1125-43.9294L95.098-43.9049L95.0898-43.8895L95.0752-43.865L95.067-43.8496L95.0482-43.823L95.04-43.8076L95.0212-43.7809L95.0131-43.7655L94.9943-43.7389L94.9861-43.7234L94.9673-43.6968L94.9591-43.6814L94.9403-43.6548L94.9321-43.6393L94.9133-43.6127L94.9052-43.5973L94.8864-43.5706L94.8781-43.5552L94.8594-43.5286L94.8511-43.5131L94.828-43.4841L94.8198-43.4687L94.7966-43.4397L94.7885-43.4243L94.7653-43.3953L94.7571-43.3799L94.734-43.3508L94.7172-43.3308L94.7172-43.3308L94.6859-43.2861C93.7119-41.9216 92.116-40.8192 90.1576-40.3179C88.9233-40.0018 85.1968-39.0247 84.2941-38.7927L81.5081-49.5625Z"/>
  </g>
  <g id="Semibold-S" transform="matrix(1 0 0 1 1970.44 696)">
   <path class="hierarchical-0:secondary SFSymbolsPreview4D4D4D" d="M24.5446-35.8157C24.5446-19.3377 32.7367-4.77692 45.2728 4.01929L8.6698 4.01929L8.6698-75.651L45.2737-75.651C32.7367-66.8556 24.5446-52.2947 24.5446-35.8157ZM101.091 4.03278C113.627-4.76276 121.819-19.3235 121.819-35.8024C121.819-52.2813 113.628-66.8556 101.091-75.651L137.654-75.651L137.654 4.03278L101.091 4.03278Z"/>
   <path class="hierarchical-1:primary SFSymbolsPreview212121" d="M73.1624-75.6432C95.1476-75.6432 112.97-57.8206 112.97-35.8351C112.97-13.8497 95.1476 3.97308 73.1624 3.97308C51.1769 3.97308 33.3541-13.8497 33.3541-35.8351C33.3541-57.8206 51.1769-75.6432 73.1624-75.6432ZM91.8334-34.181L91.8112-34.2221L91.8075-34.2289C91.7941-34.2704 91.7841-34.3137 91.7687-34.3585L91.7667-34.3619L91.765-34.3655L91.7631-34.369L91.7611-34.3724L91.7594-34.3759L91.7574-34.3795L91.7538-34.3863C91.2865-35.949 90.36-37.3351 89.0948-38.3645L89.0929-38.3679C89.0555-38.3965 89.0162-38.4283 88.9786-38.4568L88.9269-38.4954L88.8895-38.5237L88.8734-38.5372L88.8378-38.5623L88.8217-38.5756L88.786-38.6007L88.7699-38.6141L88.7325-38.6425L88.713-38.6542L88.6757-38.6827L88.6559-38.6943L88.6158-38.7211L88.5963-38.7327L88.5724-38.7687L88.5511-38.7838L88.5109-38.8106L88.4896-38.8255L88.4489-38.8524L88.4274-38.8674L88.3871-38.8942L88.3658-38.9092L88.3231-38.9393L88.3019-38.9542L88.2557-38.9825L88.2343-38.9976L88.1881-39.0258L88.1669-39.0408L88.1207-39.0692L88.0995-39.0842L88.0533-39.1124L88.0284-39.1259L87.9825-39.1541L87.9576-39.1676L87.9081-39.1944L87.8832-39.2078L87.8317-39.2375L87.8068-39.251L87.7555-39.2807L87.7306-39.2942L87.6791-39.324L87.6525-39.3406L87.6007-39.3704L87.5741-39.387L87.5192-39.415L87.4923-39.4316L87.4376-39.4596L87.4005-39.4794L87.3986-39.483C87.3717-39.4996 87.3436-39.511 87.317-39.5276C86.1788-40.1125 84.9498-40.5009 83.6821-40.6761C84.0377-41.0582 84.3633-41.467 84.6559-41.8992L84.7028-41.9685L84.7062-41.9703L84.7277-42.0042L84.756-42.0502L84.7711-42.0715L84.7994-42.1177L84.8143-42.139L84.8427-42.1851L84.8575-42.2065L84.8859-42.2526L84.901-42.2739L84.9293-42.3199L84.9442-42.3414L84.9691-42.3857L84.984-42.407L85.0089-42.4514L85.0206-42.4709L85.0453-42.5154L85.057-42.5349L85.0817-42.5793L85.0934-42.5989L85.1149-42.6414L85.1266-42.6609L85.1478-42.7034L85.1593-42.723L85.1808-42.7656L85.1925-42.7851L85.2155-42.8242L85.2272-42.8437L85.2504-42.8828L85.2618-42.9023L85.2819-42.9394L85.2936-42.959L85.3134-42.9962L85.3214-43.0138L85.3414-43.051L85.3495-43.0687L85.3693-43.1058L85.3776-43.1235L85.3973-43.1607L85.4056-43.1783L85.422-43.2137L85.4301-43.2315L85.4464-43.2668L85.4547-43.2845L85.4711-43.3199L85.4791-43.3376L85.4972-43.3779L85.5216-43.4315C85.5397-43.4717 85.5541-43.5109 85.5721-43.5515L85.5756-43.5533C86.121-44.8979 86.2489-46.3755 85.9425-47.7937L85.9406-47.7972L85.9369-47.804L85.9349-47.8074L85.9332-47.811L85.9313-47.8145L85.9293-47.818L85.9276-47.8214L85.9257-47.825C85.9176-47.8652 85.9093-47.9045 85.8978-47.9426L85.8978-47.9514L85.8959-47.9548L85.8942-47.9583L85.8922-47.9619L85.8942-47.9583L85.8773-47.9892C85.8654-48.0446 85.8532-48.0999 85.8356-48.1569C85.8236-48.2122 85.8063-48.2693 85.7907-48.3229L85.7704-48.3606L85.7667-48.3674C85.755-48.4053 85.7435-48.4434 85.7318-48.4814L85.7299-48.4849L85.7282-48.4883L85.7262-48.4918L85.7242-48.4954L85.7223-48.4988L85.7206-48.5023L85.7189-48.5058C85.3038-49.8964 84.4796-51.1299 83.3535-52.0455L83.3518-52.0489C83.3196-52.0757 83.2839-52.1009 83.2517-52.1277L83.2073-52.1613L83.1716-52.1863L83.1555-52.1998L83.1252-52.2232L83.1091-52.2366L83.0789-52.2601L83.0627-52.2735L83.0289-52.295L83.0128-52.3084L82.9772-52.3336L82.9611-52.3469L82.9254-52.372L82.9094-52.3854L82.8737-52.4105L82.8541-52.4222L82.8185-52.4472L82.7988-52.4589L82.7632-52.484L82.7437-52.4957L82.7046-52.5189L82.6851-52.5305L82.646-52.5538L82.6265-52.5654L82.5874-52.5886L82.5679-52.6002L82.5288-52.6235L82.5093-52.6351L82.4684-52.6619L82.4487-52.6736L82.408-52.7004L82.3883-52.712L82.344-52.7369L82.3243-52.7486L82.28-52.7734L82.2588-52.7883L82.2145-52.8131L82.1931-52.8282L82.1488-52.853L82.1276-52.868L82.0814-52.8962L82.0566-52.9097L82.0105-52.9379L81.9856-52.9514L81.936-52.9781L81.9113-52.9916L81.8616-53.0184L81.8263-53.0348L81.8245-53.0382L81.75-53.0784C79.5761-54.2083 76.8142-54.5485 74.0354-53.8356L73.3126-53.65L71.4844-60.7696L67.2476-59.6835L69.0698-52.5922L65.6794-51.7183L63.856-58.7869L59.6191-57.7009L61.4414-50.6096L52.704-48.3613L53.8666-43.8428L57.3871-44.747C58.5524-45.0474 59.7405-44.3463 60.0408-43.1811C60.0411-43.1797 60.0415-43.1783 60.0419-43.1769L60.0419-43.1769L64.9286-24.1624C65.1278-23.3849 64.6599-22.5927 63.8828-22.3918L60.798-21.5983L60.9792-16.2244L69.7063-18.4671L71.552-11.3887L75.7867-12.4783L73.9633-19.5732L77.3524-20.4421L79.1765-13.3474L83.4113-14.4371L81.5809-21.5595C82.2986-21.7472 82.9158-21.9065 83.3429-22.0169C86.4745-22.8224 89.0067-24.6583 90.5392-26.9477L90.5909-27.024L90.5944-27.0259L90.6193-27.0616L90.6527-27.1153L90.6693-27.142L90.7025-27.1957L90.7191-27.2225L90.7489-27.274L90.7655-27.3008L90.7953-27.3523L90.8087-27.3771L90.8385-27.4285L90.8519-27.4534L90.8817-27.5049L90.8951-27.5297L90.922-27.5793L90.9352-27.6041L90.962-27.6537L90.9755-27.6785L91.0038-27.7247L91.0172-27.7495L91.0455-27.7955L91.059-27.8204L91.0836-27.8648L91.097-27.8896L91.1219-27.9338L91.1354-27.9586L91.16-28.0029L91.1698-28.0257L91.1947-28.0699L91.2045-28.0929L91.2257-28.1354L91.2374-28.155L91.2587-28.1975L91.2704-28.217L91.2916-28.2596L91.3033-28.2791L91.3248-28.3216L91.3363-28.3412L91.3578-28.3837L91.3693-28.4033L91.3907-28.4459L91.4025-28.4654L91.4203-28.5056L91.432-28.5251L91.4498-28.5654L91.4581-28.5831L91.4777-28.629L91.5045-28.6873C91.524-28.7332 91.5448-28.7756 91.5614-28.8198L91.5631-28.825C92.1759-30.3375 92.3202-31.9993 91.9769-33.5947L91.975-33.5981L91.973-33.6016L91.9713-33.6051L91.9694-33.6085L91.9674-33.6121L91.9657-33.6155L91.9637-33.619L91.9618-33.6225C91.9518-33.6658 91.942-33.709 91.9318-33.7523L91.9318-33.761L91.9298-33.7645L91.9281-33.768L91.9261-33.7715L91.9244-33.775L91.9225-33.7784L91.9205-33.782L91.9186-33.7854L91.9169-33.7889L91.9149-33.7924L91.9132-33.7958L91.9113-33.7994L91.9093-33.8029L91.9074-33.8064L91.9-33.8198C91.8844-33.882 91.872-33.946 91.8527-34.0065C91.8463-34.0426 91.8373-34.1085 91.8334-34.181ZM83.5006-32.3238L83.5117-32.3033L83.5135-32.2997C83.5177-32.2755 83.5237-32.2564 83.5277-32.2327L83.5277-32.2327L83.5295-32.2292L83.5295-32.2292L83.5315-32.2257L83.5334-32.2222L83.5353-32.2188L83.5353-32.2188C83.7024-31.3848 83.5823-30.5189 83.1946-29.762L83.1946-29.762L83.1566-29.6929L83.1384-29.6609L83.125-29.6362L83.1184-29.6238L83.1067-29.6042L83.1002-29.5919L83.0885-29.5723L83.0819-29.56L83.0669-29.5387L83.0603-29.5263L83.0453-29.505L83.0388-29.4927L83.0237-29.4713L83.0172-29.459L83.0022-29.4377L82.9956-29.4254L82.9806-29.4041L82.974-29.3917L82.959-29.3704L82.9524-29.358L82.9374-29.3367L82.9309-29.3245L82.9158-29.303L82.9093-29.2908L82.8943-29.2695L82.8877-29.2571L82.8691-29.2339L82.8625-29.2216L82.844-29.1984L82.8375-29.1861L82.8209-29.1592L82.8142-29.1469L82.7976-29.1201L82.7911-29.1077L82.7745-29.0809L82.7644-29.0667L82.7478-29.0399L82.7377-29.0257L82.7175-28.9973L82.7075-28.983L82.6874-28.9547L82.6774-28.9404L82.6572-28.9119L82.6472-28.8978L82.627-28.8694L82.6169-28.8551L82.5968-28.8267L82.5798-28.8087L82.5798-28.8087L82.5481-28.7695C81.6018-27.5612 80.0756-26.5672 78.2219-26.0914C77.053-25.7896 73.5209-24.8658 72.6614-24.6464L70.2567-34.0031C71.1149-34.2258 74.6564-35.1151 75.8252-35.4168C77.679-35.8927 79.4989-35.7576 80.9055-35.157L80.9514-35.1375L80.9514-35.1375L80.9744-35.1277L81.0078-35.1143L81.0237-35.1096L81.0537-35.0948L81.0696-35.0901L81.0996-35.0754L81.1154-35.0706L81.1454-35.0559L81.1577-35.0494L81.1877-35.0346L81.2001-35.0281L81.2302-35.0133L81.2424-35.0068L81.2725-34.992L81.2849-34.9854L81.3097-34.972L81.322-34.9655L81.3468-34.952L81.3591-34.9454L81.3839-34.9321L81.3962-34.9255L81.4211-34.912L81.4333-34.9055L81.4583-34.8922L81.4705-34.8855L81.4954-34.8721L81.5076-34.8655L81.5325-34.8521L81.5448-34.8455L81.5696-34.8322L81.5819-34.8256L81.6067-34.8121L81.619-34.8056L81.6404-34.7906L81.6527-34.784L81.6741-34.769L81.6863-34.7625L81.7078-34.7474L81.72-34.7408L81.7413-34.7258L81.7537-34.7193L81.775-34.7042L81.7874-34.6977L81.8069-34.686L81.8192-34.6794L81.8406-34.6644L81.8689-34.6443C81.8904-34.6292 81.915-34.616 81.936-34.601L81.936-34.601C82.6398-34.1238 83.1619-33.423 83.418-32.6121L83.418-32.6121L83.4253-32.5987C83.433-32.5763 83.4387-32.5573 83.4464-32.5349L83.4482-32.5314L83.4594-32.5109C83.4673-32.4797 83.4752-32.4487 83.485-32.4141C83.5022-32.4064 83.5051-32.3682 83.4996-32.321L83.5006-32.3238ZM66.9404-46.901C67.6632-47.0865 70.6517-47.8372 71.6373-48.0934C73.204-48.4944 74.7478-48.3387 75.9532-47.7581L75.9934-47.7402L75.9934-47.7402L76.0111-47.732L76.0359-47.7186L76.0482-47.712L76.073-47.6987L76.0854-47.692L76.1102-47.6787L76.1226-47.6721L76.1473-47.6586L76.1597-47.6521L76.1844-47.6387L76.1969-47.6321L76.2217-47.6187L76.234-47.6121L76.2588-47.5988L76.2711-47.5921L76.2959-47.5787L76.3083-47.5722L76.3331-47.5588L76.3455-47.5522L76.3667-47.5372L76.379-47.5306L76.4004-47.5156L76.4127-47.509L76.434-47.494L76.4464-47.4874L76.4659-47.4758L76.4783-47.4692L76.4978-47.4576L76.5101-47.451L76.5298-47.4393L76.5421-47.4327L76.5616-47.4211L76.574-47.4145L76.5935-47.4029L76.6025-47.3943L76.6222-47.3828L76.6292-47.3777L76.6488-47.3661L76.656-47.3611L76.6755-47.3494L76.6826-47.3445L76.7021-47.3328L76.7092-47.3279L76.7253-47.3145L76.7325-47.3095L76.7521-47.2979L76.7789-47.2812C76.7985-47.2696 76.8163-47.2527 76.8358-47.241L76.8358-47.241C77.4529-46.7752 77.9062-46.1257 78.1307-45.3859L78.1307-45.3859L78.1362-45.3756C78.1421-45.3566 78.1497-45.3342 78.1555-45.3152L78.1573-45.3116L78.1685-45.2911C78.1764-45.26 78.1858-45.2341 78.1937-45.2031C78.2024-45.1713 78.2081-45.1388 78.2107-45.106L78.2218-45.0855L78.2238-45.082C78.2267-45.0607 78.2321-45.0399 78.2395-45.0198L78.245-45.0094L78.245-45.0094C78.4034-44.2534 78.3191-43.4664 78.0037-42.7613L78.0037-42.7613L77.9758-42.6977L77.9612-42.6676L77.9495-42.6481L77.9463-42.6375L77.9381-42.6198L77.9348-42.6092L77.9232-42.5896L77.92-42.579L77.9084-42.5594L77.9052-42.5489L77.8934-42.5292L77.8903-42.5187L77.8787-42.4991L77.8754-42.4885L77.8638-42.469L77.8606-42.4583L77.8489-42.4388L77.8423-42.4264L77.8307-42.4069L77.824-42.3946L77.8124-42.3749L77.8059-42.3626L77.7942-42.343L77.7876-42.3307L77.7726-42.3094L77.766-42.2971L77.751-42.2757L77.7444-42.2634L77.7294-42.2421L77.7229-42.2297L77.7078-42.2084L77.7013-42.1961L77.6863-42.1749L77.6797-42.1624L77.6647-42.1412L77.6581-42.1288L77.6431-42.1075L77.6365-42.0952L77.6215-42.0739L77.6149-42.0615L77.5964-42.0383L77.5898-42.026L77.5713-42.0027L77.5647-41.9905L77.5461-41.9672L77.5397-41.9549L77.5212-41.9317L77.5077-41.9156L77.5077-41.9156L77.4827-41.8799C76.7035-40.7883 75.4268-39.9064 73.8601-39.5053C72.8727-39.2525 69.8914-38.4708 69.1692-38.2852L66.9404-46.901Z"/>
  </g>
  <g id="Regular-S" transform="matrix(1 0 0 1 1377.02 696)">
   <path class="hierarchical-0:secondary SFSymbolsPreview4D4D4D" d="M24.5444-35.8157C24.5444-19.3377 32.7367-4.77692 45.2728 4.01929L8.6698 4.01929L8.6698-75.651L45.2737-75.651C32.7367-66.8556 24.5444-52.2947 24.5444-35.8157ZM101.091 4.03278C113.627-4.76276 121.819-19.3235 121.819-35.8024C121.819-52.2813 113.628-66.8556 101.091-75.651L137.654-75.651L137.654 4.03278L101.091 4.03278Z"/>
   <path class="hierarchical-1:primary SFSymbolsPreview212121" d="M73.1622-75.6432C95.1476-75.6432 112.97-57.8206 112.97-35.8351C112.97-13.8497 95.1476 3.97308 73.1622 3.97308C51.1768 3.97308 33.354-13.8497 33.354-35.8351C33.354-57.8206 51.1768-75.6432 73.1622-75.6432ZM91.8333-34.181L91.811-34.2221L91.8074-34.2289C91.7939-34.2704 91.7839-34.3137 91.7686-34.3585L91.7667-34.3619L91.7649-34.3655L91.7631-34.369L91.7611-34.3724L91.7593-34.3759L91.7573-34.3795L91.7537-34.3863C91.2864-35.949 90.3599-37.3351 89.0947-38.3645L89.0928-38.3679C89.0554-38.3965 89.0161-38.4283 88.9786-38.4568L88.9269-38.4954L88.8895-38.5237L88.8734-38.5372L88.8378-38.5623L88.8217-38.5756L88.786-38.6007L88.7699-38.6141L88.7324-38.6425L88.7129-38.6542L88.6755-38.6827L88.6559-38.6943L88.6157-38.7211L88.5962-38.7327L88.5724-38.7687L88.5511-38.7838L88.5109-38.8106L88.4895-38.8255L88.4487-38.8524L88.4272-38.8674L88.3871-38.8942L88.3657-38.9092L88.323-38.9393L88.3018-38.9542L88.2556-38.9825L88.2343-38.9976L88.1881-39.0258L88.1669-39.0408L88.1206-39.0692L88.0994-39.0842L88.0532-39.1124L88.0284-39.1259L87.9824-39.1541L87.9575-39.1676L87.908-39.1944L87.8832-39.2078L87.8315-39.2375L87.8068-39.251L87.7554-39.2807L87.7305-39.2942L87.6791-39.324L87.6523-39.3406L87.6007-39.3704L87.574-39.387L87.519-39.415L87.4923-39.4316L87.4375-39.4596L87.4004-39.4794L87.3984-39.483C87.3716-39.4996 87.3436-39.511 87.3169-39.5276C86.1787-40.1125 84.9497-40.5009 83.6821-40.6761C84.0376-41.0582 84.3633-41.467 84.6559-41.8992L84.7026-41.9685L84.7061-41.9703L84.7277-42.0042L84.7559-42.0502L84.771-42.0715L84.7993-42.1177L84.8143-42.139L84.8425-42.1851L84.8575-42.2065L84.8859-42.2526L84.9009-42.2739L84.9292-42.3199L84.9442-42.3414L84.969-42.3857L84.984-42.407L85.0088-42.4514L85.0205-42.4709L85.0453-42.5154L85.0569-42.5349L85.0817-42.5793L85.0934-42.5989L85.1147-42.6414L85.1265-42.6609L85.1477-42.7034L85.1593-42.723L85.1807-42.7656L85.1924-42.7851L85.2153-42.8242L85.2271-42.8437L85.2502-42.8828L85.2618-42.9023L85.2817-42.9394L85.2935-42.959L85.3132-42.9962L85.3214-43.0138L85.3413-43.051L85.3495-43.0687L85.3693-43.1058L85.3774-43.1235L85.3973-43.1607L85.4055-43.1783L85.4219-43.2137L85.4301-43.2315L85.4464-43.2668L85.4546-43.2845L85.4709-43.3199L85.479-43.3376L85.4971-43.3779L85.5216-43.4315C85.5396-43.4717 85.5541-43.5109 85.572-43.5515L85.5756-43.5533C86.121-44.8979 86.2489-46.3755 85.9424-47.7937L85.9406-47.7972L85.9369-47.804L85.9349-47.8074L85.9331-47.811L85.9312-47.8145L85.9293-47.818L85.9275-47.8214L85.9255-47.825C85.9175-47.8652 85.9092-47.9045 85.8977-47.9426L85.8977-47.9514L85.8959-47.9548L85.894-47.9583L85.8921-47.9619L85.894-47.9583L85.8773-47.9892C85.8652-48.0446 85.853-48.0999 85.8356-48.1569C85.8236-48.2122 85.8062-48.2693 85.7905-48.3229L85.7704-48.3606L85.7666-48.3674C85.7549-48.4053 85.7434-48.4434 85.7317-48.4814L85.7299-48.4849L85.728-48.4883L85.7261-48.4918L85.7241-48.4954L85.7223-48.4988L85.7205-48.5023L85.7188-48.5058C85.3037-49.8964 84.4795-51.1299 83.3535-52.0455L83.3517-52.0489C83.3196-52.0757 83.2839-52.1009 83.2517-52.1277L83.2072-52.1613L83.1715-52.1863L83.1554-52.1998L83.1251-52.2232L83.109-52.2366L83.0787-52.2601L83.0626-52.2735L83.0288-52.295L83.0127-52.3084L82.9771-52.3336L82.9609-52.3469L82.9253-52.372L82.9093-52.3854L82.8735-52.4105L82.854-52.4222L82.8184-52.4472L82.7988-52.4589L82.7632-52.484L82.7437-52.4957L82.7046-52.5189L82.6851-52.5305L82.646-52.5538L82.6265-52.5654L82.5874-52.5886L82.5679-52.6002L82.5288-52.6235L82.5093-52.6351L82.4683-52.6619L82.4487-52.6736L82.4078-52.7004L82.3882-52.712L82.3439-52.7369L82.3242-52.7486L82.28-52.7734L82.2588-52.7883L82.2144-52.8131L82.193-52.8282L82.1488-52.853L82.1274-52.868L82.0814-52.8962L82.0566-52.9097L82.0104-52.9379L81.9856-52.9514L81.936-52.9781L81.9111-52.9916L81.8616-53.0184L81.8262-53.0348L81.8243-53.0382L81.75-53.0784C79.5761-54.2083 76.8141-54.5485 74.0354-53.8356L73.3125-53.65L71.4844-60.7696L67.2476-59.6835L69.0698-52.5922L65.6793-51.7183L63.856-58.7869L59.6191-57.7009L61.4414-50.6096L52.704-48.3613L53.8666-43.8428L57.3871-44.747C58.5522-45.0474 59.7404-44.3463 60.0408-43.1811C60.041-43.1797 60.0415-43.1783 60.0419-43.1769L60.0419-43.1769L64.9286-24.1624C65.1278-23.3849 64.6599-22.5927 63.8828-22.3918L60.7979-21.5983L60.9791-16.2244L69.7062-18.4671L71.5519-11.3887L75.7866-12.4783L73.9633-19.5732L77.3524-20.4421L79.1765-13.3474L83.4111-14.4371L81.5809-21.5595C82.2985-21.7472 82.9158-21.9065 83.3428-22.0169C86.4744-22.8224 89.0066-24.6583 90.5391-26.9477L90.5908-27.024L90.5942-27.0259L90.6193-27.0616L90.6526-27.1153L90.6692-27.142L90.7024-27.1957L90.7191-27.2225L90.7489-27.274L90.7655-27.3008L90.7953-27.3523L90.8086-27.3771L90.8384-27.4285L90.8518-27.4534L90.8816-27.5049L90.895-27.5297L90.9219-27.5793L90.9352-27.6041L90.9619-27.6537L90.9755-27.6785L91.0037-27.7247L91.0171-27.7495L91.0454-27.7955L91.0588-27.8204L91.0836-27.8648L91.097-27.8896L91.1218-27.9338L91.1353-27.9586L91.16-28.0029L91.1698-28.0257L91.1946-28.0699L91.2043-28.0929L91.2257-28.1354L91.2373-28.155L91.2587-28.1975L91.2704-28.217L91.2916-28.2596L91.3033-28.2791L91.3247-28.3216L91.3363-28.3412L91.3577-28.3837L91.3693-28.4033L91.3906-28.4459L91.4023-28.4654L91.4203-28.5056L91.4319-28.5251L91.4498-28.5654L91.458-28.5831L91.4775-28.629L91.5044-28.6873C91.5239-28.7332 91.5447-28.7756 91.5614-28.8198L91.563-28.825C92.1759-30.3375 92.3201-31.9993 91.9768-33.5947L91.975-33.5981L91.973-33.6016L91.9712-33.6051L91.9692-33.6085L91.9674-33.6121L91.9656-33.6155L91.9636-33.619L91.9618-33.6225C91.9517-33.6658 91.9419-33.709 91.9318-33.7523L91.9318-33.761L91.9298-33.7645L91.928-33.768L91.9261-33.7715L91.9243-33.775L91.9224-33.7784L91.9204-33.782L91.9186-33.7854L91.9167-33.7889L91.9149-33.7924L91.9131-33.7958L91.9111-33.7994L91.9092-33.8029L91.9073-33.8064L91.9-33.8198C91.8843-33.882 91.8718-33.946 91.8525-34.0065C91.8462-34.0426 91.8372-34.1085 91.8333-34.181ZM83.5005-32.3238L83.5117-32.3033L83.5135-32.2997C83.5176-32.2755 83.5236-32.2564 83.5277-32.2327L83.5277-32.2327L83.5295-32.2292L83.5295-32.2292L83.5315-32.2257L83.5333-32.2222L83.5352-32.2188L83.5352-32.2188C83.7023-31.3848 83.5823-30.5189 83.1945-29.762L83.1945-29.762L83.1566-29.6929L83.1383-29.6609L83.125-29.6362L83.1184-29.6238L83.1067-29.6042L83.1001-29.5919L83.0884-29.5723L83.0819-29.56L83.0669-29.5387L83.0603-29.5263L83.0453-29.505L83.0387-29.4927L83.0237-29.4713L83.0171-29.459L83.0021-29.4377L82.9956-29.4254L82.9805-29.4041L82.974-29.3917L82.959-29.3704L82.9524-29.358L82.9374-29.3367L82.9308-29.3245L82.9158-29.303L82.9092-29.2908L82.8942-29.2695L82.8877-29.2571L82.8691-29.2339L82.8625-29.2216L82.844-29.1984L82.8374-29.1861L82.8208-29.1592L82.8142-29.1469L82.7976-29.1201L82.791-29.1077L82.7744-29.0809L82.7644-29.0667L82.7477-29.0399L82.7377-29.0257L82.7175-28.9973L82.7075-28.983L82.6874-28.9547L82.6772-28.9404L82.6572-28.9119L82.6472-28.8978L82.627-28.8694L82.6168-28.8551L82.5967-28.8267L82.5798-28.8087L82.5798-28.8087L82.548-28.7695C81.6018-27.5612 80.0756-26.5672 78.2219-26.0914C77.053-25.7896 73.5209-24.8658 72.6614-24.6464L70.2567-34.0031C71.1147-34.2258 74.6563-35.1151 75.8252-35.4168C77.679-35.8927 79.4989-35.7576 80.9055-35.157L80.9513-35.1375L80.9513-35.1375L80.9742-35.1277L81.0078-35.1143L81.0236-35.1096L81.0537-35.0948L81.0695-35.0901L81.0996-35.0754L81.1152-35.0706L81.1454-35.0559L81.1577-35.0494L81.1877-35.0346L81.2001-35.0281L81.2301-35.0133L81.2424-35.0068L81.2725-34.992L81.2848-34.9854L81.3096-34.972L81.3219-34.9655L81.3467-34.952L81.359-34.9454L81.3838-34.9321L81.3962-34.9255L81.421-34.912L81.4334-34.9055L81.4581-34.8922L81.4705-34.8855L81.4952-34.8721L81.5076-34.8655L81.5323-34.8521L81.5448-34.8455L81.5696-34.8322L81.5819-34.8256L81.6067-34.8121L81.619-34.8056L81.6404-34.7906L81.6527-34.784L81.674-34.769L81.6863-34.7625L81.7076-34.7474L81.72-34.7408L81.7412-34.7258L81.7537-34.7193L81.7749-34.7042L81.7872-34.6977L81.8069-34.686L81.8192-34.6794L81.8405-34.6644L81.8689-34.6443C81.8903-34.6292 81.915-34.616 81.936-34.601L81.936-34.601C82.6396-34.1238 83.1619-33.423 83.418-32.6121L83.418-32.6121L83.4253-32.5987C83.433-32.5763 83.4387-32.5573 83.4463-32.5349L83.4482-32.5314L83.4594-32.5109C83.4673-32.4797 83.4751-32.4487 83.4849-32.4141C83.5022-32.4064 83.505-32.3682 83.4995-32.321L83.5005-32.3238ZM66.9404-46.901C67.6631-47.0865 70.6517-47.8372 71.6372-48.0934C73.204-48.4944 74.7478-48.3387 75.9531-47.7581L75.9934-47.7402L75.9934-47.7402L76.0111-47.732L76.0359-47.7186L76.0482-47.712L76.073-47.6987L76.0854-47.692L76.1102-47.6787L76.1226-47.6721L76.1473-47.6586L76.1597-47.6521L76.1844-47.6387L76.1968-47.6321L76.2217-47.6187L76.2339-47.6121L76.2588-47.5988L76.271-47.5921L76.2959-47.5787L76.3082-47.5722L76.333-47.5588L76.3453-47.5522L76.3667-47.5372L76.3789-47.5306L76.4004-47.5156L76.4126-47.509L76.434-47.494L76.4463-47.4874L76.4658-47.4758L76.4781-47.4692L76.4978-47.4576L76.5101-47.451L76.5298-47.4393L76.542-47.4327L76.5615-47.4211L76.574-47.4145L76.5935-47.4029L76.6025-47.3943L76.6221-47.3828L76.6291-47.3777L76.6488-47.3661L76.6559-47.3611L76.6754-47.3494L76.6826-47.3445L76.7021-47.3328L76.7092-47.3279L76.7253-47.3145L76.7324-47.3095L76.752-47.2979L76.7788-47.2812C76.7983-47.2696 76.8163-47.2527 76.8358-47.241L76.8358-47.241C77.4529-46.7752 77.9062-46.1257 78.1307-45.3859L78.1307-45.3859L78.1362-45.3756C78.1421-45.3566 78.1497-45.3342 78.1554-45.3152L78.1572-45.3116L78.1685-45.2911C78.1763-45.26 78.1858-45.2341 78.1937-45.2031C78.2024-45.1713 78.208-45.1388 78.2106-45.106L78.2217-45.0855L78.2236-45.082C78.2266-45.0607 78.2319-45.0399 78.2395-45.0198L78.245-45.0094L78.245-45.0094C78.4033-44.2534 78.319-43.4664 78.0037-42.7613L78.0037-42.7613L77.9758-42.6977L77.9611-42.6676L77.9495-42.6481L77.9463-42.6375L77.938-42.6198L77.9348-42.6092L77.9232-42.5896L77.9199-42.579L77.9083-42.5594L77.9052-42.5489L77.8934-42.5292L77.8901-42.5187L77.8785-42.4991L77.8754-42.4885L77.8638-42.469L77.8605-42.4583L77.8488-42.4388L77.8423-42.4264L77.8306-42.4069L77.824-42.3946L77.8124-42.3749L77.8058-42.3626L77.7941-42.343L77.7876-42.3307L77.7725-42.3094L77.766-42.2971L77.751-42.2757L77.7444-42.2634L77.7294-42.2421L77.7228-42.2297L77.7078-42.2084L77.7012-42.1961L77.6862-42.1749L77.6797-42.1624L77.6646-42.1412L77.6581-42.1288L77.6431-42.1075L77.6364-42.0952L77.6215-42.0739L77.6147-42.0615L77.5963-42.0383L77.5898-42.026L77.5713-42.0027L77.5647-41.9905L77.5461-41.9672L77.5396-41.9549L77.5211-41.9317L77.5077-41.9156L77.5077-41.9156L77.4827-41.8799C76.7035-40.7883 75.4268-39.9064 73.86-39.5053C72.8726-39.2525 69.8914-38.4708 69.1692-38.2852L66.9404-46.901Z"/>
  </g>
 </g>
</svg>
