<?xml version="1.0" encoding="UTF-8"?>
<!--Generator: Apple Native CoreSVG 175-->
<!DOCTYPE svg
PUBLIC "-//W3C//DTD SVG 1.1//EN"
       "http://www.w3.org/Graphics/SVG/1.1/DTD/svg11.dtd">
<svg version="1.1" xmlns="http://www.w3.org/2000/svg" xmlns:xlink="http://www.w3.org/1999/xlink" width="3300" height="2200">
 <!--glyph: "", point size: 100.0, font version: "17.1d1e1", template writer version: "65.1"-->
 <style>.hierarchical-0:secondary {fill:#4D4D4D}
.hierarchical-1:primary {fill:#212121}

.SFSymbolsPreview212121 {fill:#212121;opacity:1.0}
.SFSymbolsPreview4D4D4D {fill:#4D4D4D;opacity:1.0}
</style>
 <g id="Notes">
  <rect height="2200" id="artboard" style="fill:white;opacity:1" width="3300" x="0" y="0"/>
  <line style="fill:none;stroke:black;opacity:1;stroke-width:0.5;" x1="263" x2="3036" y1="292" y2="292"/>
  <text style="stroke:none;fill:black;font-family:sans-serif;font-size:13;font-weight:bold;" transform="matrix(1 0 0 1 263 322)">Weight/Scale Variations</text>
  <text style="stroke:none;fill:black;font-family:sans-serif;font-size:13;text-anchor:middle;" transform="matrix(1 0 0 1 559.711 322)">Ultralight</text>
  <text style="stroke:none;fill:black;font-family:sans-serif;font-size:13;text-anchor:middle;" transform="matrix(1 0 0 1 856.422 322)">Thin</text>
  <text style="stroke:none;fill:black;font-family:sans-serif;font-size:13;text-anchor:middle;" transform="matrix(1 0 0 1 1153.13 322)">Light</text>
  <text style="stroke:none;fill:black;font-family:sans-serif;font-size:13;text-anchor:middle;" transform="matrix(1 0 0 1 1449.84 322)">Regular</text>
  <text style="stroke:none;fill:black;font-family:sans-serif;font-size:13;text-anchor:middle;" transform="matrix(1 0 0 1 1746.56 322)">Medium</text>
  <text style="stroke:none;fill:black;font-family:sans-serif;font-size:13;text-anchor:middle;" transform="matrix(1 0 0 1 2043.27 322)">Semibold</text>
  <text style="stroke:none;fill:black;font-family:sans-serif;font-size:13;text-anchor:middle;" transform="matrix(1 0 0 1 2339.98 322)">Bold</text>
  <text style="stroke:none;fill:black;font-family:sans-serif;font-size:13;text-anchor:middle;" transform="matrix(1 0 0 1 2636.69 322)">Heavy</text>
  <text style="stroke:none;fill:black;font-family:sans-serif;font-size:13;text-anchor:middle;" transform="matrix(1 0 0 1 2933.4 322)">Black</text>
  <line style="fill:none;stroke:black;opacity:1;stroke-width:0.5;" x1="263" x2="3036" y1="1903" y2="1903"/>
  <g transform="matrix(1 0 0 1 263 1933)">
   <path d="M9.24805 0.830078Q10.8691 0.830078 12.2949 0.214844Q13.7207-0.400391 14.8096-1.49414Q15.8984-2.58789 16.5186-4.01367Q17.1387-5.43945 17.1387-7.05078Q17.1387-8.66211 16.5186-10.0879Q15.8984-11.5137 14.8047-12.6074Q13.7109-13.7012 12.2852-14.3164Q10.8594-14.9316 9.23828-14.9316Q7.62695-14.9316 6.20117-14.3164Q4.77539-13.7012 3.69141-12.6074Q2.60742-11.5137 1.9873-10.0879Q1.36719-8.66211 1.36719-7.05078Q1.36719-5.43945 1.9873-4.01367Q2.60742-2.58789 3.69629-1.49414Q4.78516-0.400391 6.21094 0.214844Q7.63672 0.830078 9.24805 0.830078ZM9.24805-0.654297Q7.91992-0.654297 6.7627-1.14746Q5.60547-1.64062 4.73145-2.51953Q3.85742-3.39844 3.36426-4.56055Q2.87109-5.72266 2.87109-7.05078Q2.87109-8.37891 3.35938-9.54102Q3.84766-10.7031 4.72168-11.582Q5.5957-12.4609 6.75293-12.9541Q7.91016-13.4473 9.23828-13.4473Q10.5762-13.4473 11.7334-12.9541Q12.8906-12.4609 13.7695-11.582Q14.6484-10.7031 15.1465-9.54102Q15.6445-8.37891 15.6445-7.05078Q15.6445-5.72266 15.1514-4.56055Q14.6582-3.39844 13.7842-2.51953Q12.9102-1.64062 11.748-1.14746Q10.5859-0.654297 9.24805-0.654297ZM5.6543-7.05078Q5.6543-6.72852 5.85938-6.52832Q6.06445-6.32812 6.40625-6.32812L8.51562-6.32812L8.51562-4.20898Q8.51562-3.88672 8.71094-3.67676Q8.90625-3.4668 9.23828-3.4668Q9.56055-3.4668 9.77051-3.67676Q9.98047-3.88672 9.98047-4.20898L9.98047-6.32812L12.0898-6.32812Q12.4219-6.32812 12.627-6.52832Q12.832-6.72852 12.832-7.05078Q12.832-7.38281 12.627-7.58789Q12.4219-7.79297 12.0898-7.79297L9.98047-7.79297L9.98047-9.90234Q9.98047-10.2344 9.77051-10.4443Q9.56055-10.6543 9.23828-10.6543Q8.90625-10.6543 8.71094-10.4443Q8.51562-10.2344 8.51562-9.90234L8.51562-7.79297L6.40625-7.79297Q6.06445-7.79297 5.85938-7.58789Q5.6543-7.38281 5.6543-7.05078Z"/>
  </g>
  <g transform="matrix(1 0 0 1 281.867 1933)">
   <path d="M11.709 2.91016Q13.75 2.91016 15.5518 2.12891Q17.3535 1.34766 18.7305-0.0292969Q20.1074-1.40625 20.8887-3.20801Q21.6699-5.00977 21.6699-7.05078Q21.6699-9.0918 20.8887-10.8936Q20.1074-12.6953 18.7305-14.0723Q17.3535-15.4492 15.5469-16.2305Q13.7402-17.0117 11.6992-17.0117Q9.6582-17.0117 7.85645-16.2305Q6.05469-15.4492 4.68262-14.0723Q3.31055-12.6953 2.5293-10.8936Q1.74805-9.0918 1.74805-7.05078Q1.74805-5.00977 2.5293-3.20801Q3.31055-1.40625 4.6875-0.0292969Q6.06445 1.34766 7.86621 2.12891Q9.66797 2.91016 11.709 2.91016ZM11.709 1.25Q9.98047 1.25 8.47656 0.605469Q6.97266-0.0390625 5.83496-1.17676Q4.69727-2.31445 4.05762-3.81836Q3.41797-5.32227 3.41797-7.05078Q3.41797-8.7793 4.05762-10.2832Q4.69727-11.7871 5.83008-12.9297Q6.96289-14.0723 8.4668-14.7119Q9.9707-15.3516 11.6992-15.3516Q13.4277-15.3516 14.9316-14.7119Q16.4355-14.0723 17.5781-12.9297Q18.7207-11.7871 19.3652-10.2832Q20.0098-8.7793 20.0098-7.05078Q20.0098-5.32227 19.3701-3.81836Q18.7305-2.31445 17.5928-1.17676Q16.4551-0.0390625 14.9463 0.605469Q13.4375 1.25 11.709 1.25ZM7.17773-7.05078Q7.17773-6.69922 7.41211-6.47461Q7.64648-6.25 8.01758-6.25L10.8887-6.25L10.8887-3.36914Q10.8887-2.99805 11.1133-2.76855Q11.3379-2.53906 11.6895-2.53906Q12.0605-2.53906 12.29-2.76855Q12.5195-2.99805 12.5195-3.36914L12.5195-6.25L15.4004-6.25Q15.7715-6.25 16.001-6.47461Q16.2305-6.69922 16.2305-7.05078Q16.2305-7.42188 16.001-7.65137Q15.7715-7.88086 15.4004-7.88086L12.5195-7.88086L12.5195-10.752Q12.5195-11.1328 12.29-11.3623Q12.0605-11.5918 11.6895-11.5918Q11.3379-11.5918 11.1133-11.3574Q10.8887-11.123 10.8887-10.752L10.8887-7.88086L8.01758-7.88086Q7.63672-7.88086 7.40723-7.65137Q7.17773-7.42188 7.17773-7.05078Z"/>
  </g>
  <g transform="matrix(1 0 0 1 305.646 1933)">
   <path d="M14.9707 5.66406Q17.0605 5.66406 18.96 5.01465Q20.8594 4.36523 22.4512 3.19336Q24.043 2.02148 25.2197 0.429688Q26.3965-1.16211 27.0459-3.06641Q27.6953-4.9707 27.6953-7.05078Q27.6953-9.14062 27.0459-11.04Q26.3965-12.9395 25.2197-14.5312Q24.043-16.123 22.4512-17.2998Q20.8594-18.4766 18.9551-19.126Q17.0508-19.7754 14.9609-19.7754Q12.8711-19.7754 10.9717-19.126Q9.07227-18.4766 7.48535-17.2998Q5.89844-16.123 4.72168-14.5312Q3.54492-12.9395 2.90039-11.04Q2.25586-9.14062 2.25586-7.05078Q2.25586-4.9707 2.90527-3.06641Q3.55469-1.16211 4.72656 0.429688Q5.89844 2.02148 7.49023 3.19336Q9.08203 4.36523 10.9814 5.01465Q12.8809 5.66406 14.9707 5.66406ZM14.9707 3.84766Q13.1641 3.84766 11.5283 3.2959Q9.89258 2.74414 8.53516 1.74805Q7.17773 0.751953 6.17676-0.610352Q5.17578-1.97266 4.62891-3.6084Q4.08203-5.24414 4.08203-7.05078Q4.08203-8.86719 4.62891-10.5029Q5.17578-12.1387 6.17188-13.501Q7.16797-14.8633 8.52539-15.8594Q9.88281-16.8555 11.5186-17.4023Q13.1543-17.9492 14.9609-17.9492Q16.7773-17.9492 18.4131-17.4023Q20.0488-16.8555 21.4111-15.8594Q22.7734-14.8633 23.7695-13.501Q24.7656-12.1387 25.3174-10.5029Q25.8691-8.86719 25.8691-7.05078Q25.8789-5.24414 25.332-3.6084Q24.7852-1.97266 23.7842-0.610352Q22.7832 0.751953 21.4209 1.74805Q20.0586 2.74414 18.4229 3.2959Q16.7871 3.84766 14.9707 3.84766ZM9.19922-7.05078Q9.19922-6.66992 9.45801-6.4209Q9.7168-6.17188 10.1172-6.17188L14.0625-6.17188L14.0625-2.2168Q14.0625-1.81641 14.3115-1.55762Q14.5605-1.29883 14.9512-1.29883Q15.3516-1.29883 15.6104-1.55273Q15.8691-1.80664 15.8691-2.2168L15.8691-6.17188L19.8242-6.17188Q20.2246-6.17188 20.4785-6.4209Q20.7324-6.66992 20.7324-7.05078Q20.7324-7.46094 20.4785-7.71484Q20.2246-7.96875 19.8242-7.96875L15.8691-7.96875L15.8691-11.9141Q15.8691-12.3242 15.6104-12.583Q15.3516-12.8418 14.9512-12.8418Q14.5605-12.8418 14.3115-12.583Q14.0625-12.3242 14.0625-11.9141L14.0625-7.96875L10.1172-7.96875Q9.70703-7.96875 9.45312-7.71484Q9.19922-7.46094 9.19922-7.05078Z"/>
  </g>
  <text style="stroke:none;fill:black;font-family:sans-serif;font-size:13;font-weight:bold;" transform="matrix(1 0 0 1 263 1953)">Design Variations</text>
  <text style="stroke:none;fill:black;font-family:sans-serif;font-size:13;" transform="matrix(1 0 0 1 263 1971)">Symbols are supported in up to nine weights and three scales.</text>
  <text style="stroke:none;fill:black;font-family:sans-serif;font-size:13;" transform="matrix(1 0 0 1 263 1989)">For optimal layout with text and other symbols, vertically align</text>
  <text style="stroke:none;fill:black;font-family:sans-serif;font-size:13;" transform="matrix(1 0 0 1 263 2007)">symbols with the adjacent text.</text>
  <line style="fill:none;stroke:#00AEEF;stroke-width:0.5;opacity:1.0;" x1="776" x2="776" y1="1919" y2="1933"/>
  <g transform="matrix(1 0 0 1 776 1933)">
   <path d="M3.31055 0.15625Q3.70117 0.15625 3.91602-0.00976562Q4.13086-0.175781 4.26758-0.585938L5.52734-4.0332L11.2891-4.0332L12.5488-0.585938Q12.6855-0.175781 12.9004-0.00976562Q13.1152 0.15625 13.4961 0.15625Q13.8867 0.15625 14.1162-0.0585938Q14.3457-0.273438 14.3457-0.644531Q14.3457-0.869141 14.2383-1.17188L9.6582-13.3691Q9.48242-13.8184 9.17969-14.043Q8.87695-14.2676 8.4082-14.2676Q7.5-14.2676 7.17773-13.3789L2.59766-1.16211Q2.49023-0.859375 2.49023-0.634766Q2.49023-0.263672 2.70996-0.0537109Q2.92969 0.15625 3.31055 0.15625ZM6.00586-5.51758L8.37891-12.0898L8.42773-12.0898L10.8008-5.51758Z"/>
  </g>
  <line style="fill:none;stroke:#00AEEF;stroke-width:0.5;opacity:1.0;" x1="793.197" x2="793.197" y1="1919" y2="1933"/>
  <text style="stroke:none;fill:black;font-family:sans-serif;font-size:13;font-weight:bold;" transform="matrix(1 0 0 1 776 1953)">Margins</text>
  <text style="stroke:none;fill:black;font-family:sans-serif;font-size:13;" transform="matrix(1 0 0 1 776 1971)">Leading and trailing margins on the left and right side of each symbol</text>
  <text style="stroke:none;fill:black;font-family:sans-serif;font-size:13;" transform="matrix(1 0 0 1 776 1989)">can be adjusted by modifying the x-location of the margin guidelines.</text>
  <text style="stroke:none;fill:black;font-family:sans-serif;font-size:13;" transform="matrix(1 0 0 1 776 2007)">Modifications are automatically applied proportionally to all</text>
  <text style="stroke:none;fill:black;font-family:sans-serif;font-size:13;" transform="matrix(1 0 0 1 776 2025)">scales and weights.</text>
  <g transform="matrix(1 0 0 1 1289 1933)">
   <path d="M2.8418 1.86523L4.54102 3.57422Q5.18555 4.22852 5.90332 4.17969Q6.62109 4.13086 7.31445 3.35938L18.0078-8.42773L17.041-9.4043L6.42578 2.27539Q6.16211 2.57812 5.89355 2.61719Q5.625 2.65625 5.27344 2.30469L4.10156 1.14258Q3.75 0.791016 3.79395 0.522461Q3.83789 0.253906 4.14062-0.0195312L15.6152-10.8203L14.6387-11.7871L3.04688-0.898438Q2.30469-0.214844 2.25098 0.498047Q2.19727 1.21094 2.8418 1.86523ZM9.25781-16.3281Q8.94531-16.0254 8.90625-15.6348Q8.86719-15.2441 9.04297-14.9512Q9.21875-14.6777 9.55566-14.541Q9.89258-14.4043 10.3809-14.5215Q11.4746-14.7754 12.5977-14.7314Q13.7207-14.6875 14.7949-13.9844L14.209-12.5293Q13.9551-11.9043 14.0674-11.4404Q14.1797-10.9766 14.5801-10.5664L16.875-8.25195Q17.2363-7.88086 17.5781-7.82227Q17.9199-7.76367 18.3398-7.8418L19.4043-8.03711L20.0684-7.36328L20.0293-6.80664Q20-6.43555 20.1221-6.12305Q20.2441-5.81055 20.6055-5.44922L21.3672-4.70703Q21.7285-4.3457 22.1533-4.33105Q22.5781-4.31641 22.9297-4.66797L25.8398-7.58789Q26.1914-7.93945 26.1816-8.35449Q26.1719-8.76953 25.8105-9.13086L25.0391-9.89258Q24.6875-10.2539 24.3799-10.3857Q24.0723-10.5176 23.7109-10.4883L23.1348-10.4395L22.4902-11.0742L22.7344-12.1973Q22.832-12.6172 22.6953-12.9834Q22.5586-13.3496 22.1191-13.7891L19.9219-15.9766Q18.6719-17.2168 17.2607-17.8369Q15.8496-18.457 14.4189-18.4814Q12.9883-18.5059 11.665-17.959Q10.3418-17.4121 9.25781-16.3281ZM10.752-15.957Q11.6602-16.6211 12.7002-16.9043Q13.7402-17.1875 14.8047-17.085Q15.8691-16.9824 16.8701-16.5137Q17.8711-16.0449 18.7012-15.2051L21.1328-12.793Q21.3086-12.6172 21.3525-12.4512Q21.3965-12.2852 21.3379-12.0312L21.0156-10.5469L22.5195-9.0625L23.5059-9.12109Q23.6914-9.13086 23.7891-9.09668Q23.8867-9.0625 24.0332-8.91602L24.6094-8.33984L22.168-5.89844L21.5918-6.47461Q21.4453-6.62109 21.4062-6.71875Q21.3672-6.81641 21.377-7.01172L21.4453-7.98828L19.9512-9.47266L18.4277-9.21875Q18.1836-9.16992 18.042-9.2041Q17.9004-9.23828 17.7148-9.41406L15.7129-11.416Q15.5176-11.5918 15.4932-11.7529Q15.4688-11.9141 15.5859-12.1875L16.4648-14.2773Q15.293-15.3711 13.8281-15.791Q12.3633-16.2109 10.8398-15.7617Q10.7227-15.7324 10.6885-15.8057Q10.6543-15.8789 10.752-15.957Z"/>
  </g>
  <text style="stroke:none;fill:black;font-family:sans-serif;font-size:13;font-weight:bold;" transform="matrix(1 0 0 1 1289 1953)">Exporting</text>
  <text style="stroke:none;fill:black;font-family:sans-serif;font-size:13;" transform="matrix(1 0 0 1 1289 1971)">Symbols should be outlined when exporting to ensure the</text>
  <text style="stroke:none;fill:black;font-family:sans-serif;font-size:13;" transform="matrix(1 0 0 1 1289 1989)">design is preserved when submitting to Xcode.</text>
  <text id="template-version" style="stroke:none;fill:black;font-family:sans-serif;font-size:13;text-anchor:end;" transform="matrix(1 0 0 1 3036 1933)">Template v.3.0</text>
  <text style="stroke:none;fill:black;font-family:sans-serif;font-size:13;text-anchor:end;" transform="matrix(1 0 0 1 3036 1951)">Requires Xcode 13 or greater</text>
  <text id="descriptive-name" style="stroke:none;fill:black;font-family:sans-serif;font-size:13;text-anchor:end;" transform="matrix(1 0 0 1 3036 1969)">Generated from bytewords.bar</text>
  <text style="stroke:none;fill:black;font-family:sans-serif;font-size:13;text-anchor:end;" transform="matrix(1 0 0 1 3036 1987)">Typeset at 100 points</text>
  <text style="stroke:none;fill:black;font-family:sans-serif;font-size:13;" transform="matrix(1 0 0 1 263 726)">Small</text>
  <text style="stroke:none;fill:black;font-family:sans-serif;font-size:13;" transform="matrix(1 0 0 1 263 1156)">Medium</text>
  <text style="stroke:none;fill:black;font-family:sans-serif;font-size:13;" transform="matrix(1 0 0 1 263 1586)">Large</text>
 </g>
 <g id="Guides">
  <g id="H-reference" style="fill:#27AAE1;stroke:none;" transform="matrix(1 0 0 1 339 696)">
   <path d="M0.993347 0L3.6377 0L29.3282-67.1326L30.0301-67.1326L30.0301-70.459L28.1227-70.459ZM11.6882-24.4797L46.9818-24.4797L46.2311-26.7288L12.4382-26.7288ZM55.1193 0L57.7637 0L30.6381-70.459L29.4327-70.459L29.4327-67.1326Z"/>
  </g>
  <line id="Baseline-S" style="fill:none;stroke:#27AAE1;opacity:1;stroke-width:0.5;" x1="263" x2="3036" y1="696" y2="696"/>
  <line id="Capline-S" style="fill:none;stroke:#27AAE1;opacity:1;stroke-width:0.5;" x1="263" x2="3036" y1="625.541" y2="625.541"/>
  <g id="H-reference" style="fill:#27AAE1;stroke:none;" transform="matrix(1 0 0 1 339 1126)">
   <path d="M0.993347 0L3.6377 0L29.3282-67.1326L30.0301-67.1326L30.0301-70.459L28.1227-70.459ZM11.6882-24.4797L46.9818-24.4797L46.2311-26.7288L12.4382-26.7288ZM55.1193 0L57.7637 0L30.6381-70.459L29.4327-70.459L29.4327-67.1326Z"/>
  </g>
  <line id="Baseline-M" style="fill:none;stroke:#27AAE1;opacity:1;stroke-width:0.5;" x1="263" x2="3036" y1="1126" y2="1126"/>
  <line id="Capline-M" style="fill:none;stroke:#27AAE1;opacity:1;stroke-width:0.5;" x1="263" x2="3036" y1="1055.54" y2="1055.54"/>
  <g id="H-reference" style="fill:#27AAE1;stroke:none;" transform="matrix(1 0 0 1 339 1556)">
   <path d="M0.993347 0L3.6377 0L29.3282-67.1326L30.0301-67.1326L30.0301-70.459L28.1227-70.459ZM11.6882-24.4797L46.9818-24.4797L46.2311-26.7288L12.4382-26.7288ZM55.1193 0L57.7637 0L30.6381-70.459L29.4327-70.459L29.4327-67.1326Z"/>
  </g>
  <line id="Baseline-L" style="fill:none;stroke:#27AAE1;opacity:1;stroke-width:0.5;" x1="263" x2="3036" y1="1556" y2="1556"/>
  <line id="Capline-L" style="fill:none;stroke:#27AAE1;opacity:1;stroke-width:0.5;" x1="263" x2="3036" y1="1485.54" y2="1485.54"/>
  <line id="left-margin-Regular-M" style="fill:none;stroke:#00AEEF;stroke-width:0.5;opacity:1.0;" x1="1391.29" x2="1391.29" y1="1030.73" y2="1150.14"/>
  <line id="right-margin-Regular-M" style="fill:none;stroke:#00AEEF;stroke-width:0.5;opacity:1.0;" x1="1508.39" x2="1508.39" y1="1030.73" y2="1150.14"/>
 </g>
 <g id="Symbols">
  <g id="Semibold-L" transform="matrix(1 0 0 1 1970.22 1556)">
   <path class="hierarchical-0:secondary SFSymbolsPreview4D4D4D" d="M138-90.3854C138-93.975 135.09-96.8854 131.5-96.8854L14.4998-96.8854C10.9095-96.8854 7.99976-93.975 7.99976-90.3854C7.99976-86.7958 10.9095-83.8854 14.4998-83.8854L131.5-83.8854C135.09-83.8854 138-86.7958 138-90.3854ZM131.5 26.485L14.4998 26.485C10.9095 26.485 7.99976 23.5753 7.99976 19.985C7.99976 16.3948 10.9095 13.485 14.4998 13.485L131.5 13.485C135.09 13.485 138 16.3948 138 19.985C138 23.5753 135.09 26.485 131.5 26.485Z"/>
   <path class="hierarchical-1:primary SFSymbolsPreview212121" d="M67.93 2.30481C65.46 5.2948 61.95 6.72479 57.53 6.72479C53.11 6.72479 49.6 5.2948 47.13 2.30481C44.66-0.685181 43.36-4.71521 43.36-9.91519L43.36-15.7652C43.36-20.9652 44.66-24.9952 47.13-27.9852C49.6-30.9752 53.11-32.4052 57.53-32.4052C61.95-32.4052 65.46-30.9752 67.93-27.9852C70.4-24.9952 71.7-20.9652 71.7-15.7652L71.7-9.91519C71.7-4.71521 70.4-0.685181 67.93 2.30481ZM122.01-31.7552C127.34-31.7552 131.24-30.1952 133.97-27.0752C136.7-23.9552 138-19.2752 138-13.1652C138-6.7952 136.7-2.1152 133.97 1.00479C131.24 4.12482 127.34 5.81482 122.01 5.81482L110.57 5.81482L110.57-31.7552L122.01-31.7552ZM12.16-39.4252L12.16-76.9952L25.29-76.9952C28.8-76.9952 31.66-76.2152 33.61-74.5252C35.69-72.8352 36.6-70.6252 36.6-67.6352C36.6-66.2052 36.34-65.0352 35.69-63.8652C35.17-62.6952 34.39-61.7852 33.35-61.0052C32.31-60.2252 31.27-59.7052 29.97-59.5752L29.97-59.1852C31.66-59.0552 33.09-58.5352 34.39-57.7552C35.69-56.9752 36.6-55.9352 37.38-54.5052C38.03-53.2052 38.42-51.7752 38.42-50.0852C38.42-46.8352 37.25-44.2352 34.91-42.2852C32.57-40.3352 29.45-39.4252 25.42-39.4252L12.16-39.4252ZM84.31-8.35519L84.31 5.94479L78.07 5.94479L78.07-31.6252L91.33-31.6252C95.23-31.6252 98.35-30.5852 100.69-28.5052C103.03-26.4252 104.07-23.5652 104.07-19.9252C104.07-17.4552 103.42-15.3752 102.25-13.4252C101.08-11.4752 99.39-10.1752 97.31-9.3952L104.85 6.0748L97.7 6.0748L90.94-8.22519L84.31-8.22519L84.31-8.35519ZM63.25-1.85519C64.55-3.6752 65.33-6.53519 65.33-10.0452L65.33-15.7652C65.33-19.4052 64.68-22.1352 63.25-23.9552C61.95-25.7752 60-26.8152 57.53-26.8152C55.06-26.8152 53.11-25.9052 51.81-23.9552C50.51-22.1352 49.73-19.2752 49.73-15.7652L49.73-10.0452C49.73-6.40521 50.38-3.6752 51.81-1.85519C53.24-0.0351868 55.06 1.00479 57.53 1.00479C60 1.00479 61.95 0.0948181 63.25-1.85519ZM24.25-16.6752L19.7 5.94479L14.11 5.94479L8.00001-31.7552L13.72-31.7552L15.54-17.8452L17.36-2.63519L17.75-2.63519L21.91-23.1752L26.98-23.1752L31.14-2.7652L31.66-2.7652L33.48-17.9752L35.3-31.8852L41.02-31.8852L34.91 5.94479L29.32 5.94479L24.64-16.6752L24.25-16.6752ZM116.81 0.354797L121.23 0.354797C124.74 0.354797 127.34-0.685181 129.03-2.8952C130.72-5.10519 131.5-8.4852 131.5-13.0352C131.5-17.4552 130.59-20.8352 128.9-23.0452C127.21-25.2552 124.61-26.2952 121.1-26.2952L116.68-26.2952L116.68 0.354797L116.81 0.354797ZM135.53-39.4252L112.52-39.4252L112.52-76.9952L135.66-76.9952L135.66-71.5352L118.76-71.5352L118.76-61.0052L134.62-61.0052L134.62-55.9352L118.76-55.9352L118.76-44.8852L135.53-44.8852L135.53-39.4252ZM54.28-39.4252L54.28-53.9852L42.06-77.1252L48.95-77.1252L57.27-60.6152L57.66-60.6152L65.98-77.1252L72.87-77.1252L60.65-54.1152L60.65-39.5552L54.28-39.5552L54.28-39.4252ZM87.3-39.4252L87.3-71.5352L76.25-71.5352L76.25-76.9952L104.59-76.9952L104.59-71.5352L93.54-71.5352L93.54-39.4252L87.3-39.4252ZM84.31-13.4252L90.42-13.4252C92.76-13.4252 94.45-13.9452 95.75-15.1152C97.05-16.2852 97.7-17.8452 97.7-19.9252C97.7-22.0052 97.05-23.5652 95.88-24.7352C94.58-25.9052 92.89-26.4252 90.68-26.4252L84.44-26.4252L84.44-13.4252L84.31-13.4252ZM23.86-44.4952C26.59-44.4952 28.67-45.0152 29.97-46.0552C31.27-47.0952 32.05-48.6552 32.05-50.6052C32.05-54.5052 29.32-56.5852 23.73-56.5852L18.4-56.5852L18.4-44.4952L23.86-44.4952ZM18.4-61.2652L23.34-61.2652C25.68-61.2652 27.37-61.7852 28.67-62.6952C29.84-63.6052 30.49-64.9052 30.49-66.5952C30.49-68.4152 29.97-69.7152 28.8-70.6252C27.63-71.5352 25.94-72.0552 23.86-72.0552L18.53-72.0552L18.53-61.2652L18.4-61.2652Z"/>
  </g>
  <g id="Regular-L" transform="matrix(1 0 0 1 1376.14 1556)">
   <path class="hierarchical-0:secondary SFSymbolsPreview4D4D4D" d="M139.3 20.9103C139.3 17.6793 136.681 15.0603 133.45 15.0603L13.8497 15.0603C10.6188 15.0603 7.99976 17.6793 7.99976 20.9103C7.99976 24.1412 10.6188 26.7603 13.8497 26.7603L133.45 26.7603C136.681 26.7603 139.3 24.1412 139.3 20.9103ZM133.45-85.5603L13.8497-85.5603C10.6188-85.5603 7.99976-88.1793 7.99976-91.4103C7.99976-94.6412 10.6188-97.2603 13.8497-97.2603L133.45-97.2603C136.681-97.2603 139.3-94.6412 139.3-91.4103C139.3-88.1793 136.681-85.5603 133.45-85.5603Z"/>
   <path class="hierarchical-1:primary SFSymbolsPreview212121" d="M68.3199 3.22986C65.85 6.21985 62.47 7.6499 58.1799 7.6499C53.8899 7.6499 50.5099 6.21985 48.0398 3.22986C45.5698 0.239746 44.3998-3.79028 44.3998-8.99023L44.3998-15.1001C44.3998-20.3002 45.5698-24.3301 48.0398-27.3202C50.5099-30.1802 53.8899-31.7402 58.1799-31.7402C62.47-31.7402 65.85-30.3103 68.3199-27.3202C70.79-24.4602 71.9601-20.3002 71.9601-15.1001L71.9601-8.99023C72.09-3.79028 70.79 0.239746 68.3199 3.22986ZM122.53-30.8303C127.86-30.8303 131.89-29.2704 134.62-26.1503C137.35-23.0303 138.65-18.3503 138.65-12.1102C138.65-5.87024 137.35-1.0603 134.62 2.05981C131.89 5.17981 127.99 6.73975 122.53 6.73975L112 6.73975L112-30.9602L122.53-30.9602L122.53-30.8303ZM13.59-40.4503L13.59-78.1503L25.8101-78.1503C29.3199-78.1503 32.05-77.3704 34.0001-75.6803C35.9501-73.9902 36.9901-71.7803 36.9901-68.7903C36.9901-67.3602 36.7302-66.0603 36.2102-64.8903C35.6902-63.7202 34.9102-62.8103 33.8701-62.0303C32.8301-61.2504 31.7902-60.7302 30.4901-60.4703L30.4901-60.0803C32.1802-59.9503 33.6102-59.4303 34.9102-58.6503C36.2102-57.8704 37.1201-56.7003 37.9003-55.4003C38.5503-54.1003 38.9403-52.5404 38.9403-50.8503C38.9403-47.6003 37.7703-45.0004 35.5603-43.1803C33.2203-41.3602 30.1005-40.4503 26.0703-40.4503L13.59-40.4503ZM84.05-8.21021L84.05 6.86975L79.5001 6.86975L79.5001-30.8303L92.11-30.8303C95.88-30.8303 98.74-29.7903 100.95-27.8402C103.16-25.7603 104.2-23.0303 104.2-19.5201C104.2-17.0502 103.55-14.8402 102.25-13.0201C100.95-11.0702 99.26-9.90015 97.1801-9.12024L104.85 6.86987L99.6501 6.86987L92.63-8.21008L84.05-8.21008L84.05-8.21021ZM64.9401 0.109741C66.63-1.97021 67.41-5.09021 67.41-8.99023L67.41-14.9702C67.41-18.8702 66.63-21.9902 64.9401-24.0702C63.2499-26.1501 61.04-27.1902 58.1801-27.1902C55.3202-27.1902 53.11-26.1501 51.4202-24.0702C49.7301-21.9902 48.9501-18.8702 48.9501-14.9702L48.9501-8.99023C48.9501-5.09021 49.7301-1.97021 51.4202 0.109741C53.1102 2.1897 55.3202 3.22986 58.1801 3.22986C61.1699 3.22986 63.38 2.1897 64.9401 0.109741ZM25.03-16.5303L19.4401 6.86975L15.1499 6.86975L8.6499-30.8303L13.0699-30.8303L15.2799-15.7504L17.4899-0.0203856L17.7498-0.0203856L23.0797-22.2504L27.2396-22.2504L32.5697-0.0203856L32.8296-0.0203856L35.0396-15.7504L37.2495-30.8303L41.6696-30.8303L35.1696 6.86975L30.8794 6.86975L25.2894-16.5303L25.03-16.5303ZM116.68 2.57983L122.14 2.57983C126.17 2.57983 129.03 1.40979 130.98-1.0603C132.93-3.40027 133.84-7.17017 133.84-12.1102C133.84-17.0503 132.93-20.6902 130.98-23.1603C129.03-25.5004 126.04-26.8003 122.14-26.8003L116.68-26.8003L116.68 2.57983ZM136.18-40.4503L113.95-40.4503L113.95-78.1503L136.18-78.1503L136.18-73.8602L118.5-73.8602L118.5-61.6403L135.14-61.6403L135.14-57.6102L118.5-57.6102L118.5-44.6102L136.18-44.6102L136.18-40.4503ZM55.97-40.4503L55.97-56.0503L43.36-78.1503L48.5601-78.1503L58.05-60.8602L58.4402-60.8602L67.9302-78.1503L73.1302-78.1503L60.5203-56.0503L60.5203-40.4503L55.97-40.4503ZM88.99-40.4503L88.99-73.8602L77.5499-73.8602L77.5499-78.1503L104.98-78.1503L104.98-73.8602L93.5398-73.8602L93.5398-40.4503L88.99-40.4503ZM84.05-12.1102L91.4601-12.1102C94.0601-12.1102 96.14-12.7603 97.4401-14.0603C98.87-15.3602 99.52-17.1803 99.52-19.5201C99.52-21.8602 98.87-23.6802 97.4401-24.9801C96.01-26.2802 94.0601-26.9302 91.59-26.9302L83.9199-26.9302L83.9199-12.1102L84.05-12.1102ZM24.9001-44.4802C27.8901-44.4802 30.1001-45.0004 31.66-46.1704C33.22-47.3403 34.0001-49.0303 34.0001-51.2404C34.0001-55.7904 30.88-58.0004 24.7701-58.0004L18.1401-58.0004L18.1401-44.3503L24.9001-44.3503L24.9001-44.4802ZM18.14-61.9003L23.99-61.9003C26.72-61.9003 28.6699-62.4204 30.1-63.4602C31.5299-64.5004 32.1799-66.0603 32.1799-68.0103C32.1799-69.9602 31.5299-71.5201 30.2299-72.5603C28.9299-73.6003 27.1099-74.1202 24.6399-74.1202L18.0099-74.1202L18.0099-61.9003L18.14-61.9003Z"/>
  </g>
  <g id="Semibold-M" transform="matrix(1 0 0 1 1985.22 1126)">
   <path class="hierarchical-0:secondary SFSymbolsPreview4D4D4D" d="M108-77.7002C108-80.4614 105.761-82.7002 103-82.7002L12.9998-82.7002C10.238-82.7002 7.99976-80.4614 7.99976-77.7002C7.99976-74.939 10.238-72.7002 12.9998-72.7002L103-72.7002C105.761-72.7002 108-74.939 108-77.7002ZM103 12.2002L12.9998 12.2002C10.238 12.2002 7.99976 9.96191 7.99976 7.2002C7.99976 4.43848 10.238 2.2002 12.9998 2.2002L103 2.2002C105.761 2.2002 108 4.43848 108 7.2002C108 9.96191 105.761 12.2002 103 12.2002Z"/>
   <path class="hierarchical-1:primary SFSymbolsPreview212121" d="M54.1-6.4C52.2-4.1 49.5-3 46.1-3C42.7-3 40-4.1 38.1-6.4C36.2-8.7 35.2-11.8 35.2-15.8L35.2-20.3C35.2-24.3 36.2-27.4 38.1-29.7C40-32 42.7-33.1 46.1-33.1C49.5-33.1 52.2-32 54.1-29.7C56-27.4 57-24.3 57-20.3L57-15.8C57-11.8 56-8.7 54.1-6.4ZM95.7-32.6C99.7999-32.6 102.8-31.4 104.9-29C107-26.6 108-23 108-18.3C108-13.4 107-9.8 104.9-7.4C102.8-5 99.7999-3.7 95.7-3.7L86.8999-3.7L86.8999-32.6L95.7-32.6ZM11.2-38.5L11.2-67.4L21.3-67.4C24-67.4 26.2-66.8 27.7-65.5C29.3-64.2 30-62.5 30-60.2C30-59.1 29.7999-58.2 29.2999-57.3C28.8999-56.4 28.2999-55.7 27.5-55.1C26.7-54.5 25.9-54.1 24.9-54L24.9-53.7C26.1999-53.6 27.2999-53.2 28.2999-52.6C29.2999-52 30-51.2 30.5999-50.1C31.0999-49.1 31.3999-48 31.3999-46.7C31.3999-44.2 30.4999-42.2 28.6999-40.7C26.8999-39.2 24.4999-38.5 21.3999-38.5L11.2-38.5ZM66.7-14.6L66.7-3.6L61.9-3.6L61.9-32.5L72.1-32.5C75.1-32.5 77.5-31.7 79.2999-30.1C81.1-28.5 81.8999-26.3 81.8999-23.5C81.8999-21.6 81.3999-20 80.4999-18.5C79.5999-17 78.2999-16 76.6999-15.4L82.4999-3.5L76.9999-3.5L71.7999-14.5L66.7-14.5L66.7-14.6ZM50.5-9.6C51.5-11 52.0999-13.2 52.0999-15.9L52.0999-20.3C52.0999-23.1 51.5999-25.2 50.5-26.6C49.5-28 48-28.8 46.0999-28.8C44.1999-28.8 42.6999-28.1 41.6999-26.6C40.6999-25.2 40.0999-23 40.0999-20.3L40.0999-15.9C40.0999-13.1 40.5999-11 41.6999-9.6C42.7999-8.2 44.1999-7.4 46.0999-7.4C48-7.4 49.5-8.1 50.5-9.6ZM20.5-21L17-3.6L12.7-3.6L7.99995-32.6L12.4-32.6L13.8-21.9L15.2-10.2L15.5-10.2L18.7-26L22.6-26L25.8-10.3L26.2-10.3L27.6-22L29-32.7L33.4-32.7L28.7-3.6L24.4-3.6L20.8-21L20.5-21ZM91.7-7.9L95.1-7.9C97.7999-7.9 99.7999-8.7 101.1-10.4C102.4-12.1 103-14.7 103-18.2C103-21.6 102.3-24.2 101-25.9C99.7-27.6 97.7-28.4 95-28.4L91.6-28.4L91.6-7.9L91.7-7.9ZM106.1-38.5L88.3999-38.5L88.3999-67.4L106.2-67.4L106.2-63.2L93.2-63.2L93.2-55.1L105.4-55.1L105.4-51.2L93.2-51.2L93.2-42.7L106.1-42.7L106.1-38.5ZM43.6-38.5L43.6-49.7L34.2-67.5L39.5-67.5L45.9-54.8L46.2-54.8L52.6-67.5L57.9-67.5L48.5-49.8L48.5-38.6L43.6-38.6L43.6-38.5ZM69-38.5L69-63.2L60.5-63.2L60.5-67.4L82.3-67.4L82.3-63.2L73.8-63.2L73.8-38.5L69-38.5ZM66.7-18.5L71.3999-18.5C73.2-18.5 74.4999-18.9 75.4999-19.8C76.4999-20.7 76.9999-21.9 76.9999-23.5C76.9999-25.1 76.4999-26.3 75.5999-27.2C74.5999-28.1 73.2999-28.5 71.5999-28.5L66.7999-28.5L66.7999-18.5L66.7-18.5ZM20.2-42.4C22.3-42.4 23.9-42.8 24.9-43.6C25.9-44.4 26.5-45.6 26.5-47.1C26.5-50.1 24.4-51.7 20.1-51.7L16-51.7L16-42.4L20.2-42.4ZM16-55.3L19.7999-55.3C21.5999-55.3 22.8999-55.7 23.8999-56.4C24.7999-57.1 25.2999-58.1 25.2999-59.4C25.2999-60.8 24.8999-61.8 24-62.5C23.1-63.2 21.7999-63.6 20.2-63.6L16.1-63.6L16.1-55.3L16-55.3Z"/>
  </g>
  <g id="Regular-M" transform="matrix(1 0 0 1 1391.29 1126)">
   <path class="hierarchical-0:secondary SFSymbolsPreview4D4D4D" d="M109 7.90039C109 5.41504 106.985 3.40039 104.5 3.40039L12.4998 3.40039C10.0144 3.40039 7.99976 5.41504 7.99976 7.90039C7.99976 10.3857 10.0144 12.4004 12.4998 12.4004L104.5 12.4004C106.985 12.4004 109 10.3857 109 7.90039ZM104.5-74L12.4998-74C10.0144-74 7.99976-76.0146 7.99976-78.5C7.99976-80.9854 10.0144-83 12.4998-83L104.5-83C106.985-83 109-80.9854 109-78.5C109-76.0146 106.985-74 104.5-74Z"/>
   <path class="hierarchical-1:primary SFSymbolsPreview212121" d="M54.3999-5.69995C52.4999-3.3999 49.8999-2.29993 46.5999-2.29993C43.2998-2.29993 40.6998-3.3999 38.7998-5.69995C36.8998-8 35.9998-11.1 35.9998-15.1L35.9998-19.7999C35.9998-23.7999 36.8998-26.8999 38.7998-29.2C40.6998-31.3999 43.2998-32.6 46.5999-32.6C49.8999-32.6 52.4999-31.5 54.3999-29.2C56.2999-27 57.2-23.7999 57.2-19.7999L57.2-15.1C57.2999-11.1 56.2999-8 54.3999-5.69995ZM96.1-31.9C100.2-31.9 103.3-30.7001 105.4-28.3C107.5-25.9 108.5-22.3 108.5-17.5C108.5-12.7 107.5-9 105.4-6.59998C103.3-4.19995 100.3-3 96.1-3L88-3L88-32L96.1-32L96.1-31.9ZM12.2999-39.3L12.2999-68.3L21.7-68.3C24.3999-68.3 26.5-67.7001 28-66.4C29.5-65.1 30.3-63.4 30.3-61.1C30.3-60 30.1001-59 29.7001-58.1C29.3-57.2 28.7001-56.5 27.9-55.9C27.1-55.3 26.3-54.9 25.3-54.7001L25.3-54.4C26.6001-54.3 27.7001-53.9 28.7001-53.3C29.7001-52.7001 30.4-51.8 31.0001-50.8C31.5001-49.8 31.8002-48.6001 31.8002-47.3C31.8002-44.8 30.9001-42.8 29.2002-41.4C27.4001-40 25.0002-39.3 21.9001-39.3L12.2999-39.3ZM66.5-14.5L66.5-2.90002L63-2.90002L63-31.9L72.7-31.9C75.6-31.9 77.7999-31.1 79.5-29.6C81.2-28 82-25.9 82-23.2C82-21.2999 81.5-19.6 80.5-18.2C79.5-16.7 78.2-15.7999 76.6-15.2L82.5-2.8999L78.5-2.8999L73.1-14.4999L66.5-14.4999L66.5-14.5ZM51.7999-8.09998C53.1-9.69995 53.7-12.1 53.7-15.1L53.7-19.7C53.7-22.7 53.1-25.1 51.7999-26.7C50.4999-28.2999 48.7999-29.1 46.6-29.1C44.4-29.1 42.7-28.2999 41.4-26.7C40.1-25.1 39.5-22.7 39.5-19.7L39.5-15.1C39.5-12.1 40.1-9.69995 41.4-8.09998C42.7001-6.5 44.4-5.69995 46.6-5.69995C48.8999-5.69995 50.6-6.5 51.7999-8.09998ZM21.1-20.9L16.7999-2.90002L13.4999-2.90002L8.49988-31.9L11.8999-31.9L13.5999-20.3L15.2998-8.20007L15.4998-8.20007L19.5997-25.3L22.7997-25.3L26.8997-8.20007L27.0996-8.20007L28.7996-20.3L30.4995-31.9L33.8995-31.9L28.8995-2.90002L25.5995-2.90002L21.2994-20.9L21.1-20.9ZM91.6-6.19995L95.7999-6.19995C98.8999-6.19995 101.1-7.09998 102.6-9C104.1-10.8 104.8-13.7 104.8-17.5C104.8-21.3 104.1-24.1 102.6-26C101.1-27.8 98.7999-28.8 95.7999-28.8L91.6-28.8L91.6-6.19995ZM106.6-39.3L89.5-39.3L89.5-68.3L106.6-68.3L106.6-65L93-65L93-55.6L105.8-55.6L105.8-52.5L93-52.5L93-42.5L106.6-42.5L106.6-39.3ZM44.8999-39.3L44.8999-51.3L35.2-68.3L39.2-68.3L46.5-55L46.8-55L54.1001-68.3L58.1001-68.3L48.4001-51.3L48.4001-39.3L44.8999-39.3ZM70.2999-39.3L70.2999-65L61.4999-65L61.4999-68.3L82.5999-68.3L82.5999-65L73.7998-65L73.7998-39.3L70.2999-39.3ZM66.5-17.5L72.2-17.5C74.2-17.5 75.7999-18 76.7999-19C77.8999-20 78.3999-21.4 78.3999-23.2C78.3999-25 77.8999-26.3999 76.7999-27.3999C75.7-28.3999 74.2-28.8999 72.2999-28.8999L66.3999-28.8999L66.3999-17.5L66.5-17.5ZM21-42.4C23.3-42.4 25-42.8 26.2-43.7001C27.3999-44.6001 28-45.9 28-47.6001C28-51.1001 25.6-52.8 20.9-52.8L15.8-52.8L15.8-42.3L21-42.3L21-42.4ZM15.7999-55.8L20.2999-55.8C22.3999-55.8 23.8999-56.2001 24.9999-57C26.0999-57.8 26.5999-59 26.5999-60.5C26.5999-62 26.0999-63.2 25.0999-64C24.0999-64.8 22.6998-65.2 20.7998-65.2L15.6998-65.2L15.6998-55.8L15.7999-55.8Z"/>
  </g>
  <g id="Semibold-S" transform="matrix(1 0 0 1 1995.22 696)">
   <path class="hierarchical-0:secondary SFSymbolsPreview4D4D4D" d="M87.9998-69.1603C87.9998-71.3693 86.2091-73.1603 83.9998-73.1603L11.9998-73.1603C9.79038-73.1603 7.99976-71.3693 7.99976-69.1603C7.99976-66.9514 9.79038-65.1603 11.9998-65.1603L83.9998-65.1603C86.2091-65.1603 87.9998-66.9514 87.9998-69.1603ZM83.9998 2.75995L11.9998 2.75995C9.79038 2.75995 7.99976 0.96933 7.99976-1.24005C7.99976-3.4494 9.79038-5.24005 11.9998-5.24005L83.9998-5.24005C86.2091-5.24005 87.9998-3.4494 87.9998-1.24005C87.9998 0.96933 86.2091 2.75995 83.9998 2.75995Z"/>
   <path class="hierarchical-1:primary SFSymbolsPreview212121" d="M44.8799-12.1202C43.3599-10.2802 41.1999-9.40021 38.4799-9.40021C35.7599-9.40021 33.5999-10.2802 32.0799-12.1202C30.5599-13.9602 29.7599-16.4402 29.7599-19.6402L29.7599-23.2402C29.7599-26.4402 30.5599-28.9202 32.0799-30.7602C33.5999-32.6002 35.7599-33.4802 38.4799-33.4802C41.1999-33.4802 43.3599-32.6002 44.8799-30.7602C46.3999-28.9202 47.1999-26.4402 47.1999-23.2402L47.1999-19.6402C47.1999-16.4402 46.3999-13.9602 44.8799-12.1202ZM78.1599-33.0802C81.4399-33.0802 83.8399-32.1202 85.5199-30.2002C87.1999-28.2802 87.9999-25.4002 87.9999-21.6402C87.9999-17.7202 87.1999-14.8402 85.5199-12.9202C83.8399-11.0002 81.4399-9.9602 78.1599-9.9602L71.1199-9.9602L71.1199-33.0802L78.1599-33.0802ZM10.5599-37.8002L10.5599-60.9202L18.6399-60.9202C20.7999-60.9202 22.5599-60.4402 23.7599-59.4002C25.0399-58.3602 25.5999-57.0002 25.5999-55.1602C25.5999-54.2802 25.4399-53.5602 25.0399-52.8402C24.7199-52.1202 24.2399-51.5602 23.5999-51.0802C22.9599-50.6002 22.3199-50.2802 21.5199-50.2002L21.5199-49.9602C22.5599-49.8802 23.4399-49.5602 24.2399-49.0802C25.0399-48.6002 25.5999-47.9602 26.0799-47.0802C26.4799-46.2802 26.7199-45.4002 26.7199-44.3602C26.7199-42.3602 25.9999-40.7602 24.5599-39.5602C23.1199-38.3602 21.1999-37.8002 18.7199-37.8002L10.5599-37.8002ZM54.9599-18.6802L54.9599-9.88019L51.1199-9.88019L51.1199-33.0002L59.2799-33.0002C61.6799-33.0002 63.5999-32.3602 65.0399-31.0802C66.4799-29.8002 67.1199-28.0402 67.1199-25.8002C67.1199-24.2802 66.7199-23.0002 65.9999-21.8002C65.2799-20.6002 64.2399-19.8002 62.9599-19.3202L67.5999-9.8002L63.1999-9.8002L59.0399-18.6002L54.9599-18.6002L54.9599-18.6802ZM41.9999-14.6802C42.7999-15.8002 43.2799-17.5602 43.2799-19.7202L43.2799-23.2402C43.2799-25.4802 42.8799-27.1602 41.9999-28.2802C41.1999-29.4002 39.9999-30.0402 38.4799-30.0402C36.9599-30.0402 35.7599-29.4802 34.9599-28.2802C34.1599-27.1602 33.6799-25.4002 33.6799-23.2402L33.6799-19.7202C33.6799-17.4802 34.0799-15.8002 34.9599-14.6802C35.8399-13.5602 36.9599-12.9202 38.4799-12.9202C39.9999-12.9202 41.1999-13.4802 41.9999-14.6802ZM17.9999-23.8002L15.1999-9.88019L11.7599-9.88019L7.99992-33.0802L11.5199-33.0802L12.6399-24.5202L13.7599-15.1602L13.9999-15.1602L16.5599-27.8002L19.6799-27.8002L22.2399-15.2402L22.5599-15.2402L23.6799-24.6002L24.7999-33.1602L28.3199-33.1602L24.5599-9.88019L21.1199-9.88019L18.2399-23.8002L17.9999-23.8002ZM74.9599-13.3202L77.6799-13.3202C79.8399-13.3202 81.4399-13.9602 82.4799-15.3202C83.5199-16.6802 83.9999-18.7602 83.9999-21.5602C83.9999-24.2802 83.4399-26.3602 82.3999-27.7202C81.3599-29.0802 79.7599-29.7202 77.5999-29.7202L74.8799-29.7202L74.8799-13.3202L74.9599-13.3202ZM86.4799-37.8002L72.3199-37.8002L72.3199-60.9202L86.5599-60.9202L86.5599-57.5602L76.1599-57.5602L76.1599-51.0802L85.9199-51.0802L85.9199-47.9602L76.1599-47.9602L76.1599-41.1602L86.4799-41.1602L86.4799-37.8002ZM36.4799-37.8002L36.4799-46.7602L28.9599-61.0002L33.1999-61.0002L38.3199-50.8402L38.5599-50.8402L43.6799-61.0002L47.9199-61.0002L40.3999-46.8402L40.3999-37.8802L36.4799-37.8802L36.4799-37.8002ZM56.7999-37.8002L56.7999-57.5602L49.9999-57.5602L49.9999-60.9202L67.4399-60.9202L67.4399-57.5602L60.6399-57.5602L60.6399-37.8002L56.7999-37.8002ZM54.9599-21.8002L58.7199-21.8002C60.1599-21.8002 61.1999-22.1202 61.9999-22.8402C62.7999-23.5602 63.1999-24.5202 63.1999-25.8002C63.1999-27.0802 62.7999-28.0402 62.0799-28.7602C61.2799-29.4802 60.2399-29.8002 58.8799-29.8002L55.0399-29.8002L55.0399-21.8002L54.9599-21.8002ZM17.7599-40.9202C19.4399-40.9202 20.7199-41.2402 21.5199-41.8802C22.3199-42.5202 22.7999-43.4802 22.7999-44.6802C22.7999-47.0802 21.1199-48.3602 17.6799-48.3602L14.3999-48.3602L14.3999-40.9202L17.7599-40.9202ZM14.3999-51.2402L17.4399-51.2402C18.8799-51.2402 19.9199-51.5602 20.7199-52.1202C21.4399-52.6802 21.8399-53.4802 21.8399-54.5202C21.8399-55.6402 21.5199-56.4402 20.7999-57.0002C20.0799-57.5602 19.0399-57.8802 17.7599-57.8802L14.4799-57.8802L14.4799-51.2402L14.3999-51.2402Z"/>
  </g>
  <g id="Regular-S" transform="matrix(1 0 0 1 1401.39 696)">
   <path class="hierarchical-0:secondary SFSymbolsPreview4D4D4D" d="M88.7998-0.689819C88.7998-2.6781 87.1881-4.28986 85.1998-4.28986L11.5997-4.28986C9.61145-4.28986 7.99976-2.6781 7.99976-0.689819C7.99976 1.29846 9.61145 2.91016 11.5997 2.91016L85.1998 2.91016C87.1881 2.91016 88.7998 1.29846 88.7998-0.689819ZM85.1998-66.2101L11.5997-66.2101C9.61145-66.2101 7.99976-67.8219 7.99976-69.8102C7.99976-71.7985 9.61145-73.4102 11.5997-73.4102L85.1998-73.4102C87.1881-73.4102 88.7998-71.7985 88.7998-69.8102C88.7998-67.8219 87.1881-66.2101 85.1998-66.2101Z"/>
   <path class="hierarchical-1:primary SFSymbolsPreview212121" d="M45.1199-11.5701C43.5999-9.7301 41.5199-8.8501 38.8799-8.8501C36.2399-8.8501 34.1598-9.7301 32.6398-11.5701C31.1198-13.4102 30.3998-15.8901 30.3998-19.0901L30.3998-22.8501C30.3998-26.0501 31.1198-28.5301 32.6398-30.3701C34.1598-32.1301 36.2399-33.0901 38.8799-33.0901C41.5199-33.0901 43.5999-32.2101 45.1199-30.3701C46.6399-28.6102 47.36-26.0501 47.36-22.8501L47.36-19.0901C47.4399-15.8901 46.6399-13.4102 45.1199-11.5701ZM78.48-32.5302C81.7599-32.5302 84.2399-31.5702 85.92-29.6502C87.6-27.7302 88.4-24.8502 88.4-21.0101C88.4-17.1701 87.6-14.2101 85.92-12.2902C84.24-10.3701 81.84-9.41016 78.48-9.41016L72-9.41016L72-32.6102L78.48-32.6102L78.48-32.5302ZM11.4399-38.4502L11.4399-61.6502L18.96-61.6502C21.1199-61.6502 22.7999-61.1702 24-60.1302C25.2-59.0901 25.84-57.7302 25.84-55.8901C25.84-55.0101 25.6801-54.2101 25.36-53.4901C25.04-52.7701 24.5601-52.2101 23.92-51.7302C23.2799-51.2502 22.64-50.9302 21.84-50.7702L21.84-50.5302C22.88-50.4502 23.76-50.1302 24.5601-49.6502C25.36-49.1702 25.92-48.4502 26.4-47.6502C26.8-46.8502 27.0402-45.8903 27.0402-44.8502C27.0402-42.8502 26.3201-41.2502 24.9601-40.1302C23.5201-39.0101 21.6002-38.4502 19.1201-38.4502L11.4399-38.4502ZM54.7999-18.6102L54.7999-9.3302L52-9.3302L52-32.5302L59.7599-32.5302C62.08-32.5302 63.84-31.8901 65.2-30.6901C66.5599-29.4102 67.2-27.7302 67.2-25.5701C67.2-24.0501 66.7999-22.6901 66-21.5701C65.2-20.3701 64.1599-19.6501 62.88-19.1701L67.6-9.33008L64.4-9.33008L60.08-18.61L54.7999-18.61L54.7999-18.6102ZM43.0399-13.4901C44.08-14.7701 44.5599-16.6901 44.5599-19.0901L44.5599-22.7701C44.5599-25.1701 44.08-27.0901 43.0399-28.3701C41.9999-29.6501 40.6399-30.2902 38.88-30.2902C37.12-30.2902 35.7599-29.6501 34.72-28.3701C33.6799-27.0901 33.2-25.1701 33.2-22.7701L33.2-19.0901C33.2-16.6901 33.6799-14.7701 34.72-13.4901C35.76-12.2101 37.12-11.5701 38.88-11.5701C40.7198-11.5701 42.08-12.2101 43.0399-13.4901ZM18.48-23.7302L15.0399-9.3302L12.3999-9.3302L8.3999-32.5302L11.1199-32.5302L12.4799-23.2502L13.8398-13.5702L13.9998-13.5702L17.2798-27.2502L19.8397-27.2502L23.1198-13.5702L23.2797-13.5702L24.6396-23.2502L25.9996-32.5302L28.7196-32.5302L24.7196-9.3302L22.0796-9.3302L18.6395-23.7302L18.48-23.7302ZM74.88-11.9701L78.2399-11.9701C80.7198-11.9701 82.48-12.6901 83.6799-14.2101C84.88-15.6502 85.4399-17.9701 85.4399-21.0101C85.4399-24.0502 84.88-26.2902 83.6799-27.8102C82.48-29.2502 80.6399-30.0502 78.2399-30.0502L74.88-30.0502L74.88-11.9701ZM86.88-38.4502L73.2-38.4502L73.2-61.6502L86.88-61.6502L86.88-59.0101L76-59.0101L76-51.4901L86.24-51.4901L86.24-49.0101L76-49.0101L76-41.0101L86.88-41.0101L86.88-38.4502ZM37.5199-38.4502L37.5199-48.0502L29.7599-61.6502L32.96-61.6502L38.7999-51.0101L39.04-51.0101L44.88-61.6502L48.0801-61.6502L40.3201-48.0502L40.3201-38.4502L37.5199-38.4502ZM57.84-38.4502L57.84-59.0101L50.7999-59.0101L50.7999-61.6502L67.6798-61.6502L67.6798-59.0101L60.6398-59.0101L60.6398-38.4502L57.84-38.4502ZM54.7999-21.0101L59.36-21.0101C60.96-21.0101 62.2399-21.4102 63.0399-22.2101C63.9199-23.0101 64.3199-24.1302 64.3199-25.5701C64.3199-27.0101 63.9199-28.1301 63.0399-28.9301C62.1599-29.7301 60.96-30.1301 59.4399-30.1301L54.7198-30.1301L54.7198-21.0101L54.7999-21.0101ZM18.4-40.9302C20.24-40.9302 21.6-41.2502 22.5599-41.9702C23.5199-42.6902 24-43.7302 24-45.0902C24-47.8903 22.08-49.2502 18.3199-49.2502L14.24-49.2502L14.24-40.8502L18.4-40.8502L18.4-40.9302ZM14.2399-51.6502L17.84-51.6502C19.5199-51.6502 20.7198-51.9702 21.5999-52.6102C22.4799-53.2502 22.8799-54.2101 22.8799-55.4102C22.8799-56.6102 22.4799-57.5701 21.6798-58.2101C20.8799-58.8502 19.7599-59.1701 18.2399-59.1701L14.1598-59.1701L14.1598-51.6502L14.2399-51.6502Z"/>
  </g>
 </g>
</svg>
