<?xml version="1.0" encoding="utf-8"?>
<!-- Generator: Adobe Illustrator 26.0.3, SVG Export Plug-In . SVG Version: 6.00 Build 0)  -->
<svg version="1.1" id="Layer_1" xmlns="http://www.w3.org/2000/svg" xmlns:xlink="http://www.w3.org/1999/xlink" x="0px" y="0px"
	 width="3300px" height="2200px" viewBox="0 0 3300 2200" enable-background="new 0 0 3300 2200" xml:space="preserve">
<g id="Notes">
	<rect id="artboard" fill="#FFFFFF" width="3300" height="2200"/>
	<line fill="none" stroke="#000000" stroke-width="0.5" x1="263" y1="292" x2="3036" y2="292"/>
	<text transform="matrix(1 0 0 1 263 322)" enable-background="new    "><tspan x="0" y="0" font-family="'Helvetica-Bold'" font-size="13px">W</tspan><tspan x="12.0415039" y="0" font-family="'Helvetica-Bold'" font-size="13px">eight/Scale </tspan><tspan x="84.2905273" y="0" font-family="'Helvetica-Bold'" font-size="13px">V</tspan><tspan x="92.2504883" y="0" font-family="'Helvetica-Bold'" font-size="13px">ariations</tspan></text>
	<text transform="matrix(1 0 0 1 534.0632935 322)" font-family="'Helvetica'" font-size="13px">Ultralight</text>
	<text transform="matrix(1 0 0 1 843.7774658 322)" font-family="'Helvetica'" font-size="13px">Thin</text>
	<text transform="matrix(1 0 0 1 1139.0350342 322)" font-family="'Helvetica'" font-size="13px">Light</text>
	<text transform="matrix(1 0 0 1 1427.0772705 322)" font-family="'Helvetica'" font-size="13px">Regular</text>
	<text transform="matrix(1 0 0 1 1723.4418945 322)" font-family="'Helvetica'" font-size="13px">Medium</text>
	<text transform="matrix(1 0 0 1 2016.171875 322)" font-family="'Helvetica'" font-size="13px">Semibold</text>
	<text transform="matrix(1 0 0 1 2326.970459 322)" font-family="'Helvetica'" font-size="13px">Bold</text>
	<text transform="matrix(1 0 0 1 2618.2658691 322)" font-family="'Helvetica'" font-size="13px">Heavy</text>
	<text transform="matrix(1 0 0 1 2917.5053711 322)" font-family="'Helvetica'" font-size="13px">Black</text>
	<line fill="none" stroke="#000000" stroke-width="0.5" x1="263" y1="1903" x2="3036" y2="1903"/>
	<g transform="matrix(1 0 0 1 263 1933)">
		<path d="M9.2480497,0.830078C10.3287497,0.8300779,11.344367,0.625,12.2948999,0.214844
			c0.9505339-0.4101567,1.7887669-0.979818,2.5146999-1.708984c0.7258663-0.7291666,1.2955332-1.5690097,1.7090006-2.5195298
			c0.4134007-0.95052,0.6201-1.9628901,0.6201-3.0371099s-0.2066994-2.0865941-0.6201-3.0371203
			c-0.4134674-0.9505329-0.984767-1.7903662-1.7139006-2.5194998c-0.7291994-0.7292004-1.5690327-1.2988663-2.5194998-1.7089996
			c-0.9505339-0.4101334-1.9661732-0.6152-3.0469198-0.6152c-1.0742207,0-2.0865903,0.2050667-3.0371103,0.6152
			s-1.7871065,0.9797993-2.5097599,1.7089996C2.96875-11.8782663,2.4007132-11.0384331,1.9873-10.0879002
			C1.5738934-9.1373739,1.36719-8.125,1.36719-7.0507798S1.5738934-4.96419,1.9873-4.01367
			C2.4007132-3.0631497,2.9703767-2.2233067,3.69629-1.49414s1.5641298,1.2988274,2.5146499,1.708984
			C7.1614604,0.625,8.17383,0.8300779,9.2480497,0.830078z M9.2480497-0.654297c-0.8854198,0-1.71387-0.1643876-2.4853497-0.493163
			c-0.7714868-0.3287734-1.4485698-0.78613-2.03125-1.3720701C4.1487632-3.1054699,3.6930332-3.7858098,3.36426-4.5605502
			c-0.3287802-0.7747402-0.49317-1.6048164-0.49317-2.4902296c0-0.8854198,0.1627634-1.7155004,0.4882901-2.4902406
			c0.32552-0.7747192,0.7796199-1.4550467,1.3623002-2.0409794c0.5826797-0.5859337,1.2597632-1.0433006,2.03125-1.3720999
			C7.5244164-13.2829008,8.3528671-13.4473,9.2382803-13.4473c0.8919458,0,1.7236528,0.1643991,2.49512,0.4932003
			c0.7714672,0.3287992,1.4501667,0.7861662,2.0360994,1.3720999c0.5859337,0.5859327,1.0449333,1.2662601,1.3769999,2.0409794
			c0.3320007,0.7747402,0.4980001,1.6048207,0.4980001,2.4902406c0,0.8854132-0.1643667,1.7154894-0.4931002,2.4902296
			c-0.3287992,0.7747405-0.7845325,1.4550803-1.3671999,2.0410202c-0.5826664,0.5859401-1.2613993,1.0432967-2.0361996,1.3720701
			C10.9732666-0.8186846,10.1399498-0.654297,9.2480497-0.654297z M5.6543002-7.0507798
			c0,0.2148399,0.0683599,0.3889933,0.2050796,0.52246C5.9960933-6.3948536,6.1783829-6.3281198,6.40625-6.3281202h2.1093702
			v2.1191401c0,0.2148402,0.0651064,0.3922467,0.1953201,0.5322201C8.8411474-3.5367868,9.0169268-3.4668,9.2382803-3.4668
			c0.2148457,0,0.3922558-0.0699868,0.5322294-0.20996c0.1399736-0.1399734,0.20996-0.31738,0.20996-0.5322201v-2.1191401h2.1093302
			c0.2214003,0.0000005,0.400466-0.0667334,0.5372-0.2001996c0.1366673-0.1334667,0.2049999-0.30762,0.2049999-0.52246
			c0-0.2213535-0.0683327-0.4003901-0.2049999-0.5371103c-0.136734-0.1367197-0.3157997-0.20508-0.5372-0.20508H9.9804697
			v-2.1093698c0-0.2213736-0.0699863-0.4020262-0.20996-0.5419598c-0.1399736-0.1400003-0.3173838-0.21-0.5322294-0.21
			c-0.2213535,0-0.3971329,0.0699997-0.5273399,0.21c-0.1302137,0.1399336-0.1953201,0.3205862-0.1953201,0.5419598v2.1093698
			H6.40625c-0.2278671,0-0.4101567,0.0683603-0.5468702,0.20508C5.7226601-7.45117,5.6543002-7.2721334,5.6543002-7.0507798z"/>
	</g>
	<g transform="matrix(1 0 0 1 281.867 1933)">
		<path d="M11.7089996,2.9101601c1.3606672,0,2.6416006-0.2604167,3.8428001-0.78125
			c1.2011337-0.5208334,2.2607002-1.2402358,3.1786995-2.1582069c0.9179344-0.9179688,1.6373348-1.9775398,2.1582012-3.1787131
			c0.5207996-1.2011731,0.7812004-2.4820969,0.7812004-3.8427699c0-1.3606801-0.2604008-2.6416202-0.7812004-3.8428206
			c-0.5208664-1.2011337-1.2402668-2.2606993-2.1582012-3.1786995c-0.9179993-0.9179335-1.9792004-1.6373329-3.1835995-2.1581993
			c-1.2044668-0.5207996-2.4870329-0.7812004-3.8477001-0.7812004s-2.6415825,0.2604008-3.8427491,0.7812004
			c-1.2011733,0.5208664-2.2591166,1.2402658-3.17383,2.1581993c-0.9147131,0.9180002-1.6324866,1.9775658-2.1533201,3.1786995
			C2.0084672-9.6924,1.7480505-8.4114599,1.7480503-7.0507798C1.7480505-5.6901069,2.0084672-4.409183,2.5293005-3.20801
			s1.2402332,2.2607443,2.1582,3.1787131c0.9179664,0.9179712,1.9775367,1.6373736,3.17871,2.1582069
			S10.3483133,2.9101601,11.7089996,2.9101601z M11.7089996,1.25c-1.1523533,0-2.2298326-0.2148436-3.23244-0.644531
			C7.4739599,0.1757813,6.5934277-0.418295,5.8349605-1.17676c-0.75846-0.7584602-1.3509068-1.6389933-1.7773399-2.6416001
			S3.4179704-5.8984399,3.4179704-7.0507798c0-1.1523461,0.2132168-2.2298207,0.6396501-3.2324204
			s1.0172534-1.8847656,1.77246-2.6464996c0.7552066-0.7617331,1.6341133-1.3557997,2.6367192-1.7821999
			c1.0025997-0.4264669,2.0800667-0.6396999,3.2323999-0.6396999s2.2298002,0.213233,3.2323999,0.6396999
			c1.0025997,0.4264002,1.8847666,1.0204668,2.6465006,1.7821999c0.761734,0.761734,1.3574333,1.6438999,1.7870998,2.6464996
			C19.7949333-9.2806005,20.0098-8.203126,20.0098-7.0507798c0,1.1523399-0.213232,2.2298131-0.6396999,3.2324197
			c-0.4263992,1.0026069-1.0188332,1.88314-1.7772999,2.6416001c-0.7584667,0.7584649-1.6406336,1.3525413-2.6465006,1.7822289
			S12.8613329,1.25,11.7089996,1.25z M7.1777306-7.0507798c0,0.2343731,0.0781269,0.4264297,0.2343798,0.57617
			C7.5683575-6.3248696,7.7701802-6.25,8.01758-6.25h2.8711195v2.8808601c0,0.2473931,0.0748672,0.4475899,0.2246008,0.60059
			c0.1497335,0.1529932,0.3417997,0.2294898,0.5761995,0.2294898c0.2473335,0,0.4475002-0.0764966,0.6005001-0.2294898
			c0.1529999-0.1530001,0.2294998-0.3531969,0.2294998-0.60059V-6.25h2.8809004
			c0.2473993,0,0.4475994-0.0748696,0.6005993-0.2246099s0.2294998-0.3417969,0.2294998-0.57617
			c0-0.2473998-0.0764999-0.4475965-0.2294998-0.6005902c-0.1529999-0.1529932-0.3532-0.2294898-0.6005993-0.2294898h-2.8809004
			v-2.87114c0-0.2538671-0.0764999-0.4573002-0.2294998-0.6103001s-0.3531666-0.2294998-0.6005001-0.2294998
			c-0.2343998,0-0.426466,0.0781326-0.5761995,0.2343998c-0.1497335,0.1562662-0.2246008,0.3580666-0.2246008,0.6054001v2.87114
			H8.01758c-0.2539062,0-0.4573565,0.0764966-0.6103497,0.2294898C7.2542305-7.4983764,7.1777306-7.2981796,7.1777306-7.0507798z"/>
	</g>
	<g transform="matrix(1 0 0 1 305.646 1933)">
		<path d="M14.9707003,5.6640601c1.393199,0,2.7229662-0.2164702,3.9892988-0.6494102
			c1.2662678-0.4329467,2.4300003-1.0400431,3.4912014-1.8212898c1.0611992-0.7812533,1.9840317-1.7024773,2.7684994-2.7636721
			c0.7845325-1.0611987,1.3932667-2.2265646,1.8262005-3.496098c0.4329338-1.2695265,0.6493988-2.5976501,0.6493988-3.9843698
			c0-1.3932271-0.216465-2.7229667-0.6493988-3.9892201c-0.4329338-1.2663326-1.0416679-2.4300671-1.8262005-3.4912004
			c-0.7844677-1.0611992-1.7073002-1.984066-2.7684994-2.7686005c-1.0612011-0.7845325-2.2265682-1.3932667-3.4961014-1.8261986
			c-1.2695312-0.4329338-2.6009331-0.6494007-3.9941988-0.6494007c-1.3931999,0-2.7229328,0.2164669-3.9892006,0.6494007
			c-1.2662859,0.4329319-2.4284029,1.041666-3.4863496,1.8261986c-1.05794,0.7845345-1.9791632,1.7074013-2.76367,2.7686005
			C3.9371731-13.470067,3.3300765-12.3063326,2.9003899-11.04c-0.4296865,1.2662535-0.6445298,2.595993-0.6445298,3.9892201
			c0,1.3867197,0.21647,2.7148433,0.64941,3.9843698c0.4329467,1.2695335,1.0400431,2.4348993,1.82129,3.496098
			c0.7812529,1.0611948,1.7024765,1.9824188,2.76367,2.7636721c1.0612006,0.7812467,2.2249236,1.3883431,3.4911695,1.8212898
			C12.2477341,5.4475899,13.5775003,5.6640601,14.9707003,5.6640601z M14.9707003,3.8476601
			c-1.2044001,0-2.3518677-0.1839199-3.4424-0.55176c-1.0904799-0.3678403-2.0881939-0.88379-2.9931402-1.5478501
			c-0.904953-0.6640646-1.6910863-1.4501987-2.3583999-2.358402C5.5094399-1.5185572,4.9934897-2.5179067,4.6289101-3.6084001
			C4.2643232-4.6988935,4.0820298-5.8463535,4.0820298-7.0507798c0-1.2109399,0.1822934-2.3616471,0.5468802-3.4521203
			c0.3645797-1.0905333,0.8789029-2.0899,1.5429697-2.9981003c0.6640601-0.9081993,1.4485636-1.6943321,2.3535099-2.3583994
			c0.9049463-0.6640663,1.9026833-1.1783657,2.9932108-1.5429001c1.0904665-0.3645992,2.2378998-0.5468998,3.4422998-0.5468998
			c1.2109327,0,2.3616648,0.1823006,3.452199,0.5468998c1.0904655,0.3645344,2.0897999,0.8788338,2.9980011,1.5429001
			c0.9081993,0.6640673,1.6943321,1.4502001,2.3584003,2.3583994c0.6640682,0.9082003,1.1800327,1.907567,1.5478992,2.9981003
			c0.3678017,1.0904732,0.5517006,2.2411804,0.5517006,3.4521203c0.0065327,1.2044263-0.1725006,2.3518863-0.5370998,3.4423797
			c-0.3645325,1.0904934-0.8804684,2.0898428-1.5478001,2.9980481c-0.6673336,0.9082034-1.455101,1.6943374-2.3633003,2.358402
			c-0.9081993,0.6640601-1.9075336,1.1800098-2.9980011,1.5478501C17.3323669,3.6637402,16.181633,3.8476601,14.9707003,3.8476601z
			 M9.1992197-7.0507798c0,0.2539067,0.0862637,0.4638662,0.25879,0.62988
			c0.1725264,0.1660132,0.3922567,0.2490196,0.6591902,0.2490201H14.0625V-2.2168
			c0,0.2669266,0.0830002,0.4866532,0.2489996,0.6591799c0.1660004,0.1725267,0.3792343,0.25879,0.6396999,0.25879
			c0.2669334,0,0.4866667-0.0846334,0.6592007-0.2538999c0.1724663-0.1692734,0.2586994-0.39063,0.2586994-0.66407v-3.9550798
			h3.9551001c0.2669334-0.0000005,0.485033-0.0830069,0.6543007-0.2490201
			c0.1692677-0.1660137,0.2539005-0.3759732,0.2539005-0.62988c0-0.2734404-0.0846329-0.4947929-0.2539005-0.6640601
			C20.3092327-7.8841133,20.0911331-7.96875,19.8241997-7.96875h-3.9551001v-3.9453497
			c0-0.2734003-0.0862331-0.4963665-0.2586994-0.6689005c-0.172534-0.172534-0.3922672-0.2587996-0.6592007-0.2587996
			c-0.2604656,0-0.4736996,0.0862656-0.6396999,0.2587996C14.1455002-12.4104662,14.0625-12.1875,14.0625-11.9140997V-7.96875
			h-3.9453001c-0.2734461,0-0.4948063,0.0846367-0.6640797,0.2539101C9.2838526-7.5455728,9.1992197-7.3242202,9.1992197-7.0507798z
			"/>
	</g>
	<text transform="matrix(1 0 0 1 263 1953)" enable-background="new    "><tspan x="0" y="0" font-family="'Helvetica-Bold'" font-size="13px">Design </tspan><tspan x="46.9536133" y="0" font-family="'Helvetica-Bold'" font-size="13px">V</tspan><tspan x="54.9135742" y="0" font-family="'Helvetica-Bold'" font-size="13px">ariations</tspan></text>
	<text transform="matrix(1 0 0 1 263 1971)" font-family="'Helvetica'" font-size="13px">Symbols are supported in up to nine weights and three scales.</text>
	<text transform="matrix(1 0 0 1 263 1989)" font-family="'Helvetica'" font-size="13px">For optimal layout with text and other symbols, vertically align</text>
	<text transform="matrix(1 0 0 1 263 2007)" font-family="'Helvetica'" font-size="13px">symbols with the adjacent text.</text>
	<line fill="none" stroke="#00AEEF" stroke-width="0.5" x1="776" y1="1919" x2="776" y2="1933"/>
	<g transform="matrix(1 0 0 1 776 1933)">
		<path d="M3.31055,0.15625c0.2604132,0,0.4622364-0.0553385,0.6054699-0.1660156
			C4.0592465-0.1204425,4.1764331-0.3125,4.26758-0.585938l1.2597599-3.4472618h5.7617598l1.2597008,3.4472618
			c0.0911331,0.273438,0.208333,0.4654954,0.3515997,0.5761724c0.143199,0.1106771,0.3417673,0.1660156,0.5957003,0.1660156
			c0.2603998,0,0.4670992-0.0716146,0.6201-0.2148438c0.1529999-0.1432295,0.2294998-0.3385418,0.2294998-0.5859372
			c0-0.14974-0.035799-0.325523-0.1073999-0.527349L9.6582003-13.3690996
			c-0.1171875-0.2995338-0.2766895-0.524168-0.4785099-0.6739006c-0.201827-0.1497335-0.4589901-0.2245998-0.7714901-0.2245998
			c-0.6054673,0-1.0156236,0.2962332-1.2304702,0.8887005L2.5976601-1.16211c-0.07162,0.2018234-0.10743,0.3776046-0.10743,0.527344
			c0,0.247396,0.0732434,0.441081,0.2197299,0.5810551S3.0566432,0.15625,3.31055,0.15625z M6.0058599-5.51758l2.3730502-6.5722198
			h0.0488195L10.8008003-5.51758H6.0058599z"/>
	</g>
	<line fill="none" stroke="#00AEEF" stroke-width="0.5" x1="793.1970215" y1="1919" x2="793.1970215" y2="1933"/>
	<text transform="matrix(1 0 0 1 776 1953)" font-family="'Helvetica-Bold'" font-size="13px">Margins</text>
	<text transform="matrix(1 0 0 1 776 1971)" font-family="'Helvetica'" font-size="13px">Leading and trailing margins on the left and right side of each symbol</text>
	<text transform="matrix(1 0 0 1 776 1989)" font-family="'Helvetica'" font-size="13px">can be adjusted by modifying the x-location of the margin guidelines.</text>
	<text transform="matrix(1 0 0 1 776 2007)" font-family="'Helvetica'" font-size="13px">Modifications are automatically applied proportionally to all</text>
	<text transform="matrix(1 0 0 1 776 2025)" font-family="'Helvetica'" font-size="13px">scales and weights.</text>
	<g transform="matrix(1 0 0 1 1289 1933)">
		<path d="M2.8418,1.86523l1.6992199,1.70899c0.429687,0.4361999,0.8837867,0.6380236,1.3622999,0.6054699
			c0.4785137-0.0325532,0.9488897-0.30599,1.41113-0.8203099L18.0077991-8.4277296l-0.9667988-0.9765701L6.4257798,2.2753899
			C6.25,2.47721,6.0725899,2.5911434,5.8935499,2.6171899c-0.1790328,0.0260401-0.3857369-0.0781267-0.62011-0.3125
			L4.1015601,1.14258c-0.2343733-0.234376-0.33691-0.4410824-0.30761-0.620119
			c0.0292933-0.1790367,0.14485-0.3597007,0.3466702-0.5419922L15.6152-10.8203001l-0.9765005-0.9667997L3.04688-0.898438
			C2.5520866-0.4427086,2.2867866,0.0227863,2.2509799,0.498047C2.2151732,0.973309,2.4121132,1.4290366,2.8418,1.86523z
			 M9.2578096-16.3281002C9.0494766-16.1262989,8.9322901-15.8951998,8.90625-15.6348
			c-0.0260401,0.2604666,0.0195341,0.4883337,0.1367197,0.6836004c0.1171865,0.182333,0.288084,0.319066,0.5126905,0.4101992
			c0.2246132,0.0911331,0.4996939,0.0976334,0.8252401,0.0195007c0.7291336-0.1692667,1.4680653-0.239234,2.2167997-0.2098999
			c0.7486668,0.0292664,1.4810667,0.2782669,2.1971998,0.7469997l-0.5859003,1.4551001
			c-0.1692657,0.416667-0.216466,0.7796326-0.1415997,1.0888996c0.0748663,0.3092003,0.2457666,0.6005335,0.5127001,0.8740005
			L16.875-8.2519503c0.2408657,0.2473936,0.4752331,0.3906202,0.7031002,0.4296803
			c0.2278671,0.0390668,0.4817677,0.0325565,0.7616997-0.0195303l1.0645008-0.1953101l0.6640987,0.6738305l-0.0390987,0.5566397
			c-0.0195332,0.2473936,0.0114002,0.4752569,0.0928001,0.6835899c0.0813332,0.2083335,0.242466,0.4329433,0.4833984,0.67383
			l0.7617016,0.7421904c0.2408676,0.2408867,0.5028992,0.3662133,0.7860985,0.3759799
			c0.2832012,0.0097599,0.5419998-0.1025472,0.7764015-0.3369203l2.910099-2.91992
			c0.2344017-0.2343731,0.3483334-0.4899068,0.3418007-0.7666001c-0.0064678-0.2766933-0.1301689-0.5354834-0.3711014-0.77637
			L25.0391006-9.89258c-0.2343998-0.24088-0.454134-0.4052534-0.6592007-0.4931202
			c-0.2050667-0.0879335-0.4280663-0.1221333-0.6690006-0.1026001L23.1348-10.4394999L22.4902-11.0741997L22.7343998-12.1973
			c0.0650673-0.2799339,0.0520325-0.5419664-0.0391006-0.7861004s-0.2831993-0.5127001-0.5761986-0.8056993l-2.1972008-2.1875
			c-0.8333321-0.8268003-1.7203999-1.4469004-2.6611996-1.860301c-0.940733-0.4133987-1.8880005-0.628233-2.8418007-0.6444988
			c-0.9537325-0.0163326-1.8716993,0.1578007-2.7538996,0.5223999C10.7828665-17.5944004,9.9804697-17.050766,9.2578096-16.3281002z
			 M10.7519999-15.9569998c0.6054668-0.4427328,1.2548666-0.7585001,1.9482002-0.9473009
			c0.6933327-0.1887989,1.3948326-0.249033,2.1044998-0.1806984c0.7096004,0.0683994,1.3980665,0.2588329,2.0654001,0.5712986
			c0.6673317,0.3125343,1.2776985,0.7487326,1.8311005,1.3086004l2.4315987,2.4120998
			c0.1172009,0.1171999,0.1904335,0.2311335,0.2197018,0.3418007c0.0293331,0.1106663,0.0244656,0.2506657-0.0146008,0.4199991
			l-0.3223,1.4843006L22.5195007-9.0625l0.9863987-0.0585899c0.1236687-0.0065136,0.2180691,0.0016232,0.2832012,0.0244102
			c0.0650654,0.0227861,0.146431,0.0830069,0.2440987,0.1806593l0.5762005,0.5761805l-2.4414005,2.4414001l-0.5761986-0.57617
			C21.494133-6.5722632,21.4322662-6.6536431,21.4062004-6.71875c-0.0259991-0.0651069-0.0357323-0.1627636-0.0291996-0.2929702
			l0.0682983-0.9765596l-1.4940987-1.4843802L18.4277-9.21875c-0.1627331,0.0325537-0.2912998,0.0374365-0.3857002,0.0146503
			c-0.0944004-0.0227871-0.2034664-0.0927744-0.3271999-0.20996l-2.0018997-2.0019407
			c-0.1302004-0.1171999-0.203433-0.2294998-0.2196999-0.3368998c-0.0162668-0.1074667,0.0146322-0.2523336,0.0927-0.4345999
			l0.8788996-2.0897999c-0.7811995-0.7292004-1.6601-1.2337675-2.6366997-1.5137005
			c-0.9765329-0.279932-1.9726343-0.2701664-2.9883003,0.0293007c-0.0780659,0.0195322-0.1285,0.0048666-0.1512995-0.0440006
			C10.6657-15.8544998,10.6868668-15.904933,10.7519999-15.9569998z"/>
	</g>
	<text transform="matrix(1 0 0 1 1289 1953)" font-family="'Helvetica-Bold'" font-size="13px">Exporting</text>
	<text transform="matrix(1 0 0 1 1289 1971)" font-family="'Helvetica'" font-size="13px">Symbols should be outlined when exporting to ensure the</text>
	<text transform="matrix(1 0 0 1 1289 1989)" font-family="'Helvetica'" font-size="13px">design is preserved when submitting to Xcode.</text>
	<text id="template-version" transform="matrix(1 0 0 1 2952.4140625 1933)" enable-background="new    "><tspan x="0" y="0" font-family="'Helvetica'" font-size="13px" letter-spacing="-1">T</tspan><tspan x="6.5" y="0" font-family="'Helvetica'" font-size="13px">emplate </tspan><tspan x="56.3608398" y="0" font-family="'Helvetica'" font-size="13px">v</tspan><tspan x="61.9023438" y="0" font-family="'Helvetica'" font-size="13px">.3.0</tspan></text>
	<text transform="matrix(1 0 0 1 2865.4575195 1951)" font-family="'Helvetica'" font-size="13px">Requires Xcode 13 or greater</text>
	<text id="descriptive-name" transform="matrix(1 0 0 1 2906.184082 1969)" enable-background="new    "><tspan x="0" y="0" font-family="'Helvetica'" font-size="13px">Generated from ke</tspan><tspan x="108.3862305" y="0" font-family="'Helvetica'" font-size="13px">y</tspan><tspan x="113.9277344" y="0" font-family="'Helvetica'" font-size="13px">.fill</tspan></text>
	<text transform="matrix(1 0 0 1 2912.4111328 1987)" enable-background="new    "><tspan x="0" y="0" font-family="'Helvetica'" font-size="13px">T</tspan><tspan x="7.2299805" y="0" font-family="'Helvetica'" font-size="13px">ypeset at 100 points</tspan></text>
	<text transform="matrix(1 0 0 1 263 726)" font-family="'Helvetica'" font-size="13px">Small</text>
	<text transform="matrix(1 0 0 1 263 1156)" font-family="'Helvetica'" font-size="13px">Medium</text>
	<text transform="matrix(1 0 0 1 263 1586)" font-family="'Helvetica'" font-size="13px">Large</text>
</g>
<g id="Guides">
	<g id="H-reference" transform="matrix(1 0 0 1 339 696)">
		<path fill="#27AAE1" d="M0.993347,0h2.6443532l25.6904984-67.1325989h0.7019005v-3.3264008h-1.9074001L0.993347,0z
			 M11.6882-24.4797001h35.293602l-0.7507019-2.2490997H12.4382L11.6882-24.4797001z M55.1193008,0h2.6443977L30.6380997-70.4589996
			h-1.2054005v3.3264008L55.1193008,0z"/>
	</g>
	<line id="Baseline-S" fill="none" stroke="#27AAE1" stroke-width="0.5" x1="263" y1="696" x2="3036" y2="696"/>
	<line id="Capline-S" fill="none" stroke="#27AAE1" stroke-width="0.5" x1="263" y1="625.5410156" x2="3036" y2="625.5410156"/>
	<g id="H-reference_00000090278728209810242840000010426847453273508009_" transform="matrix(1 0 0 1 339 1126)">
		<path fill="#27AAE1" d="M0.993347,0h2.6443532l25.6904984-67.1325989h0.7019005v-3.3264008h-1.9074001L0.993347,0z
			 M11.6882-24.4797001h35.293602l-0.7507019-2.2490997H12.4382L11.6882-24.4797001z M55.1193008,0h2.6443977L30.6380997-70.4589996
			h-1.2054005v3.3264008L55.1193008,0z"/>
	</g>
	<line id="Baseline-M" fill="none" stroke="#27AAE1" stroke-width="0.5" x1="263" y1="1126" x2="3036" y2="1126"/>
	<line id="Capline-M" fill="none" stroke="#27AAE1" stroke-width="0.5" x1="263" y1="1055.5400391" x2="3036" y2="1055.5400391"/>
	<g id="H-reference_00000167379729823041939910000012841980168753133500_" transform="matrix(1 0 0 1 339 1556)">
		<path fill="#27AAE1" d="M0.993347,0h2.6443532l25.6904984-67.1325989h0.7019005v-3.3264008h-1.9074001L0.993347,0z
			 M11.6882-24.4797001h35.293602l-0.7507019-2.2490997H12.4382L11.6882-24.4797001z M55.1193008,0h2.6443977L30.6380997-70.4589996
			h-1.2054005v3.3264008L55.1193008,0z"/>
	</g>
	<line id="Baseline-L" fill="none" stroke="#27AAE1" stroke-width="0.5" x1="263" y1="1556" x2="3036" y2="1556"/>
	<line id="Capline-L" fill="none" stroke="#27AAE1" stroke-width="0.5" x1="263" y1="1485.5400391" x2="3036" y2="1485.5400391"/>
	
		<line id="left-margin-Ultralight-S" fill="none" stroke="#00AEEF" stroke-width="0.5" x1="526.9609985" y1="600.7849731" x2="526.9609985" y2="720.1209717"/>
	
		<line id="right-margin-Ultralight-S" fill="none" stroke="#00AEEF" stroke-width="0.5" x1="614.1598511" y1="600.7849731" x2="614.1598511" y2="720.1209717"/>
	
		<line id="left-margin-Regular-S" fill="none" stroke="#00AEEF" stroke-width="0.5" x1="1415.3199463" y1="600.7849731" x2="1415.3199463" y2="720.1209717"/>
	
		<line id="right-margin-Regular-S" fill="none" stroke="#00AEEF" stroke-width="0.5" x1="1507.3234863" y1="600.7849731" x2="1507.3234863" y2="720.1209717"/>
	
		<line id="left-margin-Black-S" fill="none" stroke="#00AEEF" stroke-width="0.5" x1="2895.8500977" y1="600.7849731" x2="2895.8500977" y2="720.1209717"/>
	
		<line id="right-margin-Black-S" fill="none" stroke="#00AEEF" stroke-width="0.5" x1="2993.3479004" y1="600.7849731" x2="2993.3479004" y2="720.1209717"/>
</g>
<g id="Symbols">
	<g id="Black-S" transform="matrix(1 0 0 1 2895.85 696)">
		<path d="M24.5622215-30.1217461c0.7302265,1.7094269,1.7426033,3.211401,3.0371208,4.5059223
			c1.2945213,1.2945194,2.7964916,2.3068905,4.5059204,3.0371208c1.7094269,0.7302265,3.5433273,1.0953407,5.5016937,1.0953407
			c2.5558319,0,4.9083748-0.6555519,7.057621-1.9666576c2.1492157-1.3111076,3.9374657-3.2030926,5.3647499-5.6759548
			l3.0122375,3.0122395c0.5974998,0.5974636,1.3111572,0.8920498,2.140976,0.8837566
			c0.8298149-0.0082932,1.543457-0.3028793,2.1409225-0.8837566l3.6097221-3.5847912l2.2155991,2.1906815
			c0.6140671,0.5974655,1.3318596,0.9003639,2.1533775,0.9086914c0.8215256,0.0082932,1.5310211-0.2862911,2.1284866-0.8837585
			l6.0244827-6.0245304c0.5144958-0.5144653,0.7717438-1.1160774,0.7717438-1.8048401
			c0-0.6887589-0.2074585-1.2737846-0.6223602-1.7550735l-3.3607788-3.9084396
			c-0.3319321-0.3816986-0.742691-0.6596832-1.2322845-0.8339462s-0.9667358-0.2613945-1.4314346-0.2613945H50.2782822
			c-1.2115173-2.3898964-2.9541359-4.2777328-5.2278557-5.6635132c-2.2736893-1.3858109-4.7548447-2.0787125-7.44347-2.0787125
			c-1.9583664,0-3.7922668,0.3651276-5.5016937,1.0953827c-1.7094288,0.7302246-3.2113991,1.7425995-4.5059204,3.0371208
			c-1.2945175,1.2945175-2.3068943,2.7964935-3.0371208,4.5059204c-0.7302628,1.7094269-1.0953922,3.5516205-1.0953922,5.5265694
			C23.4668293-33.6733818,23.8319588-31.8311749,24.5622215-30.1217461z M34.0096741-33.345623
			c-0.6389313,0.6389656-1.406517,0.9584503-2.3027477,0.9584503c-0.8962002,0-1.6637821-0.3194847-2.3027477-0.9584503
			c-0.6389294-0.6389656-0.9583969-1.4065475-0.9583969-2.3027458s0.315321-1.6637802,0.9459572-2.3027458
			c0.6306744-0.6389656,1.402401-0.9584503,2.3151875-0.9584503c0.8962307,0,1.6638165,0.3194847,2.3027477,0.9584503
			c0.6389656,0.6389656,0.9584465,1.4065475,0.9584465,2.3027458S34.6486397-33.9845886,34.0096741-33.345623z"/>
		<path d="M48.8280983,6.7871099c5.7942657,0,11.2223358-1.0904965,16.2841988-3.2714899
			c5.0618668-2.1809859,9.5214996-5.2001891,13.3789062-9.0576096c3.857399-3.8574071,6.8765945-8.3170452,9.0575943-13.3789101
			s3.271492-10.489933,3.2714996-16.2842007c-0.0000076-5.7942657-1.0904999-11.222332-3.2714996-16.2841988
			c-2.1809998-5.0618019-5.2001953-9.521431-9.0575943-13.3789024c-3.8574066-3.8573914-8.3170395-6.8765945-13.3789062-9.0575943
			c-5.0618629-2.1810074-10.489933-3.2715073-16.2841988-3.2715073s-11.222332,1.0904999-16.2841988,3.2715073
			c-5.0617981,2.1809998-9.5214329,5.2002029-13.3788986,9.0575943c-3.8574018,3.8574715-6.8766012,8.3171005-9.057601,13.3789024
			c-2.180974,5.0618668-3.2714605,10.489933-3.2714605,16.2841988s1.0904865,11.2223339,3.2714605,16.2842007
			c2.1809998,5.0618658,5.2001991,9.5215034,9.057601,13.3789101c3.8574657,3.8574204,8.3171005,6.8766236,13.3788986,9.0576096
			C37.6057663,5.6966133,43.0338326,6.7871099,48.8280983,6.7871099z M48.8280983-7.3730502
			c-3.8411331,0-7.4462662-0.7242827-10.8153992-2.1728501c-3.369133-1.4485989-6.3232327-3.442399-8.862299-5.9813995
			c-2.5390663-2.5390663-4.5328999-5.4931679-5.9815006-8.8623009c-1.4485321-3.3691978-2.1728001-6.9743671-2.1728001-10.8155003
			s0.724268-7.4462662,2.1728001-10.8153992c1.4486008-3.369133,3.4424343-6.3232346,5.9815006-8.8623009
			c2.5390663-2.5390625,5.493166-4.5328979,8.862299-5.9814987c3.369133-1.4485359,6.9742661-2.1727982,10.8153992-2.172802
			c3.8411369,0.0000038,7.4463043,0.7242661,10.8155022,2.172802c3.3691368,1.4486008,6.3232346,3.4424362,8.8622971,5.9814987
			c2.5390625,2.5390663,4.5328674,5.4931679,5.9813995,8.8623009c1.4486084,3.369133,2.172905,6.9742661,2.172905,10.8153992
			s-0.7242966,7.4463024-2.172905,10.8155003c-1.4485321,3.369133-3.442337,6.3232346-5.9813995,8.8623009
			c-2.5390625,2.5390005-5.4931602,4.5328007-8.8622971,5.9813995C56.2744026-8.097333,52.6692352-7.3730502,48.8280983-7.3730502z"
			/>
	</g>
	<g id="Regular-S" transform="matrix(1 0 0 1 1415.32 696)">
		<path d="M20.600956-29.3713169c0.7126961,1.6812401,1.7040634,3.1568985,2.9741077,4.4269772
			c1.2700787,1.2700405,2.7411556,2.2659779,4.4132214,2.9878063c1.6721058,0.7218304,3.4675674,1.0827465,5.3863831,1.0827465
			c2.9604149,0,5.6238899-0.8954296,7.9904327-2.6862888c2.3665009-1.7908955,4.216774-4.340168,5.5508156-7.6478157
			l5.7289391,5.6467571c0.2558441,0.2558422,0.5391006,0.3883286,0.8497734,0.3974609
			c0.3106689,0.0091705,0.5756416-0.1050377,0.7949219-0.3426151l5.7563934-5.7563934l4.1391449,4.1939449
			c0.2375641,0.2375793,0.5116806,0.3563671,0.8223419,0.3563671s0.5939178-0.1187878,0.8497543-0.3563671l6.8802872-6.8802872
			c0.2375412-0.2375412,0.3380508-0.5253677,0.3015213-0.8634682c-0.0365601-0.3380699-0.1370697-0.5984764-0.3015213-0.7812271
			l-3.6731491-3.6182976c-0.2192917-0.2010155-0.4385834-0.3517647-0.6578751-0.4522514
			c-0.2192917-0.1005287-0.4751282-0.1507912-0.7675171-0.1507912H46.3676643
			c-1.0416298-2.7046051-2.7411308-4.8563995-5.0985069-6.4553757c-2.3574066-1.5990067-4.988903-2.39851-7.8944893-2.39851
			c-1.9188156,0-3.7142773,0.3563461-5.3863831,1.0690384c-1.6720657,0.7126961-3.1431427,1.7040863-4.4132214,2.9741631
			c-1.2700443,1.2700424-2.2614117,2.7456818-2.9741077,4.4269218c-0.7127018,1.6812363-1.0690498,3.4903984-1.0690498,5.4274788
			C19.5319061-32.852562,19.8882542-31.052557,20.600956-29.3713169z M31.6203384-32.0439072
			c-0.7492638,0.7583599-1.6629734,1.137537-2.7411346,1.137537c-1.0599365,0-1.9690819-0.3791771-2.7274361-1.137537
			c-0.7583923-0.7583961-1.1375923-1.6675415-1.1375923-2.7274361c0-1.0781975,0.3746128-1.991909,1.1238384-2.7411346
			c0.7492619-0.7492638,1.6629906-1.1238976,2.74119-1.1238937c1.0781612-0.0000038,1.9918709,0.3791962,2.7411346,1.1375923
			c0.7492256,0.7583923,1.1238403,1.6675377,1.1238403,2.7274361
			C32.7441788-33.7114487,32.3695641-32.8023033,31.6203384-32.0439072z"/>
		<path d="M46.2402,4.1503901c5.4036636,0,10.4818001-1.0253901,15.2344017-3.0761702s8.9436951-4.8990865,12.5732956-8.54492
			c3.6295395-3.6458669,6.4778366-7.8450999,8.544899-12.5977001s3.1006012-9.8144341,3.1006012-15.1854992
			s-1.0335388-10.4329338-3.1006012-15.1856003c-2.0670624-4.7525978-4.9235229-8.9518013-8.569397-12.5976028
			c-3.6457977-3.6458588-7.8450012-6.4941635-12.597599-8.544899c-4.7525978-2.0508041-9.8307343-3.0762024-15.2344017-3.0762024
			c-5.371067,0-10.4328995,1.0253983-15.1854992,3.0762024c-4.7525978,2.0507355-8.9355659,4.8990402-12.5488987,8.544899
			c-3.6132669,3.6458015-6.4534273,7.845005-8.5204811,12.5976028c-2.0670528,4.7526665-3.1005793,9.8145332-3.1005793,15.1856003
			s1.0335264,10.4328995,3.1005793,15.1854992s4.9153471,8.9518328,8.5448799,12.5977001
			c3.6296005,3.6458333,7.8207016,6.4941397,12.5733013,8.54492S40.8691368,4.1503901,46.2402,4.1503901z M46.2402-3.2714801
			c-4.427063,0.0000002-8.5692978-0.8219399-12.4267006-2.4658198c-3.8574657-1.6438799-7.2428989-3.9306803-10.1562996-6.8604002
			c-2.9134007-2.9296665-5.1920338-6.3313332-6.8358994-10.2049999c-1.6438665-3.8737316-2.4658003-8.0241337-2.4658003-12.4511986
			s0.8137999-8.5774727,2.4413996-12.4512024c1.6275997-3.8736649,3.8980999-7.2753639,6.8115005-10.2050972
			c2.9133987-2.9296646,6.2988014-5.2164345,10.1561985-6.860302c3.8574677-1.6438675,7.999733-2.4657974,12.4267998-2.4657974
			c4.4596672,0,8.6182022,0.8219299,12.4756012,2.4657974s7.2509689,3.9306374,10.1807022,6.860302
			c2.9296646,2.9297333,5.2245636,6.3314323,6.884697,10.2050972c1.660202,3.8737297,2.490303,8.0241356,2.490303,12.4512024
			s-0.8219681,8.577467-2.4659042,12.4511986c-1.6438599,3.8736668-3.9225006,7.2753334-6.8358994,10.2049999
			C66.0074997-9.6679802,62.6139336-7.3811798,58.7402-5.7372999C54.8665314-4.09342,50.6998634-3.2714798,46.2402-3.2714801z"/>
	</g>
	<g id="Ultralight-S" transform="matrix(1 0 0 1 526.961 696)">
		<path d="M14.7450085-28.9925842c0.8089838,1.9098339,1.9379025,3.5891781,3.3867626,5.0380383
			c1.4488525,1.4488125,3.1225948,2.5780773,5.0212212,3.3877907c1.8986206,0.8096657,3.9377556,1.2145042,6.1174049,1.2145042
			c3.4946289,0,6.6209755-1.0894794,9.3790512-3.2684422c2.7580719-2.178915,4.8902473-5.3110085,6.3965302-9.3962784
			l7.3777542,7.3709621c0.1675529,0.1671867,0.3580513,0.2512379,0.5714951,0.2521515
			c0.2134895,0.0008698,0.3919563-0.0608311,0.5353966-0.1850986l7.1934776-7.2557983l5.3409004,5.3765278
			c0.1654587,0.1451778,0.3498611,0.2177696,0.5531998,0.2177696s0.3886108-0.0725918,0.5558167-0.2177696l8.0061111-8.0061436
			c0.2073517-0.2073593,0.304306-0.4293594,0.2908707-0.6660004c-0.013443-0.2366905-0.120697-0.4564476-0.3217697-0.6592751
			l-4.1480865-4.1114426c-0.2056046-0.2042007-0.4216843-0.3469772-0.6482391-0.4283295
			c-0.2265549-0.0813065-0.4457779-0.1219597-0.6576614-0.1219597H44.1578865
			c-1.128212-3.1818504-3.0502396-5.7190437-5.7660828-7.6115837c-2.7157974-1.8925285-5.7562637-2.8387909-9.1214066-2.8387909
			c-2.1796494,0-4.22402,0.4044876-6.1331234,1.213459c-1.9090977,0.8089828-3.58284,1.9379044-5.0212231,3.3867607
			c-1.4383812,1.4488602-2.5620584,3.1230354-3.3710423,5.0225296c-0.8089886,1.8995361-1.2134771,3.9502945-1.2134771,6.1522675
			C13.5315313-32.9470863,13.9360199-30.9023705,14.7450085-28.9925842z M27.7335987-32.0261688
			c-0.8639793,0.8543701-1.9031792,1.281559-3.117588,1.281559c-1.1917629,0-2.2200737-0.4271889-3.0849228-1.281559
			c-0.8648472-0.8543243-1.2972717-1.8878479-1.2972717-3.1005669c0-1.2144585,0.4268417-2.2485046,1.2805271-3.1021461
			c0.8536835-0.8536835,1.8875771-1.2805252,3.1016674-1.2805252c1.2144089,0,2.2536087,0.4272766,3.117588,1.2818298
			c0.8639812,0.8545532,1.295969,1.8881683,1.2959709,3.1008415C29.0295677-33.9140167,28.59758-32.8804932,27.7335987-32.0261688z"
			/>
		<path d="M44.0605011,1.97067c5.1309967,0.0000001,9.9366302-0.9648633,14.4169006-2.8945899
			s8.4367294-4.6115866,11.8694-8.0455799c3.4327316-3.434,6.1146011-7.3909988,8.0456009-11.8710003
			c1.9309998-4.4799347,2.8964996-9.284399,2.8964996-14.4133987s-0.9654999-9.9334984-2.8964996-14.4135017
			c-1.9309998-4.4799347-4.6133728-8.4368973-8.0471039-11.8708992c-3.4337311-3.4339981-7.390728-6.1158676-11.8709984-8.0456009
			c-4.4802017-1.9297333-9.2857971-2.8945999-14.4168015-2.8945999c-5.1290016,0-9.9411316,0.9648666-14.4363995,2.8945999
			c-4.4951992,1.9297333-8.4511662,4.6116028-11.8678989,8.0456009c-3.4166679,3.4340019-6.0903807,7.3909645-8.0211401,11.8708992
			c-1.9307475,4.4800034-2.896121,9.2845001-2.896121,14.4135017s0.9653735,9.9334641,2.896121,14.4133987
			c1.9307594,4.4800014,4.6049728,8.4370003,8.0226393,11.8710003c3.4177341,3.4339929,7.3742352,6.1158533,11.8695011,8.0455799
			C34.1194,1.0058067,38.9314995,1.9706701,44.0605011,1.97067z M44.0605011-0.274658
			c-4.8207359,0-9.3490334-0.9051007-13.5849018-2.715302c-4.2357998-1.8102-7.9542313-4.3164463-11.1553001-7.5187407
			c-3.201067-3.2023325-5.7143316-6.9219332-7.5397987-11.1587992c-1.8254271-4.2368679-2.7381401-8.765667-2.7381401-13.5863991
			s0.9122133-9.3495369,2.73664-13.5864029c1.8244667-4.236866,4.3372011-7.9564629,7.5381994-11.1587982
			c3.2010651-3.2023315,6.9195328-5.7085953,11.1554012-7.5187988c4.2357998-1.8102036,8.7640972-2.7153015,13.584898-2.7153015
			c4.8227997,0,9.3520966,0.905098,13.5879021,2.7153015c4.2358665,1.8102036,7.9548264,4.3164673,11.1568985,7.5187988
			c3.2020035,3.2023354,5.7087708,6.9219322,7.5203018,11.1587982c1.81147,4.236866,2.7172012,8.765667,2.7172012,13.5864029
			s-0.905098,9.3495312-2.7153015,13.5863991c-1.8101959,4.236866-4.315834,7.9564667-7.5168991,11.1587992
			C65.6065292-7.3064065,61.8874626-4.8001599,57.6503983-2.98996C53.413269-1.1797587,48.8833008-0.274658,44.0605011-0.274658z"/>
	</g>
</g>
</svg>
