<?xml version="1.0" encoding="UTF-8"?>
<!--Generator: Apple Native CoreSVG 175-->
<!DOCTYPE svg
PUBLIC "-//W3C//DTD SVG 1.1//EN"
       "http://www.w3.org/Graphics/SVG/1.1/DTD/svg11.dtd">
<svg version="1.1" xmlns="http://www.w3.org/2000/svg" xmlns:xlink="http://www.w3.org/1999/xlink" width="3300" height="2200">
 <!--glyph: "", point size: 100.0, font version: "17.1d1e1", template writer version: "65.1"-->
 <style>.hierarchical-0:secondary {fill:#4D4D4D}
.hierarchical-1:primary {fill:#212121}

.SFSymbolsPreview212121 {fill:#212121;opacity:1.0}
.SFSymbolsPreview4D4D4D {fill:#4D4D4D;opacity:1.0}
</style>
 <g id="Notes">
  <rect height="2200" id="artboard" style="fill:white;opacity:1" width="3300" x="0" y="0"/>
  <line style="fill:none;stroke:black;opacity:1;stroke-width:0.5;" x1="263" x2="3036" y1="292" y2="292"/>
  <text style="stroke:none;fill:black;font-family:sans-serif;font-size:13;font-weight:bold;" transform="matrix(1 0 0 1 263 322)">Weight/Scale Variations</text>
  <text style="stroke:none;fill:black;font-family:sans-serif;font-size:13;text-anchor:middle;" transform="matrix(1 0 0 1 559.711 322)">Ultralight</text>
  <text style="stroke:none;fill:black;font-family:sans-serif;font-size:13;text-anchor:middle;" transform="matrix(1 0 0 1 856.422 322)">Thin</text>
  <text style="stroke:none;fill:black;font-family:sans-serif;font-size:13;text-anchor:middle;" transform="matrix(1 0 0 1 1153.13 322)">Light</text>
  <text style="stroke:none;fill:black;font-family:sans-serif;font-size:13;text-anchor:middle;" transform="matrix(1 0 0 1 1449.84 322)">Regular</text>
  <text style="stroke:none;fill:black;font-family:sans-serif;font-size:13;text-anchor:middle;" transform="matrix(1 0 0 1 1746.56 322)">Medium</text>
  <text style="stroke:none;fill:black;font-family:sans-serif;font-size:13;text-anchor:middle;" transform="matrix(1 0 0 1 2043.27 322)">Semibold</text>
  <text style="stroke:none;fill:black;font-family:sans-serif;font-size:13;text-anchor:middle;" transform="matrix(1 0 0 1 2339.98 322)">Bold</text>
  <text style="stroke:none;fill:black;font-family:sans-serif;font-size:13;text-anchor:middle;" transform="matrix(1 0 0 1 2636.69 322)">Heavy</text>
  <text style="stroke:none;fill:black;font-family:sans-serif;font-size:13;text-anchor:middle;" transform="matrix(1 0 0 1 2933.4 322)">Black</text>
  <line style="fill:none;stroke:black;opacity:1;stroke-width:0.5;" x1="263" x2="3036" y1="1903" y2="1903"/>
  <g transform="matrix(1 0 0 1 263 1933)">
   <path d="M9.24805 0.830078Q10.8691 0.830078 12.2949 0.214844Q13.7207-0.400391 14.8096-1.49414Q15.8984-2.58789 16.5186-4.01367Q17.1387-5.43945 17.1387-7.05078Q17.1387-8.66211 16.5186-10.0879Q15.8984-11.5137 14.8047-12.6074Q13.7109-13.7012 12.2852-14.3164Q10.8594-14.9316 9.23828-14.9316Q7.62695-14.9316 6.20117-14.3164Q4.77539-13.7012 3.69141-12.6074Q2.60742-11.5137 1.9873-10.0879Q1.36719-8.66211 1.36719-7.05078Q1.36719-5.43945 1.9873-4.01367Q2.60742-2.58789 3.69629-1.49414Q4.78516-0.400391 6.21094 0.214844Q7.63672 0.830078 9.24805 0.830078ZM9.24805-0.654297Q7.91992-0.654297 6.7627-1.14746Q5.60547-1.64062 4.73145-2.51953Q3.85742-3.39844 3.36426-4.56055Q2.87109-5.72266 2.87109-7.05078Q2.87109-8.37891 3.35938-9.54102Q3.84766-10.7031 4.72168-11.582Q5.5957-12.4609 6.75293-12.9541Q7.91016-13.4473 9.23828-13.4473Q10.5762-13.4473 11.7334-12.9541Q12.8906-12.4609 13.7695-11.582Q14.6484-10.7031 15.1465-9.54102Q15.6445-8.37891 15.6445-7.05078Q15.6445-5.72266 15.1514-4.56055Q14.6582-3.39844 13.7842-2.51953Q12.9102-1.64062 11.748-1.14746Q10.5859-0.654297 9.24805-0.654297ZM5.6543-7.05078Q5.6543-6.72852 5.85938-6.52832Q6.06445-6.32812 6.40625-6.32812L8.51562-6.32812L8.51562-4.20898Q8.51562-3.88672 8.71094-3.67676Q8.90625-3.4668 9.23828-3.4668Q9.56055-3.4668 9.77051-3.67676Q9.98047-3.88672 9.98047-4.20898L9.98047-6.32812L12.0898-6.32812Q12.4219-6.32812 12.627-6.52832Q12.832-6.72852 12.832-7.05078Q12.832-7.38281 12.627-7.58789Q12.4219-7.79297 12.0898-7.79297L9.98047-7.79297L9.98047-9.90234Q9.98047-10.2344 9.77051-10.4443Q9.56055-10.6543 9.23828-10.6543Q8.90625-10.6543 8.71094-10.4443Q8.51562-10.2344 8.51562-9.90234L8.51562-7.79297L6.40625-7.79297Q6.06445-7.79297 5.85938-7.58789Q5.6543-7.38281 5.6543-7.05078Z"/>
  </g>
  <g transform="matrix(1 0 0 1 281.867 1933)">
   <path d="M11.709 2.91016Q13.75 2.91016 15.5518 2.12891Q17.3535 1.34766 18.7305-0.0292969Q20.1074-1.40625 20.8887-3.20801Q21.6699-5.00977 21.6699-7.05078Q21.6699-9.0918 20.8887-10.8936Q20.1074-12.6953 18.7305-14.0723Q17.3535-15.4492 15.5469-16.2305Q13.7402-17.0117 11.6992-17.0117Q9.6582-17.0117 7.85645-16.2305Q6.05469-15.4492 4.68262-14.0723Q3.31055-12.6953 2.5293-10.8936Q1.74805-9.0918 1.74805-7.05078Q1.74805-5.00977 2.5293-3.20801Q3.31055-1.40625 4.6875-0.0292969Q6.06445 1.34766 7.86621 2.12891Q9.66797 2.91016 11.709 2.91016ZM11.709 1.25Q9.98047 1.25 8.47656 0.605469Q6.97266-0.0390625 5.83496-1.17676Q4.69727-2.31445 4.05762-3.81836Q3.41797-5.32227 3.41797-7.05078Q3.41797-8.7793 4.05762-10.2832Q4.69727-11.7871 5.83008-12.9297Q6.96289-14.0723 8.4668-14.7119Q9.9707-15.3516 11.6992-15.3516Q13.4277-15.3516 14.9316-14.7119Q16.4355-14.0723 17.5781-12.9297Q18.7207-11.7871 19.3652-10.2832Q20.0098-8.7793 20.0098-7.05078Q20.0098-5.32227 19.3701-3.81836Q18.7305-2.31445 17.5928-1.17676Q16.4551-0.0390625 14.9463 0.605469Q13.4375 1.25 11.709 1.25ZM7.17773-7.05078Q7.17773-6.69922 7.41211-6.47461Q7.64648-6.25 8.01758-6.25L10.8887-6.25L10.8887-3.36914Q10.8887-2.99805 11.1133-2.76855Q11.3379-2.53906 11.6895-2.53906Q12.0605-2.53906 12.29-2.76855Q12.5195-2.99805 12.5195-3.36914L12.5195-6.25L15.4004-6.25Q15.7715-6.25 16.001-6.47461Q16.2305-6.69922 16.2305-7.05078Q16.2305-7.42188 16.001-7.65137Q15.7715-7.88086 15.4004-7.88086L12.5195-7.88086L12.5195-10.752Q12.5195-11.1328 12.29-11.3623Q12.0605-11.5918 11.6895-11.5918Q11.3379-11.5918 11.1133-11.3574Q10.8887-11.123 10.8887-10.752L10.8887-7.88086L8.01758-7.88086Q7.63672-7.88086 7.40723-7.65137Q7.17773-7.42188 7.17773-7.05078Z"/>
  </g>
  <g transform="matrix(1 0 0 1 305.646 1933)">
   <path d="M14.9707 5.66406Q17.0605 5.66406 18.96 5.01465Q20.8594 4.36523 22.4512 3.19336Q24.043 2.02148 25.2197 0.429688Q26.3965-1.16211 27.0459-3.06641Q27.6953-4.9707 27.6953-7.05078Q27.6953-9.14062 27.0459-11.04Q26.3965-12.9395 25.2197-14.5312Q24.043-16.123 22.4512-17.2998Q20.8594-18.4766 18.9551-19.126Q17.0508-19.7754 14.9609-19.7754Q12.8711-19.7754 10.9717-19.126Q9.07227-18.4766 7.48535-17.2998Q5.89844-16.123 4.72168-14.5312Q3.54492-12.9395 2.90039-11.04Q2.25586-9.14062 2.25586-7.05078Q2.25586-4.9707 2.90527-3.06641Q3.55469-1.16211 4.72656 0.429688Q5.89844 2.02148 7.49023 3.19336Q9.08203 4.36523 10.9814 5.01465Q12.8809 5.66406 14.9707 5.66406ZM14.9707 3.84766Q13.1641 3.84766 11.5283 3.2959Q9.89258 2.74414 8.53516 1.74805Q7.17773 0.751953 6.17676-0.610352Q5.17578-1.97266 4.62891-3.6084Q4.08203-5.24414 4.08203-7.05078Q4.08203-8.86719 4.62891-10.5029Q5.17578-12.1387 6.17188-13.501Q7.16797-14.8633 8.52539-15.8594Q9.88281-16.8555 11.5186-17.4023Q13.1543-17.9492 14.9609-17.9492Q16.7773-17.9492 18.4131-17.4023Q20.0488-16.8555 21.4111-15.8594Q22.7734-14.8633 23.7695-13.501Q24.7656-12.1387 25.3174-10.5029Q25.8691-8.86719 25.8691-7.05078Q25.8789-5.24414 25.332-3.6084Q24.7852-1.97266 23.7842-0.610352Q22.7832 0.751953 21.4209 1.74805Q20.0586 2.74414 18.4229 3.2959Q16.7871 3.84766 14.9707 3.84766ZM9.19922-7.05078Q9.19922-6.66992 9.45801-6.4209Q9.7168-6.17188 10.1172-6.17188L14.0625-6.17188L14.0625-2.2168Q14.0625-1.81641 14.3115-1.55762Q14.5605-1.29883 14.9512-1.29883Q15.3516-1.29883 15.6104-1.55273Q15.8691-1.80664 15.8691-2.2168L15.8691-6.17188L19.8242-6.17188Q20.2246-6.17188 20.4785-6.4209Q20.7324-6.66992 20.7324-7.05078Q20.7324-7.46094 20.4785-7.71484Q20.2246-7.96875 19.8242-7.96875L15.8691-7.96875L15.8691-11.9141Q15.8691-12.3242 15.6104-12.583Q15.3516-12.8418 14.9512-12.8418Q14.5605-12.8418 14.3115-12.583Q14.0625-12.3242 14.0625-11.9141L14.0625-7.96875L10.1172-7.96875Q9.70703-7.96875 9.45312-7.71484Q9.19922-7.46094 9.19922-7.05078Z"/>
  </g>
  <text style="stroke:none;fill:black;font-family:sans-serif;font-size:13;font-weight:bold;" transform="matrix(1 0 0 1 263 1953)">Design Variations</text>
  <text style="stroke:none;fill:black;font-family:sans-serif;font-size:13;" transform="matrix(1 0 0 1 263 1971)">Symbols are supported in up to nine weights and three scales.</text>
  <text style="stroke:none;fill:black;font-family:sans-serif;font-size:13;" transform="matrix(1 0 0 1 263 1989)">For optimal layout with text and other symbols, vertically align</text>
  <text style="stroke:none;fill:black;font-family:sans-serif;font-size:13;" transform="matrix(1 0 0 1 263 2007)">symbols with the adjacent text.</text>
  <line style="fill:none;stroke:#00AEEF;stroke-width:0.5;opacity:1.0;" x1="776" x2="776" y1="1919" y2="1933"/>
  <g transform="matrix(1 0 0 1 776 1933)">
   <path d="M3.31055 0.15625Q3.70117 0.15625 3.91602-0.00976562Q4.13086-0.175781 4.26758-0.585938L5.52734-4.0332L11.2891-4.0332L12.5488-0.585938Q12.6855-0.175781 12.9004-0.00976562Q13.1152 0.15625 13.4961 0.15625Q13.8867 0.15625 14.1162-0.0585938Q14.3457-0.273438 14.3457-0.644531Q14.3457-0.869141 14.2383-1.17188L9.6582-13.3691Q9.48242-13.8184 9.17969-14.043Q8.87695-14.2676 8.4082-14.2676Q7.5-14.2676 7.17773-13.3789L2.59766-1.16211Q2.49023-0.859375 2.49023-0.634766Q2.49023-0.263672 2.70996-0.0537109Q2.92969 0.15625 3.31055 0.15625ZM6.00586-5.51758L8.37891-12.0898L8.42773-12.0898L10.8008-5.51758Z"/>
  </g>
  <line style="fill:none;stroke:#00AEEF;stroke-width:0.5;opacity:1.0;" x1="793.197" x2="793.197" y1="1919" y2="1933"/>
  <text style="stroke:none;fill:black;font-family:sans-serif;font-size:13;font-weight:bold;" transform="matrix(1 0 0 1 776 1953)">Margins</text>
  <text style="stroke:none;fill:black;font-family:sans-serif;font-size:13;" transform="matrix(1 0 0 1 776 1971)">Leading and trailing margins on the left and right side of each symbol</text>
  <text style="stroke:none;fill:black;font-family:sans-serif;font-size:13;" transform="matrix(1 0 0 1 776 1989)">can be adjusted by modifying the x-location of the margin guidelines.</text>
  <text style="stroke:none;fill:black;font-family:sans-serif;font-size:13;" transform="matrix(1 0 0 1 776 2007)">Modifications are automatically applied proportionally to all</text>
  <text style="stroke:none;fill:black;font-family:sans-serif;font-size:13;" transform="matrix(1 0 0 1 776 2025)">scales and weights.</text>
  <g transform="matrix(1 0 0 1 1289 1933)">
   <path d="M2.8418 1.86523L4.54102 3.57422Q5.18555 4.22852 5.90332 4.17969Q6.62109 4.13086 7.31445 3.35938L18.0078-8.42773L17.041-9.4043L6.42578 2.27539Q6.16211 2.57812 5.89355 2.61719Q5.625 2.65625 5.27344 2.30469L4.10156 1.14258Q3.75 0.791016 3.79395 0.522461Q3.83789 0.253906 4.14062-0.0195312L15.6152-10.8203L14.6387-11.7871L3.04688-0.898438Q2.30469-0.214844 2.25098 0.498047Q2.19727 1.21094 2.8418 1.86523ZM9.25781-16.3281Q8.94531-16.0254 8.90625-15.6348Q8.86719-15.2441 9.04297-14.9512Q9.21875-14.6777 9.55566-14.541Q9.89258-14.4043 10.3809-14.5215Q11.4746-14.7754 12.5977-14.7314Q13.7207-14.6875 14.7949-13.9844L14.209-12.5293Q13.9551-11.9043 14.0674-11.4404Q14.1797-10.9766 14.5801-10.5664L16.875-8.25195Q17.2363-7.88086 17.5781-7.82227Q17.9199-7.76367 18.3398-7.8418L19.4043-8.03711L20.0684-7.36328L20.0293-6.80664Q20-6.43555 20.1221-6.12305Q20.2441-5.81055 20.6055-5.44922L21.3672-4.70703Q21.7285-4.3457 22.1533-4.33105Q22.5781-4.31641 22.9297-4.66797L25.8398-7.58789Q26.1914-7.93945 26.1816-8.35449Q26.1719-8.76953 25.8105-9.13086L25.0391-9.89258Q24.6875-10.2539 24.3799-10.3857Q24.0723-10.5176 23.7109-10.4883L23.1348-10.4395L22.4902-11.0742L22.7344-12.1973Q22.832-12.6172 22.6953-12.9834Q22.5586-13.3496 22.1191-13.7891L19.9219-15.9766Q18.6719-17.2168 17.2607-17.8369Q15.8496-18.457 14.4189-18.4814Q12.9883-18.5059 11.665-17.959Q10.3418-17.4121 9.25781-16.3281ZM10.752-15.957Q11.6602-16.6211 12.7002-16.9043Q13.7402-17.1875 14.8047-17.085Q15.8691-16.9824 16.8701-16.5137Q17.8711-16.0449 18.7012-15.2051L21.1328-12.793Q21.3086-12.6172 21.3525-12.4512Q21.3965-12.2852 21.3379-12.0312L21.0156-10.5469L22.5195-9.0625L23.5059-9.12109Q23.6914-9.13086 23.7891-9.09668Q23.8867-9.0625 24.0332-8.91602L24.6094-8.33984L22.168-5.89844L21.5918-6.47461Q21.4453-6.62109 21.4062-6.71875Q21.3672-6.81641 21.377-7.01172L21.4453-7.98828L19.9512-9.47266L18.4277-9.21875Q18.1836-9.16992 18.042-9.2041Q17.9004-9.23828 17.7148-9.41406L15.7129-11.416Q15.5176-11.5918 15.4932-11.7529Q15.4688-11.9141 15.5859-12.1875L16.4648-14.2773Q15.293-15.3711 13.8281-15.791Q12.3633-16.2109 10.8398-15.7617Q10.7227-15.7324 10.6885-15.8057Q10.6543-15.8789 10.752-15.957Z"/>
  </g>
  <text style="stroke:none;fill:black;font-family:sans-serif;font-size:13;font-weight:bold;" transform="matrix(1 0 0 1 1289 1953)">Exporting</text>
  <text style="stroke:none;fill:black;font-family:sans-serif;font-size:13;" transform="matrix(1 0 0 1 1289 1971)">Symbols should be outlined when exporting to ensure the</text>
  <text style="stroke:none;fill:black;font-family:sans-serif;font-size:13;" transform="matrix(1 0 0 1 1289 1989)">design is preserved when submitting to Xcode.</text>
  <text id="template-version" style="stroke:none;fill:black;font-family:sans-serif;font-size:13;text-anchor:end;" transform="matrix(1 0 0 1 3036 1933)">Template v.3.0</text>
  <text style="stroke:none;fill:black;font-family:sans-serif;font-size:13;text-anchor:end;" transform="matrix(1 0 0 1 3036 1951)">Requires Xcode 13 or greater</text>
  <text id="descriptive-name" style="stroke:none;fill:black;font-family:sans-serif;font-size:13;text-anchor:end;" transform="matrix(1 0 0 1 3036 1969)">Generated from key.fill.circle</text>
  <text style="stroke:none;fill:black;font-family:sans-serif;font-size:13;text-anchor:end;" transform="matrix(1 0 0 1 3036 1987)">Typeset at 100 points</text>
  <text style="stroke:none;fill:black;font-family:sans-serif;font-size:13;" transform="matrix(1 0 0 1 263 726)">Small</text>
  <text style="stroke:none;fill:black;font-family:sans-serif;font-size:13;" transform="matrix(1 0 0 1 263 1156)">Medium</text>
  <text style="stroke:none;fill:black;font-family:sans-serif;font-size:13;" transform="matrix(1 0 0 1 263 1586)">Large</text>
 </g>
 <g id="Guides">
  <g id="H-reference" style="fill:#27AAE1;stroke:none;" transform="matrix(1 0 0 1 339 696)">
   <path d="M0.993347 0L3.6377 0L29.3282-67.1326L30.0301-67.1326L30.0301-70.459L28.1227-70.459ZM11.6882-24.4797L46.9818-24.4797L46.2311-26.7288L12.4382-26.7288ZM55.1193 0L57.7637 0L30.6381-70.459L29.4327-70.459L29.4327-67.1326Z"/>
  </g>
  <line id="Baseline-S" style="fill:none;stroke:#27AAE1;opacity:1;stroke-width:0.5;" x1="263" x2="3036" y1="696" y2="696"/>
  <line id="Capline-S" style="fill:none;stroke:#27AAE1;opacity:1;stroke-width:0.5;" x1="263" x2="3036" y1="625.541" y2="625.541"/>
  <g id="H-reference" style="fill:#27AAE1;stroke:none;" transform="matrix(1 0 0 1 339 1126)">
   <path d="M0.993347 0L3.6377 0L29.3282-67.1326L30.0301-67.1326L30.0301-70.459L28.1227-70.459ZM11.6882-24.4797L46.9818-24.4797L46.2311-26.7288L12.4382-26.7288ZM55.1193 0L57.7637 0L30.6381-70.459L29.4327-70.459L29.4327-67.1326Z"/>
  </g>
  <line id="Baseline-M" style="fill:none;stroke:#27AAE1;opacity:1;stroke-width:0.5;" x1="263" x2="3036" y1="1126" y2="1126"/>
  <line id="Capline-M" style="fill:none;stroke:#27AAE1;opacity:1;stroke-width:0.5;" x1="263" x2="3036" y1="1055.54" y2="1055.54"/>
  <g id="H-reference" style="fill:#27AAE1;stroke:none;" transform="matrix(1 0 0 1 339 1556)">
   <path d="M0.993347 0L3.6377 0L29.3282-67.1326L30.0301-67.1326L30.0301-70.459L28.1227-70.459ZM11.6882-24.4797L46.9818-24.4797L46.2311-26.7288L12.4382-26.7288ZM55.1193 0L57.7637 0L30.6381-70.459L29.4327-70.459L29.4327-67.1326Z"/>
  </g>
  <line id="Baseline-L" style="fill:none;stroke:#27AAE1;opacity:1;stroke-width:0.5;" x1="263" x2="3036" y1="1556" y2="1556"/>
  <line id="Capline-L" style="fill:none;stroke:#27AAE1;opacity:1;stroke-width:0.5;" x1="263" x2="3036" y1="1485.54" y2="1485.54"/>
  <line id="left-margin-Ultralight-S" style="fill:none;stroke:#00AEEF;stroke-width:0.5;opacity:1.0;" x1="516.112" x2="516.112" y1="600.784" y2="720.121"/>
  <line id="right-margin-Ultralight-S" style="fill:none;stroke:#00AEEF;stroke-width:0.5;opacity:1.0;" x1="603.311" x2="603.311" y1="600.784" y2="720.121"/>
  <line id="left-margin-Regular-S" style="fill:none;stroke:#00AEEF;stroke-width:0.5;opacity:1.0;" x1="1403.84" x2="1403.84" y1="600.784" y2="720.121"/>
  <line id="right-margin-Regular-S" style="fill:none;stroke:#00AEEF;stroke-width:0.5;opacity:1.0;" x1="1495.85" x2="1495.85" y1="600.784" y2="720.121"/>
  <line id="left-margin-Black-S" style="fill:none;stroke:#00AEEF;stroke-width:0.5;opacity:1.0;" x1="2884.65" x2="2884.65" y1="600.784" y2="720.121"/>
  <line id="right-margin-Black-S" style="fill:none;stroke:#00AEEF;stroke-width:0.5;opacity:1.0;" x1="2982.15" x2="2982.15" y1="600.784" y2="720.121"/>
 </g>
 <g id="Symbols">
  <g id="Black-S" transform="matrix(1 0 0 1 2884.65 696)">
   <path class="hierarchical-0:secondary SFSymbolsPreview4D4D4D" d="M48.828 6.78711C54.6223 6.78711 60.0503 5.69661 65.1122 3.51562C70.1741 1.33463 74.6337-1.68457 78.4911-5.54199C82.3485-9.3994 85.3677-13.859 87.5487-18.9209C89.7297-23.9828 90.8202-29.4108 90.8202-35.2051C90.8202-40.9994 89.7297-46.4274 87.5487-51.4893C85.3677-56.5511 82.3485-61.0107 78.4911-64.8682C74.6337-68.7256 70.1741-71.7448 65.1122-73.9258C60.0503-76.1068 54.6223-77.1973 48.828-77.1973C43.0337-77.1973 37.6057-76.1068 32.5438-73.9258C27.482-71.7448 23.0224-68.7256 19.1649-64.8682C15.3075-61.0107 12.2883-56.5511 10.1073-51.4893C7.92633-46.4274 6.83584-40.9994 6.83584-35.2051C6.83584-29.4108 7.92633-23.9828 10.1073-18.9209C12.2883-13.859 15.3075-9.3994 19.1649-5.54199C23.0224-1.68457 27.482 1.33463 32.5438 3.51562C37.6057 5.69661 43.0337 6.78711 48.828 6.78711ZM48.828-7.37305C44.9869-7.37305 41.3817-8.09733 38.0126-9.5459C34.6435-10.9945 31.6894-12.9883 29.1503-15.5273C26.6112-18.0664 24.6174-21.0205 23.1688-24.3896C21.7203-27.7588 20.996-31.364 20.996-35.2051C20.996-39.0462 21.7203-42.6514 23.1688-46.0205C24.6174-49.3896 26.6112-52.3437 29.1503-54.8828C31.6894-57.4219 34.6435-59.4157 38.0126-60.8643C41.3817-62.3128 44.9869-63.0371 48.828-63.0371C52.6691-63.0371 56.2743-62.3128 59.6435-60.8643C63.0126-59.4157 65.9667-57.4219 68.5058-54.8828C71.0449-52.3437 73.0387-49.3896 74.4872-46.0205C75.9358-42.6514 76.6601-39.0462 76.6601-35.2051C76.6601-31.364 75.9358-27.7588 74.4872-24.3896C73.0387-21.0205 71.0449-18.0664 68.5058-15.5273C65.9667-12.9883 63.0126-10.9945 59.6435-9.5459C56.2743-8.09733 52.6691-7.37305 48.828-7.37305Z"/>
   <path class="hierarchical-1:primary SFSymbolsPreview212121" d="M24.5621-30.1217C25.2924-28.4123 26.3047-26.9103 27.5992-25.6158C28.8938-24.3213 30.3957-23.3089 32.1052-22.5787C33.8146-21.8485 35.6485-21.4834 37.6069-21.4834C40.1627-21.4834 42.5152-22.1389 44.6645-23.45C46.8137-24.7611 48.6019-26.6531 50.0292-29.126L53.0415-26.1137C53.639-25.5163 54.3526-25.2217 55.1824-25.23C56.0123-25.2383 56.7259-25.5329 57.3234-26.1137L60.9331-29.6985L63.1487-27.5078C63.7628-26.9104 64.4805-26.6075 65.3021-26.5992C66.1236-26.5909 66.8331-26.8854 67.4306-27.4829L73.455-33.5074C73.9695-34.0219 74.2268-34.6235 74.2268-35.3123C74.2268-36.001 74.0193-36.5861 73.6044-37.0674L70.2436-40.9758C69.9117-41.3575 69.5009-41.6355 69.0114-41.8097C68.5218-41.984 68.0446-42.0711 67.5799-42.0711L50.2782-42.0711C49.0667-44.461 47.324-46.3489 45.0503-47.7346C42.7766-49.1205 40.2955-49.8134 37.6069-49.8134C35.6485-49.8134 33.8146-49.4482 32.1052-48.718C30.3957-47.9878 28.8938-46.9754 27.5992-45.6809C26.3047-44.3863 25.2924-42.8844 24.5621-41.1749C23.8319-39.4655 23.4667-37.6233 23.4667-35.6484C23.4667-33.6734 23.8319-31.8312 24.5621-30.1217ZM34.0096-33.3456C33.3706-32.7067 32.6031-32.3872 31.7068-32.3872C30.8106-32.3872 30.043-32.7067 29.4041-33.3456C28.7652-33.9846 28.4457-34.7522 28.4457-35.6484C28.4457-36.5446 28.761-37.3121 29.3916-37.9511C30.0223-38.5901 30.794-38.9096 31.7068-38.9096C32.6031-38.9096 33.3706-38.5901 34.0096-37.9511C34.6485-37.3121 34.968-36.5446 34.968-35.6484C34.968-34.7522 34.6485-33.9846 34.0096-33.3456Z"/>
  </g>
  <g id="Regular-S" transform="matrix(1 0 0 1 1403.84 696)">
   <path class="hierarchical-0:secondary SFSymbolsPreview4D4D4D" d="M46.2403 4.15039C51.6439 4.15039 56.7221 3.125 61.4747 1.07422C66.2273-0.97656 70.4184-3.82487 74.048-7.4707C77.6775-11.1166 80.5258-15.3158 82.5928-20.0684C84.6599-24.821 85.6935-29.8828 85.6935-35.2539C85.6935-40.625 84.6599-45.6868 82.5928-50.4395C80.5258-55.1921 77.6693-59.3913 74.0235-63.0371C70.3777-66.683 66.1785-69.5313 61.4259-71.582C56.6733-73.6328 51.5951-74.6582 46.1915-74.6582C40.8204-74.6582 35.7586-73.6328 31.006-71.582C26.2534-69.5313 22.0704-66.683 18.4571-63.0371C14.8438-59.3913 12.0036-55.1921 9.93657-50.4395C7.86952-45.6868 6.83599-40.625 6.83599-35.2539C6.83599-29.8828 7.86952-24.821 9.93657-20.0684C12.0036-15.3158 14.8519-11.1166 18.4815-7.4707C22.1111-3.82487 26.3022-0.97656 31.0548 1.07422C35.8074 3.125 40.8692 4.15039 46.2403 4.15039ZM46.2403-3.27148C41.8132-3.27148 37.671-4.09342 33.8136-5.7373C29.9561-7.38118 26.5707-9.66798 23.6573-12.5977C20.7439-15.5274 18.4652-18.929 16.8214-22.8027C15.1775-26.6764 14.3556-30.8268 14.3556-35.2539C14.3556-39.681 15.1694-43.8314 16.797-47.7051C18.4246-51.5788 20.6951-54.9805 23.6085-57.9102C26.5219-60.8399 29.9073-63.1266 33.7647-64.7705C37.6221-66.4144 41.7644-67.2363 46.1915-67.2363C50.6511-67.2363 54.8097-66.4144 58.6671-64.7705C62.5245-63.1266 65.918-60.8399 68.8478-57.9102C71.7774-54.9805 74.0723-51.5788 75.7325-47.7051C77.3927-43.8314 78.2228-39.681 78.2228-35.2539C78.2228-30.8268 77.4008-26.6764 75.7569-22.8027C74.113-18.929 71.8344-15.5274 68.921-12.5977C66.0076-9.66798 62.614-7.38118 58.7403-5.7373C54.8666-4.09342 50.6999-3.27148 46.2403-3.27148Z"/>
   <path class="hierarchical-1:primary SFSymbolsPreview212121" d="M20.601-29.3713C21.3137-27.6901 22.3051-26.2144 23.5751-24.9443C24.8452-23.6743 26.3163-22.6784 27.9883-21.9565C29.6604-21.2347 31.4559-20.8738 33.3747-20.8738C36.3351-20.8738 38.9986-21.7692 41.3652-23.5601C43.7317-25.351 45.5819-27.9002 46.916-31.2079L52.6449-25.5611C52.9008-25.3053 53.184-25.1728 53.4947-25.1637C53.8054-25.1545 54.0703-25.2687 54.2896-25.5063L60.046-31.2627L64.1851-27.0687C64.4227-26.8312 64.6968-26.7124 65.0075-26.7124C65.3181-26.7124 65.6014-26.8312 65.8572-27.0687L72.7375-33.949C72.9751-34.1866 73.0756-34.4744 73.039-34.8125C73.0025-35.1506 72.902-35.411 72.7375-35.5937L69.0644-39.212C68.8451-39.413 68.6258-39.5638 68.4065-39.6643C68.1872-39.7648 67.9314-39.8151 67.639-39.8151L46.3677-39.8151C45.3261-42.5197 43.6266-44.6715 41.2692-46.2704C38.9118-47.8694 36.2803-48.6689 33.3747-48.6689C31.4559-48.6689 29.6604-48.3126 27.9883-47.5999C26.3163-46.8872 24.8452-45.8958 23.5751-44.6257C22.3051-43.3557 21.3137-41.8801 20.601-40.1988C19.8883-38.5176 19.532-36.7084 19.532-34.7713C19.532-32.8526 19.8883-31.0526 20.601-29.3713ZM31.6204-32.0439C30.8711-31.2855 29.9574-30.9064 28.8793-30.9064C27.8193-30.9064 26.9102-31.2855 26.1518-32.0439C25.3934-32.8023 25.0142-33.7114 25.0142-34.7713C25.0142-35.8495 25.3888-36.7633 26.1381-37.5125C26.8873-38.2617 27.8011-38.6364 28.8793-38.6364C29.9574-38.6364 30.8711-38.2572 31.6204-37.4988C32.3696-36.7404 32.7442-35.8312 32.7442-34.7713C32.7442-33.7114 32.3696-32.8023 31.6204-32.0439Z"/>
  </g>
  <g id="Ultralight-S" transform="matrix(1 0 0 1 516.112 696)">
   <path class="hierarchical-0:secondary SFSymbolsPreview4D4D4D" d="M44.0605 1.97067C49.1915 1.97067 53.9971 1.00581 58.4774-0.92392C62.9577-2.85365 66.9141-5.53551 70.3468-8.9695C73.7795-12.4035 76.4614-16.3605 78.3924-20.8405C80.3234-25.3204 81.2889-30.1249 81.2889-35.2539C81.2889-40.3829 80.3234-45.1874 78.3924-49.6674C76.4614-54.1473 73.779-58.1043 70.3453-61.5383C66.9116-64.9723 62.9546-67.6542 58.4743-69.5839C53.9941-71.5136 49.1885-72.4785 44.0575-72.4785C38.9285-72.4785 34.1164-71.5136 29.6211-69.5839C25.1259-67.6542 21.1699-64.9723 17.7532-61.5383C14.3365-58.1043 11.6628-54.1473 9.73206-49.6674C7.80131-45.1874 6.83594-40.3829 6.83594-35.2539C6.83594-30.1249 7.80131-25.3204 9.73206-20.8405C11.6628-16.3605 14.337-12.4035 17.7547-8.9695C21.1724-5.53551 25.1289-2.85365 29.6242-0.92392C34.1194 1.00581 38.9315 1.97067 44.0605 1.97067ZM44.0605-0.274658C39.2398-0.274658 34.7115-1.17976 30.4756-2.98996C26.2398-4.80016 22.5214-7.30641 19.3203-10.5087C16.1192-13.711 13.606-17.4306 11.7805-21.6675C9.95507-25.9044 9.04236-30.4332 9.04236-35.2539C9.04236-40.0746 9.95458-44.6034 11.779-48.8403C13.6035-53.0772 16.1162-56.7968 19.3172-59.9991C22.5183-63.2014 26.2367-65.7077 30.4726-67.5179C34.7084-69.3281 39.2367-70.2332 44.0575-70.2332C48.8803-70.2332 53.4096-69.3281 57.6454-67.5179C61.8813-65.7077 65.6002-63.2014 68.8023-59.9991C72.0043-56.7968 74.5111-53.0772 76.3226-48.8403C78.1341-44.6034 79.0398-40.0746 79.0398-35.2539C79.0398-30.4332 78.1347-25.9044 76.3245-21.6675C74.5143-17.4306 72.0087-13.711 68.8076-10.5087C65.6065-7.30641 61.8875-4.80016 57.6504-2.98996C53.4133-1.17976 48.8833-0.274658 44.0605-0.274658Z"/>
   <path class="hierarchical-1:primary SFSymbolsPreview212121" d="M14.745-28.9926C15.554-27.0828 16.6829-25.4034 18.1318-23.9545C19.5806-22.5057 21.2544-21.3765 23.153-20.5668C25.0516-19.7571 27.0907-19.3523 29.2704-19.3523C32.765-19.3523 35.8914-20.4417 38.6494-22.6207C41.4075-24.7996 43.5397-27.9317 45.046-32.017L52.4237-24.646C52.5913-24.4788 52.7818-24.3948 52.9952-24.3939C53.2087-24.393 53.3872-24.4547 53.5306-24.579L60.7241-31.8348L66.065-26.4582C66.2305-26.313 66.4149-26.2405 66.6182-26.2405C66.8215-26.2405 67.0068-26.313 67.174-26.4582L75.1801-34.4644C75.3875-34.6717 75.4844-34.8937 75.471-35.1304C75.4576-35.3671 75.3503-35.5868 75.1492-35.7896L71.0011-39.9011C70.7955-40.1053 70.5795-40.2481 70.3529-40.3294C70.1264-40.4107 69.9071-40.4514 69.6952-40.4514L44.1579-40.4514C43.0297-43.6332 41.1076-46.1704 38.3918-48.063C35.676-49.9555 32.6355-50.9018 29.2704-50.9018C27.0907-50.9018 25.0464-50.4973 23.1373-49.6883C21.2282-48.8793 19.5544-47.7504 18.1161-46.3015C16.6777-44.8527 15.554-43.1785 14.745-41.279C13.936-39.3795 13.5315-37.3287 13.5315-35.1267C13.5315-32.9471 13.936-30.9024 14.745-28.9926ZM27.7336-32.0262C26.8696-31.1718 25.8304-30.7446 24.616-30.7446C23.4242-30.7446 22.3959-31.1718 21.5311-32.0262C20.6662-32.8805 20.2338-33.914 20.2338-35.1267C20.2338-36.3412 20.6607-37.3752 21.5143-38.2289C22.368-39.0826 23.4019-39.5094 24.616-39.5094C25.8304-39.5094 26.8696-39.0821 27.7336-38.2276C28.5976-37.373 29.0296-36.3394 29.0296-35.1267C29.0296-33.914 28.5976-32.8805 27.7336-32.0262Z"/>
  </g>
 </g>
</svg>
