<?xml version="1.0" encoding="UTF-8"?>
<!--Generator: Apple Native CoreSVG 175-->
<!DOCTYPE svg
PUBLIC "-//W3C//DTD SVG 1.1//EN"
       "http://www.w3.org/Graphics/SVG/1.1/DTD/svg11.dtd">
<svg version="1.1" xmlns="http://www.w3.org/2000/svg" xmlns:xlink="http://www.w3.org/1999/xlink" width="3300" height="2200">
 <!--glyph: "", point size: 100.0, font version: "17.1d1e1", template writer version: "65.1"-->
 <style>.hierarchical-0:secondary {fill:#4D4D4D}
.hierarchical-1:primary {fill:#212121}

.SFSymbolsPreview212121 {fill:#212121;opacity:1.0}
.SFSymbolsPreview4D4D4D {fill:#4D4D4D;opacity:1.0}
</style>
 <g id="Notes">
  <rect height="2200" id="artboard" style="fill:white;opacity:1" width="3300" x="0" y="0"/>
  <line style="fill:none;stroke:black;opacity:1;stroke-width:0.5;" x1="263" x2="3036" y1="292" y2="292"/>
  <text style="stroke:none;fill:black;font-family:sans-serif;font-size:13;font-weight:bold;" transform="matrix(1 0 0 1 263 322)">Weight/Scale Variations</text>
  <text style="stroke:none;fill:black;font-family:sans-serif;font-size:13;text-anchor:middle;" transform="matrix(1 0 0 1 559.711 322)">Ultralight</text>
  <text style="stroke:none;fill:black;font-family:sans-serif;font-size:13;text-anchor:middle;" transform="matrix(1 0 0 1 856.422 322)">Thin</text>
  <text style="stroke:none;fill:black;font-family:sans-serif;font-size:13;text-anchor:middle;" transform="matrix(1 0 0 1 1153.13 322)">Light</text>
  <text style="stroke:none;fill:black;font-family:sans-serif;font-size:13;text-anchor:middle;" transform="matrix(1 0 0 1 1449.84 322)">Regular</text>
  <text style="stroke:none;fill:black;font-family:sans-serif;font-size:13;text-anchor:middle;" transform="matrix(1 0 0 1 1746.56 322)">Medium</text>
  <text style="stroke:none;fill:black;font-family:sans-serif;font-size:13;text-anchor:middle;" transform="matrix(1 0 0 1 2043.27 322)">Semibold</text>
  <text style="stroke:none;fill:black;font-family:sans-serif;font-size:13;text-anchor:middle;" transform="matrix(1 0 0 1 2339.98 322)">Bold</text>
  <text style="stroke:none;fill:black;font-family:sans-serif;font-size:13;text-anchor:middle;" transform="matrix(1 0 0 1 2636.69 322)">Heavy</text>
  <text style="stroke:none;fill:black;font-family:sans-serif;font-size:13;text-anchor:middle;" transform="matrix(1 0 0 1 2933.4 322)">Black</text>
  <line style="fill:none;stroke:black;opacity:1;stroke-width:0.5;" x1="263" x2="3036" y1="1903" y2="1903"/>
  <g transform="matrix(1 0 0 1 263 1933)">
   <path d="M9.24805 0.830078Q10.8691 0.830078 12.2949 0.214844Q13.7207-0.400391 14.8096-1.49414Q15.8984-2.58789 16.5186-4.01367Q17.1387-5.43945 17.1387-7.05078Q17.1387-8.66211 16.5186-10.0879Q15.8984-11.5137 14.8047-12.6074Q13.7109-13.7012 12.2852-14.3164Q10.8594-14.9316 9.23828-14.9316Q7.62695-14.9316 6.20117-14.3164Q4.77539-13.7012 3.69141-12.6074Q2.60742-11.5137 1.9873-10.0879Q1.36719-8.66211 1.36719-7.05078Q1.36719-5.43945 1.9873-4.01367Q2.60742-2.58789 3.69629-1.49414Q4.78516-0.400391 6.21094 0.214844Q7.63672 0.830078 9.24805 0.830078ZM9.24805-0.654297Q7.91992-0.654297 6.7627-1.14746Q5.60547-1.64062 4.73145-2.51953Q3.85742-3.39844 3.36426-4.56055Q2.87109-5.72266 2.87109-7.05078Q2.87109-8.37891 3.35938-9.54102Q3.84766-10.7031 4.72168-11.582Q5.5957-12.4609 6.75293-12.9541Q7.91016-13.4473 9.23828-13.4473Q10.5762-13.4473 11.7334-12.9541Q12.8906-12.4609 13.7695-11.582Q14.6484-10.7031 15.1465-9.54102Q15.6445-8.37891 15.6445-7.05078Q15.6445-5.72266 15.1514-4.56055Q14.6582-3.39844 13.7842-2.51953Q12.9102-1.64062 11.748-1.14746Q10.5859-0.654297 9.24805-0.654297ZM5.6543-7.05078Q5.6543-6.72852 5.85938-6.52832Q6.06445-6.32812 6.40625-6.32812L8.51562-6.32812L8.51562-4.20898Q8.51562-3.88672 8.71094-3.67676Q8.90625-3.4668 9.23828-3.4668Q9.56055-3.4668 9.77051-3.67676Q9.98047-3.88672 9.98047-4.20898L9.98047-6.32812L12.0898-6.32812Q12.4219-6.32812 12.627-6.52832Q12.832-6.72852 12.832-7.05078Q12.832-7.38281 12.627-7.58789Q12.4219-7.79297 12.0898-7.79297L9.98047-7.79297L9.98047-9.90234Q9.98047-10.2344 9.77051-10.4443Q9.56055-10.6543 9.23828-10.6543Q8.90625-10.6543 8.71094-10.4443Q8.51562-10.2344 8.51562-9.90234L8.51562-7.79297L6.40625-7.79297Q6.06445-7.79297 5.85938-7.58789Q5.6543-7.38281 5.6543-7.05078Z"/>
  </g>
  <g transform="matrix(1 0 0 1 281.867 1933)">
   <path d="M11.709 2.91016Q13.75 2.91016 15.5518 2.12891Q17.3535 1.34766 18.7305-0.0292969Q20.1074-1.40625 20.8887-3.20801Q21.6699-5.00977 21.6699-7.05078Q21.6699-9.0918 20.8887-10.8936Q20.1074-12.6953 18.7305-14.0723Q17.3535-15.4492 15.5469-16.2305Q13.7402-17.0117 11.6992-17.0117Q9.6582-17.0117 7.85645-16.2305Q6.05469-15.4492 4.68262-14.0723Q3.31055-12.6953 2.5293-10.8936Q1.74805-9.0918 1.74805-7.05078Q1.74805-5.00977 2.5293-3.20801Q3.31055-1.40625 4.6875-0.0292969Q6.06445 1.34766 7.86621 2.12891Q9.66797 2.91016 11.709 2.91016ZM11.709 1.25Q9.98047 1.25 8.47656 0.605469Q6.97266-0.0390625 5.83496-1.17676Q4.69727-2.31445 4.05762-3.81836Q3.41797-5.32227 3.41797-7.05078Q3.41797-8.7793 4.05762-10.2832Q4.69727-11.7871 5.83008-12.9297Q6.96289-14.0723 8.4668-14.7119Q9.9707-15.3516 11.6992-15.3516Q13.4277-15.3516 14.9316-14.7119Q16.4355-14.0723 17.5781-12.9297Q18.7207-11.7871 19.3652-10.2832Q20.0098-8.7793 20.0098-7.05078Q20.0098-5.32227 19.3701-3.81836Q18.7305-2.31445 17.5928-1.17676Q16.4551-0.0390625 14.9463 0.605469Q13.4375 1.25 11.709 1.25ZM7.17773-7.05078Q7.17773-6.69922 7.41211-6.47461Q7.64648-6.25 8.01758-6.25L10.8887-6.25L10.8887-3.36914Q10.8887-2.99805 11.1133-2.76855Q11.3379-2.53906 11.6895-2.53906Q12.0605-2.53906 12.29-2.76855Q12.5195-2.99805 12.5195-3.36914L12.5195-6.25L15.4004-6.25Q15.7715-6.25 16.001-6.47461Q16.2305-6.69922 16.2305-7.05078Q16.2305-7.42188 16.001-7.65137Q15.7715-7.88086 15.4004-7.88086L12.5195-7.88086L12.5195-10.752Q12.5195-11.1328 12.29-11.3623Q12.0605-11.5918 11.6895-11.5918Q11.3379-11.5918 11.1133-11.3574Q10.8887-11.123 10.8887-10.752L10.8887-7.88086L8.01758-7.88086Q7.63672-7.88086 7.40723-7.65137Q7.17773-7.42188 7.17773-7.05078Z"/>
  </g>
  <g transform="matrix(1 0 0 1 305.646 1933)">
   <path d="M14.9707 5.66406Q17.0605 5.66406 18.96 5.01465Q20.8594 4.36523 22.4512 3.19336Q24.043 2.02148 25.2197 0.429688Q26.3965-1.16211 27.0459-3.06641Q27.6953-4.9707 27.6953-7.05078Q27.6953-9.14062 27.0459-11.04Q26.3965-12.9395 25.2197-14.5312Q24.043-16.123 22.4512-17.2998Q20.8594-18.4766 18.9551-19.126Q17.0508-19.7754 14.9609-19.7754Q12.8711-19.7754 10.9717-19.126Q9.07227-18.4766 7.48535-17.2998Q5.89844-16.123 4.72168-14.5312Q3.54492-12.9395 2.90039-11.04Q2.25586-9.14062 2.25586-7.05078Q2.25586-4.9707 2.90527-3.06641Q3.55469-1.16211 4.72656 0.429688Q5.89844 2.02148 7.49023 3.19336Q9.08203 4.36523 10.9814 5.01465Q12.8809 5.66406 14.9707 5.66406ZM14.9707 3.84766Q13.1641 3.84766 11.5283 3.2959Q9.89258 2.74414 8.53516 1.74805Q7.17773 0.751953 6.17676-0.610352Q5.17578-1.97266 4.62891-3.6084Q4.08203-5.24414 4.08203-7.05078Q4.08203-8.86719 4.62891-10.5029Q5.17578-12.1387 6.17188-13.501Q7.16797-14.8633 8.52539-15.8594Q9.88281-16.8555 11.5186-17.4023Q13.1543-17.9492 14.9609-17.9492Q16.7773-17.9492 18.4131-17.4023Q20.0488-16.8555 21.4111-15.8594Q22.7734-14.8633 23.7695-13.501Q24.7656-12.1387 25.3174-10.5029Q25.8691-8.86719 25.8691-7.05078Q25.8789-5.24414 25.332-3.6084Q24.7852-1.97266 23.7842-0.610352Q22.7832 0.751953 21.4209 1.74805Q20.0586 2.74414 18.4229 3.2959Q16.7871 3.84766 14.9707 3.84766ZM9.19922-7.05078Q9.19922-6.66992 9.45801-6.4209Q9.7168-6.17188 10.1172-6.17188L14.0625-6.17188L14.0625-2.2168Q14.0625-1.81641 14.3115-1.55762Q14.5605-1.29883 14.9512-1.29883Q15.3516-1.29883 15.6104-1.55273Q15.8691-1.80664 15.8691-2.2168L15.8691-6.17188L19.8242-6.17188Q20.2246-6.17188 20.4785-6.4209Q20.7324-6.66992 20.7324-7.05078Q20.7324-7.46094 20.4785-7.71484Q20.2246-7.96875 19.8242-7.96875L15.8691-7.96875L15.8691-11.9141Q15.8691-12.3242 15.6104-12.583Q15.3516-12.8418 14.9512-12.8418Q14.5605-12.8418 14.3115-12.583Q14.0625-12.3242 14.0625-11.9141L14.0625-7.96875L10.1172-7.96875Q9.70703-7.96875 9.45312-7.71484Q9.19922-7.46094 9.19922-7.05078Z"/>
  </g>
  <text style="stroke:none;fill:black;font-family:sans-serif;font-size:13;font-weight:bold;" transform="matrix(1 0 0 1 263 1953)">Design Variations</text>
  <text style="stroke:none;fill:black;font-family:sans-serif;font-size:13;" transform="matrix(1 0 0 1 263 1971)">Symbols are supported in up to nine weights and three scales.</text>
  <text style="stroke:none;fill:black;font-family:sans-serif;font-size:13;" transform="matrix(1 0 0 1 263 1989)">For optimal layout with text and other symbols, vertically align</text>
  <text style="stroke:none;fill:black;font-family:sans-serif;font-size:13;" transform="matrix(1 0 0 1 263 2007)">symbols with the adjacent text.</text>
  <line style="fill:none;stroke:#00AEEF;stroke-width:0.5;opacity:1.0;" x1="776" x2="776" y1="1919" y2="1933"/>
  <g transform="matrix(1 0 0 1 776 1933)">
   <path d="M3.31055 0.15625Q3.70117 0.15625 3.91602-0.00976562Q4.13086-0.175781 4.26758-0.585938L5.52734-4.0332L11.2891-4.0332L12.5488-0.585938Q12.6855-0.175781 12.9004-0.00976562Q13.1152 0.15625 13.4961 0.15625Q13.8867 0.15625 14.1162-0.0585938Q14.3457-0.273438 14.3457-0.644531Q14.3457-0.869141 14.2383-1.17188L9.6582-13.3691Q9.48242-13.8184 9.17969-14.043Q8.87695-14.2676 8.4082-14.2676Q7.5-14.2676 7.17773-13.3789L2.59766-1.16211Q2.49023-0.859375 2.49023-0.634766Q2.49023-0.263672 2.70996-0.0537109Q2.92969 0.15625 3.31055 0.15625ZM6.00586-5.51758L8.37891-12.0898L8.42773-12.0898L10.8008-5.51758Z"/>
  </g>
  <line style="fill:none;stroke:#00AEEF;stroke-width:0.5;opacity:1.0;" x1="793.197" x2="793.197" y1="1919" y2="1933"/>
  <text style="stroke:none;fill:black;font-family:sans-serif;font-size:13;font-weight:bold;" transform="matrix(1 0 0 1 776 1953)">Margins</text>
  <text style="stroke:none;fill:black;font-family:sans-serif;font-size:13;" transform="matrix(1 0 0 1 776 1971)">Leading and trailing margins on the left and right side of each symbol</text>
  <text style="stroke:none;fill:black;font-family:sans-serif;font-size:13;" transform="matrix(1 0 0 1 776 1989)">can be adjusted by modifying the x-location of the margin guidelines.</text>
  <text style="stroke:none;fill:black;font-family:sans-serif;font-size:13;" transform="matrix(1 0 0 1 776 2007)">Modifications are automatically applied proportionally to all</text>
  <text style="stroke:none;fill:black;font-family:sans-serif;font-size:13;" transform="matrix(1 0 0 1 776 2025)">scales and weights.</text>
  <g transform="matrix(1 0 0 1 1289 1933)">
   <path d="M2.8418 1.86523L4.54102 3.57422Q5.18555 4.22852 5.90332 4.17969Q6.62109 4.13086 7.31445 3.35938L18.0078-8.42773L17.041-9.4043L6.42578 2.27539Q6.16211 2.57812 5.89355 2.61719Q5.625 2.65625 5.27344 2.30469L4.10156 1.14258Q3.75 0.791016 3.79395 0.522461Q3.83789 0.253906 4.14062-0.0195312L15.6152-10.8203L14.6387-11.7871L3.04688-0.898438Q2.30469-0.214844 2.25098 0.498047Q2.19727 1.21094 2.8418 1.86523ZM9.25781-16.3281Q8.94531-16.0254 8.90625-15.6348Q8.86719-15.2441 9.04297-14.9512Q9.21875-14.6777 9.55566-14.541Q9.89258-14.4043 10.3809-14.5215Q11.4746-14.7754 12.5977-14.7314Q13.7207-14.6875 14.7949-13.9844L14.209-12.5293Q13.9551-11.9043 14.0674-11.4404Q14.1797-10.9766 14.5801-10.5664L16.875-8.25195Q17.2363-7.88086 17.5781-7.82227Q17.9199-7.76367 18.3398-7.8418L19.4043-8.03711L20.0684-7.36328L20.0293-6.80664Q20-6.43555 20.1221-6.12305Q20.2441-5.81055 20.6055-5.44922L21.3672-4.70703Q21.7285-4.3457 22.1533-4.33105Q22.5781-4.31641 22.9297-4.66797L25.8398-7.58789Q26.1914-7.93945 26.1816-8.35449Q26.1719-8.76953 25.8105-9.13086L25.0391-9.89258Q24.6875-10.2539 24.3799-10.3857Q24.0723-10.5176 23.7109-10.4883L23.1348-10.4395L22.4902-11.0742L22.7344-12.1973Q22.832-12.6172 22.6953-12.9834Q22.5586-13.3496 22.1191-13.7891L19.9219-15.9766Q18.6719-17.2168 17.2607-17.8369Q15.8496-18.457 14.4189-18.4814Q12.9883-18.5059 11.665-17.959Q10.3418-17.4121 9.25781-16.3281ZM10.752-15.957Q11.6602-16.6211 12.7002-16.9043Q13.7402-17.1875 14.8047-17.085Q15.8691-16.9824 16.8701-16.5137Q17.8711-16.0449 18.7012-15.2051L21.1328-12.793Q21.3086-12.6172 21.3525-12.4512Q21.3965-12.2852 21.3379-12.0312L21.0156-10.5469L22.5195-9.0625L23.5059-9.12109Q23.6914-9.13086 23.7891-9.09668Q23.8867-9.0625 24.0332-8.91602L24.6094-8.33984L22.168-5.89844L21.5918-6.47461Q21.4453-6.62109 21.4062-6.71875Q21.3672-6.81641 21.377-7.01172L21.4453-7.98828L19.9512-9.47266L18.4277-9.21875Q18.1836-9.16992 18.042-9.2041Q17.9004-9.23828 17.7148-9.41406L15.7129-11.416Q15.5176-11.5918 15.4932-11.7529Q15.4688-11.9141 15.5859-12.1875L16.4648-14.2773Q15.293-15.3711 13.8281-15.791Q12.3633-16.2109 10.8398-15.7617Q10.7227-15.7324 10.6885-15.8057Q10.6543-15.8789 10.752-15.957Z"/>
  </g>
  <text style="stroke:none;fill:black;font-family:sans-serif;font-size:13;font-weight:bold;" transform="matrix(1 0 0 1 1289 1953)">Exporting</text>
  <text style="stroke:none;fill:black;font-family:sans-serif;font-size:13;" transform="matrix(1 0 0 1 1289 1971)">Symbols should be outlined when exporting to ensure the</text>
  <text style="stroke:none;fill:black;font-family:sans-serif;font-size:13;" transform="matrix(1 0 0 1 1289 1989)">design is preserved when submitting to Xcode.</text>
  <text id="template-version" style="stroke:none;fill:black;font-family:sans-serif;font-size:13;text-anchor:end;" transform="matrix(1 0 0 1 3036 1933)">Template v.3.0</text>
  <text style="stroke:none;fill:black;font-family:sans-serif;font-size:13;text-anchor:end;" transform="matrix(1 0 0 1 3036 1951)">Requires Xcode 13 or greater</text>
  <text id="descriptive-name" style="stroke:none;fill:black;font-family:sans-serif;font-size:13;text-anchor:end;" transform="matrix(1 0 0 1 3036 1969)">Generated from key.pub.circle</text>
  <text style="stroke:none;fill:black;font-family:sans-serif;font-size:13;text-anchor:end;" transform="matrix(1 0 0 1 3036 1987)">Typeset at 100 points</text>
  <text style="stroke:none;fill:black;font-family:sans-serif;font-size:13;" transform="matrix(1 0 0 1 263 726)">Small</text>
  <text style="stroke:none;fill:black;font-family:sans-serif;font-size:13;" transform="matrix(1 0 0 1 263 1156)">Medium</text>
  <text style="stroke:none;fill:black;font-family:sans-serif;font-size:13;" transform="matrix(1 0 0 1 263 1586)">Large</text>
 </g>
 <g id="Guides">
  <g id="H-reference" style="fill:#27AAE1;stroke:none;" transform="matrix(1 0 0 1 339 696)">
   <path d="M0.993347 0L3.6377 0L29.3282-67.1326L30.0301-67.1326L30.0301-70.459L28.1227-70.459ZM11.6882-24.4797L46.9818-24.4797L46.2311-26.7288L12.4382-26.7288ZM55.1193 0L57.7637 0L30.6381-70.459L29.4327-70.459L29.4327-67.1326Z"/>
  </g>
  <line id="Baseline-S" style="fill:none;stroke:#27AAE1;opacity:1;stroke-width:0.5;" x1="263" x2="3036" y1="696" y2="696"/>
  <line id="Capline-S" style="fill:none;stroke:#27AAE1;opacity:1;stroke-width:0.5;" x1="263" x2="3036" y1="625.541" y2="625.541"/>
  <g id="H-reference" style="fill:#27AAE1;stroke:none;" transform="matrix(1 0 0 1 339 1126)">
   <path d="M0.993347 0L3.6377 0L29.3282-67.1326L30.0301-67.1326L30.0301-70.459L28.1227-70.459ZM11.6882-24.4797L46.9818-24.4797L46.2311-26.7288L12.4382-26.7288ZM55.1193 0L57.7637 0L30.6381-70.459L29.4327-70.459L29.4327-67.1326Z"/>
  </g>
  <line id="Baseline-M" style="fill:none;stroke:#27AAE1;opacity:1;stroke-width:0.5;" x1="263" x2="3036" y1="1126" y2="1126"/>
  <line id="Capline-M" style="fill:none;stroke:#27AAE1;opacity:1;stroke-width:0.5;" x1="263" x2="3036" y1="1055.54" y2="1055.54"/>
  <g id="H-reference" style="fill:#27AAE1;stroke:none;" transform="matrix(1 0 0 1 339 1556)">
   <path d="M0.993347 0L3.6377 0L29.3282-67.1326L30.0301-67.1326L30.0301-70.459L28.1227-70.459ZM11.6882-24.4797L46.9818-24.4797L46.2311-26.7288L12.4382-26.7288ZM55.1193 0L57.7637 0L30.6381-70.459L29.4327-70.459L29.4327-67.1326Z"/>
  </g>
  <line id="Baseline-L" style="fill:none;stroke:#27AAE1;opacity:1;stroke-width:0.5;" x1="263" x2="3036" y1="1556" y2="1556"/>
  <line id="Capline-L" style="fill:none;stroke:#27AAE1;opacity:1;stroke-width:0.5;" x1="263" x2="3036" y1="1485.54" y2="1485.54"/>
  <line id="left-margin-Ultralight-S" style="fill:none;stroke:#00AEEF;stroke-width:0.5;opacity:1.0;" x1="516.112" x2="516.112" y1="600.784" y2="720.121"/>
  <line id="right-margin-Ultralight-S" style="fill:none;stroke:#00AEEF;stroke-width:0.5;opacity:1.0;" x1="603.311" x2="603.311" y1="600.784" y2="720.121"/>
  <line id="left-margin-Regular-S" style="fill:none;stroke:#00AEEF;stroke-width:0.5;opacity:1.0;" x1="1403.84" x2="1403.84" y1="600.784" y2="720.121"/>
  <line id="right-margin-Regular-S" style="fill:none;stroke:#00AEEF;stroke-width:0.5;opacity:1.0;" x1="1495.85" x2="1495.85" y1="600.784" y2="720.121"/>
  <line id="left-margin-Black-S" style="fill:none;stroke:#00AEEF;stroke-width:0.5;opacity:1.0;" x1="2884.65" x2="2884.65" y1="600.784" y2="720.121"/>
  <line id="right-margin-Black-S" style="fill:none;stroke:#00AEEF;stroke-width:0.5;opacity:1.0;" x1="2982.15" x2="2982.15" y1="600.784" y2="720.121"/>
 </g>
 <g id="Symbols">
  <g id="Black-S" transform="matrix(1 0 0 1 2884.65 696)">
   <path class="hierarchical-0:secondary SFSymbolsPreview4D4D4D" d="M48.8281 6.78711C54.6224 6.78711 60.0504 5.69661 65.1123 3.51562C70.1742 1.33463 74.6338-1.68457 78.4912-5.54199C82.3486-9.3994 85.3678-13.859 87.5488-18.9209C89.7298-23.9828 90.8203-29.4108 90.8203-35.2051C90.8203-40.9994 89.7298-46.4274 87.5488-51.4893C85.3678-56.5511 82.3486-61.0107 78.4912-64.8682C74.6338-68.7256 70.1742-71.7448 65.1123-73.9258C60.0504-76.1068 54.6224-77.1973 48.8281-77.1973C43.0338-77.1973 37.6058-76.1068 32.5439-73.9258C27.4821-71.7448 23.0225-68.7256 19.165-64.8682C15.3076-61.0107 12.2884-56.5511 10.1074-51.4893C7.92643-46.4274 6.83594-40.9994 6.83594-35.2051C6.83594-29.4108 7.92643-23.9828 10.1074-18.9209C12.2884-13.859 15.3076-9.3994 19.165-5.54199C23.0225-1.68457 27.4821 1.33463 32.5439 3.51562C37.6058 5.69661 43.0338 6.78711 48.8281 6.78711ZM48.8281-7.37305C44.987-7.37305 41.3818-8.09733 38.0127-9.5459C34.6436-10.9945 31.6895-12.9883 29.1504-15.5273C26.6113-18.0664 24.6175-21.0205 23.1689-24.3896C21.7204-27.7588 20.9961-31.364 20.9961-35.2051C20.9961-39.0462 21.7204-42.6514 23.1689-46.0205C24.6175-49.3896 26.6113-52.3437 29.1504-54.8828C31.6895-57.4219 34.6436-59.4157 38.0127-60.8643C41.3818-62.3128 44.987-63.0371 48.8281-63.0371C52.6692-63.0371 56.2744-62.3128 59.6436-60.8643C63.0127-59.4157 65.9668-57.4219 68.5059-54.8828C71.045-52.3437 73.0388-49.3896 74.4873-46.0205C75.9359-42.6514 76.6602-39.0462 76.6602-35.2051C76.6602-31.364 75.9359-27.7588 74.4873-24.3896C73.0388-21.0205 71.045-18.0664 68.5059-15.5273C65.9668-12.9883 63.0127-10.9945 59.6436-9.5459C56.2744-8.09733 52.6692-7.37305 48.8281-7.37305Z"/>
   <path class="hierarchical-1:primary SFSymbolsPreview212121" d="M27.013-37.109C27.6696-35.5721 28.5797-34.2217 29.7436-33.0578C30.9075-31.8939 32.2579-30.9837 33.7948-30.3272C35.3317-29.6707 36.9806-29.3424 38.7413-29.3424C41.0392-29.3424 43.1543-29.9318 45.0867-31.1106C47.019-32.2894 48.6267-33.9904 49.91-36.2138L52.6183-33.5055C53.1555-32.9683 53.797-32.7035 54.5431-32.7109C55.2893-32.7184 55.9308-32.9833 56.468-33.5055L59.7134-36.7285L61.7055-34.7589C62.2576-34.2218 62.9028-33.9494 63.6415-33.942C64.3801-33.9345 65.018-34.1993 65.5552-34.7365L70.9716-40.153C71.4342-40.6156 71.6656-41.1565 71.6656-41.7757C71.6656-42.3949 71.479-42.921 71.106-43.3537L68.0843-46.8677C67.7859-47.2109 67.4166-47.4608 66.9765-47.6174C66.5363-47.7741 66.1073-47.8524 65.6895-47.8524L50.1338-47.8524C49.0446-50.0012 47.4778-51.6985 45.4335-52.9444C43.3893-54.1904 41.1586-54.8134 38.7413-54.8134C36.9806-54.8134 35.3317-54.4851 33.7948-53.8285C32.2579-53.172 30.9075-52.2618 29.7436-51.0979C28.5797-49.934 27.6696-48.5837 27.013-47.0467C26.3565-45.5098 26.0281-43.8535 26.0281-42.0779C26.0281-40.3022 26.3565-38.646 27.013-37.109ZM35.5071-40.0075C34.9325-39.4331 34.2425-39.1458 33.4367-39.1458C32.6309-39.1458 31.9408-39.4331 31.3663-40.0075C30.7919-40.582 30.5047-41.2722 30.5047-42.0779C30.5047-42.8837 30.7881-43.5737 31.3551-44.1482C31.9222-44.7227 32.616-45.01 33.4367-45.01C34.2425-45.01 34.9325-44.7227 35.5071-44.1482C36.0815-43.5737 36.3687-42.8837 36.3687-42.0779C36.3687-41.2722 36.0815-40.582 35.5071-40.0075ZM56.0881-14.3935L56.0881-28.4853L61.2736-28.4853C62.6344-28.4853 63.6969-28.1762 64.4621-27.5575C65.2272-26.9389 65.6095-26.0795 65.6095-24.9794C65.6095-24.4716 65.5007-24.0014 65.2824-23.5683C65.0641-23.1352 64.7634-22.7772 64.3791-22.494C63.9948-22.2108 63.5588-22.0268 63.0705-21.9423L63.0705-21.786C63.6955-21.7338 64.2487-21.558 64.7306-21.2587C65.2126-20.9594 65.5915-20.5619 65.8683-20.0673C66.1452-19.5727 66.2834-19.0189 66.2834-18.4071C66.2834-17.1703 65.8473-16.1918 64.9748-15.4726C64.1022-14.7533 62.9108-14.3935 61.4006-14.3935L56.0881-14.3935ZM36.5666-28.4853C37.5563-28.4853 38.4123-28.2885 39.1349-27.8944C39.8576-27.5004 40.4157-26.9437 40.8097-26.2245C41.2038-25.5053 41.4006-24.6537 41.4006-23.6708C41.4006-22.6879 41.1969-21.8383 40.7902-21.122C40.3835-20.4057 39.8073-19.8524 39.0617-19.4618C38.3161-19.0712 37.4391-18.8759 36.4299-18.8759L34.1838-18.8759L34.1838-14.3935L31.4103-14.3935L31.4103-28.4853L36.5666-28.4853ZM50.3263-17.372C50.7497-17.8798 50.9611-18.6059 50.9611-19.5497L50.9611-28.4853L53.7443-28.4853L53.7443-19.3739C53.7443-17.7201 53.2839-16.4296 52.3625-15.5019C51.4411-14.5741 50.154-14.1103 48.5002-14.1103C46.8464-14.1103 45.5592-14.5741 44.6379-15.5019C43.7165-16.4296 43.256-17.7201 43.256-19.3739L43.256-28.4853L46.0392-28.4853L46.0392-19.5497C46.0392-18.6059 46.2507-17.8798 46.674-17.372C47.0973-16.8642 47.7057-16.6103 48.5002-16.6103C49.2946-16.6103 49.903-16.8642 50.3263-17.372ZM34.1838-21.1415L35.8634-21.1415C36.7751-21.1415 37.4567-21.3515 37.9093-21.7714C38.362-22.1913 38.5881-22.8275 38.5881-23.6806C38.5881-24.5204 38.362-25.1503 37.9093-25.5702C37.4567-25.9901 36.7751-26.2001 35.8634-26.2001L34.1838-26.2001L34.1838-21.1415ZM60.5412-16.5712C61.5114-16.5712 62.2292-16.7406 62.6945-17.079C63.1598-17.4174 63.3927-17.9418 63.3927-18.6513C63.3927-19.9926 62.4357-20.663 60.5217-20.663L58.8029-20.663L58.8029-16.5712L60.5412-16.5712ZM58.8029-22.6845L60.4045-22.6845C61.1725-22.6845 61.7668-22.8422 62.1867-23.1581C62.6066-23.474 62.8166-23.9149 62.8166-24.4813C62.8166-25.0868 62.6198-25.5492 62.2258-25.8681C61.8317-26.1869 61.2638-26.3466 60.5217-26.3466L58.8029-26.3466L58.8029-22.6845Z"/>
  </g>
  <g id="Regular-S" transform="matrix(1 0 0 1 1403.84 696)">
   <path class="hierarchical-0:secondary SFSymbolsPreview4D4D4D" d="M46.2403 4.15039C51.6439 4.15039 56.7221 3.125 61.4747 1.07422C66.2273-0.97656 70.4184-3.82487 74.048-7.4707C77.6775-11.1166 80.5258-15.3158 82.5928-20.0684C84.6599-24.821 85.6935-29.8828 85.6935-35.2539C85.6935-40.625 84.6599-45.6868 82.5928-50.4395C80.5258-55.1921 77.6693-59.3913 74.0235-63.0371C70.3777-66.683 66.1785-69.5313 61.4259-71.582C56.6733-73.6328 51.5951-74.6582 46.1915-74.6582C40.8204-74.6582 35.7586-73.6328 31.006-71.582C26.2534-69.5313 22.0704-66.683 18.4571-63.0371C14.8438-59.3913 12.0036-55.1921 9.9366-50.4395C7.86955-45.6868 6.83602-40.625 6.83602-35.2539C6.83602-29.8828 7.86955-24.821 9.9366-20.0684C12.0036-15.3158 14.8519-11.1166 18.4815-7.4707C22.1111-3.82487 26.3022-0.97656 31.0548 1.07422C35.8074 3.125 40.8692 4.15039 46.2403 4.15039ZM46.2403-3.27148C41.8132-3.27148 37.671-4.09342 33.8136-5.7373C29.9561-7.38118 26.5707-9.66798 23.6573-12.5977C20.7439-15.5274 18.4652-18.929 16.8214-22.8027C15.1775-26.6764 14.3556-30.8268 14.3556-35.2539C14.3556-39.681 15.1694-43.8314 16.797-47.7051C18.4246-51.5788 20.6951-54.9805 23.6085-57.9102C26.5219-60.8399 29.9073-63.1266 33.7647-64.7705C37.6221-66.4144 41.7644-67.2363 46.1915-67.2363C50.6511-67.2363 54.8097-66.4144 58.6671-64.7705C62.5245-63.1266 65.918-60.8399 68.8478-57.9102C71.7774-54.9805 74.0723-51.5788 75.7325-47.7051C77.3927-43.8314 78.2228-39.681 78.2228-35.2539C78.2228-30.8268 77.4008-26.6764 75.7569-22.8027C74.113-18.929 71.8344-15.5274 68.921-12.5977C66.0076-9.66798 62.614-7.38118 58.7403-5.7373C54.8666-4.09342 50.6999-3.27148 46.2403-3.27148Z"/>
   <path class="hierarchical-1:primary SFSymbolsPreview212121" d="M20.601-36.3713C21.3137-34.6901 22.3051-33.2144 23.5751-31.9443C24.8452-30.6743 26.3163-29.6784 27.9883-28.9565C29.6604-28.2347 31.4559-27.8738 33.3747-27.8738C36.3351-27.8738 38.9986-28.7692 41.3652-30.5601C43.7317-32.351 45.5819-34.9002 46.916-38.2079L52.6449-32.5611C52.9008-32.3053 53.184-32.1728 53.4947-32.1637C53.8054-32.1545 54.0703-32.2687 54.2896-32.5063L60.046-38.2627L64.1851-34.0687C64.4227-33.8312 64.6968-33.7124 65.0075-33.7124C65.3181-33.7124 65.6014-33.8312 65.8572-34.0687L72.7375-40.949C72.9751-41.1866 73.0756-41.4744 73.039-41.8125C73.0025-42.1506 72.902-42.411 72.7375-42.5937L69.0644-46.212C68.8451-46.413 68.6258-46.5638 68.4065-46.6643C68.1872-46.7648 67.9314-46.8151 67.639-46.8151L46.3677-46.8151C45.3261-49.5197 43.6266-51.6715 41.2692-53.2704C38.9118-54.8694 36.2803-55.6689 33.3747-55.6689C31.4559-55.6689 29.6604-55.3126 27.9883-54.5999C26.3163-53.8872 24.8452-52.8958 23.5751-51.6257C22.3051-50.3557 21.3137-48.8801 20.601-47.1988C19.8883-45.5176 19.532-43.7084 19.532-41.7713C19.532-39.8526 19.8883-38.0526 20.601-36.3713ZM31.6204-39.0439C30.8711-38.2855 29.9574-37.9064 28.8793-37.9064C27.8193-37.9064 26.9102-38.2855 26.1518-39.0439C25.3934-39.8023 25.0142-40.7114 25.0142-41.7713C25.0142-42.8495 25.3888-43.7633 26.1381-44.5125C26.8873-45.2617 27.8011-45.6364 28.8793-45.6364C29.9574-45.6364 30.8711-45.2572 31.6204-44.4988C32.3696-43.7404 32.7442-42.8312 32.7442-41.7713C32.7442-40.7114 32.3696-39.8023 31.6204-39.0439ZM55.0141-10.9285L55.0141-25.0203L59.5746-25.0203C60.8769-25.0203 61.8954-24.7127 62.6313-24.0974C63.3671-23.4822 63.7348-22.6277 63.7348-21.534C63.7348-21.013 63.6322-20.5344 63.4272-20.0984C63.2221-19.6624 62.9374-19.301 62.5727-19.0144C62.2079-18.7278 61.788-18.5393 61.3129-18.448L61.3129-18.3113C61.9442-18.2464 62.4945-18.0608 62.9633-17.7547C63.432-17.4485 63.7968-17.0481 64.057-16.5535C64.3173-16.0589 64.4477-15.4954 64.4477-14.864C64.4477-13.6336 64.0214-12.6702 63.1684-11.9734C62.3153-11.2766 61.1337-10.9285 59.6234-10.9285L55.0141-10.9285ZM35.0727-25.0203C35.9843-25.0203 36.7782-24.8333 37.4555-24.4588C38.1327-24.0842 38.6581-23.5589 39.0326-22.8816C39.4071-22.2044 39.5942-21.4104 39.5942-20.4988C39.5942-19.594 39.4052-18.803 39.0277-18.1258C38.6503-17.4485 38.1195-16.9231 37.4359-16.5486C36.7524-16.1741 35.9516-15.9871 35.0336-15.9871L32.1137-15.9871L32.1137-10.9285L30.3852-10.9285L30.3852-25.0203L35.0727-25.0203ZM49.3891-13.2283C49.9555-13.8694 50.2387-14.7727 50.2387-15.9383L50.2387-25.0203L51.9574-25.0203L51.9574-15.8211C51.9574-14.1936 51.5194-12.9221 50.644-12.0076C49.7685-11.093 48.5526-10.6355 46.9965-10.6355C45.4403-10.6355 44.2245-11.093 43.349-12.0076C42.4735-12.9221 42.0356-14.1936 42.0356-15.8211L42.0356-25.0203L43.7543-25.0203L43.7543-15.9383C43.7543-14.7727 44.0375-13.8694 44.6039-13.2283C45.1703-12.5872 45.9677-12.2664 46.9965-12.2664C48.0253-12.2664 48.8227-12.5872 49.3891-13.2283ZM32.1137-17.5203L34.643-17.5203C35.6718-17.5203 36.4628-17.7776 37.016-18.2918C37.5692-18.8059 37.8461-19.5418 37.8461-20.4988C37.8461-21.4558 37.5692-22.1931 37.016-22.7107C36.4628-23.2283 35.6718-23.4871 34.643-23.4871L32.1137-23.4871L32.1137-17.5203ZM59.2524-12.4226C60.372-12.4226 61.2201-12.6389 61.7963-13.072C62.3725-13.5051 62.6606-14.1414 62.6606-14.9812C62.6606-16.6673 61.5048-17.5105 59.1938-17.5105L56.7231-17.5105L56.7231-12.4226L59.2524-12.4226ZM56.7231-18.9363L58.9203-18.9363C59.9228-18.9363 60.6864-19.1331 61.2104-19.5271C61.7343-19.9212 61.9965-20.489 61.9965-21.2312C61.9965-21.9671 61.7524-22.5349 61.2641-22.9353C60.7758-23.3357 60.0824-23.5359 59.184-23.5359L56.7231-23.5359L56.7231-18.9363Z"/>
  </g>
  <g id="Ultralight-S" transform="matrix(1 0 0 1 516.112 696)">
   <path class="hierarchical-0:secondary SFSymbolsPreview4D4D4D" d="M44.0605 1.97067C49.1915 1.97067 53.9971 1.00581 58.4774-0.92392C62.9577-2.85365 66.9141-5.53551 70.3468-8.9695C73.7795-12.4035 76.4614-16.3605 78.3924-20.8405C80.3234-25.3204 81.2889-30.1249 81.2889-35.2539C81.2889-40.3829 80.3234-45.1874 78.3924-49.6674C76.4614-54.1473 73.779-58.1043 70.3453-61.5383C66.9116-64.9723 62.9546-67.6542 58.4743-69.5839C53.9941-71.5136 49.1885-72.4785 44.0575-72.4785C38.9285-72.4785 34.1164-71.5136 29.6211-69.5839C25.1259-67.6542 21.1699-64.9723 17.7532-61.5383C14.3365-58.1043 11.6628-54.1473 9.73206-49.6674C7.80131-45.1874 6.83594-40.3829 6.83594-35.2539C6.83594-30.1249 7.80131-25.3204 9.73206-20.8405C11.6628-16.3605 14.337-12.4035 17.7547-8.9695C21.1724-5.53551 25.1289-2.85365 29.6242-0.92392C34.1194 1.00581 38.9315 1.97067 44.0605 1.97067ZM44.0605-0.274658C39.2398-0.274658 34.7115-1.17976 30.4756-2.98996C26.2398-4.80016 22.5214-7.30641 19.3203-10.5087C16.1192-13.711 13.606-17.4306 11.7805-21.6675C9.95507-25.9044 9.04236-30.4332 9.04236-35.2539C9.04236-40.0746 9.95458-44.6034 11.779-48.8403C13.6035-53.0772 16.1162-56.7968 19.3172-59.9991C22.5183-63.2014 26.2367-65.7077 30.4726-67.5179C34.7084-69.3281 39.2367-70.2332 44.0575-70.2332C48.8803-70.2332 53.4096-69.3281 57.6454-67.5179C61.8813-65.7077 65.6002-63.2014 68.8023-59.9991C72.0043-56.7968 74.5111-53.0772 76.3226-48.8403C78.1341-44.6034 79.0398-40.0746 79.0398-35.2539C79.0398-30.4332 78.1347-25.9044 76.3245-21.6675C74.5143-17.4306 72.0087-13.711 68.8076-10.5087C65.6065-7.30641 61.8875-4.80016 57.6504-2.98996C53.4133-1.17976 48.8833-0.274658 44.0605-0.274658Z"/>
   <path class="hierarchical-1:primary SFSymbolsPreview212121" d="M14.745-34.9926C15.554-33.0828 16.6829-31.4034 18.1318-29.9545C19.5806-28.5057 21.2544-27.3765 23.153-26.5668C25.0516-25.7571 27.0907-25.3523 29.2704-25.3523C32.765-25.3523 35.8914-26.4417 38.6494-28.6207C41.4075-30.7996 43.5397-33.9317 45.046-38.017L52.4237-30.646C52.5913-30.4788 52.7818-30.3948 52.9952-30.3939C53.2087-30.393 53.3872-30.4547 53.5306-30.579L60.7241-37.8348L66.065-32.4582C66.2305-32.313 66.4149-32.2405 66.6182-32.2405C66.8215-32.2405 67.0068-32.313 67.174-32.4582L75.1801-40.4644C75.3875-40.6717 75.4844-40.8937 75.471-41.1304C75.4576-41.3671 75.3503-41.5868 75.1492-41.7896L71.0011-45.9011C70.7955-46.1053 70.5795-46.2481 70.3529-46.3294C70.1264-46.4107 69.9071-46.4514 69.6952-46.4514L44.1579-46.4514C43.0297-49.6332 41.1076-52.1704 38.3918-54.063C35.676-55.9555 32.6355-56.9018 29.2704-56.9018C27.0907-56.9018 25.0464-56.4973 23.1373-55.6883C21.2282-54.8793 19.5544-53.7504 18.1161-52.3015C16.6777-50.8527 15.554-49.1785 14.745-47.279C13.936-45.3795 13.5315-43.3287 13.5315-41.1267C13.5315-38.9471 13.936-36.9024 14.745-34.9926ZM27.7336-38.0262C26.8696-37.1718 25.8304-36.7446 24.616-36.7446C23.4242-36.7446 22.3959-37.1718 21.5311-38.0262C20.6662-38.8805 20.2338-39.914 20.2338-41.1267C20.2338-42.3412 20.6607-43.3752 21.5143-44.2289C22.368-45.0826 23.4019-45.5094 24.616-45.5094C25.8304-45.5094 26.8696-45.0821 27.7336-44.2276C28.5976-43.373 29.0296-42.3394 29.0296-41.1267C29.0296-39.914 28.5976-38.8805 27.7336-38.0262ZM52.2314-8.40699L52.2314-22.4988L56.5673-22.4988C57.85-22.4988 58.8524-22.1912 59.5751-21.5759C60.2978-20.9607 60.6591-20.1096 60.6591-19.0222C60.6591-18.4949 60.558-18.0129 60.3564-17.5769C60.1547-17.1409 59.8744-16.7776 59.5165-16.488C59.1586-16.1985 58.745-16.0081 58.2763-15.9168L58.2763-15.7898C58.9145-15.718 59.4643-15.5276 59.9267-15.2185C60.3891-14.9094 60.747-14.5056 61.0009-14.0076C61.2548-13.5095 61.3817-12.9417 61.3817-12.3035C61.3817-11.073 60.9604-10.116 60.1171-9.43238C59.2738-8.74878 58.0941-8.40699 56.5771-8.40699L52.2314-8.40699ZM32.1337-22.4988C33.019-22.4988 33.7924-22.3167 34.453-21.9519C35.1137-21.5872 35.6283-21.0764 35.996-20.4187C36.3637-19.761 36.5478-18.9929 36.5478-18.114C36.5478-17.2415 36.3637-16.4749 35.996-15.8142C35.6283-15.1536 35.1137-14.6409 34.453-14.2761C33.7924-13.9114 33.019-13.7293 32.1337-13.7293L28.9599-13.7293L28.9599-8.40699L27.622-8.40699L27.622-22.4988L32.1337-22.4988ZM46.6601-10.3992C47.2816-11.1023 47.5927-12.0823 47.5927-13.3386L47.5927-22.4988L48.9208-22.4988L48.9208-13.2507C48.9208-11.6492 48.4897-10.3928 47.6269-9.48121C46.7641-8.56959 45.5746-8.11402 44.0575-8.11402C42.5404-8.11402 41.351-8.56959 40.4882-9.48121C39.6254-10.3928 39.1942-11.6492 39.1942-13.2507L39.1942-22.4988L40.5224-22.4988L40.5224-13.3386C40.5224-12.0823 40.8334-11.1023 41.455-10.3992C42.0766-9.69605 42.9442-9.34449 44.0575-9.34449C45.1708-9.34449 46.0385-9.69605 46.6601-10.3992ZM28.9599-14.9207L31.8114-14.9207C32.8793-14.9207 33.7094-15.2004 34.3017-15.7605C34.894-16.3206 35.1903-17.1047 35.1903-18.114C35.1903-19.1233 34.894-19.9075 34.3017-20.4675C33.7094-21.0276 32.8793-21.3074 31.8114-21.3074L28.9599-21.3074L28.9599-14.9207ZM56.3915-9.58863C57.5697-9.58863 58.4682-9.82642 59.0868-10.3015C59.7055-10.7766 60.0146-11.467 60.0146-12.3718C60.0146-14.2078 58.7841-15.1257 56.3232-15.1257L53.5692-15.1257L53.5692-9.58863L56.3915-9.58863ZM53.5692-16.2878L55.9911-16.2878C57.0785-16.2878 57.9037-16.5027 58.4667-16.9324C59.0297-17.3621 59.3114-17.9871 59.3114-18.8074C59.3114-19.6018 59.0492-20.2185 58.5253-20.658C58.0014-21.0974 57.2641-21.3171 56.3134-21.3171L53.5692-21.3171L53.5692-16.2878Z"/>
  </g>
 </g>
</svg>
