<?xml version="1.0" encoding="UTF-8"?>
<!--Generator: Apple Native CoreSVG 175-->
<!DOCTYPE svg
PUBLIC "-//W3C//DTD SVG 1.1//EN"
       "http://www.w3.org/Graphics/SVG/1.1/DTD/svg11.dtd">
<svg version="1.1" xmlns="http://www.w3.org/2000/svg" xmlns:xlink="http://www.w3.org/1999/xlink" width="3300" height="2200">
 <!--glyph: "", point size: 100.0, font version: "17.1d1e1", template writer version: "65.1"-->
 <g id="Notes">
  <rect height="2200" id="artboard" style="fill:white;opacity:1" width="3300" x="0" y="0"/>
  <line style="fill:none;stroke:black;opacity:1;stroke-width:0.5;" x1="263" x2="3036" y1="292" y2="292"/>
  <text style="stroke:none;fill:black;font-family:sans-serif;font-size:13;font-weight:bold;" transform="matrix(1 0 0 1 263 322)">Weight/Scale Variations</text>
  <text style="stroke:none;fill:black;font-family:sans-serif;font-size:13;text-anchor:middle;" transform="matrix(1 0 0 1 559.711 322)">Ultralight</text>
  <text style="stroke:none;fill:black;font-family:sans-serif;font-size:13;text-anchor:middle;" transform="matrix(1 0 0 1 856.422 322)">Thin</text>
  <text style="stroke:none;fill:black;font-family:sans-serif;font-size:13;text-anchor:middle;" transform="matrix(1 0 0 1 1153.13 322)">Light</text>
  <text style="stroke:none;fill:black;font-family:sans-serif;font-size:13;text-anchor:middle;" transform="matrix(1 0 0 1 1449.84 322)">Regular</text>
  <text style="stroke:none;fill:black;font-family:sans-serif;font-size:13;text-anchor:middle;" transform="matrix(1 0 0 1 1746.56 322)">Medium</text>
  <text style="stroke:none;fill:black;font-family:sans-serif;font-size:13;text-anchor:middle;" transform="matrix(1 0 0 1 2043.27 322)">Semibold</text>
  <text style="stroke:none;fill:black;font-family:sans-serif;font-size:13;text-anchor:middle;" transform="matrix(1 0 0 1 2339.98 322)">Bold</text>
  <text style="stroke:none;fill:black;font-family:sans-serif;font-size:13;text-anchor:middle;" transform="matrix(1 0 0 1 2636.69 322)">Heavy</text>
  <text style="stroke:none;fill:black;font-family:sans-serif;font-size:13;text-anchor:middle;" transform="matrix(1 0 0 1 2933.4 322)">Black</text>
  <line style="fill:none;stroke:black;opacity:1;stroke-width:0.5;" x1="263" x2="3036" y1="1903" y2="1903"/>
  <g transform="matrix(1 0 0 1 263 1933)">
   <path d="M9.24805 0.830078Q10.8691 0.830078 12.2949 0.214844Q13.7207-0.400391 14.8096-1.49414Q15.8984-2.58789 16.5186-4.01367Q17.1387-5.43945 17.1387-7.05078Q17.1387-8.66211 16.5186-10.0879Q15.8984-11.5137 14.8047-12.6074Q13.7109-13.7012 12.2852-14.3164Q10.8594-14.9316 9.23828-14.9316Q7.62695-14.9316 6.20117-14.3164Q4.77539-13.7012 3.69141-12.6074Q2.60742-11.5137 1.9873-10.0879Q1.36719-8.66211 1.36719-7.05078Q1.36719-5.43945 1.9873-4.01367Q2.60742-2.58789 3.69629-1.49414Q4.78516-0.400391 6.21094 0.214844Q7.63672 0.830078 9.24805 0.830078ZM9.24805-0.654297Q7.91992-0.654297 6.7627-1.14746Q5.60547-1.64062 4.73145-2.51953Q3.85742-3.39844 3.36426-4.56055Q2.87109-5.72266 2.87109-7.05078Q2.87109-8.37891 3.35938-9.54102Q3.84766-10.7031 4.72168-11.582Q5.5957-12.4609 6.75293-12.9541Q7.91016-13.4473 9.23828-13.4473Q10.5762-13.4473 11.7334-12.9541Q12.8906-12.4609 13.7695-11.582Q14.6484-10.7031 15.1465-9.54102Q15.6445-8.37891 15.6445-7.05078Q15.6445-5.72266 15.1514-4.56055Q14.6582-3.39844 13.7842-2.51953Q12.9102-1.64062 11.748-1.14746Q10.5859-0.654297 9.24805-0.654297ZM5.6543-7.05078Q5.6543-6.72852 5.85938-6.52832Q6.06445-6.32812 6.40625-6.32812L8.51562-6.32812L8.51562-4.20898Q8.51562-3.88672 8.71094-3.67676Q8.90625-3.4668 9.23828-3.4668Q9.56055-3.4668 9.77051-3.67676Q9.98047-3.88672 9.98047-4.20898L9.98047-6.32812L12.0898-6.32812Q12.4219-6.32812 12.627-6.52832Q12.832-6.72852 12.832-7.05078Q12.832-7.38281 12.627-7.58789Q12.4219-7.79297 12.0898-7.79297L9.98047-7.79297L9.98047-9.90234Q9.98047-10.2344 9.77051-10.4443Q9.56055-10.6543 9.23828-10.6543Q8.90625-10.6543 8.71094-10.4443Q8.51562-10.2344 8.51562-9.90234L8.51562-7.79297L6.40625-7.79297Q6.06445-7.79297 5.85938-7.58789Q5.6543-7.38281 5.6543-7.05078Z"/>
  </g>
  <g transform="matrix(1 0 0 1 281.867 1933)">
   <path d="M11.709 2.91016Q13.75 2.91016 15.5518 2.12891Q17.3535 1.34766 18.7305-0.0292969Q20.1074-1.40625 20.8887-3.20801Q21.6699-5.00977 21.6699-7.05078Q21.6699-9.0918 20.8887-10.8936Q20.1074-12.6953 18.7305-14.0723Q17.3535-15.4492 15.5469-16.2305Q13.7402-17.0117 11.6992-17.0117Q9.6582-17.0117 7.85645-16.2305Q6.05469-15.4492 4.68262-14.0723Q3.31055-12.6953 2.5293-10.8936Q1.74805-9.0918 1.74805-7.05078Q1.74805-5.00977 2.5293-3.20801Q3.31055-1.40625 4.6875-0.0292969Q6.06445 1.34766 7.86621 2.12891Q9.66797 2.91016 11.709 2.91016ZM11.709 1.25Q9.98047 1.25 8.47656 0.605469Q6.97266-0.0390625 5.83496-1.17676Q4.69727-2.31445 4.05762-3.81836Q3.41797-5.32227 3.41797-7.05078Q3.41797-8.7793 4.05762-10.2832Q4.69727-11.7871 5.83008-12.9297Q6.96289-14.0723 8.4668-14.7119Q9.9707-15.3516 11.6992-15.3516Q13.4277-15.3516 14.9316-14.7119Q16.4355-14.0723 17.5781-12.9297Q18.7207-11.7871 19.3652-10.2832Q20.0098-8.7793 20.0098-7.05078Q20.0098-5.32227 19.3701-3.81836Q18.7305-2.31445 17.5928-1.17676Q16.4551-0.0390625 14.9463 0.605469Q13.4375 1.25 11.709 1.25ZM7.17773-7.05078Q7.17773-6.69922 7.41211-6.47461Q7.64648-6.25 8.01758-6.25L10.8887-6.25L10.8887-3.36914Q10.8887-2.99805 11.1133-2.76855Q11.3379-2.53906 11.6895-2.53906Q12.0605-2.53906 12.29-2.76855Q12.5195-2.99805 12.5195-3.36914L12.5195-6.25L15.4004-6.25Q15.7715-6.25 16.001-6.47461Q16.2305-6.69922 16.2305-7.05078Q16.2305-7.42188 16.001-7.65137Q15.7715-7.88086 15.4004-7.88086L12.5195-7.88086L12.5195-10.752Q12.5195-11.1328 12.29-11.3623Q12.0605-11.5918 11.6895-11.5918Q11.3379-11.5918 11.1133-11.3574Q10.8887-11.123 10.8887-10.752L10.8887-7.88086L8.01758-7.88086Q7.63672-7.88086 7.40723-7.65137Q7.17773-7.42188 7.17773-7.05078Z"/>
  </g>
  <g transform="matrix(1 0 0 1 305.646 1933)">
   <path d="M14.9707 5.66406Q17.0605 5.66406 18.96 5.01465Q20.8594 4.36523 22.4512 3.19336Q24.043 2.02148 25.2197 0.429688Q26.3965-1.16211 27.0459-3.06641Q27.6953-4.9707 27.6953-7.05078Q27.6953-9.14062 27.0459-11.04Q26.3965-12.9395 25.2197-14.5312Q24.043-16.123 22.4512-17.2998Q20.8594-18.4766 18.9551-19.126Q17.0508-19.7754 14.9609-19.7754Q12.8711-19.7754 10.9717-19.126Q9.07227-18.4766 7.48535-17.2998Q5.89844-16.123 4.72168-14.5312Q3.54492-12.9395 2.90039-11.04Q2.25586-9.14062 2.25586-7.05078Q2.25586-4.9707 2.90527-3.06641Q3.55469-1.16211 4.72656 0.429688Q5.89844 2.02148 7.49023 3.19336Q9.08203 4.36523 10.9814 5.01465Q12.8809 5.66406 14.9707 5.66406ZM14.9707 3.84766Q13.1641 3.84766 11.5283 3.2959Q9.89258 2.74414 8.53516 1.74805Q7.17773 0.751953 6.17676-0.610352Q5.17578-1.97266 4.62891-3.6084Q4.08203-5.24414 4.08203-7.05078Q4.08203-8.86719 4.62891-10.5029Q5.17578-12.1387 6.17188-13.501Q7.16797-14.8633 8.52539-15.8594Q9.88281-16.8555 11.5186-17.4023Q13.1543-17.9492 14.9609-17.9492Q16.7773-17.9492 18.4131-17.4023Q20.0488-16.8555 21.4111-15.8594Q22.7734-14.8633 23.7695-13.501Q24.7656-12.1387 25.3174-10.5029Q25.8691-8.86719 25.8691-7.05078Q25.8789-5.24414 25.332-3.6084Q24.7852-1.97266 23.7842-0.610352Q22.7832 0.751953 21.4209 1.74805Q20.0586 2.74414 18.4229 3.2959Q16.7871 3.84766 14.9707 3.84766ZM9.19922-7.05078Q9.19922-6.66992 9.45801-6.4209Q9.7168-6.17188 10.1172-6.17188L14.0625-6.17188L14.0625-2.2168Q14.0625-1.81641 14.3115-1.55762Q14.5605-1.29883 14.9512-1.29883Q15.3516-1.29883 15.6104-1.55273Q15.8691-1.80664 15.8691-2.2168L15.8691-6.17188L19.8242-6.17188Q20.2246-6.17188 20.4785-6.4209Q20.7324-6.66992 20.7324-7.05078Q20.7324-7.46094 20.4785-7.71484Q20.2246-7.96875 19.8242-7.96875L15.8691-7.96875L15.8691-11.9141Q15.8691-12.3242 15.6104-12.583Q15.3516-12.8418 14.9512-12.8418Q14.5605-12.8418 14.3115-12.583Q14.0625-12.3242 14.0625-11.9141L14.0625-7.96875L10.1172-7.96875Q9.70703-7.96875 9.45312-7.71484Q9.19922-7.46094 9.19922-7.05078Z"/>
  </g>
  <text style="stroke:none;fill:black;font-family:sans-serif;font-size:13;font-weight:bold;" transform="matrix(1 0 0 1 263 1953)">Design Variations</text>
  <text style="stroke:none;fill:black;font-family:sans-serif;font-size:13;" transform="matrix(1 0 0 1 263 1971)">Symbols are supported in up to nine weights and three scales.</text>
  <text style="stroke:none;fill:black;font-family:sans-serif;font-size:13;" transform="matrix(1 0 0 1 263 1989)">For optimal layout with text and other symbols, vertically align</text>
  <text style="stroke:none;fill:black;font-family:sans-serif;font-size:13;" transform="matrix(1 0 0 1 263 2007)">symbols with the adjacent text.</text>
  <line style="fill:none;stroke:#00AEEF;stroke-width:0.5;opacity:1.0;" x1="776" x2="776" y1="1919" y2="1933"/>
  <g transform="matrix(1 0 0 1 776 1933)">
   <path d="M3.31055 0.15625Q3.70117 0.15625 3.91602-0.00976562Q4.13086-0.175781 4.26758-0.585938L5.52734-4.0332L11.2891-4.0332L12.5488-0.585938Q12.6855-0.175781 12.9004-0.00976562Q13.1152 0.15625 13.4961 0.15625Q13.8867 0.15625 14.1162-0.0585938Q14.3457-0.273438 14.3457-0.644531Q14.3457-0.869141 14.2383-1.17188L9.6582-13.3691Q9.48242-13.8184 9.17969-14.043Q8.87695-14.2676 8.4082-14.2676Q7.5-14.2676 7.17773-13.3789L2.59766-1.16211Q2.49023-0.859375 2.49023-0.634766Q2.49023-0.263672 2.70996-0.0537109Q2.92969 0.15625 3.31055 0.15625ZM6.00586-5.51758L8.37891-12.0898L8.42773-12.0898L10.8008-5.51758Z"/>
  </g>
  <line style="fill:none;stroke:#00AEEF;stroke-width:0.5;opacity:1.0;" x1="793.197" x2="793.197" y1="1919" y2="1933"/>
  <text style="stroke:none;fill:black;font-family:sans-serif;font-size:13;font-weight:bold;" transform="matrix(1 0 0 1 776 1953)">Margins</text>
  <text style="stroke:none;fill:black;font-family:sans-serif;font-size:13;" transform="matrix(1 0 0 1 776 1971)">Leading and trailing margins on the left and right side of each symbol</text>
  <text style="stroke:none;fill:black;font-family:sans-serif;font-size:13;" transform="matrix(1 0 0 1 776 1989)">can be adjusted by modifying the x-location of the margin guidelines.</text>
  <text style="stroke:none;fill:black;font-family:sans-serif;font-size:13;" transform="matrix(1 0 0 1 776 2007)">Modifications are automatically applied proportionally to all</text>
  <text style="stroke:none;fill:black;font-family:sans-serif;font-size:13;" transform="matrix(1 0 0 1 776 2025)">scales and weights.</text>
  <g transform="matrix(1 0 0 1 1289 1933)">
   <path d="M2.8418 1.86523L4.54102 3.57422Q5.18555 4.22852 5.90332 4.17969Q6.62109 4.13086 7.31445 3.35938L18.0078-8.42773L17.041-9.4043L6.42578 2.27539Q6.16211 2.57812 5.89355 2.61719Q5.625 2.65625 5.27344 2.30469L4.10156 1.14258Q3.75 0.791016 3.79395 0.522461Q3.83789 0.253906 4.14062-0.0195312L15.6152-10.8203L14.6387-11.7871L3.04688-0.898438Q2.30469-0.214844 2.25098 0.498047Q2.19727 1.21094 2.8418 1.86523ZM9.25781-16.3281Q8.94531-16.0254 8.90625-15.6348Q8.86719-15.2441 9.04297-14.9512Q9.21875-14.6777 9.55566-14.541Q9.89258-14.4043 10.3809-14.5215Q11.4746-14.7754 12.5977-14.7314Q13.7207-14.6875 14.7949-13.9844L14.209-12.5293Q13.9551-11.9043 14.0674-11.4404Q14.1797-10.9766 14.5801-10.5664L16.875-8.25195Q17.2363-7.88086 17.5781-7.82227Q17.9199-7.76367 18.3398-7.8418L19.4043-8.03711L20.0684-7.36328L20.0293-6.80664Q20-6.43555 20.1221-6.12305Q20.2441-5.81055 20.6055-5.44922L21.3672-4.70703Q21.7285-4.3457 22.1533-4.33105Q22.5781-4.31641 22.9297-4.66797L25.8398-7.58789Q26.1914-7.93945 26.1816-8.35449Q26.1719-8.76953 25.8105-9.13086L25.0391-9.89258Q24.6875-10.2539 24.3799-10.3857Q24.0723-10.5176 23.7109-10.4883L23.1348-10.4395L22.4902-11.0742L22.7344-12.1973Q22.832-12.6172 22.6953-12.9834Q22.5586-13.3496 22.1191-13.7891L19.9219-15.9766Q18.6719-17.2168 17.2607-17.8369Q15.8496-18.457 14.4189-18.4814Q12.9883-18.5059 11.665-17.959Q10.3418-17.4121 9.25781-16.3281ZM10.752-15.957Q11.6602-16.6211 12.7002-16.9043Q13.7402-17.1875 14.8047-17.085Q15.8691-16.9824 16.8701-16.5137Q17.8711-16.0449 18.7012-15.2051L21.1328-12.793Q21.3086-12.6172 21.3525-12.4512Q21.3965-12.2852 21.3379-12.0312L21.0156-10.5469L22.5195-9.0625L23.5059-9.12109Q23.6914-9.13086 23.7891-9.09668Q23.8867-9.0625 24.0332-8.91602L24.6094-8.33984L22.168-5.89844L21.5918-6.47461Q21.4453-6.62109 21.4062-6.71875Q21.3672-6.81641 21.377-7.01172L21.4453-7.98828L19.9512-9.47266L18.4277-9.21875Q18.1836-9.16992 18.042-9.2041Q17.9004-9.23828 17.7148-9.41406L15.7129-11.416Q15.5176-11.5918 15.4932-11.7529Q15.4688-11.9141 15.5859-12.1875L16.4648-14.2773Q15.293-15.3711 13.8281-15.791Q12.3633-16.2109 10.8398-15.7617Q10.7227-15.7324 10.6885-15.8057Q10.6543-15.8789 10.752-15.957Z"/>
  </g>
  <text style="stroke:none;fill:black;font-family:sans-serif;font-size:13;font-weight:bold;" transform="matrix(1 0 0 1 1289 1953)">Exporting</text>
  <text style="stroke:none;fill:black;font-family:sans-serif;font-size:13;" transform="matrix(1 0 0 1 1289 1971)">Symbols should be outlined when exporting to ensure the</text>
  <text style="stroke:none;fill:black;font-family:sans-serif;font-size:13;" transform="matrix(1 0 0 1 1289 1989)">design is preserved when submitting to Xcode.</text>
  <text id="template-version" style="stroke:none;fill:black;font-family:sans-serif;font-size:13;text-anchor:end;" transform="matrix(1 0 0 1 3036 1933)">Template v.3.0</text>
  <text style="stroke:none;fill:black;font-family:sans-serif;font-size:13;text-anchor:end;" transform="matrix(1 0 0 1 3036 1951)">Requires Xcode 13 or greater</text>
  <text id="descriptive-name" style="stroke:none;fill:black;font-family:sans-serif;font-size:13;text-anchor:end;" transform="matrix(1 0 0 1 3036 1969)">Generated from network.main</text>
  <text style="stroke:none;fill:black;font-family:sans-serif;font-size:13;text-anchor:end;" transform="matrix(1 0 0 1 3036 1987)">Typeset at 100 points</text>
  <text style="stroke:none;fill:black;font-family:sans-serif;font-size:13;" transform="matrix(1 0 0 1 263 726)">Small</text>
  <text style="stroke:none;fill:black;font-family:sans-serif;font-size:13;" transform="matrix(1 0 0 1 263 1156)">Medium</text>
  <text style="stroke:none;fill:black;font-family:sans-serif;font-size:13;" transform="matrix(1 0 0 1 263 1586)">Large</text>
 </g>
 <g id="Guides">
  <g id="H-reference" style="fill:#27AAE1;stroke:none;" transform="matrix(1 0 0 1 339 696)">
   <path d="M0.993347 0L3.6377 0L29.3282-67.1326L30.0301-67.1326L30.0301-70.459L28.1227-70.459ZM11.6882-24.4797L46.9818-24.4797L46.2311-26.7288L12.4382-26.7288ZM55.1193 0L57.7637 0L30.6381-70.459L29.4327-70.459L29.4327-67.1326Z"/>
  </g>
  <line id="Baseline-S" style="fill:none;stroke:#27AAE1;opacity:1;stroke-width:0.5;" x1="263" x2="3036" y1="696" y2="696"/>
  <line id="Capline-S" style="fill:none;stroke:#27AAE1;opacity:1;stroke-width:0.5;" x1="263" x2="3036" y1="625.541" y2="625.541"/>
  <g id="H-reference" style="fill:#27AAE1;stroke:none;" transform="matrix(1 0 0 1 339 1126)">
   <path d="M0.993347 0L3.6377 0L29.3282-67.1326L30.0301-67.1326L30.0301-70.459L28.1227-70.459ZM11.6882-24.4797L46.9818-24.4797L46.2311-26.7288L12.4382-26.7288ZM55.1193 0L57.7637 0L30.6381-70.459L29.4327-70.459L29.4327-67.1326Z"/>
  </g>
  <line id="Baseline-M" style="fill:none;stroke:#27AAE1;opacity:1;stroke-width:0.5;" x1="263" x2="3036" y1="1126" y2="1126"/>
  <line id="Capline-M" style="fill:none;stroke:#27AAE1;opacity:1;stroke-width:0.5;" x1="263" x2="3036" y1="1055.54" y2="1055.54"/>
  <g id="H-reference" style="fill:#27AAE1;stroke:none;" transform="matrix(1 0 0 1 339 1556)">
   <path d="M0.993347 0L3.6377 0L29.3282-67.1326L30.0301-67.1326L30.0301-70.459L28.1227-70.459ZM11.6882-24.4797L46.9818-24.4797L46.2311-26.7288L12.4382-26.7288ZM55.1193 0L57.7637 0L30.6381-70.459L29.4327-70.459L29.4327-67.1326Z"/>
  </g>
  <line id="Baseline-L" style="fill:none;stroke:#27AAE1;opacity:1;stroke-width:0.5;" x1="263" x2="3036" y1="1556" y2="1556"/>
  <line id="Capline-L" style="fill:none;stroke:#27AAE1;opacity:1;stroke-width:0.5;" x1="263" x2="3036" y1="1485.54" y2="1485.54"/>
  <line id="left-margin-Ultralight-S" style="fill:none;stroke:#00AEEF;stroke-width:0.5;opacity:1.0;" x1="515.649" x2="515.649" y1="600.784" y2="720.121"/>
  <line id="right-margin-Ultralight-S" style="fill:none;stroke:#00AEEF;stroke-width:0.5;opacity:1.0;" x1="603.773" x2="603.773" y1="600.784" y2="720.121"/>
  <line id="left-margin-Regular-S" style="fill:none;stroke:#00AEEF;stroke-width:0.5;opacity:1.0;" x1="1403.58" x2="1403.58" y1="600.784" y2="720.121"/>
  <line id="right-margin-Regular-S" style="fill:none;stroke:#00AEEF;stroke-width:0.5;opacity:1.0;" x1="1496.11" x2="1496.11" y1="600.784" y2="720.121"/>
  <line id="left-margin-Black-S" style="fill:none;stroke:#00AEEF;stroke-width:0.5;opacity:1.0;" x1="2884.57" x2="2884.57" y1="600.784" y2="720.121"/>
  <line id="right-margin-Black-S" style="fill:none;stroke:#00AEEF;stroke-width:0.5;opacity:1.0;" x1="2982.23" x2="2982.23" y1="600.784" y2="720.121"/>
 </g>
 <g id="Symbols">
  <g id="Black-S" transform="matrix(1 0 0 1 2884.57 696)">
   <path d="M12.7531 7.71387L8.83611 7.71387L8.83611-15.937L13.6877-15.937L17.5724-2.39893L17.8508-2.39893L21.7023-15.937L26.5705-15.937L26.5705 7.71387L22.6535 7.71387L22.6535-0.0878906L23.2433-9.52881L22.8986-9.52881L19.2765 2.15771L16.1301 2.15771L12.508-9.52881L12.1633-9.52881L12.7531-0.0878906L12.7531 7.71387ZM33.258 7.71387L28.6027 7.71387L35.6994-15.937L41.2072-15.937L48.3039 7.71387L43.2717 7.71387L38.4045-11.2988L38.1906-11.2988L33.258 7.71387ZM42.8625 1.91162L33.7492 1.91162L34.4709-1.69434L41.9767-1.69434L42.8625 1.91162ZM51.9748 7.71387L51.9748 3.71484L56.8762 3.71484L56.8762-11.938L51.9748-11.938L51.9748-15.937L66.4318-15.937L66.4318-11.938L61.5304-11.938L61.5304 3.71484L66.4318 3.71484L66.4318 7.71387L51.9748 7.71387ZM71.6603 7.71387L71.6603-15.937L75.8068-15.937L83.9357-0.21875L84.215-0.21875L84.215-15.937L88.2463-15.937L88.2463 7.71387L84.1164 7.71387L75.9709-8.11914L75.6916-8.11914L75.6916 7.71387L71.6603 7.71387ZM26.084-60.1477C29.1798-56.3288 32.9705-53.3516 37.456-51.2161C41.9416-49.0807 46.6474-48.013 51.5736-48.013C55.6411-48.013 59.5843-48.7417 63.4032-50.1993C67.2222-51.6568 70.657-53.7527 73.7076-56.487L71.0637-61.7069C68.4424-59.063 65.4596-57.0406 62.1152-55.6396C58.7708-54.2385 55.257-53.538 51.5736-53.538C46.9412-53.538 42.6194-54.617 38.6084-56.775C34.5975-58.9331 31.2814-61.9894 28.6601-65.9439L26.084-60.1477ZM22.9656-45.4708C26.4681-42.3524 30.3096-39.8837 34.4901-38.0646C38.6706-36.2455 43.0036-35.0874 47.4892-34.5902C51.9747-34.0931 56.449-34.2739 60.9119-35.1326C65.3749-35.9913 69.6401-37.5392 73.7076-39.7763L73.4703-46.1487C69.6514-43.6179 65.5726-41.8496 61.2339-40.844C56.8952-39.8384 52.534-39.5786 48.1502-40.0645C43.7663-40.5503 39.5519-41.7592 35.507-43.6913C31.4621-45.6234 27.8126-48.2503 24.5587-51.572L22.9656-45.4708ZM36.5239-27.0993L43.0997-25.7096C41.8568-28.3082 40.9134-31.0199 40.2693-33.8446C39.6253-36.6692 39.3033-39.539 39.3033-42.4541C39.3033-46.612 39.936-50.6173 41.2015-54.4701C42.467-58.323 44.2973-61.8933 46.6927-65.1812C49.0879-68.4691 51.9804-71.3446 55.37-73.8077L49.5399-76.2482C46.2181-73.4462 43.3821-70.2486 41.0321-66.6557C38.6819-63.0627 36.8854-59.2155 35.6426-55.1141C34.3997-51.0127 33.7783-46.7927 33.7783-42.4541C33.7783-39.8554 34.0099-37.2737 34.4732-34.7089C34.9364-32.1441 35.62-29.6076 36.5239-27.0993ZM54.9293-24.2859L60.0815-26.6247C57.4376-30.0595 55.4208-33.8107 54.031-37.8781C52.6413-41.9456 51.9465-46.1487 51.9465-50.4874C51.9465-54.5323 52.5566-58.4642 53.7768-62.2831C54.9971-66.102 56.771-69.6385 59.0985-72.8925L53.7091-74.7568C51.3363-71.1638 49.5229-67.2997 48.2688-63.1644C47.0146-59.0291 46.3876-54.8035 46.3876-50.4874C46.3876-45.7646 47.1107-41.1773 48.5569-36.7257C50.0031-32.274 52.1273-28.1275 54.9293-24.2859ZM69.6062-33.7767L73.4364-37.9798C70.3858-39.5842 67.7588-41.6349 65.5556-44.1319C63.3524-46.6289 61.652-49.431 60.4543-52.5381C59.2567-55.6452 58.6578-58.9049 58.6578-62.317C58.6578-66.0004 59.3923-69.6159 60.8611-73.1637L55.5733-74.6551C54.7598-72.7117 54.1497-70.7062 53.7429-68.6386C53.3362-66.571 53.1328-64.4638 53.1328-62.317C53.1328-58.3851 53.7938-54.617 55.1157-51.0127C56.4377-47.4085 58.3302-44.132 60.7933-41.183C63.2564-38.2341 66.194-35.7653 69.6062-33.7767ZM38.1848-48.2164C39.6762-48.2164 40.953-48.7474 42.015-49.8094C43.0771-50.8715 43.6081-52.1483 43.6081-53.6397C43.6081-55.1311 43.0771-56.4079 42.015-57.4699C40.953-58.532 39.6762-59.063 38.1848-59.063C36.6933-59.063 35.411-58.532 34.3376-57.4699C33.2642-56.4079 32.7276-55.1311 32.7276-53.6397C32.7276-52.1483 33.2642-50.8715 34.3376-49.8094C35.411-48.7474 36.6933-48.2164 38.1848-48.2164ZM58.8273-46.0809C60.3639-46.0809 61.6689-46.6176 62.7423-47.691C63.8157-48.7643 64.3523-50.0693 64.3523-51.6059C64.3523-53.1425 63.8157-54.4475 62.7423-55.5209C61.6689-56.5943 60.3639-57.131 58.8273-57.131C57.2907-57.131 55.9857-56.5943 54.9124-55.5209C53.839-54.4475 53.3023-53.1425 53.3023-51.6059C53.3023-50.0693 53.839-48.7643 54.9124-47.691C55.9857-46.6176 57.2907-46.0809 58.8273-46.0809ZM50.794-32.0819C52.3306-32.0819 53.63-32.6243 54.692-33.709C55.7541-34.7936 56.2851-36.093 56.2851-37.607C56.2851-39.1436 55.7484-40.4542 54.6751-41.5389C53.6017-42.6236 52.308-43.1659 50.794-43.1659C49.2348-43.1659 47.9129-42.6236 46.8282-41.5389C45.7435-40.4542 45.2012-39.1436 45.2012-37.607C45.2012-36.093 45.7435-34.7936 46.8282-33.709C47.9129-32.6243 49.2348-32.0819 50.794-32.0819ZM48.828-18.8965C52.8503-18.8965 56.6184-19.6535 60.1323-21.1675C63.6462-22.6815 66.742-24.7774 69.4197-27.4552C72.0975-30.1329 74.1934-33.2288 75.7074-36.7426C77.2214-40.2565 77.9784-44.0246 77.9784-48.0469C77.9784-52.0692 77.2214-55.8373 75.7074-59.3512C74.1934-62.865 72.0975-65.9608 69.4197-68.6386C66.742-71.3164 63.6462-73.4122 60.1323-74.9263C56.6184-76.4403 52.8503-77.1973 48.828-77.1973C44.8057-77.1973 41.0377-76.4403 37.5238-74.9263C34.0099-73.4122 30.9141-71.3164 28.2363-68.6386C25.5586-65.9608 23.4627-62.865 21.9487-59.3512C20.4347-55.8373 19.6777-52.0692 19.6777-48.0469C19.6777-44.0246 20.4347-40.2565 21.9487-36.7426C23.4627-33.2288 25.5586-30.1329 28.2363-27.4552C30.9141-24.7774 34.0099-22.6815 37.5238-21.1675C41.0377-19.6535 44.8057-18.8965 48.828-18.8965ZM48.828-26.3536C45.8452-26.3536 43.0432-26.9185 40.4219-28.0484C37.8006-29.1782 35.4957-30.7374 33.5071-32.726C31.5186-34.7145 29.9594-37.0194 28.8295-39.6407C27.6997-42.262 27.1347-45.0641 27.1347-48.0469C27.1347-51.0297 27.6997-53.8318 28.8295-56.4531C29.9594-59.0743 31.5186-61.3792 33.5071-63.3678C35.4957-65.3564 37.8006-66.9156 40.4219-68.0454C43.0432-69.1753 45.8452-69.7402 48.828-69.7402C51.8109-69.7402 54.6129-69.1753 57.2342-68.0454C59.8555-66.9156 62.1604-65.3564 64.1489-63.3678C66.1375-61.3792 67.6967-59.0743 68.8266-56.4531C69.9564-53.8318 70.5214-51.0297 70.5214-48.0469C70.5214-45.0641 69.9564-42.262 68.8266-39.6407C67.6967-37.0194 66.1375-34.7145 64.1489-32.726C62.1604-30.7374 59.8555-29.1782 57.2342-28.0484C54.6129-26.9185 51.8109-26.3536 48.828-26.3536Z"/>
  </g>
  <g id="Regular-S" transform="matrix(1 0 0 1 1403.58 696)">
   <path d="M10.9767 7.71387L8.52751 7.71387L8.52751-14.7974L11.6008-14.7974L16.5461-0.819336L16.7492-0.819336L21.6633-14.7974L24.7521-14.7974L24.7521 7.71387L22.3029 7.71387L22.3029-0.913086L22.443-10.0239L22.2404-10.0239L17.7165 2.42529L15.5632 2.42529L11.0392-10.0239L10.8366-10.0239L10.9767-0.913086L10.9767 7.71387ZM30.4616 7.71387L27.6691 7.71387L34.9235-14.7974L37.8561-14.7974L45.1105 7.71387L42.2087 7.71387L36.3898-11.5059L36.3117-11.5059L30.4616 7.71387ZM40.8981 1.25537L31.9592 1.25537L32.4587-1.1001L40.4303-1.1001L40.8981 1.25537ZM50.2116 7.71387L50.2116 5.24902L54.7668 5.24902L54.7668-12.3325L50.2116-12.3325L50.2116-14.7974L62.068-14.7974L62.068-12.3325L57.5129-12.3325L57.5129 5.24902L62.068 5.24902L62.068 7.71387L50.2116 7.71387ZM68.4015 7.71387L68.4015-14.7974L71.0383-14.7974L80.6789 2.7373L80.8976 2.7373L80.8976-14.7974L83.3781-14.7974L83.3781 7.71387L80.7726 7.71387L71.1008-9.85205L70.882-9.85205L70.882 7.71387L68.4015 7.71387ZM22.2579-59.8302C25.5997-55.9872 29.5799-53.0095 34.1987-50.897C38.8174-48.7846 43.6928-47.7403 48.8247-47.7641C52.978-47.7641 56.9881-48.4743 60.8549-49.8945C64.7218-51.3148 68.2306-53.3616 71.3814-56.0349L69.5912-59.5438C66.7269-56.9659 63.5164-54.9906 59.9598-53.6181C56.4033-52.2457 52.6916-51.5594 48.8247-51.5594C43.9553-51.5594 39.3485-52.6276 35.0043-54.7639C30.66-56.9002 27.008-59.9018 24.0481-63.7687L22.2579-59.8302ZM18.9997-43.4676C22.6518-40.3168 26.6439-37.8165 30.9762-35.9666C35.3086-34.1168 39.7901-32.9352 44.4208-32.4221C49.0515-31.9088 53.6762-32.0759 58.2949-32.9232C62.9137-33.7706 67.3355-35.3281 71.5604-37.5957L71.3814-41.8923C67.2997-39.4575 62.9972-37.7688 58.4739-36.8259C53.9507-35.8831 49.4095-35.6683 44.8504-36.1815C40.2914-36.6947 35.8875-37.912 31.6387-39.8335C27.3899-41.755 23.5111-44.3627 20.0022-47.6567L18.9997-43.4676ZM33.1424-24.1333L37.6538-23.1666C36.5558-25.7206 35.7323-28.3463 35.1832-31.0436C34.6343-33.7408 34.3478-36.4739 34.324-39.2427C34.2762-43.7063 34.8789-48.0267 36.1321-52.2039C37.3853-56.381 39.2351-60.2837 41.6817-63.9119C44.1283-67.5401 47.0941-70.7505 50.5791-73.5433L46.6765-75.1902C43.1915-72.1588 40.2377-68.7335 37.8149-64.9144C35.3922-61.0953 33.5602-57.0136 32.3189-52.6694C31.0777-48.3251 30.481-43.8495 30.5287-39.2427C30.5287-36.6887 30.7495-34.1466 31.1911-31.6164C31.6327-29.0862 32.2831-26.5919 33.1424-24.1333ZM51.6175-21.4838L55.1262-23.095C52.4529-26.7948 50.4121-30.8049 49.0037-35.1253C47.5954-39.4456 46.8912-43.8854 46.8912-48.4444C46.8912-52.7409 47.4999-56.9062 48.7173-60.9402C49.9346-64.9741 51.7249-68.7454 54.0879-72.2542L50.3643-73.5433C47.9774-69.7719 46.1692-65.7558 44.9399-61.4951C43.7107-57.2344 43.096-52.8842 43.096-48.4444C43.096-43.575 43.8181-38.8548 45.2622-34.2838C46.7063-29.7128 48.8247-25.4462 51.6175-21.4838ZM68.0516-31.8313L70.6295-34.6956C67.4548-36.5335 64.7218-38.819 62.4303-41.5521C60.1388-44.2851 58.3725-47.3285 57.1313-50.6822C55.8901-54.0359 55.2575-57.5388 55.2337-61.1908C55.2337-65.1054 55.914-68.829 57.2745-72.3617L53.6225-73.3642C52.8825-71.4308 52.3335-69.4496 51.9755-67.4207C51.6174-65.3918 51.4384-63.3152 51.4384-61.1908C51.4384-57.1807 52.1068-53.3317 53.4435-49.6439C54.7802-45.956 56.6897-42.5844 59.1721-39.5291C61.6546-36.4738 64.6144-33.9079 68.0516-31.8313ZM34.1808-48.158C35.4458-48.158 36.5259-48.6056 37.421-49.5007C38.3162-50.3958 38.7637-51.4758 38.7637-52.7409C38.7637-54.006 38.3162-55.0861 37.421-55.9813C36.5259-56.8763 35.4458-57.3239 34.1808-57.3239C32.9157-57.3239 31.8356-56.8763 30.9405-55.9813C30.0454-55.0861 29.5978-54.006 29.5978-52.7409C29.5978-51.4758 30.0454-50.3958 30.9405-49.5007C31.8356-48.6056 32.9157-48.158 34.1808-48.158ZM55.6992-45.9023C56.9403-45.9023 58.0085-46.3499 58.9036-47.245C59.7987-48.1401 60.2462-49.2202 60.2462-50.4852C60.2462-51.7265 59.7987-52.7947 58.9036-53.6898C58.0085-54.5849 56.9403-55.0324 55.6992-55.0324C54.4341-55.0324 53.354-54.5849 52.4588-53.6898C51.5637-52.7947 51.1162-51.7265 51.1162-50.4852C51.1162-49.2202 51.5637-48.1401 52.4588-47.245C53.354-46.3499 54.4341-45.9023 55.6992-45.9023ZM47.1777-29.6472C48.4189-29.6472 49.4871-30.0947 50.3822-30.9898C51.2773-31.885 51.7248-32.9651 51.7248-34.2302C51.7248-35.4713 51.2773-36.5395 50.3822-37.4346C49.4871-38.3297 48.4189-38.7772 47.1777-38.7772C45.8887-38.7772 44.7967-38.3297 43.9016-37.4346C43.0065-36.5395 42.5589-35.4713 42.5589-34.2302C42.5589-32.9651 43.0065-31.885 43.9016-30.9898C44.7967-30.0947 45.8887-29.6472 47.1777-29.6472ZM46.2468-18.8701C50.2091-18.8701 53.9328-19.622 57.4177-21.1258C60.9027-22.6295 63.9759-24.7181 66.6374-27.3915C69.2988-30.0649 71.3874-33.1441 72.9031-36.6291C74.4188-40.114 75.1767-43.8257 75.1767-47.7641C75.1767-51.7026 74.4188-55.4143 72.9031-58.8993C71.3874-62.3843 69.2928-65.4634 66.6194-68.1368C63.946-70.8102 60.8669-72.8988 57.3819-74.4025C53.897-75.9063 50.1733-76.6582 46.211-76.6582C42.2725-76.6582 38.5608-75.9063 35.0759-74.4025C31.5909-72.8988 28.5237-70.8102 25.8741-68.1368C23.2246-65.4634 21.142-62.3843 19.6263-58.8993C18.1106-55.4143 17.3527-51.7026 17.3527-47.7641C17.3527-43.8257 18.1106-40.114 19.6263-36.6291C21.142-33.1441 23.2306-30.0649 25.892-27.3915C28.5535-24.7181 31.6267-22.6295 35.1117-21.1258C38.5966-19.622 42.3083-18.8701 46.2468-18.8701ZM46.2468-23.1666C42.9051-23.1666 39.7543-23.8111 36.7945-25.1C33.8346-26.389 31.2209-28.1673 28.9533-30.4349C26.6857-32.7025 24.9075-35.3222 23.6185-38.2939C22.3295-41.2657 21.685-44.4224 21.685-47.7641C21.685-51.1059 22.3235-54.2626 23.6006-57.2343C24.8776-60.2061 26.6499-62.8258 28.9175-65.0934C31.1851-67.361 33.7988-69.1393 36.7587-70.4283C39.7185-71.7172 42.8693-72.3617 46.211-72.3617C49.5766-72.3617 52.7393-71.7172 55.6992-70.4283C58.6589-69.1393 61.2786-67.361 63.5581-65.0934C65.8377-62.8258 67.6219-60.2061 68.9109-57.2343C70.1999-54.2626 70.8444-51.1059 70.8444-47.7641C70.8444-44.4224 70.1999-41.2657 68.9109-38.2939C67.6219-35.3222 65.8436-32.7025 63.576-30.4349C61.3085-28.1673 58.6948-26.389 55.7349-25.1C52.7751-23.8111 49.6124-23.1666 46.2468-23.1666Z"/>
  </g>
  <g id="Ultralight-S" transform="matrix(1 0 0 1 515.649 696)">
   <path d="M10.6865 7.71387L8.81587 7.71387L8.81587-13.3726L11.1689-13.3726L16.2392 0.187988L16.4003 0.187988L21.4414-13.3726L23.809-13.3726L23.809 7.71387L21.9384 7.71387L21.9384-0.893066L21.9384-9.48535L21.7924-9.48535L17.1748 2.76025L15.4501 2.76025L10.8325-9.48535L10.6865-9.48535L10.6865-0.893066L10.6865 7.71387ZM28.9233 7.71387L26.8774 7.71387L33.8334-13.3726L35.7915-13.3726L42.7475 7.71387L40.7016 7.71387L34.8271-10.7568L34.7978-10.7568L28.9233 7.71387ZM39.1523 1.25488L30.6772 1.25488L31.0717-0.469238L38.8457-0.469238L39.1523 1.25488ZM48.081 7.71387L48.081 5.98975L52.3188 5.98975L52.3188-11.6484L48.081-11.6484L48.081-13.3726L58.5439-13.3726L58.5439-11.6484L54.3061-11.6484L54.3061 5.98975L58.5439 5.98975L58.5439 7.71387L48.081 7.71387ZM64.9296 7.71387L64.9296-13.3726L66.9609-13.3726L76.6347 4.13379L76.8247 4.13379L76.8247-13.3726L78.6953-13.3726L78.6953 7.71387L76.708 7.71387L66.9902-9.80713L66.8002-9.80713L66.8002 7.71387L64.9296 7.71387ZM17.4933-62.3731C21.9075-59.0511 26.8271-56.4743 32.2521-54.6426C37.6771-52.8109 43.3621-51.932 49.307-52.0059C53.4221-52.054 57.3881-52.5769 61.2049-53.5746C65.0216-54.5723 68.6247-55.9661 72.0142-57.7562L71.482-59.3934C68.1621-57.6344 64.6355-56.264 60.9024-55.282C57.1693-54.3001 53.2922-53.773 49.2711-53.7006C43.4422-53.5806 37.8797-54.4374 32.5837-56.2709C27.2875-58.1045 22.4831-60.6711 18.1703-63.9708L17.4933-62.3731ZM15.5143-46.7375C19.423-43.4681 23.6641-40.8673 28.2377-38.9351C32.8113-37.003 37.5225-35.741 42.3713-35.149C47.2201-34.557 52.0624-34.6418 56.898-35.4035C61.7337-36.1652 66.4043-37.5941 70.9098-39.6901L71.185-41.7478C66.6904-39.4947 61.9987-37.9596 57.1099-37.1425C52.2211-36.3255 47.331-36.219 42.4398-36.8231C37.5486-37.4272 32.8133-38.74 28.2341-40.7617C23.6548-42.7833 19.4163-45.5064 15.5185-48.931L15.5143-46.7375ZM29.4303-26.0426L31.5038-25.1394C31.1321-26.1509 30.8111-27.1798 30.541-28.2261C30.2709-29.2725 30.0267-30.3335 29.8085-31.4092C28.5781-37.424 28.4253-43.3375 29.3503-49.1499C30.2752-54.9622 32.1232-60.4111 34.8942-65.4965C37.6652-70.5819 41.179-75.0464 45.4356-78.89L43.336-79.2676C39.1513-75.2616 35.7224-70.6845 33.0495-65.5364C30.3765-60.3884 28.5961-54.8899 27.7083-49.0407C26.8205-43.1917 26.9797-37.2183 28.1859-31.1207C28.3301-30.2778 28.5091-29.4236 28.7229-28.5583C28.9367-27.6929 29.1725-26.8544 29.4303-26.0426ZM49.5912-22.4501L51.3005-22.9695C48.7168-26.9299 46.7101-31.2325 45.2805-35.8773C43.8508-40.522 43.136-45.3743 43.136-50.4342C43.136-55.474 43.8435-60.3054 45.2586-64.9285C46.6737-69.5516 48.6733-73.8483 51.2574-77.8184L49.7488-78.5294C47.1145-74.4671 45.0713-70.0557 43.619-65.2952C42.1668-60.5347 41.4406-55.5811 41.4406-50.4342C41.4406-45.3028 42.1508-40.3691 43.5712-35.633C44.9915-30.8969 46.9982-26.5026 49.5912-22.4501ZM67.938-34.1665L68.7829-35.5738C65.5596-37.3971 62.7066-39.6991 60.2239-42.4798C57.7412-45.2605 55.7673-48.4014 54.3023-51.9025C52.8373-55.4037 51.9957-59.1448 51.7775-63.1259C51.5128-67.8718 52.2378-72.4352 53.9523-76.8159L52.3406-77.3613C51.4908-75.1462 50.8719-72.8313 50.484-70.4166C50.0961-68.0021 49.9624-65.5356 50.0828-63.0174C50.299-58.865 51.1793-54.9534 52.7239-51.2826C54.2686-47.6116 56.3435-44.3135 58.9489-41.3881C61.5542-38.4627 64.5506-36.0555 67.938-34.1665ZM30.3025-52.072C31.3365-52.072 32.2303-52.4486 32.9837-53.2018C33.7371-53.955 34.1138-54.8608 34.1138-55.9191C34.1138-56.977 33.7371-57.8765 32.9837-58.6178C32.2303-59.3591 31.3365-59.7298 30.3025-59.7298C29.2204-59.7298 28.3027-59.3591 27.5495-58.6178C26.7963-57.8765 26.4197-56.977 26.4197-55.9191C26.4197-54.8608 26.7963-53.955 27.5495-53.2018C28.3027-52.4486 29.2204-52.072 30.3025-52.072ZM53.4365-49.1226C54.3961-49.1226 55.2226-49.4632 55.9158-50.1445C56.609-50.8258 56.9556-51.6594 56.9556-52.6454C56.9556-53.5812 56.609-54.3958 55.9158-55.089C55.2226-55.7822 54.3961-56.1288 53.4365-56.1288C52.4743-56.1288 51.6467-55.7822 50.9535-55.089C50.2603-54.3958 49.9137-53.5812 49.9137-52.6454C49.9137-51.6594 50.2603-50.8258 50.9535-50.1445C51.6467-49.4632 52.4743-49.1226 53.4365-49.1226ZM45.2501-31.7638C46.306-31.7638 47.1987-32.1285 47.928-32.8578C48.6574-33.5872 49.0221-34.4808 49.0221-35.5387C49.0221-36.595 48.6574-37.4877 47.928-38.2169C47.1987-38.9461 46.306-39.3107 45.2501-39.3107C44.1902-39.3107 43.2956-38.9461 42.5662-38.2169C41.8368-37.4877 41.4722-36.595 41.4722-35.5387C41.4722-34.4808 41.8368-33.5872 42.5662-32.8578C43.2956-32.1285 44.1902-31.7638 45.2501-31.7638ZM44.0609-20.7008C48.1373-20.7008 51.9552-21.4673 55.5146-23.0004C59.074-24.5335 62.2172-26.6641 64.9443-29.3923C67.6715-32.1205 69.8021-35.2642 71.3362-38.8234C72.8703-42.3825 73.6374-46.1994 73.6374-50.2742C73.6374-54.349 72.8703-58.166 71.3362-61.7252C69.8021-65.2843 67.6711-68.428 64.9431-71.1561C62.2152-73.8843 59.0715-76.0149 55.5121-77.548C51.9528-79.0811 48.1349-79.8477 44.0585-79.8477C39.9837-79.8477 36.1607-79.0811 32.5894-77.548C29.0181-76.0149 25.8753-73.8843 23.1608-71.1561C20.4464-68.428 18.3222-65.2843 16.7883-61.7252C15.2544-58.166 14.4875-54.349 14.4875-50.2742C14.4875-46.1994 15.2544-42.3825 16.7883-38.8234C18.3222-35.2642 20.4468-32.1205 23.162-29.3923C25.8773-26.6641 29.0205-24.5335 32.5918-23.0004C36.1631-21.4673 39.9861-20.7008 44.0609-20.7008ZM44.0609-22.3973C40.2237-22.3973 36.6236-23.1196 33.2607-24.5642C29.8977-26.0088 26.9336-28.0137 24.3685-30.5788C21.8034-33.1439 19.7985-36.1085 18.3539-39.4725C16.9093-42.8365 16.187-46.437 16.187-50.2742C16.187-54.1114 16.9088-57.712 18.3524-61.076C19.796-64.44 21.8004-67.4045 24.3655-69.9697C26.9306-72.5348 29.8948-74.5396 33.2579-75.9842C36.6211-77.4288 40.2213-78.1511 44.0585-78.1511C47.8973-78.1511 51.4982-77.4288 54.8612-75.9842C58.2241-74.5396 61.1887-72.5348 63.7549-69.9697C66.321-67.4045 68.3263-64.44 69.7709-61.076C71.2155-57.712 71.9378-54.1114 71.9378-50.2742C71.9378-46.437 71.2155-42.8365 69.7709-39.4725C68.3263-36.1085 66.3215-33.1439 63.7564-30.5788C61.1912-28.0137 58.2271-26.0088 54.8639-24.5642C51.5007-23.1196 47.8997-22.3973 44.0609-22.3973Z"/>
  </g>
 </g>
</svg>
