<?xml version="1.0" encoding="UTF-8"?>
<!--Generator: Apple Native CoreSVG 175-->
<!DOCTYPE svg
PUBLIC "-//W3C//DTD SVG 1.1//EN"
       "http://www.w3.org/Graphics/SVG/1.1/DTD/svg11.dtd">
<svg version="1.1" xmlns="http://www.w3.org/2000/svg" xmlns:xlink="http://www.w3.org/1999/xlink" width="3300" height="2200">
 <!--glyph: "", point size: 100.0, font version: "17.1d1e1", template writer version: "65.1"-->
 <style>.hierarchical-0:secondary {fill:#4D4D4D}
.hierarchical-1:primary {fill:#212121}

.SFSymbolsPreview212121 {fill:#212121;opacity:1.0}
.SFSymbolsPreview4D4D4D {fill:#4D4D4D;opacity:1.0}
</style>
 <g id="Notes">
  <rect height="2200" id="artboard" style="fill:white;opacity:1" width="3300" x="0" y="0"/>
  <line style="fill:none;stroke:black;opacity:1;stroke-width:0.5;" x1="263" x2="3036" y1="292" y2="292"/>
  <text style="stroke:none;fill:black;font-family:sans-serif;font-size:13;font-weight:bold;" transform="matrix(1 0 0 1 263 322)">Weight/Scale Variations</text>
  <text style="stroke:none;fill:black;font-family:sans-serif;font-size:13;text-anchor:middle;" transform="matrix(1 0 0 1 559.711 322)">Ultralight</text>
  <text style="stroke:none;fill:black;font-family:sans-serif;font-size:13;text-anchor:middle;" transform="matrix(1 0 0 1 856.422 322)">Thin</text>
  <text style="stroke:none;fill:black;font-family:sans-serif;font-size:13;text-anchor:middle;" transform="matrix(1 0 0 1 1153.13 322)">Light</text>
  <text style="stroke:none;fill:black;font-family:sans-serif;font-size:13;text-anchor:middle;" transform="matrix(1 0 0 1 1449.84 322)">Regular</text>
  <text style="stroke:none;fill:black;font-family:sans-serif;font-size:13;text-anchor:middle;" transform="matrix(1 0 0 1 1746.56 322)">Medium</text>
  <text style="stroke:none;fill:black;font-family:sans-serif;font-size:13;text-anchor:middle;" transform="matrix(1 0 0 1 2043.27 322)">Semibold</text>
  <text style="stroke:none;fill:black;font-family:sans-serif;font-size:13;text-anchor:middle;" transform="matrix(1 0 0 1 2339.98 322)">Bold</text>
  <text style="stroke:none;fill:black;font-family:sans-serif;font-size:13;text-anchor:middle;" transform="matrix(1 0 0 1 2636.69 322)">Heavy</text>
  <text style="stroke:none;fill:black;font-family:sans-serif;font-size:13;text-anchor:middle;" transform="matrix(1 0 0 1 2933.4 322)">Black</text>
  <line style="fill:none;stroke:black;opacity:1;stroke-width:0.5;" x1="263" x2="3036" y1="1903" y2="1903"/>
  <g transform="matrix(1 0 0 1 263 1933)">
   <path d="M9.24805 0.830078Q10.8691 0.830078 12.2949 0.214844Q13.7207-0.400391 14.8096-1.49414Q15.8984-2.58789 16.5186-4.01367Q17.1387-5.43945 17.1387-7.05078Q17.1387-8.66211 16.5186-10.0879Q15.8984-11.5137 14.8047-12.6074Q13.7109-13.7012 12.2852-14.3164Q10.8594-14.9316 9.23828-14.9316Q7.62695-14.9316 6.20117-14.3164Q4.77539-13.7012 3.69141-12.6074Q2.60742-11.5137 1.9873-10.0879Q1.36719-8.66211 1.36719-7.05078Q1.36719-5.43945 1.9873-4.01367Q2.60742-2.58789 3.69629-1.49414Q4.78516-0.400391 6.21094 0.214844Q7.63672 0.830078 9.24805 0.830078ZM9.24805-0.654297Q7.91992-0.654297 6.7627-1.14746Q5.60547-1.64062 4.73145-2.51953Q3.85742-3.39844 3.36426-4.56055Q2.87109-5.72266 2.87109-7.05078Q2.87109-8.37891 3.35938-9.54102Q3.84766-10.7031 4.72168-11.582Q5.5957-12.4609 6.75293-12.9541Q7.91016-13.4473 9.23828-13.4473Q10.5762-13.4473 11.7334-12.9541Q12.8906-12.4609 13.7695-11.582Q14.6484-10.7031 15.1465-9.54102Q15.6445-8.37891 15.6445-7.05078Q15.6445-5.72266 15.1514-4.56055Q14.6582-3.39844 13.7842-2.51953Q12.9102-1.64062 11.748-1.14746Q10.5859-0.654297 9.24805-0.654297ZM5.6543-7.05078Q5.6543-6.72852 5.85938-6.52832Q6.06445-6.32812 6.40625-6.32812L8.51562-6.32812L8.51562-4.20898Q8.51562-3.88672 8.71094-3.67676Q8.90625-3.4668 9.23828-3.4668Q9.56055-3.4668 9.77051-3.67676Q9.98047-3.88672 9.98047-4.20898L9.98047-6.32812L12.0898-6.32812Q12.4219-6.32812 12.627-6.52832Q12.832-6.72852 12.832-7.05078Q12.832-7.38281 12.627-7.58789Q12.4219-7.79297 12.0898-7.79297L9.98047-7.79297L9.98047-9.90234Q9.98047-10.2344 9.77051-10.4443Q9.56055-10.6543 9.23828-10.6543Q8.90625-10.6543 8.71094-10.4443Q8.51562-10.2344 8.51562-9.90234L8.51562-7.79297L6.40625-7.79297Q6.06445-7.79297 5.85938-7.58789Q5.6543-7.38281 5.6543-7.05078Z"/>
  </g>
  <g transform="matrix(1 0 0 1 281.867 1933)">
   <path d="M11.709 2.91016Q13.75 2.91016 15.5518 2.12891Q17.3535 1.34766 18.7305-0.0292969Q20.1074-1.40625 20.8887-3.20801Q21.6699-5.00977 21.6699-7.05078Q21.6699-9.0918 20.8887-10.8936Q20.1074-12.6953 18.7305-14.0723Q17.3535-15.4492 15.5469-16.2305Q13.7402-17.0117 11.6992-17.0117Q9.6582-17.0117 7.85645-16.2305Q6.05469-15.4492 4.68262-14.0723Q3.31055-12.6953 2.5293-10.8936Q1.74805-9.0918 1.74805-7.05078Q1.74805-5.00977 2.5293-3.20801Q3.31055-1.40625 4.6875-0.0292969Q6.06445 1.34766 7.86621 2.12891Q9.66797 2.91016 11.709 2.91016ZM11.709 1.25Q9.98047 1.25 8.47656 0.605469Q6.97266-0.0390625 5.83496-1.17676Q4.69727-2.31445 4.05762-3.81836Q3.41797-5.32227 3.41797-7.05078Q3.41797-8.7793 4.05762-10.2832Q4.69727-11.7871 5.83008-12.9297Q6.96289-14.0723 8.4668-14.7119Q9.9707-15.3516 11.6992-15.3516Q13.4277-15.3516 14.9316-14.7119Q16.4355-14.0723 17.5781-12.9297Q18.7207-11.7871 19.3652-10.2832Q20.0098-8.7793 20.0098-7.05078Q20.0098-5.32227 19.3701-3.81836Q18.7305-2.31445 17.5928-1.17676Q16.4551-0.0390625 14.9463 0.605469Q13.4375 1.25 11.709 1.25ZM7.17773-7.05078Q7.17773-6.69922 7.41211-6.47461Q7.64648-6.25 8.01758-6.25L10.8887-6.25L10.8887-3.36914Q10.8887-2.99805 11.1133-2.76855Q11.3379-2.53906 11.6895-2.53906Q12.0605-2.53906 12.29-2.76855Q12.5195-2.99805 12.5195-3.36914L12.5195-6.25L15.4004-6.25Q15.7715-6.25 16.001-6.47461Q16.2305-6.69922 16.2305-7.05078Q16.2305-7.42188 16.001-7.65137Q15.7715-7.88086 15.4004-7.88086L12.5195-7.88086L12.5195-10.752Q12.5195-11.1328 12.29-11.3623Q12.0605-11.5918 11.6895-11.5918Q11.3379-11.5918 11.1133-11.3574Q10.8887-11.123 10.8887-10.752L10.8887-7.88086L8.01758-7.88086Q7.63672-7.88086 7.40723-7.65137Q7.17773-7.42188 7.17773-7.05078Z"/>
  </g>
  <g transform="matrix(1 0 0 1 305.646 1933)">
   <path d="M14.9707 5.66406Q17.0605 5.66406 18.96 5.01465Q20.8594 4.36523 22.4512 3.19336Q24.043 2.02148 25.2197 0.429688Q26.3965-1.16211 27.0459-3.06641Q27.6953-4.9707 27.6953-7.05078Q27.6953-9.14062 27.0459-11.04Q26.3965-12.9395 25.2197-14.5312Q24.043-16.123 22.4512-17.2998Q20.8594-18.4766 18.9551-19.126Q17.0508-19.7754 14.9609-19.7754Q12.8711-19.7754 10.9717-19.126Q9.07227-18.4766 7.48535-17.2998Q5.89844-16.123 4.72168-14.5312Q3.54492-12.9395 2.90039-11.04Q2.25586-9.14062 2.25586-7.05078Q2.25586-4.9707 2.90527-3.06641Q3.55469-1.16211 4.72656 0.429688Q5.89844 2.02148 7.49023 3.19336Q9.08203 4.36523 10.9814 5.01465Q12.8809 5.66406 14.9707 5.66406ZM14.9707 3.84766Q13.1641 3.84766 11.5283 3.2959Q9.89258 2.74414 8.53516 1.74805Q7.17773 0.751953 6.17676-0.610352Q5.17578-1.97266 4.62891-3.6084Q4.08203-5.24414 4.08203-7.05078Q4.08203-8.86719 4.62891-10.5029Q5.17578-12.1387 6.17188-13.501Q7.16797-14.8633 8.52539-15.8594Q9.88281-16.8555 11.5186-17.4023Q13.1543-17.9492 14.9609-17.9492Q16.7773-17.9492 18.4131-17.4023Q20.0488-16.8555 21.4111-15.8594Q22.7734-14.8633 23.7695-13.501Q24.7656-12.1387 25.3174-10.5029Q25.8691-8.86719 25.8691-7.05078Q25.8789-5.24414 25.332-3.6084Q24.7852-1.97266 23.7842-0.610352Q22.7832 0.751953 21.4209 1.74805Q20.0586 2.74414 18.4229 3.2959Q16.7871 3.84766 14.9707 3.84766ZM9.19922-7.05078Q9.19922-6.66992 9.45801-6.4209Q9.7168-6.17188 10.1172-6.17188L14.0625-6.17188L14.0625-2.2168Q14.0625-1.81641 14.3115-1.55762Q14.5605-1.29883 14.9512-1.29883Q15.3516-1.29883 15.6104-1.55273Q15.8691-1.80664 15.8691-2.2168L15.8691-6.17188L19.8242-6.17188Q20.2246-6.17188 20.4785-6.4209Q20.7324-6.66992 20.7324-7.05078Q20.7324-7.46094 20.4785-7.71484Q20.2246-7.96875 19.8242-7.96875L15.8691-7.96875L15.8691-11.9141Q15.8691-12.3242 15.6104-12.583Q15.3516-12.8418 14.9512-12.8418Q14.5605-12.8418 14.3115-12.583Q14.0625-12.3242 14.0625-11.9141L14.0625-7.96875L10.1172-7.96875Q9.70703-7.96875 9.45312-7.71484Q9.19922-7.46094 9.19922-7.05078Z"/>
  </g>
  <text style="stroke:none;fill:black;font-family:sans-serif;font-size:13;font-weight:bold;" transform="matrix(1 0 0 1 263 1953)">Design Variations</text>
  <text style="stroke:none;fill:black;font-family:sans-serif;font-size:13;" transform="matrix(1 0 0 1 263 1971)">Symbols are supported in up to nine weights and three scales.</text>
  <text style="stroke:none;fill:black;font-family:sans-serif;font-size:13;" transform="matrix(1 0 0 1 263 1989)">For optimal layout with text and other symbols, vertically align</text>
  <text style="stroke:none;fill:black;font-family:sans-serif;font-size:13;" transform="matrix(1 0 0 1 263 2007)">symbols with the adjacent text.</text>
  <line style="fill:none;stroke:#00AEEF;stroke-width:0.5;opacity:1.0;" x1="776" x2="776" y1="1919" y2="1933"/>
  <g transform="matrix(1 0 0 1 776 1933)">
   <path d="M3.31055 0.15625Q3.70117 0.15625 3.91602-0.00976562Q4.13086-0.175781 4.26758-0.585938L5.52734-4.0332L11.2891-4.0332L12.5488-0.585938Q12.6855-0.175781 12.9004-0.00976562Q13.1152 0.15625 13.4961 0.15625Q13.8867 0.15625 14.1162-0.0585938Q14.3457-0.273438 14.3457-0.644531Q14.3457-0.869141 14.2383-1.17188L9.6582-13.3691Q9.48242-13.8184 9.17969-14.043Q8.87695-14.2676 8.4082-14.2676Q7.5-14.2676 7.17773-13.3789L2.59766-1.16211Q2.49023-0.859375 2.49023-0.634766Q2.49023-0.263672 2.70996-0.0537109Q2.92969 0.15625 3.31055 0.15625ZM6.00586-5.51758L8.37891-12.0898L8.42773-12.0898L10.8008-5.51758Z"/>
  </g>
  <line style="fill:none;stroke:#00AEEF;stroke-width:0.5;opacity:1.0;" x1="793.197" x2="793.197" y1="1919" y2="1933"/>
  <text style="stroke:none;fill:black;font-family:sans-serif;font-size:13;font-weight:bold;" transform="matrix(1 0 0 1 776 1953)">Margins</text>
  <text style="stroke:none;fill:black;font-family:sans-serif;font-size:13;" transform="matrix(1 0 0 1 776 1971)">Leading and trailing margins on the left and right side of each symbol</text>
  <text style="stroke:none;fill:black;font-family:sans-serif;font-size:13;" transform="matrix(1 0 0 1 776 1989)">can be adjusted by modifying the x-location of the margin guidelines.</text>
  <text style="stroke:none;fill:black;font-family:sans-serif;font-size:13;" transform="matrix(1 0 0 1 776 2007)">Modifications are automatically applied proportionally to all</text>
  <text style="stroke:none;fill:black;font-family:sans-serif;font-size:13;" transform="matrix(1 0 0 1 776 2025)">scales and weights.</text>
  <g transform="matrix(1 0 0 1 1289 1933)">
   <path d="M2.8418 1.86523L4.54102 3.57422Q5.18555 4.22852 5.90332 4.17969Q6.62109 4.13086 7.31445 3.35938L18.0078-8.42773L17.041-9.4043L6.42578 2.27539Q6.16211 2.57812 5.89355 2.61719Q5.625 2.65625 5.27344 2.30469L4.10156 1.14258Q3.75 0.791016 3.79395 0.522461Q3.83789 0.253906 4.14062-0.0195312L15.6152-10.8203L14.6387-11.7871L3.04688-0.898438Q2.30469-0.214844 2.25098 0.498047Q2.19727 1.21094 2.8418 1.86523ZM9.25781-16.3281Q8.94531-16.0254 8.90625-15.6348Q8.86719-15.2441 9.04297-14.9512Q9.21875-14.6777 9.55566-14.541Q9.89258-14.4043 10.3809-14.5215Q11.4746-14.7754 12.5977-14.7314Q13.7207-14.6875 14.7949-13.9844L14.209-12.5293Q13.9551-11.9043 14.0674-11.4404Q14.1797-10.9766 14.5801-10.5664L16.875-8.25195Q17.2363-7.88086 17.5781-7.82227Q17.9199-7.76367 18.3398-7.8418L19.4043-8.03711L20.0684-7.36328L20.0293-6.80664Q20-6.43555 20.1221-6.12305Q20.2441-5.81055 20.6055-5.44922L21.3672-4.70703Q21.7285-4.3457 22.1533-4.33105Q22.5781-4.31641 22.9297-4.66797L25.8398-7.58789Q26.1914-7.93945 26.1816-8.35449Q26.1719-8.76953 25.8105-9.13086L25.0391-9.89258Q24.6875-10.2539 24.3799-10.3857Q24.0723-10.5176 23.7109-10.4883L23.1348-10.4395L22.4902-11.0742L22.7344-12.1973Q22.832-12.6172 22.6953-12.9834Q22.5586-13.3496 22.1191-13.7891L19.9219-15.9766Q18.6719-17.2168 17.2607-17.8369Q15.8496-18.457 14.4189-18.4814Q12.9883-18.5059 11.665-17.959Q10.3418-17.4121 9.25781-16.3281ZM10.752-15.957Q11.6602-16.6211 12.7002-16.9043Q13.7402-17.1875 14.8047-17.085Q15.8691-16.9824 16.8701-16.5137Q17.8711-16.0449 18.7012-15.2051L21.1328-12.793Q21.3086-12.6172 21.3525-12.4512Q21.3965-12.2852 21.3379-12.0312L21.0156-10.5469L22.5195-9.0625L23.5059-9.12109Q23.6914-9.13086 23.7891-9.09668Q23.8867-9.0625 24.0332-8.91602L24.6094-8.33984L22.168-5.89844L21.5918-6.47461Q21.4453-6.62109 21.4062-6.71875Q21.3672-6.81641 21.377-7.01172L21.4453-7.98828L19.9512-9.47266L18.4277-9.21875Q18.1836-9.16992 18.042-9.2041Q17.9004-9.23828 17.7148-9.41406L15.7129-11.416Q15.5176-11.5918 15.4932-11.7529Q15.4688-11.9141 15.5859-12.1875L16.4648-14.2773Q15.293-15.3711 13.8281-15.791Q12.3633-16.2109 10.8398-15.7617Q10.7227-15.7324 10.6885-15.8057Q10.6543-15.8789 10.752-15.957Z"/>
  </g>
  <text style="stroke:none;fill:black;font-family:sans-serif;font-size:13;font-weight:bold;" transform="matrix(1 0 0 1 1289 1953)">Exporting</text>
  <text style="stroke:none;fill:black;font-family:sans-serif;font-size:13;" transform="matrix(1 0 0 1 1289 1971)">Symbols should be outlined when exporting to ensure the</text>
  <text style="stroke:none;fill:black;font-family:sans-serif;font-size:13;" transform="matrix(1 0 0 1 1289 1989)">design is preserved when submitting to Xcode.</text>
  <text id="template-version" style="stroke:none;fill:black;font-family:sans-serif;font-size:13;text-anchor:end;" transform="matrix(1 0 0 1 3036 1933)">Template v.3.0</text>
  <text style="stroke:none;fill:black;font-family:sans-serif;font-size:13;text-anchor:end;" transform="matrix(1 0 0 1 3036 1951)">Requires Xcode 13 or greater</text>
  <text id="descriptive-name" style="stroke:none;fill:black;font-family:sans-serif;font-size:13;text-anchor:end;" transform="matrix(1 0 0 1 3036 1969)">Generated from nfc</text>
  <text style="stroke:none;fill:black;font-family:sans-serif;font-size:13;text-anchor:end;" transform="matrix(1 0 0 1 3036 1987)">Typeset at 100 points</text>
  <text style="stroke:none;fill:black;font-family:sans-serif;font-size:13;" transform="matrix(1 0 0 1 263 726)">Small</text>
  <text style="stroke:none;fill:black;font-family:sans-serif;font-size:13;" transform="matrix(1 0 0 1 263 1156)">Medium</text>
  <text style="stroke:none;fill:black;font-family:sans-serif;font-size:13;" transform="matrix(1 0 0 1 263 1586)">Large</text>
 </g>
 <g id="Guides">
  <g id="H-reference" style="fill:#27AAE1;stroke:none;" transform="matrix(1 0 0 1 339 696)">
   <path d="M0.993347 0L3.6377 0L29.3282-67.1326L30.0301-67.1326L30.0301-70.459L28.1227-70.459ZM11.6882-24.4797L46.9818-24.4797L46.2311-26.7288L12.4382-26.7288ZM55.1193 0L57.7637 0L30.6381-70.459L29.4327-70.459L29.4327-67.1326Z"/>
  </g>
  <line id="Baseline-S" style="fill:none;stroke:#27AAE1;opacity:1;stroke-width:0.5;" x1="263" x2="3036" y1="696" y2="696"/>
  <line id="Capline-S" style="fill:none;stroke:#27AAE1;opacity:1;stroke-width:0.5;" x1="263" x2="3036" y1="625.541" y2="625.541"/>
  <g id="H-reference" style="fill:#27AAE1;stroke:none;" transform="matrix(1 0 0 1 339 1126)">
   <path d="M0.993347 0L3.6377 0L29.3282-67.1326L30.0301-67.1326L30.0301-70.459L28.1227-70.459ZM11.6882-24.4797L46.9818-24.4797L46.2311-26.7288L12.4382-26.7288ZM55.1193 0L57.7637 0L30.6381-70.459L29.4327-70.459L29.4327-67.1326Z"/>
  </g>
  <line id="Baseline-M" style="fill:none;stroke:#27AAE1;opacity:1;stroke-width:0.5;" x1="263" x2="3036" y1="1126" y2="1126"/>
  <line id="Capline-M" style="fill:none;stroke:#27AAE1;opacity:1;stroke-width:0.5;" x1="263" x2="3036" y1="1055.54" y2="1055.54"/>
  <g id="H-reference" style="fill:#27AAE1;stroke:none;" transform="matrix(1 0 0 1 339 1556)">
   <path d="M0.993347 0L3.6377 0L29.3282-67.1326L30.0301-67.1326L30.0301-70.459L28.1227-70.459ZM11.6882-24.4797L46.9818-24.4797L46.2311-26.7288L12.4382-26.7288ZM55.1193 0L57.7637 0L30.6381-70.459L29.4327-70.459L29.4327-67.1326Z"/>
  </g>
  <line id="Baseline-L" style="fill:none;stroke:#27AAE1;opacity:1;stroke-width:0.5;" x1="263" x2="3036" y1="1556" y2="1556"/>
  <line id="Capline-L" style="fill:none;stroke:#27AAE1;opacity:1;stroke-width:0.5;" x1="263" x2="3036" y1="1485.54" y2="1485.54"/>
  <line id="left-margin-Regular-M" style="fill:none;stroke:#00AEEF;stroke-width:0.5;opacity:1.0;" x1="1392.44" x2="1392.44" y1="1030.78" y2="1150.12"/>
  <line id="right-margin-Regular-M" style="fill:none;stroke:#00AEEF;stroke-width:0.5;opacity:1.0;" x1="1507.24" x2="1507.24" y1="1030.78" y2="1150.12"/>
 </g>
 <g id="Symbols">
  <g id="Semibold-L" transform="matrix(1 0 0 1 1970.46 1556)">
   <path class="hierarchical-0:secondary SFSymbolsPreview4D4D4D" d="M114.02 24.2274C112.98 24.2274 112.07 23.9674 111.03 23.5774C107.39 21.8874 105.83 17.7275 107.52 14.0875C114.8-2.03254 118.57-18.9326 118.57-36.2226C118.57-53.6426 114.8-70.5426 107.39-86.5326C105.7-90.1726 107.26-94.3326 110.9-96.0226C114.54-97.7126 118.7-96.1526 120.39-92.5126C128.71-74.7026 132.87-55.7226 132.87-36.2226C132.87-16.8526 128.71 2.12746 120.65 20.0675C119.35 22.6675 116.75 24.2274 114.02 24.2274ZM93.8701 7.97747C92.8301 7.97747 91.7901 7.71746 90.7501 7.32744C87.2401 5.63744 85.6801 1.34746 87.3701-2.16255C92.4401-12.8226 95.0401-24.2626 95.0401-36.0926C95.0401-48.0526 92.4401-59.6226 87.3701-70.2826C85.6801-73.7926 87.1101-78.0826 90.7501-79.7726C94.2601-81.4626 98.5501-80.0326 100.24-76.3926C106.22-63.7826 109.34-50.2626 109.34-36.0926C109.34-22.0526 106.35-8.53261 100.24 4.07744C99.0701 6.54744 96.6001 7.97747 93.8701 7.97747Z"/>
   <path class="hierarchical-1:primary SFSymbolsPreview212121" d="M25.3601-9.1826C22.8901-9.1826 20.5501-10.4826 19.1201-12.6926C14.9601-19.8426 12.7501-28.0326 12.7501-36.3526C12.7501-44.8026 14.9601-52.9926 19.1201-60.1426C20.1601-61.9626 21.9801-63.2626 24.0601-63.6526C26.1401-64.0426 28.2201-63.3926 29.9101-62.0926L70.8601-28.0326C71.6401-30.7626 71.9001-33.6226 71.9001-36.3526C71.9001-42.0726 70.3401-47.7926 67.4801-52.7326C65.5301-56.1126 66.7001-60.5326 70.0801-62.4826C73.4601-64.4326 77.8801-63.2626 79.8301-59.8826C83.9901-52.7326 86.2001-44.5426 86.2001-36.2226C86.2001-27.9026 83.9901-19.7126 79.8301-12.5626C78.7901-10.7426 76.9701-9.44261 74.8901-9.1826C72.8101-8.79262 70.7301-9.44261 69.0401-10.7426L28.2201-44.9326C27.4401-42.2026 27.1801-39.3426 27.1801-36.3526C27.1801-30.6326 28.7401-24.9126 31.6001-19.9726C33.5501-16.5926 32.3801-12.1726 29.0001-10.2226C27.8301-9.57261 26.5301-9.1826 25.3601-9.1826Z"/>
  </g>
  <g id="Regular-L" transform="matrix(1 0 0 1 1379.05 1556)">
   <path class="hierarchical-0:secondary SFSymbolsPreview4D4D4D" d="M112.07 22.8282C111.29 22.8282 110.64 22.6982 109.86 22.3082C107.26 21.1382 106.09 18.0182 107.26 15.4182C114.67-0.961823 118.44-18.1218 118.44-35.6718C118.44-53.3518 114.67-70.6418 107.13-86.7618C105.96-89.3618 107-92.4818 109.6-93.6518C112.2-94.8218 115.32-93.7818 116.49-91.1818C124.68-73.6318 128.84-54.9118 128.84-35.6718C128.84-16.5618 124.81 2.1582 116.75 19.8382C115.97 21.6582 114.02 22.8282 112.07 22.8282ZM91.9201 6.57819C91.1401 6.57819 90.3601 6.44818 89.7101 6.0582C87.1101 4.75818 86.0701 1.76819 87.2401-0.831818C92.4401-11.7518 95.0401-23.4518 95.0401-35.6718C95.0401-48.0218 92.4401-59.7218 87.2401-70.6418C85.9401-73.2418 87.1101-76.3618 89.7101-77.5318C92.3101-78.8318 95.4301-77.6618 96.6001-75.0618C102.45-62.7118 105.44-49.4518 105.44-35.5418C105.44-21.7618 102.45-8.50183 96.6001 3.7182C95.6901 5.53818 93.8701 6.57819 91.9201 6.57819Z"/>
   <path class="hierarchical-1:primary SFSymbolsPreview212121" d="M23.4101-10.5818C21.5901-10.5818 19.9001-11.4918 18.8601-13.1818C14.8301-20.0718 12.7501-27.8718 12.7501-35.8018C12.7501-43.8618 14.8301-51.7918 18.8601-58.5518C19.6401-59.8518 20.9401-60.7618 22.5001-61.0218C24.0601-61.2818 25.4901-60.8918 26.7901-59.8518L69.9501-23.9718C71.2501-27.7418 72.0301-31.6418 72.0301-35.6718C72.0301-41.7818 70.3401-47.7618 67.3501-53.0918C65.9201-55.5618 66.7001-58.8118 69.1701-60.2418C71.6401-61.6718 74.8901-60.8918 76.3201-58.4218C80.3501-51.5318 82.4301-43.7318 82.4301-35.8018C82.4301-27.8718 80.3501-20.0718 76.3201-13.1818C75.5401-11.8818 74.2401-10.9718 72.6801-10.7118C71.1201-10.4518 69.6901-10.8418 68.3901-11.8818L25.2301-47.7618C23.9301-43.9918 23.1501-39.9618 23.1501-35.9318C23.1501-29.8218 24.8401-23.8418 27.8301-18.5118C29.2601-16.0418 28.4801-12.7918 26.0101-11.3618C25.2301-10.8418 24.3201-10.5818 23.4101-10.5818Z"/>
  </g>
  <g id="Semibold-M" transform="matrix(1 0 0 1 1984.32 1126)">
   <path class="hierarchical-0:secondary SFSymbolsPreview4D4D4D" d="M90.6501 9.74804C89.8501 9.74804 89.1501 9.54804 88.3501 9.24804C85.5501 7.94809 84.3501 4.74809 85.6501 1.94809C91.2501-10.4519 94.1501-23.452 94.1501-36.752C94.1501-50.152 91.2501-63.152 85.5501-75.452C84.2501-78.252 85.4501-81.452 88.2501-82.752C91.0501-84.052 94.2501-82.852 95.5501-80.052C101.95-66.352 105.15-51.752 105.15-36.752C105.15-21.852 101.95-7.25191 95.7501 6.5481C94.7501 8.54809 92.7501 9.74804 90.6501 9.74804ZM75.1501-2.75191C74.3501-2.75191 73.5501-2.95191 72.7501-3.25191C70.0501-4.55191 68.8501-7.85191 70.1501-10.5519C74.0501-18.752 76.0501-27.552 76.0501-36.652C76.0501-45.852 74.0501-54.752 70.1501-62.952C68.8501-65.652 69.9501-68.952 72.7501-70.252C75.4501-71.552 78.7501-70.452 80.0501-67.652C84.6501-57.952 87.0501-47.552 87.0501-36.652C87.0501-25.852 84.7501-15.452 80.0501-5.75191C79.1501-3.85191 77.2501-2.75191 75.1501-2.75191Z"/>
   <path class="hierarchical-1:primary SFSymbolsPreview212121" d="M22.4501-15.952C20.5501-15.952 18.7501-16.952 17.6501-18.652C14.4501-24.152 12.7501-30.452 12.7501-36.852C12.7501-43.352 14.4501-49.652 17.6501-55.152C18.4501-56.552 19.8501-57.552 21.4501-57.852C23.0501-58.152 24.6501-57.652 25.9501-56.652L57.4501-30.452C58.0501-32.552 58.2501-34.752 58.2501-36.852C58.2501-41.252 57.0501-45.652 54.8501-49.452C53.3501-52.052 54.2501-55.452 56.8501-56.952C59.4501-58.452 62.8501-57.552 64.3501-54.952C67.5501-49.452 69.2501-43.152 69.2501-36.752C69.2501-30.352 67.5501-24.052 64.3501-18.552C63.5501-17.152 62.1501-16.152 60.5501-15.952C58.9501-15.652 57.3501-16.152 56.0501-17.152L24.6501-43.452C24.0501-41.352 23.8501-39.152 23.8501-36.852C23.8501-32.452 25.0501-28.052 27.2501-24.252C28.7501-21.652 27.8501-18.252 25.2501-16.752C24.3501-16.252 23.3501-15.952 22.4501-15.952Z"/>
  </g>
  <g id="Regular-M" transform="matrix(1 0 0 1 1392.44 1126)">
   <path class="hierarchical-0:secondary SFSymbolsPreview4D4D4D" d="M89.1501 8.73442C88.5501 8.73442 88.0501 8.63442 87.4501 8.33442C85.4501 7.43442 84.5501 5.03442 85.4501 3.03442C91.1501-9.56558 94.0501-22.7656 94.0501-36.2656C94.0501-49.8656 91.1501-63.1656 85.3501-75.5656C84.4501-77.5656 85.2501-79.9656 87.2501-80.8656C89.2501-81.7656 91.6501-80.9656 92.5501-78.9656C98.8501-65.4656 102.05-51.0656 102.05-36.2656C102.05-21.5656 98.9501-7.16558 92.7501 6.43442C92.1501 7.83442 90.6501 8.73442 89.1501 8.73442ZM73.6501-3.76558C73.0501-3.76558 72.4501-3.86558 71.9501-4.16558C69.9501-5.16558 69.1501-7.46558 70.0501-9.46558C74.0501-17.8656 76.0501-26.8656 76.0501-36.2656C76.0501-45.7656 74.0501-54.7656 70.0501-63.1656C69.0501-65.1656 69.9501-67.5656 71.9501-68.4656C73.9501-69.4656 76.3501-68.5656 77.2501-66.5656C81.7501-57.0656 84.0501-46.8656 84.0501-36.1656C84.0501-25.5656 81.7501-15.3656 77.2501-5.96558C76.5501-4.56558 75.1501-3.76558 73.6501-3.76558Z"/>
   <path class="hierarchical-1:primary SFSymbolsPreview212121" d="M20.9501-16.9656C19.5501-16.9656 18.2501-17.6656 17.4501-18.9656C14.3501-24.2656 12.7501-30.2656 12.7501-36.3656C12.7501-42.5656 14.3501-48.6656 17.4501-53.8656C18.0501-54.8656 19.0501-55.5656 20.2501-55.7656C21.4501-55.9656 22.5501-55.6656 23.5501-54.8656L56.7501-27.2656C57.7501-30.1656 58.3501-33.1656 58.3501-36.2656C58.3501-40.9656 57.0501-45.5656 54.7501-49.6656C53.6501-51.5656 54.2501-54.0656 56.1501-55.1656C58.0501-56.2656 60.5501-55.6656 61.6501-53.7656C64.7501-48.4656 66.3501-42.4656 66.3501-36.3656C66.3501-30.2656 64.7501-24.2656 61.6501-18.9656C61.0501-17.9656 60.0501-17.2656 58.8501-17.0656C57.6501-16.8656 56.5501-17.1656 55.5501-17.9656L22.3501-45.5656C21.3501-42.6656 20.7501-39.5656 20.7501-36.4656C20.7501-31.7656 22.0501-27.1656 24.3501-23.0656C25.4501-21.1656 24.8501-18.6656 22.9501-17.5656C22.3501-17.1656 21.6501-16.9656 20.9501-16.9656Z"/>
  </g>
  <g id="Semibold-S" transform="matrix(1 0 0 1 1993.56 696)">
   <path class="hierarchical-0:secondary SFSymbolsPreview4D4D4D" d="M75.0701 1.35937C74.4301 1.35937 73.8701 1.19936 73.2301 0.959344C70.9901-0.0806037 70.0301-2.6406 71.0701-4.88062C75.5501-14.8006 77.8701-25.2007 77.8701-35.8406C77.8701-46.5606 75.5501-56.9606 70.9901-66.8006C69.9501-69.0407 70.9101-71.6007 73.1501-72.6406C75.3901-73.6806 77.9501-72.7206 78.9901-70.4807C84.1101-59.5206 86.6701-47.8406 86.6701-35.8406C86.6701-23.9207 84.1101-12.2406 79.1501-1.2006C78.3501 0.399407 76.7501 1.35937 75.0701 1.35937ZM62.6701-8.6406C62.0301-8.6406 61.3901-8.80061 60.7501-9.0406C58.5901-10.0806 57.6301-12.7206 58.6701-14.8806C61.7901-21.4407 63.3901-28.4807 63.3901-35.7607C63.3901-43.1206 61.7901-50.2406 58.6701-56.8006C57.6301-58.9606 58.5101-61.6007 60.7501-62.6406C62.9101-63.6806 65.5501-62.8006 66.5901-60.5606C70.2701-52.8006 72.1901-44.4807 72.1901-35.7607C72.1901-27.1206 70.3501-18.8006 66.5901-11.0406C65.8701-9.52061 64.3501-8.6406 62.6701-8.6406Z"/>
   <path class="hierarchical-1:primary SFSymbolsPreview212121" d="M20.5101-19.2007C18.9901-19.2007 17.5501-20.0006 16.6701-21.3606C14.1101-25.7607 12.7501-30.8006 12.7501-35.9207C12.7501-41.1206 14.1101-46.1607 16.6701-50.5606C17.3101-51.6806 18.4301-52.4807 19.7101-52.7206C20.9901-52.9606 22.2701-52.5606 23.3101-51.7607L48.5101-30.8006C48.9901-32.4807 49.1501-34.2406 49.1501-35.9207C49.1501-39.4407 48.1901-42.9606 46.4301-46.0006C45.2301-48.0806 45.9501-50.8006 48.0301-52.0006C50.1101-53.2007 52.8301-52.4807 54.0301-50.4006C56.5901-46.0006 57.9501-40.9606 57.9501-35.8406C57.9501-30.7206 56.5901-25.6806 54.0301-21.2806C53.3901-20.1607 52.2701-19.3606 50.9901-19.2007C49.7101-18.9606 48.4301-19.3606 47.3901-20.1607L22.2701-41.2007C21.7901-39.5206 21.6301-37.7607 21.6301-35.9207C21.6301-32.4006 22.5901-28.8807 24.3501-25.8406C25.5501-23.7607 24.8301-21.0407 22.7501-19.8406C22.0301-19.4407 21.2301-19.2007 20.5101-19.2007Z"/>
  </g>
  <g id="Regular-S" transform="matrix(1 0 0 1 1401.37 696)">
   <path class="hierarchical-0:secondary SFSymbolsPreview4D4D4D" d="M73.8701 0.602791C73.3901 0.602791 72.9901 0.522774 72.5101 0.282784C70.9101-0.437217 70.1901-2.35723 70.9101-3.95721C75.4701-14.0372 77.7901-24.5972 77.7901-35.3972C77.7901-46.2772 75.4701-56.9172 70.8301-66.8372C70.1101-68.4372 70.7501-70.3572 72.3501-71.0772C73.9501-71.7972 75.8701-71.1572 76.5901-69.5572C81.6301-58.7572 84.1901-47.2372 84.1901-35.3972C84.1901-23.6372 81.7101-12.1172 76.7501-1.23724C76.2701-0.11721 75.0701 0.602791 73.8701 0.602791ZM61.4701-9.39721C60.9901-9.39721 60.5101-9.47723 60.1101-9.71722C58.5101-10.5172 57.8701-12.3572 58.5901-13.9572C61.7901-20.6772 63.3901-27.8772 63.3901-35.3972C63.3901-42.9972 61.7901-50.1972 58.5901-56.9172C57.7901-58.5172 58.5101-60.4372 60.1101-61.1572C61.7101-61.9572 63.6301-61.2372 64.3501-59.6372C67.9501-52.0372 69.7901-43.8772 69.7901-35.3172C69.7901-26.8372 67.9501-18.6772 64.3501-11.1572C63.7901-10.0372 62.6701-9.39721 61.4701-9.39721Z"/>
   <path class="hierarchical-1:primary SFSymbolsPreview212121" d="M19.3101-19.9572C18.1901-19.9572 17.1501-20.5172 16.5101-21.5572C14.0301-25.7972 12.7501-30.5972 12.7501-35.4772C12.7501-40.4372 14.0301-45.3172 16.5101-49.4772C16.9901-50.2772 17.7901-50.8372 18.7501-50.9972C19.7101-51.1572 20.5901-50.9172 21.3901-50.2772L47.9501-28.1972C48.7501-30.5172 49.2301-32.9172 49.2301-35.3972C49.2301-39.1572 48.1901-42.8372 46.3501-46.1172C45.4701-47.6372 45.9501-49.6372 47.4701-50.5172C48.9901-51.3972 50.9901-50.9172 51.8701-49.3972C54.3501-45.1572 55.6301-40.3572 55.6301-35.4772C55.6301-30.5972 54.3501-25.7972 51.8701-21.5572C51.3901-20.7572 50.5901-20.1972 49.6301-20.0372C48.6701-19.8772 47.7901-20.1172 46.9901-20.7572L20.4301-42.8372C19.6301-40.5172 19.1501-38.0372 19.1501-35.5572C19.1501-31.7972 20.1901-28.1172 22.0301-24.8372C22.9101-23.3172 22.4301-21.3172 20.9101-20.4372C20.4301-20.1172 19.8701-19.9572 19.3101-19.9572Z"/>
  </g>
 </g>
</svg>
