<?xml version="1.0" encoding="UTF-8"?>
<!--Generator: Apple Native CoreSVG 175-->
<!DOCTYPE svg
PUBLIC "-//W3C//DTD SVG 1.1//EN"
       "http://www.w3.org/Graphics/SVG/1.1/DTD/svg11.dtd">
<svg version="1.1" xmlns="http://www.w3.org/2000/svg" xmlns:xlink="http://www.w3.org/1999/xlink" width="3300" height="2200">
 <!--glyph: "", point size: 100.0, font version: "17.1d1e1", template writer version: "65.1"-->
 <style>.hierarchical-0:secondary {fill:#4D4D4D}
.hierarchical-1:primary {fill:#212121}

.SFSymbolsPreview212121 {fill:#212121;opacity:1.0}
.SFSymbolsPreview4D4D4D {fill:#4D4D4D;opacity:1.0}
</style>
 <g id="Notes">
  <rect height="2200" id="artboard" style="fill:white;opacity:1" width="3300" x="0" y="0"/>
  <line style="fill:none;stroke:black;opacity:1;stroke-width:0.5;" x1="263" x2="3036" y1="292" y2="292"/>
  <text style="stroke:none;fill:black;font-family:sans-serif;font-size:13;font-weight:bold;" transform="matrix(1 0 0 1 263 322)">Weight/Scale Variations</text>
  <text style="stroke:none;fill:black;font-family:sans-serif;font-size:13;text-anchor:middle;" transform="matrix(1 0 0 1 559.711 322)">Ultralight</text>
  <text style="stroke:none;fill:black;font-family:sans-serif;font-size:13;text-anchor:middle;" transform="matrix(1 0 0 1 856.422 322)">Thin</text>
  <text style="stroke:none;fill:black;font-family:sans-serif;font-size:13;text-anchor:middle;" transform="matrix(1 0 0 1 1153.13 322)">Light</text>
  <text style="stroke:none;fill:black;font-family:sans-serif;font-size:13;text-anchor:middle;" transform="matrix(1 0 0 1 1449.84 322)">Regular</text>
  <text style="stroke:none;fill:black;font-family:sans-serif;font-size:13;text-anchor:middle;" transform="matrix(1 0 0 1 1746.56 322)">Medium</text>
  <text style="stroke:none;fill:black;font-family:sans-serif;font-size:13;text-anchor:middle;" transform="matrix(1 0 0 1 2043.27 322)">Semibold</text>
  <text style="stroke:none;fill:black;font-family:sans-serif;font-size:13;text-anchor:middle;" transform="matrix(1 0 0 1 2339.98 322)">Bold</text>
  <text style="stroke:none;fill:black;font-family:sans-serif;font-size:13;text-anchor:middle;" transform="matrix(1 0 0 1 2636.69 322)">Heavy</text>
  <text style="stroke:none;fill:black;font-family:sans-serif;font-size:13;text-anchor:middle;" transform="matrix(1 0 0 1 2933.4 322)">Black</text>
  <line style="fill:none;stroke:black;opacity:1;stroke-width:0.5;" x1="263" x2="3036" y1="1903" y2="1903"/>
  <g transform="matrix(1 0 0 1 263 1933)">
   <path d="M9.24805 0.830078Q10.8691 0.830078 12.2949 0.214844Q13.7207-0.400391 14.8096-1.49414Q15.8984-2.58789 16.5186-4.01367Q17.1387-5.43945 17.1387-7.05078Q17.1387-8.66211 16.5186-10.0879Q15.8984-11.5137 14.8047-12.6074Q13.7109-13.7012 12.2852-14.3164Q10.8594-14.9316 9.23828-14.9316Q7.62695-14.9316 6.20117-14.3164Q4.77539-13.7012 3.69141-12.6074Q2.60742-11.5137 1.9873-10.0879Q1.36719-8.66211 1.36719-7.05078Q1.36719-5.43945 1.9873-4.01367Q2.60742-2.58789 3.69629-1.49414Q4.78516-0.400391 6.21094 0.214844Q7.63672 0.830078 9.24805 0.830078ZM9.24805-0.654297Q7.91992-0.654297 6.7627-1.14746Q5.60547-1.64062 4.73145-2.51953Q3.85742-3.39844 3.36426-4.56055Q2.87109-5.72266 2.87109-7.05078Q2.87109-8.37891 3.35938-9.54102Q3.84766-10.7031 4.72168-11.582Q5.5957-12.4609 6.75293-12.9541Q7.91016-13.4473 9.23828-13.4473Q10.5762-13.4473 11.7334-12.9541Q12.8906-12.4609 13.7695-11.582Q14.6484-10.7031 15.1465-9.54102Q15.6445-8.37891 15.6445-7.05078Q15.6445-5.72266 15.1514-4.56055Q14.6582-3.39844 13.7842-2.51953Q12.9102-1.64062 11.748-1.14746Q10.5859-0.654297 9.24805-0.654297ZM5.6543-7.05078Q5.6543-6.72852 5.85938-6.52832Q6.06445-6.32812 6.40625-6.32812L8.51562-6.32812L8.51562-4.20898Q8.51562-3.88672 8.71094-3.67676Q8.90625-3.4668 9.23828-3.4668Q9.56055-3.4668 9.77051-3.67676Q9.98047-3.88672 9.98047-4.20898L9.98047-6.32812L12.0898-6.32812Q12.4219-6.32812 12.627-6.52832Q12.832-6.72852 12.832-7.05078Q12.832-7.38281 12.627-7.58789Q12.4219-7.79297 12.0898-7.79297L9.98047-7.79297L9.98047-9.90234Q9.98047-10.2344 9.77051-10.4443Q9.56055-10.6543 9.23828-10.6543Q8.90625-10.6543 8.71094-10.4443Q8.51562-10.2344 8.51562-9.90234L8.51562-7.79297L6.40625-7.79297Q6.06445-7.79297 5.85938-7.58789Q5.6543-7.38281 5.6543-7.05078Z"/>
  </g>
  <g transform="matrix(1 0 0 1 281.867 1933)">
   <path d="M11.709 2.91016Q13.75 2.91016 15.5518 2.12891Q17.3535 1.34766 18.7305-0.0292969Q20.1074-1.40625 20.8887-3.20801Q21.6699-5.00977 21.6699-7.05078Q21.6699-9.0918 20.8887-10.8936Q20.1074-12.6953 18.7305-14.0723Q17.3535-15.4492 15.5469-16.2305Q13.7402-17.0117 11.6992-17.0117Q9.6582-17.0117 7.85645-16.2305Q6.05469-15.4492 4.68262-14.0723Q3.31055-12.6953 2.5293-10.8936Q1.74805-9.0918 1.74805-7.05078Q1.74805-5.00977 2.5293-3.20801Q3.31055-1.40625 4.6875-0.0292969Q6.06445 1.34766 7.86621 2.12891Q9.66797 2.91016 11.709 2.91016ZM11.709 1.25Q9.98047 1.25 8.47656 0.605469Q6.97266-0.0390625 5.83496-1.17676Q4.69727-2.31445 4.05762-3.81836Q3.41797-5.32227 3.41797-7.05078Q3.41797-8.7793 4.05762-10.2832Q4.69727-11.7871 5.83008-12.9297Q6.96289-14.0723 8.4668-14.7119Q9.9707-15.3516 11.6992-15.3516Q13.4277-15.3516 14.9316-14.7119Q16.4355-14.0723 17.5781-12.9297Q18.7207-11.7871 19.3652-10.2832Q20.0098-8.7793 20.0098-7.05078Q20.0098-5.32227 19.3701-3.81836Q18.7305-2.31445 17.5928-1.17676Q16.4551-0.0390625 14.9463 0.605469Q13.4375 1.25 11.709 1.25ZM7.17773-7.05078Q7.17773-6.69922 7.41211-6.47461Q7.64648-6.25 8.01758-6.25L10.8887-6.25L10.8887-3.36914Q10.8887-2.99805 11.1133-2.76855Q11.3379-2.53906 11.6895-2.53906Q12.0605-2.53906 12.29-2.76855Q12.5195-2.99805 12.5195-3.36914L12.5195-6.25L15.4004-6.25Q15.7715-6.25 16.001-6.47461Q16.2305-6.69922 16.2305-7.05078Q16.2305-7.42188 16.001-7.65137Q15.7715-7.88086 15.4004-7.88086L12.5195-7.88086L12.5195-10.752Q12.5195-11.1328 12.29-11.3623Q12.0605-11.5918 11.6895-11.5918Q11.3379-11.5918 11.1133-11.3574Q10.8887-11.123 10.8887-10.752L10.8887-7.88086L8.01758-7.88086Q7.63672-7.88086 7.40723-7.65137Q7.17773-7.42188 7.17773-7.05078Z"/>
  </g>
  <g transform="matrix(1 0 0 1 305.646 1933)">
   <path d="M14.9707 5.66406Q17.0605 5.66406 18.96 5.01465Q20.8594 4.36523 22.4512 3.19336Q24.043 2.02148 25.2197 0.429688Q26.3965-1.16211 27.0459-3.06641Q27.6953-4.9707 27.6953-7.05078Q27.6953-9.14062 27.0459-11.04Q26.3965-12.9395 25.2197-14.5312Q24.043-16.123 22.4512-17.2998Q20.8594-18.4766 18.9551-19.126Q17.0508-19.7754 14.9609-19.7754Q12.8711-19.7754 10.9717-19.126Q9.07227-18.4766 7.48535-17.2998Q5.89844-16.123 4.72168-14.5312Q3.54492-12.9395 2.90039-11.04Q2.25586-9.14062 2.25586-7.05078Q2.25586-4.9707 2.90527-3.06641Q3.55469-1.16211 4.72656 0.429688Q5.89844 2.02148 7.49023 3.19336Q9.08203 4.36523 10.9814 5.01465Q12.8809 5.66406 14.9707 5.66406ZM14.9707 3.84766Q13.1641 3.84766 11.5283 3.2959Q9.89258 2.74414 8.53516 1.74805Q7.17773 0.751953 6.17676-0.610352Q5.17578-1.97266 4.62891-3.6084Q4.08203-5.24414 4.08203-7.05078Q4.08203-8.86719 4.62891-10.5029Q5.17578-12.1387 6.17188-13.501Q7.16797-14.8633 8.52539-15.8594Q9.88281-16.8555 11.5186-17.4023Q13.1543-17.9492 14.9609-17.9492Q16.7773-17.9492 18.4131-17.4023Q20.0488-16.8555 21.4111-15.8594Q22.7734-14.8633 23.7695-13.501Q24.7656-12.1387 25.3174-10.5029Q25.8691-8.86719 25.8691-7.05078Q25.8789-5.24414 25.332-3.6084Q24.7852-1.97266 23.7842-0.610352Q22.7832 0.751953 21.4209 1.74805Q20.0586 2.74414 18.4229 3.2959Q16.7871 3.84766 14.9707 3.84766ZM9.19922-7.05078Q9.19922-6.66992 9.45801-6.4209Q9.7168-6.17188 10.1172-6.17188L14.0625-6.17188L14.0625-2.2168Q14.0625-1.81641 14.3115-1.55762Q14.5605-1.29883 14.9512-1.29883Q15.3516-1.29883 15.6104-1.55273Q15.8691-1.80664 15.8691-2.2168L15.8691-6.17188L19.8242-6.17188Q20.2246-6.17188 20.4785-6.4209Q20.7324-6.66992 20.7324-7.05078Q20.7324-7.46094 20.4785-7.71484Q20.2246-7.96875 19.8242-7.96875L15.8691-7.96875L15.8691-11.9141Q15.8691-12.3242 15.6104-12.583Q15.3516-12.8418 14.9512-12.8418Q14.5605-12.8418 14.3115-12.583Q14.0625-12.3242 14.0625-11.9141L14.0625-7.96875L10.1172-7.96875Q9.70703-7.96875 9.45312-7.71484Q9.19922-7.46094 9.19922-7.05078Z"/>
  </g>
  <text style="stroke:none;fill:black;font-family:sans-serif;font-size:13;font-weight:bold;" transform="matrix(1 0 0 1 263 1953)">Design Variations</text>
  <text style="stroke:none;fill:black;font-family:sans-serif;font-size:13;" transform="matrix(1 0 0 1 263 1971)">Symbols are supported in up to nine weights and three scales.</text>
  <text style="stroke:none;fill:black;font-family:sans-serif;font-size:13;" transform="matrix(1 0 0 1 263 1989)">For optimal layout with text and other symbols, vertically align</text>
  <text style="stroke:none;fill:black;font-family:sans-serif;font-size:13;" transform="matrix(1 0 0 1 263 2007)">symbols with the adjacent text.</text>
  <line style="fill:none;stroke:#00AEEF;stroke-width:0.5;opacity:1.0;" x1="776" x2="776" y1="1919" y2="1933"/>
  <g transform="matrix(1 0 0 1 776 1933)">
   <path d="M3.31055 0.15625Q3.70117 0.15625 3.91602-0.00976562Q4.13086-0.175781 4.26758-0.585938L5.52734-4.0332L11.2891-4.0332L12.5488-0.585938Q12.6855-0.175781 12.9004-0.00976562Q13.1152 0.15625 13.4961 0.15625Q13.8867 0.15625 14.1162-0.0585938Q14.3457-0.273438 14.3457-0.644531Q14.3457-0.869141 14.2383-1.17188L9.6582-13.3691Q9.48242-13.8184 9.17969-14.043Q8.87695-14.2676 8.4082-14.2676Q7.5-14.2676 7.17773-13.3789L2.59766-1.16211Q2.49023-0.859375 2.49023-0.634766Q2.49023-0.263672 2.70996-0.0537109Q2.92969 0.15625 3.31055 0.15625ZM6.00586-5.51758L8.37891-12.0898L8.42773-12.0898L10.8008-5.51758Z"/>
  </g>
  <line style="fill:none;stroke:#00AEEF;stroke-width:0.5;opacity:1.0;" x1="793.197" x2="793.197" y1="1919" y2="1933"/>
  <text style="stroke:none;fill:black;font-family:sans-serif;font-size:13;font-weight:bold;" transform="matrix(1 0 0 1 776 1953)">Margins</text>
  <text style="stroke:none;fill:black;font-family:sans-serif;font-size:13;" transform="matrix(1 0 0 1 776 1971)">Leading and trailing margins on the left and right side of each symbol</text>
  <text style="stroke:none;fill:black;font-family:sans-serif;font-size:13;" transform="matrix(1 0 0 1 776 1989)">can be adjusted by modifying the x-location of the margin guidelines.</text>
  <text style="stroke:none;fill:black;font-family:sans-serif;font-size:13;" transform="matrix(1 0 0 1 776 2007)">Modifications are automatically applied proportionally to all</text>
  <text style="stroke:none;fill:black;font-family:sans-serif;font-size:13;" transform="matrix(1 0 0 1 776 2025)">scales and weights.</text>
  <g transform="matrix(1 0 0 1 1289 1933)">
   <path d="M2.8418 1.86523L4.54102 3.57422Q5.18555 4.22852 5.90332 4.17969Q6.62109 4.13086 7.31445 3.35938L18.0078-8.42773L17.041-9.4043L6.42578 2.27539Q6.16211 2.57812 5.89355 2.61719Q5.625 2.65625 5.27344 2.30469L4.10156 1.14258Q3.75 0.791016 3.79395 0.522461Q3.83789 0.253906 4.14062-0.0195312L15.6152-10.8203L14.6387-11.7871L3.04688-0.898438Q2.30469-0.214844 2.25098 0.498047Q2.19727 1.21094 2.8418 1.86523ZM9.25781-16.3281Q8.94531-16.0254 8.90625-15.6348Q8.86719-15.2441 9.04297-14.9512Q9.21875-14.6777 9.55566-14.541Q9.89258-14.4043 10.3809-14.5215Q11.4746-14.7754 12.5977-14.7314Q13.7207-14.6875 14.7949-13.9844L14.209-12.5293Q13.9551-11.9043 14.0674-11.4404Q14.1797-10.9766 14.5801-10.5664L16.875-8.25195Q17.2363-7.88086 17.5781-7.82227Q17.9199-7.76367 18.3398-7.8418L19.4043-8.03711L20.0684-7.36328L20.0293-6.80664Q20-6.43555 20.1221-6.12305Q20.2441-5.81055 20.6055-5.44922L21.3672-4.70703Q21.7285-4.3457 22.1533-4.33105Q22.5781-4.31641 22.9297-4.66797L25.8398-7.58789Q26.1914-7.93945 26.1816-8.35449Q26.1719-8.76953 25.8105-9.13086L25.0391-9.89258Q24.6875-10.2539 24.3799-10.3857Q24.0723-10.5176 23.7109-10.4883L23.1348-10.4395L22.4902-11.0742L22.7344-12.1973Q22.832-12.6172 22.6953-12.9834Q22.5586-13.3496 22.1191-13.7891L19.9219-15.9766Q18.6719-17.2168 17.2607-17.8369Q15.8496-18.457 14.4189-18.4814Q12.9883-18.5059 11.665-17.959Q10.3418-17.4121 9.25781-16.3281ZM10.752-15.957Q11.6602-16.6211 12.7002-16.9043Q13.7402-17.1875 14.8047-17.085Q15.8691-16.9824 16.8701-16.5137Q17.8711-16.0449 18.7012-15.2051L21.1328-12.793Q21.3086-12.6172 21.3525-12.4512Q21.3965-12.2852 21.3379-12.0312L21.0156-10.5469L22.5195-9.0625L23.5059-9.12109Q23.6914-9.13086 23.7891-9.09668Q23.8867-9.0625 24.0332-8.91602L24.6094-8.33984L22.168-5.89844L21.5918-6.47461Q21.4453-6.62109 21.4062-6.71875Q21.3672-6.81641 21.377-7.01172L21.4453-7.98828L19.9512-9.47266L18.4277-9.21875Q18.1836-9.16992 18.042-9.2041Q17.9004-9.23828 17.7148-9.41406L15.7129-11.416Q15.5176-11.5918 15.4932-11.7529Q15.4688-11.9141 15.5859-12.1875L16.4648-14.2773Q15.293-15.3711 13.8281-15.791Q12.3633-16.2109 10.8398-15.7617Q10.7227-15.7324 10.6885-15.8057Q10.6543-15.8789 10.752-15.957Z"/>
  </g>
  <text style="stroke:none;fill:black;font-family:sans-serif;font-size:13;font-weight:bold;" transform="matrix(1 0 0 1 1289 1953)">Exporting</text>
  <text style="stroke:none;fill:black;font-family:sans-serif;font-size:13;" transform="matrix(1 0 0 1 1289 1971)">Symbols should be outlined when exporting to ensure the</text>
  <text style="stroke:none;fill:black;font-family:sans-serif;font-size:13;" transform="matrix(1 0 0 1 1289 1989)">design is preserved when submitting to Xcode.</text>
  <text id="template-version" style="stroke:none;fill:black;font-family:sans-serif;font-size:13;text-anchor:end;" transform="matrix(1 0 0 1 3036 1933)">Template v.3.0</text>
  <text style="stroke:none;fill:black;font-family:sans-serif;font-size:13;text-anchor:end;" transform="matrix(1 0 0 1 3036 1951)">Requires Xcode 13 or greater</text>
  <text id="descriptive-name" style="stroke:none;fill:black;font-family:sans-serif;font-size:13;text-anchor:end;" transform="matrix(1 0 0 1 3036 1969)">Generated from seed.circle</text>
  <text style="stroke:none;fill:black;font-family:sans-serif;font-size:13;text-anchor:end;" transform="matrix(1 0 0 1 3036 1987)">Typeset at 100 points</text>
  <text style="stroke:none;fill:black;font-family:sans-serif;font-size:13;" transform="matrix(1 0 0 1 263 726)">Small</text>
  <text style="stroke:none;fill:black;font-family:sans-serif;font-size:13;" transform="matrix(1 0 0 1 263 1156)">Medium</text>
  <text style="stroke:none;fill:black;font-family:sans-serif;font-size:13;" transform="matrix(1 0 0 1 263 1586)">Large</text>
 </g>
 <g id="Guides">
  <g id="H-reference" style="fill:#27AAE1;stroke:none;" transform="matrix(1 0 0 1 339 696)">
   <path d="M0.993347 0L3.6377 0L29.3282-67.1326L30.0301-67.1326L30.0301-70.459L28.1227-70.459ZM11.6882-24.4797L46.9818-24.4797L46.2311-26.7288L12.4382-26.7288ZM55.1193 0L57.7637 0L30.6381-70.459L29.4327-70.459L29.4327-67.1326Z"/>
  </g>
  <line id="Baseline-S" style="fill:none;stroke:#27AAE1;opacity:1;stroke-width:0.5;" x1="263" x2="3036" y1="696" y2="696"/>
  <line id="Capline-S" style="fill:none;stroke:#27AAE1;opacity:1;stroke-width:0.5;" x1="263" x2="3036" y1="625.541" y2="625.541"/>
  <g id="H-reference" style="fill:#27AAE1;stroke:none;" transform="matrix(1 0 0 1 339 1126)">
   <path d="M0.993347 0L3.6377 0L29.3282-67.1326L30.0301-67.1326L30.0301-70.459L28.1227-70.459ZM11.6882-24.4797L46.9818-24.4797L46.2311-26.7288L12.4382-26.7288ZM55.1193 0L57.7637 0L30.6381-70.459L29.4327-70.459L29.4327-67.1326Z"/>
  </g>
  <line id="Baseline-M" style="fill:none;stroke:#27AAE1;opacity:1;stroke-width:0.5;" x1="263" x2="3036" y1="1126" y2="1126"/>
  <line id="Capline-M" style="fill:none;stroke:#27AAE1;opacity:1;stroke-width:0.5;" x1="263" x2="3036" y1="1055.54" y2="1055.54"/>
  <g id="H-reference" style="fill:#27AAE1;stroke:none;" transform="matrix(1 0 0 1 339 1556)">
   <path d="M0.993347 0L3.6377 0L29.3282-67.1326L30.0301-67.1326L30.0301-70.459L28.1227-70.459ZM11.6882-24.4797L46.9818-24.4797L46.2311-26.7288L12.4382-26.7288ZM55.1193 0L57.7637 0L30.6381-70.459L29.4327-70.459L29.4327-67.1326Z"/>
  </g>
  <line id="Baseline-L" style="fill:none;stroke:#27AAE1;opacity:1;stroke-width:0.5;" x1="263" x2="3036" y1="1556" y2="1556"/>
  <line id="Capline-L" style="fill:none;stroke:#27AAE1;opacity:1;stroke-width:0.5;" x1="263" x2="3036" y1="1485.54" y2="1485.54"/>
  <line id="left-margin-Regular-M" style="fill:none;stroke:#00AEEF;stroke-width:0.5;opacity:1.0;" x1="1391.29" x2="1391.29" y1="1030.78" y2="1150.12"/>
  <line id="right-margin-Regular-M" style="fill:none;stroke:#00AEEF;stroke-width:0.5;opacity:1.0;" x1="1508.39" x2="1508.39" y1="1030.78" y2="1150.12"/>
 </g>
 <g id="Symbols">
  <g id="Semibold-L" transform="matrix(1 0 0 1 1968.42 1556)">
   <path class="hierarchical-0:secondary SFSymbolsPreview4D4D4D" d="M74.7999 31.1355C111.2 31.1355 141.1 1.10547 141.1-35.2946C141.1-71.6945 111.07-101.594 74.8-101.594C38.4-101.594 8.5-71.6945 8.5-35.2946C8.5 1.10547 38.3999 31.1355 74.7999 31.1355ZM74.7999 16.1855C46.33 16.1855 23.45-6.82446 23.45-35.2946C23.45-63.7645 46.2-86.7745 74.7999-86.7745C103.27-86.7745 126.28-63.8945 126.28-35.2946C126.28-6.69446 103.27 16.1855 74.7999 16.1855Z"/>
   <path class="hierarchical-1:primary SFSymbolsPreview212121" d="M70.8998-39.1295C68.9257-39.1295 67.3248-40.7303 67.3248-42.7045C67.3248-60.6608 81.9333-75.2693 99.8896-75.2693C101.864-75.2693 103.465-73.6685 103.465-71.6942C103.465-53.738 88.856-39.1295 70.8998-39.1295ZM70.8998-20.6692C52.9436-20.6692 38.335-35.2777 38.335-53.2346C38.335-55.2089 39.9359-56.8096 41.9099-56.8096C59.8662-56.8096 74.4749-42.2012 74.4749-24.2443C74.4749-22.27 72.8739-20.6692 70.8998-20.6692ZM70.8998 13.7808C68.9257 13.7808 67.3248 12.1799 67.3248 10.2058L67.3248-42.7045C67.3248-44.6787 68.9257-46.2795 70.8998-46.2795C72.8739-46.2795 74.4749-44.6787 74.4749-42.7045L74.4749 10.2058C74.4749 12.1799 72.8739 13.7808 70.8998 13.7808ZM96.02-67.8253C85.0994-66.1497 76.4437-57.4946 74.7693-46.5735C85.6897-48.2491 94.3455-56.9043 96.02-67.8253ZM45.7795-49.3657C47.454-38.4427 56.1084-29.7888 67.0303-28.1132C65.3557-39.0361 56.7013-47.6899 45.7795-49.3657ZM70.8998-2.59998C68.9257-2.59998 67.3248-4.20081 67.3248-6.17505C67.3248-24.1312 81.9333-38.7397 99.8896-38.7397C101.864-38.7397 103.465-37.1389 103.465-35.1648C103.465-17.2085 88.856-2.59998 70.8998-2.59998ZM96.02-31.2958C85.0994-29.6201 76.4437-20.965 74.7693-10.0446C85.6897-11.719 94.3455-20.3746 96.02-31.2958Z"/>
  </g>
  <g id="Regular-L" transform="matrix(1 0 0 1 1376.29 1556)">
   <path class="hierarchical-0:secondary SFSymbolsPreview4D4D4D" d="M73.5-100.28C37.62-100.28 8.5-71.1595 8.5-35.2795C8.5 0.600464 37.62 29.7205 73.5 29.7205C109.38 29.7205 138.5 0.600464 138.5-35.2795C138.5-71.1595 109.51-100.28 73.5-100.28L73.5-100.28ZM73.4309 19.3895C43.1973 19.3895 18.9-5.0459 18.9-35.2795C18.9-65.5132 43.0593-89.9485 73.4309-89.9485C103.665-89.9485 128.1-65.6511 128.1-35.2795C128.1-4.90784 103.665 19.3895 73.4309 19.3895Z"/>
   <path class="hierarchical-1:primary SFSymbolsPreview212121" d="M69.5996-39.6997C67.8044-39.6997 66.3496-41.1545 66.3496-42.9497C66.3496-61.9458 81.8036-77.3998 100.8-77.3998C102.595-77.3998 104.05-75.9449 104.05-74.1498C104.05-55.1538 88.5956-39.6997 69.5996-39.6997ZM69.5996-19.8101C50.6036-19.8101 35.1497-35.264 35.1497-54.2594C35.1497-56.0546 36.6045-57.5094 38.3997-57.5094C57.3956-57.5094 72.8496-42.0553 72.8496-23.0601C72.8496-21.2649 71.3948-19.8101 69.5996-19.8101ZM69.5996 17.24C67.8044 17.24 66.3496 15.7852 66.3496 13.99L66.3496-42.9497C66.3496-44.7449 67.8044-46.1997 69.5996-46.1997C71.3948-46.1997 72.8496-44.7449 72.8496-42.9497L72.8496 13.99C72.8496 15.7852 71.3948 17.24 69.5996 17.24ZM97.3363-70.6864C84.6886-69.1154 74.634-59.0608 73.063-46.4131C85.7107-47.9841 95.7653-58.0387 97.3363-70.6864ZM41.8629-50.796C43.434-38.149 53.4886-28.0942 66.1362-26.5233C64.5652-39.1704 54.5106-49.225 41.8629-50.796ZM69.5996-0.310059C67.8044-0.310059 66.3496-1.76489 66.3496-3.56006C66.3496-22.556 81.8036-38.0094 100.8-38.0094C102.595-38.0094 104.05-36.5546 104.05-34.7594C104.05-15.764 88.5956-0.310059 69.5996-0.310059ZM97.3363-31.296C84.6886-29.725 74.634-19.6704 73.063-7.02332C85.7107-8.59375 95.7653-18.6483 97.3363-31.296Z"/>
  </g>
  <g id="Semibold-M" transform="matrix(1 0 0 1 1983.72 1126)">
   <path class="hierarchical-0:secondary SFSymbolsPreview4D4D4D" d="M59.4999 15.8C87.5 15.8 110.5-7.30005 110.5-35.3C110.5-63.3 87.3999-86.3 59.5-86.3C31.5-86.3 8.5-63.3 8.5-35.3C8.5-7.30005 31.4999 15.8 59.4999 15.8ZM59.4999 4.30005C37.5999 4.30005 19.9999-13.4 19.9999-35.3C19.9999-57.2 37.4999-74.9 59.4999-74.9C81.3999-74.9 99.0999-57.3 99.0999-35.3C99.0999-13.3 81.3999 4.30005 59.4999 4.30005Z"/>
   <path class="hierarchical-1:primary SFSymbolsPreview212121" d="M56.4998-38.25C54.9812-38.25 53.7498-39.4814 53.7498-41C53.7498-54.8125 64.9871-66.0498 78.7996-66.0498C80.3181-66.0498 81.5496-64.8184 81.5496-63.2998C81.5496-49.4873 70.3123-38.25 56.4998-38.25ZM56.4998-24.0498C42.6873-24.0498 31.45-35.2871 31.45-49.1001C31.45-50.6187 32.6814-51.8501 34.2-51.8501C48.0125-51.8501 59.2498-40.6128 59.2498-26.7998C59.2498-25.2812 58.0183-24.0498 56.4998-24.0498ZM56.4998 2.4502C54.9812 2.4502 53.7498 1.21875 53.7498-0.299805L53.7498-41C53.7498-42.5186 54.9812-43.75 56.4998-43.75C58.0183-43.75 59.2498-42.5186 59.2498-41L59.2498-0.299805C59.2498 1.21875 58.0183 2.4502 56.4998 2.4502ZM75.823-60.3237C67.4226-59.0347 60.7644-52.377 59.4763-43.9761C67.8767-45.2651 74.5349-51.9229 75.823-60.3237ZM37.1765-46.124C38.4646-37.7217 45.1218-31.0649 53.5232-29.7759C52.2351-38.1782 45.5779-44.835 37.1765-46.124ZM56.4998-10.1504C54.9812-10.1504 53.7498-11.3818 53.7498-12.9004C53.7498-26.7129 64.9871-37.9502 78.7996-37.9502C80.3181-37.9502 81.5496-36.7188 81.5496-35.2002C81.5496-21.3877 70.3123-10.1504 56.4998-10.1504ZM75.823-32.2241C67.4226-30.9351 60.7644-24.2773 59.4763-15.877C67.8767-17.165 74.5349-23.8232 75.823-32.2241Z"/>
  </g>
  <g id="Regular-M" transform="matrix(1 0 0 1 1391.29 1126)">
   <path class="hierarchical-0:secondary SFSymbolsPreview4D4D4D" d="M58.5-85.3C30.9-85.3 8.5-62.9 8.5-35.3C8.5-7.69995 30.9 14.7 58.5 14.7C86.1 14.7 108.5-7.69995 108.5-35.3C108.5-62.9 86.2-85.3 58.5-85.3L58.5-85.3ZM58.4469 6.75305C35.1902 6.75305 16.5-12.0433 16.5-35.3C16.5-58.5566 35.084-77.3531 58.4469-77.3531C81.7035-77.3531 100.5-58.6628 100.5-35.3C100.5-11.9371 81.7035 6.75305 58.4469 6.75305Z"/>
   <path class="hierarchical-1:primary SFSymbolsPreview212121" d="M55.4998-38.7002C54.1188-38.7002 52.9998-39.8193 52.9998-41.2002C52.9998-55.8125 64.8875-67.7002 79.4998-67.7002C80.8806-67.7002 81.9998-66.5811 81.9998-65.2002C81.9998-50.5879 70.1121-38.7002 55.4998-38.7002ZM55.4998-23.4004C40.8875-23.4004 28.9998-35.2881 28.9998-49.8999C28.9998-51.2808 30.1188-52.3999 31.4998-52.3999C46.1121-52.3999 57.9998-40.5122 57.9998-25.9004C57.9998-24.5195 56.8806-23.4004 55.4998-23.4004ZM55.4998 5.09961C54.1188 5.09961 52.9998 3.98047 52.9998 2.59961L52.9998-41.2002C52.9998-42.5811 54.1188-43.7002 55.4998-43.7002C56.8806-43.7002 57.9998-42.5811 57.9998-41.2002L57.9998 2.59961C57.9998 3.98047 56.8806 5.09961 55.4998 5.09961ZM76.8356-62.5361C67.1066-61.3276 59.3723-53.5933 58.1638-43.8643C67.8928-45.0728 75.6271-52.8071 76.8356-62.5361ZM34.1638-47.2358C35.3723-37.5073 43.1066-29.7729 52.8356-28.5645C51.6271-38.293 43.8928-46.0273 34.1638-47.2358ZM55.4998-8.40039C54.1188-8.40039 52.9998-9.51953 52.9998-10.9004C52.9998-25.5127 64.8875-37.3999 79.4998-37.3999C80.8806-37.3999 81.9998-36.2808 81.9998-34.8999C81.9998-20.2881 70.1121-8.40039 55.4998-8.40039ZM76.8356-32.2358C67.1066-31.0273 59.3723-23.293 58.1638-13.5645C67.8928-14.7725 75.6271-22.5068 76.8356-32.2358Z"/>
  </g>
  <g id="Semibold-S" transform="matrix(1 0 0 1 1993.92 696)">
   <path class="hierarchical-0:secondary SFSymbolsPreview4D4D4D" d="M49.2999 5.61047C71.7 5.61047 90.1001-12.8695 90.1001-35.2695C90.1001-57.6695 71.6201-76.0695 49.3-76.0695C26.9-76.0695 8.5-57.6695 8.5-35.2695C8.5-12.8695 26.9 5.61047 49.2999 5.61047ZM49.2999-3.58948C31.7799-3.58948 17.7-17.7495 17.7-35.2695C17.7-52.7895 31.7-66.9495 49.2999-66.9495C66.8201-66.9495 80.98-52.8695 80.98-35.2695C80.98-17.6695 66.8201-3.58948 49.2999-3.58948Z"/>
   <path class="hierarchical-1:primary SFSymbolsPreview212121" d="M46.8999-37.6295C45.6851-37.6295 44.6998-38.6146 44.6998-39.8295C44.6998-50.8795 53.6897-59.8693 64.7397-59.8693C65.9546-59.8693 66.9397-58.8842 66.9397-57.6693C66.9397-46.6193 57.95-37.6295 46.8999-37.6295ZM46.8999-26.2693C35.8499-26.2693 26.86-35.2592 26.86-46.3096C26.86-47.5245 27.8452-48.5096 29.0599-48.5096C40.11-48.5096 49.0999-39.5197 49.0999-28.4694C49.0999-27.2545 48.1146-26.2693 46.8999-26.2693ZM46.8999-5.06934C45.6851-5.06934 44.6998-6.0545 44.6998-7.26935L44.6998-39.8295C44.6998-41.0444 45.6851-42.0295 46.8999-42.0295C48.1146-42.0295 49.0999-41.0444 49.0999-39.8295L49.0999-7.26935C49.0999-6.0545 48.1146-5.06934 46.8999-5.06934ZM62.3584-55.2885C55.6382-54.2573 50.3115-48.9311 49.2811-42.2104C56.0015-43.2416 61.3279-48.5678 62.3584-55.2885ZM31.4413-43.9287C32.4717-37.2068 37.7975-31.8814 44.5186-30.8502C43.4882-37.5721 38.1624-42.8975 31.4413-43.9287ZM46.8999-15.1498C45.6851-15.1498 44.6998-16.1349 44.6998-17.3498C44.6998-28.3998 53.6897-37.3896 64.7397-37.3896C65.9546-37.3896 66.9397-36.4045 66.9397-35.1896C66.9397-24.1396 57.95-15.1498 46.8999-15.1498ZM62.3584-32.8088C55.6382-31.7776 50.3115-26.4514 49.2811-19.7311C56.0015-20.7615 61.3279-26.0881 62.3584-32.8088Z"/>
  </g>
  <g id="Regular-S" transform="matrix(1 0 0 1 1401.29 696)">
   <path class="hierarchical-0:secondary SFSymbolsPreview4D4D4D" d="M48.5-75.2795C26.42-75.2795 8.5-57.3595 8.5-35.2795C8.5-13.1995 26.42 4.72052 48.5 4.72052C70.58 4.72052 88.5-13.1995 88.5-35.2795C88.5-57.3595 70.6599-75.2795 48.5-75.2795L48.5-75.2795ZM48.4575-1.63702C29.8522-1.63702 14.9-16.6742 14.9-35.2795C14.9-53.8848 29.7672-68.922 48.4575-68.922C67.0629-68.922 82.1-53.9698 82.1-35.2795C82.1-16.5892 67.0629-1.63702 48.4575-1.63702Z"/>
   <path class="hierarchical-1:primary SFSymbolsPreview212121" d="M46.0997-37.9996C44.995-37.9996 44.0997-38.895 44.0997-39.9996C44.0997-51.6895 53.6099-61.1996 65.2998-61.1996C66.4044-61.1996 67.2998-60.3044 67.2998-59.1996C67.2998-47.5098 57.7896-37.9996 46.0997-37.9996ZM46.0997-25.7598C34.4099-25.7598 24.8998-35.27 24.8998-46.9594C24.8998-48.0641 25.795-48.9594 26.8998-48.9594C38.5896-48.9594 48.0997-39.4493 48.0997-27.7598C48.0997-26.6551 47.2045-25.7598 46.0997-25.7598ZM46.0997-2.95984C44.995-2.95984 44.0997-3.8551 44.0997-4.95984L44.0997-39.9996C44.0997-41.1044 44.995-41.9996 46.0997-41.9996C47.2045-41.9996 48.0997-41.1044 48.0997-39.9996L48.0997-4.95984C48.0997-3.8551 47.2045-2.95984 46.0997-2.95984ZM63.1685-57.0684C55.3853-56.1016 49.1979-49.9141 48.2311-42.1309C56.0143-43.0977 62.2017-49.2852 63.1685-57.0684ZM29.031-44.8281C29.9978-37.0453 36.1853-30.8578 43.9685-29.8911C43.0017-37.6739 36.8142-43.8613 29.031-44.8281ZM46.0997-13.7598C44.995-13.7598 44.0997-14.6552 44.0997-15.7598C44.0997-27.4496 53.6099-36.9594 65.2998-36.9594C66.4044-36.9594 67.2998-36.0641 67.2998-34.9594C67.2998-23.27 57.7896-13.7598 46.0997-13.7598ZM63.1685-32.8281C55.3853-31.8613 49.1979-25.6739 48.2311-17.8911C56.0143-18.8575 62.2017-25.0449 63.1685-32.8281Z"/>
  </g>
 </g>
</svg>
