<?xml version="1.0" encoding="UTF-8"?>
<!--Generator: Apple Native CoreSVG 175-->
<!DOCTYPE svg
PUBLIC "-//W3C//DTD SVG 1.1//EN"
       "http://www.w3.org/Graphics/SVG/1.1/DTD/svg11.dtd">
<svg version="1.1" xmlns="http://www.w3.org/2000/svg" xmlns:xlink="http://www.w3.org/1999/xlink" width="3300" height="2200">
 <!--glyph: "", point size: 100.0, font version: "17.1d1e1", template writer version: "65.1"-->
 <style>.hierarchical-0:secondary {fill:#4D4D4D}
.hierarchical-1:primary {fill:#212121}

.SFSymbolsPreview212121 {fill:#212121;opacity:1.0}
.SFSymbolsPreview4D4D4D {fill:#4D4D4D;opacity:1.0}
</style>
 <g id="Notes">
  <rect height="2200" id="artboard" style="fill:white;opacity:1" width="3300" x="0" y="0"/>
  <line style="fill:none;stroke:black;opacity:1;stroke-width:0.5;" x1="263" x2="3036" y1="292" y2="292"/>
  <text style="stroke:none;fill:black;font-family:sans-serif;font-size:13;font-weight:bold;" transform="matrix(1 0 0 1 263 322)">Weight/Scale Variations</text>
  <text style="stroke:none;fill:black;font-family:sans-serif;font-size:13;text-anchor:middle;" transform="matrix(1 0 0 1 559.711 322)">Ultralight</text>
  <text style="stroke:none;fill:black;font-family:sans-serif;font-size:13;text-anchor:middle;" transform="matrix(1 0 0 1 856.422 322)">Thin</text>
  <text style="stroke:none;fill:black;font-family:sans-serif;font-size:13;text-anchor:middle;" transform="matrix(1 0 0 1 1153.13 322)">Light</text>
  <text style="stroke:none;fill:black;font-family:sans-serif;font-size:13;text-anchor:middle;" transform="matrix(1 0 0 1 1449.84 322)">Regular</text>
  <text style="stroke:none;fill:black;font-family:sans-serif;font-size:13;text-anchor:middle;" transform="matrix(1 0 0 1 1746.56 322)">Medium</text>
  <text style="stroke:none;fill:black;font-family:sans-serif;font-size:13;text-anchor:middle;" transform="matrix(1 0 0 1 2043.27 322)">Semibold</text>
  <text style="stroke:none;fill:black;font-family:sans-serif;font-size:13;text-anchor:middle;" transform="matrix(1 0 0 1 2339.98 322)">Bold</text>
  <text style="stroke:none;fill:black;font-family:sans-serif;font-size:13;text-anchor:middle;" transform="matrix(1 0 0 1 2636.69 322)">Heavy</text>
  <text style="stroke:none;fill:black;font-family:sans-serif;font-size:13;text-anchor:middle;" transform="matrix(1 0 0 1 2933.4 322)">Black</text>
  <line style="fill:none;stroke:black;opacity:1;stroke-width:0.5;" x1="263" x2="3036" y1="1903" y2="1903"/>
  <g transform="matrix(1 0 0 1 263 1933)">
   <path d="M9.24805 0.830078Q10.8691 0.830078 12.2949 0.214844Q13.7207-0.400391 14.8096-1.49414Q15.8984-2.58789 16.5186-4.01367Q17.1387-5.43945 17.1387-7.05078Q17.1387-8.66211 16.5186-10.0879Q15.8984-11.5137 14.8047-12.6074Q13.7109-13.7012 12.2852-14.3164Q10.8594-14.9316 9.23828-14.9316Q7.62695-14.9316 6.20117-14.3164Q4.77539-13.7012 3.69141-12.6074Q2.60742-11.5137 1.9873-10.0879Q1.36719-8.66211 1.36719-7.05078Q1.36719-5.43945 1.9873-4.01367Q2.60742-2.58789 3.69629-1.49414Q4.78516-0.400391 6.21094 0.214844Q7.63672 0.830078 9.24805 0.830078ZM9.24805-0.654297Q7.91992-0.654297 6.7627-1.14746Q5.60547-1.64062 4.73145-2.51953Q3.85742-3.39844 3.36426-4.56055Q2.87109-5.72266 2.87109-7.05078Q2.87109-8.37891 3.35938-9.54102Q3.84766-10.7031 4.72168-11.582Q5.5957-12.4609 6.75293-12.9541Q7.91016-13.4473 9.23828-13.4473Q10.5762-13.4473 11.7334-12.9541Q12.8906-12.4609 13.7695-11.582Q14.6484-10.7031 15.1465-9.54102Q15.6445-8.37891 15.6445-7.05078Q15.6445-5.72266 15.1514-4.56055Q14.6582-3.39844 13.7842-2.51953Q12.9102-1.64062 11.748-1.14746Q10.5859-0.654297 9.24805-0.654297ZM5.6543-7.05078Q5.6543-6.72852 5.85938-6.52832Q6.06445-6.32812 6.40625-6.32812L8.51562-6.32812L8.51562-4.20898Q8.51562-3.88672 8.71094-3.67676Q8.90625-3.4668 9.23828-3.4668Q9.56055-3.4668 9.77051-3.67676Q9.98047-3.88672 9.98047-4.20898L9.98047-6.32812L12.0898-6.32812Q12.4219-6.32812 12.627-6.52832Q12.832-6.72852 12.832-7.05078Q12.832-7.38281 12.627-7.58789Q12.4219-7.79297 12.0898-7.79297L9.98047-7.79297L9.98047-9.90234Q9.98047-10.2344 9.77051-10.4443Q9.56055-10.6543 9.23828-10.6543Q8.90625-10.6543 8.71094-10.4443Q8.51562-10.2344 8.51562-9.90234L8.51562-7.79297L6.40625-7.79297Q6.06445-7.79297 5.85938-7.58789Q5.6543-7.38281 5.6543-7.05078Z"/>
  </g>
  <g transform="matrix(1 0 0 1 281.867 1933)">
   <path d="M11.709 2.91016Q13.75 2.91016 15.5518 2.12891Q17.3535 1.34766 18.7305-0.0292969Q20.1074-1.40625 20.8887-3.20801Q21.6699-5.00977 21.6699-7.05078Q21.6699-9.0918 20.8887-10.8936Q20.1074-12.6953 18.7305-14.0723Q17.3535-15.4492 15.5469-16.2305Q13.7402-17.0117 11.6992-17.0117Q9.6582-17.0117 7.85645-16.2305Q6.05469-15.4492 4.68262-14.0723Q3.31055-12.6953 2.5293-10.8936Q1.74805-9.0918 1.74805-7.05078Q1.74805-5.00977 2.5293-3.20801Q3.31055-1.40625 4.6875-0.0292969Q6.06445 1.34766 7.86621 2.12891Q9.66797 2.91016 11.709 2.91016ZM11.709 1.25Q9.98047 1.25 8.47656 0.605469Q6.97266-0.0390625 5.83496-1.17676Q4.69727-2.31445 4.05762-3.81836Q3.41797-5.32227 3.41797-7.05078Q3.41797-8.7793 4.05762-10.2832Q4.69727-11.7871 5.83008-12.9297Q6.96289-14.0723 8.4668-14.7119Q9.9707-15.3516 11.6992-15.3516Q13.4277-15.3516 14.9316-14.7119Q16.4355-14.0723 17.5781-12.9297Q18.7207-11.7871 19.3652-10.2832Q20.0098-8.7793 20.0098-7.05078Q20.0098-5.32227 19.3701-3.81836Q18.7305-2.31445 17.5928-1.17676Q16.4551-0.0390625 14.9463 0.605469Q13.4375 1.25 11.709 1.25ZM7.17773-7.05078Q7.17773-6.69922 7.41211-6.47461Q7.64648-6.25 8.01758-6.25L10.8887-6.25L10.8887-3.36914Q10.8887-2.99805 11.1133-2.76855Q11.3379-2.53906 11.6895-2.53906Q12.0605-2.53906 12.29-2.76855Q12.5195-2.99805 12.5195-3.36914L12.5195-6.25L15.4004-6.25Q15.7715-6.25 16.001-6.47461Q16.2305-6.69922 16.2305-7.05078Q16.2305-7.42188 16.001-7.65137Q15.7715-7.88086 15.4004-7.88086L12.5195-7.88086L12.5195-10.752Q12.5195-11.1328 12.29-11.3623Q12.0605-11.5918 11.6895-11.5918Q11.3379-11.5918 11.1133-11.3574Q10.8887-11.123 10.8887-10.752L10.8887-7.88086L8.01758-7.88086Q7.63672-7.88086 7.40723-7.65137Q7.17773-7.42188 7.17773-7.05078Z"/>
  </g>
  <g transform="matrix(1 0 0 1 305.646 1933)">
   <path d="M14.9707 5.66406Q17.0605 5.66406 18.96 5.01465Q20.8594 4.36523 22.4512 3.19336Q24.043 2.02148 25.2197 0.429688Q26.3965-1.16211 27.0459-3.06641Q27.6953-4.9707 27.6953-7.05078Q27.6953-9.14062 27.0459-11.04Q26.3965-12.9395 25.2197-14.5312Q24.043-16.123 22.4512-17.2998Q20.8594-18.4766 18.9551-19.126Q17.0508-19.7754 14.9609-19.7754Q12.8711-19.7754 10.9717-19.126Q9.07227-18.4766 7.48535-17.2998Q5.89844-16.123 4.72168-14.5312Q3.54492-12.9395 2.90039-11.04Q2.25586-9.14062 2.25586-7.05078Q2.25586-4.9707 2.90527-3.06641Q3.55469-1.16211 4.72656 0.429688Q5.89844 2.02148 7.49023 3.19336Q9.08203 4.36523 10.9814 5.01465Q12.8809 5.66406 14.9707 5.66406ZM14.9707 3.84766Q13.1641 3.84766 11.5283 3.2959Q9.89258 2.74414 8.53516 1.74805Q7.17773 0.751953 6.17676-0.610352Q5.17578-1.97266 4.62891-3.6084Q4.08203-5.24414 4.08203-7.05078Q4.08203-8.86719 4.62891-10.5029Q5.17578-12.1387 6.17188-13.501Q7.16797-14.8633 8.52539-15.8594Q9.88281-16.8555 11.5186-17.4023Q13.1543-17.9492 14.9609-17.9492Q16.7773-17.9492 18.4131-17.4023Q20.0488-16.8555 21.4111-15.8594Q22.7734-14.8633 23.7695-13.501Q24.7656-12.1387 25.3174-10.5029Q25.8691-8.86719 25.8691-7.05078Q25.8789-5.24414 25.332-3.6084Q24.7852-1.97266 23.7842-0.610352Q22.7832 0.751953 21.4209 1.74805Q20.0586 2.74414 18.4229 3.2959Q16.7871 3.84766 14.9707 3.84766ZM9.19922-7.05078Q9.19922-6.66992 9.45801-6.4209Q9.7168-6.17188 10.1172-6.17188L14.0625-6.17188L14.0625-2.2168Q14.0625-1.81641 14.3115-1.55762Q14.5605-1.29883 14.9512-1.29883Q15.3516-1.29883 15.6104-1.55273Q15.8691-1.80664 15.8691-2.2168L15.8691-6.17188L19.8242-6.17188Q20.2246-6.17188 20.4785-6.4209Q20.7324-6.66992 20.7324-7.05078Q20.7324-7.46094 20.4785-7.71484Q20.2246-7.96875 19.8242-7.96875L15.8691-7.96875L15.8691-11.9141Q15.8691-12.3242 15.6104-12.583Q15.3516-12.8418 14.9512-12.8418Q14.5605-12.8418 14.3115-12.583Q14.0625-12.3242 14.0625-11.9141L14.0625-7.96875L10.1172-7.96875Q9.70703-7.96875 9.45312-7.71484Q9.19922-7.46094 9.19922-7.05078Z"/>
  </g>
  <text style="stroke:none;fill:black;font-family:sans-serif;font-size:13;font-weight:bold;" transform="matrix(1 0 0 1 263 1953)">Design Variations</text>
  <text style="stroke:none;fill:black;font-family:sans-serif;font-size:13;" transform="matrix(1 0 0 1 263 1971)">Symbols are supported in up to nine weights and three scales.</text>
  <text style="stroke:none;fill:black;font-family:sans-serif;font-size:13;" transform="matrix(1 0 0 1 263 1989)">For optimal layout with text and other symbols, vertically align</text>
  <text style="stroke:none;fill:black;font-family:sans-serif;font-size:13;" transform="matrix(1 0 0 1 263 2007)">symbols with the adjacent text.</text>
  <line style="fill:none;stroke:#00AEEF;stroke-width:0.5;opacity:1.0;" x1="776" x2="776" y1="1919" y2="1933"/>
  <g transform="matrix(1 0 0 1 776 1933)">
   <path d="M3.31055 0.15625Q3.70117 0.15625 3.91602-0.00976562Q4.13086-0.175781 4.26758-0.585938L5.52734-4.0332L11.2891-4.0332L12.5488-0.585938Q12.6855-0.175781 12.9004-0.00976562Q13.1152 0.15625 13.4961 0.15625Q13.8867 0.15625 14.1162-0.0585938Q14.3457-0.273438 14.3457-0.644531Q14.3457-0.869141 14.2383-1.17188L9.6582-13.3691Q9.48242-13.8184 9.17969-14.043Q8.87695-14.2676 8.4082-14.2676Q7.5-14.2676 7.17773-13.3789L2.59766-1.16211Q2.49023-0.859375 2.49023-0.634766Q2.49023-0.263672 2.70996-0.0537109Q2.92969 0.15625 3.31055 0.15625ZM6.00586-5.51758L8.37891-12.0898L8.42773-12.0898L10.8008-5.51758Z"/>
  </g>
  <line style="fill:none;stroke:#00AEEF;stroke-width:0.5;opacity:1.0;" x1="793.197" x2="793.197" y1="1919" y2="1933"/>
  <text style="stroke:none;fill:black;font-family:sans-serif;font-size:13;font-weight:bold;" transform="matrix(1 0 0 1 776 1953)">Margins</text>
  <text style="stroke:none;fill:black;font-family:sans-serif;font-size:13;" transform="matrix(1 0 0 1 776 1971)">Leading and trailing margins on the left and right side of each symbol</text>
  <text style="stroke:none;fill:black;font-family:sans-serif;font-size:13;" transform="matrix(1 0 0 1 776 1989)">can be adjusted by modifying the x-location of the margin guidelines.</text>
  <text style="stroke:none;fill:black;font-family:sans-serif;font-size:13;" transform="matrix(1 0 0 1 776 2007)">Modifications are automatically applied proportionally to all</text>
  <text style="stroke:none;fill:black;font-family:sans-serif;font-size:13;" transform="matrix(1 0 0 1 776 2025)">scales and weights.</text>
  <g transform="matrix(1 0 0 1 1289 1933)">
   <path d="M2.8418 1.86523L4.54102 3.57422Q5.18555 4.22852 5.90332 4.17969Q6.62109 4.13086 7.31445 3.35938L18.0078-8.42773L17.041-9.4043L6.42578 2.27539Q6.16211 2.57812 5.89355 2.61719Q5.625 2.65625 5.27344 2.30469L4.10156 1.14258Q3.75 0.791016 3.79395 0.522461Q3.83789 0.253906 4.14062-0.0195312L15.6152-10.8203L14.6387-11.7871L3.04688-0.898438Q2.30469-0.214844 2.25098 0.498047Q2.19727 1.21094 2.8418 1.86523ZM9.25781-16.3281Q8.94531-16.0254 8.90625-15.6348Q8.86719-15.2441 9.04297-14.9512Q9.21875-14.6777 9.55566-14.541Q9.89258-14.4043 10.3809-14.5215Q11.4746-14.7754 12.5977-14.7314Q13.7207-14.6875 14.7949-13.9844L14.209-12.5293Q13.9551-11.9043 14.0674-11.4404Q14.1797-10.9766 14.5801-10.5664L16.875-8.25195Q17.2363-7.88086 17.5781-7.82227Q17.9199-7.76367 18.3398-7.8418L19.4043-8.03711L20.0684-7.36328L20.0293-6.80664Q20-6.43555 20.1221-6.12305Q20.2441-5.81055 20.6055-5.44922L21.3672-4.70703Q21.7285-4.3457 22.1533-4.33105Q22.5781-4.31641 22.9297-4.66797L25.8398-7.58789Q26.1914-7.93945 26.1816-8.35449Q26.1719-8.76953 25.8105-9.13086L25.0391-9.89258Q24.6875-10.2539 24.3799-10.3857Q24.0723-10.5176 23.7109-10.4883L23.1348-10.4395L22.4902-11.0742L22.7344-12.1973Q22.832-12.6172 22.6953-12.9834Q22.5586-13.3496 22.1191-13.7891L19.9219-15.9766Q18.6719-17.2168 17.2607-17.8369Q15.8496-18.457 14.4189-18.4814Q12.9883-18.5059 11.665-17.959Q10.3418-17.4121 9.25781-16.3281ZM10.752-15.957Q11.6602-16.6211 12.7002-16.9043Q13.7402-17.1875 14.8047-17.085Q15.8691-16.9824 16.8701-16.5137Q17.8711-16.0449 18.7012-15.2051L21.1328-12.793Q21.3086-12.6172 21.3525-12.4512Q21.3965-12.2852 21.3379-12.0312L21.0156-10.5469L22.5195-9.0625L23.5059-9.12109Q23.6914-9.13086 23.7891-9.09668Q23.8867-9.0625 24.0332-8.91602L24.6094-8.33984L22.168-5.89844L21.5918-6.47461Q21.4453-6.62109 21.4062-6.71875Q21.3672-6.81641 21.377-7.01172L21.4453-7.98828L19.9512-9.47266L18.4277-9.21875Q18.1836-9.16992 18.042-9.2041Q17.9004-9.23828 17.7148-9.41406L15.7129-11.416Q15.5176-11.5918 15.4932-11.7529Q15.4688-11.9141 15.5859-12.1875L16.4648-14.2773Q15.293-15.3711 13.8281-15.791Q12.3633-16.2109 10.8398-15.7617Q10.7227-15.7324 10.6885-15.8057Q10.6543-15.8789 10.752-15.957Z"/>
  </g>
  <text style="stroke:none;fill:black;font-family:sans-serif;font-size:13;font-weight:bold;" transform="matrix(1 0 0 1 1289 1953)">Exporting</text>
  <text style="stroke:none;fill:black;font-family:sans-serif;font-size:13;" transform="matrix(1 0 0 1 1289 1971)">Symbols should be outlined when exporting to ensure the</text>
  <text style="stroke:none;fill:black;font-family:sans-serif;font-size:13;" transform="matrix(1 0 0 1 1289 1989)">design is preserved when submitting to Xcode.</text>
  <text id="template-version" style="stroke:none;fill:black;font-family:sans-serif;font-size:13;text-anchor:end;" transform="matrix(1 0 0 1 3036 1933)">Template v.3.0</text>
  <text style="stroke:none;fill:black;font-family:sans-serif;font-size:13;text-anchor:end;" transform="matrix(1 0 0 1 3036 1951)">Requires Xcode 13 or greater</text>
  <text id="descriptive-name" style="stroke:none;fill:black;font-family:sans-serif;font-size:13;text-anchor:end;" transform="matrix(1 0 0 1 3036 1969)">Generated from sskr.bar</text>
  <text style="stroke:none;fill:black;font-family:sans-serif;font-size:13;text-anchor:end;" transform="matrix(1 0 0 1 3036 1987)">Typeset at 100 points</text>
  <text style="stroke:none;fill:black;font-family:sans-serif;font-size:13;" transform="matrix(1 0 0 1 263 726)">Small</text>
  <text style="stroke:none;fill:black;font-family:sans-serif;font-size:13;" transform="matrix(1 0 0 1 263 1156)">Medium</text>
  <text style="stroke:none;fill:black;font-family:sans-serif;font-size:13;" transform="matrix(1 0 0 1 263 1586)">Large</text>
 </g>
 <g id="Guides">
  <g id="H-reference" style="fill:#27AAE1;stroke:none;" transform="matrix(1 0 0 1 339 696)">
   <path d="M0.993347 0L3.6377 0L29.3282-67.1326L30.0301-67.1326L30.0301-70.459L28.1227-70.459ZM11.6882-24.4797L46.9818-24.4797L46.2311-26.7288L12.4382-26.7288ZM55.1193 0L57.7637 0L30.6381-70.459L29.4327-70.459L29.4327-67.1326Z"/>
  </g>
  <line id="Baseline-S" style="fill:none;stroke:#27AAE1;opacity:1;stroke-width:0.5;" x1="263" x2="3036" y1="696" y2="696"/>
  <line id="Capline-S" style="fill:none;stroke:#27AAE1;opacity:1;stroke-width:0.5;" x1="263" x2="3036" y1="625.541" y2="625.541"/>
  <g id="H-reference" style="fill:#27AAE1;stroke:none;" transform="matrix(1 0 0 1 339 1126)">
   <path d="M0.993347 0L3.6377 0L29.3282-67.1326L30.0301-67.1326L30.0301-70.459L28.1227-70.459ZM11.6882-24.4797L46.9818-24.4797L46.2311-26.7288L12.4382-26.7288ZM55.1193 0L57.7637 0L30.6381-70.459L29.4327-70.459L29.4327-67.1326Z"/>
  </g>
  <line id="Baseline-M" style="fill:none;stroke:#27AAE1;opacity:1;stroke-width:0.5;" x1="263" x2="3036" y1="1126" y2="1126"/>
  <line id="Capline-M" style="fill:none;stroke:#27AAE1;opacity:1;stroke-width:0.5;" x1="263" x2="3036" y1="1055.54" y2="1055.54"/>
  <g id="H-reference" style="fill:#27AAE1;stroke:none;" transform="matrix(1 0 0 1 339 1556)">
   <path d="M0.993347 0L3.6377 0L29.3282-67.1326L30.0301-67.1326L30.0301-70.459L28.1227-70.459ZM11.6882-24.4797L46.9818-24.4797L46.2311-26.7288L12.4382-26.7288ZM55.1193 0L57.7637 0L30.6381-70.459L29.4327-70.459L29.4327-67.1326Z"/>
  </g>
  <line id="Baseline-L" style="fill:none;stroke:#27AAE1;opacity:1;stroke-width:0.5;" x1="263" x2="3036" y1="1556" y2="1556"/>
  <line id="Capline-L" style="fill:none;stroke:#27AAE1;opacity:1;stroke-width:0.5;" x1="263" x2="3036" y1="1485.54" y2="1485.54"/>
  <line id="left-margin-Regular-M" style="fill:none;stroke:#00AEEF;stroke-width:0.5;opacity:1.0;" x1="1391.29" x2="1391.29" y1="1030.73" y2="1150.14"/>
  <line id="right-margin-Regular-M" style="fill:none;stroke:#00AEEF;stroke-width:0.5;opacity:1.0;" x1="1508.39" x2="1508.39" y1="1030.73" y2="1150.14"/>
 </g>
 <g id="Symbols">
  <g id="Semibold-L" transform="matrix(1 0 0 1 1970.22 1556)">
   <path class="hierarchical-0:secondary SFSymbolsPreview4D4D4D" d="M131.5-61.5355L14.4998-61.5355C10.9095-61.5355 7.99976-64.4459 7.99976-68.0355C7.99976-71.6251 10.9095-74.5355 14.4998-74.5355L131.5-74.5355C135.09-74.5355 138-71.6251 138-68.0355C138-64.4459 135.09-61.5355 131.5-61.5355ZM131.5 4.63507L14.4998 4.63507C10.9095 4.63507 7.99976 1.72528 7.99976-1.86493C7.99976-5.45517 10.9095-8.36493 14.4998-8.36493L131.5-8.36493C135.09-8.36493 138-5.45517 138-1.86493C138 1.72528 135.09 4.63507 131.5 4.63507Z"/>
   <path class="hierarchical-1:primary SFSymbolsPreview212121" d="M109.01-53.7352L123.96-53.7352C126.69-53.7352 128.9-53.2152 130.85-52.3052C132.8-51.3952 134.23-49.9652 135.27-48.2752C136.31-46.5852 136.83-44.5052 136.83-42.0352L136.83-42.0352C136.83-39.5652 136.18-37.2252 134.88-35.4052C133.58-33.4552 131.89-32.1552 129.68-31.3752L137.87-16.2952L130.2-16.2952L122.79-30.3352L122.66-30.3352L122.53-30.3352L115.64-30.3352L115.64-16.2952L108.88-16.2952L108.88-53.7352L109.01-53.7352ZM48.04-16.8152C45.83-17.7252 44.14-18.8952 42.97-20.5852C41.8-22.2752 41.02-24.0952 40.89-26.3052L40.89-26.6952L47.26-26.6952L47.26-26.4352C47.39-25.3952 47.91-24.4852 48.69-23.7052C49.47-22.9252 50.38-22.2752 51.68-21.8852C52.85-21.4952 54.28-21.2352 55.84-21.2352C57.4-21.2352 58.83-21.4952 59.87-21.8852C61.04-22.2752 61.95-22.9252 62.47-23.7052C62.99-24.4852 63.38-25.3952 63.38-26.5652L63.38-26.5652C63.38-27.9952 62.86-29.0352 61.82-29.9452C60.78-30.7252 59.09-31.3752 56.62-31.8952L52.59-32.6752C48.95-33.4552 46.22-34.6252 44.27-36.4452C42.45-38.1352 41.54-40.4752 41.54-43.2052L41.54-43.2052C41.54-45.4152 42.19-47.3652 43.36-49.0552C44.53-50.7452 46.22-52.0452 48.3-52.9552C50.38-53.8652 52.85-54.3852 55.45-54.3852C58.18-54.3852 60.52-53.9952 62.6-53.0852C64.68-52.1752 66.24-50.8752 67.41-49.3152C68.58-47.7552 69.23-45.8052 69.36-43.7252L69.36-43.3352L62.99-43.3352L62.99-43.7252C62.86-44.7652 62.47-45.8052 61.82-46.4552C61.17-47.2352 60.26-47.7552 59.22-48.2752C58.18-48.6652 56.88-48.9252 55.45-48.9252C54.02-48.9252 52.72-48.6652 51.68-48.2752C50.64-47.6252 49.86-47.1052 49.34-46.3252C48.82-45.5452 48.43-44.6352 48.43-43.7252L48.43-43.7252C48.43-42.4252 48.95-41.3852 49.99-40.4752C51.03-39.6952 52.72-39.0452 54.93-38.5252L58.96-37.7452C62.86-36.9652 65.72-35.6652 67.54-33.9752C69.36-32.2852 70.27-29.9452 70.27-27.0852L70.27-27.0852C70.27-24.7452 69.75-22.7952 68.58-20.9752C67.41-19.2852 65.72-17.9852 63.51-16.9452C61.3-16.0352 58.7-15.5152 55.71-15.5152C52.72-15.5152 50.25-16.0352 48.04-16.8152ZM15.15-16.8152C12.94-17.7252 11.25-18.8952 10.08-20.5852C8.78001-22.1452 8.13001-24.0952 8.00001-26.3052L8.00001-26.6952L14.37-26.6952L14.37-26.4352C14.5-25.3952 15.02-24.4852 15.8-23.7052C16.58-22.9252 17.49-22.2752 18.79-21.8852C19.96-21.4952 21.39-21.2352 22.95-21.2352C24.51-21.2352 25.94-21.4952 26.98-21.8852C28.15-22.2752 29.06-22.9252 29.58-23.7052C30.1-24.4852 30.49-25.3952 30.49-26.5652L30.49-26.5652C30.49-27.9952 29.97-29.0352 28.93-29.9452C27.89-30.7252 26.2-31.3752 23.73-31.8952L19.7-32.6752C16.06-33.4552 13.33-34.6252 11.38-36.4452C9.43001-38.2652 8.65001-40.4752 8.65001-43.2052L8.65001-43.2052C8.65001-45.4152 9.30001-47.3652 10.47-49.0552C11.64-50.7452 13.33-52.0452 15.41-52.9552C17.49-53.8652 19.96-54.3852 22.56-54.3852C25.29-54.3852 27.63-53.9952 29.71-53.0852C31.79-52.1752 33.35-50.8752 34.52-49.3152C35.69-47.7552 36.34-45.8052 36.47-43.7252L36.47-43.3352L30.1-43.3352L30.1-43.7252C29.97-44.7652 29.58-45.8052 28.93-46.4552C28.28-47.2352 27.37-47.7552 26.33-48.2752C25.29-48.6652 23.99-48.9252 22.56-48.9252C21.13-48.9252 19.83-48.6652 18.79-48.2752C17.75-47.8852 16.84-47.2352 16.32-46.4552C15.8-45.6752 15.41-44.7652 15.41-43.8552L15.41-43.8552C15.41-42.5552 15.93-41.5152 16.97-40.6052C18.01-39.8252 19.7-39.1752 21.91-38.6552L25.94-37.8752C29.84-37.0952 32.7-35.7952 34.52-34.1052C36.34-32.4152 37.25-30.0752 37.25-27.2152L37.25-27.2152C37.25-24.8752 36.73-22.9252 35.56-21.1052C34.39-19.2852 32.7-18.1152 30.49-17.0752C28.28-16.1652 25.68-15.6452 22.69-15.6452C19.83-15.5152 17.36-16.0352 15.15-16.8152ZM123.31-35.5352C125.39-35.5352 127.08-36.0552 128.25-37.2252C129.42-38.3952 130.07-39.9552 130.07-41.9052L130.07-41.9052C130.07-43.8552 129.42-45.4152 128.25-46.5852C127.08-47.7552 125.39-48.2752 123.18-48.2752L115.77-48.2752L115.77-35.5352C115.77-35.5352 123.31-35.5352 123.31-35.5352ZM75.21-53.7352L81.97-53.7352L81.97-16.1652L75.21-16.1652C75.21-16.1652 75.21-53.7352 75.21-53.7352ZM81.58-36.0552L82.1-36.0552L96.66-53.7352L104.33-53.7352L90.16-36.7052L89.12-36.7052L81.58-27.8652C81.58-27.8652 81.58-36.0552 81.58-36.0552ZM84.7-33.9752L89.51-38.3952L105.5-16.1652L97.31-16.1652L84.7-33.9752Z"/>
  </g>
  <g id="Regular-L" transform="matrix(1 0 0 1 1376.14 1556)">
   <path class="hierarchical-0:secondary SFSymbolsPreview4D4D4D" d="M133.45 4.91028L13.8497 4.91028C10.6188 4.91028 7.99976 2.29126 7.99976-0.939697C7.99976-4.17065 10.6188-6.7898 13.8497-6.7898L133.45-6.7898C136.681-6.7898 139.3-4.17065 139.3-0.939697C139.3 2.29126 136.681 4.91028 133.45 4.91028ZM133.45-63.2102L13.8497-63.2102C10.6188-63.2102 7.99976-65.8293 7.99976-69.0603C7.99976-72.2913 10.6188-74.9103 13.8497-74.9103L133.45-74.9103C136.681-74.9103 139.3-72.2913 139.3-69.0603C139.3-65.8293 136.681-63.2102 133.45-63.2102Z"/>
   <path class="hierarchical-1:primary SFSymbolsPreview212121" d="M110.18-54.6302L124.87-54.6302C127.34-54.6302 129.55-54.1102 131.5-53.2003C133.32-52.2904 134.88-50.8602 135.92-49.1704C136.96-47.4802 137.48-45.4003 137.48-43.0604L137.48-43.0604C137.48-40.3304 136.83-37.9904 135.4-36.0404C133.97-34.0903 132.02-32.6604 129.55-31.8805L138.65-15.6305L132.93-15.6305L124.48-31.2305L124.35-31.2305L124.22-31.2305L115.12-31.2305L115.12-15.6305L110.18-15.6305L110.18-54.6302ZM48.9501-16.0201C46.7401-16.9302 45.05-18.1001 43.88-19.7903C42.5801-21.4802 41.9301-23.3002 41.8-25.6403L41.8-26.0303L46.7401-26.0303L46.7401-25.6403C47.0001-24.3402 47.5201-23.1702 48.3-22.2603C49.2101-21.3503 50.38-20.5702 51.8101-20.0503C53.24-19.5303 54.9301-19.2704 56.7501-19.2704C58.7001-19.2704 60.26-19.5303 61.6902-20.0503C63.1201-20.5703 64.1602-21.3503 64.9402-22.3904C65.7201-23.4304 66.1102-24.6003 66.1102-25.9003L66.1102-25.9003C66.1102-27.5903 65.4602-29.0204 64.2902-30.0603C63.1201-31.1003 61.1702-31.8802 58.4402-32.5303L54.0201-33.4402C50.2501-34.3501 47.3901-35.6501 45.5702-37.3402C43.7501-39.1603 42.8402-41.3702 42.8402-44.3602L42.8402-44.3602C42.8402-46.5702 43.4901-48.3903 44.6602-50.0803C45.8302-51.7704 47.5201-53.0703 49.6002-53.9802C51.6802-54.8903 54.0203-55.4103 56.7502-55.4103C59.3502-55.4103 61.5602-54.8903 63.6403-53.9802C65.5903-53.0703 67.2804-51.7704 68.4503-50.2102C69.6202-48.5201 70.2703-46.7003 70.5303-44.4902L70.5303-44.1001L65.5902-44.1001L65.5902-44.4902C65.3302-45.7903 64.9402-46.9602 64.1602-47.8702C63.3802-48.7802 62.3402-49.5603 61.0402-50.0801C59.7401-50.6001 58.3102-50.8601 56.6201-50.8601C54.9301-50.8601 53.3701-50.6001 52.0702-50.0801C50.7701-49.5601 49.7301-48.7802 49.0801-47.8702C48.3-46.9602 48.04-45.7903 48.04-44.4902L48.04-44.4902C48.04-42.9303 48.6901-41.6302 49.86-40.5902C51.03-39.5502 52.9801-38.7701 55.5801-38.2501L60.0001-37.3402C64.03-36.4303 66.8901-35.1302 68.7101-33.4402C70.53-31.7501 71.4401-29.2803 71.4401-26.2903L71.4401-26.2903C71.4401-23.9502 70.79-22.0001 69.62-20.3103C68.45-18.6202 66.76-17.3202 64.5499-16.4103C62.34-15.5004 59.74-14.9802 56.7499-14.9802C53.63-14.7202 51.16-15.1102 48.9501-16.0201ZM15.9301-16.0201C13.7201-16.9302 12.03-18.1001 10.86-19.7903C9.56006-21.4802 8.91003-23.3002 8.78003-25.6403L8.78003-26.0303L13.7201-26.0303L13.7201-25.6403C13.9801-24.3402 14.5001-23.1702 15.28-22.2603C16.1901-21.3503 17.36-20.5702 18.79-20.0503C20.22-19.5303 21.91-19.2704 23.7301-19.2704C25.6801-19.2704 27.24-19.5303 28.6702-20.0503C30.1001-20.5703 31.1401-21.3503 31.9202-22.3904C32.7001-23.4304 33.0902-24.6003 33.0902-25.9003L33.0902-25.9003C33.0902-27.5903 32.4402-29.0204 31.2701-30.0603C30.1001-31.1003 28.1501-31.8802 25.4202-32.5303L21.0001-33.4402C17.2301-34.3501 14.3701-35.6501 12.55-37.3402C10.7301-39.1603 9.82019-41.3702 9.82019-44.3602L9.82019-44.3602C9.82019-46.5702 10.4701-48.3903 11.6401-50.0803C12.8102-51.7704 14.5001-53.0703 16.5802-53.9802C18.6602-54.8903 21.0002-55.4103 23.7302-55.4103C26.3302-55.4103 28.5402-54.8903 30.6202-53.9802C32.5703-53.0703 34.2604-51.7704 35.4302-50.2102C36.6002-48.5201 37.2502-46.7003 37.5101-44.4902L37.5101-44.1001L32.5702-44.1001L32.5702-44.4902C32.3102-45.7903 31.9202-46.9602 31.1401-47.8702C30.3602-48.7802 29.3202-49.5603 28.0201-50.0801C26.7201-50.6001 25.2902-50.8601 23.6001-50.8601C21.91-50.8601 20.3501-50.6001 19.05-50.0801C17.7501-49.5601 16.7101-48.7802 16.0601-47.8702C15.28-46.9602 15.02-45.7903 15.02-44.4902L15.02-44.4902C15.02-42.9303 15.6699-41.6302 16.84-40.5902C18.01-39.5502 19.9601-38.7701 22.5601-38.2501L26.9801-37.3402C31.01-36.4303 33.8701-35.1302 35.6901-33.4402C37.51-31.7501 38.4199-29.2803 38.4199-26.2903L38.4199-26.2903C38.4199-23.9502 37.77-22.0001 36.6-20.3103C35.4299-18.6202 33.74-17.3202 31.5299-16.4103C29.3199-15.5004 26.72-14.9802 23.7299-14.9802C20.61-14.7202 18.14-15.1102 15.9301-16.0201ZM124.48-35.2603C126.95-35.2603 128.9-35.9103 130.33-37.2102C131.76-38.5103 132.41-40.3303 132.41-42.8003L132.41-42.8003C132.41-45.1404 131.63-46.9602 130.2-48.2603C128.77-49.5603 126.82-50.2102 124.22-50.2102L114.99-50.2102L114.99-35.1302L124.48-35.1302L124.48-35.2603ZM76.77-54.6302L81.7101-54.6302L81.7101-15.3704L76.77-15.3704L76.77-54.6302ZM81.1901-35.3903L81.7101-35.3903L98.3501-54.6302L104.46-54.6302L88.86-36.9503L88.6001-36.9503L81.0601-28.6302L81.0601-35.3903L81.1901-35.3903ZM85.4801-34.0902L88.99-37.6001L106.02-15.3702L99.7799-15.3702L85.4801-34.0902Z"/>
  </g>
  <g id="Semibold-M" transform="matrix(1 0 0 1 1985.22 1126)">
   <path class="hierarchical-0:secondary SFSymbolsPreview4D4D4D" d="M103-55.7002L12.9998-55.7002C10.238-55.7002 7.99976-57.939 7.99976-60.7002C7.99976-63.4614 10.238-65.7002 12.9998-65.7002L103-65.7002C105.761-65.7002 108-63.4614 108-60.7002C108-57.939 105.761-55.7002 103-55.7002ZM103-4.7998L12.9998-4.7998C10.238-4.7998 7.99976-7.03809 7.99976-9.7998C7.99976-12.5615 10.238-14.7998 12.9998-14.7998L103-14.7998C105.761-14.7998 108-12.5615 108-9.7998C108-7.03809 105.761-4.7998 103-4.7998Z"/>
   <path class="hierarchical-1:primary SFSymbolsPreview212121" d="M85.7-49.7L97.2-49.7C99.2999-49.7 101-49.3 102.5-48.6C104-47.9 105.1-46.8 105.9-45.5C106.7-44.2 107.1-42.6 107.1-40.7L107.1-40.7C107.1-38.8 106.6-37 105.6-35.6C104.6-34.1 103.3-33.1 101.6-32.5L107.9-20.9L102-20.9L96.3-31.7L96.2-31.7L96.1-31.7L90.8-31.7L90.8-20.9L85.6-20.9L85.6-49.7L85.7-49.7ZM38.7999-21.3C37.0999-22 35.7999-22.9 34.8999-24.2C33.9999-25.5 33.3999-26.9 33.2999-28.6L33.2999-28.9L38.2-28.9L38.2-28.7C38.2999-27.9 38.7-27.2 39.2999-26.6C39.8999-26 40.5999-25.5 41.5999-25.2C42.5-24.9 43.5999-24.7 44.7999-24.7C46-24.7 47.0999-24.9 47.8999-25.2C48.7999-25.5 49.4999-26 49.8999-26.6C50.2999-27.2 50.5999-27.9 50.5999-28.8L50.5999-28.8C50.5999-29.9 50.1999-30.7 49.3999-31.4C48.5999-32 47.2999-32.5 45.3999-32.9L42.2999-33.5C39.5-34.1 37.3999-35 35.8999-36.4C34.4999-37.7 33.7999-39.5 33.7999-41.6L33.7999-41.6C33.7999-43.3 34.2999-44.8 35.2-46.1C36.1-47.4 37.4-48.4 39-49.1C40.5999-49.8 42.5-50.2 44.5-50.2C46.5999-50.2 48.4-49.9 50-49.2C51.5999-48.5 52.7999-47.5 53.7-46.3C54.6-45.1 55.1-43.6 55.2-42L55.2-41.7L50.2999-41.7L50.2999-42C50.2-42.8 49.8999-43.6 49.3999-44.1C48.8999-44.7 48.1999-45.1 47.3999-45.5C46.5999-45.8 45.5999-46 44.4999-46C43.3999-46 42.3999-45.8 41.5999-45.5C40.7999-45 40.2-44.6 39.7999-44C39.3999-43.4 39.0999-42.7 39.0999-42L39.0999-42C39.0999-41 39.5-40.2 40.2999-39.5C41.0999-38.9 42.3999-38.4 44.0999-38L47.1999-37.4C50.1999-36.8 52.3999-35.8 53.7999-34.5C55.1999-33.2 55.8999-31.4 55.8999-29.2L55.8999-29.2C55.8999-27.4 55.4999-25.9 54.5999-24.5C53.6999-23.2 52.3999-22.2 50.6999-21.4C48.9999-20.7 46.9999-20.3 44.6999-20.3C42.4-20.3 40.5-20.7 38.7999-21.3ZM13.5-21.3C11.8-22 10.5-22.9 9.59995-24.2C8.59995-25.4 8.09995-26.9 7.99995-28.6L7.99995-28.9L12.8999-28.9L12.8999-28.7C13-27.9 13.3999-27.2 14-26.6C14.6-26 15.2999-25.5 16.2999-25.2C17.1999-24.9 18.2999-24.7 19.5-24.7C20.7-24.7 21.7999-24.9 22.6-25.2C23.5-25.5 24.2-26 24.6-26.6C25-27.2 25.3-27.9 25.3-28.8L25.3-28.8C25.3-29.9 24.9-30.7 24.1-31.4C23.3-32 22-32.5 20.1-32.9L17-33.5C14.2-34.1 12.1-35 10.6-36.4C9.09995-37.8 8.49995-39.5 8.49995-41.6L8.49995-41.6C8.49995-43.3 8.99995-44.8 9.89995-46.1C10.7999-47.4 12.0999-48.4 13.7-49.1C15.3-49.8 17.2-50.2 19.2-50.2C21.3-50.2 23.1-49.9 24.7-49.2C26.3-48.5 27.5-47.5 28.4-46.3C29.3-45.1 29.8-43.6 29.9-42L29.9-41.7L25-41.7L25-42C24.9-42.8 24.6-43.6 24.1-44.1C23.6-44.7 22.9-45.1 22.1-45.5C21.3-45.8 20.3-46 19.2-46C18.1-46 17.1-45.8 16.3-45.5C15.5-45.2 14.8-44.7 14.4-44.1C14-43.5 13.7-42.8 13.7-42.1L13.7-42.1C13.7-41.1 14.1-40.3 14.9-39.6C15.7-39 17-38.5 18.7-38.1L21.8-37.5C24.8-36.9 27-35.9 28.4-34.6C29.8-33.3 30.5-31.5 30.5-29.3L30.5-29.3C30.5-27.5 30.1-26 29.2-24.6C28.3-23.2 27-22.3 25.3-21.5C23.6-20.8 21.6-20.4 19.3-20.4C17.1-20.3 15.2-20.7 13.5-21.3ZM96.7-35.7C98.2999-35.7 99.6-36.1 100.5-37C101.4-37.9 101.9-39.1 101.9-40.6L101.9-40.6C101.9-42.1 101.4-43.3 100.5-44.2C99.6-45.1 98.3-45.5 96.6-45.5L90.9-45.5L90.9-35.7C90.9-35.7 96.7-35.7 96.7-35.7ZM59.7-49.7L64.8999-49.7L64.8999-20.8L59.6999-20.8C59.6999-20.8 59.6999-49.7 59.7-49.7ZM64.6-36.1L65-36.1L76.2-49.7L82.1-49.7L71.2-36.6L70.3999-36.6L64.5999-29.8C64.5999-29.8 64.5999-36.1 64.6-36.1ZM67-34.5L70.7-37.9L83-20.8L76.7-20.8L67-34.5Z"/>
  </g>
  <g id="Regular-M" transform="matrix(1 0 0 1 1391.29 1126)">
   <path class="hierarchical-0:secondary SFSymbolsPreview4D4D4D" d="M104.5-4.59961L12.4998-4.59961C10.0144-4.59961 7.99976-6.61426 7.99976-9.09961C7.99976-11.585 10.0144-13.5996 12.4998-13.5996L104.5-13.5996C106.985-13.5996 109-11.585 109-9.09961C109-6.61426 106.985-4.59961 104.5-4.59961ZM104.5-57L12.4998-57C10.0144-57 7.99976-59.0146 7.99976-61.5C7.99976-63.9854 10.0144-66 12.4998-66L104.5-66C106.985-66 109-63.9854 109-61.5C109-59.0146 106.985-57 104.5-57Z"/>
   <path class="hierarchical-1:primary SFSymbolsPreview212121" d="M86.6-50.4L97.9-50.4C99.8-50.4 101.5-50 103-49.3C104.4-48.6001 105.6-47.5 106.4-46.2001C107.2-44.9 107.6-43.3 107.6-41.5001L107.6-41.5001C107.6-39.4001 107.1-37.6001 106-36.1001C104.9-34.6001 103.4-33.5001 101.5-32.9001L108.5-20.4001L104.1-20.4001L97.6-32.4001L97.5-32.4001L97.4-32.4001L90.4-32.4001L90.4-20.4001L86.6-20.4001L86.6-50.4ZM39.5-20.7C37.8-21.3999 36.5-22.2999 35.6-23.6C34.6-24.9 34.1-26.2999 34-28.1L34-28.4L37.8-28.4L37.8-28.1C38-27.1 38.4-26.2 39-25.5C39.7-24.8 40.6-24.2 41.7-23.8C42.7999-23.4 44.1-23.2001 45.5-23.2001C47-23.2001 48.2-23.4 49.3-23.8C50.4-24.2001 51.2001-24.8 51.8-25.6001C52.4-26.4001 52.7001-27.3 52.7001-28.3L52.7001-28.3C52.7001-29.6001 52.2001-30.7001 51.3-31.5C50.4-32.3 48.9-32.9 46.8-33.4L43.4-34.1C40.5-34.7999 38.3-35.7999 36.9-37.1C35.5-38.5 34.8-40.2 34.8-42.5L34.8-42.5C34.8-44.2 35.3-45.6 36.2001-46.9C37.1001-48.2001 38.4-49.2001 40.0001-49.9C41.6001-50.6 43.4001-51 45.5001-51C47.5001-51 49.2001-50.6 50.8002-49.9C52.3002-49.2001 53.6002-48.2001 54.5001-47C55.4001-45.7 55.9001-44.3 56.1001-42.6L56.1001-42.2999L52.3-42.2999L52.3-42.6C52.1001-43.6 51.8-44.5 51.2001-45.2C50.6001-45.8999 49.8-46.5 48.8-46.8999C47.8-47.2999 46.7001-47.4999 45.4-47.4999C44.1-47.4999 42.9-47.2999 41.9-46.8999C40.9-46.4999 40.1-45.8999 39.6-45.2C39-44.5 38.7999-43.6 38.7999-42.6L38.7999-42.6C38.7999-41.4 39.2999-40.4 40.2-39.6C41.1-38.7999 42.6-38.2 44.6-37.7999L48-37.1C51.1-36.4 53.3-35.4 54.7-34.1C56.1-32.7999 56.7999-30.9 56.7999-28.6L56.7999-28.6C56.7999-26.7999 56.2999-25.2999 55.3999-24C54.4999-22.7 53.2-21.7 51.4999-21C49.7999-20.3 47.7999-19.9 45.4999-19.9C43.1-19.7 41.2-20 39.5-20.7ZM14.1-20.7C12.4-21.3999 11.1-22.2999 10.2-23.6C9.19995-24.9 8.69995-26.2999 8.59998-28.1L8.59998-28.4L12.4-28.4L12.4-28.1C12.6-27.1 13-26.2 13.6-25.5C14.2999-24.8 15.2-24.2 16.2999-23.8C17.3999-23.4 18.7-23.2001 20.1-23.2001C21.6-23.2001 22.7999-23.4 23.9-23.8C25-24.2001 25.8-24.8 26.4-25.6001C27-26.4001 27.3-27.3 27.3-28.3L27.3-28.3C27.3-29.6001 26.8-30.7001 25.9-31.5C25-32.3 23.5-32.9 21.4-33.4L18-34.1C15.1-34.7999 12.9-35.7999 11.5-37.1C10.1-38.5 9.40002-40.2 9.40002-42.5L9.40002-42.5C9.40002-44.2 9.90002-45.6 10.8-46.9C11.7001-48.2001 13-49.2001 14.6001-49.9C16.2001-50.6 18.0001-51 20.1001-51C22.1001-51 23.8-50.6 25.4001-49.9C26.9001-49.2001 28.2002-48.2001 29.1001-47C30.0001-45.7 30.5001-44.3 30.7001-42.6L30.7001-42.2999L26.9-42.2999L26.9-42.6C26.7001-43.6 26.4-44.5 25.8-45.2C25.2001-45.8999 24.4-46.5 23.4-46.8999C22.4-47.2999 21.3-47.4999 20-47.4999C18.7-47.4999 17.5-47.2999 16.5-46.8999C15.5-46.4999 14.7-45.8999 14.2-45.2C13.6-44.5 13.3999-43.6 13.3999-42.6L13.3999-42.6C13.3999-41.4 13.8999-40.4 14.7999-39.6C15.7-38.7999 17.2-38.2 19.2-37.7999L22.6-37.1C25.7-36.4 27.9-35.4 29.2999-34.1C30.7-32.7999 31.3999-30.9 31.3999-28.6L31.3999-28.6C31.3999-26.7999 30.8999-25.2999 29.9999-24C29.0999-22.7 27.7999-21.7 26.0999-21C24.3999-20.3 22.3999-19.9 20.0999-19.9C17.7-19.7 15.7999-20 14.1-20.7ZM97.6-35.5C99.5-35.5 101-36 102.1-37C103.2-38 103.7-39.4 103.7-41.3L103.7-41.3C103.7-43.1001 103.1-44.5 102-45.5C100.9-46.5 99.4-47 97.4-47L90.3-47L90.3-35.4L97.6-35.4L97.6-35.5ZM60.8999-50.4L64.7-50.4L64.7-20.2001L60.8999-20.2001L60.8999-50.4ZM64.2999-35.6L64.7-35.6L77.5-50.4L82.2-50.4L70.2-36.8L70-36.8L64.2-30.4L64.2-35.6L64.2999-35.6ZM67.6-34.6L70.2999-37.2999L83.3999-20.2L78.5999-20.2L67.6-34.6Z"/>
  </g>
  <g id="Semibold-S" transform="matrix(1 0 0 1 1995.22 696)">
   <path class="hierarchical-0:secondary SFSymbolsPreview4D4D4D" d="M83.9998-51.91L11.9998-51.91C9.79038-51.91 7.99976-53.701 7.99976-55.91C7.99976-58.119 9.79038-59.91 11.9998-59.91L83.9998-59.91C86.2091-59.91 87.9998-58.119 87.9998-55.91C87.9998-53.701 86.2091-51.91 83.9998-51.91ZM83.9998-11.1896L11.9998-11.1896C9.79038-11.1896 7.99976-12.9803 7.99976-15.1896C7.99976-17.399 9.79038-19.1896 11.9998-19.1896L83.9998-19.1896C86.2091-19.1896 87.9998-17.399 87.9998-15.1896C87.9998-12.9803 86.2091-11.1896 83.9998-11.1896Z"/>
   <path class="hierarchical-1:primary SFSymbolsPreview212121" d="M70.1599-47.1098L79.3599-47.1098C81.0399-47.1098 82.3999-46.7898 83.5999-46.2298C84.7999-45.6698 85.6799-44.7898 86.3199-43.7498C86.9599-42.7098 87.2799-41.4298 87.2799-39.9098L87.2799-39.9098C87.2799-38.3898 86.8799-36.9498 86.0799-35.8298C85.2799-34.6298 84.2399-33.8298 82.8799-33.3498L87.9199-24.0698L83.1999-24.0698L78.6399-32.7098L78.5599-32.7098L78.4799-32.7098L74.2399-32.7098L74.2399-24.0698L70.0799-24.0698L70.0799-47.1098L70.1599-47.1098ZM32.6399-24.3898C31.2799-24.9498 30.2399-25.6698 29.5199-26.7098C28.7999-27.7498 28.3199-28.8698 28.2399-30.2298L28.2399-30.4698L32.1599-30.4698L32.1599-30.3098C32.2399-29.6698 32.5599-29.1098 33.0399-28.6298C33.5199-28.1498 34.0799-27.7498 34.8799-27.5098C35.5999-27.2698 36.4799-27.1098 37.4399-27.1098C38.3999-27.1098 39.2799-27.2698 39.9199-27.5098C40.6399-27.7498 41.1999-28.1498 41.5199-28.6298C41.8399-29.1098 42.0799-29.6698 42.0799-30.3898L42.0799-30.3898C42.0799-31.2698 41.7599-31.9098 41.1199-32.4698C40.4799-32.9498 39.4399-33.3498 37.9199-33.6698L35.4399-34.1498C33.1999-34.6298 31.5199-35.3498 30.3199-36.4698C29.1999-37.5098 28.6399-38.9498 28.6399-40.6298L28.6399-40.6298C28.6399-41.9898 29.0399-43.1898 29.7599-44.2298C30.4799-45.2698 31.5199-46.0698 32.7999-46.6298C34.0799-47.1898 35.5999-47.5098 37.1999-47.5098C38.8799-47.5098 40.3199-47.2698 41.5999-46.7098C42.8799-46.1498 43.8399-45.3498 44.5599-44.3898C45.2799-43.4298 45.6799-42.2298 45.7599-40.9498L45.7599-40.7098L41.8399-40.7098L41.8399-40.9498C41.7599-41.5898 41.5199-42.2298 41.1199-42.6298C40.7199-43.1098 40.1599-43.4298 39.5199-43.7498C38.8799-43.9898 38.0799-44.1498 37.1999-44.1498C36.3199-44.1498 35.5199-43.9898 34.8799-43.7498C34.2399-43.3498 33.7599-43.0298 33.4399-42.5498C33.1199-42.0698 32.8799-41.5098 32.8799-40.9498L32.8799-40.9498C32.8799-40.1498 33.1999-39.5098 33.8399-38.9498C34.4799-38.4698 35.5199-38.0698 36.8799-37.7498L39.3599-37.2698C41.7599-36.7898 43.5199-35.9898 44.6399-34.9498C45.7599-33.9098 46.3199-32.4698 46.3199-30.7098L46.3199-30.7098C46.3199-29.2698 45.9999-28.0698 45.2799-26.9498C44.5599-25.9098 43.5199-25.1098 42.1599-24.4698C40.7999-23.9098 39.1999-23.5898 37.3599-23.5898C35.5199-23.5898 33.9999-23.9098 32.6399-24.3898ZM12.3999-24.3898C11.0399-24.9498 9.99991-25.6698 9.27991-26.7098C8.47991-27.6698 8.07991-28.8698 7.99991-30.2298L7.99991-30.4698L11.9199-30.4698L11.9199-30.3098C11.9999-29.6698 12.3199-29.1098 12.7999-28.6298C13.2799-28.1498 13.8399-27.7498 14.6399-27.5098C15.3599-27.2698 16.2399-27.1098 17.1999-27.1098C18.1599-27.1098 19.0399-27.2698 19.6799-27.5098C20.3999-27.7498 20.9599-28.1498 21.2799-28.6298C21.5999-29.1098 21.8399-29.6698 21.8399-30.3898L21.8399-30.3898C21.8399-31.2698 21.5199-31.9098 20.8799-32.4698C20.2399-32.9498 19.1999-33.3498 17.6799-33.6698L15.1999-34.1498C12.9599-34.6298 11.2799-35.3498 10.0799-36.4698C8.87991-37.5898 8.39991-38.9498 8.39991-40.6298L8.39991-40.6298C8.39991-41.9898 8.79991-43.1898 9.51991-44.2298C10.2399-45.2698 11.2799-46.0698 12.5599-46.6298C13.8399-47.1898 15.3599-47.5098 16.9599-47.5098C18.6399-47.5098 20.0799-47.2698 21.3599-46.7098C22.6399-46.1498 23.5999-45.3498 24.3199-44.3898C25.0399-43.4298 25.4399-42.2298 25.5199-40.9498L25.5199-40.7098L21.5999-40.7098L21.5999-40.9498C21.5199-41.5898 21.2799-42.2298 20.8799-42.6298C20.4799-43.1098 19.9199-43.4298 19.2799-43.7498C18.6399-43.9898 17.8399-44.1498 16.9599-44.1498C16.0799-44.1498 15.2799-43.9898 14.6399-43.7498C13.9999-43.5098 13.4399-43.1098 13.1199-42.6298C12.7999-42.1498 12.5599-41.5898 12.5599-41.0298L12.5599-41.0298C12.5599-40.2298 12.8799-39.5898 13.5199-39.0298C14.1599-38.5498 15.1999-38.1498 16.5599-37.8298L19.0399-37.3498C21.4399-36.8698 23.1999-36.0698 24.3199-35.0298C25.4399-33.9898 25.9999-32.5498 25.9999-30.7898L25.9999-30.7898C25.9999-29.3498 25.6799-28.1498 24.9599-27.0298C24.2399-25.9098 23.1999-25.1898 21.8399-24.5498C20.4799-23.9898 18.8799-23.6698 17.0399-23.6698C15.2799-23.5898 13.7599-23.9098 12.3999-24.3898ZM78.9599-35.9098C80.2399-35.9098 81.2799-36.2298 81.9999-36.9498C82.7199-37.6698 83.1199-38.6298 83.1199-39.8298L83.1199-39.8298C83.1199-41.0298 82.7199-41.9898 81.9999-42.7098C81.2799-43.4298 80.2399-43.7498 78.8799-43.7498L74.3199-43.7498L74.3199-35.9098C74.3199-35.9098 78.9599-35.9098 78.9599-35.9098ZM49.3599-47.1098L53.5199-47.1098L53.5199-23.9898L49.3599-23.9898C49.3599-23.9898 49.3599-47.1098 49.3599-47.1098ZM53.2799-36.2298L53.5999-36.2298L62.5599-47.1098L67.2799-47.1098L58.5599-36.6298L57.9199-36.6298L53.2799-31.1898C53.2799-31.1898 53.2799-36.2298 53.2799-36.2298ZM55.1999-34.9498L58.1599-37.6698L67.9999-23.9898L62.9599-23.9898L55.1999-34.9498Z"/>
  </g>
  <g id="Regular-S" transform="matrix(1 0 0 1 1401.39 696)">
   <path class="hierarchical-0:secondary SFSymbolsPreview4D4D4D" d="M85.1998-11.0394L11.5997-11.0394C9.61145-11.0394 7.99976-12.6512 7.99976-14.6395C7.99976-16.6277 9.61145-18.2394 11.5997-18.2394L85.1998-18.2394C87.1881-18.2394 88.7998-16.6277 88.7998-14.6395C88.7998-12.6512 87.1881-11.0394 85.1998-11.0394ZM85.1998-52.9598L11.5997-52.9598C9.61145-52.9598 7.99976-54.5715 7.99976-56.5598C7.99976-58.548 9.61145-60.1598 11.5997-60.1598L85.1998-60.1598C87.1881-60.1598 88.7998-58.548 88.7998-56.5598C88.7998-54.5715 87.1881-52.9598 85.1998-52.9598Z"/>
   <path class="hierarchical-1:primary SFSymbolsPreview212121" d="M70.88-47.6798L79.92-47.6798C81.4401-47.6798 82.7999-47.3597 84-46.7998C85.12-46.2399 86.08-45.3597 86.72-44.3198C87.36-43.2798 87.6799-41.9998 87.6799-40.5599L87.6799-40.5599C87.6799-38.8799 87.2799-37.4398 86.4-36.2399C85.52-35.0399 84.3199-34.1599 82.7999-33.6799L88.4-23.6799L84.88-23.6799L79.6799-33.2799L79.6-33.2799L79.52-33.2799L73.92-33.2799L73.92-23.6799L70.88-23.6799L70.88-47.6798ZM33.2-23.9197C31.84-24.4797 30.7999-25.1997 30.08-26.2397C29.2799-27.2798 28.88-28.3997 28.7999-29.8397L28.7999-30.0798L31.84-30.0798L31.84-29.8397C32-29.0397 32.3199-28.3197 32.7999-27.7598C33.36-27.1998 34.08-26.7197 34.96-26.3998C35.84-26.0798 36.88-25.9198 38-25.9198C39.2-25.9198 40.1599-26.0798 41.04-26.3998C41.92-26.7198 42.5601-27.1998 43.04-27.8398C43.52-28.4799 43.76-29.1998 43.76-29.9998L43.76-29.9998C43.76-31.0399 43.36-31.9198 42.64-32.5598C41.92-33.1998 40.72-33.6798 39.04-34.0798L36.3199-34.6398C34-35.1997 32.24-35.9997 31.12-37.0397C30-38.1598 29.4401-39.5197 29.4401-41.3597L29.4401-41.3597C29.4401-42.7197 29.84-43.8397 30.5601-44.8798C31.28-45.9198 32.3199-46.7198 33.6001-47.2798C34.88-47.8397 36.3201-48.1598 38.0001-48.1598C39.6001-48.1598 40.9601-47.8397 42.2401-47.2798C43.4401-46.7198 44.4801-45.9198 45.2001-44.9598C45.92-43.9197 46.3201-42.7998 46.4801-41.4398L46.4801-41.1997L43.4401-41.1997L43.4401-41.4398C43.28-42.2397 43.04-42.9598 42.5601-43.5197C42.0801-44.0797 41.4401-44.5598 40.64-44.8797C39.84-45.1997 38.9601-45.3597 37.92-45.3597C36.88-45.3597 35.92-45.1997 35.12-44.8797C34.3199-44.5597 33.6799-44.0797 33.2799-43.5197C32.7999-42.9598 32.6399-42.2397 32.6399-41.4398L32.6399-41.4398C32.6399-40.4798 33.0399-39.6798 33.7599-39.0397C34.48-38.3997 35.6799-37.9197 37.2799-37.5997L40-37.0397C42.48-36.4798 44.24-35.6798 45.36-34.6398C46.48-33.5997 47.0399-32.0798 47.0399-30.2397L47.0399-30.2397C47.0399-28.7997 46.6399-27.5997 45.9199-26.5598C45.1998-25.5197 44.1599-24.7197 42.7999-24.1598C41.4399-23.5998 39.84-23.2798 37.9999-23.2798C36.08-23.1198 34.5599-23.3597 33.2-23.9197ZM12.88-23.9197C11.52-24.4797 10.48-25.1997 9.75989-26.2397C8.95996-27.2798 8.55994-28.3997 8.47998-29.8397L8.47998-30.0798L11.52-30.0798L11.52-29.8397C11.6799-29.0397 12-28.3197 12.48-27.7598C13.0399-27.1998 13.7599-26.7197 14.6399-26.3998C15.5199-26.0798 16.5599-25.9198 17.6799-25.9198C18.88-25.9198 19.84-26.0798 20.72-26.3998C21.6-26.7198 22.24-27.1998 22.72-27.8398C23.2-28.4799 23.4401-29.1998 23.4401-29.9998L23.4401-29.9998C23.4401-31.0399 23.04-31.9198 22.3199-32.5598C21.6-33.1998 20.4-33.6798 18.72-34.0798L16-34.6398C13.6799-35.1997 11.92-35.9997 10.7999-37.0397C9.67993-38.1598 9.12-39.5197 9.12-41.3597L9.12-41.3597C9.12-42.7197 9.52002-43.8397 10.24-44.8798C10.9601-45.9198 12-46.7198 13.28-47.2798C14.5601-47.8397 16.0001-48.1598 17.6801-48.1598C19.28-48.1598 20.64-47.8397 21.92-47.2798C23.1201-46.7198 24.1602-45.9198 24.88-44.9598C25.6001-43.9197 26.0001-42.7998 26.16-41.4398L26.16-41.1997L23.12-41.1997L23.12-41.4398C22.9601-42.2397 22.72-42.9598 22.24-43.5197C21.76-44.0797 21.12-44.5598 20.3199-44.8797C19.52-45.1997 18.64-45.3597 17.6-45.3597C16.5599-45.3597 15.6-45.1997 14.7999-44.8797C14-44.5597 13.36-44.0797 12.96-43.5197C12.48-42.9598 12.3199-42.2397 12.3199-41.4398L12.3199-41.4398C12.3199-40.4798 12.7198-39.6798 13.4399-39.0397C14.1599-38.3997 15.36-37.9197 16.96-37.5997L19.6799-37.0397C22.1599-36.4798 23.92-35.6798 25.0399-34.6398C26.1599-33.5997 26.7198-32.0798 26.7198-30.2397L26.7198-30.2397C26.7198-28.7997 26.3199-27.5997 25.5999-26.5598C24.8799-25.5197 23.84-24.7197 22.4799-24.1598C21.1199-23.5998 19.5199-23.2798 17.6798-23.2798C15.7599-23.1198 14.2399-23.3597 12.88-23.9197ZM79.6799-35.7598C81.2-35.7598 82.4-36.1598 83.2799-36.9598C84.1599-37.7598 84.5599-38.8798 84.5599-40.3998L84.5599-40.3998C84.5599-41.8398 84.08-42.9598 83.2-43.7598C82.3199-44.5598 81.12-44.9598 79.52-44.9598L73.84-44.9598L73.84-35.6798L79.6799-35.6798L79.6799-35.7598ZM50.3199-47.6798L53.36-47.6798L53.36-23.5198L50.3199-23.5198L50.3199-47.6798ZM53.0399-35.8397L53.36-35.8397L63.6-47.6798L67.36-47.6798L57.7599-36.7998L57.6-36.7998L52.96-31.6798L52.96-35.8397L53.0399-35.8397ZM55.6799-35.0397L57.84-37.1997L68.3199-23.5197L64.4799-23.5197L55.6799-35.0397Z"/>
  </g>
 </g>
</svg>
