<?xml version="1.0" encoding="UTF-8"?>
<!--Generator: Apple Native CoreSVG 175-->
<!DOCTYPE svg
PUBLIC "-//W3C//DTD SVG 1.1//EN"
       "http://www.w3.org/Graphics/SVG/1.1/DTD/svg11.dtd">
<svg version="1.1" xmlns="http://www.w3.org/2000/svg" xmlns:xlink="http://www.w3.org/1999/xlink" width="3300" height="2200">
 <!--glyph: "", point size: 100.0, font version: "17.1d1e1", template writer version: "65.1"-->
 <style>.hierarchical-0:secondary {fill:#4D4D4D}
.hierarchical-1:primary {fill:#212121}

.SFSymbolsPreview212121 {fill:#212121;opacity:1.0}
.SFSymbolsPreview4D4D4D {fill:#4D4D4D;opacity:1.0}
</style>
 <g id="Notes">
  <rect height="2200" id="artboard" style="fill:white;opacity:1" width="3300" x="0" y="0"/>
  <line style="fill:none;stroke:black;opacity:1;stroke-width:0.5;" x1="263" x2="3036" y1="292" y2="292"/>
  <text style="stroke:none;fill:black;font-family:sans-serif;font-size:13;font-weight:bold;" transform="matrix(1 0 0 1 263 322)">Weight/Scale Variations</text>
  <text style="stroke:none;fill:black;font-family:sans-serif;font-size:13;text-anchor:middle;" transform="matrix(1 0 0 1 559.711 322)">Ultralight</text>
  <text style="stroke:none;fill:black;font-family:sans-serif;font-size:13;text-anchor:middle;" transform="matrix(1 0 0 1 856.422 322)">Thin</text>
  <text style="stroke:none;fill:black;font-family:sans-serif;font-size:13;text-anchor:middle;" transform="matrix(1 0 0 1 1153.13 322)">Light</text>
  <text style="stroke:none;fill:black;font-family:sans-serif;font-size:13;text-anchor:middle;" transform="matrix(1 0 0 1 1449.84 322)">Regular</text>
  <text style="stroke:none;fill:black;font-family:sans-serif;font-size:13;text-anchor:middle;" transform="matrix(1 0 0 1 1746.56 322)">Medium</text>
  <text style="stroke:none;fill:black;font-family:sans-serif;font-size:13;text-anchor:middle;" transform="matrix(1 0 0 1 2043.27 322)">Semibold</text>
  <text style="stroke:none;fill:black;font-family:sans-serif;font-size:13;text-anchor:middle;" transform="matrix(1 0 0 1 2339.98 322)">Bold</text>
  <text style="stroke:none;fill:black;font-family:sans-serif;font-size:13;text-anchor:middle;" transform="matrix(1 0 0 1 2636.69 322)">Heavy</text>
  <text style="stroke:none;fill:black;font-family:sans-serif;font-size:13;text-anchor:middle;" transform="matrix(1 0 0 1 2933.4 322)">Black</text>
  <line style="fill:none;stroke:black;opacity:1;stroke-width:0.5;" x1="263" x2="3036" y1="1903" y2="1903"/>
  <g transform="matrix(1 0 0 1 263 1933)">
   <path d="M9.24805 0.830078Q10.8691 0.830078 12.2949 0.214844Q13.7207-0.400391 14.8096-1.49414Q15.8984-2.58789 16.5186-4.01367Q17.1387-5.43945 17.1387-7.05078Q17.1387-8.66211 16.5186-10.0879Q15.8984-11.5137 14.8047-12.6074Q13.7109-13.7012 12.2852-14.3164Q10.8594-14.9316 9.23828-14.9316Q7.62695-14.9316 6.20117-14.3164Q4.77539-13.7012 3.69141-12.6074Q2.60742-11.5137 1.9873-10.0879Q1.36719-8.66211 1.36719-7.05078Q1.36719-5.43945 1.9873-4.01367Q2.60742-2.58789 3.69629-1.49414Q4.78516-0.400391 6.21094 0.214844Q7.63672 0.830078 9.24805 0.830078ZM9.24805-0.654297Q7.91992-0.654297 6.7627-1.14746Q5.60547-1.64062 4.73145-2.51953Q3.85742-3.39844 3.36426-4.56055Q2.87109-5.72266 2.87109-7.05078Q2.87109-8.37891 3.35938-9.54102Q3.84766-10.7031 4.72168-11.582Q5.5957-12.4609 6.75293-12.9541Q7.91016-13.4473 9.23828-13.4473Q10.5762-13.4473 11.7334-12.9541Q12.8906-12.4609 13.7695-11.582Q14.6484-10.7031 15.1465-9.54102Q15.6445-8.37891 15.6445-7.05078Q15.6445-5.72266 15.1514-4.56055Q14.6582-3.39844 13.7842-2.51953Q12.9102-1.64062 11.748-1.14746Q10.5859-0.654297 9.24805-0.654297ZM5.6543-7.05078Q5.6543-6.72852 5.85938-6.52832Q6.06445-6.32812 6.40625-6.32812L8.51562-6.32812L8.51562-4.20898Q8.51562-3.88672 8.71094-3.67676Q8.90625-3.4668 9.23828-3.4668Q9.56055-3.4668 9.77051-3.67676Q9.98047-3.88672 9.98047-4.20898L9.98047-6.32812L12.0898-6.32812Q12.4219-6.32812 12.627-6.52832Q12.832-6.72852 12.832-7.05078Q12.832-7.38281 12.627-7.58789Q12.4219-7.79297 12.0898-7.79297L9.98047-7.79297L9.98047-9.90234Q9.98047-10.2344 9.77051-10.4443Q9.56055-10.6543 9.23828-10.6543Q8.90625-10.6543 8.71094-10.4443Q8.51562-10.2344 8.51562-9.90234L8.51562-7.79297L6.40625-7.79297Q6.06445-7.79297 5.85938-7.58789Q5.6543-7.38281 5.6543-7.05078Z"/>
  </g>
  <g transform="matrix(1 0 0 1 281.867 1933)">
   <path d="M11.709 2.91016Q13.75 2.91016 15.5518 2.12891Q17.3535 1.34766 18.7305-0.0292969Q20.1074-1.40625 20.8887-3.20801Q21.6699-5.00977 21.6699-7.05078Q21.6699-9.0918 20.8887-10.8936Q20.1074-12.6953 18.7305-14.0723Q17.3535-15.4492 15.5469-16.2305Q13.7402-17.0117 11.6992-17.0117Q9.6582-17.0117 7.85645-16.2305Q6.05469-15.4492 4.68262-14.0723Q3.31055-12.6953 2.5293-10.8936Q1.74805-9.0918 1.74805-7.05078Q1.74805-5.00977 2.5293-3.20801Q3.31055-1.40625 4.6875-0.0292969Q6.06445 1.34766 7.86621 2.12891Q9.66797 2.91016 11.709 2.91016ZM11.709 1.25Q9.98047 1.25 8.47656 0.605469Q6.97266-0.0390625 5.83496-1.17676Q4.69727-2.31445 4.05762-3.81836Q3.41797-5.32227 3.41797-7.05078Q3.41797-8.7793 4.05762-10.2832Q4.69727-11.7871 5.83008-12.9297Q6.96289-14.0723 8.4668-14.7119Q9.9707-15.3516 11.6992-15.3516Q13.4277-15.3516 14.9316-14.7119Q16.4355-14.0723 17.5781-12.9297Q18.7207-11.7871 19.3652-10.2832Q20.0098-8.7793 20.0098-7.05078Q20.0098-5.32227 19.3701-3.81836Q18.7305-2.31445 17.5928-1.17676Q16.4551-0.0390625 14.9463 0.605469Q13.4375 1.25 11.709 1.25ZM7.17773-7.05078Q7.17773-6.69922 7.41211-6.47461Q7.64648-6.25 8.01758-6.25L10.8887-6.25L10.8887-3.36914Q10.8887-2.99805 11.1133-2.76855Q11.3379-2.53906 11.6895-2.53906Q12.0605-2.53906 12.29-2.76855Q12.5195-2.99805 12.5195-3.36914L12.5195-6.25L15.4004-6.25Q15.7715-6.25 16.001-6.47461Q16.2305-6.69922 16.2305-7.05078Q16.2305-7.42188 16.001-7.65137Q15.7715-7.88086 15.4004-7.88086L12.5195-7.88086L12.5195-10.752Q12.5195-11.1328 12.29-11.3623Q12.0605-11.5918 11.6895-11.5918Q11.3379-11.5918 11.1133-11.3574Q10.8887-11.123 10.8887-10.752L10.8887-7.88086L8.01758-7.88086Q7.63672-7.88086 7.40723-7.65137Q7.17773-7.42188 7.17773-7.05078Z"/>
  </g>
  <g transform="matrix(1 0 0 1 305.646 1933)">
   <path d="M14.9707 5.66406Q17.0605 5.66406 18.96 5.01465Q20.8594 4.36523 22.4512 3.19336Q24.043 2.02148 25.2197 0.429688Q26.3965-1.16211 27.0459-3.06641Q27.6953-4.9707 27.6953-7.05078Q27.6953-9.14062 27.0459-11.04Q26.3965-12.9395 25.2197-14.5312Q24.043-16.123 22.4512-17.2998Q20.8594-18.4766 18.9551-19.126Q17.0508-19.7754 14.9609-19.7754Q12.8711-19.7754 10.9717-19.126Q9.07227-18.4766 7.48535-17.2998Q5.89844-16.123 4.72168-14.5312Q3.54492-12.9395 2.90039-11.04Q2.25586-9.14062 2.25586-7.05078Q2.25586-4.9707 2.90527-3.06641Q3.55469-1.16211 4.72656 0.429688Q5.89844 2.02148 7.49023 3.19336Q9.08203 4.36523 10.9814 5.01465Q12.8809 5.66406 14.9707 5.66406ZM14.9707 3.84766Q13.1641 3.84766 11.5283 3.2959Q9.89258 2.74414 8.53516 1.74805Q7.17773 0.751953 6.17676-0.610352Q5.17578-1.97266 4.62891-3.6084Q4.08203-5.24414 4.08203-7.05078Q4.08203-8.86719 4.62891-10.5029Q5.17578-12.1387 6.17188-13.501Q7.16797-14.8633 8.52539-15.8594Q9.88281-16.8555 11.5186-17.4023Q13.1543-17.9492 14.9609-17.9492Q16.7773-17.9492 18.4131-17.4023Q20.0488-16.8555 21.4111-15.8594Q22.7734-14.8633 23.7695-13.501Q24.7656-12.1387 25.3174-10.5029Q25.8691-8.86719 25.8691-7.05078Q25.8789-5.24414 25.332-3.6084Q24.7852-1.97266 23.7842-0.610352Q22.7832 0.751953 21.4209 1.74805Q20.0586 2.74414 18.4229 3.2959Q16.7871 3.84766 14.9707 3.84766ZM9.19922-7.05078Q9.19922-6.66992 9.45801-6.4209Q9.7168-6.17188 10.1172-6.17188L14.0625-6.17188L14.0625-2.2168Q14.0625-1.81641 14.3115-1.55762Q14.5605-1.29883 14.9512-1.29883Q15.3516-1.29883 15.6104-1.55273Q15.8691-1.80664 15.8691-2.2168L15.8691-6.17188L19.8242-6.17188Q20.2246-6.17188 20.4785-6.4209Q20.7324-6.66992 20.7324-7.05078Q20.7324-7.46094 20.4785-7.71484Q20.2246-7.96875 19.8242-7.96875L15.8691-7.96875L15.8691-11.9141Q15.8691-12.3242 15.6104-12.583Q15.3516-12.8418 14.9512-12.8418Q14.5605-12.8418 14.3115-12.583Q14.0625-12.3242 14.0625-11.9141L14.0625-7.96875L10.1172-7.96875Q9.70703-7.96875 9.45312-7.71484Q9.19922-7.46094 9.19922-7.05078Z"/>
  </g>
  <text style="stroke:none;fill:black;font-family:sans-serif;font-size:13;font-weight:bold;" transform="matrix(1 0 0 1 263 1953)">Design Variations</text>
  <text style="stroke:none;fill:black;font-family:sans-serif;font-size:13;" transform="matrix(1 0 0 1 263 1971)">Symbols are supported in up to nine weights and three scales.</text>
  <text style="stroke:none;fill:black;font-family:sans-serif;font-size:13;" transform="matrix(1 0 0 1 263 1989)">For optimal layout with text and other symbols, vertically align</text>
  <text style="stroke:none;fill:black;font-family:sans-serif;font-size:13;" transform="matrix(1 0 0 1 263 2007)">symbols with the adjacent text.</text>
  <line style="fill:none;stroke:#00AEEF;stroke-width:0.5;opacity:1.0;" x1="776" x2="776" y1="1919" y2="1933"/>
  <g transform="matrix(1 0 0 1 776 1933)">
   <path d="M3.31055 0.15625Q3.70117 0.15625 3.91602-0.00976562Q4.13086-0.175781 4.26758-0.585938L5.52734-4.0332L11.2891-4.0332L12.5488-0.585938Q12.6855-0.175781 12.9004-0.00976562Q13.1152 0.15625 13.4961 0.15625Q13.8867 0.15625 14.1162-0.0585938Q14.3457-0.273438 14.3457-0.644531Q14.3457-0.869141 14.2383-1.17188L9.6582-13.3691Q9.48242-13.8184 9.17969-14.043Q8.87695-14.2676 8.4082-14.2676Q7.5-14.2676 7.17773-13.3789L2.59766-1.16211Q2.49023-0.859375 2.49023-0.634766Q2.49023-0.263672 2.70996-0.0537109Q2.92969 0.15625 3.31055 0.15625ZM6.00586-5.51758L8.37891-12.0898L8.42773-12.0898L10.8008-5.51758Z"/>
  </g>
  <line style="fill:none;stroke:#00AEEF;stroke-width:0.5;opacity:1.0;" x1="793.197" x2="793.197" y1="1919" y2="1933"/>
  <text style="stroke:none;fill:black;font-family:sans-serif;font-size:13;font-weight:bold;" transform="matrix(1 0 0 1 776 1953)">Margins</text>
  <text style="stroke:none;fill:black;font-family:sans-serif;font-size:13;" transform="matrix(1 0 0 1 776 1971)">Leading and trailing margins on the left and right side of each symbol</text>
  <text style="stroke:none;fill:black;font-family:sans-serif;font-size:13;" transform="matrix(1 0 0 1 776 1989)">can be adjusted by modifying the x-location of the margin guidelines.</text>
  <text style="stroke:none;fill:black;font-family:sans-serif;font-size:13;" transform="matrix(1 0 0 1 776 2007)">Modifications are automatically applied proportionally to all</text>
  <text style="stroke:none;fill:black;font-family:sans-serif;font-size:13;" transform="matrix(1 0 0 1 776 2025)">scales and weights.</text>
  <g transform="matrix(1 0 0 1 1289 1933)">
   <path d="M2.8418 1.86523L4.54102 3.57422Q5.18555 4.22852 5.90332 4.17969Q6.62109 4.13086 7.31445 3.35938L18.0078-8.42773L17.041-9.4043L6.42578 2.27539Q6.16211 2.57812 5.89355 2.61719Q5.625 2.65625 5.27344 2.30469L4.10156 1.14258Q3.75 0.791016 3.79395 0.522461Q3.83789 0.253906 4.14062-0.0195312L15.6152-10.8203L14.6387-11.7871L3.04688-0.898438Q2.30469-0.214844 2.25098 0.498047Q2.19727 1.21094 2.8418 1.86523ZM9.25781-16.3281Q8.94531-16.0254 8.90625-15.6348Q8.86719-15.2441 9.04297-14.9512Q9.21875-14.6777 9.55566-14.541Q9.89258-14.4043 10.3809-14.5215Q11.4746-14.7754 12.5977-14.7314Q13.7207-14.6875 14.7949-13.9844L14.209-12.5293Q13.9551-11.9043 14.0674-11.4404Q14.1797-10.9766 14.5801-10.5664L16.875-8.25195Q17.2363-7.88086 17.5781-7.82227Q17.9199-7.76367 18.3398-7.8418L19.4043-8.03711L20.0684-7.36328L20.0293-6.80664Q20-6.43555 20.1221-6.12305Q20.2441-5.81055 20.6055-5.44922L21.3672-4.70703Q21.7285-4.3457 22.1533-4.33105Q22.5781-4.31641 22.9297-4.66797L25.8398-7.58789Q26.1914-7.93945 26.1816-8.35449Q26.1719-8.76953 25.8105-9.13086L25.0391-9.89258Q24.6875-10.2539 24.3799-10.3857Q24.0723-10.5176 23.7109-10.4883L23.1348-10.4395L22.4902-11.0742L22.7344-12.1973Q22.832-12.6172 22.6953-12.9834Q22.5586-13.3496 22.1191-13.7891L19.9219-15.9766Q18.6719-17.2168 17.2607-17.8369Q15.8496-18.457 14.4189-18.4814Q12.9883-18.5059 11.665-17.959Q10.3418-17.4121 9.25781-16.3281ZM10.752-15.957Q11.6602-16.6211 12.7002-16.9043Q13.7402-17.1875 14.8047-17.085Q15.8691-16.9824 16.8701-16.5137Q17.8711-16.0449 18.7012-15.2051L21.1328-12.793Q21.3086-12.6172 21.3525-12.4512Q21.3965-12.2852 21.3379-12.0312L21.0156-10.5469L22.5195-9.0625L23.5059-9.12109Q23.6914-9.13086 23.7891-9.09668Q23.8867-9.0625 24.0332-8.91602L24.6094-8.33984L22.168-5.89844L21.5918-6.47461Q21.4453-6.62109 21.4062-6.71875Q21.3672-6.81641 21.377-7.01172L21.4453-7.98828L19.9512-9.47266L18.4277-9.21875Q18.1836-9.16992 18.042-9.2041Q17.9004-9.23828 17.7148-9.41406L15.7129-11.416Q15.5176-11.5918 15.4932-11.7529Q15.4688-11.9141 15.5859-12.1875L16.4648-14.2773Q15.293-15.3711 13.8281-15.791Q12.3633-16.2109 10.8398-15.7617Q10.7227-15.7324 10.6885-15.8057Q10.6543-15.8789 10.752-15.957Z"/>
  </g>
  <text style="stroke:none;fill:black;font-family:sans-serif;font-size:13;font-weight:bold;" transform="matrix(1 0 0 1 1289 1953)">Exporting</text>
  <text style="stroke:none;fill:black;font-family:sans-serif;font-size:13;" transform="matrix(1 0 0 1 1289 1971)">Symbols should be outlined when exporting to ensure the</text>
  <text style="stroke:none;fill:black;font-family:sans-serif;font-size:13;" transform="matrix(1 0 0 1 1289 1989)">design is preserved when submitting to Xcode.</text>
  <text id="template-version" style="stroke:none;fill:black;font-family:sans-serif;font-size:13;text-anchor:end;" transform="matrix(1 0 0 1 3036 1933)">Template v.3.0</text>
  <text style="stroke:none;fill:black;font-family:sans-serif;font-size:13;text-anchor:end;" transform="matrix(1 0 0 1 3036 1951)">Requires Xcode 13 or greater</text>
  <text id="descriptive-name" style="stroke:none;fill:black;font-family:sans-serif;font-size:13;text-anchor:end;" transform="matrix(1 0 0 1 3036 1969)">Generated from ur.bar</text>
  <text style="stroke:none;fill:black;font-family:sans-serif;font-size:13;text-anchor:end;" transform="matrix(1 0 0 1 3036 1987)">Typeset at 100 points</text>
  <text style="stroke:none;fill:black;font-family:sans-serif;font-size:13;" transform="matrix(1 0 0 1 263 726)">Small</text>
  <text style="stroke:none;fill:black;font-family:sans-serif;font-size:13;" transform="matrix(1 0 0 1 263 1156)">Medium</text>
  <text style="stroke:none;fill:black;font-family:sans-serif;font-size:13;" transform="matrix(1 0 0 1 263 1586)">Large</text>
 </g>
 <g id="Guides">
  <g id="H-reference" style="fill:#27AAE1;stroke:none;" transform="matrix(1 0 0 1 339 696)">
   <path d="M0.993347 0L3.6377 0L29.3282-67.1326L30.0301-67.1326L30.0301-70.459L28.1227-70.459ZM11.6882-24.4797L46.9818-24.4797L46.2311-26.7288L12.4382-26.7288ZM55.1193 0L57.7637 0L30.6381-70.459L29.4327-70.459L29.4327-67.1326Z"/>
  </g>
  <line id="Baseline-S" style="fill:none;stroke:#27AAE1;opacity:1;stroke-width:0.5;" x1="263" x2="3036" y1="696" y2="696"/>
  <line id="Capline-S" style="fill:none;stroke:#27AAE1;opacity:1;stroke-width:0.5;" x1="263" x2="3036" y1="625.541" y2="625.541"/>
  <g id="H-reference" style="fill:#27AAE1;stroke:none;" transform="matrix(1 0 0 1 339 1126)">
   <path d="M0.993347 0L3.6377 0L29.3282-67.1326L30.0301-67.1326L30.0301-70.459L28.1227-70.459ZM11.6882-24.4797L46.9818-24.4797L46.2311-26.7288L12.4382-26.7288ZM55.1193 0L57.7637 0L30.6381-70.459L29.4327-70.459L29.4327-67.1326Z"/>
  </g>
  <line id="Baseline-M" style="fill:none;stroke:#27AAE1;opacity:1;stroke-width:0.5;" x1="263" x2="3036" y1="1126" y2="1126"/>
  <line id="Capline-M" style="fill:none;stroke:#27AAE1;opacity:1;stroke-width:0.5;" x1="263" x2="3036" y1="1055.54" y2="1055.54"/>
  <g id="H-reference" style="fill:#27AAE1;stroke:none;" transform="matrix(1 0 0 1 339 1556)">
   <path d="M0.993347 0L3.6377 0L29.3282-67.1326L30.0301-67.1326L30.0301-70.459L28.1227-70.459ZM11.6882-24.4797L46.9818-24.4797L46.2311-26.7288L12.4382-26.7288ZM55.1193 0L57.7637 0L30.6381-70.459L29.4327-70.459L29.4327-67.1326Z"/>
  </g>
  <line id="Baseline-L" style="fill:none;stroke:#27AAE1;opacity:1;stroke-width:0.5;" x1="263" x2="3036" y1="1556" y2="1556"/>
  <line id="Capline-L" style="fill:none;stroke:#27AAE1;opacity:1;stroke-width:0.5;" x1="263" x2="3036" y1="1485.54" y2="1485.54"/>
  <line id="left-margin-Regular-M" style="fill:none;stroke:#00AEEF;stroke-width:0.5;opacity:1.0;" x1="1391.29" x2="1391.29" y1="1030.73" y2="1150.14"/>
  <line id="right-margin-Regular-M" style="fill:none;stroke:#00AEEF;stroke-width:0.5;opacity:1.0;" x1="1508.39" x2="1508.39" y1="1030.73" y2="1150.14"/>
 </g>
 <g id="Symbols">
  <g id="Semibold-L" transform="matrix(1 0 0 1 1970.22 1556)">
   <path class="hierarchical-0:secondary SFSymbolsPreview4D4D4D" d="M131.5-74.7855L14.4997-74.7855C10.9095-74.7855 7.99971-77.6959 7.99971-81.2855C7.99971-84.8751 10.9095-87.7855 14.4997-87.7855L131.5-87.7855C135.09-87.7855 138-84.8751 138-81.2855C138-77.6959 135.09-74.7855 131.5-74.7855ZM131.5 17.3851L14.4997 17.3851C10.9095 17.3851 7.99971 14.4753 7.99971 10.8851C7.99971 7.29483 10.9095 4.38507 14.4997 4.38507L131.5 4.38507C135.09 4.38507 138 7.29483 138 10.8851C138 14.4753 135.09 17.3851 131.5 17.3851Z"/>
   <path class="hierarchical-1:primary SFSymbolsPreview212121" d="M70.92-67.2452L96.14-67.2452C100.69-67.2452 104.46-66.4652 107.71-64.9052C110.96-63.3452 113.43-61.0052 115.12-58.1452C116.81-55.2852 117.72-51.6452 117.72-47.6152L117.72-47.4852C117.72-43.1952 116.68-39.5552 114.47-36.3052C112.26-33.0552 109.4-30.8452 105.76-29.5452L119.54-4.19519L106.67-4.19519L94.32-27.8552C94.19-27.8552 94.19-27.8552 94.06-27.8552C93.93-27.8552 93.8-27.8552 93.8-27.8552L82.23-27.8552L82.23-4.19519L70.92-4.19519L70.92-67.2452ZM20.09-6.0152C16.19-7.96521 13.2-10.6952 11.12-14.2052C9.03996-17.7152 7.99996-21.7452 7.99996-26.4252L7.99996-67.2452L19.31-67.2452L19.31-27.3352C19.31-22.9152 20.61-19.4052 23.21-16.8052C25.81-14.2052 29.45-12.7752 34-12.7752C38.68-12.7752 42.32-14.0752 44.79-16.8052C47.26-19.5352 48.56-22.9152 48.56-27.3352L48.56-67.2452L59.74-67.2452L59.74-26.4252C59.74-21.7452 58.7-17.7152 56.62-14.2052C54.54-10.6952 51.55-7.96521 47.65-6.0152C43.75-4.06519 39.2-3.02521 33.87-3.02521C28.54-3.02521 23.99-4.06519 20.09-6.0152ZM94.97-36.6952C98.61-36.6952 101.34-37.6052 103.29-39.5552C105.24-41.3752 106.28-44.1052 106.28-47.4852L106.28-47.6152C106.28-50.8652 105.24-53.4652 103.16-55.4152C101.08-57.3652 98.22-58.2752 94.71-58.2752L82.23-58.2752L82.23-36.8252L94.97-36.8252L94.97-36.6952ZM127.21-5.3652C126.04-6.53519 125.39-8.09518 125.39-9.78519C125.39-11.6052 126.04-13.0352 127.21-14.3352C128.38-15.5052 129.94-16.1552 131.76-16.1552C133.45-16.1552 135.01-15.5052 136.18-14.3352C137.35-13.1652 138-11.6052 138-9.78519C138-8.09518 137.35-6.53519 136.18-5.3652C135.01-4.19519 133.45-3.5452 131.76-3.5452C129.94-3.5452 128.38-4.19519 127.21-5.3652ZM127.21-37.4752C126.04-38.6452 125.39-40.2052 125.39-41.8952C125.39-43.5852 126.04-45.1452 127.21-46.3152C128.38-47.4852 129.94-48.1352 131.76-48.1352C133.45-48.1352 135.01-47.4852 136.18-46.3152C137.35-45.1452 138-43.5852 138-41.8952C138-40.2052 137.35-38.6452 136.18-37.4752C135.01-36.3052 133.45-35.6552 131.76-35.6552C129.94-35.6552 128.38-36.3052 127.21-37.4752Z"/>
  </g>
  <g id="Regular-L" transform="matrix(1 0 0 1 1376.14 1556)">
   <path class="hierarchical-0:secondary SFSymbolsPreview4D4D4D" d="M133.45 17.6602L13.8497 17.6602C10.6188 17.6602 7.99971 15.0412 7.99971 11.8102C7.99971 8.57928 10.6188 5.96027 13.8497 5.96027L133.45 5.96027C136.681 5.96027 139.3 8.57928 139.3 11.8102C139.3 15.0412 136.681 17.6602 133.45 17.6602ZM133.45-76.4603L13.8497-76.4603C10.6188-76.4603 7.99971-79.0793 7.99971-82.3102C7.99971-85.5412 10.6188-88.1602 13.8497-88.1602L133.45-88.1602C136.681-88.1602 139.3-85.5412 139.3-82.3102C139.3-79.0793 136.681-76.4603 133.45-76.4603Z"/>
   <path class="hierarchical-1:primary SFSymbolsPreview212121" d="M73.78-68.7903L98.48-68.7903C102.77-68.7903 106.41-68.0103 109.53-66.3203C112.65-64.6302 115.12-62.4203 116.81-59.4302C118.5-56.4402 119.41-53.0602 119.41-49.0302L119.41-48.9002C119.41-44.3503 118.24-40.3203 115.9-37.0703C113.56-33.6902 110.31-31.4803 106.15-30.0503L121.36-2.75024L111.74-2.75024L97.7-28.8802C97.57-28.8802 97.57-28.8802 97.44-28.8802C97.31-28.8802 97.31-28.8802 97.18-28.8802L81.97-28.8802L81.97-2.75024L73.78-2.75024C73.78-2.75024 73.78-68.7903 73.78-68.7903ZM20.87-4.83026C16.97-6.91025 13.98-9.77026 11.9-13.4102C9.82003-17.0503 8.78003-21.2103 8.78003-26.0203L8.78003-68.7903L16.97-68.7903L16.97-26.5403C16.97-21.4702 18.53-17.3102 21.65-14.1902C24.77-11.0703 29.19-9.38025 34.91-9.38025C40.63-9.38025 45.05-10.9402 48.17-14.1902C51.29-17.4402 52.85-21.4702 52.85-26.5403L52.85-68.7903L61.04-68.7903L61.04-26.0203C61.04-21.2103 60-17.0503 57.92-13.4102C55.84-9.77026 52.85-6.91025 48.95-4.83026C45.05-2.75024 40.37-1.71027 34.91-1.71027C29.45-1.71027 24.77-2.75024 20.87-4.83026ZM97.7-36.1602C101.99-36.1602 105.24-37.2003 107.45-39.4102C109.66-41.6203 110.96-44.7403 110.96-48.7703L110.96-48.9002C110.96-52.8003 109.79-55.9203 107.32-58.1302C104.85-60.3402 101.6-61.3802 97.31-61.3802L81.97-61.3802L81.97-36.1602L97.7-36.1602ZM129.81-3.66025C128.77-4.70026 128.25-5.87024 128.25-7.30026C128.25-8.73026 128.77-10.0302 129.81-10.9402C130.85-11.8503 132.02-12.5002 133.45-12.5002C134.88-12.5002 136.18-11.9803 137.09-10.9402C138-9.90024 138.65-8.73025 138.65-7.30026C138.65-5.87024 138.13-4.57025 137.09-3.66025C136.05-2.75024 134.88-2.10025 133.45-2.10025C132.02-2.23026 130.72-2.75024 129.81-3.66025ZM129.81-39.0203C128.77-40.0602 128.25-41.2303 128.25-42.6602C128.25-44.0902 128.77-45.3903 129.81-46.3003C130.85-47.2103 132.02-47.8603 133.45-47.8603C134.88-47.8603 136.18-47.3402 137.09-46.3003C138-45.2603 138.65-44.0902 138.65-42.6602C138.65-41.2303 138.13-39.9303 137.09-39.0203C136.05-38.1103 134.88-37.4603 133.45-37.4603C132.02-37.5902 130.72-38.1103 129.81-39.0203Z"/>
  </g>
  <g id="Semibold-M" transform="matrix(1 0 0 1 1985.22 1126)">
   <path class="hierarchical-0:secondary SFSymbolsPreview4D4D4D" d="M103-65.7002L12.9997-65.7002C10.238-65.7002 7.99971-67.939 7.99971-70.7002C7.99971-73.4614 10.238-75.7002 12.9997-75.7002L103-75.7002C105.761-75.7002 108-73.4614 108-70.7002C108-67.939 105.761-65.7002 103-65.7002ZM103 5.2002L12.9997 5.2002C10.238 5.2002 7.99971 2.96191 7.99971 0.200195C7.99971-2.56152 10.238-4.7998 12.9997-4.7998L103-4.7998C105.761-4.7998 108-2.56152 108 0.200195C108 2.96191 105.761 5.2002 103 5.2002Z"/>
   <path class="hierarchical-1:primary SFSymbolsPreview212121" d="M56.3999-59.9L75.7999-59.9C79.2999-59.9 82.1999-59.3 84.6999-58.1C87.1999-56.9 89.0999-55.1 90.3999-52.9C91.6999-50.7 92.3999-47.9 92.3999-44.8L92.3999-44.7C92.3999-41.4 91.5999-38.6 89.8999-36.1C88.1999-33.6 85.9999-31.9 83.1999-30.9L93.7999-11.4L83.8999-11.4L74.3999-29.6C74.2999-29.6 74.2999-29.6 74.1999-29.6C74.0999-29.6 73.9999-29.6 73.9999-29.6L65.0999-29.6L65.0999-11.4L56.3999-11.4L56.3999-59.9ZM17.2999-12.8C14.2999-14.3 11.9999-16.4 10.3999-19.1C8.7999-21.8 7.9999-24.9 7.9999-28.5L7.9999-59.9L16.6999-59.9L16.6999-29.2C16.6999-25.8 17.6999-23.1 19.6999-21.1C21.6999-19.1 24.4999-18 27.9999-18C31.5999-18 34.3999-19 36.2999-21.1C38.1999-23.2 39.1999-25.8 39.1999-29.2L39.1999-59.9L47.7999-59.9L47.7999-28.5C47.7999-24.9 46.9999-21.8 45.3999-19.1C43.7999-16.4 41.4999-14.3 38.4999-12.8C35.4999-11.3 31.9999-10.5 27.8999-10.5C23.7999-10.5 20.2999-11.3 17.2999-12.8ZM74.8999-36.4C77.6999-36.4 79.7999-37.1 81.2999-38.6C82.7999-40 83.5999-42.1 83.5999-44.7L83.5999-44.8C83.5999-47.3 82.7999-49.3 81.1999-50.8C79.5999-52.3 77.3999-53 74.6999-53L65.0999-53L65.0999-36.5L74.8999-36.5L74.8999-36.4ZM99.6999-12.3C98.7999-13.2 98.2999-14.4 98.2999-15.7C98.2999-17.1 98.7999-18.2 99.6999-19.2C100.6-20.1 101.8-20.6 103.2-20.6C104.5-20.6 105.7-20.1 106.6-19.2C107.5-18.3 108-17.1 108-15.7C108-14.4 107.5-13.2 106.6-12.3C105.7-11.4 104.5-10.9 103.2-10.9C101.8-10.9 100.6-11.4 99.6999-12.3ZM99.6999-37C98.7999-37.9 98.2999-39.1 98.2999-40.4C98.2999-41.7 98.7999-42.9 99.6999-43.8C100.6-44.7 101.8-45.2 103.2-45.2C104.5-45.2 105.7-44.7 106.6-43.8C107.5-42.9 108-41.7 108-40.4C108-39.1 107.5-37.9 106.6-37C105.7-36.1 104.5-35.6 103.2-35.6C101.8-35.6 100.6-36.1 99.6999-37Z"/>
  </g>
  <g id="Regular-M" transform="matrix(1 0 0 1 1391.29 1126)">
   <path class="hierarchical-0:secondary SFSymbolsPreview4D4D4D" d="M104.5 5.40039L12.4997 5.40039C10.0144 5.40039 7.99971 3.38574 7.99971 0.900391C7.99971-1.58496 10.0144-3.59961 12.4997-3.59961L104.5-3.59961C106.985-3.59961 109-1.58496 109 0.900391C109 3.38574 106.985 5.40039 104.5 5.40039ZM104.5-67L12.4997-67C10.0144-67 7.99971-69.0146 7.99971-71.5C7.99971-73.9854 10.0144-76 12.4997-76L104.5-76C106.985-76 109-73.9854 109-71.5C109-69.0146 106.985-67 104.5-67Z"/>
   <path class="hierarchical-1:primary SFSymbolsPreview212121" d="M58.5999-61.1L77.5999-61.1C80.9-61.1 83.6999-60.5 86.0999-59.2C88.5-57.9 90.4-56.2 91.6999-53.9C93-51.6 93.6999-49 93.6999-45.9L93.6999-45.8C93.6999-42.3 92.7999-39.2 91-36.7C89.1999-34.1 86.6999-32.4 83.5-31.3L95.1999-10.3L87.7999-10.3L77-30.4C76.9-30.4 76.9-30.4 76.8-30.4C76.7-30.4 76.7-30.4 76.6-30.4L64.9-30.4L64.9-10.3L58.6-10.3C58.6-10.3 58.6-61.1 58.5999-61.1ZM17.9-11.9C14.9-13.5 12.6-15.7 11-18.5C9.39995-21.3 8.59995-24.5 8.59995-28.2L8.59995-61.1L14.9-61.1L14.9-28.6C14.9-24.7 16.1-21.5 18.5-19.1C20.9-16.7 24.3-15.4 28.7-15.4C33.1-15.4 36.5-16.6 38.9-19.1C41.3-21.6 42.5-24.7 42.5-28.6L42.5-61.1L48.8-61.1L48.8-28.2C48.8-24.5 48-21.3 46.3999-18.5C44.7999-15.7 42.4999-13.5 39.4999-11.9C36.4999-10.3 32.8999-9.5 28.6999-9.5C24.4999-9.5 20.9-10.3 17.9-11.9ZM77-36C80.3-36 82.8-36.8 84.5-38.5C86.1999-40.2 87.1999-42.6 87.1999-45.7L87.1999-45.8C87.1999-48.8 86.2999-51.2 84.3999-52.9C82.4999-54.6 79.9999-55.4 76.6999-55.4L64.9-55.4L64.9-36L77-36ZM101.7-11C100.9-11.8 100.5-12.7 100.5-13.8C100.5-14.9 100.9-15.9 101.7-16.6C102.5-17.3 103.4-17.8 104.5-17.8C105.6-17.8 106.6-17.4 107.3-16.6C108-15.8 108.5-14.9 108.5-13.8C108.5-12.7 108.1-11.7 107.3-11C106.5-10.3 105.6-9.8 104.5-9.8C103.4-9.9 102.4-10.3 101.7-11ZM101.7-38.2C100.9-39 100.5-39.9 100.5-41C100.5-42.1 100.9-43.1 101.7-43.8C102.5-44.5 103.4-45 104.5-45C105.6-45 106.6-44.6 107.3-43.8C108-43 108.5-42.1 108.5-41C108.5-39.9 108.1-38.9 107.3-38.2C106.5-37.5 105.6-37 104.5-37C103.4-37.1 102.4-37.5 101.7-38.2Z"/>
  </g>
  <g id="Semibold-S" transform="matrix(1 0 0 1 1995.22 696)">
   <path class="hierarchical-0:secondary SFSymbolsPreview4D4D4D" d="M83.9997-59.5604L11.9997-59.5604C9.79033-59.5604 7.99971-61.3514 7.99971-63.5604C7.99971-65.7693 9.79033-67.5604 11.9997-67.5604L83.9997-67.5604C86.2091-67.5604 87.9997-65.7693 87.9997-63.5604C87.9997-61.3514 86.2091-59.5604 83.9997-59.5604ZM83.9997-2.84003L11.9997-2.84003C9.79033-2.84003 7.99971-4.63068 7.99971-6.84003C7.99971-9.04941 9.79033-10.84 11.9997-10.84L83.9997-10.84C86.2091-10.84 87.9997-9.04941 87.9997-6.84003C87.9997-4.63068 86.2091-2.84003 83.9997-2.84003Z"/>
   <path class="hierarchical-1:primary SFSymbolsPreview212121" d="M46.7199-54.9202L62.2399-54.9202C65.0399-54.9202 67.3599-54.4402 69.3599-53.4802C71.3599-52.5202 72.8799-51.0802 73.9199-49.3202C74.9599-47.5602 75.5199-45.3202 75.5199-42.8402L75.5199-42.7602C75.5199-40.1202 74.8799-37.8802 73.5199-35.8802C72.1599-33.8802 70.3999-32.5202 68.1599-31.7202L76.6399-16.1202L68.7199-16.1202L61.1199-30.6802C61.0399-30.6802 61.0399-30.6802 60.9599-30.6802C60.8799-30.6802 60.7999-30.6802 60.7999-30.6802L53.6799-30.6802L53.6799-16.1202L46.7199-16.1202L46.7199-54.9202ZM15.4399-17.2402C13.0399-18.4402 11.1999-20.1202 9.91986-22.2802C8.63986-24.4402 7.99986-26.9202 7.99986-29.8002L7.99986-54.9202L14.9599-54.9202L14.9599-30.3602C14.9599-27.6402 15.7599-25.4802 17.3599-23.8802C18.9599-22.2802 21.1999-21.4002 23.9999-21.4002C26.8799-21.4002 29.1199-22.2002 30.6399-23.8802C32.1599-25.5602 32.9599-27.6402 32.9599-30.3602L32.9599-54.9202L39.8399-54.9202L39.8399-29.8002C39.8399-26.9202 39.1999-24.4402 37.9199-22.2802C36.6399-20.1202 34.7999-18.4402 32.3999-17.2402C29.9999-16.0402 27.1999-15.4002 23.9199-15.4002C20.6399-15.4002 17.8399-16.0402 15.4399-17.2402ZM61.5199-36.1202C63.7599-36.1202 65.4399-36.6802 66.6399-37.8802C67.8399-39.0002 68.4799-40.6802 68.4799-42.7602L68.4799-42.8402C68.4799-44.8402 67.8399-46.4402 66.5599-47.6402C65.2799-48.8402 63.5199-49.4002 61.3599-49.4002L53.6799-49.4002L53.6799-36.2002L61.5199-36.2002L61.5199-36.1202ZM81.3599-16.8402C80.6399-17.5602 80.2399-18.5202 80.2399-19.5602C80.2399-20.6802 80.6399-21.5602 81.3599-22.3602C82.0799-23.0802 83.0399-23.4802 84.1599-23.4802C85.1999-23.4802 86.1599-23.0802 86.8799-22.3602C87.5999-21.6402 87.9999-20.6802 87.9999-19.5602C87.9999-18.5202 87.5999-17.5602 86.8799-16.8402C86.1599-16.1202 85.1999-15.7202 84.1599-15.7202C83.0399-15.7202 82.0799-16.1202 81.3599-16.8402ZM81.3599-36.6002C80.6399-37.3202 80.2399-38.2802 80.2399-39.3202C80.2399-40.3602 80.6399-41.3202 81.3599-42.0402C82.0799-42.7602 83.0399-43.1602 84.1599-43.1602C85.1999-43.1602 86.1599-42.7602 86.8799-42.0402C87.5999-41.3202 87.9999-40.3602 87.9999-39.3202C87.9999-38.2802 87.5999-37.3202 86.8799-36.6002C86.1599-35.8802 85.1999-35.4802 84.1599-35.4802C83.0399-35.4802 82.0799-35.8802 81.3599-36.6002Z"/>
  </g>
  <g id="Regular-S" transform="matrix(1 0 0 1 1401.39 696)">
   <path class="hierarchical-0:secondary SFSymbolsPreview4D4D4D" d="M85.1997-2.68985L11.5997-2.68985C9.61143-2.68985 7.99971-4.30157 7.99971-6.28986C7.99971-8.27814 9.61143-9.88983 11.5997-9.88983L85.1997-9.88983C87.188-9.88983 88.7997-8.27814 88.7997-6.28986C88.7997-4.30157 87.188-2.68985 85.1997-2.68985ZM85.1997-60.6102L11.5997-60.6102C9.61143-60.6102 7.99971-62.2219 7.99971-64.2101C7.99971-66.1984 9.61143-67.8102 11.5997-67.8102L85.1997-67.8102C87.188-67.8102 88.7997-66.1984 88.7997-64.2101C88.7997-62.2219 87.188-60.6102 85.1997-60.6102Z"/>
   <path class="hierarchical-1:primary SFSymbolsPreview212121" d="M48.4799-55.8902L63.6799-55.8902C66.3199-55.8902 68.5599-55.4102 70.4799-54.3701C72.3999-53.3301 73.9199-51.9702 74.9599-50.1302C75.9999-48.2902 76.5599-46.2101 76.5599-43.7302L76.5599-43.6501C76.5599-40.8502 75.8399-38.3701 74.3999-36.3701C72.9599-34.2902 70.9599-32.9301 68.3999-32.0501L77.7599-15.2502L71.8399-15.2502L63.1999-31.3302C63.1199-31.3302 63.1199-31.3302 63.0399-31.3302C62.9599-31.3302 62.9599-31.3302 62.8799-31.3302L53.5199-31.3302L53.5199-15.2502L48.4799-15.2502C48.4799-15.2502 48.4799-55.8902 48.4799-55.8902ZM15.9199-16.5302C13.5199-17.8102 11.6799-19.5702 10.3999-21.8102C9.1199-24.0502 8.4799-26.6102 8.4799-29.5702L8.4799-55.8902L13.5199-55.8902L13.5199-29.8902C13.5199-26.7702 14.4799-24.2101 16.3999-22.2902C18.3199-20.3701 21.0399-19.3302 24.5599-19.3302C28.0799-19.3302 30.7999-20.2902 32.7199-22.2902C34.6399-24.2902 35.5999-26.7702 35.5999-29.8902L35.5999-55.8902L40.6399-55.8902L40.6399-29.5702C40.6399-26.6102 39.9999-24.0502 38.7199-21.8102C37.4399-19.5702 35.5999-17.8102 33.1999-16.5302C30.7999-15.2502 27.9199-14.6102 24.5599-14.6102C21.1999-14.6102 18.3199-15.2502 15.9199-16.5302ZM63.1999-35.8102C65.8399-35.8102 67.8399-36.4502 69.1999-37.8102C70.5599-39.1702 71.3599-41.0901 71.3599-43.5702L71.3599-43.6501C71.3599-46.0502 70.6399-47.9702 69.1199-49.3301C67.5999-50.6902 65.5999-51.3301 62.9599-51.3301L53.5199-51.3301L53.5199-35.8102L63.1999-35.8102ZM82.9599-15.8102C82.3199-16.4502 81.9999-17.1702 81.9999-18.0502C81.9999-18.9301 82.3199-19.7302 82.9599-20.2902C83.5999-20.8502 84.3199-21.2502 85.1999-21.2502C86.0799-21.2502 86.8799-20.9301 87.4399-20.2902C87.9999-19.6501 88.3999-18.9301 88.3999-18.0502C88.3999-17.1702 88.0799-16.3701 87.4399-15.8102C86.7999-15.2502 86.0799-14.8502 85.1999-14.8502C84.3199-14.9301 83.5199-15.2502 82.9599-15.8102ZM82.9599-37.5702C82.3199-38.2101 81.9999-38.9301 81.9999-39.8102C81.9999-40.6902 82.3199-41.4901 82.9599-42.0502C83.5999-42.6102 84.3199-43.0102 85.1999-43.0102C86.0799-43.0102 86.8799-42.6902 87.4399-42.0502C87.9999-41.4102 88.3999-40.6902 88.3999-39.8102C88.3999-38.9301 88.0799-38.1302 87.4399-37.5702C86.7999-37.0102 86.0799-36.6102 85.1999-36.6102C84.3199-36.6902 83.5199-37.0102 82.9599-37.5702Z"/>
  </g>
 </g>
</svg>
