<?xml version="1.0" encoding="utf-8"?>
<!-- Generator: Adobe Illustrator 26.0.3, SVG Export Plug-In . SVG Version: 6.00 Build 0)  -->
<svg version="1.1"
	 id="Layer_1" xmlns:inkscape="http://www.inkscape.org/namespaces/inkscape" xmlns:sodipodi="http://sodipodi.sourceforge.net/DTD/sodipodi-0.dtd" xmlns:svg="http://www.w3.org/2000/svg"
	 xmlns="http://www.w3.org/2000/svg" xmlns:xlink="http://www.w3.org/1999/xlink" x="0px" y="0px" viewBox="0 0 1920 1080"
	 style="enable-background:new 0 0 1920 1080;" xml:space="preserve">
<style type="text/css">
	.st0{fill:#B50000;}
	.st1{fill:none;stroke:#000000;stroke-miterlimit:10;}
	.st2{fill:none;stroke:#000000;stroke-width:8;stroke-linecap:round;stroke-miterlimit:10;}
	.st3{fill:none;stroke:#000000;stroke-width:8;stroke-linecap:round;stroke-linejoin:round;stroke-miterlimit:10;}
	.st4{fill:none;stroke:#000000;stroke-width:11;stroke-linecap:round;stroke-miterlimit:10;}
	.st5{fill:none;stroke:#000000;stroke-width:11;stroke-linecap:round;stroke-linejoin:round;stroke-miterlimit:10;}
	.st6{font-family:'MyriadPro-Regular';}
	.st7{font-size:18px;}
</style>
<defs>
	
		<inkscape:path-effect  attempt_force_join="false" effect="offset" id="path-effect1105" is_visible="true" linejoin_type="miter" lpeversion="1" miter_limit="4" offset="0.9" unit="mm" update_on_knot_move="true">
		</inkscape:path-effect>
	
		<inkscape:path-effect  attempt_force_join="false" effect="offset" id="path-effect1103" is_visible="true" linejoin_type="miter" lpeversion="1" miter_limit="4" offset="0.6" unit="mm" update_on_knot_move="true">
		</inkscape:path-effect>
</defs>
<sodipodi:namedview  bordercolor="#eeeeee" borderopacity="1" id="namedview97" inkscape:current-layer="Layer_1" inkscape:cx="761.96032" inkscape:cy="909.9655" inkscape:pagecheckerboard="0" inkscape:pageopacity="0" inkscape:pageshadow="0" inkscape:window-height="1220" inkscape:window-maximized="0" inkscape:window-width="2384" inkscape:window-x="1168" inkscape:window-y="108" inkscape:zoom="4.7869947" pagecolor="#505050" showgrid="false">
	</sodipodi:namedview>
<path id="path11" class="st0" d="M429.7,323.9c-2.2,0-5-0.7-7.2-2.2c-7.2-3.6-9.4-12.9-5.8-19.4c0-0.7,26.6-48.9,26.6-107.9
	S417.4,86.5,417.4,86.5c-3.6-7.2-1.4-15.8,5.8-19.4c7.2-3.6,15.8-1.4,19.4,5.8c1.4,2.2,30.9,54.7,30.9,122.3S444,315.3,442.6,317.5
	C439.8,321.1,434.8,323.9,429.7,323.9z M399.5,279.3c0.7-1.4,15.8-36,15.8-84.9s-15.1-83.4-15.8-84.9c-2.9-7.2-11.5-10.8-18.7-7.2
	c-7.2,2.9-10.8,11.5-7.2,18.7c0,0,12.9,30.9,12.9,73.4s-12.9,73.4-12.9,73.4c-2.9,7.2,0,15.8,7.2,18.7c2.2,0.7,3.6,1.4,5.8,1.4
	C392.3,288,397.4,285.1,399.5,279.3z M331.2,259.2c4.3-0.7,7.9-3.6,10.1-7.2c0.7-1.4,16.5-28.1,16.5-57.5S342,137.7,341.3,137
	c-4.3-7.2-12.9-9.4-19.4-5c-7.2,4.3-9.4,12.9-5,19.4c0,0,12.2,21.6,12.2,43.2c0,9.4-2.2,19.4-5,26.6l-93.5-80.6
	c-3.6-2.9-8.6-4.3-12.9-2.9c-4.3,1.4-8.6,4.3-10.1,9.4c0,0.7-7.9,22.3-7.9,47.5s7.9,46.8,7.9,48.2c2.9,7.2,10.8,11.5,18.7,8.6
	c7.2-2.9,11.5-10.8,8.6-18.7c0,0-6.5-18.7-6.5-38.1c0-5.8,0.7-11.5,1.4-16.5l89.9,77.7c2.9,2.2,5.8,3.6,9.4,3.6
	C329.7,259.2,330.5,259.2,331.2,259.2z"/>
<path id="path13" class="st0" d="M1227.8,219.1c-0.5,0-1.3-0.2-1.8-0.5c-1.8-0.9-2.4-3.3-1.4-4.9c0-0.2,6.7-12.3,6.7-27.1
	s-6.5-27.1-6.5-27.1c-0.9-1.8-0.4-4,1.4-4.9s4-0.4,4.9,1.4c0.4,0.5,7.8,13.7,7.8,30.7s-7.4,30.2-7.8,30.7
	C1230.4,218.4,1229.1,219.1,1227.8,219.1z M1220.2,207.9c0.2-0.4,4-9,4-21.3s-3.8-21-4-21.3c-0.7-1.8-2.9-2.7-4.7-1.8
	c-1.8,0.7-2.7,2.9-1.8,4.7c0,0,3.3,7.8,3.3,18.4c0,10.7-3.3,18.4-3.3,18.4c-0.7,1.8,0,4,1.8,4.7c0.5,0.2,0.9,0.4,1.4,0.4
	C1218.4,210.1,1219.7,209.3,1220.2,207.9z M1203.1,202.8c1.1-0.2,2-0.9,2.5-1.8c0.2-0.4,4.2-7.1,4.2-14.5s-4-14.3-4.2-14.5
	c-1.1-1.8-3.3-2.4-4.9-1.3c-1.8,1.1-2.4,3.3-1.3,4.9c0,0,3.1,5.4,3.1,10.9c0,2.4-0.5,4.9-1.3,6.7l-23.5-20.3
	c-0.9-0.7-2.2-1.1-3.3-0.7c-1.1,0.4-2.2,1.1-2.5,2.4c0,0.2-2,5.6-2,11.9c0,6.3,2,11.8,2,12.1c0.7,1.8,2.7,2.9,4.7,2.2
	c1.8-0.7,2.9-2.7,2.2-4.7c0,0-1.6-4.7-1.6-9.6c0-1.4,0.2-2.9,0.4-4.2l22.6,19.5c0.7,0.5,1.4,0.9,2.4,0.9
	C1202.7,202.8,1202.9,202.8,1203.1,202.8z"/>
<path id="path15" class="st0" d="M914.7,251.5c-1.1,0-2.5-0.4-3.6-1.1c-3.6-1.8-4.7-6.5-2.9-9.7c0-0.4,13.4-24.6,13.4-54.2
	s-13-54.2-13-54.2c-1.8-3.6-0.7-7.9,2.9-9.7c3.6-1.8,7.9-0.7,9.7,2.9c0.7,1.1,15.5,27.4,15.5,61.4s-14.8,60.3-15.5,61.4
	C919.7,250,917.2,251.5,914.7,251.5z M899.5,229.1c0.4-0.7,7.9-18.1,7.9-42.6c0-24.6-7.6-41.9-7.9-42.6c-1.4-3.6-5.8-5.4-9.4-3.6
	c-3.6,1.4-5.4,5.8-3.6,9.4c0,0,6.5,15.5,6.5,36.8s-6.5,36.8-6.5,36.8c-1.4,3.6,0,7.9,3.6,9.4c1.1,0.4,1.8,0.7,2.9,0.7
	C895.9,233.4,898.4,232,899.5,229.1z M865.2,219c2.2-0.4,4-1.8,5.1-3.6c0.4-0.7,8.3-14.1,8.3-28.9s-7.9-28.5-8.3-28.9
	c-2.2-3.6-6.5-4.7-9.7-2.5c-3.6,2.2-4.7,6.5-2.5,9.7c0,0,6.1,10.8,6.1,21.7c0,4.7-1.1,9.7-2.5,13.4l-46.9-40.4
	c-1.8-1.4-4.3-2.2-6.5-1.4c-2.2,0.7-4.3,2.2-5.1,4.7c0,0.4-4,11.2-4,23.8s4,23.5,4,24.2c1.4,3.6,5.4,5.8,9.4,4.3
	c3.6-1.4,5.8-5.4,4.3-9.4c0,0-3.2-9.4-3.2-19.1c0-2.9,0.4-5.8,0.7-8.3l45.1,39c1.4,1.1,2.9,1.8,4.7,1.8
	C864.5,219,864.9,219,865.2,219z"/>
<circle id="circle17" class="st1" cx="821.7" cy="186.6" r="50"/>
<circle id="circle19" class="st1" cx="792.7" cy="186.6" r="108"/>
<circle id="circle21" class="st1" cx="771.7" cy="186.6" r="158"/>
<line id="line23" class="st1" x1="737.7" y1="106" x2="965.7" y2="295"/>
<line id="line25" class="st1" x1="992.7" y1="55.7" x2="764.7" y2="244.7"/>
<line id="line27" class="st1" x1="771.7" y1="186.6" x2="1024.7" y2="186.6"/>
<g id="Semibold-M" transform="matrix(1 0 0 1 1984.77 1126)">
	<path d="M-463.8-989.5h59c5.4,0,9.5-1.4,12.3-4.2c2.8-2.8,4.2-6.9,4.2-12.2v-59.2c0-5.4-1.4-9.4-4.2-12.2
		c-2.8-2.8-6.9-4.2-12.3-4.2h-59c-5.4,0-9.5,1.4-12.3,4.2c-2.8,2.8-4.2,6.9-4.2,12.2v59.2c0,5.4,1.4,9.4,4.2,12.2
		C-473.3-990.9-469.2-989.5-463.8-989.5z M-462.9-1000.4c-2.1,0-3.8-0.5-4.9-1.6c-1.1-1.1-1.7-2.8-1.7-5v-57c0-2.2,0.6-3.9,1.7-5
		c1.1-1.1,2.8-1.6,4.9-1.6h57.1c2.1,0,3.8,0.5,4.9,1.6c1.1,1.1,1.7,2.8,1.7,5v57c0,2.2-0.6,3.9-1.7,5c-1.1,1.1-2.8,1.6-4.9,1.6
		H-462.9z"/>
</g>
<g id="Regular-M" transform="matrix(1 0 0 1 1392.45 1126)">
	<path d="M-5.8-990.6h59.2c5.1,0,8.9-1.3,11.5-3.8c2.5-2.5,3.8-6.3,3.8-11.4v-59.6c0-5-1.3-8.8-3.8-11.4s-6.4-3.8-11.5-3.8H-5.8
		c-5.1,0-8.9,1.3-11.5,3.8c-2.6,2.5-3.9,6.3-3.9,11.4v59.6c0,5,1.3,8.8,3.9,11.4C-14.7-991.9-10.9-990.6-5.8-990.6z M-5.7-998.5
		c-2.4,0-4.3-0.6-5.6-1.9c-1.3-1.3-2-3.2-2-5.7v-58.8c0-2.5,0.7-4.4,2-5.7c1.3-1.3,3.2-1.9,5.6-1.9h59c2.4,0,4.3,0.6,5.6,1.9
		c1.3,1.3,2,3.2,2,5.7v58.8c0,2.5-0.7,4.5-2,5.7c-1.3,1.3-3.2,1.9-5.6,1.9H-5.7z"/>
</g>
<g id="g47_00000013185863622741831000000006283605379189255044_">
	<path id="path41_00000160868707688357217580000008748796986113892999_" class="st2" d="M1431.2,197.5c4.2,8.7,6.4,18.4,6.4,28.6
		c0,10.2-2.3,19.8-6.4,28.5"/>
	<path id="path43_00000111882700075765199170000007080536822667790485_" class="st2" d="M1446.6,185.1c5.8,12.5,9.1,26.4,9.1,41
		c0,14.6-3.3,28.5-9,41"/>
	<path id="path45_00000066478854221913702330000000870465416784762539_" class="st3" d="M1415.7,210.6c2.6,4.5,4.2,9.8,4.2,15.4
		s-1.5,10.8-4.2,15.4l0,0l-37.2-30.9l0,0c-2.6,4.5-4.2,9.8-4.2,15.5c0,5.6,1.5,10.8,4.2,15.4"/>
</g>
<g id="g47_00000173883605213184866710000016847888371198259863_">
	<path id="path41_00000168077355684689478770000014537953943752842941_" class="st4" d="M1566.7,197.5c4.2,8.7,6.4,18.4,6.4,28.6
		c0,10.2-2.3,19.8-6.4,28.5"/>
	<path id="path43_00000025416455656874972060000018112439562147028635_" class="st4" d="M1582,185.1c5.8,12.5,9.1,26.4,9.1,41
		c0,14.6-3.3,28.5-9,41"/>
	<path id="path45_00000170964706181732417290000016653371006637062046_" class="st5" d="M1551.1,210.6c2.6,4.5,4.2,9.8,4.2,15.4
		s-1.5,10.8-4.2,15.4l0,0l-37.2-30.9l0,0c-2.6,4.5-4.2,9.8-4.2,15.5c0,5.6,1.5,10.8,4.2,15.4"/>
</g>
<g id="g47_00000076596938724378700440000005684173275836007354_">
	<g id="path41_00000127755107045796960410000007188652893160384923_">
		<path d="M1431.2,379.8c-0.6,0-1.2-0.1-1.7-0.4c-2-1-2.8-3.3-1.9-5.3c4-8.4,6-17.4,6-26.8c0-9.5-2-18.5-6-26.9
			c-1-2-0.1-4.4,1.9-5.3c2-1,4.4-0.1,5.3,1.9c4.5,9.5,6.8,19.7,6.8,30.4c0,10.6-2.3,20.8-6.8,30.2
			C1434.1,379,1432.7,379.8,1431.2,379.8z"/>
	</g>
	<g id="path43_00000013883858139373530310000010273234400417412491_">
		<path d="M1446.7,392.3c-0.6,0-1.1-0.1-1.7-0.4c-2-0.9-2.9-3.3-2-5.3c5.7-12.6,8.6-25.8,8.6-39.3c0-13.6-2.9-26.9-8.7-39.3
			c-0.9-2-0.1-4.4,1.9-5.3c2-0.9,4.4-0.1,5.3,1.9c6.3,13.5,9.5,27.9,9.5,42.7c0,14.7-3.1,29.1-9.3,42.7
			C1449.7,391.5,1448.2,392.3,1446.7,392.3z"/>
	</g>
	<g id="path45_00000147180419750488121810000008658165059267930505_">
		<path d="M1378.4,366.6c-1.4,0-2.7-0.7-3.5-2c-3.1-5.3-4.7-11.3-4.7-17.4c0-6.2,1.6-12.3,4.7-17.5c0.6-1,1.6-1.7,2.8-1.9
			c1.2-0.2,2.3,0.1,3.3,0.9l33.2,27.6c1-2.9,1.6-5.9,1.6-9c0-4.7-1.3-9.3-3.6-13.4c-1.1-1.9-0.5-4.4,1.4-5.5
			c1.9-1.1,4.4-0.5,5.5,1.4c3.1,5.3,4.7,11.3,4.7,17.4s-1.6,12.1-4.7,17.4c-0.6,1-1.6,1.7-2.8,1.9c-1.2,0.2-2.3-0.1-3.3-0.9
			l-33.2-27.6c-1,2.9-1.6,6-1.6,9.1c0,4.7,1.3,9.3,3.6,13.4c1.1,1.9,0.5,4.4-1.4,5.5C1379.8,366.4,1379.1,366.6,1378.4,366.6z"/>
	</g>
</g>
<g id="g47_00000151523229624478404470000018128104266877736097_">
	<g id="path41_00000170978072036825407420000017410876990757009334_">
		<path d="M1566.6,381.3c-0.8,0-1.6-0.2-2.4-0.5c-2.7-1.3-3.9-4.6-2.6-7.3c3.9-8.2,5.9-17,5.9-26.1c0-9.2-2-18.1-5.9-26.3
			c-1.3-2.7-0.2-6,2.6-7.3c2.7-1.3,6-0.2,7.3,2.6c4.6,9.7,7,20.1,7,31c0,10.8-2.3,21.2-7,30.9
			C1570.7,380.2,1568.7,381.3,1566.6,381.3z"/>
	</g>
	<g id="path43_00000149342388212115119190000001881991601236856456_">
		<path d="M1582.2,393.8c-0.8,0-1.5-0.2-2.3-0.5c-2.8-1.3-4-4.5-2.7-7.3c5.6-12.4,8.5-25.4,8.5-38.7c0-13.4-2.9-26.4-8.6-38.7
			c-1.3-2.8-0.1-6,2.7-7.3c2.8-1.3,6-0.1,7.3,2.7c6.4,13.7,9.6,28.3,9.6,43.3c0,14.9-3.2,29.5-9.4,43.3
			C1586.3,392.6,1584.3,393.8,1582.2,393.8z"/>
	</g>
	<g id="path45_00000177464869475484013030000006463827412736730760_">
		<path d="M1513.9,368.1c-1.9,0-3.7-1-4.8-2.7c-3.2-5.5-4.9-11.8-4.9-18.2c0-6.5,1.7-12.8,4.9-18.3c0.8-1.4,2.2-2.4,3.8-2.6
			c1.6-0.3,3.2,0.2,4.5,1.2l31.5,26.2c0.6-2.1,0.8-4.3,0.8-6.4c0-4.4-1.2-8.8-3.4-12.6c-1.5-2.6-0.6-6,2-7.5c2.6-1.5,6-0.6,7.5,2
			c3.2,5.5,4.9,11.8,4.9,18.2c0,6.4-1.7,12.7-4.9,18.2c-0.8,1.4-2.2,2.4-3.8,2.6c-1.6,0.3-3.2-0.2-4.5-1.2l-31.5-26.2
			c-0.6,2.1-0.8,4.3-0.8,6.6c0,4.4,1.2,8.8,3.4,12.6c1.5,2.6,0.6,6-2,7.5C1515.8,367.9,1514.9,368.1,1513.9,368.1z"/>
	</g>
</g>
<text transform="matrix(1 0 0 1 1388.6996 453.7201)" class="st6 st7">Regular</text>
<text transform="matrix(1 0 0 1 1514.3746 453.7201)" class="st6 st7">Semibold</text>
</svg>
