<?xml version="1.0" encoding="utf-8"?>
<!-- Generator: Adobe Illustrator 25.1.0, SVG Export Plug-In . SVG Version: 6.00 Build 0)  -->
<svg version="1.1" id="Layer_1" xmlns="http://www.w3.org/2000/svg" xmlns:xlink="http://www.w3.org/1999/xlink" x="0px" y="0px"
	 viewBox="0 0 3300 2200" style="enable-background:new 0 0 3300 2200;" xml:space="preserve">
<style type="text/css">
	.st0{fill:#FFFFFF;}
	.st1{fill:none;stroke:#000000;stroke-width:0.5;}
	.st2{font-family:'Arial-BoldMT';}
	.st3{font-size:12px;}
	.st4{font-family:'ArialMT';}
	.st5{fill:none;stroke:#00AEEF;stroke-width:0.5;}
	.st6{fill:#27AAE1;}
	.st7{fill:none;stroke:#27AAE1;stroke-width:0.5;}
	.st8{fill:none;stroke:#000000;stroke-width:10;stroke-linecap:round;stroke-miterlimit:10;}
	.st9{fill:none;stroke:#000000;stroke-width:9;stroke-linecap:round;stroke-miterlimit:10;}
</style>
<g id="Notes">
	<rect id="artboard" class="st0" width="3300" height="2200"/>
	<line class="st1" x1="263" y1="292" x2="3036" y2="292"/>
	<text transform="matrix(1 0 0 1 263 322)" class="st2 st3">Weight/Scale Variations</text>
	<text transform="matrix(1 0 0 1 536.0362 322)" class="st4 st3">Ultralight</text>
	<text transform="matrix(1 0 0 1 844.7501 322)" class="st4 st3">Thin</text>
	<text transform="matrix(1 0 0 1 1140.1193 322)" class="st4 st3">Light</text>
	<text transform="matrix(1 0 0 1 1428.8282 322)" class="st4 st3">Regular</text>
	<text transform="matrix(1 0 0 1 1725.2202 322)" class="st4 st3">Medium</text>
	<text transform="matrix(1 0 0 1 2018.2563 322)" class="st4 st3">Semibold</text>
	<text transform="matrix(1 0 0 1 2327.9712 322)" class="st4 st3">Bold</text>
	<text transform="matrix(1 0 0 1 2619.6831 322)" class="st4 st3">Heavy</text>
	<text transform="matrix(1 0 0 1 2918.728 322)" class="st4 st3">Black</text>
	<line class="st1" x1="263" y1="1903" x2="3036" y2="1903"/>
	<g transform="matrix(1 0 0 1 263 1933)">
		<path d="M9.2,0.8c4.3,0,7.9-3.6,7.9-7.9S13.5-15,9.2-15s-7.9,3.6-7.9,7.9C1.4-2.7,5,0.8,9.2,0.8z M9.2-0.7c-3.5,0-6.4-2.8-6.4-6.4
			s2.8-6.4,6.4-6.4s6.4,2.8,6.4,6.4C15.7-3.5,12.8-0.7,9.2-0.7z M6.4-6.3h2.1v2.1c0,0.4,0.3,0.7,0.7,0.7s0.7-0.3,0.7-0.7v-2.1H12
			c0.4,0,0.7-0.3,0.7-0.7c0-0.4-0.3-0.7-0.7-0.7h-2v-2.1c0-0.4-0.3-0.8-0.7-0.8s-0.7,0.3-0.7,0.8v2.1H6.4C5.9-7.8,5.6-7.5,5.6-7
			C5.6-6.6,5.9-6.3,6.4-6.3z"/>
	</g>
	<g transform="matrix(1 0 0 1 281.506 1933)">
		<path d="M11.7,2.9c5.4,0,10-4.5,10-10c0-5.4-4.5-10-10-10c-5.4,0-10,4.5-10,10C1.7-1.6,6.3,2.9,11.7,2.9z M11.7,1.2
			c-4.6,0-8.3-3.7-8.3-8.3s3.7-8.3,8.3-8.3S20-11.7,20-7.1C20-2.4,16.3,1.2,11.7,1.2z M8-6.2h2.9v2.9c0,0.5,0.3,0.8,0.8,0.8
			s0.8-0.3,0.8-0.8v-2.9h2.9c0.5,0,0.8-0.3,0.8-0.8s-0.3-0.8-0.8-0.8h-2.9v-2.9c0-0.5-0.3-0.8-0.8-0.8s-0.8,0.3-0.8,0.8v2.9H8
			C7.5-7.9,7.1-7.5,7.1-7C7.1-6.6,7.5-6.2,8-6.2z"/>
	</g>
	<g transform="matrix(1 0 0 1 304.924 1933)">
		<path d="M15,5.7c7,0,12.7-5.8,12.7-12.7c0-7-5.8-12.7-12.7-12.7C8-19.8,2.3-14,2.3-7.1C2.3-0.1,8,5.7,15,5.7z M15,3.8
			C8.9,3.8,4.1-1,4.1-7.1C4.1-13.1,8.9-18,15-18c6,0,10.9,4.9,10.9,10.9C25.9-1,21,3.8,15,3.8z M10.1-6.1h4v4c0,0.5,0.4,0.9,0.9,0.9
			s0.9-0.4,0.9-0.9v-4h4c0.5,0,0.9-0.4,0.9-0.9s-0.4-0.9-0.9-0.9h-4v-4c0-0.6-0.4-0.9-0.9-0.9s-0.9,0.4-0.9,0.9v4h-4
			c-0.6,0-1,0.3-1,0.9C9.1-6.5,9.5-6.1,10.1-6.1z"/>
	</g>
	<text transform="matrix(1 0 0 1 263 1953)" class="st2 st3">Design Variations</text>
	<text transform="matrix(1 0 0 1 263 1971)" class="st4 st3">Symbols are supported in up to nine weights and three scales.</text>
	<text transform="matrix(1 0 0 1 263 1989)" class="st4 st3">For optimal layout with text and other symbols, vertically align</text>
	<text transform="matrix(1 0 0 1 263 2007)" class="st4 st3">symbols with the adjacent text.</text>
	<line class="st5" x1="776" y1="1919" x2="776" y2="1933"/>
	<g transform="matrix(1 0 0 1 776 1933)">
		<path d="M3.3,0.1c0.5,0,0.8-0.2,1-0.7l1.3-3.5h5.8l1.3,3.5c0.2,0.5,0.4,0.7,0.9,0.7s0.8-0.3,0.8-0.8c0-0.2,0-0.3-0.1-0.5L9.7-13.4
			C9.4-14,9-14.3,8.4-14.3s-1,0.3-1.2,0.9L2.6-1.2C2.5-1,2.5-0.8,2.5-0.7C2.5-0.2,2.8,0.1,3.3,0.1z M6-5.5l2.4-6.6l0,0l2.4,6.6
			C10.8-5.5,6-5.5,6-5.5z"/>
	</g>
	<line class="st5" x1="792.8" y1="1919" x2="792.8" y2="1933"/>
	<text transform="matrix(1 0 0 1 776 1953)" class="st2 st3">Margins</text>
	<text transform="matrix(1 0 0 1 776 1971)" class="st4 st3">Leading and trailing margins on the left and right side of each symbol</text>
	<text transform="matrix(1 0 0 1 776 1989)" class="st4 st3">can be adjusted by modifying the x-location of the margin guidelines.</text>
	<text transform="matrix(1 0 0 1 776 2007)" class="st4 st3">Modifications are automatically applied proportionally to all</text>
	<text transform="matrix(1 0 0 1 776 2025)" class="st4 st3">scales and weights.</text>
	<g transform="matrix(1 0 0 1 1289 1933)">
		<path d="M2.8,1.9l1.7,1.7c0.9,0.9,1.8,0.8,2.8-0.2L17.5-7.9c0.3,0.1,0.5,0.1,0.8,0L19.4-8l0.7,0.7v0.6c0,0.5,0.1,0.9,0.6,1.4
			l0.8,0.7c0.5,0.5,1.1,0.5,1.6,0L26-7.5C26.5-8,26.4-8.6,26-9l-1-0.9c-0.5-0.5-0.8-0.6-1.3-0.6h-0.6l-0.6-0.6l0.2-1.1
			c0.1-0.6,0-1-0.6-1.6L19.9-16c-3.3-3.3-7.8-3.2-10.7-0.4C8.8-16,8.8-15.4,9-15s0.7,0.6,1.3,0.4c1.5-0.3,3-0.4,4.4,0.5l-0.6,1.5
			c-0.2,0.5-0.2,0.9-0.1,1.2L3-0.9C2.1,0,2,1,2.8,1.9z M10.8-16c2.4-1.8,5.7-1.5,7.9,0.8l2.4,2.4c0.2,0.2,0.3,0.4,0.2,0.8L21-10.5
			L22.5-9l1-0.1c0.3,0,0.3,0,0.5,0.2l0.6,0.6l-2.4,2.4l-0.6-0.6c-0.2-0.2-0.2-0.3-0.2-0.5l0.1-1L20-9.5l-1.5,0.3
			c-0.3,0.1-0.5,0-0.7-0.2l-2-2c-0.3-0.2-0.3-0.4-0.1-0.8l0.9-2.1C15-15.8,13-16.4,11-15.8C10.7-15.7,10.6-15.8,10.8-16z M5.3,2.3
			L4.1,1.1C3.6,0.7,3.7,0.3,4.1,0L15-10.2l1.5,1.5l-10,11C6.1,2.7,5.7,2.8,5.3,2.3z"/>
	</g>
	<text transform="matrix(1 0 0 1 1289 1953)" class="st2 st3">Exporting</text>
	<text transform="matrix(1 0 0 1 1289 1971)" class="st4 st3">Symbols should be outlined when exporting to ensure the</text>
	<text transform="matrix(1 0 0 1 1289 1989)" class="st4 st3">design is preserved when submitting to Xcode.</text>
	<text id="template-version" transform="matrix(1 0 0 1 2958.8496 1933)" class="st4 st3">Template v.2.0</text>
	<text transform="matrix(1 0 0 1 2878.5762 1951)" class="st4 st3">Requires Xcode 12 or greater</text>
	<text transform="matrix(1 0 0 1 2887.9336 1969)" class="st4 st3">Generated from folder.circle</text>
	<text transform="matrix(1 0 0 1 2921.9238 1987)" class="st4 st3">Typeset at 100 points</text>
	<text transform="matrix(1 0 0 1 263 726)" class="st4 st3">Small</text>
	<text transform="matrix(1 0 0 1 263 1156)" class="st4 st3">Medium</text>
	<text transform="matrix(1 0 0 1 263 1586)" class="st4 st3">Large</text>
</g>
<g id="Guides">
	<g id="H-reference" transform="matrix(1 0 0 1 339 696)">
		<path class="st6" d="M1,0h2.7L13-24.5h32.8L55.1,0h2.6L30.6-70.5h-2.5L1,0z M29.3-67.1L29.3-67.1l15.5,40.4h-31L29.3-67.1z"/>
	</g>
	<line id="Baseline-S" class="st7" x1="263" y1="696" x2="3036" y2="696"/>
	<line id="Capline-S" class="st7" x1="263" y1="625.5" x2="3036" y2="625.5"/>
	<g id="H-reference_1_" transform="matrix(1 0 0 1 339 1126)">
		<path class="st6" d="M1,0h2.7L13-24.5h32.8L55.1,0h2.6L30.6-70.5h-2.5L1,0z M29.3-67.1L29.3-67.1l15.5,40.4h-31L29.3-67.1z"/>
	</g>
	<line id="Baseline-M" class="st7" x1="263" y1="1126" x2="3036" y2="1126"/>
	<line id="Capline-M" class="st7" x1="263" y1="1055.5" x2="3036" y2="1055.5"/>
	<g id="H-reference_2_" transform="matrix(1 0 0 1 339 1556)">
		<path class="st6" d="M1,0h2.7L13-24.5h32.8L55.1,0h2.6L30.6-70.5h-2.5L1,0z M29.3-67.1L29.3-67.1l15.5,40.4h-31L29.3-67.1z"/>
	</g>
	<line id="Baseline-L" class="st7" x1="263" y1="1556" x2="3036" y2="1556"/>
	<line id="Capline-L" class="st7" x1="263" y1="1485.5" x2="3036" y2="1485.5"/>
	<line id="left-margin" class="st5" x1="1391.3" y1="1030.8" x2="1391.3" y2="1150.1"/>
	<line id="right-margin" class="st5" x1="1508.4" y1="1030.8" x2="1508.4" y2="1150.1"/>
</g>
<g id="Symbols">
	<g id="Semibold-M" transform="matrix(1 0 0 1 1983.5 1126)">
		<g>
			<line class="st8" x1="14.8" y1="7.2" x2="104.8" y2="7.2"/>
			<line class="st8" x1="14.8" y1="-77.7" x2="104.8" y2="-77.7"/>
		</g>
		<g>
			<path d="M13-38.5v-28.9h10.1c2.7,0,4.9,0.6,6.4,1.9c1.6,1.3,2.3,3,2.3,5.3c0,1.1-0.2,2-0.7,2.9c-0.4,0.9-1,1.6-1.8,2.2
				c-0.8,0.6-1.6,1-2.6,1.1v0.3c1.3,0.1,2.4,0.5,3.4,1.1c1,0.6,1.7,1.4,2.3,2.5c0.5,1,0.8,2.1,0.8,3.4c0,2.5-0.9,4.5-2.7,6
				c-1.8,1.5-4.2,2.2-7.3,2.2H13z M17.8-55.3h3.8c1.8,0,3.1-0.4,4.1-1.1c0.9-0.7,1.4-1.7,1.4-3c0-1.4-0.4-2.4-1.3-3.1
				c-0.9-0.7-2.2-1.1-3.8-1.1h-4.1V-55.3z M22-42.4c2.1,0,3.7-0.4,4.7-1.2c1-0.8,1.6-2,1.6-3.5c0-3-2.1-4.6-6.4-4.6h-4.1v9.3H22z"/>
			<path d="M45.4-38.5v-11.2L36-67.5h5.3l6.4,12.7H48l6.4-12.7h5.3l-9.4,17.7v11.2H45.4z"/>
			<path d="M70.8-38.5v-24.7h-8.5v-4.2h21.8v4.2h-8.5v24.7H70.8z"/>
			<path d="M107.9-38.5H90.2v-28.9h17.8v4.2H95v8.1h12.2v3.9H95v8.5h12.9V-38.5z"/>
			<path d="M22.3-21L18.8-3.6h-4.3L9.8-32.6h4.4l1.4,10.7L17-10.2h0.3L20.5-26h3.9l3.2,15.7H28l1.4-11.7l1.4-10.7h4.4L30.5-3.6h-4.3
				L22.6-21H22.3z"/>
			<path d="M55.9-6.4c-1.9,2.3-4.6,3.4-8,3.4s-6.1-1.1-8-3.4c-1.9-2.3-2.9-5.4-2.9-9.4v-4.5c0-4,1-7.1,2.9-9.4s4.6-3.4,8-3.4
				s6.1,1.1,8,3.4c1.9,2.3,2.9,5.4,2.9,9.4v4.5C58.8-11.8,57.8-8.7,55.9-6.4z M52.3-9.6c1-1.4,1.6-3.6,1.6-6.3v-4.4
				c0-2.8-0.5-4.9-1.6-6.3c-1-1.4-2.5-2.2-4.4-2.2s-3.4,0.7-4.4,2.2c-1,1.4-1.6,3.6-1.6,6.3v4.4c0,2.8,0.5,4.9,1.6,6.3
				s2.5,2.2,4.4,2.2S51.3-8.1,52.3-9.6z"/>
			<path d="M68.5-14.6v11h-4.8v-28.9h10.2c3,0,5.4,0.8,7.2,2.4c1.8,1.6,2.6,3.8,2.6,6.6c0,1.9-0.5,3.5-1.4,5
				c-0.9,1.5-2.2,2.5-3.8,3.1l5.8,11.9h-5.5l-5.2-11H68.5z M68.5-18.5h4.7c1.8,0,3.1-0.4,4.1-1.3s1.5-2.1,1.5-3.7
				c0-1.6-0.5-2.8-1.4-3.7c-1-0.9-2.3-1.3-4-1.3h-4.8V-18.5z"/>
			<path d="M97.5-32.6c4.1,0,7.1,1.2,9.2,3.6c2.1,2.4,3.1,6,3.1,10.7c0,4.9-1,8.5-3.1,10.9c-2.1,2.4-5.1,3.7-9.2,3.7h-8.8v-28.9
				H97.5z M93.5-7.9h3.4c2.7,0,4.7-0.8,6-2.5c1.3-1.7,1.9-4.3,1.9-7.8c0-3.4-0.7-6-2-7.7s-3.3-2.5-6-2.5h-3.4V-7.9z"/>
		</g>
	</g>
	<g id="Regular-M">
		<g>
			<line class="st9" x1="1403.8" y1="1047.5" x2="1495.8" y2="1047.5"/>
			<line class="st9" x1="1403.8" y1="1133.9" x2="1495.8" y2="1133.9"/>
		</g>
		<g>
			<path d="M1403.6,1086.7v-29h9.4c2.7,0,4.8,0.6,6.3,1.9c1.5,1.3,2.3,3,2.3,5.3c0,1.1-0.2,2.1-0.6,3c-0.4,0.9-1,1.6-1.8,2.2
				c-0.8,0.6-1.6,1-2.6,1.2v0.3c1.3,0.1,2.4,0.5,3.4,1.1c1,0.6,1.7,1.5,2.3,2.5c0.5,1,0.8,2.2,0.8,3.5c0,2.5-0.9,4.5-2.6,5.9
				c-1.8,1.4-4.2,2.1-7.3,2.1H1403.6z M1407.1,1070.2h4.5c2.1,0,3.6-0.4,4.7-1.2c1.1-0.8,1.6-2,1.6-3.5c0-1.5-0.5-2.7-1.5-3.5
				c-1-0.8-2.4-1.2-4.3-1.2h-5.1V1070.2z M1412.3,1083.6c2.3,0,4-0.4,5.2-1.3c1.2-0.9,1.8-2.2,1.8-3.9c0-3.5-2.4-5.2-7.1-5.2h-5.1
				v10.5H1412.3z"/>
			<path d="M1436.2,1086.7v-12l-9.7-17h4l7.3,13.3h0.3l7.3-13.3h4l-9.7,17v12H1436.2z"/>
			<path d="M1461.6,1086.7V1061h-8.8v-3.3h21.1v3.3h-8.8v25.7H1461.6z"/>
			<path d="M1497.9,1086.7h-17.1v-29h17.1v3.3h-13.6v9.4h12.8v3.1h-12.8v10h13.6V1086.7z"/>
			<path d="M1412.4,1105.1l-4.3,18h-3.3l-5-29h3.4l1.7,11.6l1.7,12.1h0.2l4.1-17.1h3.2l4.1,17.1h0.2l1.7-12.1l1.7-11.6h3.4l-5,29
				h-3.3l-4.3-18H1412.4z"/>
			<path d="M1445.7,1120.3c-1.9,2.3-4.5,3.4-7.8,3.4s-5.9-1.1-7.8-3.4c-1.9-2.3-2.8-5.4-2.8-9.4v-4.7c0-4,0.9-7.1,2.8-9.4
				c1.9-2.2,4.5-3.4,7.8-3.4s5.9,1.1,7.8,3.4c1.9,2.2,2.8,5.4,2.8,9.4v4.7C1448.6,1114.9,1447.6,1118,1445.7,1120.3z M1443.1,1117.9
				c1.3-1.6,1.9-4,1.9-7v-4.6c0-3-0.6-5.4-1.9-7c-1.3-1.6-3-2.4-5.2-2.4c-2.2,0-3.9,0.8-5.2,2.4c-1.3,1.6-1.9,4-1.9,7v4.6
				c0,3,0.6,5.4,1.9,7c1.3,1.6,3,2.4,5.2,2.4C1440.2,1120.3,1441.9,1119.5,1443.1,1117.9z"/>
			<path d="M1457.8,1111.5v11.6h-3.5v-29h9.7c2.9,0,5.1,0.8,6.8,2.3c1.7,1.6,2.5,3.7,2.5,6.4c0,1.9-0.5,3.6-1.5,5
				c-1,1.5-2.3,2.4-3.9,3l5.9,12.3h-4l-5.4-11.6H1457.8z M1457.8,1108.5h5.7c2,0,3.6-0.5,4.6-1.5c1.1-1,1.6-2.4,1.6-4.2
				c0-1.8-0.5-3.2-1.6-4.2s-2.6-1.5-4.5-1.5h-5.9V1108.5z"/>
			<path d="M1487.4,1094.1c4.1,0,7.2,1.2,9.3,3.6c2.1,2.4,3.1,6,3.1,10.8c0,4.8-1,8.5-3.1,10.9c-2.1,2.4-5.1,3.6-9.3,3.6h-8.1v-29
				H1487.4z M1482.9,1119.8h4.2c3.1,0,5.3-0.9,6.8-2.8c1.5-1.8,2.2-4.7,2.2-8.5c0-3.8-0.7-6.6-2.2-8.5c-1.5-1.8-3.8-2.8-6.8-2.8
				h-4.2V1119.8z"/>
		</g>
	</g>
</g>
</svg>
