<?xml version="1.0" encoding="utf-8"?>
<!-- Generator: Adobe Illustrator 25.1.0, SVG Export Plug-In . SVG Version: 6.00 Build 0)  -->
<svg version="1.1" id="Layer_1" xmlns="http://www.w3.org/2000/svg" xmlns:xlink="http://www.w3.org/1999/xlink" x="0px" y="0px"
	 viewBox="0 0 3300 2200" style="enable-background:new 0 0 3300 2200;" xml:space="preserve">
<style type="text/css">
	.st0{fill:#FFFFFF;}
	.st1{fill:none;stroke:#000000;stroke-width:0.5;}
	.st2{font-family:'Arial-BoldMT';}
	.st3{font-size:12px;}
	.st4{font-family:'ArialMT';}
	.st5{fill:none;stroke:#00AEEF;stroke-width:0.5;}
	.st6{fill:#27AAE1;}
	.st7{fill:none;stroke:#27AAE1;stroke-width:0.5;}
	.st8{fill:#F7941D;}
</style>
<g id="Notes">
	<rect id="artboard" class="st0" width="3300" height="2200"/>
	<line class="st1" x1="263" y1="292" x2="3036" y2="292"/>
	<text transform="matrix(1 0 0 1 263 322)" class="st2 st3">Weight/Scale Variations</text>
	<text transform="matrix(1 0 0 1 536.0361938 322)" class="st4 st3">Ultralight</text>
	<text transform="matrix(1 0 0 1 844.7501221 322)" class="st4 st3">Thin</text>
	<text transform="matrix(1 0 0 1 1140.1192627 322)" class="st4 st3">Light</text>
	<text transform="matrix(1 0 0 1 1428.8282471 322)" class="st4 st3">Regular</text>
	<text transform="matrix(1 0 0 1 1725.2202148 322)" class="st4 st3">Medium</text>
	<text transform="matrix(1 0 0 1 2018.2563477 322)" class="st4 st3">Semibold</text>
	<text transform="matrix(1 0 0 1 2327.9711914 322)" class="st4 st3">Bold</text>
	<text transform="matrix(1 0 0 1 2619.6831055 322)" class="st4 st3">Heavy</text>
	<text transform="matrix(1 0 0 1 2918.7280273 322)" class="st4 st3">Black</text>
	<line class="st1" x1="263" y1="1903" x2="3036" y2="1903"/>
	<g transform="matrix(1 0 0 1 263 1933)">
		<path d="M9.1999998,0.8C13.5,0.8,17.1000004-2.8,17.1000004-7.0999999S13.5-15,9.1999998-15
			s-7.9000001,3.6000004-7.9000001,7.9000001C1.4-2.7,5,0.8,9.1999998,0.8z M9.1999998-0.7
			c-3.5,0-6.4000001-2.8-6.4000001-6.4000001S5.5999994-13.5,9.1999998-13.5s6.4000006,2.8000002,6.4000006,6.4000001
			C15.6999998-3.5,12.8000002-0.7,9.1999998-0.7z M6.4000001-6.3000002H8.5v2.0999999c0,0.4000001,0.3000002,0.7,0.6999998,0.7
			s0.6999998-0.3,0.6999998-0.7v-2.0999999H12c0.3999996,0,0.6999998-0.3000002,0.6999998-0.6999998
			c0-0.4000001-0.3000002-0.6999998-0.6999998-0.6999998h-2v-2.0999994c0-0.3999996-0.3000002-0.8000002-0.6999998-0.8000002
			s-0.6999998,0.3000002-0.6999998,0.8000002v2.0999999H6.4000001C5.9000001-7.8000002,5.5999999-7.5,5.5999999-7
			C5.5999999-6.5999999,5.9000001-6.3000002,6.4000001-6.3000002z"/>
	</g>
	<g transform="matrix(1 0 0 1 281.506 1933)">
		<path d="M11.6999998,2.9000001c5.4000006,0,10.000001-4.5,10.000001-10c0-5.4000001-4.5-10-10-10c-5.4000001,0-10,4.5-10,10
			C1.7-1.6,6.3000002,2.9000001,11.6999998,2.9000001z M11.6999998,1.2c-4.5999999,0-8.3000002-3.7-8.3000002-8.3000002
			s3.6999998-8.3000002,8.3000002-8.3000002S20-11.6999998,20-7.0999999C20-2.4000001,16.2999992,1.2,11.6999998,1.2z M8-6.1999998
			h2.8999996v2.9000001c0,0.5,0.3000002,0.8,0.8000002,0.8s0.8000002-0.3,0.8000002-0.8v-2.9000001h2.8999996
			c0.5,0,0.7999992-0.3000002,0.7999992-0.8000002s-0.3000002-0.8000002-0.8000002-0.8000002h-2.9000006v-2.9000006
			c0-0.5-0.3000002-0.8000002-0.8000002-0.8000002s-0.8000002,0.3000002-0.8000002,0.8000002v2.9000001H8
			C7.5-7.9000001,7.0999999-7.5,7.0999999-7C7.0999999-6.5999999,7.5-6.1999998,8-6.1999998z"/>
	</g>
	<g transform="matrix(1 0 0 1 304.924 1933)">
		<path d="M15,5.6999998c7,0,12.7000008-5.8000002,12.7000008-12.6999998c0-7-5.7999992-12.7000008-12.6999998-12.7000008
			C8-19.7999992,2.3000002-14,2.3000002-7.0999999C2.3000002-0.1,8,5.6999998,15,5.6999998z M15,3.8
			C8.8999996,3.8,4.0999999-1,4.0999999-7.0999999C4.0999999-13.1000004,8.8999996-18,15-18
			c6,0,10.8999996,4.8999996,10.8999996,10.8999996C25.8999996-1,21,3.8,15,3.8z M10.1000004-6.0999999h4v4
			c0,0.5,0.3999996,0.9,0.8999996,0.9s0.8999996-0.4,0.8999996-0.9v-4h4c0.5,0,0.8999996-0.4000001,0.8999996-0.9000001
			s-0.3999996-0.9000001-0.8999996-0.9000001h-4v-3.9999995C15.8999996-12.5,15.5-12.7999992,15-12.7999992
			s-0.8999996,0.3999996-0.8999996,0.8999996v4h-4c-0.6000004,0-1,0.3000002-1,0.9000001
			C9.1000004-6.5,9.5-6.0999999,10.1000004-6.0999999z"/>
	</g>
	<text transform="matrix(1 0 0 1 263 1953)" class="st2 st3">Design Variations</text>
	<text transform="matrix(1 0 0 1 263 1971)" class="st4 st3">Symbols are supported in up to nine weights and three scales.</text>
	<text transform="matrix(1 0 0 1 263 1989)" class="st4 st3">For optimal layout with text and other symbols, vertically align</text>
	<text transform="matrix(1 0 0 1 263 2007)" class="st4 st3">symbols with the adjacent text.</text>
	<line class="st5" x1="776" y1="1919" x2="776" y2="1933"/>
	<g transform="matrix(1 0 0 1 776 1933)">
		<path d="M3.3,0.1c0.5,0,0.8-0.2,1.0000002-0.7l1.3000002-3.5h5.8000002l1.3000002,3.5c0.1999998,0.5,0.3999996,0.7,0.8999996,0.7
			s0.8000002-0.3,0.8000002-0.8c0-0.2,0-0.3-0.1000004-0.5L9.6999998-13.3999996C9.3999996-14,9-14.3000002,8.3999996-14.3000002
			s-1,0.3000002-1.1999998,0.8999996L2.5999999-1.2C2.5-1,2.5-0.8,2.5-0.7C2.5-0.2,2.8,0.1,3.3,0.1z M6-5.5l2.3999996-6.6000004l0,0
			l2.3999996,6.5999999C10.8000002-5.5,6-5.5,6-5.5z"/>
	</g>
	<line class="st5" x1="792.7999878" y1="1919" x2="792.7999878" y2="1933"/>
	<text transform="matrix(1 0 0 1 776 1953)" class="st2 st3">Margins</text>
	<text transform="matrix(1 0 0 1 776 1971)" class="st4 st3">Leading and trailing margins on the left and right side of each symbol</text>
	<text transform="matrix(1 0 0 1 776 1989)" class="st4 st3">can be adjusted by modifying the x-location of the margin guidelines.</text>
	<text transform="matrix(1 0 0 1 776 2007)" class="st4 st3">Modifications are automatically applied proportionally to all</text>
	<text transform="matrix(1 0 0 1 776 2025)" class="st4 st3">scales and weights.</text>
	<g transform="matrix(1 0 0 1 1289 1933)">
		<path d="M2.8,1.9l1.7,1.6999999c0.9000001,0.9000001,1.8000002,0.8000002,2.8000002-0.2L17.5-7.9000001
			c0.2999992,0.0999999,0.5,0.0999999,0.7999992,0L19.3999996-8l0.7000008,0.6999998v0.5999999
			c0,0.5,0.1000004,0.9000001,0.6000004,1.4000001L21.5-4.6000004c0.5,0.5,1.1000004,0.5,1.6000004,0L26-7.5
			C26.5-8,26.3999996-8.6000004,26-9l-1-0.8999996C24.5-10.3999996,24.2000008-10.5,23.7000008-10.5h-0.6000004L22.5-11.1000004
			l0.2000008-1.1000004c0.1000004-0.6000004,0-1-0.6000004-1.6000004L19.8999996-16
			c-3.2999992-3.2999992-7.8000002-3.2000008-10.6999998-0.3999996C8.8000002-16,8.8000002-15.3999996,9-15
			s0.6999998,0.6000004,1.3000002,0.3999996c1.5-0.3000002,3-0.3999996,4.4000006,0.5l-0.6000004,1.5
			c-0.1999998,0.5-0.1999998,0.8999996-0.1000004,1.1999998L3-0.9C2.0999999,0,2,1,2.8,1.9z M10.8000002-16
			c2.4000006-1.7999992,5.6999998-1.5,7.9000006,0.8000002l2.3999996,2.4000006
			c0.2000008,0.1999998,0.2999992,0.3999996,0.2000008,0.8000002L21-10.5L22.5-9l1-0.1000004c0.2999992,0,0.2999992,0,0.5,0.1999998
			l0.6000004,0.6000004l-2.3999996,2.4000001L21.6000004-6.5c-0.2000008-0.1999998-0.2000008-0.3000002-0.2000008-0.5L21.5-8L20-9.5
			l-1.5,0.3000002c-0.2999992,0.1000004-0.5,0-0.7000008-0.1999998l-2-2
			c-0.3000002-0.1999998-0.3000002-0.3999996-0.1000004-0.8000002l0.8999996-2.0999994C15-15.8000002,13-16.3999996,11-15.8000002
			C10.6999998-15.6999998,10.6000004-15.8000002,10.8000002-16z M5.3000002,2.3L4.0999999,1.1c-0.5-0.4-0.3999999-0.8,0-1.1
			L15-10.1999998l1.5,1.5l-10,11C6.0999999,2.7,5.6999998,2.8,5.3000002,2.3z"/>
	</g>
	<text transform="matrix(1 0 0 1 1289 1953)" class="st2 st3">Exporting</text>
	<text transform="matrix(1 0 0 1 1289 1971)" class="st4 st3">Symbols should be outlined when exporting to ensure the</text>
	<text transform="matrix(1 0 0 1 1289 1989)" class="st4 st3">design is preserved when submitting to Xcode.</text>
	<text id="template-version" transform="matrix(1 0 0 1 2958.8496094 1933)" class="st4 st3">Template v.2.0</text>
	<text transform="matrix(1 0 0 1 2878.5761719 1951)" class="st4 st3">Requires Xcode 12 or greater</text>
	<text transform="matrix(1 0 0 1 2887.9335938 1969)" class="st4 st3">Generated from folder.circle</text>
	<text transform="matrix(1 0 0 1 2921.9238281 1987)" class="st4 st3">Typeset at 100 points</text>
	<text transform="matrix(1 0 0 1 263 726)" class="st4 st3">Small</text>
	<text transform="matrix(1 0 0 1 263 1156)" class="st4 st3">Medium</text>
	<text transform="matrix(1 0 0 1 263 1586)" class="st4 st3">Large</text>
</g>
<g id="Guides">
	<g id="H-reference" transform="matrix(1 0 0 1 339 696)">
		<path class="st6" d="M1,0h2.7L13-24.5h32.7999992L55.0999985,0h2.5999985L30.6000004-70.5h-2.5L1,0z M29.2999992-67.0999985
			L29.2999992-67.0999985l15.5,40.4000015h-31L29.2999992-67.0999985z"/>
	</g>
	<line id="Baseline-S" class="st7" x1="263" y1="696" x2="3036" y2="696"/>
	<line id="Capline-S" class="st7" x1="263" y1="625.5" x2="3036" y2="625.5"/>
	<g id="H-reference_1_" transform="matrix(1 0 0 1 339 1126)">
		<path class="st6" d="M1,0h2.7L13-24.5h32.7999992L55.0999985,0h2.5999985L30.6000004-70.5h-2.5L1,0z M29.2999992-67.0999985
			L29.2999992-67.0999985l15.5,40.4000015h-31L29.2999992-67.0999985z"/>
	</g>
	<line id="Baseline-M" class="st7" x1="263" y1="1126" x2="3036" y2="1126"/>
	<line id="Capline-M" class="st7" x1="263" y1="1055.5" x2="3036" y2="1055.5"/>
	<g id="H-reference_2_" transform="matrix(1 0 0 1 339 1556)">
		<path class="st6" d="M1,0h2.7L13-24.5h32.7999992L55.0999985,0h2.5999985L30.6000004-70.5h-2.5L1,0z M29.2999992-67.0999985
			L29.2999992-67.0999985l15.5,40.4000015h-31L29.2999992-67.0999985z"/>
	</g>
	<line id="Baseline-L" class="st7" x1="263" y1="1556" x2="3036" y2="1556"/>
	<line id="Capline-L" class="st7" x1="263" y1="1485.5" x2="3036" y2="1485.5"/>
	<line id="left-margin" class="st5" x1="1360.9000244" y1="1030.8000488" x2="1360.9000244" y2="1150.0999756"/>
	<line id="right-margin" class="st5" x1="1538.8000488" y1="1030.8000488" x2="1538.8000488" y2="1150.0999756"/>
</g>
<g id="Symbols">
	<g id="Regular-M">
		<g id="bch_2_">
			<rect x="1369.5698242" y="1040.5" class="st0" width="161.2301941" height="99.6046829"/>
			<path id="bch" class="st8" d="M1485.0965576,1140.1047363c15.670166-10.9943848,25.9104004-29.1953125,25.9104004-49.7939453
				s-10.2398682-38.8165283-25.9104004-49.810791h45.7034912v99.6047363H1485.0965576z M1389.413208,1090.2940674
				c0,20.5975342,10.2402344,38.798584,25.9104004,49.7938232h-45.7537842V1040.5h45.7548828
				C1399.6534424,1051.4942627,1389.413208,1069.6953125,1389.413208,1090.2940674z M1450.1854248,1040.5097656
				c27.4816895,0,49.7601318,22.2783203,49.7601318,49.7601318s-22.2784424,49.7602539-49.7601318,49.7602539
				c-27.4818115,0-49.7602539-22.2784424-49.7602539-49.7602539S1422.7036133,1040.5097656,1450.1854248,1040.5097656z
				 M1473.5241699,1092.3375244l-0.02771-0.0513916l-0.0046387-0.0085449
				c-0.0167236-0.0518799-0.0292969-0.105957-0.0484619-0.1619873l-0.0023193-0.0042725l-0.0023193-0.0043945l-0.0023193-0.0043945
				l-0.0024414-0.0042725l-0.0023193-0.0043945l-0.0023193-0.0043945l-0.0046387-0.0085449
				c-0.5841064-1.9533691-1.7421875-3.6860352-3.3236084-4.9727783l-0.0024414-0.0042725
				c-0.0467529-0.0357666-0.0958252-0.0755615-0.1427002-0.1112061l-0.0646973-0.0480957l-0.0467529-0.0355225l-0.0201416-0.0167236
				l-0.0445557-0.0313721l-0.0201416-0.0167236l-0.0445557-0.0313721l-0.0201416-0.0167236l-0.0467529-0.0355225
				l-0.0244141-0.0146484l-0.0467529-0.0355225l-0.0245361-0.0145264l-0.050293-0.0335693l-0.0244141-0.0145264
				l-0.0296631-0.0449219l-0.0266113-0.0187988l-0.050293-0.0335693l-0.0267334-0.0186768l-0.0510254-0.0335693
				l-0.0267334-0.0187988l-0.050293-0.0334473l-0.0266113-0.0187988l-0.0534668-0.0375977l-0.0266113-0.0186768
				l-0.0576172-0.0354004l-0.0267334-0.0187988l-0.0576172-0.0352783l-0.0266113-0.0187988l-0.0577393-0.0354004
				l-0.0266113-0.0187988l-0.0576172-0.0352783l-0.0310059-0.0168457l-0.0576172-0.0352783l-0.0310059-0.0168457
				l-0.0620117-0.0334473l-0.0310059-0.0168457l-0.0644531-0.0371094L1468.4910889,1086l-0.0643311-0.0371094l-0.0310059-0.0168457
				l-0.0643311-0.0372314l-0.0334473-0.020752l-0.0644531-0.0372314l-0.0334473-0.020752l-0.0686035-0.0350342l-0.0334473-0.020752
				l-0.0686035-0.0350342l-0.0463867-0.0247803l-0.0023193-0.0043945c-0.0335693-0.020752-0.0686035-0.0350342-0.1019287-0.0557861
				c-1.4227295-0.7312012-2.9589844-1.2166748-4.5435791-1.4356689c0.444458-0.4775391,0.8514404-0.9886475,1.2172852-1.5288086
				l0.0583496-0.0866699l0.0043945-0.0023193l0.0269775-0.0422363l0.0352783-0.0576172l0.0187988-0.0266113l0.0354004-0.0577393
				l0.0187988-0.0266113l0.0352783-0.0576172l0.0187988-0.0267334l0.0354004-0.0576172l0.0186768-0.0266113l0.0354004-0.0576172
				l0.0187988-0.0267334l0.0310059-0.0554199l0.0187988-0.0266113l0.0310059-0.055542l0.0145264-0.0244141l0.0310059-0.055542
				l0.0145264-0.0244141l0.0310059-0.055542l0.0146484-0.0244141l0.0266113-0.0531006l0.0146484-0.0245361l0.0266113-0.0531006
				l0.0145264-0.0244141l0.0267334-0.0532227l0.0145264-0.0244141l0.0288086-0.0488281l0.0146484-0.0244141l0.0289307-0.0488281
				l0.0145264-0.0244141l0.0249023-0.0463867l0.0145264-0.0245361l0.0247803-0.0463867l0.0102539-0.0220947l0.0247803-0.0465088
				l0.0102539-0.0220947l0.0247803-0.0463867l0.0102539-0.0220947l0.0247803-0.0465088l0.0102539-0.0220947l0.0203857-0.0441895
				l0.0102539-0.0222168l0.0205078-0.0441895l0.0101318-0.0220947l0.0205078-0.0443115l0.0101318-0.0220947l0.0224609-0.050293
				l0.0307617-0.0670166c0.0224609-0.050293,0.0405273-0.0992432,0.0629883-0.1500244l0.0043945-0.0023193
				c0.6817627-1.6806641,0.8416748-3.52771,0.4586182-5.300415l-0.0023193-0.0043945l-0.0046387-0.0085449l-0.0024414-0.0042725
				l-0.0023193-0.0043945l-0.0023193-0.0043945l-0.0023193-0.0043945l-0.0023193-0.0042725l-0.0024414-0.0043945
				c-0.0101318-0.050293-0.0203857-0.0994873-0.03479-0.1470947v-0.0109863l-0.0023193-0.0042725l-0.0023193-0.0043945
				l-0.0024414-0.0043945l0.0024414,0.0043945l-0.020874-0.0385742c-0.0150146-0.0692139-0.0302734-0.1384277-0.052124-0.2095947
				c-0.0150146-0.0692139-0.0368652-0.1405029-0.0562744-0.2075195l-0.0252686-0.0471191l-0.0047607-0.0085449
				c-0.0145264-0.0473633-0.0289307-0.0949707-0.0435791-0.1424561l-0.0023193-0.0043945l-0.0023193-0.0042725l-0.0023193-0.0043945
				l-0.0024414-0.0043945l-0.0023193-0.0042725l-0.0023193-0.0043945l-0.0021973-0.0043945
				c-0.5186768-1.7382812-1.5489502-3.2801514-2.956543-4.4245605l-0.0021973-0.0042725
				c-0.0401611-0.0335693-0.0847168-0.0650635-0.125-0.0986328l-0.0556641-0.0418701l-0.0445557-0.0313721l-0.0201416-0.0167236
				l-0.0378418-0.0292969l-0.0201416-0.0167236l-0.0378418-0.0294189l-0.0201416-0.0167236l-0.0422363-0.0269775
				l-0.0201416-0.0167236l-0.0445557-0.0313721l-0.0201416-0.0167236l-0.0445557-0.0313721l-0.0200195-0.0167236
				l-0.0446777-0.0313721l-0.0244141-0.0146484l-0.0445557-0.03125l-0.0245361-0.0146484l-0.0445557-0.0313721l-0.0244141-0.0145264
				l-0.0488281-0.0290527l-0.0244141-0.0145264l-0.0488281-0.0290527l-0.0244141-0.0145264l-0.0488281-0.0290527
				l-0.0244141-0.0145264l-0.0488281-0.0290527l-0.0244141-0.0145264l-0.0511475-0.0335693l-0.0245361-0.0145264
				l-0.0510254-0.0335693l-0.0245361-0.0145264l-0.0554199-0.0310059l-0.0245361-0.0146484l-0.0552979-0.0310059
				l-0.0266113-0.0186768l-0.0554199-0.0310059l-0.0267334-0.0187988l-0.0552979-0.0310059l-0.0266113-0.0187988
				l-0.0576172-0.0352783l-0.0310059-0.0168457l-0.0577393-0.0352783l-0.0310059-0.0168457l-0.0620117-0.0334473
				l-0.0310059-0.0168457l-0.0620117-0.0334473l-0.0441895-0.0205078l-0.0023193-0.0042725l-0.0930176-0.050293
				c-2.7174072-1.4123535-6.1697998-1.8375244-9.6431885-0.9464111l-0.9035645,0.2319336l-2.2852783-8.8994141l-5.2960205,1.3575439
				l2.277832,8.8641357l-4.2380371,1.0924072l-2.2792969-8.8358154l-5.2960205,1.3575439l2.277832,8.8641357l-10.9217529,2.8104248
				l1.4532471,5.6480713l4.4006348-1.130249c1.456543-0.3754883,2.9416504,0.5008545,3.3171387,1.9573975
				c0.0003662,0.001709,0.0008545,0.00354,0.0013428,0.005249l0,0l6.1083984,23.7680664
				c0.2490234,0.9719238-0.3358154,1.9621582-1.307251,2.2132568l-3.8560791,0.9919434l0.2265625,6.7172852l10.9088135-2.8033447
				l2.3071289,8.8480225l5.293457-1.3620605l-2.2792969-8.8685303l4.2364502-1.0861816l2.2801514,8.8684082l5.293335-1.3620605
				l-2.2878418-8.9030762c0.8969727-0.2346191,1.6685791-0.4337158,2.2023926-0.5717773
				c3.9144287-1.0068359,7.0797119-3.3016357,8.9952393-6.1634521l0.0646973-0.095459l0.0042725-0.0023193l0.0313721-0.0446777
				l0.041626-0.0670166l0.020752-0.0334473l0.0415039-0.0671387l0.020874-0.0334473l0.0372314-0.0643311l0.020752-0.0335693
				l0.0372314-0.0643311l0.0167236-0.0310059l0.0372314-0.0643311l0.0167236-0.0310059l0.0372314-0.0644531l0.0167236-0.0310059
				l0.0335693-0.0620117l0.0167236-0.0310059l0.0334473-0.0620117l0.0168457-0.0310059l0.0352783-0.0576172l0.0168457-0.0310059
				l0.0352783-0.0576172l0.0168457-0.0310059l0.0310059-0.055542l0.0167236-0.0310059l0.0310059-0.0552979l0.0167236-0.0310059
				l0.0310059-0.0552979l0.012207-0.0285645l0.0310059-0.0552979l0.012207-0.0286865l0.0267334-0.0531006l0.0145264-0.0245361
				l0.0266113-0.0531006l0.0146484-0.0244141l0.0266113-0.0532227l0.0146484-0.0244141l0.0266113-0.0531006l0.0145264-0.0245361
				l0.0267334-0.0531006l0.0145264-0.0244141l0.0266113-0.0532227l0.0146484-0.0244141l0.0224609-0.050293l0.0145264-0.0244141
				l0.0224609-0.050293l0.0102539-0.0220947l0.0244141-0.057373l0.0335693-0.072876
				c0.0244141-0.057373,0.050293-0.1104736,0.071167-0.1656494l0.0020752-0.0064697
				c0.7661133-1.890625,0.9462891-3.9678955,0.5172119-5.9621582l-0.0023193-0.0042725l-0.0024414-0.0043945l-0.0023193-0.0043945
				l-0.0023193-0.0042725l-0.0023193-0.0043945l-0.0023193-0.0043945l-0.0024414-0.0042725l-0.0023193-0.0043945
				c-0.0125732-0.0541992-0.0249023-0.1081543-0.0374756-0.1622314v-0.0108643l-0.0024414-0.0043945l-0.0023193-0.0043945
				l-0.0023193-0.0043945l-0.0023193-0.0042725l-0.0023193-0.0043945l-0.0024414-0.0043945l-0.0023193-0.0042725
				l-0.0023193-0.0043945l-0.0023193-0.0043945l-0.0023193-0.0042725l-0.0023193-0.0043945l-0.0024414-0.0043945
				l-0.0023193-0.0043945l-0.0091553-0.0167236c-0.0197754-0.0777588-0.0352783-0.1578369-0.0593262-0.2333984
				C1473.5402832,1092.510498,1473.5290527,1092.4281006,1473.5241699,1092.3375244z M1442.4080811,1076.4375
				c0.9034424-0.2319336,4.6391602-1.170166,5.8710938-1.4904785c1.958374-0.5012207,3.8881836-0.3066406,5.3948975,0.4190674
				l0.050293,0.0224609l0,0l0.0220947,0.0102539l0.0310059,0.0167236l0.0153809,0.0081787l0.0310059,0.0167236l0.0155029,0.0083008
				l0.0310059,0.0167236l0.0153809,0.0081787l0.0310059,0.0168457l0.0153809,0.0081787l0.0310059,0.0167236l0.0155029,0.0081787
				l0.0310059,0.0168457l0.0153809,0.0081787l0.0310059,0.0167236l0.0153809,0.0083008l0.0310059,0.0167236l0.0155029,0.0081787
				l0.0310059,0.0167236l0.0153809,0.0083008l0.0266113,0.0187988l0.0153809,0.0081787l0.0267334,0.0187988l0.0153809,0.0081787
				l0.0266113,0.0187988l0.0155029,0.0081787l0.0244141,0.0145264l0.0153809,0.0083008l0.0245361,0.0145264l0.0153809,0.0081787
				l0.0245361,0.0146484l0.0153809,0.0081787l0.0244141,0.0145264l0.0155029,0.0083008l0.0244141,0.0145264l0.0112305,0.0106201
				l0.0245361,0.0145264l0.0087891,0.0062256l0.0245361,0.0145264l0.0089111,0.0062256l0.0244141,0.0146484l0.0089111,0.0061035
				l0.0244141,0.0146484l0.0089111,0.0062256l0.0201416,0.0167236l0.0089111,0.0062256l0.0244141,0.0145264l0.0335693,0.020874
				c0.0244141,0.0145264,0.0467529,0.0356445,0.071167,0.0501709l0,0c0.7713623,0.5822754,1.3380127,1.394165,1.6186523,2.3189697
				l0,0l0.0068359,0.0128174c0.0073242,0.0238037,0.0168457,0.0517578,0.0240479,0.0755615l0.0023193,0.0043945l0.013916,0.0256348
				c0.0098877,0.0389404,0.0217285,0.0712891,0.0316162,0.1101074c0.0108643,0.0396729,0.0179443,0.0803223,0.0211182,0.1213379
				l0.013916,0.0256348l0.0024414,0.0043945c0.0036621,0.0266113,0.010376,0.0526123,0.0197754,0.0777588l0.0068359,0.0129395l0,0
				c0.197998,0.9450684,0.0925293,1.9287109-0.3016357,2.8101807l0,0l-0.03479,0.0794678l-0.0184326,0.0375977l-0.0145264,0.0244141
				l-0.0040283,0.0133057l-0.0102539,0.0220947l-0.0040283,0.0131836l-0.0145264,0.0245361l-0.0040283,0.0131836
				l-0.0145264,0.0245361l-0.0040283,0.0131836l-0.0146484,0.0245361l-0.0040283,0.0131836l-0.0145264,0.0244141
				l-0.0040283,0.0133057l-0.0145264,0.0244141l-0.0040283,0.0133057l-0.0146484,0.0244141l-0.0081787,0.0155029
				l-0.0145264,0.0244141l-0.0083008,0.0153809l-0.0145264,0.0245361l-0.0081787,0.0153809l-0.0146484,0.0245361
				l-0.0081787,0.0153809l-0.0187988,0.0266113l-0.0081787,0.0153809l-0.0187988,0.0267334l-0.0081787,0.0153809
				l-0.0187988,0.0266113l-0.0081787,0.0155029l-0.0187988,0.0266113l-0.0081787,0.0153809l-0.0187988,0.0266113
				l-0.0081787,0.0155029l-0.0187988,0.0266113l-0.0081787,0.0153809l-0.0187988,0.0267334l-0.0083008,0.0153809
				l-0.0186768,0.0266113l-0.0083008,0.0155029l-0.0230713,0.0289307l-0.0081787,0.0153809l-0.0231934,0.0290527
				l-0.0081787,0.0153809l-0.0231934,0.0290527l-0.0081787,0.0153809l-0.0230713,0.0290527l-0.0168457,0.0200195l0,0
				l-0.03125,0.0446777c-0.973999,1.364502-2.5699463,2.4669189-4.5283203,2.9682617
				c-1.2342529,0.31604-4.9608154,1.2932129-5.8635254,1.5251465L1442.4080811,1076.4375z M1463.1082764,1094.6590576
				l0.013916,0.0256348l0.0023193,0.0043945c0.005127,0.0303955,0.0125732,0.0541992,0.0177002,0.0838623l0,0l0.0023193,0.0042725
				l0,0l0.0024414,0.0043945l0.0023193,0.0043945l0.0023193,0.0042725l0,0
				c0.2088623,1.0424805,0.0588379,2.1248779-0.4259033,3.0710449l0,0l-0.0473633,0.0863037l-0.0228271,0.039917
				l-0.0167236,0.0310059l-0.0081787,0.0153809l-0.0146484,0.0245361l-0.0081787,0.0153809l-0.0146484,0.0245361
				l-0.0081787,0.0153809l-0.0187988,0.0266113l-0.0081787,0.0155029l-0.0187988,0.0266113l-0.0081787,0.0153809
				l-0.0187988,0.0267334l-0.0081787,0.0153809l-0.0187988,0.0266113l-0.0081787,0.0153809l-0.0187988,0.0267334
				l-0.0081787,0.0153809l-0.0187988,0.0266113l-0.0081787,0.0155029l-0.0187988,0.0266113l-0.0081787,0.0153809
				l-0.0187988,0.0267334l-0.0081787,0.0153809l-0.0187988,0.0266113l-0.0081787,0.0155029l-0.0231934,0.0289307
				l-0.0081787,0.0153809l-0.0231934,0.0290527l-0.0081787,0.0153809l-0.020752,0.0335693l-0.0083008,0.0153809l-0.020752,0.0335693
				l-0.0081787,0.0153809l-0.020752,0.0335693l-0.0125732,0.0177002l-0.020874,0.0335693l-0.0125732,0.0177002l-0.0251465,0.0355225
				l-0.0125732,0.0178223l-0.0251465,0.0355225l-0.0125732,0.0178223l-0.0251465,0.0355225l-0.0124512,0.0177002
				l-0.0253906,0.0355225l-0.0125732,0.0178223l-0.0251465,0.0355225l-0.0211182,0.0224609l0,0l-0.0397949,0.0490723
				c-1.1827393,1.510376-3.0905762,2.7528076-5.4075928,3.3475342c-1.4611816,0.3773193-5.8763428,1.5319824-6.9506836,1.8062744
				l-3.0058594-11.6958008c1.0726318-0.2784424,5.4995117-1.3900146,6.9605713-1.7672119
				c2.3172607-0.5948486,4.5921631-0.4260254,6.3504639,0.324707l0.057251,0.0245361l0,0l0.0286865,0.012207l0.0418701,0.0167236
				l0.0197754,0.0058594l0.0375977,0.0184326l0.0197754,0.0058594l0.0375977,0.0184326l0.0196533,0.0059814l0.0375977,0.0184326
				l0.0153809,0.0081787l0.0375977,0.0184326l0.0153809,0.0081787l0.0375977,0.0184326l0.0153809,0.0081787l0.0374756,0.0184326
				l0.0155029,0.0083008l0.0310059,0.0167236l0.0153809,0.0081787l0.0310059,0.0168457l0.0153809,0.0081787l0.0310059,0.0167236
				l0.0155029,0.0081787l0.0310059,0.0168457l0.0153809,0.0081787l0.0310059,0.0167236l0.0153809,0.0083008l0.0310059,0.0167236
				l0.0153809,0.0081787l0.0310059,0.0168457l0.0155029,0.0081787l0.0310059,0.0167236l0.0153809,0.0081787l0.0310059,0.0168457
				l0.0153809,0.0081787l0.0267334,0.0187988l0.0153809,0.0081787l0.0266113,0.0187988l0.0153809,0.0081787l0.0267334,0.0187988
				l0.0153809,0.0081787l0.0266113,0.0187988l0.0155029,0.0081787l0.0266113,0.0187988l0.0153809,0.0081787l0.0245361,0.0146484
				l0.0153809,0.0081787l0.0266113,0.0187988l0.0355225,0.0251465c0.0267334,0.0187988,0.0576172,0.0352783,0.0838623,0.0540771l0,0
				c0.8796387,0.5965576,1.5323486,1.4725342,1.852417,2.4862061l0,0l0.0091553,0.0167236
				c0.0096436,0.0279541,0.0168457,0.0517578,0.0263672,0.0797119l0.0023193,0.0043945l0.013916,0.0256348
				c0.0098877,0.0389404,0.0197754,0.0777588,0.0319824,0.1209717c0.0216064,0.0096436,0.0251465,0.057373,0.0183105,0.116333
				L1463.1082764,1094.6590576z"/>
		</g>
	</g>
</g>
</svg>
