<?xml version="1.0" encoding="utf-8"?>
<!-- Generator: Adobe Illustrator 25.1.0, SVG Export Plug-In . SVG Version: 6.00 Build 0)  -->
<svg version="1.1" id="Layer_1" xmlns="http://www.w3.org/2000/svg" xmlns:xlink="http://www.w3.org/1999/xlink" x="0px" y="0px"
	 viewBox="0 0 3300 2200" style="enable-background:new 0 0 3300 2200;" xml:space="preserve">
<style type="text/css">
	.st0{fill:#FFFFFF;}
	.st1{fill:none;stroke:#000000;stroke-width:0.5;}
	.st2{font-family:'Arial-BoldMT';}
	.st3{font-size:12px;}
	.st4{font-family:'ArialMT';}
	.st5{fill:none;stroke:#00AEEF;stroke-width:0.5;}
	.st6{fill:#27AAE1;}
	.st7{fill:none;stroke:#27AAE1;stroke-width:0.5;}
</style>
<g id="Notes">
	<rect id="artboard" class="st0" width="3300" height="2200"/>
	<line class="st1" x1="263" y1="292" x2="3036" y2="292"/>
	<text transform="matrix(1 0 0 1 263 322)" class="st2 st3">Weight/Scale Variations</text>
	<text transform="matrix(1 0 0 1 536.0362 322)" class="st4 st3">Ultralight</text>
	<text transform="matrix(1 0 0 1 844.7501 322)" class="st4 st3">Thin</text>
	<text transform="matrix(1 0 0 1 1140.1193 322)" class="st4 st3">Light</text>
	<text transform="matrix(1 0 0 1 1428.8282 322)" class="st4 st3">Regular</text>
	<text transform="matrix(1 0 0 1 1725.2202 322)" class="st4 st3">Medium</text>
	<text transform="matrix(1 0 0 1 2018.2563 322)" class="st4 st3">Semibold</text>
	<text transform="matrix(1 0 0 1 2327.9712 322)" class="st4 st3">Bold</text>
	<text transform="matrix(1 0 0 1 2619.6831 322)" class="st4 st3">Heavy</text>
	<text transform="matrix(1 0 0 1 2918.728 322)" class="st4 st3">Black</text>
	<line class="st1" x1="263" y1="1903" x2="3036" y2="1903"/>
	<g transform="matrix(1 0 0 1 263 1933)">
		<path d="M9.2,0.8c4.3,0,7.9-3.6,7.9-7.9c0-4.3-3.6-7.9-7.9-7.9c-4.3,0-7.9,3.6-7.9,7.9C1.4-2.7,5,0.8,9.2,0.8z M9.2-0.7
			c-3.5,0-6.4-2.8-6.4-6.4c0-3.6,2.8-6.4,6.4-6.4c3.6,0,6.4,2.8,6.4,6.4C15.7-3.5,12.8-0.7,9.2-0.7z M6.4-6.3h2.1v2.1
			c0,0.4,0.3,0.7,0.7,0.7c0.4,0,0.7-0.3,0.7-0.7v-2.1h2.1c0.4,0,0.7-0.3,0.7-0.7c0-0.4-0.3-0.7-0.7-0.7H10v-2.1
			c0-0.4-0.3-0.8-0.7-0.8c-0.4,0-0.7,0.3-0.7,0.8v2.1H6.4C5.9-7.8,5.6-7.5,5.6-7C5.6-6.6,5.9-6.3,6.4-6.3z"/>
	</g>
	<g transform="matrix(1 0 0 1 281.506 1933)">
		<path d="M11.7,2.9c5.4,0,10-4.5,10-10c0-5.4-4.5-10-10-10c-5.4,0-10,4.5-10,10C1.7-1.6,6.3,2.9,11.7,2.9z M11.7,1.2
			c-4.6,0-8.3-3.7-8.3-8.3c0-4.6,3.7-8.3,8.3-8.3c4.6,0,8.3,3.7,8.3,8.3C20-2.4,16.3,1.2,11.7,1.2z M8-6.2h2.9v2.9
			c0,0.5,0.3,0.8,0.8,0.8c0.5,0,0.8-0.3,0.8-0.8v-2.9h2.9c0.5,0,0.8-0.3,0.8-0.8c0-0.5-0.3-0.8-0.8-0.8h-2.9v-2.9
			c0-0.5-0.3-0.8-0.8-0.8c-0.5,0-0.8,0.3-0.8,0.8v2.9H8C7.5-7.9,7.1-7.5,7.1-7C7.1-6.6,7.5-6.2,8-6.2z"/>
	</g>
	<g transform="matrix(1 0 0 1 304.924 1933)">
		<path d="M15,5.7c7,0,12.7-5.8,12.7-12.7c0-7-5.8-12.7-12.7-12.7C8-19.8,2.3-14,2.3-7.1C2.3-0.1,8,5.7,15,5.7z M15,3.8
			C8.9,3.8,4.1-1,4.1-7.1c0-6,4.8-10.9,10.9-10.9c6,0,10.9,4.9,10.9,10.9C25.9-1,21,3.8,15,3.8z M10.1-6.1h4v4
			c0,0.5,0.4,0.9,0.9,0.9c0.5,0,0.9-0.4,0.9-0.9v-4h4c0.5,0,0.9-0.4,0.9-0.9c0-0.5-0.4-0.9-0.9-0.9h-4v-4c0-0.6-0.4-0.9-0.9-0.9
			c-0.5,0-0.9,0.4-0.9,0.9v4h-4C9.5-7.9,9.1-7.6,9.1-7C9.1-6.5,9.5-6.1,10.1-6.1z"/>
	</g>
	<text transform="matrix(1 0 0 1 263 1953)" class="st2 st3">Design Variations</text>
	<text transform="matrix(1 0 0 1 263 1971)" class="st4 st3">Symbols are supported in up to nine weights and three scales.</text>
	<text transform="matrix(1 0 0 1 263 1989)" class="st4 st3">For optimal layout with text and other symbols, vertically align</text>
	<text transform="matrix(1 0 0 1 263 2007)" class="st4 st3">symbols with the adjacent text.</text>
	<line class="st5" x1="776" y1="1919" x2="776" y2="1933"/>
	<g transform="matrix(1 0 0 1 776 1933)">
		<path d="M3.3,0.1c0.5,0,0.8-0.2,1-0.7l1.3-3.5h5.8l1.3,3.5c0.2,0.5,0.4,0.7,0.9,0.7c0.5,0,0.8-0.3,0.8-0.8c0-0.2,0-0.3-0.1-0.5
			L9.7-13.4C9.4-14,9-14.3,8.4-14.3c-0.6,0-1,0.3-1.2,0.9L2.6-1.2C2.5-1,2.5-0.8,2.5-0.7C2.5-0.2,2.8,0.1,3.3,0.1z M6-5.5l2.4-6.6h0
			l2.4,6.6H6z"/>
	</g>
	<line class="st5" x1="792.8" y1="1919" x2="792.8" y2="1933"/>
	<text transform="matrix(1 0 0 1 776 1953)" class="st2 st3">Margins</text>
	<text transform="matrix(1 0 0 1 776 1971)" class="st4 st3">Leading and trailing margins on the left and right side of each symbol</text>
	<text transform="matrix(1 0 0 1 776 1989)" class="st4 st3">can be adjusted by modifying the x-location of the margin guidelines.</text>
	<text transform="matrix(1 0 0 1 776 2007)" class="st4 st3">Modifications are automatically applied proportionally to all</text>
	<text transform="matrix(1 0 0 1 776 2025)" class="st4 st3">scales and weights.</text>
	<g transform="matrix(1 0 0 1 1289 1933)">
		<path d="M2.8,1.9l1.7,1.7c0.9,0.9,1.8,0.8,2.8-0.2L17.5-7.9c0.3,0.1,0.5,0.1,0.8,0L19.4-8l0.7,0.7l0,0.6c0,0.5,0.1,0.9,0.6,1.4
			l0.8,0.7c0.5,0.5,1.1,0.5,1.6,0l2.9-2.9c0.5-0.5,0.4-1.1,0-1.5L25-9.9c-0.5-0.5-0.8-0.6-1.3-0.6l-0.6,0l-0.6-0.6l0.2-1.1
			c0.1-0.6,0-1-0.6-1.6L19.9-16c-3.3-3.3-7.8-3.2-10.7-0.4c-0.4,0.4-0.4,1-0.2,1.4c0.2,0.4,0.7,0.6,1.3,0.4c1.5-0.3,3-0.4,4.4,0.5
			l-0.6,1.5c-0.2,0.5-0.2,0.9-0.1,1.2L3-0.9C2.1,0,2,1,2.8,1.9z M10.8-16c2.4-1.8,5.7-1.5,7.9,0.8l2.4,2.4c0.2,0.2,0.3,0.4,0.2,0.8
			L21-10.5l1.5,1.5l1-0.1c0.3,0,0.3,0,0.5,0.2l0.6,0.6l-2.4,2.4l-0.6-0.6c-0.2-0.2-0.2-0.3-0.2-0.5l0.1-1L20-9.5l-1.5,0.3
			c-0.3,0.1-0.5,0-0.7-0.2l-2-2c-0.3-0.2-0.3-0.4-0.1-0.8l0.9-2.1c-1.6-1.5-3.6-2.1-5.6-1.5C10.7-15.7,10.6-15.8,10.8-16z M5.3,2.3
			L4.1,1.1C3.6,0.7,3.7,0.3,4.1,0L15-10.2l1.5,1.5l-10,11C6.1,2.7,5.7,2.8,5.3,2.3z"/>
	</g>
	<text transform="matrix(1 0 0 1 1289 1953)" class="st2 st3">Exporting</text>
	<text transform="matrix(1 0 0 1 1289 1971)" class="st4 st3">Symbols should be outlined when exporting to ensure the</text>
	<text transform="matrix(1 0 0 1 1289 1989)" class="st4 st3">design is preserved when submitting to Xcode.</text>
	<text id="template-version" transform="matrix(1 0 0 1 2958.8496 1933)" class="st4 st3">Template v.2.0</text>
	<text transform="matrix(1 0 0 1 2878.5762 1951)" class="st4 st3">Requires Xcode 12 or greater</text>
	<text transform="matrix(1 0 0 1 2906.6074 1969)" class="st4 st3">Generated from network</text>
	<text transform="matrix(1 0 0 1 2921.9238 1987)" class="st4 st3">Typeset at 100 points</text>
	<text transform="matrix(1 0 0 1 263 726)" class="st4 st3">Small</text>
	<text transform="matrix(1 0 0 1 263 1156)" class="st4 st3">Medium</text>
	<text transform="matrix(1 0 0 1 263 1586)" class="st4 st3">Large</text>
</g>
<g id="Guides">
	<g id="H-reference" transform="matrix(1 0 0 1 339 696)">
		<path class="st6" d="M1,0h2.7L13-24.5h32.8L55.1,0h2.6L30.6-70.5h-2.5L1,0z M29.3-67.1L29.3-67.1l15.5,40.4h-31L29.3-67.1z"/>
	</g>
	<line id="Baseline-S" class="st7" x1="263" y1="696" x2="3036" y2="696"/>
	<line id="Capline-S" class="st7" x1="263" y1="625.5" x2="3036" y2="625.5"/>
	<g id="H-reference_1_" transform="matrix(1 0 0 1 339 1126)">
		<path class="st6" d="M1,0h2.7L13-24.5h32.8L55.1,0h2.6L30.6-70.5h-2.5L1,0z M29.3-67.1L29.3-67.1l15.5,40.4h-31L29.3-67.1z"/>
	</g>
	<line id="Baseline-M" class="st7" x1="263" y1="1126" x2="3036" y2="1126"/>
	<line id="Capline-M" class="st7" x1="263" y1="1055.5" x2="3036" y2="1055.5"/>
	<g id="H-reference_2_" transform="matrix(1 0 0 1 339 1556)">
		<path class="st6" d="M1,0h2.7L13-24.5h32.8L55.1,0h2.6L30.6-70.5h-2.5L1,0z M29.3-67.1L29.3-67.1l15.5,40.4h-31L29.3-67.1z"/>
	</g>
	<line id="Baseline-L" class="st7" x1="263" y1="1556" x2="3036" y2="1556"/>
	<line id="Capline-L" class="st7" x1="263" y1="1485.5" x2="3036" y2="1485.5"/>
	<line id="left-margin" class="st5" x1="1383.3" y1="1030.8" x2="1383.3" y2="1150.1"/>
	<line id="right-margin" class="st5" x1="1516.4" y1="1030.8" x2="1516.4" y2="1150.1"/>
</g>
<g id="Symbols">
	<g id="Semibold-M" transform="matrix(1 0 0 1 1983.5 1126)">
		<path d="M59.6-20.4c20.2,0,36.8-16.6,36.8-36.8S79.7-94,59.6-94c-20.2,0-36.8,16.6-36.8,36.8S39.4-20.4,59.6-20.4z M50.7-64.6
			c-0.2-1.3-0.8-2.5-1.7-3.4c2.9-7.3,7.5-13.9,13.3-19.3c0.4,0,0.7,0.1,1.1,0.1c-4.1,7.4-6.6,15.6-7.3,24
			C54.3-63.6,52.5-64,50.7-64.6z M34.8-74.5c4.6-6.5,11.8-11.2,19.9-12.6c-4.5,5.1-8.1,11-10.6,17.3c-0.9,0.1-1.8,0.4-2.5,0.8
			C39.1-70.6,36.9-72.4,34.8-74.5z M71.1-74.5c0-3.4,0.4-6.8,1.3-10.1c6.2,2.9,11.3,8,14.4,14.1c-3.2,2.4-6.7,4.3-10.5,5.6
			c-1.1-1.2-2.6-2-4.4-2C71.5-69.4,71.2-71.9,71.1-74.5z M65.9-74.4c0,3.3,0.4,6.6,1.2,9.7c-0.5,0.6-0.8,1.2-1.1,2
			c-0.9,0.1-1.8,0.1-2.7,0.1c-0.7,0-1.3,0-1.9,0c0.5-6.7,2.2-13.2,5.1-19.1C66.1-79.4,65.9-76.9,65.9-74.4z M29.3-57.2
			c0-4.5,1-8.7,2.8-12.6c2,1.9,4.3,3.7,6.6,5.2c0,0.2,0,0.5,0,0.7c0,1.9,0.9,3.7,2.3,4.8c-0.6,3.2-1,6.5-1,9.9
			c-3.8-1.9-7.3-4.3-10.7-7.1C29.3-56.6,29.3-56.9,29.3-57.2z M89.9-57.2c0,2.6-0.3,5.1-1,7.5c-1.9,1-3.8,1.9-5.7,2.6
			c-3-2.7-5.5-5.9-7.4-9.5c1-0.8,1.6-2,1.8-3.3c3.9-1.3,7.7-3.2,11.1-5.6C89.5-62.8,89.9-60,89.9-57.2z M45.2-46.9
			c-0.1-3.7,0.2-7.4,0.8-11c1.2-0.3,2.2-0.9,3-1.7c2.3,0.7,4.6,1.3,7,1.7c0,4.1,0.5,8.1,1.4,12.1c-0.6,0.5-1.1,1.1-1.5,1.8
			C52.2-44.7,48.6-45.6,45.2-46.9z M63.3-57.4c1.2,0,2.3-0.1,3.4-0.1c0.9,1.3,2.3,2.3,3.9,2.6c1.8,3.6,4.2,6.8,6.9,9.7
			c-3.6,1-7.2,1.5-10.8,1.7c-0.8-1.8-2.4-3.2-4.3-3.6c-0.7-3.3-1.2-6.8-1.3-10.3C62-57.4,62.6-57.4,63.3-57.4z M30.5-48.7
			c3,2.1,6.2,3.9,9.6,5.4c0.2,3.6,0.8,7.1,1.7,10.7C36.4-36.6,32.4-42.2,30.5-48.7z M59.6-26.8c-3.9,0-7.6-0.8-11.1-2.1
			c-1.5-3.9-2.6-8.1-3-12.3c3.3,1.1,6.7,1.9,10.1,2.4c0.9,2.1,2.9,3.6,5.3,3.7c1.2,2.7,2.6,5.3,4.1,7.8C63.3-27,61.5-26.8,59.6-26.8
			z M65.8-37.1c0.3-0.4,0.6-0.7,0.8-1.2c5.3-0.2,10.5-1.1,15.6-2.8c0.7,0.5,1.3,1.1,2,1.5c-3.4,4.8-8.3,8.6-13.9,10.7
			C68.6-31.4,67-34.2,65.8-37.1z"/>
		<g>
			<path d="M-0.5-12.5h7.4l11,27.5h0.2l11-27.5h7.4v36h-5.8V-2.1h-3l6.6-9.4l-14.2,35h-4.4l-14.2-35l6.6,9.4h-3v25.6h-5.8V-12.5z"/>
			<path d="M53.2-12.5h5.4v6.4h-1.9l-9.7,29.6h-6.7L53.2-12.5z M48.6,9.2h16.5l1.7,5H46.9L48.6,9.2z M56.9-6.1v-6.4h3.6l12.8,36
				h-6.7L56.9-6.1z"/>
			<path d="M77.1-12.5h6.4v36h-6.4V-12.5z"/>
			<path d="M89.9-12.5h5.8l21,30.3l-6.1-5h2.7v-25.2h6.4v36H114L92.9-6.9l6.1,5h-2.7v25.3h-6.4V-12.5z"/>
		</g>
	</g>
	<g id="Regular-M" transform="matrix(1 0 0 1 1391.3 1126)">
		<path d="M59.1-18.8c20.1,0,36.8-16.7,36.8-36.8c0-20.1-16.7-36.8-36.8-36.8c-20.1,0-36.8,16.7-36.8,36.8
			C22.3-35.5,39-18.8,59.1-18.8z M49-62.5c-0.1-1.4-0.8-2.7-1.7-3.6c3.2-8,8.2-15.3,14.8-21.2c0.5,0,1,0.1,1.5,0.2
			c-4.7,8-7.6,16.9-8.3,26.2C53.2-61.3,51.1-61.8,49-62.5z M32.4-72.9c5.2-7.9,13.7-13.4,23.5-14.4c-5.5,5.7-9.7,12.4-12.6,19.7
			c-1,0-2.1,0.4-3,1C37.4-68.4,34.7-70.5,32.4-72.9z M65.8-72.4c0,3.3,0.4,6.5,1.2,9.7c-0.6,0.6-1.1,1.5-1.4,2.4
			c-0.9,0.1-1.8,0.1-2.7,0.1c-1.1,0-2.2,0-3.2-0.1c0.6-8.8,3.3-17.3,7.8-24.7C66.3-81.1,65.8-76.8,65.8-72.4z M70.2-72.5
			c0-4.1,0.5-8.3,1.8-12.2c7.1,3.2,12.8,8.9,16.1,15.9c-3.8,2.9-8,5.1-12.6,6.5c-1-1.3-2.6-2.2-4.4-2.2
			C70.6-67.1,70.2-69.7,70.2-72.5z M27.2-55.6c0-4.7,1-9.2,3-13.3c2.3,2.2,4.9,4.2,7.7,5.9c-0.1,0.3-0.1,0.6-0.1,0.9
			c0,1.9,0.9,3.6,2.4,4.7c-0.8,3.8-1.2,7.6-1.2,11.6c-4.1-2-8.1-4.6-11.8-7.6C27.2-54.2,27.2-54.8,27.2-55.6z M91-55.6
			c0,3.1-0.5,6.1-1.3,9c-2.1,1.1-4.3,2.1-6.5,2.9c-3.5-3.1-6.3-6.9-8.5-11c1-0.8,1.6-2,1.9-3.3c4.7-1.4,9.1-3.6,13.2-6.5
			C90.5-61.6,91-58.6,91-55.6z M55.2-56.3c0,4.7,0.5,9.3,1.6,13.8c-0.6,0.5-1.1,1.1-1.5,1.8c-4-0.6-8-1.7-11.9-3.1
			c-0.1-4.3,0.2-8.5,1-12.6c1.3-0.3,2.4-0.9,3.2-1.9c2.4,0.8,4.9,1.4,7.5,1.8C55.2-56.5,55.2-56.4,55.2-56.3z M62.9-55.9
			c1.2,0,2.3,0,3.4-0.1c0.9,1.4,2.4,2.5,4.1,2.7c2.1,4.1,4.8,8,8.1,11.3c-4.3,1.2-8.6,1.8-13,2c-0.8-1.9-2.5-3.3-4.6-3.5
			c-0.9-4-1.4-8.2-1.4-12.3C60.7-56,61.8-55.9,62.9-55.9z M28.4-47c3.4,2.4,7,4.5,10.8,6.1c0.1,3.9,0.7,7.7,1.7,11.4
			C34.9-33.7,30.4-39.9,28.4-47z M59.1-23.7c-4.4,0-8.7-0.9-12.6-2.7c-1.5-4.1-2.5-8.4-2.9-12.8c3.7,1.3,7.4,2.2,11.3,2.7
			c0.7,2.2,2.7,3.8,5.1,3.9c1.2,2.9,2.7,5.7,4.4,8.4C62.7-23.8,60.9-23.7,59.1-23.7z M64.2-34c0.5-0.5,0.9-1.1,1.2-1.8
			c5.7-0.2,11.4-1.1,16.9-2.9c0.8,0.6,1.7,1.3,2.5,1.9c-3.9,5.3-9.5,9.5-15.9,11.6C67.1-28,65.5-31,64.2-34z"/>
		<g>
			<path d="M1.6-13.8h5.2l12.5,30.3h0.1l12.5-30.3H37v36h-4.2V-5.6h-2l4.9-7.2l-14.5,35h-3.8L3-12.8l4.9,7.2h-2v27.8H1.6V-13.8z"/>
			<path d="M54.5-13.8h3.3v5.4h-1.1L45.8,22.2h-4.7L54.5-13.8z M48.8,8.1h15.9l1.5,3.8H47.3L48.8,8.1z M56.8-8.4v-5.4h2.2l13.4,36
				h-4.7L56.8-8.4z"/>
			<path d="M76.4-13.8h4.5v36h-4.5V-13.8z"/>
			<path d="M87.9-13.8h4.4l23.6,33.9l-5.7-5.5h2v-28.4h4.4v36h-4.4L88.6-11.7l5.7,5.5h-2v28.4h-4.4V-13.8z"/>
		</g>
	</g>
</g>
</svg>
