<?xml version="1.0" encoding="utf-8"?>
<!-- Generator: Adobe Illustrator 25.2.0, SVG Export Plug-In . SVG Version: 6.00 Build 0)  -->
<svg version="1.1" id="Layer_1" xmlns="http://www.w3.org/2000/svg" xmlns:xlink="http://www.w3.org/1999/xlink" x="0px" y="0px"
	 viewBox="0 0 3300 2200" style="enable-background:new 0 0 3300 2200;" xml:space="preserve">
<style type="text/css">
	.st0{fill:#FFFFFF;}
	.st1{fill:none;stroke:#000000;stroke-width:0.5;}
	.st2{font-family:'Arial-BoldMT';}
	.st3{font-size:12px;}
	.st4{font-family:'ArialMT';}
	.st5{fill:none;stroke:#00AEEF;stroke-width:0.5;}
	.st6{fill:#27AAE1;}
	.st7{fill:none;stroke:#27AAE1;stroke-width:0.5;}
</style>
<g id="Notes">
	<rect id="artboard" class="st0" width="3300" height="2200"/>
	<line class="st1" x1="263" y1="292" x2="3036" y2="292"/>
	<text transform="matrix(1 0 0 1 263 322)" class="st2 st3">Weight/Scale Variations</text>
	<text transform="matrix(1 0 0 1 536.0362 322)" class="st4 st3">Ultralight</text>
	<text transform="matrix(1 0 0 1 844.7501 322)" class="st4 st3">Thin</text>
	<text transform="matrix(1 0 0 1 1140.1193 322)" class="st4 st3">Light</text>
	<text transform="matrix(1 0 0 1 1428.8282 322)" class="st4 st3">Regular</text>
	<text transform="matrix(1 0 0 1 1725.2202 322)" class="st4 st3">Medium</text>
	<text transform="matrix(1 0 0 1 2018.2563 322)" class="st4 st3">Semibold</text>
	<text transform="matrix(1 0 0 1 2327.9712 322)" class="st4 st3">Bold</text>
	<text transform="matrix(1 0 0 1 2619.6831 322)" class="st4 st3">Heavy</text>
	<text transform="matrix(1 0 0 1 2918.728 322)" class="st4 st3">Black</text>
	<line class="st1" x1="263" y1="1903" x2="3036" y2="1903"/>
	<g transform="matrix(1 0 0 1 263 1933)">
		<path d="M9.2,0.8c4.3,0,7.9-3.6,7.9-7.9S13.5-15,9.2-15s-7.9,3.6-7.9,7.9C1.4-2.7,5,0.8,9.2,0.8z M9.2-0.7c-3.5,0-6.4-2.8-6.4-6.4
			s2.8-6.4,6.4-6.4s6.4,2.8,6.4,6.4C15.7-3.5,12.8-0.7,9.2-0.7z M6.4-6.3h2.1v2.1c0,0.4,0.3,0.7,0.7,0.7s0.7-0.3,0.7-0.7v-2.1H12
			c0.4,0,0.7-0.3,0.7-0.7c0-0.4-0.3-0.7-0.7-0.7h-2v-2.1c0-0.4-0.3-0.8-0.7-0.8s-0.7,0.3-0.7,0.8v2.1H6.4C5.9-7.8,5.6-7.5,5.6-7
			C5.6-6.6,5.9-6.3,6.4-6.3z"/>
	</g>
	<g transform="matrix(1 0 0 1 281.506 1933)">
		<path d="M11.7,2.9c5.4,0,10-4.5,10-10c0-5.4-4.5-10-10-10c-5.4,0-10,4.5-10,10C1.7-1.6,6.3,2.9,11.7,2.9z M11.7,1.2
			c-4.6,0-8.3-3.7-8.3-8.3s3.7-8.3,8.3-8.3S20-11.7,20-7.1C20-2.4,16.3,1.2,11.7,1.2z M8-6.2h2.9v2.9c0,0.5,0.3,0.8,0.8,0.8
			s0.8-0.3,0.8-0.8v-2.9h2.9c0.5,0,0.8-0.3,0.8-0.8s-0.3-0.8-0.8-0.8h-2.9v-2.9c0-0.5-0.3-0.8-0.8-0.8s-0.8,0.3-0.8,0.8v2.9H8
			C7.5-7.9,7.1-7.5,7.1-7C7.1-6.6,7.5-6.2,8-6.2z"/>
	</g>
	<g transform="matrix(1 0 0 1 304.924 1933)">
		<path d="M15,5.7c7,0,12.7-5.8,12.7-12.7c0-7-5.8-12.7-12.7-12.7C8-19.8,2.3-14,2.3-7.1C2.3-0.1,8,5.7,15,5.7z M15,3.8
			C8.9,3.8,4.1-1,4.1-7.1C4.1-13.1,8.9-18,15-18c6,0,10.9,4.9,10.9,10.9C25.9-1,21,3.8,15,3.8z M10.1-6.1h4v4c0,0.5,0.4,0.9,0.9,0.9
			s0.9-0.4,0.9-0.9v-4h4c0.5,0,0.9-0.4,0.9-0.9s-0.4-0.9-0.9-0.9h-4v-4c0-0.6-0.4-0.9-0.9-0.9s-0.9,0.4-0.9,0.9v4h-4
			c-0.6,0-1,0.3-1,0.9C9.1-6.5,9.5-6.1,10.1-6.1z"/>
	</g>
	<text transform="matrix(1 0 0 1 263 1953)" class="st2 st3">Design Variations</text>
	<text transform="matrix(1 0 0 1 263 1971)" class="st4 st3">Symbols are supported in up to nine weights and three scales.</text>
	<text transform="matrix(1 0 0 1 263 1989)" class="st4 st3">For optimal layout with text and other symbols, vertically align</text>
	<text transform="matrix(1 0 0 1 263 2007)" class="st4 st3">symbols with the adjacent text.</text>
	<line class="st5" x1="776" y1="1919" x2="776" y2="1933"/>
	<g transform="matrix(1 0 0 1 776 1933)">
		<path d="M3.3,0.1c0.5,0,0.8-0.2,1-0.7l1.3-3.5h5.8l1.3,3.5c0.2,0.5,0.4,0.7,0.9,0.7s0.8-0.3,0.8-0.8c0-0.2,0-0.3-0.1-0.5L9.7-13.4
			C9.4-14,9-14.3,8.4-14.3s-1,0.3-1.2,0.9L2.6-1.2C2.5-1,2.5-0.8,2.5-0.7C2.5-0.2,2.8,0.1,3.3,0.1z M6-5.5l2.4-6.6l0,0l2.4,6.6
			C10.8-5.5,6-5.5,6-5.5z"/>
	</g>
	<line class="st5" x1="792.8" y1="1919" x2="792.8" y2="1933"/>
	<text transform="matrix(1 0 0 1 776 1953)" class="st2 st3">Margins</text>
	<text transform="matrix(1 0 0 1 776 1971)" class="st4 st3">Leading and trailing margins on the left and right side of each symbol</text>
	<text transform="matrix(1 0 0 1 776 1989)" class="st4 st3">can be adjusted by modifying the x-location of the margin guidelines.</text>
	<text transform="matrix(1 0 0 1 776 2007)" class="st4 st3">Modifications are automatically applied proportionally to all</text>
	<text transform="matrix(1 0 0 1 776 2025)" class="st4 st3">scales and weights.</text>
	<g transform="matrix(1 0 0 1 1289 1933)">
		<path d="M2.8,1.9l1.7,1.7c0.9,0.9,1.8,0.8,2.8-0.2L17.5-7.9c0.3,0.1,0.5,0.1,0.8,0L19.4-8l0.7,0.7v0.6c0,0.5,0.1,0.9,0.6,1.4
			l0.8,0.7c0.5,0.5,1.1,0.5,1.6,0L26-7.5C26.5-8,26.4-8.6,26-9l-1-0.9c-0.5-0.5-0.8-0.6-1.3-0.6h-0.6l-0.6-0.6l0.2-1.1
			c0.1-0.6,0-1-0.6-1.6L19.9-16c-3.3-3.3-7.8-3.2-10.7-0.4C8.8-16,8.8-15.4,9-15s0.7,0.6,1.3,0.4c1.5-0.3,3-0.4,4.4,0.5l-0.6,1.5
			c-0.2,0.5-0.2,0.9-0.1,1.2L3-0.9C2.1,0,2,1,2.8,1.9z M10.8-16c2.4-1.8,5.7-1.5,7.9,0.8l2.4,2.4c0.2,0.2,0.3,0.4,0.2,0.8L21-10.5
			L22.5-9l1-0.1c0.3,0,0.3,0,0.5,0.2l0.6,0.6l-2.4,2.4l-0.6-0.6c-0.2-0.2-0.2-0.3-0.2-0.5l0.1-1L20-9.5l-1.5,0.3
			c-0.3,0.1-0.5,0-0.7-0.2l-2-2c-0.3-0.2-0.3-0.4-0.1-0.8l0.9-2.1C15-15.8,13-16.4,11-15.8C10.7-15.7,10.6-15.8,10.8-16z M5.3,2.3
			L4.1,1.1C3.6,0.7,3.7,0.3,4.1,0L15-10.2l1.5,1.5l-10,11C6.1,2.7,5.7,2.8,5.3,2.3z"/>
	</g>
	<text transform="matrix(1 0 0 1 1289 1953)" class="st2 st3">Exporting</text>
	<text transform="matrix(1 0 0 1 1289 1971)" class="st4 st3">Symbols should be outlined when exporting to ensure the</text>
	<text transform="matrix(1 0 0 1 1289 1989)" class="st4 st3">design is preserved when submitting to Xcode.</text>
	<text id="template-version" transform="matrix(1 0 0 1 2958.8496 1933)" class="st4 st3">Template v.2.0</text>
	<text transform="matrix(1 0 0 1 2878.5762 1951)" class="st4 st3">Requires Xcode 12 or greater</text>
	<text transform="matrix(1 0 0 1 2887.9336 1969)" class="st4 st3">Generated from folder.circle</text>
	<text transform="matrix(1 0 0 1 2921.9238 1987)" class="st4 st3">Typeset at 100 points</text>
	<text transform="matrix(1 0 0 1 263 726)" class="st4 st3">Small</text>
	<text transform="matrix(1 0 0 1 263 1156)" class="st4 st3">Medium</text>
	<text transform="matrix(1 0 0 1 263 1586)" class="st4 st3">Large</text>
</g>
<g id="Guides">
	<g id="H-reference" transform="matrix(1 0 0 1 339 696)">
		<path class="st6" d="M1,0h2.7L13-24.5h32.8L55.1,0h2.6L30.6-70.5h-2.5L1,0z M29.3-67.1L29.3-67.1l15.5,40.4h-31L29.3-67.1z"/>
	</g>
	<line id="Baseline-S" class="st7" x1="263" y1="696" x2="3036" y2="696"/>
	<line id="Capline-S" class="st7" x1="263" y1="625.5" x2="3036" y2="625.5"/>
	<g id="H-reference_1_" transform="matrix(1 0 0 1 339 1126)">
		<path class="st6" d="M1,0h2.7L13-24.5h32.8L55.1,0h2.6L30.6-70.5h-2.5L1,0z M29.3-67.1L29.3-67.1l15.5,40.4h-31L29.3-67.1z"/>
	</g>
	<line id="Baseline-M" class="st7" x1="263" y1="1126" x2="3036" y2="1126"/>
	<line id="Capline-M" class="st7" x1="263" y1="1055.5" x2="3036" y2="1055.5"/>
	<g id="H-reference_2_" transform="matrix(1 0 0 1 339 1556)">
		<path class="st6" d="M1,0h2.7L13-24.5h32.8L55.1,0h2.6L30.6-70.5h-2.5L1,0z M29.3-67.1L29.3-67.1l15.5,40.4h-31L29.3-67.1z"/>
	</g>
	<line id="Baseline-L" class="st7" x1="263" y1="1556" x2="3036" y2="1556"/>
	<line id="Capline-L" class="st7" x1="263" y1="1485.5" x2="3036" y2="1485.5"/>
	<line id="left-margin" class="st5" x1="1391.3" y1="1030.8" x2="1391.3" y2="1150.1"/>
	<line id="right-margin" class="st5" x1="1508.4" y1="1030.8" x2="1508.4" y2="1150.1"/>
</g>
<g id="Symbols">
	<g id="Semibold-M" transform="matrix(1 0 0 1 1983.5 1126)">
		<path d="M59.8,15.5c28,0,51-23.1,51-51.1s-23.1-51-51-51c-28,0-51,23-51,51S31.8,15.5,59.8,15.5z M59.8,4
			C37.9,4,20.3-13.7,20.3-35.6s17.5-39.6,39.5-39.6c21.9,0,39.6,17.6,39.6,39.6C99.4-13.6,81.7,4,59.8,4z"/>
		<path d="M90-51.5c-0.8-0.9-1.9-1.2-3-1.2H61.5c-3.1-6.7-9.7-10.8-17-10.8c-10.4,0-18.7,8.3-18.7,18.7s8.4,18.7,18.7,18.7
			c7.2,0,13.4-4.1,17.1-11.4l5.2,5.2c1.3,1.3,3.2,1.3,4.5,0l5.8-5.8l3.8,3.8c1.3,1.3,3.2,1.3,4.5,0l8.4-8.4c1.3-1.3,1.1-3.1,0-4.5
			L90-51.5z M83.1-39.5L79.6-43h-5.2l-5.3,5.4l-5.2-5.1h-6.2c-1.4,6.8-6.9,11.3-13.3,11.3c-7.4,0-13.4-6-13.4-13.4
			s6.1-13.5,13.5-13.5c6.4,0,11.8,4.4,13.1,10.5h28.1l2.9,2.9L83.1-39.5z M39.8-49.6c-2.6,0-4.7,2.1-4.7,4.7c0,2.6,2.1,4.8,4.7,4.8
			s4.8-2.2,4.8-4.8C44.6-47.5,42.4-49.6,39.8-49.6z"/>
		<g>
			<path d="M39.2-23h3v16.5h-3V-23z M40.7-14.3h4.2c1.1,0,1.9-0.3,2.5-0.8s0.9-1.3,0.9-2.3l0,0c0-1-0.3-1.8-0.9-2.3
				c-0.6-0.5-1.4-0.8-2.5-0.8h-4.2v-2.4h4.9c1.1,0,2.1,0.2,2.9,0.7c0.8,0.5,1.5,1.1,2,1.9s0.7,1.8,0.7,2.9l0,0
				c0,1.1-0.2,2.1-0.7,2.9s-1.1,1.5-2,1.9c-0.8,0.5-1.8,0.7-2.9,0.7h-4.9V-14.3z"/>
			<path d="M56.5-6.9c-1-0.5-1.8-1.2-2.4-2.1c-0.6-0.9-0.8-2-0.8-3.2v-10.7h3v10.5c0,1.1,0.3,2.1,1,2.8s1.6,1,2.8,1s2.2-0.3,2.8-1
				c0.7-0.7,1-1.6,1-2.8v-10.5H67v10.6c0,1.2-0.3,2.3-0.8,3.2s-1.3,1.6-2.3,2.2c-1,0.5-2.2,0.8-3.6,0.8C58.8-6.1,57.6-6.4,56.5-6.9z
				"/>
			<path d="M69.9-23h3v16.5h-3V-23z M71.4-8.7h4.8c1.1,0,1.9-0.2,2.5-0.7c0.6-0.4,0.9-1.1,0.9-1.9l0,0c0-0.6-0.1-1-0.4-1.4
				s-0.7-0.7-1.2-0.8s-1.2-0.3-1.9-0.3h-4.6v-2.1h4.1c1.1,0,1.9-0.2,2.4-0.6c0.6-0.4,0.8-1,0.8-1.8l0,0c0-0.7-0.2-1.3-0.7-1.7
				s-1.2-0.6-2-0.6h-4.6v-2.3h5.4c1,0,1.9,0.2,2.6,0.5s1.3,0.8,1.7,1.4s0.6,1.3,0.6,2.2l0,0c0,0.6-0.1,1.2-0.4,1.7s-0.6,0.9-1.1,1.3
				c-0.5,0.4-1,0.6-1.6,0.6v0.1c0.8,0.1,1.5,0.3,2,0.6c0.6,0.4,1,0.8,1.4,1.4c0.3,0.6,0.5,1.2,0.5,2l0,0c0,1-0.2,1.8-0.7,2.5
				s-1.1,1.2-2,1.6c-0.8,0.4-1.9,0.6-3,0.6h-5.5L71.4-8.7L71.4-8.7z"/>
		</g>
	</g>
	<g id="Regular-M" transform="matrix(1 0 0 1 1391.3 1126)">
		<path d="M58.5-77.6c23.2,0,42,18.8,42,42s-18.8,42-42,42s-42-18.8-42-42S35.4-77.6,58.5-77.6 M58.5-85.6c-27.6,0-50,22.4-50,50
			s22.4,50,50,50s50-22.4,50-50S86.2-85.6,58.5-85.6L58.5-85.6z"/>
		<path d="M89.2-52c-0.7-0.8-1.8-1.1-2.8-1.1H59.6c-3-6.9-9.8-11.3-17.4-11.3c-10.5,0-18.9,8.4-18.9,19c0,10.5,8.5,19,18.9,19
			c7.5,0,13.9-4.4,17.6-12.2l6,5.9c1.1,1.1,2.9,1.1,3.9,0l6.4-6.4l4.4,4.4c1.1,1.1,2.8,1.1,3.9,0l8.8-8.8c1.1-1.1,1-2.8,0-3.9
			L89.2-52z M82.5-39.2l-4-4h-4.7l-5.9,6l-5.6-5.6h-5.7C54.9-35.7,49.1-31,42.3-31c-7.9,0-14.4-6.4-14.4-14.4s6.4-14.4,14.4-14.4
			c6.8,0,12.6,4.6,14.1,11.3h29.3l3.1,3.1L82.5-39.2z M37.3-50.5c-2.9,0-5.1,2.3-5.1,5.2c0,2.8,2.3,5.1,5.1,5.1
			c2.9,0,5.2-2.3,5.2-5.1C42.5-48.3,40.2-50.5,37.3-50.5z"/>
		<g>
			<path d="M38.9-22.5h2v16.2h-2V-22.5z M40-13.9h4.3c1.2,0,2.1-0.3,2.7-0.9s1-1.4,1-2.5l0,0c0-1.1-0.3-1.9-1-2.5
				c-0.6-0.6-1.5-0.9-2.7-0.9H40v-1.8h4.8c1,0,1.9,0.2,2.7,0.7c0.8,0.4,1.4,1,1.8,1.8c0.4,0.8,0.7,1.7,0.7,2.7l0,0
				c0,1-0.2,1.9-0.7,2.7c-0.4,0.8-1.1,1.4-1.8,1.8s-1.7,0.7-2.7,0.7H40V-13.9z"/>
			<path d="M55.3-6.7c-1-0.5-1.7-1.2-2.2-2.1c-0.5-0.9-0.8-1.9-0.8-3.1v-10.5h2V-12c0,1.2,0.4,2.3,1.2,3s1.9,1.2,3.3,1.2
				c1.4,0,2.5-0.4,3.3-1.2s1.1-1.8,1.1-3v-10.4h2v10.5c0,1.2-0.3,2.2-0.8,3.1s-1.3,1.6-2.2,2.1s-2.1,0.8-3.5,0.8S56.2-6.2,55.3-6.7z
				"/>
			<path d="M68.3-22.5h2v16.2h-2V-22.5z M69.3-8.1h4.8c1.2,0,2.1-0.2,2.8-0.7c0.6-0.5,1-1.2,1-2.1l0,0c0-0.6-0.1-1.2-0.4-1.6
				c-0.3-0.4-0.7-0.7-1.3-0.9c-0.6-0.2-1.3-0.3-2.2-0.3h-4.6v-1.7h4.1c1.2,0,2.1-0.2,2.8-0.7c0.6-0.5,1-1.1,1-2l0,0
				c0-0.8-0.3-1.4-0.8-1.8s-1.3-0.6-2.3-0.6h-4.7v-1.8h5.1c0.9,0,1.7,0.2,2.4,0.5s1.2,0.8,1.6,1.4s0.6,1.3,0.6,2.1l0,0
				c0,0.6-0.1,1.1-0.4,1.6s-0.6,0.9-1,1.3s-0.9,0.6-1.5,0.6l0,0c0.8,0.1,1.5,0.3,2,0.7c0.6,0.4,1,0.8,1.3,1.4
				c0.3,0.6,0.5,1.2,0.5,1.9l0,0c0,1-0.2,1.8-0.7,2.4s-1.2,1.2-2,1.6c-0.8,0.4-1.8,0.5-3,0.5h-5.1V-8.1z"/>
		</g>
	</g>
</g>
</svg>
