<svg id="Layer_1" data-name="Layer 1" xmlns="http://www.w3.org/2000/svg" viewBox="0 0 200 200"><defs><style>.cls-1{fill:#0f8425;}</style></defs><path class="cls-1" d="M100,0A100,100,0,1,0,200,100,100,100,0,0,0,100,0Zm0,184a84,84,0,1,1,84-84A84,84,0,0,1,100,184ZM147,40.2a5,5,0,0,0-5-5A53.05,53.05,0,0,0,89,87.88,53,53,0,0,0,46,65.8a5,5,0,0,0-5,5,53.07,53.07,0,0,0,48,52.76V175.8a5,5,0,0,0,10,0V153.56a53.07,53.07,0,0,0,48-52.76,5,5,0,0,0-5-5,53,53,0,0,0-43,22.07V93A53.07,53.07,0,0,0,147,40.2Zm-10.33,5.33A43.08,43.08,0,0,1,99.33,82.87,43.08,43.08,0,0,1,136.67,45.53ZM51.33,76.13a43.07,43.07,0,0,1,37.34,37.34A43.08,43.08,0,0,1,51.33,76.13Zm85.34,30a43.09,43.09,0,0,1-37.34,37.34A43.08,43.08,0,0,1,136.67,106.13Z"/></svg>