<?xml version="1.0" encoding="UTF-8"?><svg id="b" xmlns="http://www.w3.org/2000/svg" viewBox="0 0 200 200"><g id="c"><g id="d"><path d="M100,0C44.8,0,0,44.8,0,100s44.8,100,100,100,100-44.8,100-100S155.4,0,100,0Zm0,184c-46.4,0-84-37.6-84-84S53.8,16,100,16s84,37.6,84,84-37.6,84-84,84Z" style="fill:#3acb55; opacity:.6;"/><path d="M147,40.2c0-2.76-2.24-5-5-5-29.12,0-52.82,23.61-52.99,52.68-9.63-13.36-25.32-22.08-43.01-22.08-2.76,0-5,2.24-5,5,0,27.54,21.11,50.23,48,52.76v52.24c0,2.76,2.24,5,5,5s5-2.24,5-5v-22.24c26.89-2.53,48-25.22,48-52.76,0-2.76-2.24-5-5-5-17.69,0-33.37,8.72-43,22.07v-24.92c26.89-2.53,48-25.22,48-52.76Zm-10.33,5.33c-2.42,19.46-17.89,34.93-37.34,37.34,2.42-19.46,17.89-34.93,37.34-37.34Zm-85.34,30.6c19.46,2.42,34.93,17.89,37.34,37.34-19.46-2.42-34.93-17.89-37.34-37.34Zm85.34,30c-2.42,19.46-17.89,34.93-37.34,37.34,2.42-19.46,17.89-34.93,37.34-37.34Z" style="fill:#3acb55;"/></g></g></svg>